%TF.GenerationSoftware,KiCad,Pcbnew,8.0.2-1*%
%TF.CreationDate,2024-05-18T17:44:33-05:00*%
%TF.ProjectId,can_test,63616e5f-7465-4737-942e-6b696361645f,rev?*%
%TF.SameCoordinates,Original*%
%TF.FileFunction,Legend,Bot*%
%TF.FilePolarity,Positive*%
%FSLAX46Y46*%
G04 Gerber Fmt 4.6, Leading zero omitted, Abs format (unit mm)*
G04 Created by KiCad (PCBNEW 8.0.2-1) date 2024-05-18 17:44:33*
%MOMM*%
%LPD*%
G01*
G04 APERTURE LIST*
%ADD10C,0.000000*%
%ADD11R,1.700000X1.700000*%
%ADD12O,1.700000X1.700000*%
%ADD13C,1.404000*%
%ADD14C,1.304000*%
%ADD15C,0.804000*%
G04 APERTURE END LIST*
D10*
%TO.C,G\u002A\u002A\u002A*%
G36*
X61458307Y-29537044D02*
G01*
X61458396Y-29577795D01*
X61457813Y-29612400D01*
X61456497Y-29642965D01*
X61454387Y-29671593D01*
X61451423Y-29700390D01*
X61447599Y-29731410D01*
X61426513Y-29858625D01*
X61396807Y-29983524D01*
X61358018Y-30107845D01*
X61309684Y-30233326D01*
X61294294Y-30268655D01*
X61275272Y-30309982D01*
X61254535Y-30353142D01*
X61233049Y-30396233D01*
X61211782Y-30437351D01*
X61191701Y-30474595D01*
X61173773Y-30506060D01*
X61158965Y-30529846D01*
X61151659Y-30540959D01*
X61140929Y-30558137D01*
X61133549Y-30571106D01*
X61130804Y-30577682D01*
X61133400Y-30583000D01*
X61141882Y-30590364D01*
X61144401Y-30591879D01*
X61152831Y-30594630D01*
X61159437Y-30590315D01*
X61159476Y-30590272D01*
X61164896Y-30584114D01*
X61175869Y-30571418D01*
X61191217Y-30553554D01*
X61209762Y-30531896D01*
X61230325Y-30507814D01*
X61244416Y-30491480D01*
X61274691Y-30457424D01*
X61307017Y-30422241D01*
X61340400Y-30386920D01*
X61373842Y-30352454D01*
X61406350Y-30319836D01*
X61436927Y-30290057D01*
X61464578Y-30264108D01*
X61488307Y-30242983D01*
X61507119Y-30227672D01*
X61520018Y-30219168D01*
X61524277Y-30217134D01*
X61557556Y-30206670D01*
X61589613Y-30205968D01*
X61619349Y-30214902D01*
X61645668Y-30233348D01*
X61657991Y-30246654D01*
X61673071Y-30269920D01*
X61683646Y-30297680D01*
X61690048Y-30331292D01*
X61692607Y-30372112D01*
X61691843Y-30411797D01*
X61691656Y-30421497D01*
X61684433Y-30514223D01*
X61667479Y-30626939D01*
X61641559Y-30735345D01*
X61606437Y-30840043D01*
X61561873Y-30941633D01*
X61507629Y-31040713D01*
X61443467Y-31137885D01*
X61369150Y-31233747D01*
X61366670Y-31236703D01*
X61347706Y-31258478D01*
X61323612Y-31285100D01*
X61296356Y-31314448D01*
X61267904Y-31344400D01*
X61240222Y-31372836D01*
X61227284Y-31385981D01*
X61204688Y-31409183D01*
X61185311Y-31429394D01*
X61170189Y-31445521D01*
X61160357Y-31456465D01*
X61156850Y-31461132D01*
X61157705Y-31463728D01*
X61163651Y-31470673D01*
X61168097Y-31472424D01*
X61182862Y-31471526D01*
X61205940Y-31465513D01*
X61236920Y-31454522D01*
X61275391Y-31438691D01*
X61320939Y-31418157D01*
X61340210Y-31409245D01*
X61390543Y-31386987D01*
X61433090Y-31370086D01*
X61468667Y-31358473D01*
X61498086Y-31352077D01*
X61522163Y-31350831D01*
X61541710Y-31354663D01*
X61557542Y-31363505D01*
X61570473Y-31377287D01*
X61581316Y-31395939D01*
X61586482Y-31408287D01*
X61595387Y-31445079D01*
X61598062Y-31489528D01*
X61594540Y-31542005D01*
X61593300Y-31550732D01*
X61588735Y-31582858D01*
X61574707Y-31647284D01*
X61554659Y-31708446D01*
X61527965Y-31767491D01*
X61494002Y-31825567D01*
X61452144Y-31883821D01*
X61401767Y-31943401D01*
X61342246Y-32005455D01*
X61265564Y-32075833D01*
X61175245Y-32146621D01*
X61079909Y-32209674D01*
X60980895Y-32264116D01*
X60879541Y-32309066D01*
X60872008Y-32311950D01*
X60843747Y-32322125D01*
X60810192Y-32333493D01*
X60774918Y-32344863D01*
X60741498Y-32355046D01*
X60722370Y-32360738D01*
X60696710Y-32368632D01*
X60675737Y-32375394D01*
X60661227Y-32380448D01*
X60654957Y-32383213D01*
X60654692Y-32383528D01*
X60657963Y-32386880D01*
X60670559Y-32391221D01*
X60691564Y-32396349D01*
X60720060Y-32402060D01*
X60755131Y-32408152D01*
X60795861Y-32414422D01*
X60817369Y-32417673D01*
X60855604Y-32424371D01*
X60885877Y-32431309D01*
X60909843Y-32438972D01*
X60929158Y-32447848D01*
X60945478Y-32458424D01*
X60955879Y-32467506D01*
X60973637Y-32490060D01*
X60985705Y-32515504D01*
X60990156Y-32540305D01*
X60987878Y-32559826D01*
X60982649Y-32576917D01*
X60979203Y-32588178D01*
X60965379Y-32617324D01*
X60947833Y-32643781D01*
X60907498Y-32690544D01*
X60845715Y-32750143D01*
X60776072Y-32805795D01*
X60699822Y-32856815D01*
X60618216Y-32902517D01*
X60532508Y-32942215D01*
X60443949Y-32975225D01*
X60353792Y-33000861D01*
X60263288Y-33018437D01*
X60240350Y-33021708D01*
X60220739Y-33024799D01*
X60208342Y-33028264D01*
X60201534Y-33033481D01*
X60198685Y-33041830D01*
X60198170Y-33054690D01*
X60198359Y-33073438D01*
X60198381Y-33081511D01*
X60198441Y-33086093D01*
X60198623Y-33099973D01*
X60199075Y-33112807D01*
X60199665Y-33117617D01*
X60202714Y-33117908D01*
X60215516Y-33120192D01*
X60235351Y-33124339D01*
X60260153Y-33129860D01*
X60287858Y-33136266D01*
X60316400Y-33143068D01*
X60343715Y-33149779D01*
X60367737Y-33155909D01*
X60386402Y-33160970D01*
X60397644Y-33164472D01*
X60421864Y-33174986D01*
X60449808Y-33191263D01*
X60471826Y-33209094D01*
X60485729Y-33226928D01*
X60489681Y-33236037D01*
X60494728Y-33263358D01*
X60492542Y-33294258D01*
X60487031Y-33312961D01*
X60483194Y-33325984D01*
X60459239Y-33374162D01*
X60422709Y-33427816D01*
X60377457Y-33478835D01*
X60324333Y-33526608D01*
X60264189Y-33570521D01*
X60197876Y-33609961D01*
X60126245Y-33644314D01*
X60050148Y-33672968D01*
X59970435Y-33695310D01*
X59966815Y-33696125D01*
X59949074Y-33699724D01*
X59924745Y-33704274D01*
X59895700Y-33709462D01*
X59863811Y-33714976D01*
X59830948Y-33720506D01*
X59798981Y-33725739D01*
X59769783Y-33730363D01*
X59745223Y-33734067D01*
X59727173Y-33736538D01*
X59717504Y-33737466D01*
X59716853Y-33737492D01*
X59714872Y-33740008D01*
X59721651Y-33746723D01*
X59737376Y-33757786D01*
X59762236Y-33773350D01*
X59768904Y-33777448D01*
X59804508Y-33802117D01*
X59830806Y-33826307D01*
X59848627Y-33851124D01*
X59858798Y-33877679D01*
X59860887Y-33896008D01*
X59862149Y-33907079D01*
X59861798Y-33920983D01*
X59859271Y-33937696D01*
X59853376Y-33955159D01*
X59843018Y-33977403D01*
X59832960Y-33995814D01*
X59801717Y-34039870D01*
X59762713Y-34080749D01*
X59717824Y-34116637D01*
X59668925Y-34145723D01*
X59639857Y-34159410D01*
X59609831Y-34171044D01*
X59578535Y-34179995D01*
X59541397Y-34187770D01*
X59528001Y-34189914D01*
X59502357Y-34193234D01*
X59470410Y-34196807D01*
X59434524Y-34200418D01*
X59397067Y-34203853D01*
X59360403Y-34206897D01*
X59326899Y-34209337D01*
X59298922Y-34210958D01*
X59278836Y-34211546D01*
X59272785Y-34211708D01*
X59259776Y-34213339D01*
X59253260Y-34216160D01*
X59252979Y-34217092D01*
X59253505Y-34226140D01*
X59256253Y-34241779D01*
X59260766Y-34261271D01*
X59263212Y-34271317D01*
X59269824Y-34311616D01*
X59269860Y-34311836D01*
X59269813Y-34348829D01*
X59263139Y-34385872D01*
X59249956Y-34423136D01*
X59225712Y-34464438D01*
X59193079Y-34500624D01*
X59152610Y-34531358D01*
X59104859Y-34556300D01*
X59050381Y-34575114D01*
X59039849Y-34577258D01*
X58989730Y-34587461D01*
X58923458Y-34593004D01*
X58875321Y-34594422D01*
X58864196Y-34628281D01*
X58844295Y-34676076D01*
X58818218Y-34716112D01*
X58785738Y-34748350D01*
X58746452Y-34773287D01*
X58737669Y-34777545D01*
X58710715Y-34788620D01*
X58682359Y-34796868D01*
X58650359Y-34802734D01*
X58612475Y-34806665D01*
X58566466Y-34809106D01*
X58542673Y-34809991D01*
X58518607Y-34811068D01*
X58502427Y-34812243D01*
X58492683Y-34813774D01*
X58487924Y-34815917D01*
X58486701Y-34818929D01*
X58487561Y-34823066D01*
X58491842Y-34834363D01*
X58502045Y-34852983D01*
X58517953Y-34876090D01*
X58540457Y-34905063D01*
X58619245Y-35008738D01*
X58696465Y-35122410D01*
X58770898Y-35244311D01*
X58841907Y-35373400D01*
X58908856Y-35508634D01*
X58921160Y-35534838D01*
X58939878Y-35574480D01*
X58955214Y-35606466D01*
X58967801Y-35631947D01*
X58978273Y-35652074D01*
X58987262Y-35667998D01*
X58995400Y-35680869D01*
X59003321Y-35691840D01*
X59011657Y-35702061D01*
X59021041Y-35712682D01*
X59025466Y-35717590D01*
X59033455Y-35726385D01*
X59041125Y-35734490D01*
X59049037Y-35742230D01*
X59057752Y-35749933D01*
X59067833Y-35757922D01*
X59079839Y-35766524D01*
X59094333Y-35776064D01*
X59111876Y-35786869D01*
X59133029Y-35799263D01*
X59158353Y-35813572D01*
X59188410Y-35830122D01*
X59223760Y-35849239D01*
X59264966Y-35871247D01*
X59312588Y-35896474D01*
X59367188Y-35925243D01*
X59429327Y-35957882D01*
X59499566Y-35994715D01*
X59578466Y-36036069D01*
X59578711Y-36036197D01*
X59690545Y-36094326D01*
X59794217Y-36147137D01*
X59890377Y-36194863D01*
X59979677Y-36237741D01*
X60062768Y-36276003D01*
X60140300Y-36309886D01*
X60212925Y-36339623D01*
X60281294Y-36365450D01*
X60346057Y-36387600D01*
X60407867Y-36406309D01*
X60467373Y-36421811D01*
X60525226Y-36434341D01*
X60582078Y-36444133D01*
X60638581Y-36451423D01*
X60695383Y-36456443D01*
X60753138Y-36459431D01*
X60767849Y-36459973D01*
X60798392Y-36461259D01*
X60826299Y-36462633D01*
X60848977Y-36463962D01*
X60863833Y-36465113D01*
X60891181Y-36467874D01*
X60891181Y-36498928D01*
X60890285Y-36515106D01*
X60883677Y-36542943D01*
X60870000Y-36569259D01*
X60848497Y-36595072D01*
X60818409Y-36621397D01*
X60778976Y-36649251D01*
X60776447Y-36650881D01*
X60751481Y-36665492D01*
X60723864Y-36679666D01*
X60699124Y-36690542D01*
X60692376Y-36693030D01*
X60667893Y-36700871D01*
X60639294Y-36708748D01*
X60609383Y-36716011D01*
X60580965Y-36722005D01*
X60556844Y-36726081D01*
X60539826Y-36727584D01*
X60532017Y-36728124D01*
X60513966Y-36730714D01*
X60491613Y-36734814D01*
X60468445Y-36739717D01*
X60447946Y-36744718D01*
X60433604Y-36749108D01*
X60419750Y-36754388D01*
X60437982Y-36770959D01*
X60444060Y-36775723D01*
X60453275Y-36781213D01*
X60466210Y-36787418D01*
X60483898Y-36794742D01*
X60507377Y-36803592D01*
X60537681Y-36814372D01*
X60575847Y-36827488D01*
X60622908Y-36843345D01*
X60686322Y-36864188D01*
X60781649Y-36893780D01*
X60869660Y-36918699D01*
X60951466Y-36939172D01*
X61028177Y-36955426D01*
X61100905Y-36967687D01*
X61170762Y-36976182D01*
X61238858Y-36981137D01*
X61306304Y-36982780D01*
X61321378Y-36982877D01*
X61345989Y-36983764D01*
X61365412Y-36985985D01*
X61383142Y-36990034D01*
X61402674Y-36996406D01*
X61406358Y-36997731D01*
X61424544Y-37004625D01*
X61438368Y-37010435D01*
X61445080Y-37014019D01*
X61445686Y-37015559D01*
X61445312Y-37025350D01*
X61442532Y-37041566D01*
X61437737Y-37061655D01*
X61433125Y-37077722D01*
X61426796Y-37094625D01*
X61418707Y-37108820D01*
X61407568Y-37121472D01*
X61392089Y-37133745D01*
X61370980Y-37146804D01*
X61342952Y-37161812D01*
X61306714Y-37179935D01*
X61284498Y-37190757D01*
X61239077Y-37211844D01*
X61199139Y-37228426D01*
X61162329Y-37241170D01*
X61126293Y-37250744D01*
X61088674Y-37257816D01*
X61047119Y-37263054D01*
X60999272Y-37267126D01*
X60985270Y-37268295D01*
X60966318Y-37270507D01*
X60953313Y-37272857D01*
X60948483Y-37274999D01*
X60948504Y-37275241D01*
X60952465Y-37280320D01*
X60963480Y-37289385D01*
X60981869Y-37302651D01*
X61007952Y-37320338D01*
X61042049Y-37342662D01*
X61084482Y-37369841D01*
X61135569Y-37402093D01*
X61167730Y-37422348D01*
X61215763Y-37452956D01*
X61255998Y-37479215D01*
X61289174Y-37501723D01*
X61316028Y-37521077D01*
X61337301Y-37537873D01*
X61346363Y-37546057D01*
X61353731Y-37552711D01*
X61366057Y-37566186D01*
X61375017Y-37578897D01*
X61381351Y-37591440D01*
X61385797Y-37604413D01*
X61388499Y-37617981D01*
X61386801Y-37646469D01*
X61375046Y-37673841D01*
X61353464Y-37699855D01*
X61322282Y-37724270D01*
X61281728Y-37746845D01*
X61232030Y-37767336D01*
X61230745Y-37767794D01*
X61189607Y-37780548D01*
X61146520Y-37790023D01*
X61099423Y-37796505D01*
X61046252Y-37800279D01*
X60984947Y-37801633D01*
X60930752Y-37800849D01*
X60858442Y-37796087D01*
X60787191Y-37786565D01*
X60712150Y-37771752D01*
X60700656Y-37769151D01*
X60681260Y-37764613D01*
X60662980Y-37760041D01*
X60644242Y-37754971D01*
X60623474Y-37748943D01*
X60599104Y-37741493D01*
X60569561Y-37732157D01*
X60533271Y-37720475D01*
X60488662Y-37705982D01*
X60483927Y-37704444D01*
X60454249Y-37695024D01*
X60428262Y-37687136D01*
X60407514Y-37681223D01*
X60393552Y-37677728D01*
X60387923Y-37677097D01*
X60387915Y-37677104D01*
X60389130Y-37682582D01*
X60394226Y-37695914D01*
X60402560Y-37715580D01*
X60413489Y-37740065D01*
X60426371Y-37767849D01*
X60438633Y-37794037D01*
X60463401Y-37848602D01*
X60483330Y-37895524D01*
X60498665Y-37935774D01*
X60509651Y-37970324D01*
X60516532Y-38000144D01*
X60519552Y-38026207D01*
X60518958Y-38049483D01*
X60514992Y-38070944D01*
X60507900Y-38091562D01*
X60489832Y-38122308D01*
X60463727Y-38149311D01*
X60431914Y-38170136D01*
X60431549Y-38170318D01*
X60413447Y-38178627D01*
X60397852Y-38183423D01*
X60380467Y-38185626D01*
X60356990Y-38186157D01*
X60342629Y-38185836D01*
X60322658Y-38184150D01*
X60301336Y-38180683D01*
X60277288Y-38175060D01*
X60249135Y-38166908D01*
X60215503Y-38155854D01*
X60175013Y-38141523D01*
X60126290Y-38123542D01*
X60121102Y-38121604D01*
X60091682Y-38110688D01*
X60065876Y-38101235D01*
X60045216Y-38093798D01*
X60031237Y-38088930D01*
X60025473Y-38087184D01*
X60024090Y-38088604D01*
X60021193Y-38097525D01*
X60018613Y-38111926D01*
X60012086Y-38152321D01*
X60001308Y-38195195D01*
X59987323Y-38229411D01*
X59969674Y-38255801D01*
X59947905Y-38275193D01*
X59921558Y-38288417D01*
X59902871Y-38292895D01*
X59872883Y-38295177D01*
X59837599Y-38294040D01*
X59799458Y-38289684D01*
X59760901Y-38282311D01*
X59724366Y-38272122D01*
X59724139Y-38272045D01*
X59713199Y-38267131D01*
X59694852Y-38257583D01*
X59670519Y-38244196D01*
X59641618Y-38227766D01*
X59609570Y-38209086D01*
X59575795Y-38188952D01*
X59450841Y-38113626D01*
X59440495Y-38127752D01*
X59425194Y-38146513D01*
X59402878Y-38169637D01*
X59378601Y-38191424D01*
X59355041Y-38209499D01*
X59334874Y-38221485D01*
X59301648Y-38232125D01*
X59262501Y-38236214D01*
X59221227Y-38233281D01*
X59180681Y-38223292D01*
X59144885Y-38207662D01*
X59104838Y-38184031D01*
X59064458Y-38154782D01*
X59026063Y-38121755D01*
X58991972Y-38086789D01*
X58964501Y-38051723D01*
X58958656Y-38042935D01*
X58935915Y-38006269D01*
X58910363Y-37961785D01*
X58882754Y-37910954D01*
X58853841Y-37855250D01*
X58824376Y-37796144D01*
X58795113Y-37735110D01*
X58766805Y-37673620D01*
X58740204Y-37613146D01*
X58739822Y-37612254D01*
X58730267Y-37589571D01*
X58717456Y-37558629D01*
X58701941Y-37520785D01*
X58684274Y-37477399D01*
X58665006Y-37429830D01*
X58644689Y-37379435D01*
X58623876Y-37327575D01*
X58603118Y-37275608D01*
X58593567Y-37251678D01*
X58569332Y-37191422D01*
X58548711Y-37140899D01*
X58531692Y-37100083D01*
X58518264Y-37068948D01*
X58508416Y-37047470D01*
X58502138Y-37035622D01*
X58499419Y-37033381D01*
X58499314Y-37033717D01*
X58498071Y-37042255D01*
X58496401Y-37059611D01*
X58494412Y-37084355D01*
X58492213Y-37115058D01*
X58489913Y-37150289D01*
X58487620Y-37188618D01*
X58484799Y-37235592D01*
X58481813Y-37277824D01*
X58478617Y-37312613D01*
X58474928Y-37341503D01*
X58470460Y-37366038D01*
X58464929Y-37387761D01*
X58458050Y-37408215D01*
X58449537Y-37428946D01*
X58439107Y-37451495D01*
X58429304Y-37471138D01*
X58418167Y-37490373D01*
X58405644Y-37507720D01*
X58389590Y-37526103D01*
X58367855Y-37548440D01*
X58354069Y-37562018D01*
X58333756Y-37580671D01*
X58315839Y-37594680D01*
X58297535Y-37606128D01*
X58276061Y-37617095D01*
X58274759Y-37617714D01*
X58236838Y-37634009D01*
X58202748Y-37644525D01*
X58168517Y-37650211D01*
X58130173Y-37652018D01*
X58110795Y-37651416D01*
X58075475Y-37645473D01*
X58048310Y-37633117D01*
X58029199Y-37614262D01*
X58018040Y-37588825D01*
X58014731Y-37556722D01*
X58014754Y-37556007D01*
X58015675Y-37545212D01*
X58016383Y-37538621D01*
X58147983Y-37538621D01*
X58151270Y-37537483D01*
X58161447Y-37532502D01*
X58175971Y-37524785D01*
X58201820Y-37509515D01*
X58245677Y-37477351D01*
X58281771Y-37441934D01*
X58308794Y-37404450D01*
X58312575Y-37397713D01*
X58321895Y-37378424D01*
X58329095Y-37357985D01*
X58334546Y-37334542D01*
X58338618Y-37306244D01*
X58341681Y-37271236D01*
X58344105Y-37227666D01*
X58344969Y-37210979D01*
X58347804Y-37168372D01*
X58351543Y-37122700D01*
X58355803Y-37078457D01*
X58360196Y-37040135D01*
X58360397Y-37038554D01*
X58367394Y-36965831D01*
X58371140Y-36885616D01*
X58371621Y-36800265D01*
X58368821Y-36712135D01*
X58362727Y-36623580D01*
X58362350Y-36619312D01*
X58359577Y-36588502D01*
X58357076Y-36561723D01*
X58355001Y-36540563D01*
X58353508Y-36526609D01*
X58352751Y-36521447D01*
X58352611Y-36521377D01*
X58346514Y-36519868D01*
X58334670Y-36517470D01*
X58330146Y-36516664D01*
X58322454Y-36516518D01*
X58316623Y-36520225D01*
X58310578Y-36529654D01*
X58302243Y-36546674D01*
X58299139Y-36553558D01*
X58294127Y-36566789D01*
X58289535Y-36582497D01*
X58285022Y-36602253D01*
X58280246Y-36627631D01*
X58274863Y-36660201D01*
X58268531Y-36701538D01*
X58255160Y-36790934D01*
X58241179Y-36884502D01*
X58228601Y-36968808D01*
X58217343Y-37044408D01*
X58207324Y-37111857D01*
X58198462Y-37171712D01*
X58190676Y-37224528D01*
X58183883Y-37270861D01*
X58178003Y-37311267D01*
X58172953Y-37346302D01*
X58168651Y-37376522D01*
X58165017Y-37402482D01*
X58161968Y-37424739D01*
X58159423Y-37443847D01*
X58155753Y-37472212D01*
X58152441Y-37498545D01*
X58149910Y-37519488D01*
X58148358Y-37533395D01*
X58147983Y-37538621D01*
X58016383Y-37538621D01*
X58017849Y-37524973D01*
X58021181Y-37496066D01*
X58025573Y-37459266D01*
X58030932Y-37415351D01*
X58037159Y-37365095D01*
X58044160Y-37309274D01*
X58051837Y-37248666D01*
X58060096Y-37184045D01*
X58068840Y-37116187D01*
X58077973Y-37045869D01*
X58079631Y-37033140D01*
X58088663Y-36963667D01*
X58097283Y-36897075D01*
X58105395Y-36834112D01*
X58112907Y-36775520D01*
X58119723Y-36722044D01*
X58125749Y-36674430D01*
X58130890Y-36633423D01*
X58135054Y-36599766D01*
X58138145Y-36574205D01*
X58140068Y-36557484D01*
X58140730Y-36550348D01*
X58140318Y-36545608D01*
X58137288Y-36538789D01*
X58129926Y-36531442D01*
X58116622Y-36522096D01*
X58095760Y-36509276D01*
X58082530Y-36501512D01*
X58065695Y-36492115D01*
X58053774Y-36486075D01*
X58048751Y-36484439D01*
X58048544Y-36484756D01*
X58047961Y-36486661D01*
X58047180Y-36490704D01*
X58046127Y-36497516D01*
X58044727Y-36507729D01*
X58042905Y-36521976D01*
X58040586Y-36540888D01*
X58037695Y-36565096D01*
X58034157Y-36595234D01*
X58029897Y-36631932D01*
X58024839Y-36675823D01*
X58018909Y-36727538D01*
X58012031Y-36787710D01*
X58004132Y-36856971D01*
X57995135Y-36935951D01*
X57993048Y-36954191D01*
X57986903Y-37006893D01*
X57980902Y-37056948D01*
X57975188Y-37103257D01*
X57969902Y-37144717D01*
X57965187Y-37180227D01*
X57961185Y-37208686D01*
X57958037Y-37228991D01*
X57955887Y-37240043D01*
X57955062Y-37243093D01*
X57936066Y-37294235D01*
X57908769Y-37342196D01*
X57874615Y-37384824D01*
X57835049Y-37419970D01*
X57829014Y-37424308D01*
X57786206Y-37449828D01*
X57739623Y-37468274D01*
X57686540Y-37480760D01*
X57663336Y-37484137D01*
X57621107Y-37486109D01*
X57586711Y-37481274D01*
X57560077Y-37469593D01*
X57541135Y-37451029D01*
X57529818Y-37425543D01*
X57526054Y-37393097D01*
X57526082Y-37390847D01*
X57526929Y-37374621D01*
X57527530Y-37366964D01*
X57658558Y-37366964D01*
X57658931Y-37367043D01*
X57665306Y-37364268D01*
X57677712Y-37357278D01*
X57693999Y-37347402D01*
X57712018Y-37335970D01*
X57729619Y-37324310D01*
X57744652Y-37313750D01*
X57745434Y-37313172D01*
X57772411Y-37289560D01*
X57796715Y-37261692D01*
X57814827Y-37233585D01*
X57821098Y-37220852D01*
X57827195Y-37206292D01*
X57832034Y-37190924D01*
X57835891Y-37173148D01*
X57839038Y-37151363D01*
X57841750Y-37123970D01*
X57844301Y-37089366D01*
X57846965Y-37045952D01*
X57848862Y-37017087D01*
X57852793Y-36967742D01*
X57857862Y-36912401D01*
X57863818Y-36853624D01*
X57870411Y-36793972D01*
X57877388Y-36736005D01*
X57881263Y-36704685D01*
X57886562Y-36660004D01*
X57891358Y-36617421D01*
X57895480Y-36578581D01*
X57898754Y-36545131D01*
X57901008Y-36518716D01*
X57902067Y-36500984D01*
X57903712Y-36448892D01*
X57843807Y-36445766D01*
X57821642Y-36444840D01*
X57801218Y-36444477D01*
X57786776Y-36444786D01*
X57780525Y-36445766D01*
X57780243Y-36446489D01*
X57778546Y-36455215D01*
X57775713Y-36472982D01*
X57771885Y-36498809D01*
X57767197Y-36531718D01*
X57761790Y-36570728D01*
X57755801Y-36614858D01*
X57749367Y-36663129D01*
X57742628Y-36714561D01*
X57737767Y-36751956D01*
X57729570Y-36814935D01*
X57721016Y-36880579D01*
X57712387Y-36946724D01*
X57703967Y-37011201D01*
X57696039Y-37071845D01*
X57688884Y-37126490D01*
X57682786Y-37172969D01*
X57682238Y-37177146D01*
X57676592Y-37220407D01*
X57671464Y-37260189D01*
X57666994Y-37295351D01*
X57663326Y-37324750D01*
X57660603Y-37347247D01*
X57658966Y-37361698D01*
X57658558Y-37366964D01*
X57527530Y-37366964D01*
X57528816Y-37350584D01*
X57531553Y-37320820D01*
X57534952Y-37287413D01*
X57538823Y-37252449D01*
X57542715Y-37218656D01*
X57547916Y-37173337D01*
X57553244Y-37126767D01*
X57558257Y-37082814D01*
X57562513Y-37045344D01*
X57564369Y-37028992D01*
X57567981Y-36997259D01*
X57572477Y-36957853D01*
X57577675Y-36912368D01*
X57583390Y-36862400D01*
X57589443Y-36809542D01*
X57595649Y-36755390D01*
X57601827Y-36701538D01*
X57607260Y-36653742D01*
X57612639Y-36605436D01*
X57617518Y-36560627D01*
X57621777Y-36520459D01*
X57625296Y-36486073D01*
X57627957Y-36458609D01*
X57629641Y-36439209D01*
X57630229Y-36429015D01*
X57630117Y-36422469D01*
X57627028Y-36400846D01*
X57619021Y-36386587D01*
X57605169Y-36377799D01*
X57603583Y-36377347D01*
X57591587Y-36375830D01*
X57570184Y-36374446D01*
X57540161Y-36373220D01*
X57502304Y-36372181D01*
X57457400Y-36371357D01*
X57406235Y-36370776D01*
X57382681Y-36370557D01*
X57324559Y-36369736D01*
X57274532Y-36368467D01*
X57230902Y-36366592D01*
X57191968Y-36363953D01*
X57156031Y-36360391D01*
X57121391Y-36355749D01*
X57086348Y-36349869D01*
X57049202Y-36342592D01*
X57008253Y-36333760D01*
X56894308Y-36305712D01*
X56757520Y-36264153D01*
X56627590Y-36215363D01*
X56503901Y-36159057D01*
X56385835Y-36094948D01*
X56272775Y-36022750D01*
X56164106Y-35942177D01*
X56148305Y-35929276D01*
X56110757Y-35896603D01*
X56069624Y-35858553D01*
X56026830Y-35817055D01*
X55984302Y-35774038D01*
X55943967Y-35731431D01*
X55907749Y-35691164D01*
X55877576Y-35655166D01*
X55843526Y-35611214D01*
X55780876Y-35523391D01*
X55721657Y-35431302D01*
X55666605Y-35336399D01*
X55616458Y-35240135D01*
X55571951Y-35143961D01*
X55533822Y-35049331D01*
X55502806Y-34957696D01*
X55479641Y-34870508D01*
X55473625Y-34842728D01*
X55465226Y-34799039D01*
X55458268Y-34755195D01*
X55452626Y-34709732D01*
X55448173Y-34661186D01*
X55444784Y-34608093D01*
X55442333Y-34548989D01*
X55440693Y-34482409D01*
X55439738Y-34406891D01*
X55439619Y-34392293D01*
X55439187Y-34343973D01*
X55438724Y-34304508D01*
X55438157Y-34272663D01*
X55437414Y-34247203D01*
X55436423Y-34226896D01*
X55435110Y-34210507D01*
X55433404Y-34196802D01*
X55431231Y-34184548D01*
X55428520Y-34172510D01*
X55425197Y-34159454D01*
X55415089Y-34124469D01*
X55399186Y-34081396D01*
X55379732Y-34041596D01*
X55355763Y-34003755D01*
X55326315Y-33966554D01*
X55290423Y-33928677D01*
X55247125Y-33888807D01*
X55195455Y-33845627D01*
X55148980Y-33807143D01*
X55098555Y-33762111D01*
X55056282Y-33719875D01*
X55021454Y-33679521D01*
X54993362Y-33640133D01*
X54971297Y-33600796D01*
X54954553Y-33560594D01*
X54942420Y-33518613D01*
X54939644Y-33506796D01*
X54936099Y-33492006D01*
X54933983Y-33483562D01*
X54932345Y-33480655D01*
X54924258Y-33477051D01*
X54918595Y-33477965D01*
X54903610Y-33480913D01*
X54880446Y-33485680D01*
X54850144Y-33492047D01*
X54813743Y-33499793D01*
X54772284Y-33508699D01*
X54726809Y-33518543D01*
X54678357Y-33529106D01*
X54633046Y-33538959D01*
X54587767Y-33548681D01*
X54546597Y-33557393D01*
X54510549Y-33564886D01*
X54480632Y-33570954D01*
X54457855Y-33575389D01*
X54443230Y-33577983D01*
X54437766Y-33578530D01*
X54437174Y-33575089D01*
X54439407Y-33563251D01*
X54444829Y-33545194D01*
X54452767Y-33522892D01*
X54462550Y-33498319D01*
X54473508Y-33473448D01*
X54495844Y-33430138D01*
X54513215Y-33404070D01*
X54627133Y-33404070D01*
X54720638Y-33404096D01*
X54745247Y-33403965D01*
X54772926Y-33403388D01*
X54793559Y-33402405D01*
X54806023Y-33401075D01*
X54809194Y-33399456D01*
X54804695Y-33396613D01*
X54792169Y-33390058D01*
X54774043Y-33381213D01*
X54752500Y-33371168D01*
X54700755Y-33347546D01*
X54679572Y-33363021D01*
X54673744Y-33367323D01*
X54656899Y-33380112D01*
X54642761Y-33391284D01*
X54627133Y-33404070D01*
X54513215Y-33404070D01*
X54534145Y-33372661D01*
X54579860Y-33321592D01*
X54634204Y-33275436D01*
X54643623Y-33268299D01*
X54660550Y-33254997D01*
X54673543Y-33244162D01*
X54680362Y-33237630D01*
X54681235Y-33236349D01*
X54684051Y-33228404D01*
X54685829Y-33215311D01*
X54686549Y-33196325D01*
X54686189Y-33170704D01*
X54684764Y-33138453D01*
X54795308Y-33138453D01*
X54884243Y-33138453D01*
X54895719Y-33138445D01*
X54925456Y-33138270D01*
X54946769Y-33137753D01*
X54961170Y-33136748D01*
X54970170Y-33135109D01*
X54975283Y-33132688D01*
X54978019Y-33129337D01*
X54978877Y-33127552D01*
X54983504Y-33116632D01*
X54990712Y-33098697D01*
X54999694Y-33075776D01*
X55009642Y-33049897D01*
X55023833Y-33014460D01*
X55059739Y-32938736D01*
X55100521Y-32870934D01*
X55146994Y-32809787D01*
X55199973Y-32754030D01*
X55242551Y-32716841D01*
X55303929Y-32673277D01*
X55372047Y-32635858D01*
X55385439Y-32629521D01*
X55443418Y-32605403D01*
X55501460Y-32587109D01*
X55561993Y-32574092D01*
X55627439Y-32565802D01*
X55700226Y-32561692D01*
X55741766Y-32560934D01*
X55796164Y-32561743D01*
X55841951Y-32565087D01*
X55880076Y-32571194D01*
X55911488Y-32580293D01*
X55937138Y-32592614D01*
X55957974Y-32608383D01*
X55974945Y-32627830D01*
X55975770Y-32629005D01*
X55983976Y-32643378D01*
X55991417Y-32660471D01*
X55997075Y-32677296D01*
X55999930Y-32690867D01*
X55998963Y-32698200D01*
X55998825Y-32698301D01*
X55992467Y-32697384D01*
X55979575Y-32692843D01*
X55962765Y-32685588D01*
X55925106Y-32669507D01*
X55886457Y-32656685D01*
X55846830Y-32647895D01*
X55803144Y-32642464D01*
X55752318Y-32639721D01*
X55748232Y-32639604D01*
X55712704Y-32638936D01*
X55683743Y-32639306D01*
X55657879Y-32640918D01*
X55631641Y-32643981D01*
X55601561Y-32648701D01*
X55534724Y-32662021D01*
X55464622Y-32681490D01*
X55402183Y-32705638D01*
X55346293Y-32734981D01*
X55295837Y-32770034D01*
X55249701Y-32811312D01*
X55202115Y-32866119D01*
X55160639Y-32928733D01*
X55126585Y-32997132D01*
X55100475Y-33070079D01*
X55082836Y-33146341D01*
X55074191Y-33224680D01*
X55073975Y-33229139D01*
X55073093Y-33264192D01*
X55074176Y-33289703D01*
X55077248Y-33306298D01*
X55082636Y-33319270D01*
X55093836Y-33340867D01*
X55108575Y-33366155D01*
X55125296Y-33392600D01*
X55129988Y-33399456D01*
X55142448Y-33417665D01*
X55158475Y-33438816D01*
X55159535Y-33440122D01*
X55173751Y-33458913D01*
X55181291Y-33472657D01*
X55181594Y-33481735D01*
X55174099Y-33486527D01*
X55158244Y-33487416D01*
X55133466Y-33484780D01*
X55099205Y-33479002D01*
X55092042Y-33477699D01*
X55067236Y-33473470D01*
X55046794Y-33470416D01*
X55032670Y-33468809D01*
X55026818Y-33468923D01*
X55026998Y-33469506D01*
X55032138Y-33475904D01*
X55043617Y-33488627D01*
X55060672Y-33506871D01*
X55082541Y-33529835D01*
X55108461Y-33556717D01*
X55137670Y-33586712D01*
X55169405Y-33619020D01*
X55220435Y-33671055D01*
X55282340Y-33735175D01*
X55337097Y-33793170D01*
X55385099Y-33845463D01*
X55426740Y-33892479D01*
X55462415Y-33934643D01*
X55474583Y-33950199D01*
X55492810Y-33977216D01*
X55509017Y-34006753D01*
X55523381Y-34039600D01*
X55536080Y-34076547D01*
X55547292Y-34118384D01*
X55557193Y-34165898D01*
X55565963Y-34219881D01*
X55573777Y-34281122D01*
X55580815Y-34350409D01*
X55587253Y-34428534D01*
X55593269Y-34516284D01*
X55597092Y-34572130D01*
X55603485Y-34647736D01*
X55610979Y-34715874D01*
X55619866Y-34778299D01*
X55630441Y-34836764D01*
X55642996Y-34893024D01*
X55657826Y-34948834D01*
X55675225Y-35005947D01*
X55703531Y-35086789D01*
X55753048Y-35203336D01*
X55811580Y-35315486D01*
X55879512Y-35423959D01*
X55957231Y-35529471D01*
X55972970Y-35548406D01*
X55998919Y-35577543D01*
X56029791Y-35610576D01*
X56063936Y-35645852D01*
X56099699Y-35681719D01*
X56135430Y-35716526D01*
X56169475Y-35748621D01*
X56200182Y-35776351D01*
X56225898Y-35798065D01*
X56341307Y-35885227D01*
X56458742Y-35963167D01*
X56577308Y-36031028D01*
X56697387Y-36088977D01*
X56819361Y-36137182D01*
X56943612Y-36175810D01*
X57070521Y-36205028D01*
X57200472Y-36225004D01*
X57223109Y-36227401D01*
X57254647Y-36230132D01*
X57288350Y-36232516D01*
X57322650Y-36234494D01*
X57355978Y-36236007D01*
X57386764Y-36236995D01*
X57413440Y-36237400D01*
X57434437Y-36237163D01*
X57448186Y-36236224D01*
X57453117Y-36234524D01*
X57453085Y-36234256D01*
X57448779Y-36228113D01*
X57438638Y-36217640D01*
X57424686Y-36204943D01*
X57403764Y-36185521D01*
X57369908Y-36146604D01*
X57343952Y-36105751D01*
X57326668Y-36064285D01*
X57318830Y-36023532D01*
X57318767Y-36022639D01*
X57318031Y-36005094D01*
X57318424Y-35992624D01*
X57319869Y-35987879D01*
X57320981Y-35988105D01*
X57330252Y-35992965D01*
X57347323Y-36003996D01*
X57371889Y-36020983D01*
X57403644Y-36043713D01*
X57442282Y-36071970D01*
X57487498Y-36105540D01*
X57510032Y-36122319D01*
X57562753Y-36161037D01*
X57608753Y-36193867D01*
X57648961Y-36221368D01*
X57684304Y-36244097D01*
X57715711Y-36262612D01*
X57744108Y-36277470D01*
X57770426Y-36289229D01*
X57795591Y-36298447D01*
X57820531Y-36305682D01*
X57839910Y-36309939D01*
X57893449Y-36315734D01*
X57949739Y-36314258D01*
X58005593Y-36305719D01*
X58057828Y-36290323D01*
X58069637Y-36286027D01*
X58081647Y-36282201D01*
X58086884Y-36281313D01*
X58087071Y-36282157D01*
X58085934Y-36290048D01*
X58082746Y-36303101D01*
X58081755Y-36306928D01*
X58078811Y-36336797D01*
X58084794Y-36363024D01*
X58099219Y-36384403D01*
X58121602Y-36399727D01*
X58136585Y-36404699D01*
X58162740Y-36408698D01*
X58190130Y-36408880D01*
X58213693Y-36404956D01*
X58238717Y-36395065D01*
X58264134Y-36377176D01*
X58281068Y-36353452D01*
X58289765Y-36323516D01*
X58290472Y-36286989D01*
X58288982Y-36273145D01*
X58284097Y-36250832D01*
X58275375Y-36230837D01*
X58274070Y-36228979D01*
X58401190Y-36228979D01*
X58401716Y-36233178D01*
X58404773Y-36247511D01*
X58410291Y-36270124D01*
X58417973Y-36299947D01*
X58427516Y-36335913D01*
X58438621Y-36376953D01*
X58450987Y-36421997D01*
X58458457Y-36448892D01*
X58464314Y-36469979D01*
X58478301Y-36519828D01*
X58492649Y-36570478D01*
X58507056Y-36620858D01*
X58521222Y-36669902D01*
X58534847Y-36716539D01*
X58547631Y-36759702D01*
X58559273Y-36798322D01*
X58559873Y-36800265D01*
X58569472Y-36831331D01*
X58577929Y-36857660D01*
X58590593Y-36895402D01*
X58607784Y-36944842D01*
X58625808Y-36994521D01*
X58645044Y-37045349D01*
X58665870Y-37098236D01*
X58688665Y-37154092D01*
X58713809Y-37213826D01*
X58741680Y-37278349D01*
X58772656Y-37348569D01*
X58807117Y-37425398D01*
X58845441Y-37509745D01*
X58888006Y-37602520D01*
X58914498Y-37659747D01*
X58939580Y-37713130D01*
X58961711Y-37759136D01*
X58981502Y-37798901D01*
X58999559Y-37833559D01*
X59016494Y-37864245D01*
X59032915Y-37892095D01*
X59049430Y-37918243D01*
X59066650Y-37943825D01*
X59085183Y-37969975D01*
X59100090Y-37989720D01*
X59127821Y-38021099D01*
X59154083Y-38043003D01*
X59179582Y-38055849D01*
X59205028Y-38060056D01*
X59231127Y-38056040D01*
X59243919Y-38050852D01*
X59267059Y-38034582D01*
X59285836Y-38012606D01*
X59297243Y-37988019D01*
X59297467Y-37987178D01*
X59300916Y-37968242D01*
X59301514Y-37947448D01*
X59299001Y-37924174D01*
X59293117Y-37897795D01*
X59283602Y-37867690D01*
X59270194Y-37833235D01*
X59252634Y-37793807D01*
X59230661Y-37748782D01*
X59204016Y-37697539D01*
X59172437Y-37639453D01*
X59135664Y-37573902D01*
X59093437Y-37500263D01*
X59080178Y-37477317D01*
X59030498Y-37391009D01*
X58985433Y-37312060D01*
X58944337Y-37239241D01*
X58906566Y-37171321D01*
X58871476Y-37107071D01*
X58838423Y-37045261D01*
X58806761Y-36984662D01*
X58775847Y-36924044D01*
X58745036Y-36862176D01*
X58713683Y-36797830D01*
X58681144Y-36729775D01*
X58646775Y-36656782D01*
X58609931Y-36577621D01*
X58603157Y-36562995D01*
X58582840Y-36519037D01*
X58566468Y-36483344D01*
X58553684Y-36455007D01*
X58544129Y-36433119D01*
X58537447Y-36416771D01*
X58533280Y-36405055D01*
X58531269Y-36397063D01*
X58531058Y-36391887D01*
X58532288Y-36388618D01*
X58534602Y-36386349D01*
X58541339Y-36381657D01*
X58547047Y-36378767D01*
X58548414Y-36379411D01*
X58551881Y-36383587D01*
X58557442Y-36392442D01*
X58565616Y-36406903D01*
X58576920Y-36427894D01*
X58591870Y-36456341D01*
X58610984Y-36493170D01*
X58636233Y-36541741D01*
X58710298Y-36681139D01*
X58785321Y-36817629D01*
X58862091Y-36952508D01*
X58941392Y-37087076D01*
X59024013Y-37222630D01*
X59110741Y-37360468D01*
X59202361Y-37501890D01*
X59299662Y-37648194D01*
X59403430Y-37800677D01*
X59416981Y-37820294D01*
X59440781Y-37854035D01*
X59461418Y-37881971D01*
X59480505Y-37906100D01*
X59499655Y-37928420D01*
X59520479Y-37950929D01*
X59544589Y-37975626D01*
X59562369Y-37993342D01*
X59596904Y-38026436D01*
X59626007Y-38052203D01*
X59650392Y-38071216D01*
X59670772Y-38084053D01*
X59687859Y-38091288D01*
X59688993Y-38091620D01*
X59726707Y-38099423D01*
X59758483Y-38098918D01*
X59784914Y-38089906D01*
X59806595Y-38072187D01*
X59824118Y-38045562D01*
X59832510Y-38027643D01*
X59839075Y-38008377D01*
X59841520Y-37989732D01*
X59839848Y-37969158D01*
X59834059Y-37944109D01*
X59824153Y-37912036D01*
X59819148Y-37896869D01*
X59812757Y-37878058D01*
X59806380Y-37860462D01*
X59799623Y-37843485D01*
X59792094Y-37826531D01*
X59783400Y-37809003D01*
X59773147Y-37790307D01*
X59760944Y-37769845D01*
X59746398Y-37747023D01*
X59729115Y-37721244D01*
X59708704Y-37691912D01*
X59684771Y-37658432D01*
X59656924Y-37620207D01*
X59624770Y-37576642D01*
X59587916Y-37527141D01*
X59545970Y-37471107D01*
X59498539Y-37407945D01*
X59445230Y-37337059D01*
X59406605Y-37285592D01*
X59335378Y-37189918D01*
X59269215Y-37099895D01*
X59207033Y-37013981D01*
X59147751Y-36930632D01*
X59090285Y-36848307D01*
X59033555Y-36765461D01*
X58976478Y-36680553D01*
X58917972Y-36592040D01*
X58856954Y-36498380D01*
X58856053Y-36496989D01*
X58845896Y-36481387D01*
X58831145Y-36458819D01*
X58812811Y-36430825D01*
X58791905Y-36398946D01*
X58769435Y-36364724D01*
X58746413Y-36329700D01*
X58737941Y-36316812D01*
X58711199Y-36275960D01*
X58689671Y-36242696D01*
X58672886Y-36216197D01*
X58660373Y-36195639D01*
X58651659Y-36180198D01*
X58646274Y-36169051D01*
X58643747Y-36161374D01*
X58643606Y-36156342D01*
X58645379Y-36153132D01*
X58646708Y-36151985D01*
X58650759Y-36150783D01*
X58655998Y-36153114D01*
X58663162Y-36159850D01*
X58672991Y-36171866D01*
X58686223Y-36190035D01*
X58703596Y-36215231D01*
X58725848Y-36248327D01*
X58759946Y-36299087D01*
X58834164Y-36407580D01*
X58910192Y-36515959D01*
X58988655Y-36625047D01*
X59070178Y-36735667D01*
X59155386Y-36848644D01*
X59244903Y-36964802D01*
X59339355Y-37084963D01*
X59439367Y-37209952D01*
X59545563Y-37340592D01*
X59658569Y-37477707D01*
X59710359Y-37540079D01*
X59761950Y-37601977D01*
X59807925Y-37656810D01*
X59848779Y-37705116D01*
X59885009Y-37747436D01*
X59917112Y-37784310D01*
X59945583Y-37816278D01*
X59970920Y-37843878D01*
X59993618Y-37867652D01*
X60014175Y-37888139D01*
X60033086Y-37905879D01*
X60050848Y-37921412D01*
X60067957Y-37935277D01*
X60084910Y-37948015D01*
X60102204Y-37960165D01*
X60111373Y-37966386D01*
X60141200Y-37985807D01*
X60165297Y-37999779D01*
X60185514Y-38009197D01*
X60203703Y-38014957D01*
X60221716Y-38017954D01*
X60221884Y-38017972D01*
X60253934Y-38017412D01*
X60280386Y-38008369D01*
X60302064Y-37990562D01*
X60314981Y-37972169D01*
X60323733Y-37948910D01*
X60327448Y-37920221D01*
X60326603Y-37884024D01*
X60322592Y-37845481D01*
X60312579Y-37794657D01*
X60296762Y-37747540D01*
X60274239Y-37702080D01*
X60244114Y-37656229D01*
X60205486Y-37607937D01*
X60199085Y-37600502D01*
X60117375Y-37506677D01*
X60029185Y-37407258D01*
X59935679Y-37303519D01*
X59838021Y-37196733D01*
X59737375Y-37088175D01*
X59634907Y-36979118D01*
X59531780Y-36870837D01*
X59474802Y-36811466D01*
X59417521Y-36751884D01*
X59366104Y-36698525D01*
X59319869Y-36650681D01*
X59278130Y-36607643D01*
X59240205Y-36568704D01*
X59213174Y-36541001D01*
X59151465Y-36477634D01*
X59093863Y-36418310D01*
X59040728Y-36363402D01*
X58992416Y-36313283D01*
X58949286Y-36268326D01*
X58911695Y-36228906D01*
X58880001Y-36195397D01*
X58854563Y-36168171D01*
X58835738Y-36147603D01*
X58823883Y-36134066D01*
X58812970Y-36120807D01*
X58802363Y-36106955D01*
X58797149Y-36097965D01*
X58796414Y-36092113D01*
X58799242Y-36087676D01*
X58801425Y-36085700D01*
X58806984Y-36083795D01*
X58814514Y-36087327D01*
X58826734Y-36097242D01*
X58835209Y-36104950D01*
X58850363Y-36119126D01*
X58871290Y-36138905D01*
X58897129Y-36163462D01*
X58927018Y-36191974D01*
X58960098Y-36223616D01*
X58995508Y-36257564D01*
X59032385Y-36292992D01*
X59069870Y-36329077D01*
X59107101Y-36364994D01*
X59143217Y-36399918D01*
X59177359Y-36433026D01*
X59191294Y-36446551D01*
X59227012Y-36481146D01*
X59268608Y-36521353D01*
X59315295Y-36566418D01*
X59366286Y-36615584D01*
X59420795Y-36668095D01*
X59478035Y-36723196D01*
X59537219Y-36780131D01*
X59597560Y-36838145D01*
X59658273Y-36896480D01*
X59718570Y-36954382D01*
X59777664Y-37011095D01*
X59834769Y-37065863D01*
X59889098Y-37117931D01*
X59939865Y-37166541D01*
X59986282Y-37210940D01*
X60027563Y-37250370D01*
X60062922Y-37284077D01*
X60091571Y-37311304D01*
X60117272Y-37335233D01*
X60191986Y-37399514D01*
X60266539Y-37455451D01*
X60342756Y-37504347D01*
X60422461Y-37547504D01*
X60426456Y-37549479D01*
X60502379Y-37584069D01*
X60574139Y-37610714D01*
X60643540Y-37629918D01*
X60712386Y-37642183D01*
X60782482Y-37648014D01*
X60796855Y-37648471D01*
X60858752Y-37647795D01*
X60913408Y-37642652D01*
X60960404Y-37633184D01*
X60999317Y-37619530D01*
X61029727Y-37601829D01*
X61051213Y-37580221D01*
X61063354Y-37554846D01*
X61065018Y-37546057D01*
X61063524Y-37519879D01*
X61053830Y-37492323D01*
X61036692Y-37465911D01*
X61029695Y-37458720D01*
X61015014Y-37445176D01*
X60993884Y-37426471D01*
X60967174Y-37403335D01*
X60935751Y-37376498D01*
X60900484Y-37346691D01*
X60862241Y-37314642D01*
X60821890Y-37281084D01*
X60780299Y-37246746D01*
X60738336Y-37212357D01*
X60696870Y-37178649D01*
X60656768Y-37146351D01*
X60645497Y-37137337D01*
X60598908Y-37100414D01*
X60552187Y-37063973D01*
X60504790Y-37027637D01*
X60456175Y-36991028D01*
X60405800Y-36953769D01*
X60353121Y-36915483D01*
X60297596Y-36875793D01*
X60238684Y-36834321D01*
X60175840Y-36790690D01*
X60108523Y-36744522D01*
X60036189Y-36695441D01*
X59958297Y-36643069D01*
X59874304Y-36587028D01*
X59783668Y-36526942D01*
X59685844Y-36462433D01*
X59580292Y-36393125D01*
X59466469Y-36318638D01*
X59394279Y-36271421D01*
X59327926Y-36227910D01*
X59269433Y-36189406D01*
X59218343Y-36155586D01*
X59174196Y-36126129D01*
X59136537Y-36100714D01*
X59104907Y-36079020D01*
X59078849Y-36060725D01*
X59057905Y-36045507D01*
X59041618Y-36033046D01*
X59029530Y-36023019D01*
X59021183Y-36015106D01*
X59016121Y-36008984D01*
X59013884Y-36004334D01*
X59014017Y-36000832D01*
X59015953Y-35997235D01*
X59021814Y-35993088D01*
X59023957Y-35993380D01*
X59029134Y-35995141D01*
X59036945Y-35998748D01*
X59047863Y-36004491D01*
X59062360Y-36012661D01*
X59080909Y-36023546D01*
X59103982Y-36037438D01*
X59132052Y-36054626D01*
X59165590Y-36075400D01*
X59205070Y-36100049D01*
X59250963Y-36128865D01*
X59303742Y-36162137D01*
X59363879Y-36200154D01*
X59431847Y-36243207D01*
X59508118Y-36291586D01*
X59528426Y-36304469D01*
X59589481Y-36343135D01*
X59648544Y-36380445D01*
X59704936Y-36415974D01*
X59757977Y-36449300D01*
X59806988Y-36479996D01*
X59851290Y-36507640D01*
X59890203Y-36531806D01*
X59923047Y-36552071D01*
X59949143Y-36568010D01*
X59967812Y-36579199D01*
X59978374Y-36585213D01*
X59995616Y-36593763D01*
X60022001Y-36604252D01*
X60041052Y-36607773D01*
X60048654Y-36607274D01*
X60071311Y-36599642D01*
X60090468Y-36584401D01*
X60104585Y-36563608D01*
X60112123Y-36539318D01*
X60111543Y-36513589D01*
X60109362Y-36506285D01*
X60096680Y-36485998D01*
X60074116Y-36464182D01*
X60041936Y-36441069D01*
X60000410Y-36416891D01*
X59991960Y-36412400D01*
X59969969Y-36400811D01*
X59940749Y-36385495D01*
X59905611Y-36367137D01*
X59865868Y-36346421D01*
X59822833Y-36324033D01*
X59777819Y-36300655D01*
X59732137Y-36276974D01*
X59713429Y-36267268D01*
X59664710Y-36241875D01*
X59609370Y-36212896D01*
X59548849Y-36181095D01*
X59484591Y-36147235D01*
X59418037Y-36112080D01*
X59350628Y-36076394D01*
X59283807Y-36040941D01*
X59219016Y-36006484D01*
X59157695Y-35973788D01*
X59101288Y-35943616D01*
X59051236Y-35916731D01*
X59008981Y-35893899D01*
X58972715Y-35874221D01*
X58950326Y-35903702D01*
X58935221Y-35922430D01*
X58916564Y-35940697D01*
X58897773Y-35951900D01*
X58876289Y-35957434D01*
X58849553Y-35958696D01*
X58840941Y-35958426D01*
X58817979Y-35956139D01*
X58793085Y-35951207D01*
X58764802Y-35943187D01*
X58731677Y-35931632D01*
X58692253Y-35916098D01*
X58645074Y-35896138D01*
X58627925Y-35888738D01*
X58603883Y-35878462D01*
X58584407Y-35870259D01*
X58571157Y-35864825D01*
X58565796Y-35862859D01*
X58564929Y-35867731D01*
X58564362Y-35880993D01*
X58564144Y-35900619D01*
X58564323Y-35924585D01*
X58565279Y-35986312D01*
X58538356Y-36040490D01*
X58528895Y-36058889D01*
X58512035Y-36087466D01*
X58493879Y-36111576D01*
X58471851Y-36134443D01*
X58443375Y-36159289D01*
X58421662Y-36180546D01*
X58406349Y-36204858D01*
X58401190Y-36228979D01*
X58274070Y-36228979D01*
X58261574Y-36211186D01*
X58241454Y-36189906D01*
X58213774Y-36165024D01*
X58193808Y-36147356D01*
X58178203Y-36132249D01*
X58169501Y-36122011D01*
X58168391Y-36117368D01*
X58172354Y-36115930D01*
X58185225Y-36112442D01*
X58204165Y-36107917D01*
X58226682Y-36102972D01*
X58236310Y-36100866D01*
X58276958Y-36089690D01*
X58310291Y-36075824D01*
X58338821Y-36058037D01*
X58365059Y-36035096D01*
X58393319Y-36001202D01*
X58415279Y-35960004D01*
X58427683Y-35914675D01*
X58429488Y-35901814D01*
X58430754Y-35884171D01*
X58430238Y-35865818D01*
X58427690Y-35844901D01*
X58422864Y-35819570D01*
X58415511Y-35787972D01*
X58405383Y-35748257D01*
X58396701Y-35713840D01*
X58390673Y-35686557D01*
X58386951Y-35664155D01*
X58385115Y-35644098D01*
X58384745Y-35623850D01*
X58384856Y-35616599D01*
X58385517Y-35597522D01*
X58386547Y-35583659D01*
X58387776Y-35577613D01*
X58389962Y-35578221D01*
X58398583Y-35584097D01*
X58411965Y-35594792D01*
X58428327Y-35608931D01*
X58473736Y-35647123D01*
X58538683Y-35693781D01*
X58603424Y-35731038D01*
X58667439Y-35758605D01*
X58730206Y-35776193D01*
X58730736Y-35776300D01*
X58755828Y-35780671D01*
X58782483Y-35784220D01*
X58808724Y-35786819D01*
X58832574Y-35788342D01*
X58852058Y-35788661D01*
X58865197Y-35787649D01*
X58870017Y-35785180D01*
X58868443Y-35777695D01*
X58862984Y-35761458D01*
X58854221Y-35738544D01*
X58842778Y-35710427D01*
X58829281Y-35678580D01*
X58814358Y-35644477D01*
X58798633Y-35609591D01*
X58782733Y-35575396D01*
X58767283Y-35543364D01*
X58755008Y-35518615D01*
X58732543Y-35474353D01*
X58711299Y-35434223D01*
X58690059Y-35396128D01*
X58667604Y-35357968D01*
X58642716Y-35317647D01*
X58614177Y-35273067D01*
X58580769Y-35222129D01*
X58580475Y-35221684D01*
X58561872Y-35193942D01*
X58540579Y-35162811D01*
X58517547Y-35129626D01*
X58493730Y-35095717D01*
X58470077Y-35062418D01*
X58447541Y-35031061D01*
X58427073Y-35002977D01*
X58409626Y-34979501D01*
X58396151Y-34961963D01*
X58387599Y-34951696D01*
X58385918Y-34951784D01*
X58376742Y-34955067D01*
X58361578Y-34961686D01*
X58342597Y-34970721D01*
X58310347Y-34985460D01*
X58246296Y-35007531D01*
X58182698Y-35019468D01*
X58118612Y-35021336D01*
X58053094Y-35013198D01*
X57985203Y-34995119D01*
X57966959Y-34988784D01*
X57920698Y-34970029D01*
X57873571Y-34946816D01*
X57823514Y-34918077D01*
X57768466Y-34882741D01*
X57725527Y-34852807D01*
X57660123Y-34802053D01*
X57597878Y-34746847D01*
X57537921Y-34686227D01*
X57479380Y-34619235D01*
X57421385Y-34544911D01*
X57363065Y-34462294D01*
X57303549Y-34370426D01*
X57281285Y-34334554D01*
X57260305Y-34300131D01*
X57243939Y-34272307D01*
X57231595Y-34249950D01*
X57222682Y-34231925D01*
X57216608Y-34217100D01*
X57212780Y-34204342D01*
X57210607Y-34192518D01*
X57209759Y-34185634D01*
X57209078Y-34172258D01*
X57211362Y-34164832D01*
X57217257Y-34160229D01*
X57221673Y-34158527D01*
X57228533Y-34159537D01*
X57237546Y-34166024D01*
X57250963Y-34179257D01*
X57256472Y-34185302D01*
X57270353Y-34201803D01*
X57287693Y-34223507D01*
X57306814Y-34248294D01*
X57326036Y-34274044D01*
X57334843Y-34286005D01*
X57380662Y-34346330D01*
X57425490Y-34401758D01*
X57471690Y-34455032D01*
X57521626Y-34508897D01*
X57577662Y-34566094D01*
X57633600Y-34620924D01*
X57688880Y-34672520D01*
X57739948Y-34716979D01*
X57787811Y-34754958D01*
X57833478Y-34787116D01*
X57877956Y-34814109D01*
X57922252Y-34836596D01*
X57967375Y-34855235D01*
X58014333Y-34870683D01*
X58064133Y-34883598D01*
X58111995Y-34891699D01*
X58165151Y-34893202D01*
X58214167Y-34886137D01*
X58258283Y-34870625D01*
X58296740Y-34846786D01*
X58305007Y-34839822D01*
X58326005Y-34817368D01*
X58341518Y-34793338D01*
X58350749Y-34769572D01*
X58352903Y-34747908D01*
X58347185Y-34730186D01*
X58346879Y-34729744D01*
X58338780Y-34721595D01*
X58324057Y-34709517D01*
X58304703Y-34695066D01*
X58282708Y-34679799D01*
X58257810Y-34662878D01*
X58193965Y-34616873D01*
X58131901Y-34568072D01*
X58070473Y-34515425D01*
X58008536Y-34457883D01*
X57944944Y-34394399D01*
X57878551Y-34323923D01*
X57808212Y-34245406D01*
X57788420Y-34222913D01*
X57761831Y-34192909D01*
X57736486Y-34164533D01*
X57717406Y-34143365D01*
X57776087Y-34143365D01*
X57776969Y-34144715D01*
X57783980Y-34152334D01*
X57797204Y-34165723D01*
X57815696Y-34183981D01*
X57838510Y-34206208D01*
X57864702Y-34231502D01*
X57893325Y-34258964D01*
X57923436Y-34287692D01*
X57954088Y-34316787D01*
X57984337Y-34345348D01*
X58013238Y-34372473D01*
X58039845Y-34397264D01*
X58063213Y-34418818D01*
X58082397Y-34436236D01*
X58096452Y-34448617D01*
X58111196Y-34461057D01*
X58165968Y-34504468D01*
X58221838Y-34544666D01*
X58277259Y-34580688D01*
X58330687Y-34611568D01*
X58380577Y-34636342D01*
X58425382Y-34654043D01*
X58433598Y-34656703D01*
X58486766Y-34670299D01*
X58535893Y-34675844D01*
X58583110Y-34673434D01*
X58630545Y-34663163D01*
X58633514Y-34662185D01*
X58649707Y-34655170D01*
X58671379Y-34644143D01*
X58696058Y-34630539D01*
X58721274Y-34615792D01*
X58744554Y-34601337D01*
X58763428Y-34588610D01*
X58775423Y-34579044D01*
X58776429Y-34577258D01*
X58774902Y-34573563D01*
X58768772Y-34568234D01*
X58757089Y-34560678D01*
X58738906Y-34550298D01*
X58713275Y-34536501D01*
X58679247Y-34518691D01*
X58657491Y-34507290D01*
X58628772Y-34491816D01*
X58601312Y-34476381D01*
X58574255Y-34460395D01*
X58546740Y-34443269D01*
X58517911Y-34424412D01*
X58486908Y-34403237D01*
X58452872Y-34379151D01*
X58414945Y-34351567D01*
X58372269Y-34319894D01*
X58323985Y-34283542D01*
X58269235Y-34241923D01*
X58207159Y-34194446D01*
X58189232Y-34180806D01*
X58154900Y-34155693D01*
X58125879Y-34136644D01*
X58100427Y-34123119D01*
X58076802Y-34114576D01*
X58053265Y-34110474D01*
X58028074Y-34110272D01*
X57999488Y-34113429D01*
X57965766Y-34119403D01*
X57940672Y-34123856D01*
X57904401Y-34129213D01*
X57868274Y-34133547D01*
X57837295Y-34136204D01*
X57813778Y-34137882D01*
X57794193Y-34139804D01*
X57780952Y-34141711D01*
X57776087Y-34143365D01*
X57717406Y-34143365D01*
X57713783Y-34139345D01*
X57695123Y-34118900D01*
X57681902Y-34104758D01*
X57674318Y-34096794D01*
X57669583Y-34091735D01*
X58146094Y-34091735D01*
X58146288Y-34092036D01*
X58152221Y-34096660D01*
X58165642Y-34106028D01*
X58185471Y-34119437D01*
X58210628Y-34136185D01*
X58240033Y-34155572D01*
X58272606Y-34176896D01*
X58307265Y-34199455D01*
X58342933Y-34222547D01*
X58378528Y-34245472D01*
X58412970Y-34267528D01*
X58445179Y-34288013D01*
X58474075Y-34306226D01*
X58498579Y-34321465D01*
X58517610Y-34333028D01*
X58536789Y-34344368D01*
X58584049Y-34371310D01*
X58625260Y-34392951D01*
X58662111Y-34409965D01*
X58696291Y-34423022D01*
X58729492Y-34432795D01*
X58763402Y-34439955D01*
X58799712Y-34445174D01*
X58809880Y-34446338D01*
X58856286Y-34450816D01*
X58897419Y-34453391D01*
X58932040Y-34454032D01*
X58958914Y-34452711D01*
X58976805Y-34449397D01*
X59010762Y-34436141D01*
X59048508Y-34415838D01*
X59079832Y-34392359D01*
X59103946Y-34366580D01*
X59120067Y-34339374D01*
X59127409Y-34311616D01*
X59125187Y-34284180D01*
X59124895Y-34283106D01*
X59121008Y-34271156D01*
X59115753Y-34260323D01*
X59108238Y-34249983D01*
X59097569Y-34239513D01*
X59082856Y-34228290D01*
X59063205Y-34215691D01*
X59037723Y-34201092D01*
X59005519Y-34183871D01*
X58965700Y-34163404D01*
X58917373Y-34139067D01*
X58909633Y-34135195D01*
X58860979Y-34110993D01*
X58807566Y-34084622D01*
X58752205Y-34057459D01*
X58697707Y-34030879D01*
X58646881Y-34006258D01*
X58602537Y-33984970D01*
X58579705Y-33974083D01*
X58542582Y-33956454D01*
X58513196Y-33942690D01*
X58490459Y-33932369D01*
X58473284Y-33925069D01*
X58460582Y-33920369D01*
X58451266Y-33917846D01*
X58444247Y-33917079D01*
X58438439Y-33917645D01*
X58432753Y-33919124D01*
X58424021Y-33922960D01*
X58407443Y-33931697D01*
X58384749Y-33944441D01*
X58357333Y-33960391D01*
X58326590Y-33978749D01*
X58293916Y-33998714D01*
X58263095Y-34017745D01*
X58232812Y-34036411D01*
X58206058Y-34052867D01*
X58184166Y-34066295D01*
X58168469Y-34075877D01*
X58160298Y-34080794D01*
X58159681Y-34081156D01*
X58150029Y-34087602D01*
X58146094Y-34091735D01*
X57669583Y-34091735D01*
X57657624Y-34078958D01*
X57643251Y-34063214D01*
X57633671Y-34052251D01*
X57620378Y-34036208D01*
X57702139Y-34036345D01*
X57736694Y-34036068D01*
X57776612Y-34034450D01*
X57813265Y-34031012D01*
X57849919Y-34025323D01*
X57889840Y-34016951D01*
X57936292Y-34005468D01*
X57967710Y-33996977D01*
X58059828Y-33967592D01*
X58142819Y-33933755D01*
X58217010Y-33895231D01*
X58282731Y-33851784D01*
X58285785Y-33849206D01*
X58485484Y-33849206D01*
X58490334Y-33852314D01*
X58503616Y-33859949D01*
X58523023Y-33870677D01*
X58546763Y-33883536D01*
X58573039Y-33897563D01*
X58600059Y-33911795D01*
X58626027Y-33925270D01*
X58649148Y-33937024D01*
X58672994Y-33948817D01*
X58760251Y-33989038D01*
X58842918Y-34022135D01*
X58922756Y-34048710D01*
X59001526Y-34069366D01*
X59080989Y-34084705D01*
X59096660Y-34086835D01*
X59128660Y-34089840D01*
X59166188Y-34092182D01*
X59206596Y-34093791D01*
X59247235Y-34094599D01*
X59285456Y-34094536D01*
X59318611Y-34093535D01*
X59344053Y-34091527D01*
X59349248Y-34090881D01*
X59402413Y-34082804D01*
X59448173Y-34072597D01*
X59489230Y-34059405D01*
X59528288Y-34042371D01*
X59568048Y-34020640D01*
X59605395Y-33997396D01*
X59637106Y-33974816D01*
X59660449Y-33954176D01*
X59676183Y-33934688D01*
X59685066Y-33915562D01*
X59687859Y-33896008D01*
X59687857Y-33895393D01*
X59684029Y-33874261D01*
X59672355Y-33855728D01*
X59651976Y-33838838D01*
X59622039Y-33822639D01*
X59606484Y-33815810D01*
X59570632Y-33801692D01*
X59524894Y-33785300D01*
X59469438Y-33766686D01*
X59404432Y-33745901D01*
X59330045Y-33722996D01*
X59246445Y-33698023D01*
X59153802Y-33671034D01*
X59052283Y-33642081D01*
X58942057Y-33611214D01*
X58823293Y-33578485D01*
X58822423Y-33578247D01*
X58780202Y-33566678D01*
X58741087Y-33555929D01*
X58706237Y-33546318D01*
X58676809Y-33538166D01*
X58653960Y-33531795D01*
X58638847Y-33527524D01*
X58632627Y-33525675D01*
X58631438Y-33525733D01*
X58628327Y-33532184D01*
X58625760Y-33548303D01*
X58623669Y-33574462D01*
X58618196Y-33625779D01*
X58606001Y-33678168D01*
X58586864Y-33724786D01*
X58560113Y-33767218D01*
X58525077Y-33807046D01*
X58510533Y-33821652D01*
X58497095Y-33835589D01*
X58488272Y-33845279D01*
X58485484Y-33849206D01*
X58285785Y-33849206D01*
X58340310Y-33803178D01*
X58390075Y-33749179D01*
X58432354Y-33689549D01*
X58467475Y-33624053D01*
X58484211Y-33581874D01*
X58494791Y-33537504D01*
X58496131Y-33497649D01*
X58488258Y-33462418D01*
X58471199Y-33431920D01*
X58444980Y-33406263D01*
X58415393Y-33388935D01*
X58540376Y-33388935D01*
X58545190Y-33395274D01*
X58557524Y-33404358D01*
X58575840Y-33415388D01*
X58598600Y-33427565D01*
X58624266Y-33440089D01*
X58651301Y-33452161D01*
X58678166Y-33462982D01*
X58703323Y-33471752D01*
X58752783Y-33487026D01*
X58893655Y-33527308D01*
X59027050Y-33560461D01*
X59153043Y-33586502D01*
X59271708Y-33605447D01*
X59383122Y-33617313D01*
X59385659Y-33617507D01*
X59501014Y-33623603D01*
X59608855Y-33623738D01*
X59708914Y-33617927D01*
X59800923Y-33606186D01*
X59884613Y-33588531D01*
X59914928Y-33580040D01*
X59989032Y-33553915D01*
X60059588Y-33521465D01*
X60125272Y-33483509D01*
X60184758Y-33440865D01*
X60236719Y-33394350D01*
X60279831Y-33344781D01*
X60303776Y-33312961D01*
X60202883Y-33304073D01*
X60198867Y-33303729D01*
X60168097Y-33301536D01*
X60128716Y-33299311D01*
X60082282Y-33297118D01*
X60030351Y-33295021D01*
X59974482Y-33293084D01*
X59916231Y-33291371D01*
X59857158Y-33289944D01*
X59760417Y-33287563D01*
X59665511Y-33284451D01*
X59578528Y-33280642D01*
X59498179Y-33276016D01*
X59423179Y-33270451D01*
X59352240Y-33263827D01*
X59284076Y-33256022D01*
X59217401Y-33246916D01*
X59150926Y-33236387D01*
X59083367Y-33224315D01*
X59013435Y-33210578D01*
X58982939Y-33204480D01*
X58952743Y-33199213D01*
X58929451Y-33196822D01*
X58911255Y-33197635D01*
X58896349Y-33201975D01*
X58882923Y-33210169D01*
X58869172Y-33222542D01*
X58853288Y-33239419D01*
X58835469Y-33258003D01*
X58805683Y-33284581D01*
X58773770Y-33307029D01*
X58738072Y-33326189D01*
X58696932Y-33342904D01*
X58648689Y-33358018D01*
X58591688Y-33372373D01*
X58581387Y-33374824D01*
X58561940Y-33379931D01*
X58547599Y-33384354D01*
X58540904Y-33387344D01*
X58540376Y-33388935D01*
X58415393Y-33388935D01*
X58409629Y-33385559D01*
X58407949Y-33384816D01*
X58391510Y-33378567D01*
X58368242Y-33370831D01*
X58340998Y-33362521D01*
X58312633Y-33354549D01*
X58297324Y-33350434D01*
X58258788Y-33339896D01*
X58228450Y-33331215D01*
X58204885Y-33323899D01*
X58186668Y-33317458D01*
X58172374Y-33311400D01*
X58160579Y-33305235D01*
X58149856Y-33298471D01*
X58138332Y-33290273D01*
X58128391Y-33281080D01*
X58125703Y-33273627D01*
X58129089Y-33266079D01*
X58129183Y-33265978D01*
X58136120Y-33264467D01*
X58152894Y-33263163D01*
X58178957Y-33262084D01*
X58213764Y-33261247D01*
X58256769Y-33260669D01*
X58307424Y-33260369D01*
X58307843Y-33260368D01*
X58370006Y-33260022D01*
X58422834Y-33259303D01*
X58467401Y-33258102D01*
X58504779Y-33256311D01*
X58536043Y-33253823D01*
X58562265Y-33250529D01*
X58584519Y-33246323D01*
X58603879Y-33241095D01*
X58621417Y-33234739D01*
X58638208Y-33227147D01*
X58656079Y-33217432D01*
X58684410Y-33199431D01*
X58714174Y-33178143D01*
X58742706Y-33155601D01*
X58767343Y-33133837D01*
X58785418Y-33114883D01*
X58789090Y-33110238D01*
X58801732Y-33088183D01*
X58805482Y-33066386D01*
X58800141Y-33043826D01*
X58785507Y-33019484D01*
X58761382Y-32992339D01*
X58758591Y-32989573D01*
X58736571Y-32969621D01*
X58716919Y-32955989D01*
X58696616Y-32946539D01*
X58680270Y-32940969D01*
X58663111Y-32937117D01*
X58645832Y-32936282D01*
X58626013Y-32938589D01*
X58601232Y-32944164D01*
X58569065Y-32953133D01*
X58532178Y-32963606D01*
X58500483Y-32971706D01*
X58473522Y-32977249D01*
X58448679Y-32980687D01*
X58423335Y-32982467D01*
X58394876Y-32983038D01*
X58358909Y-32982220D01*
X58324560Y-32978579D01*
X58293433Y-32971450D01*
X58261844Y-32960197D01*
X58260560Y-32959669D01*
X58244686Y-32952104D01*
X58236695Y-32945229D01*
X58234496Y-32937292D01*
X58235048Y-32931615D01*
X58238355Y-32926420D01*
X58246346Y-32922766D01*
X58260921Y-32919871D01*
X58283983Y-32916956D01*
X58293251Y-32915567D01*
X58317826Y-32910292D01*
X58321791Y-32909258D01*
X58809984Y-32909258D01*
X58812551Y-32912526D01*
X58821360Y-32920543D01*
X58834601Y-32931654D01*
X58864333Y-32961539D01*
X58887480Y-32998638D01*
X58901592Y-33040642D01*
X58906419Y-33087013D01*
X58906703Y-33102068D01*
X58908365Y-33112064D01*
X58912649Y-33116904D01*
X58920806Y-33119402D01*
X58929939Y-33121370D01*
X58947492Y-33125153D01*
X58970200Y-33130047D01*
X58995403Y-33135478D01*
X59071747Y-33151160D01*
X59186515Y-33171564D01*
X59304428Y-33188563D01*
X59323284Y-33190942D01*
X59354471Y-33194548D01*
X59383739Y-33197367D01*
X59413144Y-33199517D01*
X59444742Y-33201112D01*
X59480589Y-33202269D01*
X59522742Y-33203103D01*
X59573257Y-33203731D01*
X59573328Y-33203732D01*
X59645049Y-33204035D01*
X59707403Y-33203307D01*
X59761401Y-33201435D01*
X59808054Y-33198308D01*
X59848371Y-33193811D01*
X59883363Y-33187833D01*
X59914040Y-33180262D01*
X59941413Y-33170983D01*
X59966492Y-33159885D01*
X59972540Y-33156818D01*
X60003335Y-33138669D01*
X60026456Y-33120371D01*
X60041301Y-33102616D01*
X60047267Y-33086093D01*
X60043750Y-33071492D01*
X60038443Y-33064476D01*
X60025368Y-33053604D01*
X60006544Y-33044279D01*
X59980804Y-33036082D01*
X59946982Y-33028595D01*
X59903909Y-33021399D01*
X59902021Y-33021139D01*
X59889434Y-33019640D01*
X59867794Y-33017230D01*
X59837947Y-33013998D01*
X59800736Y-33010029D01*
X59757006Y-33005410D01*
X59707601Y-33000227D01*
X59653364Y-32994568D01*
X59595139Y-32988518D01*
X59533772Y-32982164D01*
X59470105Y-32975593D01*
X59404984Y-32968892D01*
X59339252Y-32962146D01*
X59273752Y-32955442D01*
X59209330Y-32948868D01*
X59146830Y-32942509D01*
X59087095Y-32936451D01*
X59030969Y-32930783D01*
X58979297Y-32925589D01*
X58932922Y-32920957D01*
X58892689Y-32916973D01*
X58859442Y-32913724D01*
X58834025Y-32911296D01*
X58817282Y-32909775D01*
X58810057Y-32909249D01*
X58809984Y-32909258D01*
X58321791Y-32909258D01*
X58348354Y-32902330D01*
X58382348Y-32892450D01*
X58417320Y-32881422D01*
X58450783Y-32870015D01*
X58480247Y-32859000D01*
X58503226Y-32849145D01*
X58527999Y-32835883D01*
X58558021Y-32814085D01*
X58578825Y-32790719D01*
X58590187Y-32766351D01*
X58591881Y-32741545D01*
X58583837Y-32717327D01*
X58704390Y-32717327D01*
X58706526Y-32741454D01*
X58709794Y-32773810D01*
X58716346Y-32844134D01*
X58948154Y-32860797D01*
X58991147Y-32863881D01*
X59098564Y-32871531D01*
X59196590Y-32878421D01*
X59285948Y-32884598D01*
X59367361Y-32890110D01*
X59441553Y-32895002D01*
X59509245Y-32899324D01*
X59571162Y-32903122D01*
X59628026Y-32906442D01*
X59680559Y-32909333D01*
X59729486Y-32911842D01*
X59781399Y-32914263D01*
X59853730Y-32917025D01*
X59917765Y-32918562D01*
X59974753Y-32918822D01*
X60025945Y-32917754D01*
X60072589Y-32915305D01*
X60115936Y-32911423D01*
X60157236Y-32906057D01*
X60197737Y-32899154D01*
X60238690Y-32890662D01*
X60282818Y-32879945D01*
X60358993Y-32857003D01*
X60434781Y-32828136D01*
X60513515Y-32792149D01*
X60557613Y-32769993D01*
X60598765Y-32747830D01*
X60634565Y-32726393D01*
X60667304Y-32704115D01*
X60699274Y-32679429D01*
X60732765Y-32650766D01*
X60770068Y-32616558D01*
X60779088Y-32607699D01*
X60793151Y-32590355D01*
X60797677Y-32576917D01*
X60792521Y-32566877D01*
X60777540Y-32559723D01*
X60752587Y-32554947D01*
X60743076Y-32553771D01*
X60711717Y-32550133D01*
X60680321Y-32546920D01*
X60647944Y-32544092D01*
X60613643Y-32541607D01*
X60576472Y-32539425D01*
X60535489Y-32537505D01*
X60489751Y-32535807D01*
X60438312Y-32534289D01*
X60380230Y-32532910D01*
X60314561Y-32531631D01*
X60240361Y-32530410D01*
X60156686Y-32529207D01*
X60128776Y-32528818D01*
X60059539Y-32527780D01*
X59989284Y-32526634D01*
X59919439Y-32525407D01*
X59851434Y-32524128D01*
X59786699Y-32522825D01*
X59726664Y-32521526D01*
X59672757Y-32520260D01*
X59626409Y-32519055D01*
X59589049Y-32517939D01*
X59526019Y-32516073D01*
X59462979Y-32514756D01*
X59408210Y-32514326D01*
X59360587Y-32514808D01*
X59318983Y-32516228D01*
X59282273Y-32518612D01*
X59249331Y-32521985D01*
X59219032Y-32526373D01*
X59174440Y-32535819D01*
X59121595Y-32551035D01*
X59069518Y-32569785D01*
X59022899Y-32590534D01*
X59003931Y-32599663D01*
X58972254Y-32613067D01*
X58938131Y-32625063D01*
X58899583Y-32636259D01*
X58854629Y-32647264D01*
X58801287Y-32658688D01*
X58781102Y-32662691D01*
X58751791Y-32668452D01*
X58730655Y-32673581D01*
X58716521Y-32679557D01*
X58708214Y-32687855D01*
X58704562Y-32699953D01*
X58704390Y-32717327D01*
X58583837Y-32717327D01*
X58583684Y-32716867D01*
X58565369Y-32692884D01*
X58555109Y-32683459D01*
X58543004Y-32674865D01*
X58528233Y-32667375D01*
X58508912Y-32660188D01*
X58483156Y-32652504D01*
X58449079Y-32643523D01*
X58442086Y-32641231D01*
X58423054Y-32631600D01*
X58405692Y-32618881D01*
X58384739Y-32599951D01*
X58403372Y-32590392D01*
X58408661Y-32588056D01*
X58422145Y-32584210D01*
X58441309Y-32581022D01*
X58467734Y-32578257D01*
X58502998Y-32575684D01*
X58527582Y-32573992D01*
X58617757Y-32565176D01*
X58700379Y-32552411D01*
X58777312Y-32535148D01*
X58850419Y-32512839D01*
X58921564Y-32484935D01*
X58992612Y-32450887D01*
X59025280Y-32432609D01*
X59258101Y-32432609D01*
X59315402Y-32435939D01*
X59330615Y-32436757D01*
X59378993Y-32438728D01*
X59434393Y-32440237D01*
X59494324Y-32441259D01*
X59556294Y-32441769D01*
X59617813Y-32441744D01*
X59676390Y-32441158D01*
X59729533Y-32439988D01*
X59741521Y-32439615D01*
X59905946Y-32430678D01*
X60062934Y-32414783D01*
X60212872Y-32391825D01*
X60356147Y-32361698D01*
X60493149Y-32324298D01*
X60624265Y-32279520D01*
X60749882Y-32227258D01*
X60870389Y-32167408D01*
X60986174Y-32099865D01*
X61049704Y-32058159D01*
X61129145Y-31999890D01*
X61198889Y-31940698D01*
X61259355Y-31880110D01*
X61310961Y-31817655D01*
X61354127Y-31752860D01*
X61389271Y-31685252D01*
X61416812Y-31614361D01*
X61417700Y-31611651D01*
X61425175Y-31588347D01*
X61431052Y-31569142D01*
X61434759Y-31555962D01*
X61435722Y-31550732D01*
X61434753Y-31550776D01*
X61426003Y-31552932D01*
X61409395Y-31557650D01*
X61386400Y-31564474D01*
X61358489Y-31572946D01*
X61327133Y-31582607D01*
X61293804Y-31593001D01*
X61259972Y-31603669D01*
X61227108Y-31614153D01*
X61196683Y-31623997D01*
X61170169Y-31632743D01*
X61149036Y-31639932D01*
X61135484Y-31644741D01*
X61110097Y-31653955D01*
X61078499Y-31665581D01*
X61042718Y-31678868D01*
X61004781Y-31693066D01*
X60966715Y-31707424D01*
X60789086Y-31772405D01*
X60523430Y-31861391D01*
X60253093Y-31942460D01*
X59979858Y-32015085D01*
X59705512Y-32078740D01*
X59686209Y-32082940D01*
X59651657Y-32090954D01*
X59625105Y-32098238D01*
X59605015Y-32105532D01*
X59589849Y-32113581D01*
X59578068Y-32123125D01*
X59568133Y-32134909D01*
X59558505Y-32149675D01*
X59556408Y-32153114D01*
X59512962Y-32214971D01*
X59460209Y-32274140D01*
X59397824Y-32330950D01*
X59325484Y-32385726D01*
X59258101Y-32432609D01*
X59025280Y-32432609D01*
X59065425Y-32410147D01*
X59084314Y-32398623D01*
X59156679Y-32349700D01*
X59227781Y-32294460D01*
X59294588Y-32235374D01*
X59354066Y-32174913D01*
X59389557Y-32134773D01*
X59429015Y-32086554D01*
X59460099Y-32043589D01*
X59482970Y-32005568D01*
X59497785Y-31972176D01*
X59504704Y-31943102D01*
X59503885Y-31918034D01*
X59495487Y-31896658D01*
X59490934Y-31889935D01*
X59471194Y-31870617D01*
X59447892Y-31859870D01*
X59422834Y-31858253D01*
X59397824Y-31866328D01*
X59395734Y-31867562D01*
X59384001Y-31875916D01*
X59367042Y-31889267D01*
X59346798Y-31906054D01*
X59325214Y-31924713D01*
X59314745Y-31933920D01*
X59252812Y-31986737D01*
X59195203Y-32032737D01*
X59140206Y-32073189D01*
X59086109Y-32109363D01*
X59031198Y-32142526D01*
X58995892Y-32161964D01*
X58941136Y-32189067D01*
X58886903Y-32212466D01*
X58834728Y-32231613D01*
X58786147Y-32245965D01*
X58742694Y-32254976D01*
X58705902Y-32258101D01*
X58697629Y-32258040D01*
X58678950Y-32256826D01*
X58668033Y-32253271D01*
X58662919Y-32246353D01*
X58661649Y-32235055D01*
X58662657Y-32232976D01*
X58671704Y-32226054D01*
X58689577Y-32216171D01*
X58715589Y-32203667D01*
X58749051Y-32188882D01*
X58789274Y-32172153D01*
X58837716Y-32151252D01*
X58936156Y-32100566D01*
X59030931Y-32040331D01*
X59122106Y-31970491D01*
X59209748Y-31890987D01*
X59293920Y-31801764D01*
X59355724Y-31726011D01*
X59561994Y-31726011D01*
X59565577Y-31733239D01*
X59577425Y-31746486D01*
X59597602Y-31765830D01*
X59610623Y-31778282D01*
X59627521Y-31795906D01*
X59640705Y-31811389D01*
X59648091Y-31822395D01*
X59649299Y-31825149D01*
X59654907Y-31848500D01*
X59656237Y-31879005D01*
X59653320Y-31914635D01*
X59646186Y-31953363D01*
X59644273Y-31961696D01*
X59639923Y-31981760D01*
X59636900Y-31997356D01*
X59635767Y-32005657D01*
X59636182Y-32009046D01*
X59639674Y-32013135D01*
X59640271Y-32013082D01*
X59649442Y-32011264D01*
X59667159Y-32007113D01*
X59692124Y-32000971D01*
X59723042Y-31993176D01*
X59758614Y-31984069D01*
X59797545Y-31973990D01*
X59838536Y-31963279D01*
X59880291Y-31952277D01*
X59921513Y-31941323D01*
X59960905Y-31930758D01*
X59997169Y-31920922D01*
X60029009Y-31912154D01*
X60055128Y-31904795D01*
X60074229Y-31899185D01*
X60154931Y-31873741D01*
X60291124Y-31826497D01*
X60418230Y-31776456D01*
X60536952Y-31723221D01*
X60647997Y-31666396D01*
X60752068Y-31605583D01*
X60849870Y-31540386D01*
X60942109Y-31470408D01*
X61029489Y-31395252D01*
X61112716Y-31314521D01*
X61174365Y-31248699D01*
X61250785Y-31158546D01*
X61317372Y-31068732D01*
X61374413Y-30978690D01*
X61422201Y-30887853D01*
X61461024Y-30795654D01*
X61491172Y-30701525D01*
X61512937Y-30604899D01*
X61526608Y-30505209D01*
X61528383Y-30487133D01*
X61530985Y-30461996D01*
X61533339Y-30440696D01*
X61535092Y-30426502D01*
X61535306Y-30424946D01*
X61536298Y-30411797D01*
X61533772Y-30405267D01*
X61526592Y-30402092D01*
X61523779Y-30402017D01*
X61518493Y-30404037D01*
X61510857Y-30409073D01*
X61500166Y-30417761D01*
X61485720Y-30430737D01*
X61466817Y-30448637D01*
X61442755Y-30472097D01*
X61412832Y-30501754D01*
X61376347Y-30538242D01*
X61299382Y-30614347D01*
X61198065Y-30710894D01*
X61099821Y-30800031D01*
X61003481Y-30882725D01*
X60907877Y-30959941D01*
X60811838Y-31032646D01*
X60714196Y-31101806D01*
X60613781Y-31168386D01*
X60525695Y-31224597D01*
X60419916Y-31291018D01*
X60321118Y-31351706D01*
X60228598Y-31407030D01*
X60141660Y-31457361D01*
X60059603Y-31503068D01*
X59981728Y-31544523D01*
X59907335Y-31582095D01*
X59835726Y-31616154D01*
X59766202Y-31647071D01*
X59698062Y-31675217D01*
X59630607Y-31700961D01*
X59563139Y-31724673D01*
X59561994Y-31726011D01*
X59355724Y-31726011D01*
X59374690Y-31702764D01*
X59403909Y-31661694D01*
X59548288Y-31661694D01*
X59548877Y-31661666D01*
X59556485Y-31658815D01*
X59571756Y-31652179D01*
X59593382Y-31642375D01*
X59620056Y-31630020D01*
X59650470Y-31615731D01*
X59683317Y-31600126D01*
X59717289Y-31583819D01*
X59751078Y-31567429D01*
X59783378Y-31551573D01*
X59812880Y-31536867D01*
X59898421Y-31492552D01*
X60026161Y-31421549D01*
X60149372Y-31347214D01*
X60266878Y-31270324D01*
X60377504Y-31191659D01*
X60480077Y-31111999D01*
X60573421Y-31032124D01*
X60574267Y-31031358D01*
X60587549Y-31019012D01*
X60606397Y-31001103D01*
X60629120Y-30979257D01*
X60654027Y-30955096D01*
X60679430Y-30930246D01*
X60711632Y-30898071D01*
X60816069Y-30785507D01*
X60910459Y-30670256D01*
X60994796Y-30552325D01*
X61069077Y-30431723D01*
X61133296Y-30308458D01*
X61187451Y-30182538D01*
X61231535Y-30053971D01*
X61265545Y-29922766D01*
X61289476Y-29788931D01*
X61290881Y-29778503D01*
X61296128Y-29731099D01*
X61300119Y-29680485D01*
X61302860Y-29628168D01*
X61304357Y-29575653D01*
X61304618Y-29524449D01*
X61303647Y-29476061D01*
X61301452Y-29431996D01*
X61298039Y-29393760D01*
X61293414Y-29362860D01*
X61287584Y-29340803D01*
X61286263Y-29337371D01*
X61277751Y-29318002D01*
X61267917Y-29298991D01*
X61257908Y-29282152D01*
X61248872Y-29269303D01*
X61241957Y-29262258D01*
X61238310Y-29262834D01*
X61222778Y-29309895D01*
X61192145Y-29399557D01*
X61162623Y-29481304D01*
X61133585Y-29556681D01*
X61104402Y-29627234D01*
X61074447Y-29694509D01*
X61043091Y-29760052D01*
X61009705Y-29825410D01*
X60991421Y-29859736D01*
X60938806Y-29953725D01*
X60884401Y-30043606D01*
X60827310Y-30130556D01*
X60766637Y-30215754D01*
X60701486Y-30300381D01*
X60630963Y-30385614D01*
X60554171Y-30472633D01*
X60470214Y-30562618D01*
X60378198Y-30656746D01*
X60307776Y-30726297D01*
X60192946Y-30835180D01*
X60075205Y-30941163D01*
X59952801Y-31045768D01*
X59823982Y-31150515D01*
X59686996Y-31256926D01*
X59636962Y-31294984D01*
X59644574Y-31319436D01*
X59648039Y-31333360D01*
X59652252Y-31361070D01*
X59654856Y-31392882D01*
X59655696Y-31425228D01*
X59654943Y-31445662D01*
X59654616Y-31454537D01*
X59651461Y-31477239D01*
X59649319Y-31485355D01*
X59637849Y-31516351D01*
X59620821Y-31551229D01*
X59599637Y-31587310D01*
X59575698Y-31621920D01*
X59568815Y-31631156D01*
X59557808Y-31646429D01*
X59550529Y-31657242D01*
X59548288Y-31661694D01*
X59403909Y-31661694D01*
X59452121Y-31593929D01*
X59465837Y-31573181D01*
X59486982Y-31540181D01*
X59502858Y-31513572D01*
X59514099Y-31492084D01*
X59521342Y-31474449D01*
X59525222Y-31459398D01*
X59526374Y-31445662D01*
X59526235Y-31439785D01*
X59521281Y-31408551D01*
X59510245Y-31379413D01*
X59494514Y-31356263D01*
X59491266Y-31352846D01*
X59481386Y-31344514D01*
X59471251Y-31341829D01*
X59455903Y-31343101D01*
X59452176Y-31343699D01*
X59431130Y-31349170D01*
X59411848Y-31356873D01*
X59408002Y-31359353D01*
X59395754Y-31369179D01*
X59377780Y-31384964D01*
X59355112Y-31405754D01*
X59328782Y-31430596D01*
X59299823Y-31458536D01*
X59269266Y-31488620D01*
X59255311Y-31502456D01*
X59214727Y-31542116D01*
X59180993Y-31574096D01*
X59154038Y-31598463D01*
X59133788Y-31615282D01*
X59120173Y-31624619D01*
X59092933Y-31639444D01*
X59082319Y-31628830D01*
X59071705Y-31618216D01*
X59120625Y-31561911D01*
X59122254Y-31560038D01*
X59145439Y-31533555D01*
X59172198Y-31503255D01*
X59199346Y-31472734D01*
X59223700Y-31445584D01*
X59234109Y-31433987D01*
X59259788Y-31404988D01*
X59287200Y-31373579D01*
X59314897Y-31341455D01*
X59341432Y-31310311D01*
X59365356Y-31281841D01*
X59385223Y-31257741D01*
X59399583Y-31239705D01*
X59407095Y-31229295D01*
X59427242Y-31195127D01*
X59446672Y-31153392D01*
X59464383Y-31106150D01*
X59473695Y-31074475D01*
X59479793Y-31037878D01*
X59478353Y-31006780D01*
X59469099Y-30979944D01*
X59451754Y-30956129D01*
X59426042Y-30934097D01*
X59411662Y-30923761D01*
X59389578Y-30940782D01*
X59386969Y-30942804D01*
X59379833Y-30948470D01*
X59372077Y-30954890D01*
X59363125Y-30962602D01*
X59352401Y-30972143D01*
X59339332Y-30984051D01*
X59323340Y-30998864D01*
X59303853Y-31017120D01*
X59280293Y-31039356D01*
X59252087Y-31066111D01*
X59218659Y-31097923D01*
X59179433Y-31135328D01*
X59133836Y-31178866D01*
X59081290Y-31229074D01*
X59001360Y-31305410D01*
X58923879Y-31379278D01*
X58852461Y-31447208D01*
X58786382Y-31509878D01*
X58724920Y-31567965D01*
X58667351Y-31622146D01*
X58612953Y-31673100D01*
X58561001Y-31721503D01*
X58510773Y-31768032D01*
X58461546Y-31813365D01*
X58412595Y-31858180D01*
X58363199Y-31903152D01*
X58312633Y-31948961D01*
X58297296Y-31962911D01*
X58230434Y-32026180D01*
X58171622Y-32086443D01*
X58119799Y-32145029D01*
X58073902Y-32203270D01*
X58032871Y-32262495D01*
X57995641Y-32324035D01*
X57961153Y-32389221D01*
X57960945Y-32389639D01*
X57931798Y-32451700D01*
X57907172Y-32511833D01*
X57886296Y-32572504D01*
X57868403Y-32636176D01*
X57852722Y-32705316D01*
X57838485Y-32782387D01*
X57830697Y-32825258D01*
X57809050Y-32918635D01*
X57781824Y-33004646D01*
X57748305Y-33084693D01*
X57707777Y-33160173D01*
X57659527Y-33232488D01*
X57602840Y-33303037D01*
X57537003Y-33373221D01*
X57522327Y-33387664D01*
X57488749Y-33419269D01*
X57452694Y-33451173D01*
X57413093Y-33484232D01*
X57368878Y-33519301D01*
X57318981Y-33557238D01*
X57262333Y-33598900D01*
X57197867Y-33645142D01*
X57177933Y-33659311D01*
X57140529Y-33686006D01*
X57110301Y-33707813D01*
X57086322Y-33725476D01*
X57067660Y-33739738D01*
X57053387Y-33751340D01*
X57042572Y-33761027D01*
X57034287Y-33769542D01*
X57027600Y-33777626D01*
X57021583Y-33786024D01*
X57019119Y-33789723D01*
X57007039Y-33811013D01*
X56996966Y-33835452D01*
X56988030Y-33865456D01*
X56979363Y-33903444D01*
X56976737Y-33915818D01*
X56972303Y-33935128D01*
X56968670Y-33949003D01*
X56966437Y-33955049D01*
X56966027Y-33955383D01*
X56958261Y-33955217D01*
X56945507Y-33949896D01*
X56930371Y-33940943D01*
X56915462Y-33929882D01*
X56903389Y-33918234D01*
X56884276Y-33888406D01*
X56871955Y-33853018D01*
X56866572Y-33814556D01*
X56868243Y-33775470D01*
X56877086Y-33738212D01*
X56893219Y-33705235D01*
X56896710Y-33700354D01*
X56913241Y-33681746D01*
X56936951Y-33659269D01*
X56966455Y-33633974D01*
X57000368Y-33606911D01*
X57037306Y-33579132D01*
X57075884Y-33551686D01*
X57114717Y-33525626D01*
X57152420Y-33502001D01*
X57187609Y-33481862D01*
X57193862Y-33478475D01*
X57215771Y-33466329D01*
X57233524Y-33456060D01*
X57245434Y-33448663D01*
X57249816Y-33445133D01*
X57245877Y-33442456D01*
X57233451Y-33438213D01*
X57214386Y-33433038D01*
X57190577Y-33427380D01*
X57163920Y-33421686D01*
X57136310Y-33416405D01*
X57109644Y-33411986D01*
X57084680Y-33407525D01*
X57035996Y-33393542D01*
X56994898Y-33373382D01*
X56960500Y-33346550D01*
X56931916Y-33312550D01*
X56928497Y-33307428D01*
X56917998Y-33289226D01*
X56908291Y-33267824D01*
X56898717Y-33241460D01*
X56888616Y-33208368D01*
X56877326Y-33166787D01*
X56844864Y-33059049D01*
X56801147Y-32947473D01*
X56748513Y-32841264D01*
X56686903Y-32740318D01*
X56616259Y-32644528D01*
X56536522Y-32553789D01*
X56518369Y-32535145D01*
X56449465Y-32470977D01*
X56379205Y-32416206D01*
X56306355Y-32370027D01*
X56229680Y-32331634D01*
X56147944Y-32300221D01*
X56126012Y-32293175D01*
X56041305Y-32270906D01*
X55955275Y-32256373D01*
X55865747Y-32249284D01*
X55770550Y-32249345D01*
X55684173Y-32254414D01*
X55603680Y-32263631D01*
X55529176Y-32277350D01*
X55458757Y-32296000D01*
X55390519Y-32320006D01*
X55322560Y-32349796D01*
X55253388Y-32386612D01*
X55172258Y-32440052D01*
X55097268Y-32501272D01*
X55076215Y-32522347D01*
X55029015Y-32569595D01*
X54968099Y-32644344D01*
X54915119Y-32724844D01*
X54870673Y-32810416D01*
X54835359Y-32900384D01*
X54822452Y-32942114D01*
X54811299Y-32987771D01*
X54803800Y-33033762D01*
X54798973Y-33085059D01*
X54795308Y-33138453D01*
X54684764Y-33138453D01*
X54684731Y-33137704D01*
X54682153Y-33096583D01*
X54678436Y-33046597D01*
X54673560Y-32987002D01*
X54670226Y-32947549D01*
X54613328Y-32931018D01*
X54519878Y-32900628D01*
X54422845Y-32860989D01*
X54333498Y-32815152D01*
X54251236Y-32762768D01*
X54175456Y-32703490D01*
X54105557Y-32636969D01*
X54076427Y-32604381D01*
X54050264Y-32568773D01*
X54038706Y-32546511D01*
X54222035Y-32546511D01*
X54224720Y-32552806D01*
X54233740Y-32564514D01*
X54238942Y-32570578D01*
X54259633Y-32591694D01*
X54286404Y-32615923D01*
X54317166Y-32641505D01*
X54349828Y-32666678D01*
X54382301Y-32689681D01*
X54423026Y-32715542D01*
X54481135Y-32748145D01*
X54547558Y-32781122D01*
X54623297Y-32814993D01*
X54638202Y-32821347D01*
X54661899Y-32831383D01*
X54681012Y-32839393D01*
X54693876Y-32844683D01*
X54698831Y-32846556D01*
X54701373Y-32842541D01*
X54708524Y-32830450D01*
X54719689Y-32811289D01*
X54734280Y-32786072D01*
X54751713Y-32755811D01*
X54771399Y-32721522D01*
X54792753Y-32684218D01*
X54813727Y-32647353D01*
X54836339Y-32607034D01*
X54853947Y-32574822D01*
X54866785Y-32550269D01*
X54875086Y-32532927D01*
X54879081Y-32522347D01*
X54879005Y-32518082D01*
X54872306Y-32515764D01*
X54857359Y-32511955D01*
X54836611Y-32507301D01*
X54812359Y-32502342D01*
X54798774Y-32499789D01*
X54774665Y-32495953D01*
X54750687Y-32493305D01*
X54724203Y-32491649D01*
X54692578Y-32490789D01*
X54653179Y-32490530D01*
X54626297Y-32490735D01*
X54589924Y-32491603D01*
X54555141Y-32493034D01*
X54524889Y-32494902D01*
X54502113Y-32497079D01*
X54493525Y-32498216D01*
X54470574Y-32501511D01*
X54442126Y-32505834D01*
X54409937Y-32510893D01*
X54375761Y-32516398D01*
X54341354Y-32522059D01*
X54308469Y-32527586D01*
X54278862Y-32532688D01*
X54254288Y-32537075D01*
X54236501Y-32540457D01*
X54227257Y-32542544D01*
X54225011Y-32543339D01*
X54222035Y-32546511D01*
X54038706Y-32546511D01*
X54033568Y-32536616D01*
X54026266Y-32507585D01*
X54028284Y-32481358D01*
X54039549Y-32457611D01*
X54059987Y-32436020D01*
X54077081Y-32424080D01*
X54104894Y-32410602D01*
X54140449Y-32398805D01*
X54185073Y-32388182D01*
X54211099Y-32382774D01*
X54232671Y-32378080D01*
X54246833Y-32374593D01*
X54255086Y-32371890D01*
X54258936Y-32369550D01*
X54259885Y-32367149D01*
X54255704Y-32361647D01*
X54242833Y-32352931D01*
X54222410Y-32341863D01*
X54195586Y-32329066D01*
X54163515Y-32315163D01*
X54158074Y-32312885D01*
X54108733Y-32290863D01*
X54056374Y-32265365D01*
X54004225Y-32238074D01*
X53955515Y-32210671D01*
X53913474Y-32184841D01*
X53881622Y-32163408D01*
X53805012Y-32105662D01*
X53733970Y-32043118D01*
X53669462Y-31976819D01*
X53612460Y-31907808D01*
X53563929Y-31837132D01*
X53524841Y-31765832D01*
X53524681Y-31765499D01*
X53505850Y-31723421D01*
X53492354Y-31686144D01*
X53483306Y-31650145D01*
X53477818Y-31611899D01*
X53477327Y-31604219D01*
X53630823Y-31604219D01*
X53631129Y-31612331D01*
X53634105Y-31627608D01*
X53639156Y-31647805D01*
X53645687Y-31670677D01*
X53653100Y-31693976D01*
X53660801Y-31715459D01*
X53671408Y-31740566D01*
X53690071Y-31776306D01*
X53713442Y-31812293D01*
X53742523Y-31849894D01*
X53778314Y-31890477D01*
X53821816Y-31935407D01*
X53895977Y-32005080D01*
X53976644Y-32071301D01*
X54061560Y-32131220D01*
X54152708Y-32186229D01*
X54252072Y-32237724D01*
X54280310Y-32251087D01*
X54399626Y-32301994D01*
X54521335Y-32344827D01*
X54647450Y-32380242D01*
X54779987Y-32408891D01*
X54795997Y-32411814D01*
X54840058Y-32418887D01*
X54876157Y-32422885D01*
X54905781Y-32423879D01*
X54930417Y-32421940D01*
X54951552Y-32417139D01*
X54952599Y-32416808D01*
X54967767Y-32410893D01*
X54982719Y-32402420D01*
X54999229Y-32390073D01*
X55019070Y-32372535D01*
X55044016Y-32348489D01*
X55055363Y-32337862D01*
X55079268Y-32317514D01*
X55105811Y-32296795D01*
X55131057Y-32278853D01*
X55150222Y-32265864D01*
X55166629Y-32254285D01*
X55177743Y-32245907D01*
X55181846Y-32241977D01*
X55180119Y-32240630D01*
X55170494Y-32236581D01*
X55154310Y-32230944D01*
X55133727Y-32224504D01*
X55126893Y-32222411D01*
X55099181Y-32213102D01*
X55071304Y-32202690D01*
X55048381Y-32193062D01*
X55047369Y-32192596D01*
X55030401Y-32184230D01*
X55017037Y-32175800D01*
X55004851Y-32165211D01*
X54991413Y-32150370D01*
X54974296Y-32129182D01*
X54961961Y-32114154D01*
X54945847Y-32096303D01*
X54932226Y-32083220D01*
X54922901Y-32076744D01*
X54920649Y-32075936D01*
X54907721Y-32071929D01*
X54887700Y-32066203D01*
X54862866Y-32059400D01*
X54835501Y-32052160D01*
X54778283Y-32036684D01*
X54712749Y-32017538D01*
X54644074Y-31995984D01*
X54571573Y-31971769D01*
X54494561Y-31944641D01*
X54412353Y-31914347D01*
X54324264Y-31880634D01*
X54229609Y-31843248D01*
X54127703Y-31801938D01*
X54017861Y-31756450D01*
X53899397Y-31706530D01*
X53843671Y-31682996D01*
X53787540Y-31659625D01*
X53740413Y-31640425D01*
X53702041Y-31625302D01*
X53672175Y-31614159D01*
X53650568Y-31606901D01*
X53636969Y-31603433D01*
X53631130Y-31603660D01*
X53630823Y-31604219D01*
X53477327Y-31604219D01*
X53475004Y-31567883D01*
X53474255Y-31545744D01*
X53473912Y-31523875D01*
X53474534Y-31508353D01*
X53476364Y-31496868D01*
X53479645Y-31487109D01*
X53484623Y-31476765D01*
X53490782Y-31466026D01*
X53505052Y-31448700D01*
X53522658Y-31437224D01*
X53544791Y-31431373D01*
X53572640Y-31430921D01*
X53607397Y-31435640D01*
X53650252Y-31445306D01*
X53673403Y-31451098D01*
X53692715Y-31455714D01*
X53705967Y-31458635D01*
X53711148Y-31459395D01*
X53711165Y-31459115D01*
X53709268Y-31456031D01*
X53703937Y-31449117D01*
X53694609Y-31437698D01*
X53680720Y-31421099D01*
X53661708Y-31398645D01*
X53637007Y-31369660D01*
X53606056Y-31333470D01*
X53562621Y-31279978D01*
X53497673Y-31187427D01*
X53441964Y-31090809D01*
X53395658Y-30990620D01*
X53358923Y-30887356D01*
X53331924Y-30781512D01*
X53314828Y-30673585D01*
X53307801Y-30564069D01*
X53309819Y-30494496D01*
X53439431Y-30494496D01*
X53440025Y-30511785D01*
X53441754Y-30536746D01*
X53444637Y-30570718D01*
X53449004Y-30616516D01*
X53453849Y-30658138D01*
X53459381Y-30694520D01*
X53466140Y-30728339D01*
X53474665Y-30762273D01*
X53485496Y-30799001D01*
X53499174Y-30841202D01*
X53504124Y-30855862D01*
X53546354Y-30967684D01*
X53594122Y-31071636D01*
X53648199Y-31169001D01*
X53709356Y-31261061D01*
X53778366Y-31349099D01*
X53855999Y-31434399D01*
X53883781Y-31462334D01*
X53955233Y-31528934D01*
X54029806Y-31590821D01*
X54108958Y-31649026D01*
X54194147Y-31704584D01*
X54286830Y-31758527D01*
X54388465Y-31811888D01*
X54445191Y-31839137D01*
X54513321Y-31869390D01*
X54584052Y-31898520D01*
X54654539Y-31925405D01*
X54721939Y-31948921D01*
X54783409Y-31967943D01*
X54793035Y-31970664D01*
X54823001Y-31978763D01*
X54845352Y-31984165D01*
X54859324Y-31986698D01*
X54864151Y-31986187D01*
X54861378Y-31981719D01*
X54853573Y-31970547D01*
X54841952Y-31954398D01*
X54827732Y-31934984D01*
X54800353Y-31895281D01*
X54767096Y-31836802D01*
X54743040Y-31779628D01*
X54728428Y-31724376D01*
X54723503Y-31671660D01*
X54723502Y-31670590D01*
X54723032Y-31650815D01*
X54721879Y-31634630D01*
X54720279Y-31625450D01*
X54718378Y-31622546D01*
X54712092Y-31616180D01*
X54701121Y-31606751D01*
X54684984Y-31593898D01*
X54663196Y-31577256D01*
X54635277Y-31556465D01*
X54600742Y-31531163D01*
X54559111Y-31500986D01*
X54509899Y-31465574D01*
X54452625Y-31424563D01*
X54440204Y-31415681D01*
X54362494Y-31359829D01*
X54292444Y-31308851D01*
X54229177Y-31261964D01*
X54171816Y-31218380D01*
X54119485Y-31177314D01*
X54071306Y-31137982D01*
X54026403Y-31099598D01*
X53983899Y-31061376D01*
X53942917Y-31022530D01*
X53902579Y-30982276D01*
X53862010Y-30939828D01*
X53820333Y-30894400D01*
X53776669Y-30845207D01*
X53730144Y-30791464D01*
X53679879Y-30732385D01*
X53639426Y-30684531D01*
X53604956Y-30643731D01*
X53576105Y-30609543D01*
X53552316Y-30581298D01*
X53533031Y-30558325D01*
X53517693Y-30539952D01*
X53505743Y-30525510D01*
X53496624Y-30514327D01*
X53489778Y-30505734D01*
X53484648Y-30499059D01*
X53480675Y-30493631D01*
X53477303Y-30488781D01*
X53467465Y-30477114D01*
X53455757Y-30471734D01*
X53443205Y-30475730D01*
X53441564Y-30477575D01*
X53439951Y-30483540D01*
X53439431Y-30494496D01*
X53309819Y-30494496D01*
X53311009Y-30453460D01*
X53311762Y-30443764D01*
X53315480Y-30404022D01*
X53319801Y-30372801D01*
X53325142Y-30348536D01*
X53331920Y-30329661D01*
X53340553Y-30314611D01*
X53351458Y-30301822D01*
X53360398Y-30294005D01*
X53383953Y-30282153D01*
X53410029Y-30279999D01*
X53438170Y-30287382D01*
X53467923Y-30304140D01*
X53498830Y-30330112D01*
X53530438Y-30365138D01*
X53532897Y-30368196D01*
X53547796Y-30386829D01*
X53567219Y-30411240D01*
X53589590Y-30439442D01*
X53613332Y-30469449D01*
X53636871Y-30499274D01*
X53647429Y-30512612D01*
X53667628Y-30537783D01*
X53685330Y-30559388D01*
X53699560Y-30576263D01*
X53709343Y-30587242D01*
X53713707Y-30591161D01*
X53717743Y-30587018D01*
X53717528Y-30576035D01*
X53713402Y-30560683D01*
X53705776Y-30543433D01*
X53701895Y-30535944D01*
X53689819Y-30511205D01*
X53675369Y-30480100D01*
X53659591Y-30445013D01*
X53643534Y-30408325D01*
X53628246Y-30372417D01*
X53614773Y-30339671D01*
X53604164Y-30312469D01*
X53566818Y-30201758D01*
X53533476Y-30074385D01*
X53508990Y-29942617D01*
X53507943Y-29934760D01*
X53505376Y-29905073D01*
X53503548Y-29865732D01*
X53502481Y-29817289D01*
X53502214Y-29764359D01*
X53641908Y-29764359D01*
X53644331Y-29855183D01*
X53654473Y-29951202D01*
X53672291Y-30051932D01*
X53697741Y-30156888D01*
X53730777Y-30265586D01*
X53769735Y-30375373D01*
X53824287Y-30508937D01*
X53884144Y-30634440D01*
X53949679Y-30752594D01*
X54021264Y-30864111D01*
X54099273Y-30969705D01*
X54161576Y-31044559D01*
X54238735Y-31128913D01*
X54322783Y-31213204D01*
X54412068Y-31295912D01*
X54504942Y-31375512D01*
X54599753Y-31450482D01*
X54694852Y-31519301D01*
X54706308Y-31526977D01*
X54728924Y-31540907D01*
X54749258Y-31551924D01*
X54765733Y-31559279D01*
X54776774Y-31562227D01*
X54780804Y-31560021D01*
X54780062Y-31557792D01*
X54775027Y-31547659D01*
X54766023Y-31531173D01*
X54753972Y-31510007D01*
X54739799Y-31485832D01*
X54727462Y-31464977D01*
X54708893Y-31432970D01*
X54694514Y-31407019D01*
X54683439Y-31385348D01*
X54674782Y-31366181D01*
X54667659Y-31347744D01*
X54661182Y-31328261D01*
X54654295Y-31300196D01*
X54649987Y-31254440D01*
X54653255Y-31208546D01*
X54663830Y-31165202D01*
X54681440Y-31127095D01*
X54691411Y-31110699D01*
X54575533Y-30995485D01*
X54561721Y-30981707D01*
X54489253Y-30907674D01*
X54423471Y-30837093D01*
X54362712Y-30767961D01*
X54328685Y-30726647D01*
X54577646Y-30726647D01*
X54578212Y-30730766D01*
X54581818Y-30744272D01*
X54588017Y-30763195D01*
X54595949Y-30784803D01*
X54596186Y-30785416D01*
X54602241Y-30801238D01*
X54607709Y-30815339D01*
X54613054Y-30828257D01*
X54618743Y-30840528D01*
X54625242Y-30852689D01*
X54633016Y-30865276D01*
X54642532Y-30878826D01*
X54654254Y-30893876D01*
X54668649Y-30910962D01*
X54686183Y-30930621D01*
X54707322Y-30953389D01*
X54732530Y-30979804D01*
X54762275Y-31010402D01*
X54797022Y-31045719D01*
X54837236Y-31086292D01*
X54883384Y-31132657D01*
X54935932Y-31185353D01*
X54995344Y-31244914D01*
X55005063Y-31254657D01*
X55055576Y-31305236D01*
X55104463Y-31354087D01*
X55151153Y-31400644D01*
X55195074Y-31444341D01*
X55235653Y-31484611D01*
X55272319Y-31520889D01*
X55304500Y-31552608D01*
X55331624Y-31579203D01*
X55353118Y-31600107D01*
X55368412Y-31614755D01*
X55376933Y-31622580D01*
X55392205Y-31635893D01*
X55403745Y-31647211D01*
X55409181Y-31655338D01*
X55409634Y-31662051D01*
X55406223Y-31669130D01*
X55405785Y-31669794D01*
X55401278Y-31673346D01*
X55393583Y-31672434D01*
X55379721Y-31666795D01*
X55376359Y-31665260D01*
X55368053Y-31661217D01*
X55359605Y-31656567D01*
X55350436Y-31650815D01*
X55339968Y-31643464D01*
X55327621Y-31634020D01*
X55312815Y-31621987D01*
X55294972Y-31606868D01*
X55273513Y-31588170D01*
X55247857Y-31565395D01*
X55217426Y-31538049D01*
X55181640Y-31505636D01*
X55139921Y-31467660D01*
X55091689Y-31423626D01*
X55036365Y-31373038D01*
X55024650Y-31362354D01*
X54982997Y-31324933D01*
X54945259Y-31291935D01*
X54912135Y-31263942D01*
X54884324Y-31241534D01*
X54862523Y-31225293D01*
X54847429Y-31215799D01*
X54846455Y-31215303D01*
X54822232Y-31206769D01*
X54801832Y-31207083D01*
X54786118Y-31216031D01*
X54775956Y-31233402D01*
X54775633Y-31234459D01*
X54774204Y-31252074D01*
X54777201Y-31276253D01*
X54784061Y-31304625D01*
X54794221Y-31334823D01*
X54807117Y-31364478D01*
X54811604Y-31373158D01*
X54831779Y-31406416D01*
X54858669Y-31444391D01*
X54891145Y-31485741D01*
X54928074Y-31529123D01*
X54956296Y-31560021D01*
X54968328Y-31573194D01*
X55010776Y-31616613D01*
X55054286Y-31658035D01*
X55074059Y-31675880D01*
X55109536Y-31706573D01*
X55146754Y-31736990D01*
X55186766Y-31767893D01*
X55230623Y-31800045D01*
X55279378Y-31834209D01*
X55334082Y-31871149D01*
X55395786Y-31911627D01*
X55465544Y-31956407D01*
X55466876Y-31957255D01*
X55498313Y-31977413D01*
X55526705Y-31995881D01*
X55550897Y-32011887D01*
X55569734Y-32024659D01*
X55582063Y-32033427D01*
X55586727Y-32037417D01*
X55586480Y-32041761D01*
X55581787Y-32050886D01*
X55579442Y-32053521D01*
X55574671Y-32055863D01*
X55566862Y-32055424D01*
X55553766Y-32051938D01*
X55533135Y-32045139D01*
X55525101Y-32042218D01*
X55513178Y-32037154D01*
X55499518Y-32030421D01*
X55483262Y-32021496D01*
X55463552Y-32009853D01*
X55439526Y-31994968D01*
X55410327Y-31976316D01*
X55375095Y-31953373D01*
X55332970Y-31925615D01*
X55283094Y-31892516D01*
X55246498Y-31868119D01*
X55203783Y-31839501D01*
X55163119Y-31812114D01*
X55125615Y-31786710D01*
X55092376Y-31764041D01*
X55064509Y-31744859D01*
X55043121Y-31729917D01*
X55029317Y-31719968D01*
X55014456Y-31709211D01*
X54994614Y-31695856D01*
X54977883Y-31685713D01*
X54966807Y-31680391D01*
X54965736Y-31680059D01*
X54953218Y-31676910D01*
X54936192Y-31673385D01*
X54917599Y-31669994D01*
X54900376Y-31667244D01*
X54887465Y-31665643D01*
X54881806Y-31665699D01*
X54881501Y-31666446D01*
X54879446Y-31674588D01*
X54876109Y-31689662D01*
X54872044Y-31709201D01*
X54868724Y-31726738D01*
X54867025Y-31742021D01*
X54867857Y-31755594D01*
X54871912Y-31769072D01*
X54879884Y-31784074D01*
X54892463Y-31802217D01*
X54910342Y-31825116D01*
X54934215Y-31854389D01*
X54952651Y-31876718D01*
X54994048Y-31925945D01*
X55032900Y-31970879D01*
X55046569Y-31986187D01*
X55068590Y-32010847D01*
X55100497Y-32045177D01*
X55128002Y-32073197D01*
X55150487Y-32094232D01*
X55167332Y-32107612D01*
X55185922Y-32120589D01*
X55206752Y-32135908D01*
X55223585Y-32149068D01*
X55233179Y-32156589D01*
X55250602Y-32168863D01*
X55265259Y-32177654D01*
X55271384Y-32180273D01*
X55293720Y-32185681D01*
X55322560Y-32188353D01*
X55327920Y-32188552D01*
X55342428Y-32189009D01*
X55354133Y-32188858D01*
X55365159Y-32187681D01*
X55377632Y-32185065D01*
X55393675Y-32180593D01*
X55415415Y-32173850D01*
X55444976Y-32164421D01*
X55460102Y-32159707D01*
X55524630Y-32142306D01*
X55589523Y-32129456D01*
X55656088Y-32121116D01*
X55725629Y-32117247D01*
X55799452Y-32117809D01*
X55878861Y-32122763D01*
X55965162Y-32132068D01*
X56059660Y-32145685D01*
X56074194Y-32147972D01*
X56099526Y-32151827D01*
X56119992Y-32154767D01*
X56133786Y-32156538D01*
X56139102Y-32156884D01*
X56139401Y-32154820D01*
X56137111Y-32144667D01*
X56131689Y-32128046D01*
X56123887Y-32106947D01*
X56114458Y-32083364D01*
X56104154Y-32059288D01*
X56093727Y-32036710D01*
X56090672Y-32030465D01*
X56070922Y-31993328D01*
X56049045Y-31958039D01*
X56024096Y-31923522D01*
X55995133Y-31888703D01*
X55961211Y-31852504D01*
X55921388Y-31813850D01*
X55874720Y-31771665D01*
X55820263Y-31724873D01*
X55801018Y-31708629D01*
X55745561Y-31661634D01*
X55683971Y-31609210D01*
X55617469Y-31552408D01*
X55547278Y-31492282D01*
X55474620Y-31429885D01*
X55400717Y-31366269D01*
X55326791Y-31302488D01*
X55254064Y-31239593D01*
X55183758Y-31178637D01*
X55117096Y-31120674D01*
X55055299Y-31066755D01*
X54999590Y-31017934D01*
X54991043Y-31010417D01*
X54947025Y-30971375D01*
X54909614Y-30937490D01*
X54877575Y-30907529D01*
X54849675Y-30880261D01*
X54824682Y-30854454D01*
X54801361Y-30828876D01*
X54778480Y-30802296D01*
X54754805Y-30773482D01*
X54746075Y-30762685D01*
X54722550Y-30733954D01*
X54703851Y-30711990D01*
X54688816Y-30695668D01*
X54676283Y-30683861D01*
X54665091Y-30675445D01*
X54654077Y-30669294D01*
X54642079Y-30664282D01*
X54629622Y-30659707D01*
X54617138Y-30655353D01*
X54611385Y-30653671D01*
X54610796Y-30653896D01*
X54606192Y-30660012D01*
X54599451Y-30672356D01*
X54591901Y-30688060D01*
X54584865Y-30704255D01*
X54579672Y-30718074D01*
X54577646Y-30726647D01*
X54328685Y-30726647D01*
X54305315Y-30698272D01*
X54249619Y-30626022D01*
X54193963Y-30549206D01*
X54136687Y-30465818D01*
X54124424Y-30447478D01*
X54093489Y-30400266D01*
X54066946Y-30357963D01*
X54043355Y-30318087D01*
X54021280Y-30278154D01*
X53999283Y-30235681D01*
X53975926Y-30188186D01*
X53965429Y-30166205D01*
X53944306Y-30120477D01*
X53923811Y-30073859D01*
X53903507Y-30025211D01*
X53882960Y-29973391D01*
X53861731Y-29917258D01*
X53839386Y-29855671D01*
X53815488Y-29787490D01*
X53789601Y-29711574D01*
X53761288Y-29626780D01*
X53721668Y-29507120D01*
X53702969Y-29508687D01*
X53684270Y-29510254D01*
X53667229Y-29572764D01*
X53660401Y-29600233D01*
X53647250Y-29679214D01*
X53641908Y-29764359D01*
X53502214Y-29764359D01*
X53502194Y-29760295D01*
X53502257Y-29737047D01*
X53502528Y-29698805D01*
X53503085Y-29668338D01*
X53504039Y-29643902D01*
X53505498Y-29623750D01*
X53507571Y-29606137D01*
X53510367Y-29589318D01*
X53513996Y-29571547D01*
X53523646Y-29531279D01*
X53542312Y-29471488D01*
X53564072Y-29421560D01*
X53588964Y-29381430D01*
X53617021Y-29351034D01*
X53648282Y-29330307D01*
X53654651Y-29327386D01*
X53669677Y-29322448D01*
X53686442Y-29320561D01*
X53709209Y-29321079D01*
X53723620Y-29322348D01*
X53748544Y-29326782D01*
X53767617Y-29333145D01*
X53775171Y-29337195D01*
X53799955Y-29355540D01*
X53825009Y-29380763D01*
X53848211Y-29410537D01*
X53867436Y-29442535D01*
X53875635Y-29458969D01*
X53885921Y-29481604D01*
X53894476Y-29503971D01*
X53902178Y-29528704D01*
X53909905Y-29558437D01*
X53918534Y-29595801D01*
X53952620Y-29730212D01*
X54000552Y-29880334D01*
X54058147Y-30027927D01*
X54125027Y-30172106D01*
X54200809Y-30311988D01*
X54285113Y-30446689D01*
X54306052Y-30477671D01*
X54331054Y-30514145D01*
X54356066Y-30550138D01*
X54380353Y-30584632D01*
X54403185Y-30616610D01*
X54423827Y-30645055D01*
X54441548Y-30668949D01*
X54455614Y-30687276D01*
X54465294Y-30699018D01*
X54469853Y-30703158D01*
X54473264Y-30702340D01*
X54476070Y-30698148D01*
X54476764Y-30689404D01*
X54475215Y-30675010D01*
X54471288Y-30653868D01*
X54464850Y-30624880D01*
X54455770Y-30586949D01*
X54449798Y-30562253D01*
X54438432Y-30513197D01*
X54429719Y-30471886D01*
X54423396Y-30436780D01*
X54419202Y-30406338D01*
X54416878Y-30379023D01*
X54416161Y-30353293D01*
X54416195Y-30347451D01*
X54418050Y-30317144D01*
X54423299Y-30294253D01*
X54432724Y-30276458D01*
X54447107Y-30261436D01*
X54456199Y-30254697D01*
X54470562Y-30248899D01*
X54489748Y-30247354D01*
X54502015Y-30248146D01*
X54531876Y-30256842D01*
X54561588Y-30275269D01*
X54591341Y-30303593D01*
X54621325Y-30341984D01*
X54651727Y-30390607D01*
X54664408Y-30412449D01*
X54703110Y-30475296D01*
X54745661Y-30539615D01*
X54790122Y-30602622D01*
X54834552Y-30661536D01*
X54877010Y-30713577D01*
X54895925Y-30735356D01*
X54918042Y-30759995D01*
X54941178Y-30784806D01*
X54965781Y-30810179D01*
X54992302Y-30836504D01*
X55021188Y-30864173D01*
X55052890Y-30893575D01*
X55087856Y-30925102D01*
X55126535Y-30959144D01*
X55169377Y-30996092D01*
X55216831Y-31036336D01*
X55269345Y-31080267D01*
X55327369Y-31128276D01*
X55391351Y-31180752D01*
X55461742Y-31238088D01*
X55538990Y-31300672D01*
X55623544Y-31368897D01*
X55715853Y-31443152D01*
X55735135Y-31458651D01*
X55788553Y-31501687D01*
X55834807Y-31539146D01*
X55874663Y-31571681D01*
X55908886Y-31599948D01*
X55938243Y-31624602D01*
X55963499Y-31646299D01*
X55985421Y-31665693D01*
X56004774Y-31683441D01*
X56022324Y-31700196D01*
X56038837Y-31716615D01*
X56055079Y-31733352D01*
X56077207Y-31757078D01*
X56142495Y-31835163D01*
X56198005Y-31915035D01*
X56243583Y-31996429D01*
X56279075Y-32079082D01*
X56301941Y-32154820D01*
X56304328Y-32162728D01*
X56305328Y-32166794D01*
X56313417Y-32191770D01*
X56324588Y-32211721D01*
X56340593Y-32228553D01*
X56360007Y-32241977D01*
X56363183Y-32244173D01*
X56394111Y-32260490D01*
X56418611Y-32272703D01*
X56479865Y-32306881D01*
X56535992Y-32344315D01*
X56590011Y-32387138D01*
X56644941Y-32437478D01*
X56666325Y-32458726D01*
X56701494Y-32496126D01*
X56734188Y-32534540D01*
X56764911Y-32574875D01*
X56794172Y-32618040D01*
X56822474Y-32664942D01*
X56850324Y-32716490D01*
X56878228Y-32773591D01*
X56906692Y-32837154D01*
X56936221Y-32908086D01*
X56967321Y-32987295D01*
X57000498Y-33075689D01*
X57006125Y-33090823D01*
X57018473Y-33123165D01*
X57030057Y-33152385D01*
X57040189Y-33176811D01*
X57048185Y-33194771D01*
X57053359Y-33204592D01*
X57056563Y-33209289D01*
X57061083Y-33215331D01*
X57066193Y-33220523D01*
X57072856Y-33225144D01*
X57082038Y-33229471D01*
X57094705Y-33233779D01*
X57111821Y-33238346D01*
X57134352Y-33243449D01*
X57163262Y-33249365D01*
X57199517Y-33256371D01*
X57244081Y-33264743D01*
X57297920Y-33274758D01*
X57325860Y-33279723D01*
X57348994Y-33282601D01*
X57367929Y-33282413D01*
X57384574Y-33278422D01*
X57400835Y-33269893D01*
X57418620Y-33256089D01*
X57439837Y-33236273D01*
X57466393Y-33209708D01*
X57492817Y-33182006D01*
X57544551Y-33120284D01*
X57585949Y-33059059D01*
X57616976Y-32998377D01*
X57619067Y-32993385D01*
X57631054Y-32961564D01*
X57644448Y-32921399D01*
X57658805Y-32874480D01*
X57673682Y-32822398D01*
X57688636Y-32766744D01*
X57703225Y-32709107D01*
X57717005Y-32651077D01*
X57729534Y-32594246D01*
X57732942Y-32578464D01*
X57758243Y-32479610D01*
X57789004Y-32388309D01*
X57825863Y-32303057D01*
X57869460Y-32222351D01*
X57920432Y-32144686D01*
X57935150Y-32124611D01*
X57950746Y-32104566D01*
X57967509Y-32084464D01*
X57986376Y-32063317D01*
X58008284Y-32040133D01*
X58034170Y-32013921D01*
X58064970Y-31983691D01*
X58101623Y-31948454D01*
X58145065Y-31907217D01*
X58164806Y-31888566D01*
X58196422Y-31858748D01*
X58225622Y-31831302D01*
X58253419Y-31805291D01*
X58280830Y-31779779D01*
X58308868Y-31753833D01*
X58338548Y-31726516D01*
X58370886Y-31696893D01*
X58406896Y-31664028D01*
X58447593Y-31626985D01*
X58493991Y-31584831D01*
X58547106Y-31536628D01*
X58555681Y-31528844D01*
X58676142Y-31418473D01*
X58793470Y-31309066D01*
X58907272Y-31201033D01*
X59017149Y-31094787D01*
X59122706Y-30990741D01*
X59223546Y-30889305D01*
X59279798Y-30831474D01*
X59526420Y-30831474D01*
X59529467Y-30834465D01*
X59539671Y-30840770D01*
X59554575Y-30848567D01*
X59564548Y-30853823D01*
X59595197Y-30875656D01*
X59618737Y-30901911D01*
X59633538Y-30930889D01*
X59639175Y-30958350D01*
X59640623Y-30994644D01*
X59637689Y-31037453D01*
X59630473Y-31085328D01*
X59619079Y-31136823D01*
X59617090Y-31144709D01*
X59611276Y-31168707D01*
X59606949Y-31188079D01*
X59604497Y-31201008D01*
X59604311Y-31205679D01*
X59606629Y-31204537D01*
X59616055Y-31198578D01*
X59630768Y-31188683D01*
X59648790Y-31176164D01*
X59710005Y-31129918D01*
X59789335Y-31060582D01*
X59866789Y-30982275D01*
X59941721Y-30895801D01*
X60013485Y-30801967D01*
X60081434Y-30701581D01*
X60144921Y-30595447D01*
X60203301Y-30484372D01*
X60241137Y-30403435D01*
X60282654Y-30303480D01*
X60317847Y-30205076D01*
X60346573Y-30108940D01*
X60368690Y-30015786D01*
X60384057Y-29926328D01*
X60392531Y-29841283D01*
X60393970Y-29761363D01*
X60388231Y-29687286D01*
X60375174Y-29619765D01*
X60373921Y-29615182D01*
X60367874Y-29595921D01*
X60360185Y-29574361D01*
X60351697Y-29552526D01*
X60343252Y-29532440D01*
X60335690Y-29516127D01*
X60329854Y-29505612D01*
X60326585Y-29502917D01*
X60326456Y-29503136D01*
X60323697Y-29509850D01*
X60317909Y-29524886D01*
X60309562Y-29546987D01*
X60299132Y-29574893D01*
X60287090Y-29607346D01*
X60273909Y-29643088D01*
X60260505Y-29679371D01*
X60235225Y-29746589D01*
X60212185Y-29805879D01*
X60190778Y-29858586D01*
X60170399Y-29906055D01*
X60150441Y-29949631D01*
X60130298Y-29990661D01*
X60109365Y-30030488D01*
X60087035Y-30070457D01*
X60062703Y-30111915D01*
X60040435Y-30148649D01*
X59990564Y-30227660D01*
X59938236Y-30306042D01*
X59882542Y-30385032D01*
X59822576Y-30465868D01*
X59757431Y-30549784D01*
X59686200Y-30638019D01*
X59607975Y-30731809D01*
X59591752Y-30751053D01*
X59570701Y-30776239D01*
X59552720Y-30798000D01*
X59538732Y-30815211D01*
X59529658Y-30826744D01*
X59526420Y-30831474D01*
X59279798Y-30831474D01*
X59319273Y-30790891D01*
X59409490Y-30695913D01*
X59493802Y-30604781D01*
X59571811Y-30517907D01*
X59643122Y-30435704D01*
X59707337Y-30358583D01*
X59764062Y-30286956D01*
X59812898Y-30221235D01*
X59845562Y-30174315D01*
X59919349Y-30057620D01*
X59983005Y-29940266D01*
X60036460Y-29822408D01*
X60079641Y-29704197D01*
X60112476Y-29585787D01*
X60119400Y-29557340D01*
X60135832Y-29499282D01*
X60153422Y-29450250D01*
X60172594Y-29409285D01*
X60193768Y-29375427D01*
X60217368Y-29347718D01*
X60227668Y-29338018D01*
X60254926Y-29318725D01*
X60284150Y-29308007D01*
X60318171Y-29304657D01*
X60330046Y-29305044D01*
X60365294Y-29311955D01*
X60397601Y-29328001D01*
X60428406Y-29353824D01*
X60429587Y-29355036D01*
X60450320Y-29381023D01*
X60469872Y-29413605D01*
X60486334Y-29449195D01*
X60497799Y-29484208D01*
X60502180Y-29504356D01*
X60508481Y-29543375D01*
X60513765Y-29588826D01*
X60517808Y-29638274D01*
X60520388Y-29689286D01*
X60521279Y-29739426D01*
X60521024Y-29761363D01*
X60520810Y-29779740D01*
X60517937Y-29844893D01*
X60512201Y-29909010D01*
X60503319Y-29973556D01*
X60491004Y-30039995D01*
X60474973Y-30109792D01*
X60454940Y-30184412D01*
X60430620Y-30265320D01*
X60401729Y-30353980D01*
X60401358Y-30355083D01*
X60391544Y-30384507D01*
X60383009Y-30410500D01*
X60376273Y-30431454D01*
X60371851Y-30445759D01*
X60370263Y-30451808D01*
X60370599Y-30453420D01*
X60375482Y-30452795D01*
X60385794Y-30444410D01*
X60401044Y-30428787D01*
X60420743Y-30406449D01*
X60444400Y-30377921D01*
X60471526Y-30343724D01*
X60472650Y-30342281D01*
X60527441Y-30271693D01*
X60576198Y-30208391D01*
X60619467Y-30151604D01*
X60657792Y-30100562D01*
X60691720Y-30054496D01*
X60721795Y-30012635D01*
X60748563Y-29974210D01*
X60772568Y-29938450D01*
X60794356Y-29904587D01*
X60814473Y-29871850D01*
X60833463Y-29839468D01*
X60851871Y-29806674D01*
X60863295Y-29785467D01*
X60902719Y-29705408D01*
X60939739Y-29619785D01*
X60973105Y-29531824D01*
X61001573Y-29444751D01*
X61023893Y-29361792D01*
X61030818Y-29333371D01*
X61048270Y-29270026D01*
X61066426Y-29216188D01*
X61085629Y-29171209D01*
X61106220Y-29134441D01*
X61128543Y-29105237D01*
X61152940Y-29082950D01*
X61179753Y-29066931D01*
X61208669Y-29057082D01*
X61244485Y-29054268D01*
X61279937Y-29061381D01*
X61314062Y-29078203D01*
X61345894Y-29104517D01*
X61358936Y-29119881D01*
X61377832Y-29148105D01*
X61396737Y-29182331D01*
X61414441Y-29220124D01*
X61429735Y-29259051D01*
X61441409Y-29296677D01*
X61441712Y-29297838D01*
X61445830Y-29314320D01*
X61449053Y-29329491D01*
X61451524Y-29345026D01*
X61453386Y-29362601D01*
X61454780Y-29383892D01*
X61455849Y-29410574D01*
X61456737Y-29444322D01*
X61457584Y-29486813D01*
X61457607Y-29488043D01*
X61458127Y-29524449D01*
X61458307Y-29537044D01*
G37*
G36*
X59723756Y-36663233D02*
G01*
X59724227Y-36663547D01*
X59731585Y-36668632D01*
X59746687Y-36679165D01*
X59768881Y-36694687D01*
X59797515Y-36714741D01*
X59831937Y-36738867D01*
X59871494Y-36766609D01*
X59915534Y-36797508D01*
X59963405Y-36831105D01*
X60014455Y-36866943D01*
X60068031Y-36904562D01*
X60123480Y-36943506D01*
X60180152Y-36983315D01*
X60237393Y-37023531D01*
X60294552Y-37063697D01*
X60350975Y-37103354D01*
X60406011Y-37142043D01*
X60459008Y-37179307D01*
X60509312Y-37214688D01*
X60556273Y-37247726D01*
X60599237Y-37277965D01*
X60637552Y-37304945D01*
X60670567Y-37328208D01*
X60697628Y-37347297D01*
X60718084Y-37361753D01*
X60787214Y-37410680D01*
X60776333Y-37425961D01*
X60774784Y-37428109D01*
X60767461Y-37437450D01*
X60763431Y-37441243D01*
X60760481Y-37439512D01*
X60750228Y-37432635D01*
X60734038Y-37421441D01*
X60713338Y-37406920D01*
X60689555Y-37390061D01*
X60682223Y-37384873D01*
X60660475Y-37369675D01*
X60631695Y-37349748D01*
X60596981Y-37325843D01*
X60557433Y-37298713D01*
X60514149Y-37269113D01*
X60468228Y-37237793D01*
X60420768Y-37205508D01*
X60372867Y-37173011D01*
X60320392Y-37137424D01*
X60251738Y-37090719D01*
X60190280Y-37048692D01*
X60135137Y-37010712D01*
X60085428Y-36976149D01*
X60040272Y-36944372D01*
X59998789Y-36914751D01*
X59960097Y-36886655D01*
X59923316Y-36859453D01*
X59887564Y-36832514D01*
X59851960Y-36805209D01*
X59815624Y-36776907D01*
X59777675Y-36746977D01*
X59751612Y-36725995D01*
X59727458Y-36705739D01*
X59709783Y-36689895D01*
X59699230Y-36679042D01*
X59696442Y-36673761D01*
X59698969Y-36669423D01*
X59706358Y-36659714D01*
X59713589Y-36658048D01*
X59723756Y-36663233D01*
G37*
G36*
X55722766Y-32953650D02*
G01*
X55742897Y-32954522D01*
X55757843Y-32956833D01*
X55770951Y-32961219D01*
X55785567Y-32968316D01*
X55821177Y-32991837D01*
X55856273Y-33025141D01*
X55887598Y-33065830D01*
X55889466Y-33068649D01*
X55906299Y-33091962D01*
X55920628Y-33107055D01*
X55933889Y-33115166D01*
X55947519Y-33117536D01*
X55953023Y-33116607D01*
X55967888Y-33112764D01*
X55989970Y-33106363D01*
X56017758Y-33097858D01*
X56049740Y-33087704D01*
X56084403Y-33076356D01*
X56112171Y-33067174D01*
X56143190Y-33057032D01*
X56169616Y-33048517D01*
X56190127Y-33042053D01*
X56203403Y-33038058D01*
X56208122Y-33036955D01*
X56207426Y-33039126D01*
X56202219Y-33048833D01*
X56193104Y-33063833D01*
X56181497Y-33081971D01*
X56168816Y-33101092D01*
X56156477Y-33119044D01*
X56145898Y-33133670D01*
X56138495Y-33142817D01*
X56135132Y-33146304D01*
X56123370Y-33156779D01*
X56109785Y-33165711D01*
X56092698Y-33173814D01*
X56070430Y-33181805D01*
X56041303Y-33190399D01*
X56003636Y-33200312D01*
X55989193Y-33204072D01*
X55960387Y-33212065D01*
X55934605Y-33219839D01*
X55914216Y-33226663D01*
X55901593Y-33231804D01*
X55900993Y-33232115D01*
X55888063Y-33239906D01*
X55869494Y-33252374D01*
X55847679Y-33267868D01*
X55825009Y-33284733D01*
X55811928Y-33294657D01*
X55784736Y-33314788D01*
X55763103Y-33329824D01*
X55745289Y-33340875D01*
X55729551Y-33349054D01*
X55714148Y-33355471D01*
X55707667Y-33357435D01*
X55684606Y-33360651D01*
X55654982Y-33360809D01*
X55649017Y-33360446D01*
X55607082Y-33352437D01*
X55568659Y-33335724D01*
X55535209Y-33311340D01*
X55508194Y-33280317D01*
X55489078Y-33243688D01*
X55482231Y-33220672D01*
X55478462Y-33179710D01*
X55484978Y-33137691D01*
X55501761Y-33094855D01*
X55520911Y-33062830D01*
X55551152Y-33025606D01*
X55586028Y-32994152D01*
X55623263Y-32970792D01*
X55636700Y-32964388D01*
X55651636Y-32958524D01*
X55666058Y-32955258D01*
X55683609Y-32953848D01*
X55707930Y-32953552D01*
X55722766Y-32953650D01*
G37*
G36*
X45703385Y-39502569D02*
G01*
X45698082Y-39585206D01*
X45396534Y-39593904D01*
X45342459Y-39595519D01*
X45246313Y-39598989D01*
X45177406Y-39602892D01*
X45130546Y-39607907D01*
X45100543Y-39614708D01*
X45082203Y-39623971D01*
X45070335Y-39636373D01*
X45049933Y-39682749D01*
X45050638Y-39746410D01*
X45078903Y-39805093D01*
X45084730Y-39812072D01*
X45099707Y-39825992D01*
X45120077Y-39835745D01*
X45151719Y-39842265D01*
X45200512Y-39846482D01*
X45272336Y-39849331D01*
X45373072Y-39851743D01*
X45463726Y-39853647D01*
X45553258Y-39857630D01*
X45616483Y-39867328D01*
X45658149Y-39887050D01*
X45683004Y-39921110D01*
X45695795Y-39973817D01*
X45701270Y-40049485D01*
X45704178Y-40152425D01*
X45710275Y-40376781D01*
X45621541Y-40376781D01*
X45532808Y-40376781D01*
X45532808Y-40194110D01*
X45532808Y-40011438D01*
X45397843Y-40011438D01*
X45262878Y-40011438D01*
X45153342Y-40194110D01*
X45043807Y-40376781D01*
X44949648Y-40376781D01*
X44855488Y-40376781D01*
X44966052Y-40187712D01*
X45076615Y-39998643D01*
X45017538Y-39970471D01*
X45006252Y-39964655D01*
X44943136Y-39911553D01*
X44900500Y-39838476D01*
X44879380Y-39753226D01*
X44880809Y-39663605D01*
X44905824Y-39577416D01*
X44955459Y-39502458D01*
X44974787Y-39483718D01*
X45008530Y-39460474D01*
X45051370Y-39443505D01*
X45108439Y-39431894D01*
X45184868Y-39424723D01*
X45285788Y-39421074D01*
X45416330Y-39420029D01*
X45708687Y-39419932D01*
X45703385Y-39502569D01*
G37*
G36*
X44649356Y-39990532D02*
G01*
X44642200Y-40051390D01*
X44626779Y-40103968D01*
X44600128Y-40162368D01*
X44582286Y-40195837D01*
X44532919Y-40265785D01*
X44473092Y-40314266D01*
X44392281Y-40350822D01*
X44361581Y-40359110D01*
X44286527Y-40369695D01*
X44195017Y-40374866D01*
X44098536Y-40374480D01*
X44008566Y-40368395D01*
X43936592Y-40356469D01*
X43935502Y-40356192D01*
X43858703Y-40322160D01*
X43785258Y-40265266D01*
X43725447Y-40195270D01*
X43689553Y-40121933D01*
X43667961Y-40023429D01*
X43661070Y-39910197D01*
X43836651Y-39910197D01*
X43836967Y-39939553D01*
X43844494Y-40031092D01*
X43864177Y-40097361D01*
X43898847Y-40145038D01*
X43951334Y-40180805D01*
X43973691Y-40187305D01*
X44027046Y-40194368D01*
X44097612Y-40199150D01*
X44175278Y-40201402D01*
X44249937Y-40200880D01*
X44311479Y-40197335D01*
X44349794Y-40190522D01*
X44379987Y-40174887D01*
X44430336Y-40122165D01*
X44466044Y-40045693D01*
X44484715Y-39951618D01*
X44483957Y-39846086D01*
X44476042Y-39789092D01*
X44452766Y-39709717D01*
X44413775Y-39653926D01*
X44354660Y-39618304D01*
X44271013Y-39599435D01*
X44158424Y-39593904D01*
X44151354Y-39593918D01*
X44038732Y-39599905D01*
X43955441Y-39619409D01*
X43897534Y-39656310D01*
X43861065Y-39714489D01*
X43842086Y-39797825D01*
X43836651Y-39910197D01*
X43661070Y-39910197D01*
X43658885Y-39874293D01*
X43678390Y-39734036D01*
X43684555Y-39711392D01*
X43726970Y-39605672D01*
X43786921Y-39526107D01*
X43868028Y-39467613D01*
X43875990Y-39463435D01*
X43910577Y-39448062D01*
X43948171Y-39437961D01*
X43996714Y-39432066D01*
X44064151Y-39429312D01*
X44158424Y-39428630D01*
X44208869Y-39428744D01*
X44287239Y-39430094D01*
X44342868Y-39433924D01*
X44383775Y-39441418D01*
X44417981Y-39453757D01*
X44453505Y-39472123D01*
X44502833Y-39504539D01*
X44570588Y-39574523D01*
X44616904Y-39664782D01*
X44643268Y-39778680D01*
X44651165Y-39919583D01*
X44650348Y-39951618D01*
X44649356Y-39990532D01*
G37*
G36*
X43392354Y-39755985D02*
G01*
X43393190Y-39864977D01*
X43392875Y-39975842D01*
X43391432Y-40081027D01*
X43391412Y-40082473D01*
X43388807Y-40178762D01*
X43385066Y-40258605D01*
X43380192Y-40315892D01*
X43374192Y-40344519D01*
X43366456Y-40356324D01*
X43353841Y-40365544D01*
X43331804Y-40371635D01*
X43295273Y-40375053D01*
X43239177Y-40376252D01*
X43158441Y-40375690D01*
X43047994Y-40373821D01*
X42973039Y-40372314D01*
X42880257Y-40369712D01*
X42812673Y-40366189D01*
X42764423Y-40361031D01*
X42729646Y-40353524D01*
X42702480Y-40342953D01*
X42677063Y-40328604D01*
X42658424Y-40315648D01*
X42602467Y-40253043D01*
X42570538Y-40175664D01*
X42563710Y-40092255D01*
X42571781Y-40058593D01*
X42735686Y-40058593D01*
X42736055Y-40115896D01*
X42766644Y-40168014D01*
X42770697Y-40171922D01*
X42789917Y-40185637D01*
X42816664Y-40194610D01*
X42857751Y-40199814D01*
X42919993Y-40202222D01*
X43010205Y-40202808D01*
X43218972Y-40202808D01*
X43218972Y-40081027D01*
X43218972Y-39959247D01*
X43021250Y-39959247D01*
X42933935Y-39959938D01*
X42872512Y-39962780D01*
X42830991Y-39968882D01*
X42801880Y-39979354D01*
X42777688Y-39995304D01*
X42764845Y-40006898D01*
X42735686Y-40058593D01*
X42571781Y-40058593D01*
X42583057Y-40011565D01*
X42629652Y-39942340D01*
X42681993Y-39889998D01*
X42636421Y-39850684D01*
X42596563Y-39800844D01*
X42571695Y-39726978D01*
X42571352Y-39697413D01*
X42737312Y-39697413D01*
X42742335Y-39736059D01*
X42772885Y-39775700D01*
X42785576Y-39787887D01*
X42806351Y-39802998D01*
X42832684Y-39812450D01*
X42871882Y-39817564D01*
X42931256Y-39819663D01*
X43018113Y-39820069D01*
X43218972Y-39820069D01*
X43218972Y-39706986D01*
X43218972Y-39593904D01*
X43013530Y-39593904D01*
X42936934Y-39594550D01*
X42858960Y-39598436D01*
X42805915Y-39607493D01*
X42772148Y-39623588D01*
X42752004Y-39648589D01*
X42739834Y-39684364D01*
X42737312Y-39697413D01*
X42571352Y-39697413D01*
X42570756Y-39646152D01*
X42593639Y-39568173D01*
X42640236Y-39502847D01*
X42660700Y-39484449D01*
X42695418Y-39460091D01*
X42735911Y-39442662D01*
X42787980Y-39431046D01*
X42857421Y-39424128D01*
X42950034Y-39420795D01*
X43071616Y-39419932D01*
X43124362Y-39419979D01*
X43216387Y-39420613D01*
X43281293Y-39422456D01*
X43324341Y-39426091D01*
X43350791Y-39432101D01*
X43365902Y-39441071D01*
X43374936Y-39453582D01*
X43377384Y-39460878D01*
X43382880Y-39501312D01*
X43387204Y-39568046D01*
X43390360Y-39654972D01*
X43391387Y-39706986D01*
X43392354Y-39755985D01*
G37*
G36*
X42300726Y-39990532D02*
G01*
X42293570Y-40051390D01*
X42278149Y-40103968D01*
X42251498Y-40162368D01*
X42233656Y-40195837D01*
X42184289Y-40265785D01*
X42124462Y-40314266D01*
X42043651Y-40350822D01*
X42012951Y-40359110D01*
X41937897Y-40369695D01*
X41846387Y-40374866D01*
X41749906Y-40374480D01*
X41659936Y-40368395D01*
X41587962Y-40356469D01*
X41586872Y-40356192D01*
X41510073Y-40322160D01*
X41436628Y-40265266D01*
X41376817Y-40195270D01*
X41340922Y-40121933D01*
X41319331Y-40023429D01*
X41312440Y-39910197D01*
X41488021Y-39910197D01*
X41488337Y-39939553D01*
X41495864Y-40031092D01*
X41515547Y-40097361D01*
X41550217Y-40145038D01*
X41602704Y-40180805D01*
X41625061Y-40187305D01*
X41678416Y-40194368D01*
X41748982Y-40199150D01*
X41826648Y-40201402D01*
X41901307Y-40200880D01*
X41962849Y-40197335D01*
X42001164Y-40190522D01*
X42031357Y-40174887D01*
X42081706Y-40122165D01*
X42117413Y-40045693D01*
X42136085Y-39951618D01*
X42135326Y-39846086D01*
X42127412Y-39789092D01*
X42104136Y-39709717D01*
X42065144Y-39653926D01*
X42006029Y-39618304D01*
X41922382Y-39599435D01*
X41809794Y-39593904D01*
X41802724Y-39593918D01*
X41690102Y-39599905D01*
X41606811Y-39619409D01*
X41548904Y-39656310D01*
X41512435Y-39714489D01*
X41493456Y-39797825D01*
X41488021Y-39910197D01*
X41312440Y-39910197D01*
X41310255Y-39874293D01*
X41329760Y-39734036D01*
X41335925Y-39711392D01*
X41378340Y-39605672D01*
X41438291Y-39526107D01*
X41519398Y-39467613D01*
X41527360Y-39463435D01*
X41561947Y-39448062D01*
X41599541Y-39437961D01*
X41648084Y-39432066D01*
X41715521Y-39429312D01*
X41809794Y-39428630D01*
X41860239Y-39428744D01*
X41938609Y-39430094D01*
X41994238Y-39433924D01*
X42035145Y-39441418D01*
X42069351Y-39453757D01*
X42104874Y-39472123D01*
X42154202Y-39504539D01*
X42221958Y-39574523D01*
X42268274Y-39664782D01*
X42294638Y-39778680D01*
X42302535Y-39919583D01*
X42301718Y-39951618D01*
X42300726Y-39990532D01*
G37*
G36*
X41127905Y-39502569D02*
G01*
X41122603Y-39585206D01*
X40987774Y-39590287D01*
X40852945Y-39595368D01*
X40852945Y-39986074D01*
X40852945Y-40376781D01*
X40765959Y-40376781D01*
X40678972Y-40376781D01*
X40678972Y-39985343D01*
X40678972Y-39593904D01*
X40539794Y-39593904D01*
X40400616Y-39593904D01*
X40400616Y-39506918D01*
X40400616Y-39419932D01*
X40766912Y-39419932D01*
X41133208Y-39419932D01*
X41127905Y-39502569D01*
G37*
G36*
X40174452Y-39898356D02*
G01*
X40174452Y-40376781D01*
X40087466Y-40376781D01*
X40000479Y-40376781D01*
X40000479Y-39898356D01*
X40000479Y-39419932D01*
X40087466Y-39419932D01*
X40174452Y-39419932D01*
X40174452Y-39898356D01*
G37*
G36*
X39143664Y-39420029D02*
G01*
X39215249Y-39420764D01*
X39338821Y-39427451D01*
X39435730Y-39442883D01*
X39511142Y-39469212D01*
X39570222Y-39508589D01*
X39618135Y-39563166D01*
X39660047Y-39635092D01*
X39672539Y-39660739D01*
X39692888Y-39710161D01*
X39704535Y-39758210D01*
X39709812Y-39816928D01*
X39711052Y-39898356D01*
X39710840Y-39939064D01*
X39708073Y-40008488D01*
X39700237Y-40060606D01*
X39685004Y-40107398D01*
X39660047Y-40160843D01*
X39640250Y-40197819D01*
X39591061Y-40266818D01*
X39531591Y-40314668D01*
X39451460Y-40350822D01*
X39445030Y-40352945D01*
X39380059Y-40365370D01*
X39282072Y-40373097D01*
X39152363Y-40376017D01*
X38921849Y-40376781D01*
X38921849Y-40291078D01*
X38921849Y-40205375D01*
X39172761Y-40199742D01*
X39187071Y-40199418D01*
X39282141Y-40196837D01*
X39349490Y-40193528D01*
X39395394Y-40188499D01*
X39426132Y-40180756D01*
X39447979Y-40169306D01*
X39467213Y-40153155D01*
X39495424Y-40116764D01*
X39525576Y-40042930D01*
X39541893Y-39953604D01*
X39543645Y-39858844D01*
X39530103Y-39768710D01*
X39500539Y-39693261D01*
X39498461Y-39689738D01*
X39473020Y-39653585D01*
X39442626Y-39627782D01*
X39401322Y-39610634D01*
X39343149Y-39600445D01*
X39262149Y-39595519D01*
X39152363Y-39594161D01*
X38921849Y-39593904D01*
X38921849Y-39506918D01*
X38921849Y-39419932D01*
X39143664Y-39420029D01*
G37*
G36*
X38189938Y-39422872D02*
G01*
X38256787Y-39424192D01*
X38352775Y-39426770D01*
X38422592Y-39430159D01*
X38471777Y-39435002D01*
X38505870Y-39441939D01*
X38530408Y-39451612D01*
X38550931Y-39464661D01*
X38582699Y-39492989D01*
X38631595Y-39567337D01*
X38657193Y-39655847D01*
X38657474Y-39749048D01*
X38630418Y-39837466D01*
X38598162Y-39886285D01*
X38546182Y-39928323D01*
X38474227Y-39956282D01*
X38377760Y-39971832D01*
X38252239Y-39976644D01*
X38184140Y-39977386D01*
X38099039Y-39982587D01*
X38040992Y-39994440D01*
X38005321Y-40014902D01*
X37987349Y-40045926D01*
X37982397Y-40089470D01*
X37982636Y-40106658D01*
X37986620Y-40140536D01*
X37998966Y-40165375D01*
X38024079Y-40182570D01*
X38066363Y-40193517D01*
X38130222Y-40199609D01*
X38220061Y-40202241D01*
X38340284Y-40202808D01*
X38643493Y-40202808D01*
X38643493Y-40289795D01*
X38643493Y-40376781D01*
X38334029Y-40376781D01*
X38255966Y-40376664D01*
X38163108Y-40375763D01*
X38094913Y-40373441D01*
X38045292Y-40369084D01*
X38008150Y-40362075D01*
X37977397Y-40351798D01*
X37946940Y-40337637D01*
X37886946Y-40295512D01*
X37836120Y-40227457D01*
X37809625Y-40147814D01*
X37807459Y-40063876D01*
X37829623Y-39982935D01*
X37876116Y-39912283D01*
X37946940Y-39859212D01*
X37974404Y-39846390D01*
X38014731Y-39832899D01*
X38062562Y-39824893D01*
X38126981Y-39821055D01*
X38217075Y-39820069D01*
X38285175Y-39819327D01*
X38370275Y-39814125D01*
X38428322Y-39802272D01*
X38463994Y-39781811D01*
X38481966Y-39750786D01*
X38486918Y-39707243D01*
X38486915Y-39705113D01*
X38484590Y-39666264D01*
X38474841Y-39637664D01*
X38453106Y-39617757D01*
X38414827Y-39604985D01*
X38355444Y-39597791D01*
X38270397Y-39594616D01*
X38155127Y-39593904D01*
X37878013Y-39593904D01*
X37878013Y-39505509D01*
X37878013Y-39417114D01*
X38189938Y-39422872D01*
G37*
G36*
X45771004Y-38187529D02*
G01*
X45805521Y-38188292D01*
X45901822Y-38191002D01*
X45971945Y-38194628D01*
X46022538Y-38200102D01*
X46060247Y-38208354D01*
X46091719Y-38220316D01*
X46123602Y-38236918D01*
X46140917Y-38247447D01*
X46215981Y-38316249D01*
X46273154Y-38409351D01*
X46310391Y-38521031D01*
X46325645Y-38645567D01*
X46316869Y-38777239D01*
X46286148Y-38897573D01*
X46234661Y-38993722D01*
X46160773Y-39065736D01*
X46062418Y-39116368D01*
X46005500Y-39129953D01*
X45921652Y-39136976D01*
X45808028Y-39137214D01*
X45757597Y-39135777D01*
X45685588Y-39131757D01*
X45636279Y-39124859D01*
X45601790Y-39113727D01*
X45574240Y-39097007D01*
X45573300Y-39096302D01*
X45500518Y-39021809D01*
X45458495Y-38933273D01*
X45448438Y-38834994D01*
X45471555Y-38731269D01*
X45500986Y-38670727D01*
X45539550Y-38628624D01*
X45593378Y-38602335D01*
X45668768Y-38588793D01*
X45772020Y-38584928D01*
X45932945Y-38584863D01*
X45932945Y-38654452D01*
X45932945Y-38724041D01*
X45802466Y-38724041D01*
X45750978Y-38724760D01*
X45697114Y-38729417D01*
X45662303Y-38740119D01*
X45637192Y-38758836D01*
X45608819Y-38808102D01*
X45605510Y-38869607D01*
X45629479Y-38928937D01*
X45643044Y-38945244D01*
X45662871Y-38957248D01*
X45694798Y-38963944D01*
X45746387Y-38966815D01*
X45825199Y-38967346D01*
X45910848Y-38965531D01*
X45984701Y-38957826D01*
X46038101Y-38941788D01*
X46078647Y-38914986D01*
X46113939Y-38874991D01*
X46131365Y-38838641D01*
X46146210Y-38770526D01*
X46152615Y-38688329D01*
X46150424Y-38603120D01*
X46139482Y-38525970D01*
X46119635Y-38467947D01*
X46110198Y-38451438D01*
X46086577Y-38419634D01*
X46056564Y-38396663D01*
X46014476Y-38380805D01*
X45954635Y-38370339D01*
X45871361Y-38363543D01*
X45758972Y-38358699D01*
X45506712Y-38350000D01*
X45501346Y-38265816D01*
X45495981Y-38181633D01*
X45771004Y-38187529D01*
G37*
G36*
X45188671Y-38755327D02*
G01*
X45181515Y-38816184D01*
X45166094Y-38868763D01*
X45139443Y-38927162D01*
X45121601Y-38960632D01*
X45072234Y-39030580D01*
X45012408Y-39079060D01*
X44931597Y-39115617D01*
X44900897Y-39123905D01*
X44825842Y-39134490D01*
X44734332Y-39139660D01*
X44637851Y-39139274D01*
X44547881Y-39133190D01*
X44475907Y-39121264D01*
X44474817Y-39120986D01*
X44398018Y-39086954D01*
X44324573Y-39030060D01*
X44264762Y-38960064D01*
X44228868Y-38886728D01*
X44207276Y-38788224D01*
X44200385Y-38674991D01*
X44375967Y-38674991D01*
X44376282Y-38704348D01*
X44383809Y-38795887D01*
X44403492Y-38862155D01*
X44438162Y-38909833D01*
X44490649Y-38945600D01*
X44513007Y-38952099D01*
X44566361Y-38959163D01*
X44636927Y-38963944D01*
X44714593Y-38966197D01*
X44789252Y-38965674D01*
X44850794Y-38962129D01*
X44889109Y-38955316D01*
X44919302Y-38939681D01*
X44969651Y-38886959D01*
X45005359Y-38810488D01*
X45024030Y-38716412D01*
X45023272Y-38610880D01*
X45015357Y-38553887D01*
X44992081Y-38474512D01*
X44953090Y-38418720D01*
X44893975Y-38383098D01*
X44810328Y-38364229D01*
X44697740Y-38358699D01*
X44690669Y-38358713D01*
X44578047Y-38364699D01*
X44494756Y-38384203D01*
X44436849Y-38421105D01*
X44400380Y-38479284D01*
X44381401Y-38562619D01*
X44375967Y-38674991D01*
X44200385Y-38674991D01*
X44198200Y-38639088D01*
X44217705Y-38498830D01*
X44223870Y-38476187D01*
X44266285Y-38370467D01*
X44326236Y-38290902D01*
X44407343Y-38232408D01*
X44415305Y-38228230D01*
X44449892Y-38212856D01*
X44487486Y-38202756D01*
X44536029Y-38196861D01*
X44603466Y-38194106D01*
X44697740Y-38193425D01*
X44748184Y-38193539D01*
X44826554Y-38194888D01*
X44882183Y-38198719D01*
X44923091Y-38206213D01*
X44957296Y-38218552D01*
X44992820Y-38236918D01*
X45042148Y-38269333D01*
X45109903Y-38339318D01*
X45156219Y-38429577D01*
X45182583Y-38543475D01*
X45190480Y-38684378D01*
X45189663Y-38716412D01*
X45188671Y-38755327D01*
G37*
G36*
X43932260Y-38546390D02*
G01*
X43932001Y-38665231D01*
X43930907Y-38760320D01*
X43928560Y-38830963D01*
X43924538Y-38882447D01*
X43918423Y-38920057D01*
X43909795Y-38949078D01*
X43898233Y-38974797D01*
X43872043Y-39018399D01*
X43814416Y-39076200D01*
X43732813Y-39118505D01*
X43732767Y-39118523D01*
X43693664Y-39126784D01*
X43627098Y-39133521D01*
X43540372Y-39138192D01*
X43440787Y-39140252D01*
X43201575Y-39141575D01*
X43201575Y-39054589D01*
X43201575Y-38967603D01*
X43434092Y-38967603D01*
X43493690Y-38967455D01*
X43572543Y-38966151D01*
X43627167Y-38962772D01*
X43664240Y-38956455D01*
X43690441Y-38946335D01*
X43712448Y-38931546D01*
X43758287Y-38895488D01*
X43758287Y-38540107D01*
X43758287Y-38184726D01*
X43845274Y-38184726D01*
X43932260Y-38184726D01*
X43932260Y-38546390D01*
G37*
G36*
X42957996Y-38684678D02*
G01*
X42956995Y-38818392D01*
X42954557Y-38930991D01*
X42950820Y-39019057D01*
X42945923Y-39079174D01*
X42940004Y-39107925D01*
X42932219Y-39119298D01*
X42917157Y-39129347D01*
X42890557Y-39135829D01*
X42846605Y-39139505D01*
X42779489Y-39141135D01*
X42683395Y-39141478D01*
X42571208Y-39140211D01*
X42474396Y-39135176D01*
X42400339Y-39125048D01*
X42342759Y-39108510D01*
X42295379Y-39084246D01*
X42251924Y-39050938D01*
X42249672Y-39048953D01*
X42193534Y-38992322D01*
X42154799Y-38933425D01*
X42130634Y-38864262D01*
X42118211Y-38776837D01*
X42114699Y-38663151D01*
X42279520Y-38663151D01*
X42282692Y-38740256D01*
X42300249Y-38833581D01*
X42334123Y-38899977D01*
X42385386Y-38942273D01*
X42427114Y-38955591D01*
X42502195Y-38964645D01*
X42609204Y-38967603D01*
X42784041Y-38967603D01*
X42784041Y-38663151D01*
X42784041Y-38358699D01*
X42609204Y-38358699D01*
X42583278Y-38358868D01*
X42473647Y-38365641D01*
X42392999Y-38385021D01*
X42337298Y-38420735D01*
X42302509Y-38476510D01*
X42284595Y-38556073D01*
X42279520Y-38663151D01*
X42114699Y-38663151D01*
X42114703Y-38658760D01*
X42118472Y-38546100D01*
X42131248Y-38459428D01*
X42155862Y-38390747D01*
X42195144Y-38332058D01*
X42251924Y-38275364D01*
X42291092Y-38244870D01*
X42337816Y-38219786D01*
X42394131Y-38202557D01*
X42466315Y-38191864D01*
X42560644Y-38186392D01*
X42683395Y-38184823D01*
X42764172Y-38185030D01*
X42836178Y-38186366D01*
X42883952Y-38189609D01*
X42913305Y-38195518D01*
X42930052Y-38204854D01*
X42940004Y-38218377D01*
X42940946Y-38220539D01*
X42946721Y-38254181D01*
X42951454Y-38318680D01*
X42955006Y-38410620D01*
X42957239Y-38526582D01*
X42958013Y-38663151D01*
X42957996Y-38684678D01*
G37*
G36*
X41388864Y-38267363D02*
G01*
X41383561Y-38350000D01*
X41082013Y-38358699D01*
X41027939Y-38360314D01*
X40931792Y-38363783D01*
X40862885Y-38367687D01*
X40816026Y-38372701D01*
X40786022Y-38379502D01*
X40767683Y-38388766D01*
X40755815Y-38401168D01*
X40735413Y-38447543D01*
X40736117Y-38511204D01*
X40764382Y-38569888D01*
X40770209Y-38576867D01*
X40785187Y-38590786D01*
X40805557Y-38600540D01*
X40837198Y-38607059D01*
X40885991Y-38611277D01*
X40957816Y-38614125D01*
X41058551Y-38616537D01*
X41149205Y-38618441D01*
X41238738Y-38622425D01*
X41301963Y-38632122D01*
X41343629Y-38651845D01*
X41368483Y-38685904D01*
X41381274Y-38738612D01*
X41386750Y-38814280D01*
X41389658Y-38917219D01*
X41395754Y-39141575D01*
X41307021Y-39141575D01*
X41218287Y-39141575D01*
X41218287Y-38958904D01*
X41218287Y-38776233D01*
X41083322Y-38776233D01*
X40948357Y-38776233D01*
X40838822Y-38958904D01*
X40729286Y-39141575D01*
X40635127Y-39141575D01*
X40540968Y-39141575D01*
X40651531Y-38952506D01*
X40762094Y-38763437D01*
X40703017Y-38735265D01*
X40691731Y-38729450D01*
X40628615Y-38676347D01*
X40585979Y-38603270D01*
X40564859Y-38518021D01*
X40566289Y-38428400D01*
X40591303Y-38342210D01*
X40640938Y-38267253D01*
X40660267Y-38248512D01*
X40694010Y-38225268D01*
X40736850Y-38208300D01*
X40793918Y-38196689D01*
X40870347Y-38189517D01*
X40971267Y-38185868D01*
X41101809Y-38184823D01*
X41394167Y-38184726D01*
X41388864Y-38267363D01*
G37*
G36*
X39669931Y-38541370D02*
G01*
X39669922Y-38662342D01*
X39671229Y-38766956D01*
X39676067Y-38844483D01*
X39686656Y-38898975D01*
X39705215Y-38934479D01*
X39733963Y-38955044D01*
X39775119Y-38964721D01*
X39830902Y-38967557D01*
X39903532Y-38967603D01*
X39907172Y-38967602D01*
X39983064Y-38966987D01*
X40032568Y-38963948D01*
X40063768Y-38956632D01*
X40084751Y-38943188D01*
X40103600Y-38921764D01*
X40105932Y-38918758D01*
X40117720Y-38900825D01*
X40126396Y-38878940D01*
X40132433Y-38847963D01*
X40136304Y-38802753D01*
X40138483Y-38738170D01*
X40139443Y-38649074D01*
X40139657Y-38530325D01*
X40139657Y-38184726D01*
X40226644Y-38184726D01*
X40313630Y-38184726D01*
X40313630Y-38537135D01*
X40313615Y-38551960D01*
X40312580Y-38662510D01*
X40310101Y-38763863D01*
X40306444Y-38849622D01*
X40301872Y-38913386D01*
X40296648Y-38948757D01*
X40278694Y-38993505D01*
X40223855Y-39066051D01*
X40148356Y-39117017D01*
X40143076Y-39119135D01*
X40090605Y-39130598D01*
X40009757Y-39138028D01*
X39905938Y-39140894D01*
X39872712Y-39140788D01*
X39760829Y-39135311D01*
X39676225Y-39120185D01*
X39613471Y-39093304D01*
X39567139Y-39052563D01*
X39531799Y-38995859D01*
X39529509Y-38991071D01*
X39518020Y-38963651D01*
X39509481Y-38933402D01*
X39503463Y-38894997D01*
X39499533Y-38843110D01*
X39497260Y-38772412D01*
X39496212Y-38677576D01*
X39495959Y-38553274D01*
X39495959Y-38184726D01*
X39582945Y-38184726D01*
X39669931Y-38184726D01*
X39669931Y-38541370D01*
G37*
G36*
X38746651Y-38187667D02*
G01*
X38813499Y-38188987D01*
X38909487Y-38191564D01*
X38979304Y-38194954D01*
X39028490Y-38199797D01*
X39062582Y-38206734D01*
X39087121Y-38216406D01*
X39107644Y-38229456D01*
X39139411Y-38257784D01*
X39188307Y-38332131D01*
X39213906Y-38420641D01*
X39214187Y-38513842D01*
X39187130Y-38602260D01*
X39154875Y-38651080D01*
X39102894Y-38693118D01*
X39030940Y-38721076D01*
X38934472Y-38736626D01*
X38808952Y-38741438D01*
X38740852Y-38742180D01*
X38655752Y-38747382D01*
X38597705Y-38759235D01*
X38562033Y-38779696D01*
X38544061Y-38810721D01*
X38539109Y-38854264D01*
X38539348Y-38871452D01*
X38543332Y-38905330D01*
X38555678Y-38930170D01*
X38580791Y-38947365D01*
X38623075Y-38958311D01*
X38686934Y-38964403D01*
X38776773Y-38967035D01*
X38896996Y-38967603D01*
X39200205Y-38967603D01*
X39200205Y-39054589D01*
X39200205Y-39141575D01*
X38890741Y-39141575D01*
X38812679Y-39141459D01*
X38719820Y-39140557D01*
X38651626Y-39138236D01*
X38602004Y-39133879D01*
X38564863Y-39126870D01*
X38534109Y-39116593D01*
X38503652Y-39102432D01*
X38443658Y-39060307D01*
X38392833Y-38992251D01*
X38366337Y-38912609D01*
X38364171Y-38828670D01*
X38386335Y-38747729D01*
X38432828Y-38677077D01*
X38503652Y-38624007D01*
X38531116Y-38611184D01*
X38571444Y-38597694D01*
X38619274Y-38589688D01*
X38683694Y-38585850D01*
X38773788Y-38584863D01*
X38841887Y-38584121D01*
X38926988Y-38578920D01*
X38985035Y-38567067D01*
X39020706Y-38546605D01*
X39038678Y-38515581D01*
X39043630Y-38472037D01*
X39043627Y-38469908D01*
X39041303Y-38431058D01*
X39031553Y-38402459D01*
X39009819Y-38382552D01*
X38971540Y-38369780D01*
X38912156Y-38362585D01*
X38827109Y-38359411D01*
X38711839Y-38358699D01*
X38434726Y-38358699D01*
X38434726Y-38270304D01*
X38434726Y-38181908D01*
X38746651Y-38187667D01*
G37*
G36*
X37443082Y-38376096D02*
G01*
X37443082Y-38567466D01*
X37686644Y-38567466D01*
X37930205Y-38567466D01*
X37930205Y-38376096D01*
X37930205Y-38184726D01*
X38017192Y-38184726D01*
X38104178Y-38184726D01*
X38104178Y-38663151D01*
X38104178Y-39141575D01*
X38017192Y-39141575D01*
X37930205Y-39141575D01*
X37930205Y-38941507D01*
X37930205Y-38741438D01*
X37686644Y-38741438D01*
X37443082Y-38741438D01*
X37443082Y-38941507D01*
X37443082Y-39141575D01*
X37356096Y-39141575D01*
X37269109Y-39141575D01*
X37269109Y-38663151D01*
X37269109Y-38184726D01*
X37356096Y-38184726D01*
X37443082Y-38184726D01*
X37443082Y-38376096D01*
G37*
G36*
X45384931Y-35418296D02*
G01*
X45413652Y-35437006D01*
X45444033Y-35473575D01*
X45445441Y-35476082D01*
X45454417Y-35497495D01*
X45455025Y-35521283D01*
X45445274Y-35554533D01*
X45423178Y-35604335D01*
X45386748Y-35677776D01*
X45274989Y-35881621D01*
X45096177Y-36157081D01*
X44893173Y-36420525D01*
X44672055Y-36663571D01*
X44523765Y-36805925D01*
X44237170Y-37044629D01*
X43932802Y-37253678D01*
X43611699Y-37432583D01*
X43274895Y-37580856D01*
X42923428Y-37698008D01*
X42558334Y-37783552D01*
X42180650Y-37836999D01*
X42115538Y-37841850D01*
X41987852Y-37846138D01*
X41841953Y-37846221D01*
X41687914Y-37842398D01*
X41535806Y-37834963D01*
X41395702Y-37824213D01*
X41277675Y-37810444D01*
X41164389Y-37791992D01*
X40849141Y-37722052D01*
X40534816Y-37626260D01*
X40229104Y-37507485D01*
X39939695Y-37368594D01*
X39674281Y-37212457D01*
X39656528Y-37200816D01*
X39588229Y-37154011D01*
X39544328Y-37118015D01*
X39520151Y-37087251D01*
X39511026Y-37056142D01*
X39512280Y-37019110D01*
X39515299Y-37008607D01*
X39539110Y-36974924D01*
X39574327Y-36945026D01*
X39606619Y-36932129D01*
X39607108Y-36932157D01*
X39630173Y-36941898D01*
X39675780Y-36966644D01*
X39737551Y-37002787D01*
X39809109Y-37046719D01*
X40000303Y-37159399D01*
X40329502Y-37321641D01*
X40670498Y-37451318D01*
X41022211Y-37548045D01*
X41383561Y-37611433D01*
X41403027Y-37613735D01*
X41509132Y-37622324D01*
X41637964Y-37627958D01*
X41779956Y-37630634D01*
X41925543Y-37630348D01*
X42065160Y-37627099D01*
X42189240Y-37620884D01*
X42288219Y-37611698D01*
X42430442Y-37590800D01*
X42781754Y-37515755D01*
X43121427Y-37409740D01*
X43447496Y-37274113D01*
X43757999Y-37110230D01*
X44050973Y-36919448D01*
X44324455Y-36703124D01*
X44576482Y-36462616D01*
X44805092Y-36199280D01*
X45008322Y-35914473D01*
X45184208Y-35609553D01*
X45191359Y-35595711D01*
X45238472Y-35510436D01*
X45277614Y-35453651D01*
X45312556Y-35421762D01*
X45347072Y-35411175D01*
X45384931Y-35418296D01*
G37*
G36*
X43828634Y-36271747D02*
G01*
X43882294Y-36299082D01*
X43921682Y-36344006D01*
X43940250Y-36403251D01*
X43931451Y-36473548D01*
X43908696Y-36519128D01*
X43858994Y-36564906D01*
X43797045Y-36585093D01*
X43731391Y-36577512D01*
X43670574Y-36539988D01*
X43624450Y-36495798D01*
X43193471Y-36517017D01*
X42762493Y-36538236D01*
X42416623Y-36860509D01*
X42393070Y-36882466D01*
X42294537Y-36974722D01*
X42218275Y-37047236D01*
X42161469Y-37103107D01*
X42121305Y-37145432D01*
X42094966Y-37177312D01*
X42079638Y-37201845D01*
X42072505Y-37222130D01*
X42070753Y-37241268D01*
X42064350Y-37299406D01*
X42034741Y-37355651D01*
X41978048Y-37393886D01*
X41940578Y-37410224D01*
X41916737Y-37416198D01*
X41892684Y-37410721D01*
X41852103Y-37393777D01*
X41816812Y-37374186D01*
X41770203Y-37322160D01*
X41751694Y-37256738D01*
X41764595Y-37185784D01*
X41765160Y-37184441D01*
X41800438Y-37128411D01*
X41851644Y-37097868D01*
X41926082Y-37088406D01*
X41936358Y-37088105D01*
X41957210Y-37084895D01*
X41980094Y-37076033D01*
X42008327Y-37058909D01*
X42045226Y-37030909D01*
X42094109Y-36989422D01*
X42158294Y-36931836D01*
X42241097Y-36855539D01*
X42345837Y-36757919D01*
X42353410Y-36750850D01*
X42446846Y-36664648D01*
X42533377Y-36586623D01*
X42609345Y-36519938D01*
X42671090Y-36467756D01*
X42714954Y-36433240D01*
X42737276Y-36419553D01*
X42751192Y-36417733D01*
X42798179Y-36413826D01*
X42871182Y-36408925D01*
X42964861Y-36403358D01*
X43073873Y-36397454D01*
X43192877Y-36391542D01*
X43226852Y-36389924D01*
X43350440Y-36383858D01*
X43444765Y-36378605D01*
X43514274Y-36373565D01*
X43563413Y-36368141D01*
X43596630Y-36361732D01*
X43618370Y-36353741D01*
X43633079Y-36343568D01*
X43645205Y-36330614D01*
X43647481Y-36327969D01*
X43704681Y-36282921D01*
X43767247Y-36265270D01*
X43828634Y-36271747D01*
G37*
G36*
X42060534Y-36177628D02*
G01*
X42114921Y-36207608D01*
X42154063Y-36255176D01*
X42173315Y-36313909D01*
X42168034Y-36377387D01*
X42133575Y-36439187D01*
X42110240Y-36462678D01*
X42070920Y-36482847D01*
X42013720Y-36488977D01*
X41999757Y-36489384D01*
X41976585Y-36491903D01*
X41953436Y-36499036D01*
X41926679Y-36513523D01*
X41892681Y-36538101D01*
X41847812Y-36575509D01*
X41788438Y-36628483D01*
X41710929Y-36699763D01*
X41611651Y-36792085D01*
X41597122Y-36805629D01*
X41498444Y-36898244D01*
X41422553Y-36971031D01*
X41366677Y-37026991D01*
X41328043Y-37069125D01*
X41303880Y-37100435D01*
X41291415Y-37123921D01*
X41287877Y-37142583D01*
X41279679Y-37201985D01*
X41246631Y-37266462D01*
X41192613Y-37308370D01*
X41128424Y-37324065D01*
X41064676Y-37308858D01*
X41003282Y-37259662D01*
X40976943Y-37227745D01*
X40961362Y-37190274D01*
X40963582Y-37143891D01*
X40967025Y-37126476D01*
X40996174Y-37062711D01*
X41049477Y-37022032D01*
X41129559Y-37002195D01*
X41141400Y-37000824D01*
X41167132Y-36996232D01*
X41192307Y-36987512D01*
X41220626Y-36971848D01*
X41255789Y-36946426D01*
X41301498Y-36908430D01*
X41361455Y-36855045D01*
X41439359Y-36783457D01*
X41538913Y-36690850D01*
X41592632Y-36640607D01*
X41684870Y-36553149D01*
X41754460Y-36485027D01*
X41803724Y-36433765D01*
X41834984Y-36396889D01*
X41850561Y-36371927D01*
X41852776Y-36356403D01*
X41852321Y-36316460D01*
X41872243Y-36263553D01*
X41906907Y-36215065D01*
X41949044Y-36184012D01*
X41995544Y-36171658D01*
X42060534Y-36177628D01*
G37*
G36*
X42412452Y-35088823D02*
G01*
X42425119Y-35093487D01*
X42481734Y-35131353D01*
X42513684Y-35183405D01*
X42522370Y-35242348D01*
X42509193Y-35300890D01*
X42475553Y-35351735D01*
X42422851Y-35387592D01*
X42352485Y-35401164D01*
X42343461Y-35401370D01*
X42328929Y-35403308D01*
X42312590Y-35408718D01*
X42292492Y-35419308D01*
X42266681Y-35436784D01*
X42233205Y-35462854D01*
X42190113Y-35499223D01*
X42135451Y-35547599D01*
X42067267Y-35609688D01*
X41983609Y-35687197D01*
X41882525Y-35781833D01*
X41762062Y-35895303D01*
X41620267Y-36029314D01*
X41455188Y-36185571D01*
X41341607Y-36293139D01*
X41192608Y-36434388D01*
X41065886Y-36554834D01*
X40959640Y-36656326D01*
X40872065Y-36740713D01*
X40801361Y-36809846D01*
X40745725Y-36865573D01*
X40703355Y-36909744D01*
X40672447Y-36944208D01*
X40651201Y-36970816D01*
X40637814Y-36991416D01*
X40630483Y-37007858D01*
X40627406Y-37021991D01*
X40626781Y-37035665D01*
X40617240Y-37094640D01*
X40580915Y-37147217D01*
X40546347Y-37174068D01*
X40483585Y-37194600D01*
X40421051Y-37187850D01*
X40366626Y-37157083D01*
X40328193Y-37105561D01*
X40313630Y-37036547D01*
X40317525Y-37001009D01*
X40341664Y-36941546D01*
X40381659Y-36897117D01*
X40430271Y-36877588D01*
X40458431Y-36875750D01*
X40505977Y-36873239D01*
X40519845Y-36867887D01*
X40546952Y-36849701D01*
X40587781Y-36817405D01*
X40643735Y-36769734D01*
X40716223Y-36705421D01*
X40806648Y-36623202D01*
X40916417Y-36521809D01*
X41046935Y-36399979D01*
X41199607Y-36256444D01*
X41375840Y-36089939D01*
X41477458Y-35993735D01*
X41627871Y-35851202D01*
X41755878Y-35729591D01*
X41863286Y-35627050D01*
X41951905Y-35541722D01*
X42023543Y-35471755D01*
X42080007Y-35415293D01*
X42123107Y-35370482D01*
X42154650Y-35335469D01*
X42176445Y-35308399D01*
X42190300Y-35287417D01*
X42198024Y-35270669D01*
X42201424Y-35256301D01*
X42202310Y-35242459D01*
X42204542Y-35215984D01*
X42229627Y-35149306D01*
X42277120Y-35102611D01*
X42340302Y-35080813D01*
X42412452Y-35088823D01*
G37*
G36*
X43916958Y-33764882D02*
G01*
X43966838Y-33799539D01*
X44000922Y-33858698D01*
X44008454Y-33920540D01*
X43990893Y-33984034D01*
X43952083Y-34035724D01*
X43897927Y-34068007D01*
X43834329Y-34073280D01*
X43824084Y-34072096D01*
X43806358Y-34073492D01*
X43785467Y-34081324D01*
X43758254Y-34098090D01*
X43721559Y-34126285D01*
X43672224Y-34168407D01*
X43607090Y-34226952D01*
X43522998Y-34304416D01*
X43416789Y-34403297D01*
X43402267Y-34416843D01*
X43307879Y-34504564D01*
X43220898Y-34584867D01*
X43144917Y-34654473D01*
X43083529Y-34710104D01*
X43040327Y-34748482D01*
X43018904Y-34766328D01*
X43016288Y-34767844D01*
X42981034Y-34778278D01*
X42913809Y-34790846D01*
X42816953Y-34805196D01*
X42692803Y-34820977D01*
X42543698Y-34837836D01*
X42103287Y-34885164D01*
X41156267Y-35780644D01*
X41088127Y-35845088D01*
X40918326Y-36005845D01*
X40771631Y-36145061D01*
X40646385Y-36264400D01*
X40540929Y-36365523D01*
X40453603Y-36450092D01*
X40382749Y-36519770D01*
X40326707Y-36576219D01*
X40283820Y-36621101D01*
X40252427Y-36656078D01*
X40230871Y-36682813D01*
X40217492Y-36702968D01*
X40210631Y-36718205D01*
X40208630Y-36730186D01*
X40203927Y-36771906D01*
X40173831Y-36841650D01*
X40120345Y-36891156D01*
X40094131Y-36902343D01*
X40032297Y-36905709D01*
X39972280Y-36884065D01*
X39922262Y-36843139D01*
X39890425Y-36788661D01*
X39884952Y-36726357D01*
X39888493Y-36708522D01*
X39917705Y-36644951D01*
X39971046Y-36604424D01*
X40051190Y-36584661D01*
X40136695Y-36575480D01*
X41054723Y-35705617D01*
X41183729Y-35583508D01*
X41329812Y-35445554D01*
X41467755Y-35315625D01*
X41595421Y-35195715D01*
X41710677Y-35087818D01*
X41811389Y-34993928D01*
X41895422Y-34916038D01*
X41960641Y-34856141D01*
X42004912Y-34816232D01*
X42026102Y-34798304D01*
X42029513Y-34795981D01*
X42051797Y-34783974D01*
X42082343Y-34773349D01*
X42125548Y-34763348D01*
X42185811Y-34753214D01*
X42267530Y-34742188D01*
X42375104Y-34729514D01*
X42512930Y-34714434D01*
X42946407Y-34668013D01*
X43063212Y-34560513D01*
X43114767Y-34513067D01*
X43248874Y-34389600D01*
X43360241Y-34286816D01*
X43450983Y-34202552D01*
X43523213Y-34134643D01*
X43579044Y-34080924D01*
X43620590Y-34039230D01*
X43649964Y-34007398D01*
X43669280Y-33983262D01*
X43680651Y-33964658D01*
X43686191Y-33949422D01*
X43688014Y-33935389D01*
X43688231Y-33920394D01*
X43688704Y-33908220D01*
X43706956Y-33842185D01*
X43746281Y-33793380D01*
X43799306Y-33763257D01*
X43858656Y-33753273D01*
X43916958Y-33764882D01*
G37*
G36*
X40546037Y-30152006D02*
G01*
X40642122Y-30172062D01*
X40858692Y-30225209D01*
X41296046Y-30358975D01*
X41725085Y-30525936D01*
X42143907Y-30725312D01*
X42550609Y-30956320D01*
X42622371Y-31000863D01*
X42702412Y-31051826D01*
X42775795Y-31100606D01*
X42851073Y-31153060D01*
X42936801Y-31215043D01*
X43041532Y-31292413D01*
X43168544Y-31386806D01*
X43206806Y-31351981D01*
X43256449Y-31314821D01*
X43341186Y-31281774D01*
X43428417Y-31281355D01*
X43512980Y-31314201D01*
X43572125Y-31350258D01*
X43696060Y-31227150D01*
X43705354Y-31217897D01*
X43754674Y-31169022D01*
X43795528Y-31132560D01*
X43831245Y-31110172D01*
X43865155Y-31103517D01*
X43900588Y-31114258D01*
X43940873Y-31144054D01*
X43989339Y-31194565D01*
X44049316Y-31267451D01*
X44124135Y-31364375D01*
X44217123Y-31486994D01*
X44222791Y-31494468D01*
X44298842Y-31595202D01*
X44367834Y-31687390D01*
X44426954Y-31767210D01*
X44473389Y-31830842D01*
X44504327Y-31874465D01*
X44516955Y-31894260D01*
X44519005Y-31912987D01*
X44503698Y-31959748D01*
X44467270Y-32016425D01*
X44413882Y-32075691D01*
X44353221Y-32133984D01*
X44396595Y-32197471D01*
X44422437Y-32250047D01*
X44435460Y-32334557D01*
X44421483Y-32421253D01*
X44381063Y-32499286D01*
X44336698Y-32557451D01*
X44457526Y-32722356D01*
X44464114Y-32731367D01*
X44660580Y-33018563D01*
X44849192Y-33329154D01*
X45023633Y-33652132D01*
X45177580Y-33976489D01*
X45213748Y-34062738D01*
X45259858Y-34182336D01*
X45307757Y-34315378D01*
X45355881Y-34456752D01*
X45402664Y-34601350D01*
X45446543Y-34744059D01*
X45485952Y-34879770D01*
X45519327Y-35003372D01*
X45545104Y-35109755D01*
X45561717Y-35193808D01*
X45567603Y-35250421D01*
X45566779Y-35258771D01*
X45546869Y-35288728D01*
X45511496Y-35301957D01*
X45475578Y-35291758D01*
X45462498Y-35278726D01*
X45430365Y-35240784D01*
X45387553Y-35186471D01*
X45339706Y-35122808D01*
X45279597Y-35042287D01*
X45144332Y-34868060D01*
X44988777Y-34675415D01*
X44816145Y-34468087D01*
X44629645Y-34249814D01*
X44432488Y-34024330D01*
X44227885Y-33795372D01*
X44019047Y-33566676D01*
X43809185Y-33341977D01*
X43679900Y-33205186D01*
X43605197Y-33244124D01*
X43596051Y-33248686D01*
X43506978Y-33273746D01*
X43418405Y-33266278D01*
X43337344Y-33226737D01*
X43287084Y-33189578D01*
X43116838Y-33351570D01*
X43100860Y-33366801D01*
X43054174Y-33411397D01*
X42984906Y-33477632D01*
X42894671Y-33563962D01*
X42785082Y-33668839D01*
X42657754Y-33790720D01*
X42514301Y-33928057D01*
X42356336Y-34079306D01*
X42185476Y-34242922D01*
X42003332Y-34417358D01*
X41811521Y-34601069D01*
X41611655Y-34792509D01*
X41405349Y-34990134D01*
X41194218Y-35192397D01*
X41046995Y-35333384D01*
X40843354Y-35528205D01*
X40647366Y-35715481D01*
X40460485Y-35893833D01*
X40284163Y-36061882D01*
X40119855Y-36218248D01*
X39969015Y-36361551D01*
X39833097Y-36490413D01*
X39713555Y-36603454D01*
X39611841Y-36699294D01*
X39529411Y-36776554D01*
X39467719Y-36833854D01*
X39428217Y-36869815D01*
X39412360Y-36883058D01*
X39374334Y-36895103D01*
X39333088Y-36897775D01*
X39289978Y-36886357D01*
X39240824Y-36858405D01*
X39181444Y-36811475D01*
X39107658Y-36743122D01*
X39015286Y-36650902D01*
X38996063Y-36631246D01*
X38916812Y-36547444D01*
X38860598Y-36481278D01*
X38824852Y-36428311D01*
X38807010Y-36384105D01*
X38804503Y-36344223D01*
X38814765Y-36304226D01*
X38816688Y-36301250D01*
X38838057Y-36276070D01*
X38881776Y-36227664D01*
X38946523Y-36157430D01*
X39030975Y-36066767D01*
X39133809Y-35957073D01*
X39253703Y-35829748D01*
X39389335Y-35686189D01*
X39539380Y-35527795D01*
X39702518Y-35355965D01*
X39877425Y-35172097D01*
X40062778Y-34977590D01*
X40257255Y-34773843D01*
X40459534Y-34562254D01*
X40668292Y-34344222D01*
X40741671Y-34267629D01*
X40947885Y-34052249D01*
X41146983Y-33844107D01*
X41337659Y-33644578D01*
X41518606Y-33455035D01*
X41688519Y-33276854D01*
X41846092Y-33111407D01*
X41990017Y-32960069D01*
X42118991Y-32824214D01*
X42231705Y-32705216D01*
X42326855Y-32604450D01*
X42403134Y-32523288D01*
X42459236Y-32463106D01*
X42493855Y-32425277D01*
X42505685Y-32411176D01*
X42501520Y-32399340D01*
X42479714Y-32374145D01*
X42474787Y-32369201D01*
X42453286Y-32333204D01*
X42435245Y-32283896D01*
X42428068Y-32206764D01*
X42444644Y-32125519D01*
X42482612Y-32058610D01*
X42482940Y-32058229D01*
X42488755Y-32046555D01*
X42485856Y-32031043D01*
X42471403Y-32008436D01*
X42442553Y-31975475D01*
X42396464Y-31928903D01*
X42330294Y-31865463D01*
X42241200Y-31781896D01*
X42162225Y-31708435D01*
X41828848Y-31403737D01*
X41511242Y-31122423D01*
X41210695Y-30865597D01*
X40928493Y-30634365D01*
X40665924Y-30429831D01*
X40603062Y-30381662D01*
X40518262Y-30314052D01*
X40454578Y-30259618D01*
X40414526Y-30220545D01*
X40400616Y-30199022D01*
X40401349Y-30184667D01*
X40410858Y-30158533D01*
X40435048Y-30144723D01*
X40478560Y-30142721D01*
X40546037Y-30152006D01*
G37*
G36*
X40593097Y-31408744D02*
G01*
X40670349Y-31417566D01*
X40749116Y-31430781D01*
X40820532Y-31447046D01*
X40875735Y-31465018D01*
X40905859Y-31483353D01*
X40907731Y-31486099D01*
X40922039Y-31518654D01*
X40942987Y-31578100D01*
X40968756Y-31658784D01*
X40997525Y-31755048D01*
X41027475Y-31861237D01*
X41035734Y-31891349D01*
X41066146Y-32000799D01*
X41089959Y-32082415D01*
X41109012Y-32140908D01*
X41125142Y-32180989D01*
X41140185Y-32207367D01*
X41155980Y-32224755D01*
X41174363Y-32237862D01*
X41205150Y-32255882D01*
X41236234Y-32269177D01*
X41269084Y-32274570D01*
X41308735Y-32271092D01*
X41360223Y-32257776D01*
X41428584Y-32233654D01*
X41518854Y-32197758D01*
X41636067Y-32149120D01*
X41663718Y-32137609D01*
X41764215Y-32096592D01*
X41854028Y-32061171D01*
X41927830Y-32033367D01*
X41980296Y-32015203D01*
X42006096Y-32008699D01*
X42030152Y-32018732D01*
X42072619Y-32049425D01*
X42125718Y-32094776D01*
X42183193Y-32148666D01*
X42238785Y-32204974D01*
X42286240Y-32257580D01*
X42319301Y-32300366D01*
X42331712Y-32327211D01*
X42330909Y-32332034D01*
X42322280Y-32349301D01*
X42302954Y-32376345D01*
X42271402Y-32414826D01*
X42226092Y-32466409D01*
X42165494Y-32532753D01*
X42088078Y-32615523D01*
X41992314Y-32716380D01*
X41876672Y-32836986D01*
X41739619Y-32979004D01*
X41579628Y-33144096D01*
X41533089Y-33191823D01*
X41441151Y-33284252D01*
X41369496Y-33353096D01*
X41316200Y-33400094D01*
X41279340Y-33426983D01*
X41256992Y-33435500D01*
X41256680Y-33435496D01*
X41222188Y-33422599D01*
X41170988Y-33387606D01*
X41109116Y-33334635D01*
X40954176Y-33204596D01*
X40800051Y-33105180D01*
X40644605Y-33036371D01*
X40483808Y-32996391D01*
X40313630Y-32983460D01*
X40224424Y-32986803D01*
X40039627Y-33017393D01*
X39867274Y-33080241D01*
X39706463Y-33175729D01*
X39556294Y-33304240D01*
X39442863Y-33432975D01*
X39344780Y-33586959D01*
X39279044Y-33751269D01*
X39244537Y-33928805D01*
X39240137Y-34122466D01*
X39255618Y-34267439D01*
X39296230Y-34427068D01*
X39363320Y-34576237D01*
X39459479Y-34720486D01*
X39587294Y-34865354D01*
X39632728Y-34913181D01*
X39679006Y-34965987D01*
X39710497Y-35006923D01*
X39722123Y-35029794D01*
X39721041Y-35035953D01*
X39715493Y-35047323D01*
X39703604Y-35064317D01*
X39683577Y-35088862D01*
X39653614Y-35122883D01*
X39611920Y-35168309D01*
X39556696Y-35227066D01*
X39486147Y-35301081D01*
X39398473Y-35392280D01*
X39291880Y-35502591D01*
X39164569Y-35633940D01*
X39014743Y-35788254D01*
X38937824Y-35866952D01*
X38839494Y-35965527D01*
X38762121Y-36040100D01*
X38704402Y-36091875D01*
X38665032Y-36122057D01*
X38642707Y-36131849D01*
X38618493Y-36122337D01*
X38575319Y-36092230D01*
X38521461Y-36047417D01*
X38463235Y-35993965D01*
X38406955Y-35937940D01*
X38358937Y-35885407D01*
X38325496Y-35842433D01*
X38312945Y-35815083D01*
X38313404Y-35811162D01*
X38322490Y-35777855D01*
X38341805Y-35718916D01*
X38369490Y-35639695D01*
X38403688Y-35545543D01*
X38442543Y-35441809D01*
X38572140Y-35100774D01*
X38531019Y-35019625D01*
X38489898Y-34938476D01*
X38127415Y-34854726D01*
X38127045Y-34854641D01*
X38005588Y-34825549D01*
X37901567Y-34798592D01*
X37819149Y-34774965D01*
X37762499Y-34755861D01*
X37735784Y-34742474D01*
X37730656Y-34735395D01*
X37715026Y-34696197D01*
X37698176Y-34634956D01*
X37681833Y-34560847D01*
X37667726Y-34483043D01*
X37657580Y-34410717D01*
X37653124Y-34353042D01*
X37656085Y-34319193D01*
X37659088Y-34314960D01*
X37685648Y-34291571D01*
X37735471Y-34253710D01*
X37804129Y-34204571D01*
X37887194Y-34147352D01*
X37980236Y-34085247D01*
X38081550Y-34017450D01*
X38171604Y-33954523D01*
X38240442Y-33903263D01*
X38285217Y-33865792D01*
X38303084Y-33844237D01*
X38303322Y-33843331D01*
X38309761Y-33800882D01*
X38312369Y-33748425D01*
X38310682Y-33728841D01*
X38302777Y-33703618D01*
X38285768Y-33672480D01*
X38256808Y-33631446D01*
X38213054Y-33576537D01*
X38151659Y-33503774D01*
X38069777Y-33409178D01*
X38009273Y-33338930D01*
X37931372Y-33245202D01*
X37874147Y-33171640D01*
X37838804Y-33119823D01*
X37826554Y-33091331D01*
X37833642Y-33059724D01*
X37854146Y-33005789D01*
X37883756Y-32939202D01*
X37918133Y-32868829D01*
X37952939Y-32803535D01*
X37983836Y-32752188D01*
X38006483Y-32723654D01*
X38008125Y-32722412D01*
X38026336Y-32715304D01*
X38059532Y-32710564D01*
X38111665Y-32708094D01*
X38186687Y-32707795D01*
X38288549Y-32709569D01*
X38421203Y-32713317D01*
X38808767Y-32725517D01*
X38865163Y-32666532D01*
X38921560Y-32607546D01*
X38889513Y-32234184D01*
X38889255Y-32231180D01*
X38879412Y-32106505D01*
X38872651Y-32000048D01*
X38869145Y-31915903D01*
X38869065Y-31858161D01*
X38872583Y-31830917D01*
X38877212Y-31824680D01*
X38908625Y-31798991D01*
X38960693Y-31764963D01*
X39025267Y-31727066D01*
X39094196Y-31689774D01*
X39159332Y-31657556D01*
X39212524Y-31634886D01*
X39245623Y-31626234D01*
X39248339Y-31626593D01*
X39277859Y-31640950D01*
X39329568Y-31674271D01*
X39399580Y-31723825D01*
X39484013Y-31786879D01*
X39578980Y-31860700D01*
X39875618Y-32095442D01*
X39953454Y-32084773D01*
X39975006Y-32081495D01*
X40021408Y-32072031D01*
X40047351Y-32063148D01*
X40049177Y-32061353D01*
X40066731Y-32036991D01*
X40098521Y-31988572D01*
X40141609Y-31920707D01*
X40193059Y-31838008D01*
X40249932Y-31745088D01*
X40263277Y-31723170D01*
X40320102Y-31631054D01*
X40371586Y-31549463D01*
X40414602Y-31483231D01*
X40446022Y-31437194D01*
X40462717Y-31416187D01*
X40478591Y-31409654D01*
X40526223Y-31405659D01*
X40593097Y-31408744D01*
G37*
G36*
X44481119Y-35722896D02*
G01*
X44532237Y-35754274D01*
X44568045Y-35802343D01*
X44582146Y-35863051D01*
X44568145Y-35932347D01*
X44533575Y-35983670D01*
X44477765Y-36019662D01*
X44413086Y-36031323D01*
X44348990Y-36017154D01*
X44294929Y-35975655D01*
X44266159Y-35940763D01*
X43444516Y-35976034D01*
X42622873Y-36011305D01*
X42574696Y-36062879D01*
X42540383Y-36092133D01*
X42476482Y-36115745D01*
X42410463Y-36106240D01*
X42347771Y-36063599D01*
X42323354Y-36034196D01*
X42296892Y-35969619D01*
X42300979Y-35905399D01*
X42334235Y-35848968D01*
X42395280Y-35807760D01*
X42454700Y-35792160D01*
X42514617Y-35802868D01*
X42575274Y-35845304D01*
X42618767Y-35885398D01*
X43436438Y-35850592D01*
X44254109Y-35815787D01*
X44304016Y-35765051D01*
X44358531Y-35726411D01*
X44421085Y-35712258D01*
X44481119Y-35722896D01*
G37*
G36*
X44970374Y-34941236D02*
G01*
X45029626Y-34982292D01*
X45056379Y-35015635D01*
X45080124Y-35079504D01*
X45075770Y-35142705D01*
X45046259Y-35197722D01*
X44994535Y-35237043D01*
X44923541Y-35253151D01*
X44890239Y-35255397D01*
X44853673Y-35266075D01*
X44818707Y-35291384D01*
X44773918Y-35337786D01*
X44743759Y-35369141D01*
X44690603Y-35410971D01*
X44641824Y-35428274D01*
X44632408Y-35429231D01*
X44588412Y-35432415D01*
X44515465Y-35436930D01*
X44417544Y-35442555D01*
X44298629Y-35449071D01*
X44162694Y-35456258D01*
X44013719Y-35463895D01*
X43855680Y-35471763D01*
X43126703Y-35507524D01*
X43078871Y-35558728D01*
X43034094Y-35593423D01*
X42971308Y-35612185D01*
X42908786Y-35605644D01*
X42854391Y-35576550D01*
X42815987Y-35527653D01*
X42801438Y-35461702D01*
X42808691Y-35397049D01*
X42837950Y-35342359D01*
X42892759Y-35306128D01*
X42893355Y-35305879D01*
X42961538Y-35293687D01*
X43028723Y-35308548D01*
X43081623Y-35347548D01*
X43083837Y-35350193D01*
X43091568Y-35357817D01*
X43102473Y-35363854D01*
X43119709Y-35368293D01*
X43146435Y-35371124D01*
X43185809Y-35372338D01*
X43240989Y-35371925D01*
X43315132Y-35369875D01*
X43411396Y-35366178D01*
X43532941Y-35360824D01*
X43682922Y-35353803D01*
X43864500Y-35345106D01*
X44619452Y-35308816D01*
X44694166Y-35237558D01*
X44733795Y-35196413D01*
X44757482Y-35159500D01*
X44759592Y-35129220D01*
X44757341Y-35117024D01*
X44763856Y-35055679D01*
X44793033Y-34997261D01*
X44837940Y-34957006D01*
X44906192Y-34933762D01*
X44970374Y-34941236D01*
G37*
G36*
X38192000Y-34970086D02*
G01*
X38223577Y-35009749D01*
X38257495Y-35076497D01*
X38296706Y-35173690D01*
X38320309Y-35237177D01*
X38343530Y-35301911D01*
X38359314Y-35348667D01*
X38365137Y-35370197D01*
X38364947Y-35371813D01*
X38351223Y-35395276D01*
X38322434Y-35428051D01*
X38292214Y-35453621D01*
X38251958Y-35468795D01*
X38214176Y-35456444D01*
X38176841Y-35414867D01*
X38137930Y-35342359D01*
X38095414Y-35237219D01*
X38085022Y-35208576D01*
X38057513Y-35122830D01*
X38046119Y-35061024D01*
X38051181Y-35017579D01*
X38073035Y-34986917D01*
X38112021Y-34963457D01*
X38124064Y-34958577D01*
X38159813Y-34954148D01*
X38192000Y-34970086D01*
G37*
G36*
X44128097Y-34227522D02*
G01*
X44173582Y-34258041D01*
X44240775Y-34314205D01*
X44330157Y-34396390D01*
X44343557Y-34409073D01*
X44414230Y-34475193D01*
X44465776Y-34520992D01*
X44503160Y-34549919D01*
X44531343Y-34565421D01*
X44555289Y-34570948D01*
X44579962Y-34569946D01*
X44634585Y-34573977D01*
X44693310Y-34604573D01*
X44734437Y-34656745D01*
X44749931Y-34723248D01*
X44745821Y-34765442D01*
X44717663Y-34830069D01*
X44666381Y-34872135D01*
X44596183Y-34887155D01*
X44558079Y-34883928D01*
X44493050Y-34857142D01*
X44451164Y-34805727D01*
X44435547Y-34732687D01*
X44434430Y-34709925D01*
X44428498Y-34682219D01*
X44413659Y-34654217D01*
X44385701Y-34620143D01*
X44340411Y-34574225D01*
X44273576Y-34510688D01*
X44112839Y-34359596D01*
X43841521Y-34610777D01*
X43835779Y-34616096D01*
X43743320Y-34702595D01*
X43674305Y-34769330D01*
X43626064Y-34819209D01*
X43595931Y-34855144D01*
X43581239Y-34880044D01*
X43579320Y-34896819D01*
X43581741Y-34913212D01*
X43571913Y-34968958D01*
X43542072Y-35023694D01*
X43499276Y-35062784D01*
X43498907Y-35062991D01*
X43432761Y-35082631D01*
X43366885Y-35073697D01*
X43309568Y-35040919D01*
X43269099Y-34989023D01*
X43253767Y-34922740D01*
X43257612Y-34885110D01*
X43286772Y-34822743D01*
X43340778Y-34781463D01*
X43415097Y-34765683D01*
X43415673Y-34765672D01*
X43441629Y-34764348D01*
X43465414Y-34759541D01*
X43490972Y-34748358D01*
X43522248Y-34727905D01*
X43563186Y-34695289D01*
X43617732Y-34647617D01*
X43689829Y-34581995D01*
X43783423Y-34495531D01*
X43826180Y-34456203D01*
X43908287Y-34382230D01*
X43981469Y-34318292D01*
X44041638Y-34267860D01*
X44084704Y-34234400D01*
X44106581Y-34221382D01*
X44128097Y-34227522D01*
G37*
G36*
X42048585Y-29881507D02*
G01*
X42191555Y-29888747D01*
X42314315Y-29901450D01*
X42618713Y-29954818D01*
X42986154Y-30048976D01*
X43337544Y-30172748D01*
X43671632Y-30325239D01*
X43987171Y-30505556D01*
X44282909Y-30712806D01*
X44557596Y-30946095D01*
X44809984Y-31204531D01*
X45038821Y-31487219D01*
X45242858Y-31793267D01*
X45420846Y-32121781D01*
X45527762Y-32359328D01*
X45646724Y-32685064D01*
X45734515Y-33015090D01*
X45792663Y-33355458D01*
X45822698Y-33712223D01*
X45825528Y-33840224D01*
X45821389Y-34028007D01*
X45808887Y-34220108D01*
X45788932Y-34403642D01*
X45762433Y-34565726D01*
X45746040Y-34640256D01*
X45730844Y-34688611D01*
X45713951Y-34717172D01*
X45692264Y-34733337D01*
X45655713Y-34745118D01*
X45601197Y-34736990D01*
X45557293Y-34696558D01*
X45552006Y-34687900D01*
X45542852Y-34663929D01*
X45540770Y-34631664D01*
X45545792Y-34582520D01*
X45557945Y-34507912D01*
X45570027Y-34434325D01*
X45607557Y-34078817D01*
X45611188Y-33724319D01*
X45581630Y-33373060D01*
X45519592Y-33027274D01*
X45425781Y-32689191D01*
X45300908Y-32361044D01*
X45145680Y-32045063D01*
X44960807Y-31743481D01*
X44746997Y-31458529D01*
X44504959Y-31192438D01*
X44501020Y-31188505D01*
X44234027Y-30946581D01*
X43946874Y-30732430D01*
X43641598Y-30547040D01*
X43320234Y-30391398D01*
X42984818Y-30266493D01*
X42637387Y-30173312D01*
X42279977Y-30112844D01*
X42274125Y-30112151D01*
X42163236Y-30102977D01*
X42028137Y-30097527D01*
X41878597Y-30095700D01*
X41724381Y-30097395D01*
X41575260Y-30102511D01*
X41441000Y-30110949D01*
X41331370Y-30122607D01*
X41289051Y-30128580D01*
X41184314Y-30143395D01*
X41107614Y-30153757D01*
X41054107Y-30159654D01*
X41018948Y-30161077D01*
X40997293Y-30158014D01*
X40984296Y-30150457D01*
X40975112Y-30138393D01*
X40964897Y-30121813D01*
X40950942Y-30094784D01*
X40945773Y-30040070D01*
X40972002Y-29993918D01*
X41027318Y-29962234D01*
X41043597Y-29957241D01*
X41140810Y-29935088D01*
X41264619Y-29916186D01*
X41408339Y-29900852D01*
X41565282Y-29889401D01*
X41728762Y-29882149D01*
X41892092Y-29879413D01*
X42048585Y-29881507D01*
G37*
G36*
X40452408Y-33488559D02*
G01*
X40482762Y-33506474D01*
X40530790Y-33542977D01*
X40590950Y-33593672D01*
X40657703Y-33654166D01*
X40693881Y-33688392D01*
X40760356Y-33754138D01*
X40804128Y-33802974D01*
X40828192Y-33838437D01*
X40835548Y-33864065D01*
X40835219Y-33867861D01*
X40825458Y-33891303D01*
X40800683Y-33927434D01*
X40758918Y-33978582D01*
X40698190Y-34047071D01*
X40616526Y-34135228D01*
X40511951Y-34245379D01*
X40453836Y-34305887D01*
X40361918Y-34400259D01*
X40289512Y-34472335D01*
X40234132Y-34524404D01*
X40193294Y-34558759D01*
X40164514Y-34577692D01*
X40145305Y-34583493D01*
X40120002Y-34576286D01*
X40075522Y-34548428D01*
X40012825Y-34497949D01*
X39929542Y-34423084D01*
X39914289Y-34408844D01*
X39851761Y-34348835D01*
X39799973Y-34296571D01*
X39763951Y-34257249D01*
X39748717Y-34236064D01*
X39748033Y-34230283D01*
X39751947Y-34193356D01*
X39763411Y-34132795D01*
X39780568Y-34055807D01*
X39801561Y-33969599D01*
X39824533Y-33881376D01*
X39847628Y-33798346D01*
X39868988Y-33727716D01*
X39886758Y-33676691D01*
X39899079Y-33652479D01*
X39919921Y-33641813D01*
X39968308Y-33623599D01*
X40036334Y-33600677D01*
X40116688Y-33575249D01*
X40202061Y-33549512D01*
X40285143Y-33525665D01*
X40358624Y-33505910D01*
X40415194Y-33492443D01*
X40447543Y-33487466D01*
X40452408Y-33488559D01*
G37*
G36*
X43450750Y-33383127D02*
G01*
X43511877Y-33393401D01*
X43559010Y-33425785D01*
X43562351Y-33429201D01*
X43592863Y-33476835D01*
X43601712Y-33539658D01*
X43597877Y-33581184D01*
X43570142Y-33643718D01*
X43517353Y-33682793D01*
X43441578Y-33696385D01*
X43425948Y-33696679D01*
X43403998Y-33699354D01*
X43381255Y-33707099D01*
X43354216Y-33722598D01*
X43319376Y-33748538D01*
X43273233Y-33787604D01*
X43212284Y-33842481D01*
X43133025Y-33915857D01*
X43031952Y-34010415D01*
X42972921Y-34065788D01*
X42884876Y-34148859D01*
X42817863Y-34213309D01*
X42769016Y-34262397D01*
X42735473Y-34299382D01*
X42714369Y-34327522D01*
X42702841Y-34350075D01*
X42698024Y-34370300D01*
X42697055Y-34391456D01*
X42695857Y-34417915D01*
X42681389Y-34463193D01*
X42643528Y-34503659D01*
X42638263Y-34507916D01*
X42588014Y-34537037D01*
X42540479Y-34548699D01*
X42535576Y-34548512D01*
X42486652Y-34534287D01*
X42437431Y-34503659D01*
X42408669Y-34475995D01*
X42388794Y-34437967D01*
X42383904Y-34383425D01*
X42391639Y-34330261D01*
X42426207Y-34269858D01*
X42483312Y-34231591D01*
X42557247Y-34220810D01*
X42566155Y-34221186D01*
X42586443Y-34219842D01*
X42607963Y-34213188D01*
X42634151Y-34198569D01*
X42668441Y-34173326D01*
X42714271Y-34134805D01*
X42775076Y-34080348D01*
X42854292Y-34007299D01*
X42955354Y-33913001D01*
X43008323Y-33863423D01*
X43097488Y-33779505D01*
X43165435Y-33714357D01*
X43215039Y-33664717D01*
X43249176Y-33627321D01*
X43270720Y-33598907D01*
X43282549Y-33576211D01*
X43287538Y-33555972D01*
X43288561Y-33534925D01*
X43291782Y-33499413D01*
X43319201Y-33437180D01*
X43371555Y-33397206D01*
X43445137Y-33383082D01*
X43450750Y-33383127D01*
G37*
G36*
X37965971Y-33487495D02*
G01*
X38009351Y-33493990D01*
X38039075Y-33515267D01*
X38057451Y-33556259D01*
X38066785Y-33621899D01*
X38069383Y-33717117D01*
X38068767Y-33795857D01*
X38065807Y-33849705D01*
X38058887Y-33884896D01*
X38046384Y-33909575D01*
X38026681Y-33931887D01*
X38023103Y-33935421D01*
X37979275Y-33967801D01*
X37939322Y-33969488D01*
X37892989Y-33941197D01*
X37887665Y-33936790D01*
X37871030Y-33919692D01*
X37860915Y-33897831D01*
X37856049Y-33863705D01*
X37855162Y-33809815D01*
X37856981Y-33728661D01*
X37857403Y-33714854D01*
X37863129Y-33620295D01*
X37874377Y-33555039D01*
X37893219Y-33514323D01*
X37921728Y-33493387D01*
X37961977Y-33487466D01*
X37965971Y-33487495D01*
G37*
G36*
X40232094Y-30250340D02*
G01*
X40246095Y-30257355D01*
X40280195Y-30294443D01*
X40294624Y-30343119D01*
X40284036Y-30389097D01*
X40283322Y-30390119D01*
X40259708Y-30410000D01*
X40212422Y-30441688D01*
X40147965Y-30481035D01*
X40072840Y-30523890D01*
X39916449Y-30613482D01*
X39697997Y-30752660D01*
X39499942Y-30898583D01*
X39313682Y-31057757D01*
X39130616Y-31236689D01*
X39128249Y-31239144D01*
X38929142Y-31462798D01*
X38745911Y-31702526D01*
X38582889Y-31951712D01*
X38444408Y-32203739D01*
X38334802Y-32451992D01*
X38328579Y-32467093D01*
X38303758Y-32514356D01*
X38280007Y-32544431D01*
X38262620Y-32555202D01*
X38210984Y-32563711D01*
X38160473Y-32547316D01*
X38125275Y-32509242D01*
X38116299Y-32485185D01*
X38114813Y-32458903D01*
X38122622Y-32423266D01*
X38141373Y-32370809D01*
X38172710Y-32294066D01*
X38187517Y-32259190D01*
X38336739Y-31954959D01*
X38516899Y-31660123D01*
X38724921Y-31378226D01*
X38957726Y-31112808D01*
X39212238Y-30867413D01*
X39485378Y-30645583D01*
X39774070Y-30450860D01*
X39818955Y-30424038D01*
X39907041Y-30373654D01*
X39992761Y-30327055D01*
X40062620Y-30291686D01*
X40118959Y-30266031D01*
X40167856Y-30248308D01*
X40202603Y-30243801D01*
X40232094Y-30250340D01*
G37*
%TD*%
%LPC*%
D11*
%TO.C,J1*%
X52900000Y-18950000D03*
D12*
X55440000Y-18950000D03*
X57980000Y-18950000D03*
X60520000Y-18950000D03*
%TD*%
D13*
%TO.C,U1*%
X34630000Y-19790000D03*
X34630000Y-22330000D03*
X34630000Y-24870000D03*
X34630000Y-27410000D03*
X34630000Y-29950000D03*
X34630000Y-32490000D03*
X34630000Y-35030000D03*
X34630000Y-37570000D03*
X34630000Y-40110000D03*
X34630000Y-42650000D03*
X34630000Y-45190000D03*
X34630000Y-47730000D03*
X34630000Y-50270000D03*
X34630000Y-52810000D03*
X37170000Y-52810000D03*
X39710000Y-52810000D03*
X42250000Y-52810000D03*
X44790000Y-52810000D03*
X47330000Y-52810000D03*
X49870000Y-52810000D03*
X49870000Y-50270000D03*
X49870000Y-47730000D03*
X49870000Y-45190000D03*
X49870000Y-42650000D03*
X49870000Y-40110000D03*
X49870000Y-37570000D03*
X49870000Y-35030000D03*
X49870000Y-32490000D03*
X49870000Y-29950000D03*
X49870000Y-27410000D03*
X49870000Y-24870000D03*
X49870000Y-22330000D03*
X49870000Y-19790000D03*
X47330000Y-22330000D03*
D14*
X47330000Y-47730000D03*
X47330000Y-45190000D03*
X44790000Y-47730000D03*
X44790000Y-45190000D03*
X42250000Y-47730000D03*
X42250000Y-45190000D03*
X39710000Y-47730000D03*
X39710000Y-45190000D03*
X37170000Y-47730000D03*
X37170000Y-45190000D03*
D15*
X45750000Y-26928400D03*
X44750000Y-26928400D03*
X43750000Y-26928400D03*
X42750000Y-26928400D03*
X41750000Y-26928400D03*
X40750000Y-26928400D03*
X39750000Y-26928400D03*
X38750000Y-26928400D03*
D14*
X43520000Y-21060000D03*
X40980000Y-21060000D03*
%TD*%
%LPD*%
M02*
