%TF.GenerationSoftware,KiCad,Pcbnew,8.0.2-1*%
%TF.CreationDate,2024-05-18T17:44:33-05:00*%
%TF.ProjectId,can_test,63616e5f-7465-4737-942e-6b696361645f,rev?*%
%TF.SameCoordinates,Original*%
%TF.FileFunction,Legend,Top*%
%TF.FilePolarity,Positive*%
%FSLAX46Y46*%
G04 Gerber Fmt 4.6, Leading zero omitted, Abs format (unit mm)*
G04 Created by KiCad (PCBNEW 8.0.2-1) date 2024-05-18 17:44:33*
%MOMM*%
%LPD*%
G01*
G04 APERTURE LIST*
G04 Aperture macros list*
%AMRoundRect*
0 Rectangle with rounded corners*
0 $1 Rounding radius*
0 $2 $3 $4 $5 $6 $7 $8 $9 X,Y pos of 4 corners*
0 Add a 4 corners polygon primitive as box body*
4,1,4,$2,$3,$4,$5,$6,$7,$8,$9,$2,$3,0*
0 Add four circle primitives for the rounded corners*
1,1,$1+$1,$2,$3*
1,1,$1+$1,$4,$5*
1,1,$1+$1,$6,$7*
1,1,$1+$1,$8,$9*
0 Add four rect primitives between the rounded corners*
20,1,$1+$1,$2,$3,$4,$5,0*
20,1,$1+$1,$4,$5,$6,$7,0*
20,1,$1+$1,$6,$7,$8,$9,0*
20,1,$1+$1,$8,$9,$2,$3,0*%
G04 Aperture macros list end*
%ADD10C,0.100000*%
%ADD11C,0.150000*%
%ADD12C,0.120000*%
%ADD13RoundRect,0.250000X0.350000X0.450000X-0.350000X0.450000X-0.350000X-0.450000X0.350000X-0.450000X0*%
%ADD14R,1.700000X1.700000*%
%ADD15O,1.700000X1.700000*%
%ADD16RoundRect,0.150000X-0.150000X0.825000X-0.150000X-0.825000X0.150000X-0.825000X0.150000X0.825000X0*%
%ADD17RoundRect,0.150000X0.150000X-0.825000X0.150000X0.825000X-0.150000X0.825000X-0.150000X-0.825000X0*%
%ADD18RoundRect,0.250000X-0.337500X-0.475000X0.337500X-0.475000X0.337500X0.475000X-0.337500X0.475000X0*%
%ADD19C,1.404000*%
%ADD20C,1.304000*%
%ADD21C,0.804000*%
%ADD22RoundRect,0.250000X-0.475000X0.337500X-0.475000X-0.337500X0.475000X-0.337500X0.475000X0.337500X0*%
%ADD23RoundRect,0.250000X-0.350000X-0.450000X0.350000X-0.450000X0.350000X0.450000X-0.350000X0.450000X0*%
G04 APERTURE END LIST*
D10*
X54877693Y-20620038D02*
X54782455Y-20572419D01*
X54782455Y-20572419D02*
X54639598Y-20572419D01*
X54639598Y-20572419D02*
X54496741Y-20620038D01*
X54496741Y-20620038D02*
X54401503Y-20715276D01*
X54401503Y-20715276D02*
X54353884Y-20810514D01*
X54353884Y-20810514D02*
X54306265Y-21000990D01*
X54306265Y-21000990D02*
X54306265Y-21143847D01*
X54306265Y-21143847D02*
X54353884Y-21334323D01*
X54353884Y-21334323D02*
X54401503Y-21429561D01*
X54401503Y-21429561D02*
X54496741Y-21524800D01*
X54496741Y-21524800D02*
X54639598Y-21572419D01*
X54639598Y-21572419D02*
X54734836Y-21572419D01*
X54734836Y-21572419D02*
X54877693Y-21524800D01*
X54877693Y-21524800D02*
X54925312Y-21477180D01*
X54925312Y-21477180D02*
X54925312Y-21143847D01*
X54925312Y-21143847D02*
X54734836Y-21143847D01*
X55353884Y-21572419D02*
X55353884Y-20572419D01*
X55353884Y-20572419D02*
X55925312Y-21572419D01*
X55925312Y-21572419D02*
X55925312Y-20572419D01*
X56401503Y-21572419D02*
X56401503Y-20572419D01*
X56401503Y-20572419D02*
X56639598Y-20572419D01*
X56639598Y-20572419D02*
X56782455Y-20620038D01*
X56782455Y-20620038D02*
X56877693Y-20715276D01*
X56877693Y-20715276D02*
X56925312Y-20810514D01*
X56925312Y-20810514D02*
X56972931Y-21000990D01*
X56972931Y-21000990D02*
X56972931Y-21143847D01*
X56972931Y-21143847D02*
X56925312Y-21334323D01*
X56925312Y-21334323D02*
X56877693Y-21429561D01*
X56877693Y-21429561D02*
X56782455Y-21524800D01*
X56782455Y-21524800D02*
X56639598Y-21572419D01*
X56639598Y-21572419D02*
X56401503Y-21572419D01*
X60775312Y-21502180D02*
X60727693Y-21549800D01*
X60727693Y-21549800D02*
X60584836Y-21597419D01*
X60584836Y-21597419D02*
X60489598Y-21597419D01*
X60489598Y-21597419D02*
X60346741Y-21549800D01*
X60346741Y-21549800D02*
X60251503Y-21454561D01*
X60251503Y-21454561D02*
X60203884Y-21359323D01*
X60203884Y-21359323D02*
X60156265Y-21168847D01*
X60156265Y-21168847D02*
X60156265Y-21025990D01*
X60156265Y-21025990D02*
X60203884Y-20835514D01*
X60203884Y-20835514D02*
X60251503Y-20740276D01*
X60251503Y-20740276D02*
X60346741Y-20645038D01*
X60346741Y-20645038D02*
X60489598Y-20597419D01*
X60489598Y-20597419D02*
X60584836Y-20597419D01*
X60584836Y-20597419D02*
X60727693Y-20645038D01*
X60727693Y-20645038D02*
X60775312Y-20692657D01*
X61061027Y-20597419D02*
X61632455Y-20597419D01*
X61346741Y-21597419D02*
X61346741Y-20597419D01*
X61870551Y-20597419D02*
X62537217Y-21597419D01*
X62537217Y-20597419D02*
X61870551Y-21597419D01*
X57875312Y-21477180D02*
X57827693Y-21524800D01*
X57827693Y-21524800D02*
X57684836Y-21572419D01*
X57684836Y-21572419D02*
X57589598Y-21572419D01*
X57589598Y-21572419D02*
X57446741Y-21524800D01*
X57446741Y-21524800D02*
X57351503Y-21429561D01*
X57351503Y-21429561D02*
X57303884Y-21334323D01*
X57303884Y-21334323D02*
X57256265Y-21143847D01*
X57256265Y-21143847D02*
X57256265Y-21000990D01*
X57256265Y-21000990D02*
X57303884Y-20810514D01*
X57303884Y-20810514D02*
X57351503Y-20715276D01*
X57351503Y-20715276D02*
X57446741Y-20620038D01*
X57446741Y-20620038D02*
X57589598Y-20572419D01*
X57589598Y-20572419D02*
X57684836Y-20572419D01*
X57684836Y-20572419D02*
X57827693Y-20620038D01*
X57827693Y-20620038D02*
X57875312Y-20667657D01*
X58875312Y-21572419D02*
X58541979Y-21096228D01*
X58303884Y-21572419D02*
X58303884Y-20572419D01*
X58303884Y-20572419D02*
X58684836Y-20572419D01*
X58684836Y-20572419D02*
X58780074Y-20620038D01*
X58780074Y-20620038D02*
X58827693Y-20667657D01*
X58827693Y-20667657D02*
X58875312Y-20762895D01*
X58875312Y-20762895D02*
X58875312Y-20905752D01*
X58875312Y-20905752D02*
X58827693Y-21000990D01*
X58827693Y-21000990D02*
X58780074Y-21048609D01*
X58780074Y-21048609D02*
X58684836Y-21096228D01*
X58684836Y-21096228D02*
X58303884Y-21096228D01*
X59208646Y-20572419D02*
X59875312Y-21572419D01*
X59875312Y-20572419D02*
X59208646Y-21572419D01*
X51883646Y-20547419D02*
X52502693Y-20547419D01*
X52502693Y-20547419D02*
X52169360Y-20928371D01*
X52169360Y-20928371D02*
X52312217Y-20928371D01*
X52312217Y-20928371D02*
X52407455Y-20975990D01*
X52407455Y-20975990D02*
X52455074Y-21023609D01*
X52455074Y-21023609D02*
X52502693Y-21118847D01*
X52502693Y-21118847D02*
X52502693Y-21356942D01*
X52502693Y-21356942D02*
X52455074Y-21452180D01*
X52455074Y-21452180D02*
X52407455Y-21499800D01*
X52407455Y-21499800D02*
X52312217Y-21547419D01*
X52312217Y-21547419D02*
X52026503Y-21547419D01*
X52026503Y-21547419D02*
X51931265Y-21499800D01*
X51931265Y-21499800D02*
X51883646Y-21452180D01*
X52931265Y-21452180D02*
X52978884Y-21499800D01*
X52978884Y-21499800D02*
X52931265Y-21547419D01*
X52931265Y-21547419D02*
X52883646Y-21499800D01*
X52883646Y-21499800D02*
X52931265Y-21452180D01*
X52931265Y-21452180D02*
X52931265Y-21547419D01*
X53312217Y-20547419D02*
X53931264Y-20547419D01*
X53931264Y-20547419D02*
X53597931Y-20928371D01*
X53597931Y-20928371D02*
X53740788Y-20928371D01*
X53740788Y-20928371D02*
X53836026Y-20975990D01*
X53836026Y-20975990D02*
X53883645Y-21023609D01*
X53883645Y-21023609D02*
X53931264Y-21118847D01*
X53931264Y-21118847D02*
X53931264Y-21356942D01*
X53931264Y-21356942D02*
X53883645Y-21452180D01*
X53883645Y-21452180D02*
X53836026Y-21499800D01*
X53836026Y-21499800D02*
X53740788Y-21547419D01*
X53740788Y-21547419D02*
X53455074Y-21547419D01*
X53455074Y-21547419D02*
X53359836Y-21499800D01*
X53359836Y-21499800D02*
X53312217Y-21452180D01*
D11*
X53883333Y-45904819D02*
X53550000Y-45428628D01*
X53311905Y-45904819D02*
X53311905Y-44904819D01*
X53311905Y-44904819D02*
X53692857Y-44904819D01*
X53692857Y-44904819D02*
X53788095Y-44952438D01*
X53788095Y-44952438D02*
X53835714Y-45000057D01*
X53835714Y-45000057D02*
X53883333Y-45095295D01*
X53883333Y-45095295D02*
X53883333Y-45238152D01*
X53883333Y-45238152D02*
X53835714Y-45333390D01*
X53835714Y-45333390D02*
X53788095Y-45381009D01*
X53788095Y-45381009D02*
X53692857Y-45428628D01*
X53692857Y-45428628D02*
X53311905Y-45428628D01*
X54264286Y-45000057D02*
X54311905Y-44952438D01*
X54311905Y-44952438D02*
X54407143Y-44904819D01*
X54407143Y-44904819D02*
X54645238Y-44904819D01*
X54645238Y-44904819D02*
X54740476Y-44952438D01*
X54740476Y-44952438D02*
X54788095Y-45000057D01*
X54788095Y-45000057D02*
X54835714Y-45095295D01*
X54835714Y-45095295D02*
X54835714Y-45190533D01*
X54835714Y-45190533D02*
X54788095Y-45333390D01*
X54788095Y-45333390D02*
X54216667Y-45904819D01*
X54216667Y-45904819D02*
X54835714Y-45904819D01*
X49991666Y-17029819D02*
X49991666Y-17744104D01*
X49991666Y-17744104D02*
X49944047Y-17886961D01*
X49944047Y-17886961D02*
X49848809Y-17982200D01*
X49848809Y-17982200D02*
X49705952Y-18029819D01*
X49705952Y-18029819D02*
X49610714Y-18029819D01*
X50991666Y-18029819D02*
X50420238Y-18029819D01*
X50705952Y-18029819D02*
X50705952Y-17029819D01*
X50705952Y-17029819D02*
X50610714Y-17172676D01*
X50610714Y-17172676D02*
X50515476Y-17267914D01*
X50515476Y-17267914D02*
X50420238Y-17315533D01*
X61389819Y-29826189D02*
X60389819Y-29826189D01*
X61294580Y-28778571D02*
X61342200Y-28826190D01*
X61342200Y-28826190D02*
X61389819Y-28969047D01*
X61389819Y-28969047D02*
X61389819Y-29064285D01*
X61389819Y-29064285D02*
X61342200Y-29207142D01*
X61342200Y-29207142D02*
X61246961Y-29302380D01*
X61246961Y-29302380D02*
X61151723Y-29349999D01*
X61151723Y-29349999D02*
X60961247Y-29397618D01*
X60961247Y-29397618D02*
X60818390Y-29397618D01*
X60818390Y-29397618D02*
X60627914Y-29349999D01*
X60627914Y-29349999D02*
X60532676Y-29302380D01*
X60532676Y-29302380D02*
X60437438Y-29207142D01*
X60437438Y-29207142D02*
X60389819Y-29064285D01*
X60389819Y-29064285D02*
X60389819Y-28969047D01*
X60389819Y-28969047D02*
X60437438Y-28826190D01*
X60437438Y-28826190D02*
X60485057Y-28778571D01*
X60485057Y-28397618D02*
X60437438Y-28349999D01*
X60437438Y-28349999D02*
X60389819Y-28254761D01*
X60389819Y-28254761D02*
X60389819Y-28016666D01*
X60389819Y-28016666D02*
X60437438Y-27921428D01*
X60437438Y-27921428D02*
X60485057Y-27873809D01*
X60485057Y-27873809D02*
X60580295Y-27826190D01*
X60580295Y-27826190D02*
X60675533Y-27826190D01*
X60675533Y-27826190D02*
X60818390Y-27873809D01*
X60818390Y-27873809D02*
X61389819Y-28445237D01*
X61389819Y-28445237D02*
X61389819Y-27826190D01*
X56673810Y-55779819D02*
X56673810Y-54779819D01*
X57721428Y-55684580D02*
X57673809Y-55732200D01*
X57673809Y-55732200D02*
X57530952Y-55779819D01*
X57530952Y-55779819D02*
X57435714Y-55779819D01*
X57435714Y-55779819D02*
X57292857Y-55732200D01*
X57292857Y-55732200D02*
X57197619Y-55636961D01*
X57197619Y-55636961D02*
X57150000Y-55541723D01*
X57150000Y-55541723D02*
X57102381Y-55351247D01*
X57102381Y-55351247D02*
X57102381Y-55208390D01*
X57102381Y-55208390D02*
X57150000Y-55017914D01*
X57150000Y-55017914D02*
X57197619Y-54922676D01*
X57197619Y-54922676D02*
X57292857Y-54827438D01*
X57292857Y-54827438D02*
X57435714Y-54779819D01*
X57435714Y-54779819D02*
X57530952Y-54779819D01*
X57530952Y-54779819D02*
X57673809Y-54827438D01*
X57673809Y-54827438D02*
X57721428Y-54875057D01*
X58673809Y-55779819D02*
X58102381Y-55779819D01*
X58388095Y-55779819D02*
X58388095Y-54779819D01*
X58388095Y-54779819D02*
X58292857Y-54922676D01*
X58292857Y-54922676D02*
X58197619Y-55017914D01*
X58197619Y-55017914D02*
X58102381Y-55065533D01*
X52333333Y-25209580D02*
X52285714Y-25257200D01*
X52285714Y-25257200D02*
X52142857Y-25304819D01*
X52142857Y-25304819D02*
X52047619Y-25304819D01*
X52047619Y-25304819D02*
X51904762Y-25257200D01*
X51904762Y-25257200D02*
X51809524Y-25161961D01*
X51809524Y-25161961D02*
X51761905Y-25066723D01*
X51761905Y-25066723D02*
X51714286Y-24876247D01*
X51714286Y-24876247D02*
X51714286Y-24733390D01*
X51714286Y-24733390D02*
X51761905Y-24542914D01*
X51761905Y-24542914D02*
X51809524Y-24447676D01*
X51809524Y-24447676D02*
X51904762Y-24352438D01*
X51904762Y-24352438D02*
X52047619Y-24304819D01*
X52047619Y-24304819D02*
X52142857Y-24304819D01*
X52142857Y-24304819D02*
X52285714Y-24352438D01*
X52285714Y-24352438D02*
X52333333Y-24400057D01*
X53285714Y-25304819D02*
X52714286Y-25304819D01*
X53000000Y-25304819D02*
X53000000Y-24304819D01*
X53000000Y-24304819D02*
X52904762Y-24447676D01*
X52904762Y-24447676D02*
X52809524Y-24542914D01*
X52809524Y-24542914D02*
X52714286Y-24590533D01*
X51679819Y-36936904D02*
X52489342Y-36936904D01*
X52489342Y-36936904D02*
X52584580Y-36889285D01*
X52584580Y-36889285D02*
X52632200Y-36841666D01*
X52632200Y-36841666D02*
X52679819Y-36746428D01*
X52679819Y-36746428D02*
X52679819Y-36555952D01*
X52679819Y-36555952D02*
X52632200Y-36460714D01*
X52632200Y-36460714D02*
X52584580Y-36413095D01*
X52584580Y-36413095D02*
X52489342Y-36365476D01*
X52489342Y-36365476D02*
X51679819Y-36365476D01*
X52679819Y-35365476D02*
X52679819Y-35936904D01*
X52679819Y-35651190D02*
X51679819Y-35651190D01*
X51679819Y-35651190D02*
X51822676Y-35746428D01*
X51822676Y-35746428D02*
X51917914Y-35841666D01*
X51917914Y-35841666D02*
X51965533Y-35936904D01*
X52633333Y-53859580D02*
X52585714Y-53907200D01*
X52585714Y-53907200D02*
X52442857Y-53954819D01*
X52442857Y-53954819D02*
X52347619Y-53954819D01*
X52347619Y-53954819D02*
X52204762Y-53907200D01*
X52204762Y-53907200D02*
X52109524Y-53811961D01*
X52109524Y-53811961D02*
X52061905Y-53716723D01*
X52061905Y-53716723D02*
X52014286Y-53526247D01*
X52014286Y-53526247D02*
X52014286Y-53383390D01*
X52014286Y-53383390D02*
X52061905Y-53192914D01*
X52061905Y-53192914D02*
X52109524Y-53097676D01*
X52109524Y-53097676D02*
X52204762Y-53002438D01*
X52204762Y-53002438D02*
X52347619Y-52954819D01*
X52347619Y-52954819D02*
X52442857Y-52954819D01*
X52442857Y-52954819D02*
X52585714Y-53002438D01*
X52585714Y-53002438D02*
X52633333Y-53050057D01*
X53014286Y-53050057D02*
X53061905Y-53002438D01*
X53061905Y-53002438D02*
X53157143Y-52954819D01*
X53157143Y-52954819D02*
X53395238Y-52954819D01*
X53395238Y-52954819D02*
X53490476Y-53002438D01*
X53490476Y-53002438D02*
X53538095Y-53050057D01*
X53538095Y-53050057D02*
X53585714Y-53145295D01*
X53585714Y-53145295D02*
X53585714Y-53240533D01*
X53585714Y-53240533D02*
X53538095Y-53383390D01*
X53538095Y-53383390D02*
X52966667Y-53954819D01*
X52966667Y-53954819D02*
X53585714Y-53954819D01*
X60258333Y-35504819D02*
X59925000Y-35028628D01*
X59686905Y-35504819D02*
X59686905Y-34504819D01*
X59686905Y-34504819D02*
X60067857Y-34504819D01*
X60067857Y-34504819D02*
X60163095Y-34552438D01*
X60163095Y-34552438D02*
X60210714Y-34600057D01*
X60210714Y-34600057D02*
X60258333Y-34695295D01*
X60258333Y-34695295D02*
X60258333Y-34838152D01*
X60258333Y-34838152D02*
X60210714Y-34933390D01*
X60210714Y-34933390D02*
X60163095Y-34981009D01*
X60163095Y-34981009D02*
X60067857Y-35028628D01*
X60067857Y-35028628D02*
X59686905Y-35028628D01*
X61210714Y-35504819D02*
X60639286Y-35504819D01*
X60925000Y-35504819D02*
X60925000Y-34504819D01*
X60925000Y-34504819D02*
X60829762Y-34647676D01*
X60829762Y-34647676D02*
X60734524Y-34742914D01*
X60734524Y-34742914D02*
X60639286Y-34790533D01*
D12*
%TO.C,R2*%
X57552064Y-44690000D02*
X57097936Y-44690000D01*
X57552064Y-46160000D02*
X57097936Y-46160000D01*
%TO.C,J1*%
X51570000Y-20280000D02*
X51570000Y-18950000D01*
X52900000Y-20280000D02*
X51570000Y-20280000D01*
X54170000Y-17620000D02*
X61850000Y-17620000D01*
X54170000Y-20280000D02*
X54170000Y-17620000D01*
X54170000Y-20280000D02*
X61850000Y-20280000D01*
X61850000Y-20280000D02*
X61850000Y-17620000D01*
%TO.C,IC2*%
X54975000Y-28850000D02*
X54975000Y-26900000D01*
X54975000Y-28850000D02*
X54975000Y-30800000D01*
X60095000Y-28850000D02*
X60095000Y-26900000D01*
X60095000Y-28850000D02*
X60095000Y-30800000D01*
X60330000Y-26390000D02*
X60000000Y-26150000D01*
X60330000Y-25910000D01*
X60330000Y-26390000D01*
G36*
X60330000Y-26390000D02*
G01*
X60000000Y-26150000D01*
X60330000Y-25910000D01*
X60330000Y-26390000D01*
G37*
%TO.C,IC1*%
X54890000Y-50975000D02*
X54890000Y-49025000D01*
X54890000Y-50975000D02*
X54890000Y-52925000D01*
X60010000Y-50975000D02*
X60010000Y-49025000D01*
X60010000Y-50975000D02*
X60010000Y-52925000D01*
X54985000Y-53675000D02*
X54655000Y-53915000D01*
X54655000Y-53435000D01*
X54985000Y-53675000D01*
G36*
X54985000Y-53675000D02*
G01*
X54655000Y-53915000D01*
X54655000Y-53435000D01*
X54985000Y-53675000D01*
G37*
%TO.C,C1*%
X54138748Y-22240000D02*
X54661252Y-22240000D01*
X54138748Y-23710000D02*
X54661252Y-23710000D01*
D11*
%TO.C,U1*%
X33360000Y-18520000D02*
X33360000Y-54080000D01*
X33360000Y-54080000D02*
X51140000Y-54080000D01*
X38440000Y-17250000D02*
X38440000Y-18520000D01*
X46060000Y-17250000D02*
X38440000Y-17250000D01*
X46060000Y-18520000D02*
X46060000Y-17250000D01*
X51140000Y-18520000D02*
X33360000Y-18520000D01*
X51140000Y-54080000D02*
X51140000Y-18520000D01*
D12*
%TO.C,C2*%
X52290000Y-50288748D02*
X52290000Y-50811252D01*
X53760000Y-50288748D02*
X53760000Y-50811252D01*
%TO.C,R1*%
X57372936Y-34415000D02*
X57827064Y-34415000D01*
X57372936Y-35885000D02*
X57827064Y-35885000D01*
%TD*%
%LPC*%
D13*
%TO.C,R2*%
X58325000Y-45425000D03*
X56325000Y-45425000D03*
%TD*%
D14*
%TO.C,J1*%
X52900000Y-18950000D03*
D15*
X55440000Y-18950000D03*
X57980000Y-18950000D03*
X60520000Y-18950000D03*
%TD*%
D16*
%TO.C,IC2*%
X59440000Y-26375000D03*
X58170000Y-26375000D03*
X56900000Y-26375000D03*
X55630000Y-26375000D03*
X55630000Y-31325000D03*
X56900000Y-31325000D03*
X58170000Y-31325000D03*
X59440000Y-31325000D03*
%TD*%
D17*
%TO.C,IC1*%
X55545000Y-53450000D03*
X56815000Y-53450000D03*
X58085000Y-53450000D03*
X59355000Y-53450000D03*
X59355000Y-48500000D03*
X58085000Y-48500000D03*
X56815000Y-48500000D03*
X55545000Y-48500000D03*
%TD*%
D18*
%TO.C,C1*%
X53362500Y-22975000D03*
X55437500Y-22975000D03*
%TD*%
D19*
%TO.C,U1*%
X34630000Y-19790000D03*
X34630000Y-22330000D03*
X34630000Y-24870000D03*
X34630000Y-27410000D03*
X34630000Y-29950000D03*
X34630000Y-32490000D03*
X34630000Y-35030000D03*
X34630000Y-37570000D03*
X34630000Y-40110000D03*
X34630000Y-42650000D03*
X34630000Y-45190000D03*
X34630000Y-47730000D03*
X34630000Y-50270000D03*
X34630000Y-52810000D03*
X37170000Y-52810000D03*
X39710000Y-52810000D03*
X42250000Y-52810000D03*
X44790000Y-52810000D03*
X47330000Y-52810000D03*
X49870000Y-52810000D03*
X49870000Y-50270000D03*
X49870000Y-47730000D03*
X49870000Y-45190000D03*
X49870000Y-42650000D03*
X49870000Y-40110000D03*
X49870000Y-37570000D03*
X49870000Y-35030000D03*
X49870000Y-32490000D03*
X49870000Y-29950000D03*
X49870000Y-27410000D03*
X49870000Y-24870000D03*
X49870000Y-22330000D03*
X49870000Y-19790000D03*
X47330000Y-22330000D03*
D20*
X47330000Y-47730000D03*
X47330000Y-45190000D03*
X44790000Y-47730000D03*
X44790000Y-45190000D03*
X42250000Y-47730000D03*
X42250000Y-45190000D03*
X39710000Y-47730000D03*
X39710000Y-45190000D03*
X37170000Y-47730000D03*
X37170000Y-45190000D03*
D21*
X45750000Y-26928400D03*
X44750000Y-26928400D03*
X43750000Y-26928400D03*
X42750000Y-26928400D03*
X41750000Y-26928400D03*
X40750000Y-26928400D03*
X39750000Y-26928400D03*
X38750000Y-26928400D03*
D20*
X43520000Y-21060000D03*
X40980000Y-21060000D03*
%TD*%
D22*
%TO.C,C2*%
X53025000Y-49512500D03*
X53025000Y-51587500D03*
%TD*%
D23*
%TO.C,R1*%
X56600000Y-35150000D03*
X58600000Y-35150000D03*
%TD*%
%LPD*%
M02*
