%TF.GenerationSoftware,KiCad,Pcbnew,8.0.2-1*%
%TF.CreationDate,2024-05-18T17:44:33-05:00*%
%TF.ProjectId,can_test,63616e5f-7465-4737-942e-6b696361645f,rev?*%
%TF.SameCoordinates,Original*%
%TF.FileFunction,Copper,L3,Inr*%
%TF.FilePolarity,Positive*%
%FSLAX46Y46*%
G04 Gerber Fmt 4.6, Leading zero omitted, Abs format (unit mm)*
G04 Created by KiCad (PCBNEW 8.0.2-1) date 2024-05-18 17:44:33*
%MOMM*%
%LPD*%
G01*
G04 APERTURE LIST*
%TA.AperFunction,ComponentPad*%
%ADD10R,1.700000X1.700000*%
%TD*%
%TA.AperFunction,ComponentPad*%
%ADD11O,1.700000X1.700000*%
%TD*%
%TA.AperFunction,ComponentPad*%
%ADD12C,1.404000*%
%TD*%
%TA.AperFunction,ComponentPad*%
%ADD13C,1.304000*%
%TD*%
%TA.AperFunction,ComponentPad*%
%ADD14C,0.804000*%
%TD*%
%TA.AperFunction,ViaPad*%
%ADD15C,0.600000*%
%TD*%
G04 APERTURE END LIST*
D10*
%TO.N,Net-(IC2-VCC)*%
%TO.C,J1*%
X52900000Y-18950000D03*
D11*
%TO.N,GND*%
X55440000Y-18950000D03*
%TO.N,CRX2*%
X57980000Y-18950000D03*
%TO.N,CTX2*%
X60520000Y-18950000D03*
%TD*%
D12*
%TO.N,GND*%
%TO.C,U1*%
X34630000Y-19790000D03*
%TO.N,unconnected-(U1-0_RX1_CRX2_CS1-Pad2)*%
X34630000Y-22330000D03*
%TO.N,unconnected-(U1-1_TX1_CTX2_MISO1-Pad3)*%
X34630000Y-24870000D03*
%TO.N,unconnected-(U1-2_OUT2-Pad4)*%
X34630000Y-27410000D03*
%TO.N,unconnected-(U1-3_LRCLK2-Pad5)*%
X34630000Y-29950000D03*
%TO.N,unconnected-(U1-4_BCLK2-Pad6)*%
X34630000Y-32490000D03*
%TO.N,unconnected-(U1-5_IN2-Pad7)*%
X34630000Y-35030000D03*
%TO.N,unconnected-(U1-6_OUT1D-Pad8)*%
X34630000Y-37570000D03*
%TO.N,unconnected-(U1-7_RX2_OUT1A-Pad9)*%
X34630000Y-40110000D03*
%TO.N,unconnected-(U1-8_TX2_IN1-Pad10)*%
X34630000Y-42650000D03*
%TO.N,unconnected-(U1-9_OUT1C-Pad11)*%
X34630000Y-45190000D03*
%TO.N,unconnected-(U1-10_CS_MQSR-Pad12)*%
X34630000Y-47730000D03*
%TO.N,unconnected-(U1-11_MOSI_CTX1-Pad13)*%
X34630000Y-50270000D03*
%TO.N,unconnected-(U1-12_MISO_MQSL-Pad14)*%
X34630000Y-52810000D03*
%TO.N,unconnected-(U1-VBAT-Pad15)*%
X37170000Y-52810000D03*
%TO.N,unconnected-(U1-3V3-Pad16)*%
X39710000Y-52810000D03*
%TO.N,GND*%
X42250000Y-52810000D03*
%TO.N,unconnected-(U1-PROGRAM-Pad18)*%
X44790000Y-52810000D03*
%TO.N,unconnected-(U1-ON_OFF-Pad19)*%
X47330000Y-52810000D03*
%TO.N,unconnected-(U1-13_SCK_CRX1_LED-Pad20)*%
X49870000Y-52810000D03*
%TO.N,unconnected-(U1-14_A0_TX3_SPDIF_OUT-Pad21)*%
X49870000Y-50270000D03*
%TO.N,unconnected-(U1-15_A1_RX3_SPDIF_IN-Pad22)*%
X49870000Y-47730000D03*
%TO.N,unconnected-(U1-16_A2_RX4_SCL1-Pad23)*%
X49870000Y-45190000D03*
%TO.N,unconnected-(U1-17_A3_TX4_SDA1-Pad24)*%
X49870000Y-42650000D03*
%TO.N,unconnected-(U1-18_A4_SDA0-Pad25)*%
X49870000Y-40110000D03*
%TO.N,unconnected-(U1-19_A5_SCL0-Pad26)*%
X49870000Y-37570000D03*
%TO.N,unconnected-(U1-20_A6_TX5_LRCLK1-Pad27)*%
X49870000Y-35030000D03*
%TO.N,unconnected-(U1-21_A7_RX5_BCLK1-Pad28)*%
X49870000Y-32490000D03*
%TO.N,unconnected-(U1-22_A8_CTX1-Pad29)*%
X49870000Y-29950000D03*
%TO.N,unconnected-(U1-23_A9_CRX1_MCLK1-Pad30)*%
X49870000Y-27410000D03*
%TO.N,unconnected-(U1-3V3-Pad31)*%
X49870000Y-24870000D03*
%TO.N,GND*%
X49870000Y-22330000D03*
%TO.N,unconnected-(U1-VIN-Pad33)*%
X49870000Y-19790000D03*
%TO.N,unconnected-(U1-VUSB-Pad34)*%
X47330000Y-22330000D03*
D13*
%TO.N,unconnected-(U1-24_A10_TX6_SCL2-Pad35)*%
X47330000Y-47730000D03*
%TO.N,unconnected-(U1-25_A11_RX6_SDA2-Pad36)*%
X47330000Y-45190000D03*
%TO.N,unconnected-(U1-26_A12_MOSI1-Pad37)*%
X44790000Y-47730000D03*
%TO.N,unconnected-(U1-27_A13_SCK1-Pad38)*%
X44790000Y-45190000D03*
%TO.N,unconnected-(U1-28_RX7-Pad39)*%
X42250000Y-47730000D03*
%TO.N,unconnected-(U1-29_TX7-Pad40)*%
X42250000Y-45190000D03*
%TO.N,CRX1*%
X39710000Y-47730000D03*
%TO.N,CTX1*%
X39710000Y-45190000D03*
%TO.N,unconnected-(U1-32_OUT1B-Pad43)*%
X37170000Y-47730000D03*
%TO.N,unconnected-(U1-33_MCLK2-Pad44)*%
X37170000Y-45190000D03*
D14*
%TO.N,unconnected-(U1-34_DAT1_MISO2-Pad45)*%
X45750000Y-26928400D03*
%TO.N,unconnected-(U1-35_DAT0_MOSI2-Pad46)*%
X44750000Y-26928400D03*
%TO.N,unconnected-(U1-GND-Pad47)*%
X43750000Y-26928400D03*
%TO.N,unconnected-(U1-36_CLK_CS2-Pad48)*%
X42750000Y-26928400D03*
%TO.N,+3.3V*%
X41750000Y-26928400D03*
%TO.N,unconnected-(U1-37_CMD_SCK2-Pad50)*%
X40750000Y-26928400D03*
%TO.N,unconnected-(U1-38_DAT3_RX5-Pad51)*%
X39750000Y-26928400D03*
%TO.N,unconnected-(U1-39_DAT2_TX5-Pad52)*%
X38750000Y-26928400D03*
D13*
%TO.N,unconnected-(U1-D--Pad53)*%
X43520000Y-21060000D03*
%TO.N,unconnected-(U1-D+-Pad54)*%
X40980000Y-21060000D03*
%TD*%
D15*
%TO.N,Net-(IC2-VCC)*%
X53175000Y-25225000D03*
X58425000Y-23800000D03*
%TO.N,GND*%
X38575000Y-50450000D03*
X58675000Y-22575000D03*
X40850000Y-30675000D03*
X44975000Y-24200000D03*
X43200000Y-31975000D03*
X41175000Y-42300000D03*
X39800000Y-32625000D03*
X45925000Y-40550000D03*
X52200000Y-53825000D03*
X40525000Y-36750000D03*
X43525000Y-38525000D03*
X55750000Y-37150000D03*
X60750000Y-46150000D03*
X41175000Y-49550000D03*
X42550000Y-23875000D03*
X38600000Y-41825000D03*
X39250000Y-34875000D03*
X54625000Y-43150000D03*
X38100000Y-38525000D03*
X53225000Y-36900000D03*
X54375000Y-39225000D03*
X56525000Y-40900000D03*
X43125000Y-35050000D03*
X37625000Y-30175000D03*
X52300000Y-26325000D03*
X51700000Y-50850000D03*
X45300000Y-33750000D03*
X38275000Y-23300000D03*
X44900000Y-36250000D03*
X54075000Y-26525000D03*
X54525000Y-31275000D03*
X53000000Y-34550000D03*
X47275000Y-39775000D03*
X60525000Y-31325000D03*
X60425000Y-41200000D03*
X52425000Y-40450000D03*
X60450000Y-43350000D03*
X54525000Y-34550000D03*
X53975000Y-46375000D03*
X59700000Y-24725000D03*
%TO.N,CTX1*%
X53400000Y-53725000D03*
X47250000Y-41675000D03*
%TO.N,CANH*%
X56350000Y-42775000D03*
X59075000Y-42350000D03*
%TD*%
%TA.AperFunction,Conductor*%
%TO.N,GND*%
G36*
X46149503Y-47773333D02*
G01*
X46181693Y-47835346D01*
X46183471Y-47847713D01*
X46192270Y-47942673D01*
X46192270Y-47942675D01*
X46192271Y-47942678D01*
X46195591Y-47954346D01*
X46250723Y-48148117D01*
X46259756Y-48166257D01*
X46345927Y-48339312D01*
X46474644Y-48509760D01*
X46632488Y-48653655D01*
X46632490Y-48653656D01*
X46632491Y-48653657D01*
X46814082Y-48766093D01*
X46814088Y-48766096D01*
X46836513Y-48774783D01*
X47013252Y-48843253D01*
X47223205Y-48882500D01*
X47223207Y-48882500D01*
X47436793Y-48882500D01*
X47436795Y-48882500D01*
X47646748Y-48843253D01*
X47845914Y-48766095D01*
X48027512Y-48653655D01*
X48185356Y-48509760D01*
X48314073Y-48339312D01*
X48409278Y-48148114D01*
X48454741Y-47988324D01*
X48492019Y-47929233D01*
X48555329Y-47899675D01*
X48624568Y-47909037D01*
X48677755Y-47954346D01*
X48693272Y-47988323D01*
X48743898Y-48166254D01*
X48843234Y-48365747D01*
X48977534Y-48543590D01*
X49142227Y-48693727D01*
X49259102Y-48766093D01*
X49331701Y-48811045D01*
X49331703Y-48811046D01*
X49520981Y-48884373D01*
X49576383Y-48926946D01*
X49599973Y-48992713D01*
X49584262Y-49060794D01*
X49534238Y-49109572D01*
X49520981Y-49115627D01*
X49331703Y-49188953D01*
X49331701Y-49188954D01*
X49142225Y-49306274D01*
X48977539Y-49456404D01*
X48977536Y-49456407D01*
X48843234Y-49634252D01*
X48743899Y-49833742D01*
X48682910Y-50048099D01*
X48662348Y-50270000D01*
X48682910Y-50491900D01*
X48682910Y-50491902D01*
X48682911Y-50491905D01*
X48743898Y-50706254D01*
X48843234Y-50905747D01*
X48977534Y-51083590D01*
X49142227Y-51233727D01*
X49286539Y-51323081D01*
X49331701Y-51351045D01*
X49331703Y-51351046D01*
X49520981Y-51424373D01*
X49576383Y-51466946D01*
X49599973Y-51532713D01*
X49584262Y-51600794D01*
X49534238Y-51649572D01*
X49520981Y-51655627D01*
X49331703Y-51728953D01*
X49331701Y-51728954D01*
X49142225Y-51846274D01*
X48977539Y-51996404D01*
X48977536Y-51996407D01*
X48843234Y-52174252D01*
X48743899Y-52373742D01*
X48719267Y-52460317D01*
X48681987Y-52519410D01*
X48618678Y-52548968D01*
X48549438Y-52539606D01*
X48496252Y-52494297D01*
X48480733Y-52460317D01*
X48479632Y-52456446D01*
X48456102Y-52373746D01*
X48356766Y-52174253D01*
X48222466Y-51996410D01*
X48222463Y-51996407D01*
X48222460Y-51996404D01*
X48057774Y-51846274D01*
X48057773Y-51846273D01*
X47985617Y-51801595D01*
X47868298Y-51728954D01*
X47868296Y-51728953D01*
X47716348Y-51670088D01*
X47660490Y-51648449D01*
X47441428Y-51607500D01*
X47218572Y-51607500D01*
X46999510Y-51648449D01*
X46999507Y-51648449D01*
X46999507Y-51648450D01*
X46791703Y-51728953D01*
X46791701Y-51728954D01*
X46602225Y-51846274D01*
X46437539Y-51996404D01*
X46437536Y-51996407D01*
X46303234Y-52174252D01*
X46203899Y-52373742D01*
X46179267Y-52460317D01*
X46141987Y-52519410D01*
X46078678Y-52548968D01*
X46009438Y-52539606D01*
X45956252Y-52494297D01*
X45940733Y-52460317D01*
X45939632Y-52456446D01*
X45916102Y-52373746D01*
X45816766Y-52174253D01*
X45682466Y-51996410D01*
X45682463Y-51996407D01*
X45682460Y-51996404D01*
X45517774Y-51846274D01*
X45517773Y-51846273D01*
X45445617Y-51801595D01*
X45328298Y-51728954D01*
X45328296Y-51728953D01*
X45176348Y-51670088D01*
X45120490Y-51648449D01*
X44901428Y-51607500D01*
X44678572Y-51607500D01*
X44459510Y-51648449D01*
X44459507Y-51648449D01*
X44459507Y-51648450D01*
X44251703Y-51728953D01*
X44251701Y-51728954D01*
X44062225Y-51846274D01*
X43897539Y-51996404D01*
X43897536Y-51996407D01*
X43763234Y-52174252D01*
X43663898Y-52373744D01*
X43663896Y-52373748D01*
X43639005Y-52461232D01*
X43601726Y-52520325D01*
X43538416Y-52549882D01*
X43469176Y-52540520D01*
X43415990Y-52495210D01*
X43400472Y-52461230D01*
X43375632Y-52373924D01*
X43276342Y-52174524D01*
X43276334Y-52174511D01*
X43260288Y-52153263D01*
X42773787Y-52639764D01*
X42762518Y-52597708D01*
X42690110Y-52472292D01*
X42587708Y-52369890D01*
X42462292Y-52297482D01*
X42420234Y-52286212D01*
X42904779Y-51801666D01*
X42904778Y-51801665D01*
X42788076Y-51729406D01*
X42788070Y-51729404D01*
X42580349Y-51648933D01*
X42361380Y-51608000D01*
X42138620Y-51608000D01*
X41919650Y-51648933D01*
X41919649Y-51648933D01*
X41711929Y-51729404D01*
X41711923Y-51729407D01*
X41595220Y-51801665D01*
X41595219Y-51801666D01*
X42079766Y-52286212D01*
X42037708Y-52297482D01*
X41912292Y-52369890D01*
X41809890Y-52472292D01*
X41737482Y-52597708D01*
X41726212Y-52639765D01*
X41239710Y-52153263D01*
X41223662Y-52174515D01*
X41124367Y-52373925D01*
X41124364Y-52373931D01*
X41099526Y-52461231D01*
X41062247Y-52520325D01*
X40998937Y-52549882D01*
X40929698Y-52540520D01*
X40876511Y-52495210D01*
X40860994Y-52461233D01*
X40836102Y-52373746D01*
X40736766Y-52174253D01*
X40602466Y-51996410D01*
X40602463Y-51996407D01*
X40602460Y-51996404D01*
X40437774Y-51846274D01*
X40437773Y-51846273D01*
X40365617Y-51801595D01*
X40248298Y-51728954D01*
X40248296Y-51728953D01*
X40096348Y-51670088D01*
X40040490Y-51648449D01*
X39821428Y-51607500D01*
X39598572Y-51607500D01*
X39379510Y-51648449D01*
X39379507Y-51648449D01*
X39379507Y-51648450D01*
X39171703Y-51728953D01*
X39171701Y-51728954D01*
X38982225Y-51846274D01*
X38817539Y-51996404D01*
X38817536Y-51996407D01*
X38683234Y-52174252D01*
X38583899Y-52373742D01*
X38559267Y-52460317D01*
X38521987Y-52519410D01*
X38458678Y-52548968D01*
X38389438Y-52539606D01*
X38336252Y-52494297D01*
X38320733Y-52460317D01*
X38319632Y-52456446D01*
X38296102Y-52373746D01*
X38196766Y-52174253D01*
X38062466Y-51996410D01*
X38062463Y-51996407D01*
X38062460Y-51996404D01*
X37897774Y-51846274D01*
X37897773Y-51846273D01*
X37825617Y-51801595D01*
X37708298Y-51728954D01*
X37708296Y-51728953D01*
X37556348Y-51670088D01*
X37500490Y-51648449D01*
X37281428Y-51607500D01*
X37058572Y-51607500D01*
X36839510Y-51648449D01*
X36839507Y-51648449D01*
X36839507Y-51648450D01*
X36631703Y-51728953D01*
X36631701Y-51728954D01*
X36442225Y-51846274D01*
X36277539Y-51996404D01*
X36277536Y-51996407D01*
X36143234Y-52174252D01*
X36043899Y-52373742D01*
X36019267Y-52460317D01*
X35981987Y-52519410D01*
X35918678Y-52548968D01*
X35849438Y-52539606D01*
X35796252Y-52494297D01*
X35780733Y-52460317D01*
X35779632Y-52456446D01*
X35756102Y-52373746D01*
X35656766Y-52174253D01*
X35522466Y-51996410D01*
X35522463Y-51996407D01*
X35522460Y-51996404D01*
X35357774Y-51846274D01*
X35357773Y-51846273D01*
X35285617Y-51801595D01*
X35168298Y-51728954D01*
X35168296Y-51728953D01*
X35025978Y-51673819D01*
X34979017Y-51655626D01*
X34923617Y-51613054D01*
X34900026Y-51547287D01*
X34915737Y-51479207D01*
X34965761Y-51430428D01*
X34979015Y-51424374D01*
X35168297Y-51351046D01*
X35357773Y-51233727D01*
X35522466Y-51083590D01*
X35656766Y-50905747D01*
X35756102Y-50706254D01*
X35817089Y-50491905D01*
X35837652Y-50270000D01*
X35817089Y-50048095D01*
X35756102Y-49833746D01*
X35656766Y-49634253D01*
X35522466Y-49456410D01*
X35522463Y-49456407D01*
X35522460Y-49456404D01*
X35357774Y-49306274D01*
X35357773Y-49306273D01*
X35285617Y-49261595D01*
X35168298Y-49188954D01*
X35168296Y-49188953D01*
X35025978Y-49133819D01*
X34979017Y-49115626D01*
X34923617Y-49073054D01*
X34900026Y-49007287D01*
X34915737Y-48939207D01*
X34965761Y-48890428D01*
X34979015Y-48884374D01*
X35168297Y-48811046D01*
X35357773Y-48693727D01*
X35522466Y-48543590D01*
X35656766Y-48365747D01*
X35756102Y-48166254D01*
X35806727Y-47988323D01*
X35844004Y-47929233D01*
X35907314Y-47899675D01*
X35976553Y-47909036D01*
X36029740Y-47954346D01*
X36045258Y-47988326D01*
X36090719Y-48148109D01*
X36090722Y-48148115D01*
X36099756Y-48166257D01*
X36185927Y-48339312D01*
X36314644Y-48509760D01*
X36472488Y-48653655D01*
X36472490Y-48653656D01*
X36472491Y-48653657D01*
X36654082Y-48766093D01*
X36654088Y-48766096D01*
X36676513Y-48774783D01*
X36853252Y-48843253D01*
X37063205Y-48882500D01*
X37063207Y-48882500D01*
X37276793Y-48882500D01*
X37276795Y-48882500D01*
X37486748Y-48843253D01*
X37685914Y-48766095D01*
X37867512Y-48653655D01*
X38025356Y-48509760D01*
X38154073Y-48339312D01*
X38249278Y-48148114D01*
X38307729Y-47942678D01*
X38316529Y-47847712D01*
X38342315Y-47782775D01*
X38399116Y-47742088D01*
X38468897Y-47738568D01*
X38529503Y-47773333D01*
X38561693Y-47835346D01*
X38563471Y-47847713D01*
X38572270Y-47942673D01*
X38572270Y-47942675D01*
X38572271Y-47942678D01*
X38575591Y-47954346D01*
X38630723Y-48148117D01*
X38639756Y-48166257D01*
X38725927Y-48339312D01*
X38854644Y-48509760D01*
X39012488Y-48653655D01*
X39012490Y-48653656D01*
X39012491Y-48653657D01*
X39194082Y-48766093D01*
X39194088Y-48766096D01*
X39216513Y-48774783D01*
X39393252Y-48843253D01*
X39603205Y-48882500D01*
X39603207Y-48882500D01*
X39816793Y-48882500D01*
X39816795Y-48882500D01*
X40026748Y-48843253D01*
X40225914Y-48766095D01*
X40407512Y-48653655D01*
X40565356Y-48509760D01*
X40694073Y-48339312D01*
X40789278Y-48148114D01*
X40847729Y-47942678D01*
X40856529Y-47847712D01*
X40882315Y-47782775D01*
X40939116Y-47742088D01*
X41008897Y-47738568D01*
X41069503Y-47773333D01*
X41101693Y-47835346D01*
X41103471Y-47847713D01*
X41112270Y-47942673D01*
X41112270Y-47942675D01*
X41112271Y-47942678D01*
X41115591Y-47954346D01*
X41170723Y-48148117D01*
X41179756Y-48166257D01*
X41265927Y-48339312D01*
X41394644Y-48509760D01*
X41552488Y-48653655D01*
X41552490Y-48653656D01*
X41552491Y-48653657D01*
X41734082Y-48766093D01*
X41734088Y-48766096D01*
X41756513Y-48774783D01*
X41933252Y-48843253D01*
X42143205Y-48882500D01*
X42143207Y-48882500D01*
X42356793Y-48882500D01*
X42356795Y-48882500D01*
X42566748Y-48843253D01*
X42765914Y-48766095D01*
X42947512Y-48653655D01*
X43105356Y-48509760D01*
X43234073Y-48339312D01*
X43329278Y-48148114D01*
X43387729Y-47942678D01*
X43396529Y-47847712D01*
X43422315Y-47782775D01*
X43479116Y-47742088D01*
X43548897Y-47738568D01*
X43609503Y-47773333D01*
X43641693Y-47835346D01*
X43643471Y-47847713D01*
X43652270Y-47942673D01*
X43652270Y-47942675D01*
X43652271Y-47942678D01*
X43655591Y-47954346D01*
X43710723Y-48148117D01*
X43719756Y-48166257D01*
X43805927Y-48339312D01*
X43934644Y-48509760D01*
X44092488Y-48653655D01*
X44092490Y-48653656D01*
X44092491Y-48653657D01*
X44274082Y-48766093D01*
X44274088Y-48766096D01*
X44296513Y-48774783D01*
X44473252Y-48843253D01*
X44683205Y-48882500D01*
X44683207Y-48882500D01*
X44896793Y-48882500D01*
X44896795Y-48882500D01*
X45106748Y-48843253D01*
X45305914Y-48766095D01*
X45487512Y-48653655D01*
X45645356Y-48509760D01*
X45774073Y-48339312D01*
X45869278Y-48148114D01*
X45927729Y-47942678D01*
X45936529Y-47847712D01*
X45962315Y-47782775D01*
X46019116Y-47742088D01*
X46088897Y-47738568D01*
X46149503Y-47773333D01*
G37*
%TD.AperFunction*%
%TA.AperFunction,Conductor*%
G36*
X62192539Y-16420185D02*
G01*
X62238294Y-16472989D01*
X62249500Y-16524500D01*
X62249500Y-55875500D01*
X62229815Y-55942539D01*
X62177011Y-55988294D01*
X62125500Y-55999500D01*
X32724500Y-55999500D01*
X32657461Y-55979815D01*
X32611706Y-55927011D01*
X32600500Y-55875500D01*
X32600500Y-22330000D01*
X33422348Y-22330000D01*
X33442910Y-22551900D01*
X33442910Y-22551902D01*
X33442911Y-22551905D01*
X33503898Y-22766254D01*
X33603234Y-22965747D01*
X33737534Y-23143590D01*
X33902227Y-23293727D01*
X34046539Y-23383081D01*
X34091701Y-23411045D01*
X34091703Y-23411046D01*
X34280981Y-23484373D01*
X34336383Y-23526946D01*
X34359973Y-23592713D01*
X34344262Y-23660794D01*
X34294238Y-23709572D01*
X34280981Y-23715627D01*
X34091703Y-23788953D01*
X34091701Y-23788954D01*
X33902225Y-23906274D01*
X33737539Y-24056404D01*
X33737536Y-24056407D01*
X33603234Y-24234252D01*
X33503899Y-24433742D01*
X33442910Y-24648099D01*
X33422348Y-24870000D01*
X33442910Y-25091900D01*
X33442910Y-25091902D01*
X33442911Y-25091905D01*
X33503898Y-25306254D01*
X33603234Y-25505747D01*
X33737534Y-25683590D01*
X33902227Y-25833727D01*
X34046539Y-25923081D01*
X34091701Y-25951045D01*
X34091703Y-25951046D01*
X34280981Y-26024373D01*
X34336383Y-26066946D01*
X34359973Y-26132713D01*
X34344262Y-26200794D01*
X34294238Y-26249572D01*
X34280981Y-26255627D01*
X34091703Y-26328953D01*
X34091701Y-26328954D01*
X33902225Y-26446274D01*
X33737539Y-26596404D01*
X33737536Y-26596407D01*
X33603234Y-26774252D01*
X33503899Y-26973742D01*
X33442910Y-27188099D01*
X33422348Y-27410000D01*
X33442910Y-27631900D01*
X33442910Y-27631902D01*
X33442911Y-27631905D01*
X33503898Y-27846254D01*
X33603234Y-28045747D01*
X33737534Y-28223590D01*
X33902227Y-28373727D01*
X34046539Y-28463081D01*
X34091701Y-28491045D01*
X34091703Y-28491046D01*
X34280981Y-28564373D01*
X34336383Y-28606946D01*
X34359973Y-28672713D01*
X34344262Y-28740794D01*
X34294238Y-28789572D01*
X34280981Y-28795627D01*
X34091703Y-28868953D01*
X34091701Y-28868954D01*
X33902225Y-28986274D01*
X33737539Y-29136404D01*
X33737536Y-29136407D01*
X33603234Y-29314252D01*
X33503899Y-29513742D01*
X33442910Y-29728099D01*
X33422348Y-29950000D01*
X33442910Y-30171900D01*
X33442910Y-30171902D01*
X33442911Y-30171905D01*
X33503898Y-30386254D01*
X33603234Y-30585747D01*
X33737534Y-30763590D01*
X33902227Y-30913727D01*
X34046539Y-31003081D01*
X34091701Y-31031045D01*
X34091703Y-31031046D01*
X34280981Y-31104373D01*
X34336383Y-31146946D01*
X34359973Y-31212713D01*
X34344262Y-31280794D01*
X34294238Y-31329572D01*
X34280981Y-31335627D01*
X34091703Y-31408953D01*
X34091701Y-31408954D01*
X33902225Y-31526274D01*
X33737539Y-31676404D01*
X33737536Y-31676407D01*
X33603234Y-31854252D01*
X33503899Y-32053742D01*
X33442910Y-32268099D01*
X33422348Y-32490000D01*
X33442910Y-32711900D01*
X33442910Y-32711902D01*
X33442911Y-32711905D01*
X33503898Y-32926254D01*
X33603234Y-33125747D01*
X33737534Y-33303590D01*
X33902227Y-33453727D01*
X34046539Y-33543081D01*
X34091701Y-33571045D01*
X34091703Y-33571046D01*
X34280981Y-33644373D01*
X34336383Y-33686946D01*
X34359973Y-33752713D01*
X34344262Y-33820794D01*
X34294238Y-33869572D01*
X34280981Y-33875627D01*
X34091703Y-33948953D01*
X34091701Y-33948954D01*
X33902225Y-34066274D01*
X33737539Y-34216404D01*
X33737536Y-34216407D01*
X33603234Y-34394252D01*
X33503899Y-34593742D01*
X33442910Y-34808099D01*
X33422348Y-35030000D01*
X33442910Y-35251900D01*
X33442910Y-35251902D01*
X33442911Y-35251905D01*
X33503898Y-35466254D01*
X33603234Y-35665747D01*
X33737534Y-35843590D01*
X33902227Y-35993727D01*
X34046539Y-36083081D01*
X34091701Y-36111045D01*
X34091703Y-36111046D01*
X34280981Y-36184373D01*
X34336383Y-36226946D01*
X34359973Y-36292713D01*
X34344262Y-36360794D01*
X34294238Y-36409572D01*
X34280981Y-36415627D01*
X34091703Y-36488953D01*
X34091701Y-36488954D01*
X33902225Y-36606274D01*
X33737539Y-36756404D01*
X33737536Y-36756407D01*
X33603234Y-36934252D01*
X33503899Y-37133742D01*
X33442910Y-37348099D01*
X33422348Y-37570000D01*
X33442910Y-37791900D01*
X33442910Y-37791902D01*
X33442911Y-37791905D01*
X33503898Y-38006254D01*
X33603234Y-38205747D01*
X33737534Y-38383590D01*
X33902227Y-38533727D01*
X34046539Y-38623081D01*
X34091701Y-38651045D01*
X34091703Y-38651046D01*
X34280981Y-38724373D01*
X34336383Y-38766946D01*
X34359973Y-38832713D01*
X34344262Y-38900794D01*
X34294238Y-38949572D01*
X34280981Y-38955627D01*
X34091703Y-39028953D01*
X34091701Y-39028954D01*
X33902225Y-39146274D01*
X33737539Y-39296404D01*
X33737536Y-39296407D01*
X33603234Y-39474252D01*
X33503899Y-39673742D01*
X33442910Y-39888099D01*
X33422348Y-40110000D01*
X33442910Y-40331900D01*
X33442910Y-40331902D01*
X33442911Y-40331905D01*
X33503898Y-40546254D01*
X33603234Y-40745747D01*
X33737534Y-40923590D01*
X33902227Y-41073727D01*
X34046539Y-41163081D01*
X34091701Y-41191045D01*
X34091703Y-41191046D01*
X34280981Y-41264373D01*
X34336383Y-41306946D01*
X34359973Y-41372713D01*
X34344262Y-41440794D01*
X34294238Y-41489572D01*
X34280981Y-41495627D01*
X34091703Y-41568953D01*
X34091701Y-41568954D01*
X33902225Y-41686274D01*
X33737539Y-41836404D01*
X33737536Y-41836407D01*
X33603234Y-42014252D01*
X33503899Y-42213742D01*
X33503898Y-42213746D01*
X33450681Y-42400788D01*
X33442910Y-42428099D01*
X33422348Y-42650000D01*
X33442910Y-42871900D01*
X33442910Y-42871902D01*
X33442911Y-42871905D01*
X33503898Y-43086254D01*
X33503899Y-43086257D01*
X33528354Y-43135368D01*
X33603234Y-43285747D01*
X33737534Y-43463590D01*
X33902227Y-43613727D01*
X34046539Y-43703081D01*
X34091701Y-43731045D01*
X34091703Y-43731046D01*
X34280981Y-43804373D01*
X34336383Y-43846946D01*
X34359973Y-43912713D01*
X34344262Y-43980794D01*
X34294238Y-44029572D01*
X34280981Y-44035627D01*
X34091703Y-44108953D01*
X34091701Y-44108954D01*
X33902225Y-44226274D01*
X33737539Y-44376404D01*
X33737536Y-44376407D01*
X33603234Y-44554252D01*
X33503899Y-44753742D01*
X33442910Y-44968099D01*
X33422348Y-45190000D01*
X33442910Y-45411900D01*
X33442910Y-45411902D01*
X33442911Y-45411905D01*
X33503898Y-45626254D01*
X33603234Y-45825747D01*
X33737534Y-46003590D01*
X33902227Y-46153727D01*
X34019102Y-46226093D01*
X34091701Y-46271045D01*
X34091703Y-46271046D01*
X34280981Y-46344373D01*
X34336383Y-46386946D01*
X34359973Y-46452713D01*
X34344262Y-46520794D01*
X34294238Y-46569572D01*
X34280981Y-46575627D01*
X34091703Y-46648953D01*
X34091701Y-46648954D01*
X33902225Y-46766274D01*
X33737539Y-46916404D01*
X33737536Y-46916407D01*
X33603234Y-47094252D01*
X33503899Y-47293742D01*
X33442910Y-47508099D01*
X33422348Y-47730000D01*
X33442910Y-47951900D01*
X33442910Y-47951902D01*
X33442911Y-47951905D01*
X33503898Y-48166254D01*
X33603234Y-48365747D01*
X33737534Y-48543590D01*
X33902227Y-48693727D01*
X34019102Y-48766093D01*
X34091701Y-48811045D01*
X34091703Y-48811046D01*
X34280981Y-48884373D01*
X34336383Y-48926946D01*
X34359973Y-48992713D01*
X34344262Y-49060794D01*
X34294238Y-49109572D01*
X34280981Y-49115627D01*
X34091703Y-49188953D01*
X34091701Y-49188954D01*
X33902225Y-49306274D01*
X33737539Y-49456404D01*
X33737536Y-49456407D01*
X33603234Y-49634252D01*
X33503899Y-49833742D01*
X33442910Y-50048099D01*
X33422348Y-50270000D01*
X33442910Y-50491900D01*
X33442910Y-50491902D01*
X33442911Y-50491905D01*
X33503898Y-50706254D01*
X33603234Y-50905747D01*
X33737534Y-51083590D01*
X33902227Y-51233727D01*
X34046539Y-51323081D01*
X34091701Y-51351045D01*
X34091703Y-51351046D01*
X34280981Y-51424373D01*
X34336383Y-51466946D01*
X34359973Y-51532713D01*
X34344262Y-51600794D01*
X34294238Y-51649572D01*
X34280981Y-51655627D01*
X34091703Y-51728953D01*
X34091701Y-51728954D01*
X33902225Y-51846274D01*
X33737539Y-51996404D01*
X33737536Y-51996407D01*
X33603234Y-52174252D01*
X33503899Y-52373742D01*
X33503898Y-52373746D01*
X33453784Y-52549882D01*
X33442910Y-52588099D01*
X33422348Y-52810000D01*
X33442910Y-53031900D01*
X33442910Y-53031902D01*
X33442911Y-53031905D01*
X33503898Y-53246254D01*
X33603234Y-53445747D01*
X33737534Y-53623590D01*
X33902227Y-53773727D01*
X34046539Y-53863081D01*
X34090974Y-53890595D01*
X34091703Y-53891046D01*
X34299510Y-53971551D01*
X34518572Y-54012500D01*
X34518575Y-54012500D01*
X34741425Y-54012500D01*
X34741428Y-54012500D01*
X34960490Y-53971551D01*
X35168297Y-53891046D01*
X35357773Y-53773727D01*
X35522466Y-53623590D01*
X35656766Y-53445747D01*
X35756102Y-53246254D01*
X35780733Y-53159681D01*
X35818012Y-53100589D01*
X35881322Y-53071031D01*
X35950561Y-53080393D01*
X36003748Y-53125702D01*
X36019267Y-53159683D01*
X36043898Y-53246256D01*
X36100537Y-53360000D01*
X36143234Y-53445747D01*
X36277534Y-53623590D01*
X36442227Y-53773727D01*
X36586539Y-53863081D01*
X36630974Y-53890595D01*
X36631703Y-53891046D01*
X36839510Y-53971551D01*
X37058572Y-54012500D01*
X37058575Y-54012500D01*
X37281425Y-54012500D01*
X37281428Y-54012500D01*
X37500490Y-53971551D01*
X37708297Y-53891046D01*
X37897773Y-53773727D01*
X38062466Y-53623590D01*
X38196766Y-53445747D01*
X38296102Y-53246254D01*
X38320733Y-53159681D01*
X38358012Y-53100589D01*
X38421322Y-53071031D01*
X38490561Y-53080393D01*
X38543748Y-53125702D01*
X38559267Y-53159683D01*
X38583898Y-53246256D01*
X38640537Y-53360000D01*
X38683234Y-53445747D01*
X38817534Y-53623590D01*
X38982227Y-53773727D01*
X39126539Y-53863081D01*
X39170974Y-53890595D01*
X39171703Y-53891046D01*
X39379510Y-53971551D01*
X39598572Y-54012500D01*
X39598575Y-54012500D01*
X39821425Y-54012500D01*
X39821428Y-54012500D01*
X40040490Y-53971551D01*
X40248297Y-53891046D01*
X40437773Y-53773727D01*
X40602466Y-53623590D01*
X40736766Y-53445747D01*
X40836102Y-53246254D01*
X40860993Y-53158767D01*
X40898272Y-53099675D01*
X40961582Y-53070117D01*
X41030821Y-53079479D01*
X41084008Y-53124788D01*
X41099526Y-53158768D01*
X41124364Y-53246068D01*
X41124367Y-53246074D01*
X41223661Y-53445482D01*
X41239710Y-53466734D01*
X41726212Y-52980233D01*
X41737482Y-53022292D01*
X41809890Y-53147708D01*
X41912292Y-53250110D01*
X42037708Y-53322518D01*
X42079765Y-53333787D01*
X41595219Y-53818332D01*
X41711925Y-53890594D01*
X41711927Y-53890595D01*
X41919650Y-53971066D01*
X42138620Y-54012000D01*
X42361380Y-54012000D01*
X42580349Y-53971066D01*
X42580359Y-53971063D01*
X42788072Y-53890595D01*
X42788074Y-53890594D01*
X42904779Y-53818332D01*
X42420235Y-53333787D01*
X42462292Y-53322518D01*
X42587708Y-53250110D01*
X42690110Y-53147708D01*
X42762518Y-53022292D01*
X42773787Y-52980234D01*
X43260289Y-53466735D01*
X43276337Y-53445484D01*
X43276342Y-53445476D01*
X43375632Y-53246075D01*
X43400472Y-53158769D01*
X43437751Y-53099676D01*
X43501060Y-53070117D01*
X43570300Y-53079478D01*
X43623487Y-53124787D01*
X43639005Y-53158768D01*
X43663895Y-53246249D01*
X43663898Y-53246255D01*
X43663899Y-53246257D01*
X43763234Y-53445747D01*
X43897534Y-53623590D01*
X44062227Y-53773727D01*
X44206539Y-53863081D01*
X44250974Y-53890595D01*
X44251703Y-53891046D01*
X44459510Y-53971551D01*
X44678572Y-54012500D01*
X44678575Y-54012500D01*
X44901425Y-54012500D01*
X44901428Y-54012500D01*
X45120490Y-53971551D01*
X45328297Y-53891046D01*
X45517773Y-53773727D01*
X45682466Y-53623590D01*
X45816766Y-53445747D01*
X45916102Y-53246254D01*
X45940733Y-53159681D01*
X45978012Y-53100589D01*
X46041322Y-53071031D01*
X46110561Y-53080393D01*
X46163748Y-53125702D01*
X46179267Y-53159683D01*
X46203898Y-53246256D01*
X46260537Y-53360000D01*
X46303234Y-53445747D01*
X46437534Y-53623590D01*
X46602227Y-53773727D01*
X46746539Y-53863081D01*
X46790974Y-53890595D01*
X46791703Y-53891046D01*
X46999510Y-53971551D01*
X47218572Y-54012500D01*
X47218575Y-54012500D01*
X47441425Y-54012500D01*
X47441428Y-54012500D01*
X47660490Y-53971551D01*
X47868297Y-53891046D01*
X48057773Y-53773727D01*
X48222466Y-53623590D01*
X48356766Y-53445747D01*
X48456102Y-53246254D01*
X48480733Y-53159681D01*
X48518012Y-53100589D01*
X48581322Y-53071031D01*
X48650561Y-53080393D01*
X48703748Y-53125702D01*
X48719267Y-53159683D01*
X48743898Y-53246256D01*
X48800537Y-53360000D01*
X48843234Y-53445747D01*
X48977534Y-53623590D01*
X49142227Y-53773727D01*
X49286539Y-53863081D01*
X49330974Y-53890595D01*
X49331703Y-53891046D01*
X49539510Y-53971551D01*
X49758572Y-54012500D01*
X49758575Y-54012500D01*
X49981425Y-54012500D01*
X49981428Y-54012500D01*
X50200490Y-53971551D01*
X50408297Y-53891046D01*
X50597773Y-53773727D01*
X50651229Y-53724996D01*
X52594435Y-53724996D01*
X52594435Y-53725003D01*
X52614630Y-53904249D01*
X52614631Y-53904254D01*
X52674211Y-54074523D01*
X52770184Y-54227262D01*
X52897738Y-54354816D01*
X53050478Y-54450789D01*
X53220745Y-54510368D01*
X53220750Y-54510369D01*
X53399996Y-54530565D01*
X53400000Y-54530565D01*
X53400004Y-54530565D01*
X53579249Y-54510369D01*
X53579252Y-54510368D01*
X53579255Y-54510368D01*
X53749522Y-54450789D01*
X53902262Y-54354816D01*
X54029816Y-54227262D01*
X54125789Y-54074522D01*
X54185368Y-53904255D01*
X54185369Y-53904249D01*
X54205565Y-53725003D01*
X54205565Y-53724996D01*
X54185369Y-53545750D01*
X54185368Y-53545745D01*
X54125788Y-53375476D01*
X54044593Y-53246256D01*
X54029816Y-53222738D01*
X53902262Y-53095184D01*
X53862368Y-53070117D01*
X53749523Y-52999211D01*
X53579254Y-52939631D01*
X53579249Y-52939630D01*
X53400004Y-52919435D01*
X53399996Y-52919435D01*
X53220750Y-52939630D01*
X53220745Y-52939631D01*
X53050476Y-52999211D01*
X52897737Y-53095184D01*
X52770184Y-53222737D01*
X52674211Y-53375476D01*
X52614631Y-53545745D01*
X52614630Y-53545750D01*
X52594435Y-53724996D01*
X50651229Y-53724996D01*
X50762466Y-53623590D01*
X50896766Y-53445747D01*
X50996102Y-53246254D01*
X51057089Y-53031905D01*
X51077652Y-52810000D01*
X51057089Y-52588095D01*
X50996102Y-52373746D01*
X50896766Y-52174253D01*
X50762466Y-51996410D01*
X50762463Y-51996407D01*
X50762460Y-51996404D01*
X50597774Y-51846274D01*
X50597773Y-51846273D01*
X50525617Y-51801595D01*
X50408298Y-51728954D01*
X50408296Y-51728953D01*
X50265978Y-51673819D01*
X50219017Y-51655626D01*
X50163617Y-51613054D01*
X50140026Y-51547287D01*
X50155737Y-51479207D01*
X50205761Y-51430428D01*
X50219015Y-51424374D01*
X50408297Y-51351046D01*
X50597773Y-51233727D01*
X50762466Y-51083590D01*
X50896766Y-50905747D01*
X50996102Y-50706254D01*
X51057089Y-50491905D01*
X51077652Y-50270000D01*
X51057089Y-50048095D01*
X50996102Y-49833746D01*
X50896766Y-49634253D01*
X50762466Y-49456410D01*
X50762463Y-49456407D01*
X50762460Y-49456404D01*
X50597774Y-49306274D01*
X50597773Y-49306273D01*
X50525617Y-49261595D01*
X50408298Y-49188954D01*
X50408296Y-49188953D01*
X50265978Y-49133819D01*
X50219017Y-49115626D01*
X50163617Y-49073054D01*
X50140026Y-49007287D01*
X50155737Y-48939207D01*
X50205761Y-48890428D01*
X50219015Y-48884374D01*
X50408297Y-48811046D01*
X50597773Y-48693727D01*
X50762466Y-48543590D01*
X50896766Y-48365747D01*
X50996102Y-48166254D01*
X51057089Y-47951905D01*
X51077652Y-47730000D01*
X51057089Y-47508095D01*
X50996102Y-47293746D01*
X50896766Y-47094253D01*
X50762466Y-46916410D01*
X50762463Y-46916407D01*
X50762460Y-46916404D01*
X50597774Y-46766274D01*
X50597773Y-46766273D01*
X50480892Y-46693903D01*
X50408298Y-46648954D01*
X50408296Y-46648953D01*
X50265978Y-46593819D01*
X50219017Y-46575626D01*
X50163617Y-46533054D01*
X50140026Y-46467287D01*
X50155737Y-46399207D01*
X50205761Y-46350428D01*
X50219015Y-46344374D01*
X50408297Y-46271046D01*
X50597773Y-46153727D01*
X50762466Y-46003590D01*
X50896766Y-45825747D01*
X50996102Y-45626254D01*
X51057089Y-45411905D01*
X51077652Y-45190000D01*
X51057089Y-44968095D01*
X50996102Y-44753746D01*
X50896766Y-44554253D01*
X50762466Y-44376410D01*
X50762463Y-44376407D01*
X50762460Y-44376404D01*
X50597774Y-44226274D01*
X50597773Y-44226273D01*
X50480892Y-44153903D01*
X50408298Y-44108954D01*
X50408296Y-44108953D01*
X50223853Y-44037500D01*
X50219017Y-44035626D01*
X50163617Y-43993054D01*
X50140026Y-43927287D01*
X50155737Y-43859207D01*
X50205761Y-43810428D01*
X50219015Y-43804374D01*
X50408297Y-43731046D01*
X50597773Y-43613727D01*
X50762466Y-43463590D01*
X50896766Y-43285747D01*
X50996102Y-43086254D01*
X51057089Y-42871905D01*
X51066069Y-42774996D01*
X55544435Y-42774996D01*
X55544435Y-42775003D01*
X55564630Y-42954249D01*
X55564631Y-42954254D01*
X55624211Y-43124523D01*
X55720184Y-43277262D01*
X55847738Y-43404816D01*
X56000478Y-43500789D01*
X56170745Y-43560368D01*
X56170750Y-43560369D01*
X56349996Y-43580565D01*
X56350000Y-43580565D01*
X56350004Y-43580565D01*
X56529249Y-43560369D01*
X56529252Y-43560368D01*
X56529255Y-43560368D01*
X56699522Y-43500789D01*
X56852262Y-43404816D01*
X56979816Y-43277262D01*
X57075789Y-43124522D01*
X57135368Y-42954255D01*
X57155565Y-42775000D01*
X57135368Y-42595745D01*
X57075789Y-42425478D01*
X57028360Y-42349996D01*
X58269435Y-42349996D01*
X58269435Y-42350003D01*
X58289630Y-42529249D01*
X58289631Y-42529254D01*
X58349211Y-42699523D01*
X58396637Y-42775000D01*
X58445184Y-42852262D01*
X58572738Y-42979816D01*
X58725478Y-43075789D01*
X58864749Y-43124522D01*
X58895745Y-43135368D01*
X58895750Y-43135369D01*
X59074996Y-43155565D01*
X59075000Y-43155565D01*
X59075004Y-43155565D01*
X59254249Y-43135369D01*
X59254252Y-43135368D01*
X59254255Y-43135368D01*
X59424522Y-43075789D01*
X59577262Y-42979816D01*
X59704816Y-42852262D01*
X59800789Y-42699522D01*
X59860368Y-42529255D01*
X59868130Y-42460368D01*
X59880565Y-42350003D01*
X59880565Y-42349996D01*
X59860369Y-42170750D01*
X59860368Y-42170745D01*
X59817841Y-42049211D01*
X59800789Y-42000478D01*
X59793973Y-41989631D01*
X59704815Y-41847737D01*
X59577262Y-41720184D01*
X59424523Y-41624211D01*
X59254254Y-41564631D01*
X59254249Y-41564630D01*
X59075004Y-41544435D01*
X59074996Y-41544435D01*
X58895750Y-41564630D01*
X58895745Y-41564631D01*
X58725476Y-41624211D01*
X58572737Y-41720184D01*
X58445184Y-41847737D01*
X58349211Y-42000476D01*
X58289631Y-42170745D01*
X58289630Y-42170750D01*
X58269435Y-42349996D01*
X57028360Y-42349996D01*
X56979816Y-42272738D01*
X56852262Y-42145184D01*
X56699523Y-42049211D01*
X56529254Y-41989631D01*
X56529249Y-41989630D01*
X56350004Y-41969435D01*
X56349996Y-41969435D01*
X56170750Y-41989630D01*
X56170745Y-41989631D01*
X56000476Y-42049211D01*
X55847737Y-42145184D01*
X55720184Y-42272737D01*
X55624211Y-42425476D01*
X55564631Y-42595745D01*
X55564630Y-42595750D01*
X55544435Y-42774996D01*
X51066069Y-42774996D01*
X51077652Y-42650000D01*
X51057089Y-42428095D01*
X50996102Y-42213746D01*
X50896766Y-42014253D01*
X50762466Y-41836410D01*
X50762463Y-41836407D01*
X50762460Y-41836404D01*
X50597774Y-41686274D01*
X50597773Y-41686273D01*
X50497540Y-41624211D01*
X50408298Y-41568954D01*
X50408296Y-41568953D01*
X50219323Y-41495745D01*
X50219017Y-41495626D01*
X50163617Y-41453054D01*
X50140026Y-41387287D01*
X50155737Y-41319207D01*
X50205761Y-41270428D01*
X50219015Y-41264374D01*
X50408297Y-41191046D01*
X50597773Y-41073727D01*
X50762466Y-40923590D01*
X50896766Y-40745747D01*
X50996102Y-40546254D01*
X51057089Y-40331905D01*
X51077652Y-40110000D01*
X51057089Y-39888095D01*
X50996102Y-39673746D01*
X50896766Y-39474253D01*
X50762466Y-39296410D01*
X50762463Y-39296407D01*
X50762460Y-39296404D01*
X50597774Y-39146274D01*
X50597773Y-39146273D01*
X50525617Y-39101595D01*
X50408298Y-39028954D01*
X50408296Y-39028953D01*
X50265978Y-38973819D01*
X50219017Y-38955626D01*
X50163617Y-38913054D01*
X50140026Y-38847287D01*
X50155737Y-38779207D01*
X50205761Y-38730428D01*
X50219015Y-38724374D01*
X50408297Y-38651046D01*
X50597773Y-38533727D01*
X50762466Y-38383590D01*
X50896766Y-38205747D01*
X50996102Y-38006254D01*
X51057089Y-37791905D01*
X51077652Y-37570000D01*
X51057089Y-37348095D01*
X50996102Y-37133746D01*
X50896766Y-36934253D01*
X50762466Y-36756410D01*
X50762463Y-36756407D01*
X50762460Y-36756404D01*
X50597774Y-36606274D01*
X50597773Y-36606273D01*
X50525617Y-36561595D01*
X50408298Y-36488954D01*
X50408296Y-36488953D01*
X50265978Y-36433819D01*
X50219017Y-36415626D01*
X50163617Y-36373054D01*
X50140026Y-36307287D01*
X50155737Y-36239207D01*
X50205761Y-36190428D01*
X50219015Y-36184374D01*
X50408297Y-36111046D01*
X50597773Y-35993727D01*
X50762466Y-35843590D01*
X50896766Y-35665747D01*
X50996102Y-35466254D01*
X51057089Y-35251905D01*
X51077652Y-35030000D01*
X51057089Y-34808095D01*
X50996102Y-34593746D01*
X50896766Y-34394253D01*
X50762466Y-34216410D01*
X50762463Y-34216407D01*
X50762460Y-34216404D01*
X50597774Y-34066274D01*
X50597773Y-34066273D01*
X50525617Y-34021595D01*
X50408298Y-33948954D01*
X50408296Y-33948953D01*
X50265978Y-33893819D01*
X50219017Y-33875626D01*
X50163617Y-33833054D01*
X50140026Y-33767287D01*
X50155737Y-33699207D01*
X50205761Y-33650428D01*
X50219015Y-33644374D01*
X50408297Y-33571046D01*
X50597773Y-33453727D01*
X50762466Y-33303590D01*
X50896766Y-33125747D01*
X50996102Y-32926254D01*
X51057089Y-32711905D01*
X51077652Y-32490000D01*
X51057089Y-32268095D01*
X50996102Y-32053746D01*
X50896766Y-31854253D01*
X50762466Y-31676410D01*
X50762463Y-31676407D01*
X50762460Y-31676404D01*
X50597774Y-31526274D01*
X50597773Y-31526273D01*
X50525617Y-31481595D01*
X50408298Y-31408954D01*
X50408296Y-31408953D01*
X50265978Y-31353819D01*
X50219017Y-31335626D01*
X50163617Y-31293054D01*
X50140026Y-31227287D01*
X50155737Y-31159207D01*
X50205761Y-31110428D01*
X50219015Y-31104374D01*
X50408297Y-31031046D01*
X50597773Y-30913727D01*
X50762466Y-30763590D01*
X50896766Y-30585747D01*
X50996102Y-30386254D01*
X51057089Y-30171905D01*
X51077652Y-29950000D01*
X51057089Y-29728095D01*
X50996102Y-29513746D01*
X50896766Y-29314253D01*
X50762466Y-29136410D01*
X50762463Y-29136407D01*
X50762460Y-29136404D01*
X50597774Y-28986274D01*
X50597773Y-28986273D01*
X50525617Y-28941595D01*
X50408298Y-28868954D01*
X50408296Y-28868953D01*
X50265978Y-28813819D01*
X50219017Y-28795626D01*
X50163617Y-28753054D01*
X50140026Y-28687287D01*
X50155737Y-28619207D01*
X50205761Y-28570428D01*
X50219015Y-28564374D01*
X50408297Y-28491046D01*
X50597773Y-28373727D01*
X50762466Y-28223590D01*
X50896766Y-28045747D01*
X50996102Y-27846254D01*
X51057089Y-27631905D01*
X51077652Y-27410000D01*
X51057089Y-27188095D01*
X50996102Y-26973746D01*
X50896766Y-26774253D01*
X50762466Y-26596410D01*
X50762463Y-26596407D01*
X50762460Y-26596404D01*
X50597774Y-26446274D01*
X50597773Y-26446273D01*
X50514968Y-26395002D01*
X50408298Y-26328954D01*
X50408296Y-26328953D01*
X50265978Y-26273819D01*
X50219017Y-26255626D01*
X50163617Y-26213054D01*
X50140026Y-26147287D01*
X50155737Y-26079207D01*
X50205761Y-26030428D01*
X50219015Y-26024374D01*
X50408297Y-25951046D01*
X50597773Y-25833727D01*
X50762466Y-25683590D01*
X50896766Y-25505747D01*
X50996102Y-25306254D01*
X51019222Y-25224996D01*
X52369435Y-25224996D01*
X52369435Y-25225003D01*
X52389630Y-25404249D01*
X52389631Y-25404254D01*
X52449211Y-25574523D01*
X52517743Y-25683590D01*
X52545184Y-25727262D01*
X52672738Y-25854816D01*
X52825478Y-25950789D01*
X52995745Y-26010368D01*
X52995750Y-26010369D01*
X53174996Y-26030565D01*
X53175000Y-26030565D01*
X53175004Y-26030565D01*
X53354249Y-26010369D01*
X53354252Y-26010368D01*
X53354255Y-26010368D01*
X53524522Y-25950789D01*
X53677262Y-25854816D01*
X53804816Y-25727262D01*
X53900789Y-25574522D01*
X53960368Y-25404255D01*
X53980565Y-25225000D01*
X53965568Y-25091900D01*
X53960369Y-25045750D01*
X53960368Y-25045745D01*
X53900788Y-24875476D01*
X53804815Y-24722737D01*
X53677262Y-24595184D01*
X53524523Y-24499211D01*
X53354254Y-24439631D01*
X53354249Y-24439630D01*
X53175004Y-24419435D01*
X53174996Y-24419435D01*
X52995750Y-24439630D01*
X52995745Y-24439631D01*
X52825476Y-24499211D01*
X52672737Y-24595184D01*
X52545184Y-24722737D01*
X52449211Y-24875476D01*
X52389631Y-25045745D01*
X52389630Y-25045750D01*
X52369435Y-25224996D01*
X51019222Y-25224996D01*
X51057089Y-25091905D01*
X51077652Y-24870000D01*
X51057089Y-24648095D01*
X50996102Y-24433746D01*
X50896766Y-24234253D01*
X50762466Y-24056410D01*
X50762463Y-24056407D01*
X50762460Y-24056404D01*
X50597774Y-23906274D01*
X50597773Y-23906273D01*
X50525617Y-23861595D01*
X50426131Y-23799996D01*
X57619435Y-23799996D01*
X57619435Y-23800003D01*
X57639630Y-23979249D01*
X57639631Y-23979254D01*
X57699211Y-24149523D01*
X57752450Y-24234252D01*
X57795184Y-24302262D01*
X57922738Y-24429816D01*
X58075478Y-24525789D01*
X58245745Y-24585368D01*
X58245750Y-24585369D01*
X58424996Y-24605565D01*
X58425000Y-24605565D01*
X58425004Y-24605565D01*
X58604249Y-24585369D01*
X58604252Y-24585368D01*
X58604255Y-24585368D01*
X58774522Y-24525789D01*
X58927262Y-24429816D01*
X59054816Y-24302262D01*
X59150789Y-24149522D01*
X59210368Y-23979255D01*
X59230565Y-23800000D01*
X59229320Y-23788954D01*
X59210369Y-23620750D01*
X59210368Y-23620745D01*
X59200464Y-23592442D01*
X59150789Y-23450478D01*
X59125729Y-23410596D01*
X59054815Y-23297737D01*
X58927262Y-23170184D01*
X58774523Y-23074211D01*
X58604254Y-23014631D01*
X58604249Y-23014630D01*
X58425004Y-22994435D01*
X58424996Y-22994435D01*
X58245750Y-23014630D01*
X58245745Y-23014631D01*
X58075476Y-23074211D01*
X57922737Y-23170184D01*
X57795184Y-23297737D01*
X57699211Y-23450476D01*
X57639631Y-23620745D01*
X57639630Y-23620750D01*
X57619435Y-23799996D01*
X50426131Y-23799996D01*
X50408298Y-23788954D01*
X50408287Y-23788949D01*
X50218323Y-23715356D01*
X50162921Y-23672784D01*
X50139331Y-23607017D01*
X50155042Y-23538936D01*
X50205066Y-23490158D01*
X50218323Y-23484103D01*
X50408077Y-23410592D01*
X50524779Y-23338332D01*
X50040235Y-22853787D01*
X50082292Y-22842518D01*
X50207708Y-22770110D01*
X50310110Y-22667708D01*
X50382518Y-22542292D01*
X50393787Y-22500234D01*
X50880289Y-22986735D01*
X50896337Y-22965484D01*
X50896342Y-22965476D01*
X50995631Y-22766076D01*
X51056595Y-22551808D01*
X51077149Y-22330000D01*
X51077149Y-22329999D01*
X51056595Y-22108191D01*
X50995631Y-21893923D01*
X50896342Y-21694524D01*
X50896334Y-21694511D01*
X50880288Y-21673263D01*
X50393787Y-22159764D01*
X50382518Y-22117708D01*
X50310110Y-21992292D01*
X50207708Y-21889890D01*
X50082292Y-21817482D01*
X50040234Y-21806212D01*
X50524779Y-21321666D01*
X50524778Y-21321665D01*
X50408076Y-21249406D01*
X50408070Y-21249404D01*
X50218323Y-21175896D01*
X50162922Y-21133323D01*
X50139331Y-21067556D01*
X50155042Y-20999476D01*
X50205066Y-20950697D01*
X50218316Y-20944644D01*
X50408297Y-20871046D01*
X50597773Y-20753727D01*
X50762466Y-20603590D01*
X50896766Y-20425747D01*
X50996102Y-20226254D01*
X51057089Y-20011905D01*
X51077652Y-19790000D01*
X51057089Y-19568095D01*
X50996102Y-19353746D01*
X50896766Y-19154253D01*
X50762466Y-18976410D01*
X50762463Y-18976407D01*
X50762460Y-18976404D01*
X50597774Y-18826274D01*
X50597773Y-18826273D01*
X50485905Y-18757007D01*
X50408298Y-18708954D01*
X50408296Y-18708953D01*
X50201739Y-18628933D01*
X50200490Y-18628449D01*
X49981428Y-18587500D01*
X49758572Y-18587500D01*
X49539510Y-18628449D01*
X49539507Y-18628449D01*
X49539507Y-18628450D01*
X49331703Y-18708953D01*
X49331701Y-18708954D01*
X49142225Y-18826274D01*
X48977539Y-18976404D01*
X48977536Y-18976407D01*
X48843234Y-19154252D01*
X48743899Y-19353742D01*
X48682910Y-19568099D01*
X48662348Y-19790000D01*
X48682910Y-20011900D01*
X48682910Y-20011902D01*
X48682911Y-20011905D01*
X48743898Y-20226254D01*
X48743899Y-20226257D01*
X48780868Y-20300500D01*
X48843234Y-20425747D01*
X48977534Y-20603590D01*
X49142227Y-20753727D01*
X49286539Y-20843081D01*
X49331701Y-20871045D01*
X49331703Y-20871046D01*
X49521676Y-20944642D01*
X49577078Y-20987215D01*
X49600668Y-21052982D01*
X49584957Y-21121062D01*
X49534933Y-21169841D01*
X49521676Y-21175896D01*
X49331929Y-21249403D01*
X49331923Y-21249407D01*
X49215220Y-21321665D01*
X49215219Y-21321666D01*
X49699766Y-21806212D01*
X49657708Y-21817482D01*
X49532292Y-21889890D01*
X49429890Y-21992292D01*
X49357482Y-22117708D01*
X49346212Y-22159765D01*
X48859710Y-21673263D01*
X48843662Y-21694515D01*
X48744367Y-21893925D01*
X48744364Y-21893931D01*
X48719526Y-21981231D01*
X48682247Y-22040325D01*
X48618937Y-22069882D01*
X48549698Y-22060520D01*
X48496511Y-22015210D01*
X48480993Y-21981231D01*
X48479632Y-21976446D01*
X48456102Y-21893746D01*
X48356766Y-21694253D01*
X48222466Y-21516410D01*
X48222463Y-21516407D01*
X48222460Y-21516404D01*
X48057774Y-21366274D01*
X48057773Y-21366273D01*
X47985617Y-21321595D01*
X47868298Y-21248954D01*
X47868296Y-21248953D01*
X47664083Y-21169841D01*
X47660490Y-21168449D01*
X47441428Y-21127500D01*
X47218572Y-21127500D01*
X46999510Y-21168449D01*
X46999507Y-21168449D01*
X46999507Y-21168450D01*
X46791703Y-21248953D01*
X46791701Y-21248954D01*
X46602225Y-21366274D01*
X46437539Y-21516404D01*
X46437536Y-21516407D01*
X46303234Y-21694252D01*
X46203899Y-21893742D01*
X46203898Y-21893746D01*
X46153784Y-22069882D01*
X46142910Y-22108099D01*
X46122348Y-22330000D01*
X46142910Y-22551900D01*
X46142910Y-22551902D01*
X46142911Y-22551905D01*
X46203898Y-22766254D01*
X46303234Y-22965747D01*
X46437534Y-23143590D01*
X46602227Y-23293727D01*
X46746539Y-23383081D01*
X46790969Y-23410592D01*
X46791703Y-23411046D01*
X46999510Y-23491551D01*
X47218572Y-23532500D01*
X47218575Y-23532500D01*
X47441425Y-23532500D01*
X47441428Y-23532500D01*
X47660490Y-23491551D01*
X47868297Y-23411046D01*
X48057773Y-23293727D01*
X48222466Y-23143590D01*
X48356766Y-22965747D01*
X48456102Y-22766254D01*
X48480993Y-22678767D01*
X48518272Y-22619675D01*
X48581582Y-22590117D01*
X48650821Y-22599479D01*
X48704008Y-22644788D01*
X48719526Y-22678768D01*
X48744364Y-22766068D01*
X48744367Y-22766074D01*
X48843661Y-22965482D01*
X48859710Y-22986734D01*
X49346212Y-22500233D01*
X49357482Y-22542292D01*
X49429890Y-22667708D01*
X49532292Y-22770110D01*
X49657708Y-22842518D01*
X49699765Y-22853787D01*
X49215219Y-23338332D01*
X49331925Y-23410594D01*
X49331930Y-23410596D01*
X49521675Y-23484103D01*
X49577077Y-23526676D01*
X49600668Y-23592442D01*
X49584957Y-23660523D01*
X49534933Y-23709302D01*
X49521676Y-23715356D01*
X49331712Y-23788949D01*
X49331701Y-23788954D01*
X49142225Y-23906274D01*
X48977539Y-24056404D01*
X48977536Y-24056407D01*
X48843234Y-24234252D01*
X48743899Y-24433742D01*
X48682910Y-24648099D01*
X48662348Y-24870000D01*
X48682910Y-25091900D01*
X48682910Y-25091902D01*
X48682911Y-25091905D01*
X48743898Y-25306254D01*
X48843234Y-25505747D01*
X48977534Y-25683590D01*
X49142227Y-25833727D01*
X49286539Y-25923081D01*
X49331701Y-25951045D01*
X49331703Y-25951046D01*
X49520981Y-26024373D01*
X49576383Y-26066946D01*
X49599973Y-26132713D01*
X49584262Y-26200794D01*
X49534238Y-26249572D01*
X49520981Y-26255627D01*
X49331703Y-26328953D01*
X49331701Y-26328954D01*
X49142225Y-26446274D01*
X48977539Y-26596404D01*
X48977536Y-26596407D01*
X48843234Y-26774252D01*
X48743899Y-26973742D01*
X48682910Y-27188099D01*
X48662348Y-27410000D01*
X48682910Y-27631900D01*
X48682910Y-27631902D01*
X48682911Y-27631905D01*
X48743898Y-27846254D01*
X48843234Y-28045747D01*
X48977534Y-28223590D01*
X49142227Y-28373727D01*
X49286539Y-28463081D01*
X49331701Y-28491045D01*
X49331703Y-28491046D01*
X49520981Y-28564373D01*
X49576383Y-28606946D01*
X49599973Y-28672713D01*
X49584262Y-28740794D01*
X49534238Y-28789572D01*
X49520981Y-28795627D01*
X49331703Y-28868953D01*
X49331701Y-28868954D01*
X49142225Y-28986274D01*
X48977539Y-29136404D01*
X48977536Y-29136407D01*
X48843234Y-29314252D01*
X48743899Y-29513742D01*
X48682910Y-29728099D01*
X48662348Y-29950000D01*
X48682910Y-30171900D01*
X48682910Y-30171902D01*
X48682911Y-30171905D01*
X48743898Y-30386254D01*
X48843234Y-30585747D01*
X48977534Y-30763590D01*
X49142227Y-30913727D01*
X49286539Y-31003081D01*
X49331701Y-31031045D01*
X49331703Y-31031046D01*
X49520981Y-31104373D01*
X49576383Y-31146946D01*
X49599973Y-31212713D01*
X49584262Y-31280794D01*
X49534238Y-31329572D01*
X49520981Y-31335627D01*
X49331703Y-31408953D01*
X49331701Y-31408954D01*
X49142225Y-31526274D01*
X48977539Y-31676404D01*
X48977536Y-31676407D01*
X48843234Y-31854252D01*
X48743899Y-32053742D01*
X48682910Y-32268099D01*
X48662348Y-32490000D01*
X48682910Y-32711900D01*
X48682910Y-32711902D01*
X48682911Y-32711905D01*
X48743898Y-32926254D01*
X48843234Y-33125747D01*
X48977534Y-33303590D01*
X49142227Y-33453727D01*
X49286539Y-33543081D01*
X49331701Y-33571045D01*
X49331703Y-33571046D01*
X49520981Y-33644373D01*
X49576383Y-33686946D01*
X49599973Y-33752713D01*
X49584262Y-33820794D01*
X49534238Y-33869572D01*
X49520981Y-33875627D01*
X49331703Y-33948953D01*
X49331701Y-33948954D01*
X49142225Y-34066274D01*
X48977539Y-34216404D01*
X48977536Y-34216407D01*
X48843234Y-34394252D01*
X48743899Y-34593742D01*
X48682910Y-34808099D01*
X48662348Y-35030000D01*
X48682910Y-35251900D01*
X48682910Y-35251902D01*
X48682911Y-35251905D01*
X48743898Y-35466254D01*
X48843234Y-35665747D01*
X48977534Y-35843590D01*
X49142227Y-35993727D01*
X49286539Y-36083081D01*
X49331701Y-36111045D01*
X49331703Y-36111046D01*
X49520981Y-36184373D01*
X49576383Y-36226946D01*
X49599973Y-36292713D01*
X49584262Y-36360794D01*
X49534238Y-36409572D01*
X49520981Y-36415627D01*
X49331703Y-36488953D01*
X49331701Y-36488954D01*
X49142225Y-36606274D01*
X48977539Y-36756404D01*
X48977536Y-36756407D01*
X48843234Y-36934252D01*
X48743899Y-37133742D01*
X48682910Y-37348099D01*
X48662348Y-37570000D01*
X48682910Y-37791900D01*
X48682910Y-37791902D01*
X48682911Y-37791905D01*
X48743898Y-38006254D01*
X48843234Y-38205747D01*
X48977534Y-38383590D01*
X49142227Y-38533727D01*
X49286539Y-38623081D01*
X49331701Y-38651045D01*
X49331703Y-38651046D01*
X49520981Y-38724373D01*
X49576383Y-38766946D01*
X49599973Y-38832713D01*
X49584262Y-38900794D01*
X49534238Y-38949572D01*
X49520981Y-38955627D01*
X49331703Y-39028953D01*
X49331701Y-39028954D01*
X49142225Y-39146274D01*
X48977539Y-39296404D01*
X48977536Y-39296407D01*
X48843234Y-39474252D01*
X48743899Y-39673742D01*
X48682910Y-39888099D01*
X48662348Y-40110000D01*
X48682910Y-40331900D01*
X48682910Y-40331902D01*
X48682911Y-40331905D01*
X48743898Y-40546254D01*
X48843234Y-40745747D01*
X48977534Y-40923590D01*
X49142227Y-41073727D01*
X49286539Y-41163081D01*
X49331701Y-41191045D01*
X49331703Y-41191046D01*
X49520981Y-41264373D01*
X49576383Y-41306946D01*
X49599973Y-41372713D01*
X49584262Y-41440794D01*
X49534238Y-41489572D01*
X49520981Y-41495627D01*
X49331703Y-41568953D01*
X49331701Y-41568954D01*
X49142225Y-41686274D01*
X48977539Y-41836404D01*
X48977536Y-41836407D01*
X48843234Y-42014252D01*
X48743899Y-42213742D01*
X48743898Y-42213746D01*
X48690681Y-42400788D01*
X48682910Y-42428099D01*
X48662348Y-42650000D01*
X48682910Y-42871900D01*
X48682910Y-42871902D01*
X48682911Y-42871905D01*
X48743898Y-43086254D01*
X48743899Y-43086257D01*
X48768354Y-43135368D01*
X48843234Y-43285747D01*
X48977534Y-43463590D01*
X49142227Y-43613727D01*
X49286539Y-43703081D01*
X49331701Y-43731045D01*
X49331703Y-43731046D01*
X49520981Y-43804373D01*
X49576383Y-43846946D01*
X49599973Y-43912713D01*
X49584262Y-43980794D01*
X49534238Y-44029572D01*
X49520981Y-44035627D01*
X49331703Y-44108953D01*
X49331701Y-44108954D01*
X49142225Y-44226274D01*
X48977539Y-44376404D01*
X48977536Y-44376407D01*
X48843234Y-44554252D01*
X48743898Y-44753744D01*
X48743895Y-44753750D01*
X48693273Y-44931673D01*
X48655994Y-44990766D01*
X48592685Y-45020324D01*
X48523445Y-45010962D01*
X48470259Y-44965653D01*
X48454741Y-44931675D01*
X48409278Y-44771886D01*
X48409276Y-44771882D01*
X48362068Y-44677076D01*
X48314073Y-44580688D01*
X48185356Y-44410240D01*
X48027512Y-44266345D01*
X48027509Y-44266343D01*
X48027508Y-44266342D01*
X47845917Y-44153906D01*
X47845911Y-44153903D01*
X47762482Y-44121582D01*
X47646748Y-44076747D01*
X47436795Y-44037500D01*
X47223205Y-44037500D01*
X47013252Y-44076747D01*
X46965406Y-44095282D01*
X46814088Y-44153903D01*
X46814082Y-44153906D01*
X46632491Y-44266342D01*
X46474643Y-44410240D01*
X46345927Y-44580687D01*
X46250723Y-44771882D01*
X46192270Y-44977326D01*
X46183471Y-45072287D01*
X46157685Y-45137224D01*
X46100884Y-45177911D01*
X46031103Y-45181431D01*
X45970497Y-45146666D01*
X45938307Y-45084653D01*
X45936529Y-45072287D01*
X45930846Y-45010962D01*
X45927729Y-44977322D01*
X45869278Y-44771886D01*
X45774073Y-44580688D01*
X45645356Y-44410240D01*
X45487512Y-44266345D01*
X45487509Y-44266343D01*
X45487508Y-44266342D01*
X45305917Y-44153906D01*
X45305911Y-44153903D01*
X45222482Y-44121582D01*
X45106748Y-44076747D01*
X44896795Y-44037500D01*
X44683205Y-44037500D01*
X44473252Y-44076747D01*
X44425406Y-44095282D01*
X44274088Y-44153903D01*
X44274082Y-44153906D01*
X44092491Y-44266342D01*
X43934643Y-44410240D01*
X43805927Y-44580687D01*
X43710723Y-44771882D01*
X43652270Y-44977326D01*
X43643471Y-45072287D01*
X43617685Y-45137224D01*
X43560884Y-45177911D01*
X43491103Y-45181431D01*
X43430497Y-45146666D01*
X43398307Y-45084653D01*
X43396529Y-45072287D01*
X43390846Y-45010962D01*
X43387729Y-44977322D01*
X43329278Y-44771886D01*
X43234073Y-44580688D01*
X43105356Y-44410240D01*
X42947512Y-44266345D01*
X42947509Y-44266343D01*
X42947508Y-44266342D01*
X42765917Y-44153906D01*
X42765911Y-44153903D01*
X42682482Y-44121582D01*
X42566748Y-44076747D01*
X42356795Y-44037500D01*
X42143205Y-44037500D01*
X41933252Y-44076747D01*
X41885406Y-44095282D01*
X41734088Y-44153903D01*
X41734082Y-44153906D01*
X41552491Y-44266342D01*
X41394643Y-44410240D01*
X41265927Y-44580687D01*
X41170723Y-44771882D01*
X41112270Y-44977326D01*
X41103471Y-45072287D01*
X41077685Y-45137224D01*
X41020884Y-45177911D01*
X40951103Y-45181431D01*
X40890497Y-45146666D01*
X40858307Y-45084653D01*
X40856529Y-45072287D01*
X40850846Y-45010962D01*
X40847729Y-44977322D01*
X40789278Y-44771886D01*
X40694073Y-44580688D01*
X40565356Y-44410240D01*
X40407512Y-44266345D01*
X40407509Y-44266343D01*
X40407508Y-44266342D01*
X40225917Y-44153906D01*
X40225911Y-44153903D01*
X40142482Y-44121582D01*
X40026748Y-44076747D01*
X39816795Y-44037500D01*
X39603205Y-44037500D01*
X39393252Y-44076747D01*
X39345406Y-44095282D01*
X39194088Y-44153903D01*
X39194082Y-44153906D01*
X39012491Y-44266342D01*
X38854643Y-44410240D01*
X38725927Y-44580687D01*
X38630723Y-44771882D01*
X38572270Y-44977326D01*
X38563471Y-45072287D01*
X38537685Y-45137224D01*
X38480884Y-45177911D01*
X38411103Y-45181431D01*
X38350497Y-45146666D01*
X38318307Y-45084653D01*
X38316529Y-45072287D01*
X38310846Y-45010962D01*
X38307729Y-44977322D01*
X38249278Y-44771886D01*
X38154073Y-44580688D01*
X38025356Y-44410240D01*
X37867512Y-44266345D01*
X37867509Y-44266343D01*
X37867508Y-44266342D01*
X37685917Y-44153906D01*
X37685911Y-44153903D01*
X37602482Y-44121582D01*
X37486748Y-44076747D01*
X37276795Y-44037500D01*
X37063205Y-44037500D01*
X36853252Y-44076747D01*
X36805406Y-44095282D01*
X36654088Y-44153903D01*
X36654082Y-44153906D01*
X36472491Y-44266342D01*
X36314643Y-44410240D01*
X36185927Y-44580687D01*
X36090722Y-44771884D01*
X36090719Y-44771890D01*
X36045258Y-44931673D01*
X36007979Y-44990766D01*
X35944670Y-45020324D01*
X35875430Y-45010962D01*
X35822243Y-44965652D01*
X35806727Y-44931676D01*
X35756102Y-44753746D01*
X35756100Y-44753742D01*
X35669929Y-44580688D01*
X35656766Y-44554253D01*
X35522466Y-44376410D01*
X35522463Y-44376407D01*
X35522460Y-44376404D01*
X35357774Y-44226274D01*
X35357773Y-44226273D01*
X35240892Y-44153903D01*
X35168298Y-44108954D01*
X35168296Y-44108953D01*
X34983853Y-44037500D01*
X34979017Y-44035626D01*
X34923617Y-43993054D01*
X34900026Y-43927287D01*
X34915737Y-43859207D01*
X34965761Y-43810428D01*
X34979015Y-43804374D01*
X35168297Y-43731046D01*
X35357773Y-43613727D01*
X35522466Y-43463590D01*
X35656766Y-43285747D01*
X35756102Y-43086254D01*
X35817089Y-42871905D01*
X35837652Y-42650000D01*
X35817089Y-42428095D01*
X35756102Y-42213746D01*
X35656766Y-42014253D01*
X35522466Y-41836410D01*
X35522463Y-41836407D01*
X35522460Y-41836404D01*
X35357774Y-41686274D01*
X35357773Y-41686273D01*
X35339560Y-41674996D01*
X46444435Y-41674996D01*
X46444435Y-41675003D01*
X46464630Y-41854249D01*
X46464631Y-41854254D01*
X46524211Y-42024523D01*
X46539724Y-42049211D01*
X46620184Y-42177262D01*
X46747738Y-42304816D01*
X46900478Y-42400789D01*
X47070745Y-42460368D01*
X47070750Y-42460369D01*
X47249996Y-42480565D01*
X47250000Y-42480565D01*
X47250004Y-42480565D01*
X47429249Y-42460369D01*
X47429252Y-42460368D01*
X47429255Y-42460368D01*
X47599522Y-42400789D01*
X47752262Y-42304816D01*
X47879816Y-42177262D01*
X47975789Y-42024522D01*
X48035368Y-41854255D01*
X48035369Y-41854249D01*
X48055565Y-41675003D01*
X48055565Y-41674996D01*
X48035369Y-41495750D01*
X48035368Y-41495745D01*
X47975788Y-41325476D01*
X47936582Y-41263080D01*
X47879816Y-41172738D01*
X47752262Y-41045184D01*
X47599523Y-40949211D01*
X47429254Y-40889631D01*
X47429249Y-40889630D01*
X47250004Y-40869435D01*
X47249996Y-40869435D01*
X47070750Y-40889630D01*
X47070745Y-40889631D01*
X46900476Y-40949211D01*
X46747737Y-41045184D01*
X46620184Y-41172737D01*
X46524211Y-41325476D01*
X46464631Y-41495745D01*
X46464630Y-41495750D01*
X46444435Y-41674996D01*
X35339560Y-41674996D01*
X35257540Y-41624211D01*
X35168298Y-41568954D01*
X35168296Y-41568953D01*
X34979323Y-41495745D01*
X34979017Y-41495626D01*
X34923617Y-41453054D01*
X34900026Y-41387287D01*
X34915737Y-41319207D01*
X34965761Y-41270428D01*
X34979015Y-41264374D01*
X35168297Y-41191046D01*
X35357773Y-41073727D01*
X35522466Y-40923590D01*
X35656766Y-40745747D01*
X35756102Y-40546254D01*
X35817089Y-40331905D01*
X35837652Y-40110000D01*
X35817089Y-39888095D01*
X35756102Y-39673746D01*
X35656766Y-39474253D01*
X35522466Y-39296410D01*
X35522463Y-39296407D01*
X35522460Y-39296404D01*
X35357774Y-39146274D01*
X35357773Y-39146273D01*
X35285617Y-39101595D01*
X35168298Y-39028954D01*
X35168296Y-39028953D01*
X35025978Y-38973819D01*
X34979017Y-38955626D01*
X34923617Y-38913054D01*
X34900026Y-38847287D01*
X34915737Y-38779207D01*
X34965761Y-38730428D01*
X34979015Y-38724374D01*
X35168297Y-38651046D01*
X35357773Y-38533727D01*
X35522466Y-38383590D01*
X35656766Y-38205747D01*
X35756102Y-38006254D01*
X35817089Y-37791905D01*
X35837652Y-37570000D01*
X35817089Y-37348095D01*
X35756102Y-37133746D01*
X35656766Y-36934253D01*
X35522466Y-36756410D01*
X35522463Y-36756407D01*
X35522460Y-36756404D01*
X35357774Y-36606274D01*
X35357773Y-36606273D01*
X35285617Y-36561595D01*
X35168298Y-36488954D01*
X35168296Y-36488953D01*
X35025978Y-36433819D01*
X34979017Y-36415626D01*
X34923617Y-36373054D01*
X34900026Y-36307287D01*
X34915737Y-36239207D01*
X34965761Y-36190428D01*
X34979015Y-36184374D01*
X35168297Y-36111046D01*
X35357773Y-35993727D01*
X35522466Y-35843590D01*
X35656766Y-35665747D01*
X35756102Y-35466254D01*
X35817089Y-35251905D01*
X35837652Y-35030000D01*
X35817089Y-34808095D01*
X35756102Y-34593746D01*
X35656766Y-34394253D01*
X35522466Y-34216410D01*
X35522463Y-34216407D01*
X35522460Y-34216404D01*
X35357774Y-34066274D01*
X35357773Y-34066273D01*
X35285617Y-34021595D01*
X35168298Y-33948954D01*
X35168296Y-33948953D01*
X35025978Y-33893819D01*
X34979017Y-33875626D01*
X34923617Y-33833054D01*
X34900026Y-33767287D01*
X34915737Y-33699207D01*
X34965761Y-33650428D01*
X34979015Y-33644374D01*
X35168297Y-33571046D01*
X35357773Y-33453727D01*
X35522466Y-33303590D01*
X35656766Y-33125747D01*
X35756102Y-32926254D01*
X35817089Y-32711905D01*
X35837652Y-32490000D01*
X35817089Y-32268095D01*
X35756102Y-32053746D01*
X35656766Y-31854253D01*
X35522466Y-31676410D01*
X35522463Y-31676407D01*
X35522460Y-31676404D01*
X35357774Y-31526274D01*
X35357773Y-31526273D01*
X35285617Y-31481595D01*
X35168298Y-31408954D01*
X35168296Y-31408953D01*
X35025978Y-31353819D01*
X34979017Y-31335626D01*
X34923617Y-31293054D01*
X34900026Y-31227287D01*
X34915737Y-31159207D01*
X34965761Y-31110428D01*
X34979015Y-31104374D01*
X35168297Y-31031046D01*
X35357773Y-30913727D01*
X35522466Y-30763590D01*
X35656766Y-30585747D01*
X35756102Y-30386254D01*
X35817089Y-30171905D01*
X35837652Y-29950000D01*
X35817089Y-29728095D01*
X35756102Y-29513746D01*
X35656766Y-29314253D01*
X35522466Y-29136410D01*
X35522463Y-29136407D01*
X35522460Y-29136404D01*
X35357774Y-28986274D01*
X35357773Y-28986273D01*
X35285617Y-28941595D01*
X35168298Y-28868954D01*
X35168296Y-28868953D01*
X35025978Y-28813819D01*
X34979017Y-28795626D01*
X34923617Y-28753054D01*
X34900026Y-28687287D01*
X34915737Y-28619207D01*
X34965761Y-28570428D01*
X34979015Y-28564374D01*
X35168297Y-28491046D01*
X35357773Y-28373727D01*
X35522466Y-28223590D01*
X35656766Y-28045747D01*
X35756102Y-27846254D01*
X35817089Y-27631905D01*
X35837652Y-27410000D01*
X35817089Y-27188095D01*
X35756102Y-26973746D01*
X35733522Y-26928400D01*
X37842529Y-26928400D01*
X37862359Y-27117074D01*
X37862360Y-27117077D01*
X37920981Y-27297495D01*
X37920984Y-27297502D01*
X38015841Y-27461798D01*
X38142783Y-27602782D01*
X38245103Y-27677122D01*
X38296265Y-27714294D01*
X38362794Y-27743913D01*
X38469576Y-27791456D01*
X38655143Y-27830900D01*
X38844857Y-27830900D01*
X39030424Y-27791456D01*
X39199568Y-27716148D01*
X39268815Y-27706865D01*
X39300428Y-27716146D01*
X39469576Y-27791456D01*
X39655143Y-27830900D01*
X39844857Y-27830900D01*
X40030424Y-27791456D01*
X40199568Y-27716148D01*
X40268815Y-27706865D01*
X40300428Y-27716146D01*
X40469576Y-27791456D01*
X40655143Y-27830900D01*
X40844857Y-27830900D01*
X41030424Y-27791456D01*
X41199568Y-27716148D01*
X41268815Y-27706865D01*
X41300428Y-27716146D01*
X41469576Y-27791456D01*
X41655143Y-27830900D01*
X41844857Y-27830900D01*
X42030424Y-27791456D01*
X42199568Y-27716148D01*
X42268815Y-27706865D01*
X42300428Y-27716146D01*
X42469576Y-27791456D01*
X42655143Y-27830900D01*
X42844857Y-27830900D01*
X43030424Y-27791456D01*
X43199568Y-27716148D01*
X43268815Y-27706865D01*
X43300428Y-27716146D01*
X43469576Y-27791456D01*
X43655143Y-27830900D01*
X43844857Y-27830900D01*
X44030424Y-27791456D01*
X44199568Y-27716148D01*
X44268815Y-27706865D01*
X44300428Y-27716146D01*
X44469576Y-27791456D01*
X44655143Y-27830900D01*
X44844857Y-27830900D01*
X45030424Y-27791456D01*
X45199568Y-27716148D01*
X45268815Y-27706865D01*
X45300428Y-27716146D01*
X45469576Y-27791456D01*
X45655143Y-27830900D01*
X45844857Y-27830900D01*
X46030424Y-27791456D01*
X46203736Y-27714293D01*
X46357217Y-27602782D01*
X46484159Y-27461798D01*
X46579016Y-27297502D01*
X46637641Y-27117074D01*
X46657471Y-26928400D01*
X46637641Y-26739726D01*
X46579016Y-26559298D01*
X46484159Y-26395002D01*
X46357217Y-26254018D01*
X46283961Y-26200794D01*
X46203734Y-26142505D01*
X46061561Y-26079207D01*
X46030424Y-26065344D01*
X46030422Y-26065343D01*
X46030421Y-26065343D01*
X45844857Y-26025900D01*
X45655143Y-26025900D01*
X45469576Y-26065343D01*
X45469575Y-26065343D01*
X45300434Y-26140650D01*
X45231184Y-26149934D01*
X45199567Y-26140650D01*
X45030424Y-26065344D01*
X45030422Y-26065343D01*
X45030421Y-26065343D01*
X44844857Y-26025900D01*
X44655143Y-26025900D01*
X44469576Y-26065343D01*
X44469575Y-26065343D01*
X44300434Y-26140650D01*
X44231184Y-26149934D01*
X44199567Y-26140650D01*
X44030424Y-26065344D01*
X44030422Y-26065343D01*
X44030421Y-26065343D01*
X43844857Y-26025900D01*
X43655143Y-26025900D01*
X43469576Y-26065343D01*
X43469575Y-26065343D01*
X43300434Y-26140650D01*
X43231184Y-26149934D01*
X43199567Y-26140650D01*
X43030424Y-26065344D01*
X43030422Y-26065343D01*
X43030421Y-26065343D01*
X42844857Y-26025900D01*
X42655143Y-26025900D01*
X42469576Y-26065343D01*
X42469575Y-26065343D01*
X42300434Y-26140650D01*
X42231184Y-26149934D01*
X42199567Y-26140650D01*
X42030424Y-26065344D01*
X42030422Y-26065343D01*
X42030421Y-26065343D01*
X41844857Y-26025900D01*
X41655143Y-26025900D01*
X41469576Y-26065343D01*
X41469575Y-26065343D01*
X41300434Y-26140650D01*
X41231184Y-26149934D01*
X41199567Y-26140650D01*
X41030424Y-26065344D01*
X41030422Y-26065343D01*
X41030421Y-26065343D01*
X40844857Y-26025900D01*
X40655143Y-26025900D01*
X40469576Y-26065343D01*
X40469575Y-26065343D01*
X40300434Y-26140650D01*
X40231184Y-26149934D01*
X40199567Y-26140650D01*
X40030424Y-26065344D01*
X40030422Y-26065343D01*
X40030421Y-26065343D01*
X39844857Y-26025900D01*
X39655143Y-26025900D01*
X39469576Y-26065343D01*
X39469575Y-26065343D01*
X39300434Y-26140650D01*
X39231184Y-26149934D01*
X39199567Y-26140650D01*
X39030424Y-26065344D01*
X39030422Y-26065343D01*
X39030421Y-26065343D01*
X38844857Y-26025900D01*
X38655143Y-26025900D01*
X38469576Y-26065343D01*
X38469571Y-26065345D01*
X38296265Y-26142507D01*
X38296260Y-26142509D01*
X38142784Y-26254016D01*
X38142782Y-26254018D01*
X38015840Y-26395003D01*
X37920984Y-26559297D01*
X37920981Y-26559304D01*
X37862360Y-26739722D01*
X37862359Y-26739726D01*
X37842529Y-26928400D01*
X35733522Y-26928400D01*
X35656766Y-26774253D01*
X35522466Y-26596410D01*
X35522463Y-26596407D01*
X35522460Y-26596404D01*
X35357774Y-26446274D01*
X35357773Y-26446273D01*
X35274968Y-26395002D01*
X35168298Y-26328954D01*
X35168296Y-26328953D01*
X35025978Y-26273819D01*
X34979017Y-26255626D01*
X34923617Y-26213054D01*
X34900026Y-26147287D01*
X34915737Y-26079207D01*
X34965761Y-26030428D01*
X34979015Y-26024374D01*
X35168297Y-25951046D01*
X35357773Y-25833727D01*
X35522466Y-25683590D01*
X35656766Y-25505747D01*
X35756102Y-25306254D01*
X35817089Y-25091905D01*
X35837652Y-24870000D01*
X35817089Y-24648095D01*
X35756102Y-24433746D01*
X35656766Y-24234253D01*
X35522466Y-24056410D01*
X35522463Y-24056407D01*
X35522460Y-24056404D01*
X35357774Y-23906274D01*
X35357773Y-23906273D01*
X35285617Y-23861595D01*
X35168298Y-23788954D01*
X35168296Y-23788953D01*
X35025978Y-23733819D01*
X34979017Y-23715626D01*
X34923617Y-23673054D01*
X34900026Y-23607287D01*
X34915737Y-23539207D01*
X34965761Y-23490428D01*
X34979015Y-23484374D01*
X35168297Y-23411046D01*
X35357773Y-23293727D01*
X35522466Y-23143590D01*
X35656766Y-22965747D01*
X35756102Y-22766254D01*
X35817089Y-22551905D01*
X35837652Y-22330000D01*
X35817089Y-22108095D01*
X35756102Y-21893746D01*
X35656766Y-21694253D01*
X35522466Y-21516410D01*
X35522463Y-21516407D01*
X35522460Y-21516404D01*
X35357774Y-21366274D01*
X35357773Y-21366273D01*
X35285617Y-21321595D01*
X35168298Y-21248954D01*
X35168287Y-21248949D01*
X34978323Y-21175356D01*
X34922921Y-21132784D01*
X34899331Y-21067017D01*
X34900950Y-21060000D01*
X39822563Y-21060000D01*
X39842270Y-21272673D01*
X39842270Y-21272675D01*
X39842271Y-21272678D01*
X39868901Y-21366273D01*
X39900723Y-21478117D01*
X39995927Y-21669312D01*
X40014959Y-21694515D01*
X40124644Y-21839760D01*
X40282488Y-21983655D01*
X40282490Y-21983656D01*
X40282491Y-21983657D01*
X40464082Y-22096093D01*
X40464088Y-22096096D01*
X40486513Y-22104783D01*
X40663252Y-22173253D01*
X40873205Y-22212500D01*
X40873207Y-22212500D01*
X41086793Y-22212500D01*
X41086795Y-22212500D01*
X41296748Y-22173253D01*
X41495914Y-22096095D01*
X41677512Y-21983655D01*
X41835356Y-21839760D01*
X41964073Y-21669312D01*
X42059278Y-21478114D01*
X42117729Y-21272678D01*
X42126529Y-21177712D01*
X42152315Y-21112775D01*
X42209116Y-21072088D01*
X42278897Y-21068568D01*
X42339503Y-21103333D01*
X42371693Y-21165346D01*
X42373471Y-21177713D01*
X42382270Y-21272673D01*
X42382270Y-21272675D01*
X42382271Y-21272678D01*
X42408901Y-21366273D01*
X42440723Y-21478117D01*
X42535927Y-21669312D01*
X42554959Y-21694515D01*
X42664644Y-21839760D01*
X42822488Y-21983655D01*
X42822490Y-21983656D01*
X42822491Y-21983657D01*
X43004082Y-22096093D01*
X43004088Y-22096096D01*
X43026513Y-22104783D01*
X43203252Y-22173253D01*
X43413205Y-22212500D01*
X43413207Y-22212500D01*
X43626793Y-22212500D01*
X43626795Y-22212500D01*
X43836748Y-22173253D01*
X44035914Y-22096095D01*
X44217512Y-21983655D01*
X44375356Y-21839760D01*
X44504073Y-21669312D01*
X44599278Y-21478114D01*
X44657729Y-21272678D01*
X44677437Y-21060000D01*
X44657729Y-20847322D01*
X44599278Y-20641886D01*
X44504073Y-20450688D01*
X44375356Y-20280240D01*
X44217512Y-20136345D01*
X44217509Y-20136343D01*
X44217508Y-20136342D01*
X44035917Y-20023906D01*
X44035911Y-20023903D01*
X43943504Y-19988105D01*
X43836748Y-19946747D01*
X43626795Y-19907500D01*
X43413205Y-19907500D01*
X43203252Y-19946747D01*
X43155406Y-19965282D01*
X43004088Y-20023903D01*
X43004082Y-20023906D01*
X42822491Y-20136342D01*
X42664643Y-20280240D01*
X42535927Y-20450687D01*
X42440723Y-20641882D01*
X42382270Y-20847326D01*
X42373471Y-20942287D01*
X42347685Y-21007224D01*
X42290884Y-21047911D01*
X42221103Y-21051431D01*
X42160497Y-21016666D01*
X42128307Y-20954653D01*
X42126529Y-20942287D01*
X42119927Y-20871045D01*
X42117729Y-20847322D01*
X42059278Y-20641886D01*
X41964073Y-20450688D01*
X41835356Y-20280240D01*
X41677512Y-20136345D01*
X41677509Y-20136343D01*
X41677508Y-20136342D01*
X41495917Y-20023906D01*
X41495911Y-20023903D01*
X41403504Y-19988105D01*
X41296748Y-19946747D01*
X41086795Y-19907500D01*
X40873205Y-19907500D01*
X40663252Y-19946747D01*
X40615406Y-19965282D01*
X40464088Y-20023903D01*
X40464082Y-20023906D01*
X40282491Y-20136342D01*
X40124643Y-20280240D01*
X39995927Y-20450687D01*
X39900723Y-20641882D01*
X39842270Y-20847326D01*
X39822563Y-21060000D01*
X34900950Y-21060000D01*
X34915042Y-20998936D01*
X34965066Y-20950158D01*
X34978323Y-20944103D01*
X35168077Y-20870592D01*
X35284779Y-20798332D01*
X34800235Y-20313787D01*
X34842292Y-20302518D01*
X34967708Y-20230110D01*
X35070110Y-20127708D01*
X35142518Y-20002292D01*
X35153787Y-19960234D01*
X35640289Y-20446735D01*
X35656337Y-20425484D01*
X35656342Y-20425476D01*
X35755631Y-20226076D01*
X35816595Y-20011808D01*
X35837149Y-19790000D01*
X35837149Y-19789999D01*
X35816595Y-19568191D01*
X35755631Y-19353923D01*
X35656342Y-19154524D01*
X35656334Y-19154511D01*
X35640288Y-19133263D01*
X35153787Y-19619764D01*
X35142518Y-19577708D01*
X35070110Y-19452292D01*
X34967708Y-19349890D01*
X34842292Y-19277482D01*
X34800234Y-19266212D01*
X35284779Y-18781666D01*
X35284778Y-18781665D01*
X35168076Y-18709406D01*
X35168070Y-18709404D01*
X34960349Y-18628933D01*
X34741380Y-18588000D01*
X34518620Y-18588000D01*
X34299650Y-18628933D01*
X34299649Y-18628933D01*
X34091929Y-18709404D01*
X34091923Y-18709407D01*
X33975220Y-18781665D01*
X33975219Y-18781666D01*
X34459766Y-19266212D01*
X34417708Y-19277482D01*
X34292292Y-19349890D01*
X34189890Y-19452292D01*
X34117482Y-19577708D01*
X34106212Y-19619765D01*
X33619710Y-19133263D01*
X33603662Y-19154515D01*
X33504368Y-19353923D01*
X33443404Y-19568191D01*
X33422851Y-19789999D01*
X33422851Y-19790000D01*
X33443404Y-20011808D01*
X33504368Y-20226076D01*
X33603661Y-20425482D01*
X33619710Y-20446734D01*
X34106212Y-19960233D01*
X34117482Y-20002292D01*
X34189890Y-20127708D01*
X34292292Y-20230110D01*
X34417708Y-20302518D01*
X34459765Y-20313787D01*
X33975219Y-20798332D01*
X34091925Y-20870594D01*
X34091930Y-20870596D01*
X34281675Y-20944103D01*
X34337077Y-20986676D01*
X34360668Y-21052442D01*
X34344957Y-21120523D01*
X34294933Y-21169302D01*
X34281676Y-21175356D01*
X34091712Y-21248949D01*
X34091701Y-21248954D01*
X33902225Y-21366274D01*
X33737539Y-21516404D01*
X33737536Y-21516407D01*
X33603234Y-21694252D01*
X33503899Y-21893742D01*
X33503898Y-21893746D01*
X33453784Y-22069882D01*
X33442910Y-22108099D01*
X33422348Y-22330000D01*
X32600500Y-22330000D01*
X32600500Y-18052135D01*
X51549500Y-18052135D01*
X51549500Y-19847870D01*
X51549501Y-19847876D01*
X51555908Y-19907483D01*
X51606202Y-20042328D01*
X51606206Y-20042335D01*
X51692452Y-20157544D01*
X51692455Y-20157547D01*
X51807664Y-20243793D01*
X51807671Y-20243797D01*
X51942517Y-20294091D01*
X51942516Y-20294091D01*
X51949444Y-20294835D01*
X52002127Y-20300500D01*
X53797872Y-20300499D01*
X53857483Y-20294091D01*
X53992331Y-20243796D01*
X54107546Y-20157546D01*
X54193796Y-20042331D01*
X54200669Y-20023905D01*
X54213874Y-19988498D01*
X54243002Y-19910401D01*
X54284872Y-19854468D01*
X54350337Y-19830050D01*
X54418610Y-19844901D01*
X54446865Y-19866053D01*
X54568917Y-19988105D01*
X54762421Y-20123600D01*
X54976507Y-20223429D01*
X54976516Y-20223433D01*
X55190000Y-20280634D01*
X55190000Y-19383012D01*
X55247007Y-19415925D01*
X55374174Y-19450000D01*
X55505826Y-19450000D01*
X55632993Y-19415925D01*
X55690000Y-19383012D01*
X55690000Y-20280633D01*
X55903483Y-20223433D01*
X55903492Y-20223429D01*
X56117578Y-20123600D01*
X56311082Y-19988105D01*
X56478105Y-19821082D01*
X56608119Y-19635405D01*
X56662696Y-19591781D01*
X56732195Y-19584588D01*
X56794549Y-19616110D01*
X56811269Y-19635405D01*
X56941505Y-19821401D01*
X57108599Y-19988495D01*
X57205384Y-20056265D01*
X57302165Y-20124032D01*
X57302167Y-20124033D01*
X57302170Y-20124035D01*
X57516337Y-20223903D01*
X57516343Y-20223904D01*
X57516344Y-20223905D01*
X57525111Y-20226254D01*
X57744592Y-20285063D01*
X57921034Y-20300500D01*
X57979999Y-20305659D01*
X57980000Y-20305659D01*
X57980001Y-20305659D01*
X58038966Y-20300500D01*
X58215408Y-20285063D01*
X58443663Y-20223903D01*
X58657830Y-20124035D01*
X58851401Y-19988495D01*
X59018495Y-19821401D01*
X59148425Y-19635842D01*
X59203002Y-19592217D01*
X59272500Y-19585023D01*
X59334855Y-19616546D01*
X59351575Y-19635842D01*
X59481500Y-19821395D01*
X59481505Y-19821401D01*
X59648599Y-19988495D01*
X59745384Y-20056265D01*
X59842165Y-20124032D01*
X59842167Y-20124033D01*
X59842170Y-20124035D01*
X60056337Y-20223903D01*
X60056343Y-20223904D01*
X60056344Y-20223905D01*
X60065111Y-20226254D01*
X60284592Y-20285063D01*
X60461034Y-20300500D01*
X60519999Y-20305659D01*
X60520000Y-20305659D01*
X60520001Y-20305659D01*
X60578966Y-20300500D01*
X60755408Y-20285063D01*
X60983663Y-20223903D01*
X61197830Y-20124035D01*
X61391401Y-19988495D01*
X61558495Y-19821401D01*
X61694035Y-19627830D01*
X61793903Y-19413663D01*
X61855063Y-19185408D01*
X61875659Y-18950000D01*
X61855063Y-18714592D01*
X61793903Y-18486337D01*
X61694035Y-18272171D01*
X61688731Y-18264595D01*
X61558494Y-18078597D01*
X61391402Y-17911506D01*
X61391395Y-17911501D01*
X61197834Y-17775967D01*
X61197830Y-17775965D01*
X61197828Y-17775964D01*
X60983663Y-17676097D01*
X60983659Y-17676096D01*
X60983655Y-17676094D01*
X60755413Y-17614938D01*
X60755403Y-17614936D01*
X60520001Y-17594341D01*
X60519999Y-17594341D01*
X60284596Y-17614936D01*
X60284586Y-17614938D01*
X60056344Y-17676094D01*
X60056335Y-17676098D01*
X59842171Y-17775964D01*
X59842169Y-17775965D01*
X59648597Y-17911505D01*
X59481505Y-18078597D01*
X59351575Y-18264158D01*
X59296998Y-18307783D01*
X59227500Y-18314977D01*
X59165145Y-18283454D01*
X59148425Y-18264158D01*
X59018494Y-18078597D01*
X58851402Y-17911506D01*
X58851395Y-17911501D01*
X58657834Y-17775967D01*
X58657830Y-17775965D01*
X58657828Y-17775964D01*
X58443663Y-17676097D01*
X58443659Y-17676096D01*
X58443655Y-17676094D01*
X58215413Y-17614938D01*
X58215403Y-17614936D01*
X57980001Y-17594341D01*
X57979999Y-17594341D01*
X57744596Y-17614936D01*
X57744586Y-17614938D01*
X57516344Y-17676094D01*
X57516335Y-17676098D01*
X57302171Y-17775964D01*
X57302169Y-17775965D01*
X57108597Y-17911505D01*
X56941508Y-18078594D01*
X56811269Y-18264595D01*
X56756692Y-18308219D01*
X56687193Y-18315412D01*
X56624839Y-18283890D01*
X56608119Y-18264594D01*
X56478113Y-18078926D01*
X56478108Y-18078920D01*
X56311082Y-17911894D01*
X56117578Y-17776399D01*
X55903492Y-17676570D01*
X55903486Y-17676567D01*
X55690000Y-17619364D01*
X55690000Y-18516988D01*
X55632993Y-18484075D01*
X55505826Y-18450000D01*
X55374174Y-18450000D01*
X55247007Y-18484075D01*
X55190000Y-18516988D01*
X55190000Y-17619364D01*
X55189999Y-17619364D01*
X54976513Y-17676567D01*
X54976507Y-17676570D01*
X54762422Y-17776399D01*
X54762420Y-17776400D01*
X54568926Y-17911886D01*
X54446865Y-18033947D01*
X54385542Y-18067431D01*
X54315850Y-18062447D01*
X54259917Y-18020575D01*
X54243002Y-17989598D01*
X54193797Y-17857671D01*
X54193793Y-17857664D01*
X54107547Y-17742455D01*
X54107544Y-17742452D01*
X53992335Y-17656206D01*
X53992328Y-17656202D01*
X53857482Y-17605908D01*
X53857483Y-17605908D01*
X53797883Y-17599501D01*
X53797881Y-17599500D01*
X53797873Y-17599500D01*
X53797864Y-17599500D01*
X52002129Y-17599500D01*
X52002123Y-17599501D01*
X51942516Y-17605908D01*
X51807671Y-17656202D01*
X51807664Y-17656206D01*
X51692455Y-17742452D01*
X51692452Y-17742455D01*
X51606206Y-17857664D01*
X51606202Y-17857671D01*
X51555908Y-17992517D01*
X51549501Y-18052116D01*
X51549500Y-18052135D01*
X32600500Y-18052135D01*
X32600500Y-16524500D01*
X32620185Y-16457461D01*
X32672989Y-16411706D01*
X32724500Y-16400500D01*
X62125500Y-16400500D01*
X62192539Y-16420185D01*
G37*
%TD.AperFunction*%
%TD*%
M02*
