%TF.GenerationSoftware,KiCad,Pcbnew,8.0.2-1*%
%TF.CreationDate,2024-05-18T17:44:33-05:00*%
%TF.ProjectId,can_test,63616e5f-7465-4737-942e-6b696361645f,rev?*%
%TF.SameCoordinates,Original*%
%TF.FileFunction,Copper,L1,Top*%
%TF.FilePolarity,Positive*%
%FSLAX46Y46*%
G04 Gerber Fmt 4.6, Leading zero omitted, Abs format (unit mm)*
G04 Created by KiCad (PCBNEW 8.0.2-1) date 2024-05-18 17:44:33*
%MOMM*%
%LPD*%
G01*
G04 APERTURE LIST*
G04 Aperture macros list*
%AMRoundRect*
0 Rectangle with rounded corners*
0 $1 Rounding radius*
0 $2 $3 $4 $5 $6 $7 $8 $9 X,Y pos of 4 corners*
0 Add a 4 corners polygon primitive as box body*
4,1,4,$2,$3,$4,$5,$6,$7,$8,$9,$2,$3,0*
0 Add four circle primitives for the rounded corners*
1,1,$1+$1,$2,$3*
1,1,$1+$1,$4,$5*
1,1,$1+$1,$6,$7*
1,1,$1+$1,$8,$9*
0 Add four rect primitives between the rounded corners*
20,1,$1+$1,$2,$3,$4,$5,0*
20,1,$1+$1,$4,$5,$6,$7,0*
20,1,$1+$1,$6,$7,$8,$9,0*
20,1,$1+$1,$8,$9,$2,$3,0*%
G04 Aperture macros list end*
%TA.AperFunction,SMDPad,CuDef*%
%ADD10RoundRect,0.250000X0.350000X0.450000X-0.350000X0.450000X-0.350000X-0.450000X0.350000X-0.450000X0*%
%TD*%
%TA.AperFunction,ComponentPad*%
%ADD11R,1.700000X1.700000*%
%TD*%
%TA.AperFunction,ComponentPad*%
%ADD12O,1.700000X1.700000*%
%TD*%
%TA.AperFunction,SMDPad,CuDef*%
%ADD13RoundRect,0.150000X-0.150000X0.825000X-0.150000X-0.825000X0.150000X-0.825000X0.150000X0.825000X0*%
%TD*%
%TA.AperFunction,SMDPad,CuDef*%
%ADD14RoundRect,0.150000X0.150000X-0.825000X0.150000X0.825000X-0.150000X0.825000X-0.150000X-0.825000X0*%
%TD*%
%TA.AperFunction,SMDPad,CuDef*%
%ADD15RoundRect,0.250000X-0.337500X-0.475000X0.337500X-0.475000X0.337500X0.475000X-0.337500X0.475000X0*%
%TD*%
%TA.AperFunction,ComponentPad*%
%ADD16C,1.404000*%
%TD*%
%TA.AperFunction,ComponentPad*%
%ADD17C,1.304000*%
%TD*%
%TA.AperFunction,ComponentPad*%
%ADD18C,0.804000*%
%TD*%
%TA.AperFunction,SMDPad,CuDef*%
%ADD19RoundRect,0.250000X-0.475000X0.337500X-0.475000X-0.337500X0.475000X-0.337500X0.475000X0.337500X0*%
%TD*%
%TA.AperFunction,SMDPad,CuDef*%
%ADD20RoundRect,0.250000X-0.350000X-0.450000X0.350000X-0.450000X0.350000X0.450000X-0.350000X0.450000X0*%
%TD*%
%TA.AperFunction,ViaPad*%
%ADD21C,0.600000*%
%TD*%
%TA.AperFunction,Conductor*%
%ADD22C,0.200000*%
%TD*%
G04 APERTURE END LIST*
D10*
%TO.P,R2,1*%
%TO.N,CANL*%
X58325000Y-45425000D03*
%TO.P,R2,2*%
%TO.N,CANH*%
X56325000Y-45425000D03*
%TD*%
D11*
%TO.P,J1,1,Pin_1*%
%TO.N,Net-(IC2-VCC)*%
X52900000Y-18950000D03*
D12*
%TO.P,J1,2,Pin_2*%
%TO.N,GND*%
X55440000Y-18950000D03*
%TO.P,J1,3,Pin_3*%
%TO.N,CRX2*%
X57980000Y-18950000D03*
%TO.P,J1,4,Pin_4*%
%TO.N,CTX2*%
X60520000Y-18950000D03*
%TD*%
D13*
%TO.P,IC2,1,TXD*%
%TO.N,CTX2*%
X59440000Y-26375000D03*
%TO.P,IC2,2,GND*%
%TO.N,GND*%
X58170000Y-26375000D03*
%TO.P,IC2,3,VCC*%
%TO.N,Net-(IC2-VCC)*%
X56900000Y-26375000D03*
%TO.P,IC2,4,RXD*%
%TO.N,CRX2*%
X55630000Y-26375000D03*
%TO.P,IC2,5,SHDNVIO*%
%TO.N,GND*%
X55630000Y-31325000D03*
%TO.P,IC2,6,CANL*%
%TO.N,CANL*%
X56900000Y-31325000D03*
%TO.P,IC2,7,CANH*%
%TO.N,CANH*%
X58170000Y-31325000D03*
%TO.P,IC2,8,STB*%
%TO.N,GND*%
X59440000Y-31325000D03*
%TD*%
D14*
%TO.P,IC1,1,TXD*%
%TO.N,CTX1*%
X55545000Y-53450000D03*
%TO.P,IC1,2,GND*%
%TO.N,GND*%
X56815000Y-53450000D03*
%TO.P,IC1,3,VCC*%
%TO.N,+3.3V*%
X58085000Y-53450000D03*
%TO.P,IC1,4,RXD*%
%TO.N,CRX1*%
X59355000Y-53450000D03*
%TO.P,IC1,5,SHDNVIO*%
%TO.N,GND*%
X59355000Y-48500000D03*
%TO.P,IC1,6,CANL*%
%TO.N,CANL*%
X58085000Y-48500000D03*
%TO.P,IC1,7,CANH*%
%TO.N,CANH*%
X56815000Y-48500000D03*
%TO.P,IC1,8,STB*%
%TO.N,GND*%
X55545000Y-48500000D03*
%TD*%
D15*
%TO.P,C1,1*%
%TO.N,Net-(IC2-VCC)*%
X53362500Y-22975000D03*
%TO.P,C1,2*%
%TO.N,GND*%
X55437500Y-22975000D03*
%TD*%
D16*
%TO.P,U1,1,GND*%
%TO.N,GND*%
X34630000Y-19790000D03*
%TO.P,U1,2,0_RX1_CRX2_CS1*%
%TO.N,unconnected-(U1-0_RX1_CRX2_CS1-Pad2)*%
X34630000Y-22330000D03*
%TO.P,U1,3,1_TX1_CTX2_MISO1*%
%TO.N,unconnected-(U1-1_TX1_CTX2_MISO1-Pad3)*%
X34630000Y-24870000D03*
%TO.P,U1,4,2_OUT2*%
%TO.N,unconnected-(U1-2_OUT2-Pad4)*%
X34630000Y-27410000D03*
%TO.P,U1,5,3_LRCLK2*%
%TO.N,unconnected-(U1-3_LRCLK2-Pad5)*%
X34630000Y-29950000D03*
%TO.P,U1,6,4_BCLK2*%
%TO.N,unconnected-(U1-4_BCLK2-Pad6)*%
X34630000Y-32490000D03*
%TO.P,U1,7,5_IN2*%
%TO.N,unconnected-(U1-5_IN2-Pad7)*%
X34630000Y-35030000D03*
%TO.P,U1,8,6_OUT1D*%
%TO.N,unconnected-(U1-6_OUT1D-Pad8)*%
X34630000Y-37570000D03*
%TO.P,U1,9,7_RX2_OUT1A*%
%TO.N,unconnected-(U1-7_RX2_OUT1A-Pad9)*%
X34630000Y-40110000D03*
%TO.P,U1,10,8_TX2_IN1*%
%TO.N,unconnected-(U1-8_TX2_IN1-Pad10)*%
X34630000Y-42650000D03*
%TO.P,U1,11,9_OUT1C*%
%TO.N,unconnected-(U1-9_OUT1C-Pad11)*%
X34630000Y-45190000D03*
%TO.P,U1,12,10_CS_MQSR*%
%TO.N,unconnected-(U1-10_CS_MQSR-Pad12)*%
X34630000Y-47730000D03*
%TO.P,U1,13,11_MOSI_CTX1*%
%TO.N,unconnected-(U1-11_MOSI_CTX1-Pad13)*%
X34630000Y-50270000D03*
%TO.P,U1,14,12_MISO_MQSL*%
%TO.N,unconnected-(U1-12_MISO_MQSL-Pad14)*%
X34630000Y-52810000D03*
%TO.P,U1,15,VBAT*%
%TO.N,unconnected-(U1-VBAT-Pad15)*%
X37170000Y-52810000D03*
%TO.P,U1,16,3V3*%
%TO.N,unconnected-(U1-3V3-Pad16)*%
X39710000Y-52810000D03*
%TO.P,U1,17,GND*%
%TO.N,GND*%
X42250000Y-52810000D03*
%TO.P,U1,18,PROGRAM*%
%TO.N,unconnected-(U1-PROGRAM-Pad18)*%
X44790000Y-52810000D03*
%TO.P,U1,19,ON_OFF*%
%TO.N,unconnected-(U1-ON_OFF-Pad19)*%
X47330000Y-52810000D03*
%TO.P,U1,20,13_SCK_CRX1_LED*%
%TO.N,unconnected-(U1-13_SCK_CRX1_LED-Pad20)*%
X49870000Y-52810000D03*
%TO.P,U1,21,14_A0_TX3_SPDIF_OUT*%
%TO.N,unconnected-(U1-14_A0_TX3_SPDIF_OUT-Pad21)*%
X49870000Y-50270000D03*
%TO.P,U1,22,15_A1_RX3_SPDIF_IN*%
%TO.N,unconnected-(U1-15_A1_RX3_SPDIF_IN-Pad22)*%
X49870000Y-47730000D03*
%TO.P,U1,23,16_A2_RX4_SCL1*%
%TO.N,unconnected-(U1-16_A2_RX4_SCL1-Pad23)*%
X49870000Y-45190000D03*
%TO.P,U1,24,17_A3_TX4_SDA1*%
%TO.N,unconnected-(U1-17_A3_TX4_SDA1-Pad24)*%
X49870000Y-42650000D03*
%TO.P,U1,25,18_A4_SDA0*%
%TO.N,unconnected-(U1-18_A4_SDA0-Pad25)*%
X49870000Y-40110000D03*
%TO.P,U1,26,19_A5_SCL0*%
%TO.N,unconnected-(U1-19_A5_SCL0-Pad26)*%
X49870000Y-37570000D03*
%TO.P,U1,27,20_A6_TX5_LRCLK1*%
%TO.N,unconnected-(U1-20_A6_TX5_LRCLK1-Pad27)*%
X49870000Y-35030000D03*
%TO.P,U1,28,21_A7_RX5_BCLK1*%
%TO.N,unconnected-(U1-21_A7_RX5_BCLK1-Pad28)*%
X49870000Y-32490000D03*
%TO.P,U1,29,22_A8_CTX1*%
%TO.N,unconnected-(U1-22_A8_CTX1-Pad29)*%
X49870000Y-29950000D03*
%TO.P,U1,30,23_A9_CRX1_MCLK1*%
%TO.N,unconnected-(U1-23_A9_CRX1_MCLK1-Pad30)*%
X49870000Y-27410000D03*
%TO.P,U1,31,3V3*%
%TO.N,unconnected-(U1-3V3-Pad31)*%
X49870000Y-24870000D03*
%TO.P,U1,32,GND*%
%TO.N,GND*%
X49870000Y-22330000D03*
%TO.P,U1,33,VIN*%
%TO.N,unconnected-(U1-VIN-Pad33)*%
X49870000Y-19790000D03*
%TO.P,U1,34,VUSB*%
%TO.N,unconnected-(U1-VUSB-Pad34)*%
X47330000Y-22330000D03*
D17*
%TO.P,U1,35,24_A10_TX6_SCL2*%
%TO.N,unconnected-(U1-24_A10_TX6_SCL2-Pad35)*%
X47330000Y-47730000D03*
%TO.P,U1,36,25_A11_RX6_SDA2*%
%TO.N,unconnected-(U1-25_A11_RX6_SDA2-Pad36)*%
X47330000Y-45190000D03*
%TO.P,U1,37,26_A12_MOSI1*%
%TO.N,unconnected-(U1-26_A12_MOSI1-Pad37)*%
X44790000Y-47730000D03*
%TO.P,U1,38,27_A13_SCK1*%
%TO.N,unconnected-(U1-27_A13_SCK1-Pad38)*%
X44790000Y-45190000D03*
%TO.P,U1,39,28_RX7*%
%TO.N,unconnected-(U1-28_RX7-Pad39)*%
X42250000Y-47730000D03*
%TO.P,U1,40,29_TX7*%
%TO.N,unconnected-(U1-29_TX7-Pad40)*%
X42250000Y-45190000D03*
%TO.P,U1,41,30_CRX3*%
%TO.N,CRX1*%
X39710000Y-47730000D03*
%TO.P,U1,42,31_CTX3*%
%TO.N,CTX1*%
X39710000Y-45190000D03*
%TO.P,U1,43,32_OUT1B*%
%TO.N,unconnected-(U1-32_OUT1B-Pad43)*%
X37170000Y-47730000D03*
%TO.P,U1,44,33_MCLK2*%
%TO.N,unconnected-(U1-33_MCLK2-Pad44)*%
X37170000Y-45190000D03*
D18*
%TO.P,U1,45,34_DAT1_MISO2*%
%TO.N,unconnected-(U1-34_DAT1_MISO2-Pad45)*%
X45750000Y-26928400D03*
%TO.P,U1,46,35_DAT0_MOSI2*%
%TO.N,unconnected-(U1-35_DAT0_MOSI2-Pad46)*%
X44750000Y-26928400D03*
%TO.P,U1,47,GND*%
%TO.N,unconnected-(U1-GND-Pad47)*%
X43750000Y-26928400D03*
%TO.P,U1,48,36_CLK_CS2*%
%TO.N,unconnected-(U1-36_CLK_CS2-Pad48)*%
X42750000Y-26928400D03*
%TO.P,U1,49,3V3*%
%TO.N,+3.3V*%
X41750000Y-26928400D03*
%TO.P,U1,50,37_CMD_SCK2*%
%TO.N,unconnected-(U1-37_CMD_SCK2-Pad50)*%
X40750000Y-26928400D03*
%TO.P,U1,51,38_DAT3_RX5*%
%TO.N,unconnected-(U1-38_DAT3_RX5-Pad51)*%
X39750000Y-26928400D03*
%TO.P,U1,52,39_DAT2_TX5*%
%TO.N,unconnected-(U1-39_DAT2_TX5-Pad52)*%
X38750000Y-26928400D03*
D17*
%TO.P,U1,53,D-*%
%TO.N,unconnected-(U1-D--Pad53)*%
X43520000Y-21060000D03*
%TO.P,U1,54,D+*%
%TO.N,unconnected-(U1-D+-Pad54)*%
X40980000Y-21060000D03*
%TD*%
D19*
%TO.P,C2,1*%
%TO.N,+3.3V*%
X53025000Y-49512500D03*
%TO.P,C2,2*%
%TO.N,GND*%
X53025000Y-51587500D03*
%TD*%
D20*
%TO.P,R1,1*%
%TO.N,CANL*%
X56600000Y-35150000D03*
%TO.P,R1,2*%
%TO.N,CANH*%
X58600000Y-35150000D03*
%TD*%
D21*
%TO.N,Net-(IC2-VCC)*%
X53175000Y-25225000D03*
X58425000Y-23800000D03*
%TO.N,GND*%
X38575000Y-50450000D03*
X58675000Y-22575000D03*
X40850000Y-30675000D03*
X44975000Y-24200000D03*
X43200000Y-31975000D03*
X41175000Y-42300000D03*
X39800000Y-32625000D03*
X45925000Y-40550000D03*
X52200000Y-53825000D03*
X40525000Y-36750000D03*
X43525000Y-38525000D03*
X55750000Y-37150000D03*
X60750000Y-46150000D03*
X41175000Y-49550000D03*
X42550000Y-23875000D03*
X38600000Y-41825000D03*
X39250000Y-34875000D03*
X54625000Y-43150000D03*
X38100000Y-38525000D03*
X53225000Y-36900000D03*
X54375000Y-39225000D03*
X56525000Y-40900000D03*
X43125000Y-35050000D03*
X37625000Y-30175000D03*
X52300000Y-26325000D03*
X51700000Y-50850000D03*
X45300000Y-33750000D03*
X38275000Y-23300000D03*
X44900000Y-36250000D03*
X54075000Y-26525000D03*
X54525000Y-31275000D03*
X53000000Y-34550000D03*
X47275000Y-39775000D03*
X60525000Y-31325000D03*
X60425000Y-41200000D03*
X52425000Y-40450000D03*
X60450000Y-43350000D03*
X54525000Y-34550000D03*
X53975000Y-46375000D03*
X59700000Y-24725000D03*
%TO.N,CTX1*%
X53400000Y-53725000D03*
X47250000Y-41675000D03*
%TO.N,CANH*%
X56350000Y-42775000D03*
X59075000Y-42350000D03*
%TD*%
D22*
%TO.N,Net-(IC2-VCC)*%
X53362500Y-22075000D02*
X52900000Y-21612500D01*
X56900000Y-25325000D02*
X56900000Y-26375000D01*
X53175000Y-25225000D02*
X53175000Y-23850000D01*
X53175000Y-23850000D02*
X53362500Y-23662500D01*
X52900000Y-21612500D02*
X52900000Y-18950000D01*
X53362500Y-23662500D02*
X53362500Y-22075000D01*
X58425000Y-23800000D02*
X56900000Y-25325000D01*
%TO.N,GND*%
X38575000Y-50450000D02*
X38575000Y-41850000D01*
X59700000Y-24725000D02*
X59474448Y-24725000D01*
X59355000Y-48500000D02*
X60750000Y-47105000D01*
X55580000Y-31275000D02*
X55630000Y-31325000D01*
X56815000Y-52475001D02*
X55927499Y-51587500D01*
X53975000Y-46930000D02*
X53975000Y-46375000D01*
X58170000Y-26029448D02*
X58170000Y-26375000D01*
X55545000Y-48500000D02*
X53975000Y-46930000D01*
X53025000Y-51587500D02*
X52437500Y-51587500D01*
X60525000Y-31325000D02*
X59440000Y-31325000D01*
X59474448Y-24725000D02*
X58170000Y-26029448D01*
X60750000Y-47105000D02*
X60750000Y-46150000D01*
X56815000Y-53450000D02*
X56815000Y-52475001D01*
X55440000Y-22972500D02*
X55437500Y-22975000D01*
X55440000Y-18950000D02*
X55440000Y-22972500D01*
X52437500Y-51587500D02*
X51700000Y-50850000D01*
X55927499Y-51587500D02*
X53025000Y-51587500D01*
X54525000Y-31275000D02*
X55580000Y-31275000D01*
X38575000Y-41850000D02*
X38600000Y-41825000D01*
%TO.N,+3.3V*%
X54945000Y-49512500D02*
X53025000Y-49512500D01*
X54945000Y-49515552D02*
X54945000Y-49512500D01*
X58085000Y-53450000D02*
X58085000Y-52110000D01*
X53025000Y-49512500D02*
X52244500Y-48732000D01*
X48375000Y-47652042D02*
X48375000Y-33553400D01*
X55204448Y-49775000D02*
X54945000Y-49515552D01*
X48375000Y-33553400D02*
X41750000Y-26928400D01*
X55750000Y-49775000D02*
X55204448Y-49775000D01*
X58085000Y-52110000D02*
X55750000Y-49775000D01*
X49454958Y-48732000D02*
X48375000Y-47652042D01*
X52244500Y-48732000D02*
X49454958Y-48732000D01*
%TO.N,CRX1*%
X59355000Y-53450000D02*
X59355000Y-54424999D01*
X59054999Y-54725000D02*
X47827958Y-54725000D01*
X40855000Y-48875000D02*
X39710000Y-47730000D01*
X46328000Y-53225042D02*
X46328000Y-52930958D01*
X42272042Y-48875000D02*
X40855000Y-48875000D01*
X59355000Y-54424999D02*
X59054999Y-54725000D01*
X46328000Y-52930958D02*
X42272042Y-48875000D01*
X47827958Y-54725000D02*
X46328000Y-53225042D01*
%TO.N,CANL*%
X56900000Y-31325000D02*
X56900000Y-34850000D01*
X58325000Y-45425000D02*
X58075000Y-45675000D01*
X58325000Y-37050000D02*
X58325000Y-45425000D01*
X56600000Y-35325000D02*
X58325000Y-37050000D01*
X56600000Y-35150000D02*
X56600000Y-35325000D01*
X58075000Y-45675000D02*
X58075000Y-48490000D01*
X56900000Y-34850000D02*
X56600000Y-35150000D01*
X58075000Y-48490000D02*
X58085000Y-48500000D01*
%TO.N,CTX1*%
X47225000Y-41700000D02*
X47250000Y-41675000D01*
X53675000Y-53450000D02*
X55545000Y-53450000D01*
X43200000Y-41700000D02*
X47225000Y-41700000D01*
X53400000Y-53725000D02*
X53675000Y-53450000D01*
X39710000Y-45190000D02*
X43200000Y-41700000D01*
%TO.N,CANH*%
X56325000Y-45425000D02*
X56800000Y-45900000D01*
X56350000Y-44125000D02*
X56325000Y-44150000D01*
X58600000Y-35150000D02*
X59075000Y-35625000D01*
X56350000Y-42775000D02*
X56350000Y-44125000D01*
X58170000Y-31325000D02*
X58170000Y-34720000D01*
X56800000Y-45900000D02*
X56800000Y-48485000D01*
X58170000Y-34720000D02*
X58600000Y-35150000D01*
X59075000Y-35625000D02*
X59075000Y-42350000D01*
X56800000Y-48485000D02*
X56815000Y-48500000D01*
X56325000Y-44150000D02*
X56325000Y-45425000D01*
%TO.N,CRX2*%
X57980000Y-22745000D02*
X57980000Y-18950000D01*
X55630000Y-26375000D02*
X55630000Y-25095000D01*
X55630000Y-25095000D02*
X57980000Y-22745000D01*
%TO.N,CTX2*%
X60525000Y-25290000D02*
X60525000Y-18955000D01*
X59440000Y-26375000D02*
X60525000Y-25290000D01*
X60525000Y-18955000D02*
X60520000Y-18950000D01*
%TD*%
M02*
