%TF.GenerationSoftware,KiCad,Pcbnew,8.0.2-1*%
%TF.CreationDate,2024-05-18T17:45:13-05:00*%
%TF.ProjectId,can_test,63616e5f-7465-4737-942e-6b696361645f,rev?*%
%TF.SameCoordinates,Original*%
%TF.FileFunction,Drillmap*%
%TF.FilePolarity,Positive*%
%FSLAX45Y45*%
G04 Gerber Fmt 4.5, Leading zero omitted, Abs format (unit mm)*
G04 Created by KiCad (PCBNEW 8.0.2-1) date 2024-05-18 17:45:13*
%MOMM*%
%LPD*%
G01*
G04 APERTURE LIST*
%ADD10C,0.050000*%
%ADD11C,0.200000*%
%ADD12C,0.100000*%
%ADD13C,0.110000*%
G04 APERTURE END LIST*
D10*
X3210000Y-1590000D02*
X6275000Y-1590000D01*
X6275000Y-5650000D01*
X3210000Y-5650000D01*
X3210000Y-1590000D01*
D11*
D12*
X3747500Y-3002500D02*
X3777500Y-3032500D01*
X3777500Y-3002500D02*
X3747500Y-3032500D01*
X3795000Y-3837500D02*
X3825000Y-3867500D01*
X3825000Y-3837500D02*
X3795000Y-3867500D01*
X3812500Y-2315000D02*
X3842500Y-2345000D01*
X3842500Y-2315000D02*
X3812500Y-2345000D01*
X3842500Y-5030000D02*
X3872500Y-5060000D01*
X3872500Y-5030000D02*
X3842500Y-5060000D01*
X3845000Y-4167500D02*
X3875000Y-4197500D01*
X3875000Y-4167500D02*
X3845000Y-4197500D01*
X3910000Y-3472500D02*
X3940000Y-3502500D01*
X3940000Y-3472500D02*
X3910000Y-3502500D01*
X3965000Y-3247500D02*
X3995000Y-3277500D01*
X3995000Y-3247500D02*
X3965000Y-3277500D01*
X4037500Y-3660000D02*
X4067500Y-3690000D01*
X4067500Y-3660000D02*
X4037500Y-3690000D01*
X4070000Y-3052500D02*
X4100000Y-3082500D01*
X4100000Y-3052500D02*
X4070000Y-3082500D01*
X4102500Y-4215000D02*
X4132500Y-4245000D01*
X4132500Y-4215000D02*
X4102500Y-4245000D01*
X4102500Y-4940000D02*
X4132500Y-4970000D01*
X4132500Y-4940000D02*
X4102500Y-4970000D01*
X4240000Y-2372500D02*
X4270000Y-2402500D01*
X4270000Y-2372500D02*
X4240000Y-2402500D01*
X4297500Y-3490000D02*
X4327500Y-3520000D01*
X4327500Y-3490000D02*
X4297500Y-3520000D01*
X4305000Y-3182500D02*
X4335000Y-3212500D01*
X4335000Y-3182500D02*
X4305000Y-3212500D01*
X4337500Y-3837500D02*
X4367500Y-3867500D01*
X4367500Y-3837500D02*
X4337500Y-3867500D01*
X4475000Y-3610000D02*
X4505000Y-3640000D01*
X4505000Y-3610000D02*
X4475000Y-3640000D01*
X4482500Y-2405000D02*
X4512500Y-2435000D01*
X4512500Y-2405000D02*
X4482500Y-2435000D01*
X4515000Y-3360000D02*
X4545000Y-3390000D01*
X4545000Y-3360000D02*
X4515000Y-3390000D01*
X4577500Y-4040000D02*
X4607500Y-4070000D01*
X4607500Y-4040000D02*
X4577500Y-4070000D01*
X4710000Y-4152500D02*
X4740000Y-4182500D01*
X4740000Y-4152500D02*
X4710000Y-4182500D01*
X4712500Y-3962500D02*
X4742500Y-3992500D01*
X4742500Y-3962500D02*
X4712500Y-3992500D01*
X5155000Y-5070000D02*
X5185000Y-5100000D01*
X5185000Y-5070000D02*
X5155000Y-5100000D01*
X5205000Y-5367500D02*
X5235000Y-5397500D01*
X5235000Y-5367500D02*
X5205000Y-5397500D01*
X5215000Y-2617500D02*
X5245000Y-2647500D01*
X5245000Y-2617500D02*
X5215000Y-2647500D01*
X5227500Y-4030000D02*
X5257500Y-4060000D01*
X5257500Y-4030000D02*
X5227500Y-4060000D01*
X5285000Y-3440000D02*
X5315000Y-3470000D01*
X5315000Y-3440000D02*
X5285000Y-3470000D01*
X5302500Y-2507500D02*
X5332500Y-2537500D01*
X5332500Y-2507500D02*
X5302500Y-2537500D01*
X5307500Y-3675000D02*
X5337500Y-3705000D01*
X5337500Y-3675000D02*
X5307500Y-3705000D01*
X5325000Y-5357500D02*
X5355000Y-5387500D01*
X5355000Y-5357500D02*
X5325000Y-5387500D01*
X5382500Y-4622500D02*
X5412500Y-4652500D01*
X5412500Y-4622500D02*
X5382500Y-4652500D01*
X5392500Y-2637500D02*
X5422500Y-2667500D01*
X5422500Y-2637500D02*
X5392500Y-2667500D01*
X5422500Y-3907500D02*
X5452500Y-3937500D01*
X5452500Y-3907500D02*
X5422500Y-3937500D01*
X5437500Y-3112500D02*
X5467500Y-3142500D01*
X5467500Y-3112500D02*
X5437500Y-3142500D01*
X5437500Y-3440000D02*
X5467500Y-3470000D01*
X5467500Y-3440000D02*
X5437500Y-3470000D01*
X5447500Y-4300000D02*
X5477500Y-4330000D01*
X5477500Y-4300000D02*
X5447500Y-4330000D01*
X5560000Y-3700000D02*
X5590000Y-3730000D01*
X5590000Y-3700000D02*
X5560000Y-3730000D01*
X5620000Y-4262500D02*
X5650000Y-4292500D01*
X5650000Y-4262500D02*
X5620000Y-4292500D01*
X5637500Y-4075000D02*
X5667500Y-4105000D01*
X5667500Y-4075000D02*
X5637500Y-4105000D01*
X5827500Y-2365000D02*
X5857500Y-2395000D01*
X5857500Y-2365000D02*
X5827500Y-2395000D01*
X5852500Y-2242500D02*
X5882500Y-2272500D01*
X5882500Y-2242500D02*
X5852500Y-2272500D01*
X5892500Y-4220000D02*
X5922500Y-4250000D01*
X5922500Y-4220000D02*
X5892500Y-4250000D01*
X5955000Y-2457500D02*
X5985000Y-2487500D01*
X5985000Y-2457500D02*
X5955000Y-2487500D01*
X6027500Y-4105000D02*
X6057500Y-4135000D01*
X6057500Y-4105000D02*
X6027500Y-4135000D01*
X6030000Y-4320000D02*
X6060000Y-4350000D01*
X6060000Y-4320000D02*
X6030000Y-4350000D01*
X6037500Y-3117500D02*
X6067500Y-3147500D01*
X6067500Y-3117500D02*
X6037500Y-3147500D01*
X6060000Y-4600000D02*
X6090000Y-4630000D01*
X6090000Y-4600000D02*
X6060000Y-4630000D01*
X3900000Y-2692840D02*
G75*
G02*
X3850000Y-2692840I-25000J0D01*
G01*
X3850000Y-2692840D02*
G75*
G02*
X3900000Y-2692840I25000J0D01*
G01*
X4000000Y-2692840D02*
G75*
G02*
X3950000Y-2692840I-25000J0D01*
G01*
X3950000Y-2692840D02*
G75*
G02*
X4000000Y-2692840I25000J0D01*
G01*
X4100000Y-2692840D02*
G75*
G02*
X4050000Y-2692840I-25000J0D01*
G01*
X4050000Y-2692840D02*
G75*
G02*
X4100000Y-2692840I25000J0D01*
G01*
X4200000Y-2692840D02*
G75*
G02*
X4150000Y-2692840I-25000J0D01*
G01*
X4150000Y-2692840D02*
G75*
G02*
X4200000Y-2692840I25000J0D01*
G01*
X4300000Y-2692840D02*
G75*
G02*
X4250000Y-2692840I-25000J0D01*
G01*
X4250000Y-2692840D02*
G75*
G02*
X4300000Y-2692840I25000J0D01*
G01*
X4400000Y-2692840D02*
G75*
G02*
X4350000Y-2692840I-25000J0D01*
G01*
X4350000Y-2692840D02*
G75*
G02*
X4400000Y-2692840I25000J0D01*
G01*
X4500000Y-2692840D02*
G75*
G02*
X4450000Y-2692840I-25000J0D01*
G01*
X4450000Y-2692840D02*
G75*
G02*
X4500000Y-2692840I25000J0D01*
G01*
X4600000Y-2692840D02*
G75*
G02*
X4550000Y-2692840I-25000J0D01*
G01*
X4550000Y-2692840D02*
G75*
G02*
X4600000Y-2692840I25000J0D01*
G01*
X3717000Y-4469000D02*
X3717000Y-4569000D01*
X3667000Y-4519000D02*
X3767000Y-4519000D01*
X3717000Y-4723000D02*
X3717000Y-4823000D01*
X3667000Y-4773000D02*
X3767000Y-4773000D01*
X3971000Y-4469000D02*
X3971000Y-4569000D01*
X3921000Y-4519000D02*
X4021000Y-4519000D01*
X3971000Y-4723000D02*
X3971000Y-4823000D01*
X3921000Y-4773000D02*
X4021000Y-4773000D01*
X4098000Y-2056000D02*
X4098000Y-2156000D01*
X4048000Y-2106000D02*
X4148000Y-2106000D01*
X4225000Y-4469000D02*
X4225000Y-4569000D01*
X4175000Y-4519000D02*
X4275000Y-4519000D01*
X4225000Y-4723000D02*
X4225000Y-4823000D01*
X4175000Y-4773000D02*
X4275000Y-4773000D01*
X4352000Y-2056000D02*
X4352000Y-2156000D01*
X4302000Y-2106000D02*
X4402000Y-2106000D01*
X4479000Y-4469000D02*
X4479000Y-4569000D01*
X4429000Y-4519000D02*
X4529000Y-4519000D01*
X4479000Y-4723000D02*
X4479000Y-4823000D01*
X4429000Y-4773000D02*
X4529000Y-4773000D01*
X4733000Y-4469000D02*
X4733000Y-4569000D01*
X4683000Y-4519000D02*
X4783000Y-4519000D01*
X4733000Y-4723000D02*
X4733000Y-4823000D01*
X4683000Y-4773000D02*
X4783000Y-4773000D01*
X5290000Y-1845000D02*
X5290000Y-1945000D01*
X5240000Y-1895000D02*
X5340000Y-1895000D01*
X5544000Y-1845000D02*
X5544000Y-1945000D01*
X5494000Y-1895000D02*
X5594000Y-1895000D01*
X5798000Y-1845000D02*
X5798000Y-1945000D01*
X5748000Y-1895000D02*
X5848000Y-1895000D01*
X6052000Y-1845000D02*
X6052000Y-1945000D01*
X6002000Y-1895000D02*
X6102000Y-1895000D01*
D13*
X3501891Y-2017891D02*
X3501891Y-1940109D01*
X3424109Y-1940109D01*
X3424109Y-2017891D01*
X3501891Y-2017891D01*
X3501891Y-2271891D02*
X3501891Y-2194109D01*
X3424109Y-2194109D01*
X3424109Y-2271891D01*
X3501891Y-2271891D01*
X3501891Y-2525891D02*
X3501891Y-2448109D01*
X3424109Y-2448109D01*
X3424109Y-2525891D01*
X3501891Y-2525891D01*
X3501891Y-2779891D02*
X3501891Y-2702109D01*
X3424109Y-2702109D01*
X3424109Y-2779891D01*
X3501891Y-2779891D01*
X3501891Y-3033891D02*
X3501891Y-2956109D01*
X3424109Y-2956109D01*
X3424109Y-3033891D01*
X3501891Y-3033891D01*
X3501891Y-3287891D02*
X3501891Y-3210109D01*
X3424109Y-3210109D01*
X3424109Y-3287891D01*
X3501891Y-3287891D01*
X3501891Y-3541891D02*
X3501891Y-3464109D01*
X3424109Y-3464109D01*
X3424109Y-3541891D01*
X3501891Y-3541891D01*
X3501891Y-3795891D02*
X3501891Y-3718109D01*
X3424109Y-3718109D01*
X3424109Y-3795891D01*
X3501891Y-3795891D01*
X3501891Y-4049891D02*
X3501891Y-3972109D01*
X3424109Y-3972109D01*
X3424109Y-4049891D01*
X3501891Y-4049891D01*
X3501891Y-4303891D02*
X3501891Y-4226109D01*
X3424109Y-4226109D01*
X3424109Y-4303891D01*
X3501891Y-4303891D01*
X3501891Y-4557891D02*
X3501891Y-4480109D01*
X3424109Y-4480109D01*
X3424109Y-4557891D01*
X3501891Y-4557891D01*
X3501891Y-4811891D02*
X3501891Y-4734109D01*
X3424109Y-4734109D01*
X3424109Y-4811891D01*
X3501891Y-4811891D01*
X3501891Y-5065891D02*
X3501891Y-4988109D01*
X3424109Y-4988109D01*
X3424109Y-5065891D01*
X3501891Y-5065891D01*
X3501891Y-5319891D02*
X3501891Y-5242109D01*
X3424109Y-5242109D01*
X3424109Y-5319891D01*
X3501891Y-5319891D01*
X3755891Y-5319891D02*
X3755891Y-5242109D01*
X3678109Y-5242109D01*
X3678109Y-5319891D01*
X3755891Y-5319891D01*
X4009891Y-5319891D02*
X4009891Y-5242109D01*
X3932109Y-5242109D01*
X3932109Y-5319891D01*
X4009891Y-5319891D01*
X4263891Y-5319891D02*
X4263891Y-5242109D01*
X4186109Y-5242109D01*
X4186109Y-5319891D01*
X4263891Y-5319891D01*
X4517891Y-5319891D02*
X4517891Y-5242109D01*
X4440109Y-5242109D01*
X4440109Y-5319891D01*
X4517891Y-5319891D01*
X4771891Y-2271891D02*
X4771891Y-2194109D01*
X4694109Y-2194109D01*
X4694109Y-2271891D01*
X4771891Y-2271891D01*
X4771891Y-5319891D02*
X4771891Y-5242109D01*
X4694109Y-5242109D01*
X4694109Y-5319891D01*
X4771891Y-5319891D01*
X5025891Y-2017891D02*
X5025891Y-1940109D01*
X4948109Y-1940109D01*
X4948109Y-2017891D01*
X5025891Y-2017891D01*
X5025891Y-2271891D02*
X5025891Y-2194109D01*
X4948109Y-2194109D01*
X4948109Y-2271891D01*
X5025891Y-2271891D01*
X5025891Y-2525891D02*
X5025891Y-2448109D01*
X4948109Y-2448109D01*
X4948109Y-2525891D01*
X5025891Y-2525891D01*
X5025891Y-2779891D02*
X5025891Y-2702109D01*
X4948109Y-2702109D01*
X4948109Y-2779891D01*
X5025891Y-2779891D01*
X5025891Y-3033891D02*
X5025891Y-2956109D01*
X4948109Y-2956109D01*
X4948109Y-3033891D01*
X5025891Y-3033891D01*
X5025891Y-3287891D02*
X5025891Y-3210109D01*
X4948109Y-3210109D01*
X4948109Y-3287891D01*
X5025891Y-3287891D01*
X5025891Y-3541891D02*
X5025891Y-3464109D01*
X4948109Y-3464109D01*
X4948109Y-3541891D01*
X5025891Y-3541891D01*
X5025891Y-3795891D02*
X5025891Y-3718109D01*
X4948109Y-3718109D01*
X4948109Y-3795891D01*
X5025891Y-3795891D01*
X5025891Y-4049891D02*
X5025891Y-3972109D01*
X4948109Y-3972109D01*
X4948109Y-4049891D01*
X5025891Y-4049891D01*
X5025891Y-4303891D02*
X5025891Y-4226109D01*
X4948109Y-4226109D01*
X4948109Y-4303891D01*
X5025891Y-4303891D01*
X5025891Y-4557891D02*
X5025891Y-4480109D01*
X4948109Y-4480109D01*
X4948109Y-4557891D01*
X5025891Y-4557891D01*
X5025891Y-4811891D02*
X5025891Y-4734109D01*
X4948109Y-4734109D01*
X4948109Y-4811891D01*
X5025891Y-4811891D01*
X5025891Y-5065891D02*
X5025891Y-4988109D01*
X4948109Y-4988109D01*
X4948109Y-5065891D01*
X5025891Y-5065891D01*
X5025891Y-5319891D02*
X5025891Y-5242109D01*
X4948109Y-5242109D01*
X4948109Y-5319891D01*
X5025891Y-5319891D01*
D11*
X3468277Y-5963984D02*
X3468277Y-5763984D01*
X3468277Y-5763984D02*
X3515896Y-5763984D01*
X3515896Y-5763984D02*
X3544467Y-5773508D01*
X3544467Y-5773508D02*
X3563515Y-5792555D01*
X3563515Y-5792555D02*
X3573039Y-5811603D01*
X3573039Y-5811603D02*
X3582562Y-5849698D01*
X3582562Y-5849698D02*
X3582562Y-5878269D01*
X3582562Y-5878269D02*
X3573039Y-5916365D01*
X3573039Y-5916365D02*
X3563515Y-5935412D01*
X3563515Y-5935412D02*
X3544467Y-5954460D01*
X3544467Y-5954460D02*
X3515896Y-5963984D01*
X3515896Y-5963984D02*
X3468277Y-5963984D01*
X3668277Y-5963984D02*
X3668277Y-5830650D01*
X3668277Y-5868746D02*
X3677801Y-5849698D01*
X3677801Y-5849698D02*
X3687324Y-5840174D01*
X3687324Y-5840174D02*
X3706372Y-5830650D01*
X3706372Y-5830650D02*
X3725420Y-5830650D01*
X3792086Y-5963984D02*
X3792086Y-5830650D01*
X3792086Y-5763984D02*
X3782562Y-5773508D01*
X3782562Y-5773508D02*
X3792086Y-5783031D01*
X3792086Y-5783031D02*
X3801610Y-5773508D01*
X3801610Y-5773508D02*
X3792086Y-5763984D01*
X3792086Y-5763984D02*
X3792086Y-5783031D01*
X3915896Y-5963984D02*
X3896848Y-5954460D01*
X3896848Y-5954460D02*
X3887324Y-5935412D01*
X3887324Y-5935412D02*
X3887324Y-5763984D01*
X4020658Y-5963984D02*
X4001610Y-5954460D01*
X4001610Y-5954460D02*
X3992086Y-5935412D01*
X3992086Y-5935412D02*
X3992086Y-5763984D01*
X4249229Y-5963984D02*
X4249229Y-5763984D01*
X4249229Y-5763984D02*
X4315896Y-5906841D01*
X4315896Y-5906841D02*
X4382563Y-5763984D01*
X4382563Y-5763984D02*
X4382563Y-5963984D01*
X4563515Y-5963984D02*
X4563515Y-5859222D01*
X4563515Y-5859222D02*
X4553991Y-5840174D01*
X4553991Y-5840174D02*
X4534944Y-5830650D01*
X4534944Y-5830650D02*
X4496848Y-5830650D01*
X4496848Y-5830650D02*
X4477801Y-5840174D01*
X4563515Y-5954460D02*
X4544467Y-5963984D01*
X4544467Y-5963984D02*
X4496848Y-5963984D01*
X4496848Y-5963984D02*
X4477801Y-5954460D01*
X4477801Y-5954460D02*
X4468277Y-5935412D01*
X4468277Y-5935412D02*
X4468277Y-5916365D01*
X4468277Y-5916365D02*
X4477801Y-5897317D01*
X4477801Y-5897317D02*
X4496848Y-5887793D01*
X4496848Y-5887793D02*
X4544467Y-5887793D01*
X4544467Y-5887793D02*
X4563515Y-5878269D01*
X4658753Y-5830650D02*
X4658753Y-6030650D01*
X4658753Y-5840174D02*
X4677801Y-5830650D01*
X4677801Y-5830650D02*
X4715896Y-5830650D01*
X4715896Y-5830650D02*
X4734944Y-5840174D01*
X4734944Y-5840174D02*
X4744467Y-5849698D01*
X4744467Y-5849698D02*
X4753991Y-5868746D01*
X4753991Y-5868746D02*
X4753991Y-5925888D01*
X4753991Y-5925888D02*
X4744467Y-5944936D01*
X4744467Y-5944936D02*
X4734944Y-5954460D01*
X4734944Y-5954460D02*
X4715896Y-5963984D01*
X4715896Y-5963984D02*
X4677801Y-5963984D01*
X4677801Y-5963984D02*
X4658753Y-5954460D01*
X4839705Y-5944936D02*
X4849229Y-5954460D01*
X4849229Y-5954460D02*
X4839705Y-5963984D01*
X4839705Y-5963984D02*
X4830182Y-5954460D01*
X4830182Y-5954460D02*
X4839705Y-5944936D01*
X4839705Y-5944936D02*
X4839705Y-5963984D01*
X4839705Y-5840174D02*
X4849229Y-5849698D01*
X4849229Y-5849698D02*
X4839705Y-5859222D01*
X4839705Y-5859222D02*
X4830182Y-5849698D01*
X4830182Y-5849698D02*
X4839705Y-5840174D01*
X4839705Y-5840174D02*
X4839705Y-5859222D01*
D12*
X3177500Y-6277500D02*
X3207500Y-6307500D01*
X3207500Y-6277500D02*
X3177500Y-6307500D01*
D11*
X3506372Y-6183984D02*
X3525420Y-6183984D01*
X3525420Y-6183984D02*
X3544467Y-6193508D01*
X3544467Y-6193508D02*
X3553991Y-6203031D01*
X3553991Y-6203031D02*
X3563515Y-6222079D01*
X3563515Y-6222079D02*
X3573039Y-6260174D01*
X3573039Y-6260174D02*
X3573039Y-6307793D01*
X3573039Y-6307793D02*
X3563515Y-6345888D01*
X3563515Y-6345888D02*
X3553991Y-6364936D01*
X3553991Y-6364936D02*
X3544467Y-6374460D01*
X3544467Y-6374460D02*
X3525420Y-6383984D01*
X3525420Y-6383984D02*
X3506372Y-6383984D01*
X3506372Y-6383984D02*
X3487324Y-6374460D01*
X3487324Y-6374460D02*
X3477801Y-6364936D01*
X3477801Y-6364936D02*
X3468277Y-6345888D01*
X3468277Y-6345888D02*
X3458753Y-6307793D01*
X3458753Y-6307793D02*
X3458753Y-6260174D01*
X3458753Y-6260174D02*
X3468277Y-6222079D01*
X3468277Y-6222079D02*
X3477801Y-6203031D01*
X3477801Y-6203031D02*
X3487324Y-6193508D01*
X3487324Y-6193508D02*
X3506372Y-6183984D01*
X3658753Y-6364936D02*
X3668277Y-6374460D01*
X3668277Y-6374460D02*
X3658753Y-6383984D01*
X3658753Y-6383984D02*
X3649229Y-6374460D01*
X3649229Y-6374460D02*
X3658753Y-6364936D01*
X3658753Y-6364936D02*
X3658753Y-6383984D01*
X3734943Y-6183984D02*
X3858753Y-6183984D01*
X3858753Y-6183984D02*
X3792086Y-6260174D01*
X3792086Y-6260174D02*
X3820658Y-6260174D01*
X3820658Y-6260174D02*
X3839705Y-6269698D01*
X3839705Y-6269698D02*
X3849229Y-6279222D01*
X3849229Y-6279222D02*
X3858753Y-6298269D01*
X3858753Y-6298269D02*
X3858753Y-6345888D01*
X3858753Y-6345888D02*
X3849229Y-6364936D01*
X3849229Y-6364936D02*
X3839705Y-6374460D01*
X3839705Y-6374460D02*
X3820658Y-6383984D01*
X3820658Y-6383984D02*
X3763515Y-6383984D01*
X3763515Y-6383984D02*
X3744467Y-6374460D01*
X3744467Y-6374460D02*
X3734943Y-6364936D01*
X3982562Y-6183984D02*
X4001610Y-6183984D01*
X4001610Y-6183984D02*
X4020658Y-6193508D01*
X4020658Y-6193508D02*
X4030182Y-6203031D01*
X4030182Y-6203031D02*
X4039705Y-6222079D01*
X4039705Y-6222079D02*
X4049229Y-6260174D01*
X4049229Y-6260174D02*
X4049229Y-6307793D01*
X4049229Y-6307793D02*
X4039705Y-6345888D01*
X4039705Y-6345888D02*
X4030182Y-6364936D01*
X4030182Y-6364936D02*
X4020658Y-6374460D01*
X4020658Y-6374460D02*
X4001610Y-6383984D01*
X4001610Y-6383984D02*
X3982562Y-6383984D01*
X3982562Y-6383984D02*
X3963515Y-6374460D01*
X3963515Y-6374460D02*
X3953991Y-6364936D01*
X3953991Y-6364936D02*
X3944467Y-6345888D01*
X3944467Y-6345888D02*
X3934943Y-6307793D01*
X3934943Y-6307793D02*
X3934943Y-6260174D01*
X3934943Y-6260174D02*
X3944467Y-6222079D01*
X3944467Y-6222079D02*
X3953991Y-6203031D01*
X3953991Y-6203031D02*
X3963515Y-6193508D01*
X3963515Y-6193508D02*
X3982562Y-6183984D01*
X4173039Y-6183984D02*
X4192086Y-6183984D01*
X4192086Y-6183984D02*
X4211134Y-6193508D01*
X4211134Y-6193508D02*
X4220658Y-6203031D01*
X4220658Y-6203031D02*
X4230182Y-6222079D01*
X4230182Y-6222079D02*
X4239705Y-6260174D01*
X4239705Y-6260174D02*
X4239705Y-6307793D01*
X4239705Y-6307793D02*
X4230182Y-6345888D01*
X4230182Y-6345888D02*
X4220658Y-6364936D01*
X4220658Y-6364936D02*
X4211134Y-6374460D01*
X4211134Y-6374460D02*
X4192086Y-6383984D01*
X4192086Y-6383984D02*
X4173039Y-6383984D01*
X4173039Y-6383984D02*
X4153991Y-6374460D01*
X4153991Y-6374460D02*
X4144467Y-6364936D01*
X4144467Y-6364936D02*
X4134943Y-6345888D01*
X4134943Y-6345888D02*
X4125420Y-6307793D01*
X4125420Y-6307793D02*
X4125420Y-6260174D01*
X4125420Y-6260174D02*
X4134943Y-6222079D01*
X4134943Y-6222079D02*
X4144467Y-6203031D01*
X4144467Y-6203031D02*
X4153991Y-6193508D01*
X4153991Y-6193508D02*
X4173039Y-6183984D01*
X4325420Y-6383984D02*
X4325420Y-6250650D01*
X4325420Y-6269698D02*
X4334944Y-6260174D01*
X4334944Y-6260174D02*
X4353991Y-6250650D01*
X4353991Y-6250650D02*
X4382563Y-6250650D01*
X4382563Y-6250650D02*
X4401610Y-6260174D01*
X4401610Y-6260174D02*
X4411134Y-6279222D01*
X4411134Y-6279222D02*
X4411134Y-6383984D01*
X4411134Y-6279222D02*
X4420658Y-6260174D01*
X4420658Y-6260174D02*
X4439705Y-6250650D01*
X4439705Y-6250650D02*
X4468277Y-6250650D01*
X4468277Y-6250650D02*
X4487325Y-6260174D01*
X4487325Y-6260174D02*
X4496848Y-6279222D01*
X4496848Y-6279222D02*
X4496848Y-6383984D01*
X4592086Y-6383984D02*
X4592086Y-6250650D01*
X4592086Y-6269698D02*
X4601610Y-6260174D01*
X4601610Y-6260174D02*
X4620658Y-6250650D01*
X4620658Y-6250650D02*
X4649229Y-6250650D01*
X4649229Y-6250650D02*
X4668277Y-6260174D01*
X4668277Y-6260174D02*
X4677801Y-6279222D01*
X4677801Y-6279222D02*
X4677801Y-6383984D01*
X4677801Y-6279222D02*
X4687325Y-6260174D01*
X4687325Y-6260174D02*
X4706372Y-6250650D01*
X4706372Y-6250650D02*
X4734944Y-6250650D01*
X4734944Y-6250650D02*
X4753991Y-6260174D01*
X4753991Y-6260174D02*
X4763515Y-6279222D01*
X4763515Y-6279222D02*
X4763515Y-6383984D01*
X5153991Y-6174460D02*
X4982563Y-6431603D01*
X5411134Y-6183984D02*
X5430182Y-6183984D01*
X5430182Y-6183984D02*
X5449229Y-6193508D01*
X5449229Y-6193508D02*
X5458753Y-6203031D01*
X5458753Y-6203031D02*
X5468277Y-6222079D01*
X5468277Y-6222079D02*
X5477801Y-6260174D01*
X5477801Y-6260174D02*
X5477801Y-6307793D01*
X5477801Y-6307793D02*
X5468277Y-6345888D01*
X5468277Y-6345888D02*
X5458753Y-6364936D01*
X5458753Y-6364936D02*
X5449229Y-6374460D01*
X5449229Y-6374460D02*
X5430182Y-6383984D01*
X5430182Y-6383984D02*
X5411134Y-6383984D01*
X5411134Y-6383984D02*
X5392087Y-6374460D01*
X5392087Y-6374460D02*
X5382563Y-6364936D01*
X5382563Y-6364936D02*
X5373039Y-6345888D01*
X5373039Y-6345888D02*
X5363515Y-6307793D01*
X5363515Y-6307793D02*
X5363515Y-6260174D01*
X5363515Y-6260174D02*
X5373039Y-6222079D01*
X5373039Y-6222079D02*
X5382563Y-6203031D01*
X5382563Y-6203031D02*
X5392087Y-6193508D01*
X5392087Y-6193508D02*
X5411134Y-6183984D01*
X5563515Y-6364936D02*
X5573039Y-6374460D01*
X5573039Y-6374460D02*
X5563515Y-6383984D01*
X5563515Y-6383984D02*
X5553991Y-6374460D01*
X5553991Y-6374460D02*
X5563515Y-6364936D01*
X5563515Y-6364936D02*
X5563515Y-6383984D01*
X5696848Y-6183984D02*
X5715896Y-6183984D01*
X5715896Y-6183984D02*
X5734944Y-6193508D01*
X5734944Y-6193508D02*
X5744467Y-6203031D01*
X5744467Y-6203031D02*
X5753991Y-6222079D01*
X5753991Y-6222079D02*
X5763515Y-6260174D01*
X5763515Y-6260174D02*
X5763515Y-6307793D01*
X5763515Y-6307793D02*
X5753991Y-6345888D01*
X5753991Y-6345888D02*
X5744467Y-6364936D01*
X5744467Y-6364936D02*
X5734944Y-6374460D01*
X5734944Y-6374460D02*
X5715896Y-6383984D01*
X5715896Y-6383984D02*
X5696848Y-6383984D01*
X5696848Y-6383984D02*
X5677801Y-6374460D01*
X5677801Y-6374460D02*
X5668277Y-6364936D01*
X5668277Y-6364936D02*
X5658753Y-6345888D01*
X5658753Y-6345888D02*
X5649229Y-6307793D01*
X5649229Y-6307793D02*
X5649229Y-6260174D01*
X5649229Y-6260174D02*
X5658753Y-6222079D01*
X5658753Y-6222079D02*
X5668277Y-6203031D01*
X5668277Y-6203031D02*
X5677801Y-6193508D01*
X5677801Y-6193508D02*
X5696848Y-6183984D01*
X5953991Y-6383984D02*
X5839706Y-6383984D01*
X5896848Y-6383984D02*
X5896848Y-6183984D01*
X5896848Y-6183984D02*
X5877801Y-6212555D01*
X5877801Y-6212555D02*
X5858753Y-6231603D01*
X5858753Y-6231603D02*
X5839706Y-6241127D01*
X6144467Y-6383984D02*
X6030182Y-6383984D01*
X6087325Y-6383984D02*
X6087325Y-6183984D01*
X6087325Y-6183984D02*
X6068277Y-6212555D01*
X6068277Y-6212555D02*
X6049229Y-6231603D01*
X6049229Y-6231603D02*
X6030182Y-6241127D01*
X6258753Y-6269698D02*
X6239706Y-6260174D01*
X6239706Y-6260174D02*
X6230182Y-6250650D01*
X6230182Y-6250650D02*
X6220658Y-6231603D01*
X6220658Y-6231603D02*
X6220658Y-6222079D01*
X6220658Y-6222079D02*
X6230182Y-6203031D01*
X6230182Y-6203031D02*
X6239706Y-6193508D01*
X6239706Y-6193508D02*
X6258753Y-6183984D01*
X6258753Y-6183984D02*
X6296848Y-6183984D01*
X6296848Y-6183984D02*
X6315896Y-6193508D01*
X6315896Y-6193508D02*
X6325420Y-6203031D01*
X6325420Y-6203031D02*
X6334944Y-6222079D01*
X6334944Y-6222079D02*
X6334944Y-6231603D01*
X6334944Y-6231603D02*
X6325420Y-6250650D01*
X6325420Y-6250650D02*
X6315896Y-6260174D01*
X6315896Y-6260174D02*
X6296848Y-6269698D01*
X6296848Y-6269698D02*
X6258753Y-6269698D01*
X6258753Y-6269698D02*
X6239706Y-6279222D01*
X6239706Y-6279222D02*
X6230182Y-6288746D01*
X6230182Y-6288746D02*
X6220658Y-6307793D01*
X6220658Y-6307793D02*
X6220658Y-6345888D01*
X6220658Y-6345888D02*
X6230182Y-6364936D01*
X6230182Y-6364936D02*
X6239706Y-6374460D01*
X6239706Y-6374460D02*
X6258753Y-6383984D01*
X6258753Y-6383984D02*
X6296848Y-6383984D01*
X6296848Y-6383984D02*
X6315896Y-6374460D01*
X6315896Y-6374460D02*
X6325420Y-6364936D01*
X6325420Y-6364936D02*
X6334944Y-6345888D01*
X6334944Y-6345888D02*
X6334944Y-6307793D01*
X6334944Y-6307793D02*
X6325420Y-6288746D01*
X6325420Y-6288746D02*
X6315896Y-6279222D01*
X6315896Y-6279222D02*
X6296848Y-6269698D01*
X6411134Y-6183984D02*
X6411134Y-6222079D01*
X6487325Y-6183984D02*
X6487325Y-6222079D01*
X6782563Y-6460174D02*
X6773039Y-6450650D01*
X6773039Y-6450650D02*
X6753991Y-6422079D01*
X6753991Y-6422079D02*
X6744468Y-6403031D01*
X6744468Y-6403031D02*
X6734944Y-6374460D01*
X6734944Y-6374460D02*
X6725420Y-6326841D01*
X6725420Y-6326841D02*
X6725420Y-6288746D01*
X6725420Y-6288746D02*
X6734944Y-6241127D01*
X6734944Y-6241127D02*
X6744468Y-6212555D01*
X6744468Y-6212555D02*
X6753991Y-6193508D01*
X6753991Y-6193508D02*
X6773039Y-6164936D01*
X6773039Y-6164936D02*
X6782563Y-6155412D01*
X6944468Y-6250650D02*
X6944468Y-6383984D01*
X6896848Y-6174460D02*
X6849229Y-6317317D01*
X6849229Y-6317317D02*
X6973039Y-6317317D01*
X7134944Y-6183984D02*
X7096848Y-6183984D01*
X7096848Y-6183984D02*
X7077801Y-6193508D01*
X7077801Y-6193508D02*
X7068277Y-6203031D01*
X7068277Y-6203031D02*
X7049229Y-6231603D01*
X7049229Y-6231603D02*
X7039706Y-6269698D01*
X7039706Y-6269698D02*
X7039706Y-6345888D01*
X7039706Y-6345888D02*
X7049229Y-6364936D01*
X7049229Y-6364936D02*
X7058753Y-6374460D01*
X7058753Y-6374460D02*
X7077801Y-6383984D01*
X7077801Y-6383984D02*
X7115896Y-6383984D01*
X7115896Y-6383984D02*
X7134944Y-6374460D01*
X7134944Y-6374460D02*
X7144468Y-6364936D01*
X7144468Y-6364936D02*
X7153991Y-6345888D01*
X7153991Y-6345888D02*
X7153991Y-6298269D01*
X7153991Y-6298269D02*
X7144468Y-6279222D01*
X7144468Y-6279222D02*
X7134944Y-6269698D01*
X7134944Y-6269698D02*
X7115896Y-6260174D01*
X7115896Y-6260174D02*
X7077801Y-6260174D01*
X7077801Y-6260174D02*
X7058753Y-6269698D01*
X7058753Y-6269698D02*
X7049229Y-6279222D01*
X7049229Y-6279222D02*
X7039706Y-6298269D01*
X7392087Y-6383984D02*
X7392087Y-6183984D01*
X7477801Y-6383984D02*
X7477801Y-6279222D01*
X7477801Y-6279222D02*
X7468277Y-6260174D01*
X7468277Y-6260174D02*
X7449230Y-6250650D01*
X7449230Y-6250650D02*
X7420658Y-6250650D01*
X7420658Y-6250650D02*
X7401610Y-6260174D01*
X7401610Y-6260174D02*
X7392087Y-6269698D01*
X7601610Y-6383984D02*
X7582563Y-6374460D01*
X7582563Y-6374460D02*
X7573039Y-6364936D01*
X7573039Y-6364936D02*
X7563515Y-6345888D01*
X7563515Y-6345888D02*
X7563515Y-6288746D01*
X7563515Y-6288746D02*
X7573039Y-6269698D01*
X7573039Y-6269698D02*
X7582563Y-6260174D01*
X7582563Y-6260174D02*
X7601610Y-6250650D01*
X7601610Y-6250650D02*
X7630182Y-6250650D01*
X7630182Y-6250650D02*
X7649230Y-6260174D01*
X7649230Y-6260174D02*
X7658753Y-6269698D01*
X7658753Y-6269698D02*
X7668277Y-6288746D01*
X7668277Y-6288746D02*
X7668277Y-6345888D01*
X7668277Y-6345888D02*
X7658753Y-6364936D01*
X7658753Y-6364936D02*
X7649230Y-6374460D01*
X7649230Y-6374460D02*
X7630182Y-6383984D01*
X7630182Y-6383984D02*
X7601610Y-6383984D01*
X7782563Y-6383984D02*
X7763515Y-6374460D01*
X7763515Y-6374460D02*
X7753991Y-6355412D01*
X7753991Y-6355412D02*
X7753991Y-6183984D01*
X7934944Y-6374460D02*
X7915896Y-6383984D01*
X7915896Y-6383984D02*
X7877801Y-6383984D01*
X7877801Y-6383984D02*
X7858753Y-6374460D01*
X7858753Y-6374460D02*
X7849230Y-6355412D01*
X7849230Y-6355412D02*
X7849230Y-6279222D01*
X7849230Y-6279222D02*
X7858753Y-6260174D01*
X7858753Y-6260174D02*
X7877801Y-6250650D01*
X7877801Y-6250650D02*
X7915896Y-6250650D01*
X7915896Y-6250650D02*
X7934944Y-6260174D01*
X7934944Y-6260174D02*
X7944468Y-6279222D01*
X7944468Y-6279222D02*
X7944468Y-6298269D01*
X7944468Y-6298269D02*
X7849230Y-6317317D01*
X8020658Y-6374460D02*
X8039706Y-6383984D01*
X8039706Y-6383984D02*
X8077801Y-6383984D01*
X8077801Y-6383984D02*
X8096849Y-6374460D01*
X8096849Y-6374460D02*
X8106372Y-6355412D01*
X8106372Y-6355412D02*
X8106372Y-6345888D01*
X8106372Y-6345888D02*
X8096849Y-6326841D01*
X8096849Y-6326841D02*
X8077801Y-6317317D01*
X8077801Y-6317317D02*
X8049230Y-6317317D01*
X8049230Y-6317317D02*
X8030182Y-6307793D01*
X8030182Y-6307793D02*
X8020658Y-6288746D01*
X8020658Y-6288746D02*
X8020658Y-6279222D01*
X8020658Y-6279222D02*
X8030182Y-6260174D01*
X8030182Y-6260174D02*
X8049230Y-6250650D01*
X8049230Y-6250650D02*
X8077801Y-6250650D01*
X8077801Y-6250650D02*
X8096849Y-6260174D01*
X8173039Y-6460174D02*
X8182563Y-6450650D01*
X8182563Y-6450650D02*
X8201611Y-6422079D01*
X8201611Y-6422079D02*
X8211134Y-6403031D01*
X8211134Y-6403031D02*
X8220658Y-6374460D01*
X8220658Y-6374460D02*
X8230182Y-6326841D01*
X8230182Y-6326841D02*
X8230182Y-6288746D01*
X8230182Y-6288746D02*
X8220658Y-6241127D01*
X8220658Y-6241127D02*
X8211134Y-6212555D01*
X8211134Y-6212555D02*
X8201611Y-6193508D01*
X8201611Y-6193508D02*
X8182563Y-6164936D01*
X8182563Y-6164936D02*
X8173039Y-6155412D01*
D12*
X3207500Y-6556500D02*
G75*
G02*
X3157500Y-6556500I-25000J0D01*
G01*
X3157500Y-6556500D02*
G75*
G02*
X3207500Y-6556500I25000J0D01*
G01*
D11*
X3506372Y-6447984D02*
X3525420Y-6447984D01*
X3525420Y-6447984D02*
X3544467Y-6457508D01*
X3544467Y-6457508D02*
X3553991Y-6467031D01*
X3553991Y-6467031D02*
X3563515Y-6486079D01*
X3563515Y-6486079D02*
X3573039Y-6524174D01*
X3573039Y-6524174D02*
X3573039Y-6571793D01*
X3573039Y-6571793D02*
X3563515Y-6609888D01*
X3563515Y-6609888D02*
X3553991Y-6628936D01*
X3553991Y-6628936D02*
X3544467Y-6638460D01*
X3544467Y-6638460D02*
X3525420Y-6647984D01*
X3525420Y-6647984D02*
X3506372Y-6647984D01*
X3506372Y-6647984D02*
X3487324Y-6638460D01*
X3487324Y-6638460D02*
X3477801Y-6628936D01*
X3477801Y-6628936D02*
X3468277Y-6609888D01*
X3468277Y-6609888D02*
X3458753Y-6571793D01*
X3458753Y-6571793D02*
X3458753Y-6524174D01*
X3458753Y-6524174D02*
X3468277Y-6486079D01*
X3468277Y-6486079D02*
X3477801Y-6467031D01*
X3477801Y-6467031D02*
X3487324Y-6457508D01*
X3487324Y-6457508D02*
X3506372Y-6447984D01*
X3658753Y-6628936D02*
X3668277Y-6638460D01*
X3668277Y-6638460D02*
X3658753Y-6647984D01*
X3658753Y-6647984D02*
X3649229Y-6638460D01*
X3649229Y-6638460D02*
X3658753Y-6628936D01*
X3658753Y-6628936D02*
X3658753Y-6647984D01*
X3849229Y-6447984D02*
X3753991Y-6447984D01*
X3753991Y-6447984D02*
X3744467Y-6543222D01*
X3744467Y-6543222D02*
X3753991Y-6533698D01*
X3753991Y-6533698D02*
X3773039Y-6524174D01*
X3773039Y-6524174D02*
X3820658Y-6524174D01*
X3820658Y-6524174D02*
X3839705Y-6533698D01*
X3839705Y-6533698D02*
X3849229Y-6543222D01*
X3849229Y-6543222D02*
X3858753Y-6562269D01*
X3858753Y-6562269D02*
X3858753Y-6609888D01*
X3858753Y-6609888D02*
X3849229Y-6628936D01*
X3849229Y-6628936D02*
X3839705Y-6638460D01*
X3839705Y-6638460D02*
X3820658Y-6647984D01*
X3820658Y-6647984D02*
X3773039Y-6647984D01*
X3773039Y-6647984D02*
X3753991Y-6638460D01*
X3753991Y-6638460D02*
X3744467Y-6628936D01*
X3982562Y-6447984D02*
X4001610Y-6447984D01*
X4001610Y-6447984D02*
X4020658Y-6457508D01*
X4020658Y-6457508D02*
X4030182Y-6467031D01*
X4030182Y-6467031D02*
X4039705Y-6486079D01*
X4039705Y-6486079D02*
X4049229Y-6524174D01*
X4049229Y-6524174D02*
X4049229Y-6571793D01*
X4049229Y-6571793D02*
X4039705Y-6609888D01*
X4039705Y-6609888D02*
X4030182Y-6628936D01*
X4030182Y-6628936D02*
X4020658Y-6638460D01*
X4020658Y-6638460D02*
X4001610Y-6647984D01*
X4001610Y-6647984D02*
X3982562Y-6647984D01*
X3982562Y-6647984D02*
X3963515Y-6638460D01*
X3963515Y-6638460D02*
X3953991Y-6628936D01*
X3953991Y-6628936D02*
X3944467Y-6609888D01*
X3944467Y-6609888D02*
X3934943Y-6571793D01*
X3934943Y-6571793D02*
X3934943Y-6524174D01*
X3934943Y-6524174D02*
X3944467Y-6486079D01*
X3944467Y-6486079D02*
X3953991Y-6467031D01*
X3953991Y-6467031D02*
X3963515Y-6457508D01*
X3963515Y-6457508D02*
X3982562Y-6447984D01*
X4173039Y-6447984D02*
X4192086Y-6447984D01*
X4192086Y-6447984D02*
X4211134Y-6457508D01*
X4211134Y-6457508D02*
X4220658Y-6467031D01*
X4220658Y-6467031D02*
X4230182Y-6486079D01*
X4230182Y-6486079D02*
X4239705Y-6524174D01*
X4239705Y-6524174D02*
X4239705Y-6571793D01*
X4239705Y-6571793D02*
X4230182Y-6609888D01*
X4230182Y-6609888D02*
X4220658Y-6628936D01*
X4220658Y-6628936D02*
X4211134Y-6638460D01*
X4211134Y-6638460D02*
X4192086Y-6647984D01*
X4192086Y-6647984D02*
X4173039Y-6647984D01*
X4173039Y-6647984D02*
X4153991Y-6638460D01*
X4153991Y-6638460D02*
X4144467Y-6628936D01*
X4144467Y-6628936D02*
X4134943Y-6609888D01*
X4134943Y-6609888D02*
X4125420Y-6571793D01*
X4125420Y-6571793D02*
X4125420Y-6524174D01*
X4125420Y-6524174D02*
X4134943Y-6486079D01*
X4134943Y-6486079D02*
X4144467Y-6467031D01*
X4144467Y-6467031D02*
X4153991Y-6457508D01*
X4153991Y-6457508D02*
X4173039Y-6447984D01*
X4325420Y-6647984D02*
X4325420Y-6514650D01*
X4325420Y-6533698D02*
X4334944Y-6524174D01*
X4334944Y-6524174D02*
X4353991Y-6514650D01*
X4353991Y-6514650D02*
X4382563Y-6514650D01*
X4382563Y-6514650D02*
X4401610Y-6524174D01*
X4401610Y-6524174D02*
X4411134Y-6543222D01*
X4411134Y-6543222D02*
X4411134Y-6647984D01*
X4411134Y-6543222D02*
X4420658Y-6524174D01*
X4420658Y-6524174D02*
X4439705Y-6514650D01*
X4439705Y-6514650D02*
X4468277Y-6514650D01*
X4468277Y-6514650D02*
X4487325Y-6524174D01*
X4487325Y-6524174D02*
X4496848Y-6543222D01*
X4496848Y-6543222D02*
X4496848Y-6647984D01*
X4592086Y-6647984D02*
X4592086Y-6514650D01*
X4592086Y-6533698D02*
X4601610Y-6524174D01*
X4601610Y-6524174D02*
X4620658Y-6514650D01*
X4620658Y-6514650D02*
X4649229Y-6514650D01*
X4649229Y-6514650D02*
X4668277Y-6524174D01*
X4668277Y-6524174D02*
X4677801Y-6543222D01*
X4677801Y-6543222D02*
X4677801Y-6647984D01*
X4677801Y-6543222D02*
X4687325Y-6524174D01*
X4687325Y-6524174D02*
X4706372Y-6514650D01*
X4706372Y-6514650D02*
X4734944Y-6514650D01*
X4734944Y-6514650D02*
X4753991Y-6524174D01*
X4753991Y-6524174D02*
X4763515Y-6543222D01*
X4763515Y-6543222D02*
X4763515Y-6647984D01*
X5153991Y-6438460D02*
X4982563Y-6695603D01*
X5411134Y-6447984D02*
X5430182Y-6447984D01*
X5430182Y-6447984D02*
X5449229Y-6457508D01*
X5449229Y-6457508D02*
X5458753Y-6467031D01*
X5458753Y-6467031D02*
X5468277Y-6486079D01*
X5468277Y-6486079D02*
X5477801Y-6524174D01*
X5477801Y-6524174D02*
X5477801Y-6571793D01*
X5477801Y-6571793D02*
X5468277Y-6609888D01*
X5468277Y-6609888D02*
X5458753Y-6628936D01*
X5458753Y-6628936D02*
X5449229Y-6638460D01*
X5449229Y-6638460D02*
X5430182Y-6647984D01*
X5430182Y-6647984D02*
X5411134Y-6647984D01*
X5411134Y-6647984D02*
X5392087Y-6638460D01*
X5392087Y-6638460D02*
X5382563Y-6628936D01*
X5382563Y-6628936D02*
X5373039Y-6609888D01*
X5373039Y-6609888D02*
X5363515Y-6571793D01*
X5363515Y-6571793D02*
X5363515Y-6524174D01*
X5363515Y-6524174D02*
X5373039Y-6486079D01*
X5373039Y-6486079D02*
X5382563Y-6467031D01*
X5382563Y-6467031D02*
X5392087Y-6457508D01*
X5392087Y-6457508D02*
X5411134Y-6447984D01*
X5563515Y-6628936D02*
X5573039Y-6638460D01*
X5573039Y-6638460D02*
X5563515Y-6647984D01*
X5563515Y-6647984D02*
X5553991Y-6638460D01*
X5553991Y-6638460D02*
X5563515Y-6628936D01*
X5563515Y-6628936D02*
X5563515Y-6647984D01*
X5696848Y-6447984D02*
X5715896Y-6447984D01*
X5715896Y-6447984D02*
X5734944Y-6457508D01*
X5734944Y-6457508D02*
X5744467Y-6467031D01*
X5744467Y-6467031D02*
X5753991Y-6486079D01*
X5753991Y-6486079D02*
X5763515Y-6524174D01*
X5763515Y-6524174D02*
X5763515Y-6571793D01*
X5763515Y-6571793D02*
X5753991Y-6609888D01*
X5753991Y-6609888D02*
X5744467Y-6628936D01*
X5744467Y-6628936D02*
X5734944Y-6638460D01*
X5734944Y-6638460D02*
X5715896Y-6647984D01*
X5715896Y-6647984D02*
X5696848Y-6647984D01*
X5696848Y-6647984D02*
X5677801Y-6638460D01*
X5677801Y-6638460D02*
X5668277Y-6628936D01*
X5668277Y-6628936D02*
X5658753Y-6609888D01*
X5658753Y-6609888D02*
X5649229Y-6571793D01*
X5649229Y-6571793D02*
X5649229Y-6524174D01*
X5649229Y-6524174D02*
X5658753Y-6486079D01*
X5658753Y-6486079D02*
X5668277Y-6467031D01*
X5668277Y-6467031D02*
X5677801Y-6457508D01*
X5677801Y-6457508D02*
X5696848Y-6447984D01*
X5953991Y-6647984D02*
X5839706Y-6647984D01*
X5896848Y-6647984D02*
X5896848Y-6447984D01*
X5896848Y-6447984D02*
X5877801Y-6476555D01*
X5877801Y-6476555D02*
X5858753Y-6495603D01*
X5858753Y-6495603D02*
X5839706Y-6505127D01*
X6049229Y-6647984D02*
X6087325Y-6647984D01*
X6087325Y-6647984D02*
X6106372Y-6638460D01*
X6106372Y-6638460D02*
X6115896Y-6628936D01*
X6115896Y-6628936D02*
X6134944Y-6600365D01*
X6134944Y-6600365D02*
X6144467Y-6562269D01*
X6144467Y-6562269D02*
X6144467Y-6486079D01*
X6144467Y-6486079D02*
X6134944Y-6467031D01*
X6134944Y-6467031D02*
X6125420Y-6457508D01*
X6125420Y-6457508D02*
X6106372Y-6447984D01*
X6106372Y-6447984D02*
X6068277Y-6447984D01*
X6068277Y-6447984D02*
X6049229Y-6457508D01*
X6049229Y-6457508D02*
X6039706Y-6467031D01*
X6039706Y-6467031D02*
X6030182Y-6486079D01*
X6030182Y-6486079D02*
X6030182Y-6533698D01*
X6030182Y-6533698D02*
X6039706Y-6552746D01*
X6039706Y-6552746D02*
X6049229Y-6562269D01*
X6049229Y-6562269D02*
X6068277Y-6571793D01*
X6068277Y-6571793D02*
X6106372Y-6571793D01*
X6106372Y-6571793D02*
X6125420Y-6562269D01*
X6125420Y-6562269D02*
X6134944Y-6552746D01*
X6134944Y-6552746D02*
X6144467Y-6533698D01*
X6211134Y-6447984D02*
X6344467Y-6447984D01*
X6344467Y-6447984D02*
X6258753Y-6647984D01*
X6411134Y-6447984D02*
X6411134Y-6486079D01*
X6487325Y-6447984D02*
X6487325Y-6486079D01*
X6782563Y-6724174D02*
X6773039Y-6714650D01*
X6773039Y-6714650D02*
X6753991Y-6686079D01*
X6753991Y-6686079D02*
X6744468Y-6667031D01*
X6744468Y-6667031D02*
X6734944Y-6638460D01*
X6734944Y-6638460D02*
X6725420Y-6590841D01*
X6725420Y-6590841D02*
X6725420Y-6552746D01*
X6725420Y-6552746D02*
X6734944Y-6505127D01*
X6734944Y-6505127D02*
X6744468Y-6476555D01*
X6744468Y-6476555D02*
X6753991Y-6457508D01*
X6753991Y-6457508D02*
X6773039Y-6428936D01*
X6773039Y-6428936D02*
X6782563Y-6419412D01*
X6887325Y-6533698D02*
X6868277Y-6524174D01*
X6868277Y-6524174D02*
X6858753Y-6514650D01*
X6858753Y-6514650D02*
X6849229Y-6495603D01*
X6849229Y-6495603D02*
X6849229Y-6486079D01*
X6849229Y-6486079D02*
X6858753Y-6467031D01*
X6858753Y-6467031D02*
X6868277Y-6457508D01*
X6868277Y-6457508D02*
X6887325Y-6447984D01*
X6887325Y-6447984D02*
X6925420Y-6447984D01*
X6925420Y-6447984D02*
X6944468Y-6457508D01*
X6944468Y-6457508D02*
X6953991Y-6467031D01*
X6953991Y-6467031D02*
X6963515Y-6486079D01*
X6963515Y-6486079D02*
X6963515Y-6495603D01*
X6963515Y-6495603D02*
X6953991Y-6514650D01*
X6953991Y-6514650D02*
X6944468Y-6524174D01*
X6944468Y-6524174D02*
X6925420Y-6533698D01*
X6925420Y-6533698D02*
X6887325Y-6533698D01*
X6887325Y-6533698D02*
X6868277Y-6543222D01*
X6868277Y-6543222D02*
X6858753Y-6552746D01*
X6858753Y-6552746D02*
X6849229Y-6571793D01*
X6849229Y-6571793D02*
X6849229Y-6609888D01*
X6849229Y-6609888D02*
X6858753Y-6628936D01*
X6858753Y-6628936D02*
X6868277Y-6638460D01*
X6868277Y-6638460D02*
X6887325Y-6647984D01*
X6887325Y-6647984D02*
X6925420Y-6647984D01*
X6925420Y-6647984D02*
X6944468Y-6638460D01*
X6944468Y-6638460D02*
X6953991Y-6628936D01*
X6953991Y-6628936D02*
X6963515Y-6609888D01*
X6963515Y-6609888D02*
X6963515Y-6571793D01*
X6963515Y-6571793D02*
X6953991Y-6552746D01*
X6953991Y-6552746D02*
X6944468Y-6543222D01*
X6944468Y-6543222D02*
X6925420Y-6533698D01*
X7201610Y-6647984D02*
X7201610Y-6447984D01*
X7287325Y-6647984D02*
X7287325Y-6543222D01*
X7287325Y-6543222D02*
X7277801Y-6524174D01*
X7277801Y-6524174D02*
X7258753Y-6514650D01*
X7258753Y-6514650D02*
X7230182Y-6514650D01*
X7230182Y-6514650D02*
X7211134Y-6524174D01*
X7211134Y-6524174D02*
X7201610Y-6533698D01*
X7411134Y-6647984D02*
X7392087Y-6638460D01*
X7392087Y-6638460D02*
X7382563Y-6628936D01*
X7382563Y-6628936D02*
X7373039Y-6609888D01*
X7373039Y-6609888D02*
X7373039Y-6552746D01*
X7373039Y-6552746D02*
X7382563Y-6533698D01*
X7382563Y-6533698D02*
X7392087Y-6524174D01*
X7392087Y-6524174D02*
X7411134Y-6514650D01*
X7411134Y-6514650D02*
X7439706Y-6514650D01*
X7439706Y-6514650D02*
X7458753Y-6524174D01*
X7458753Y-6524174D02*
X7468277Y-6533698D01*
X7468277Y-6533698D02*
X7477801Y-6552746D01*
X7477801Y-6552746D02*
X7477801Y-6609888D01*
X7477801Y-6609888D02*
X7468277Y-6628936D01*
X7468277Y-6628936D02*
X7458753Y-6638460D01*
X7458753Y-6638460D02*
X7439706Y-6647984D01*
X7439706Y-6647984D02*
X7411134Y-6647984D01*
X7592087Y-6647984D02*
X7573039Y-6638460D01*
X7573039Y-6638460D02*
X7563515Y-6619412D01*
X7563515Y-6619412D02*
X7563515Y-6447984D01*
X7744468Y-6638460D02*
X7725420Y-6647984D01*
X7725420Y-6647984D02*
X7687325Y-6647984D01*
X7687325Y-6647984D02*
X7668277Y-6638460D01*
X7668277Y-6638460D02*
X7658753Y-6619412D01*
X7658753Y-6619412D02*
X7658753Y-6543222D01*
X7658753Y-6543222D02*
X7668277Y-6524174D01*
X7668277Y-6524174D02*
X7687325Y-6514650D01*
X7687325Y-6514650D02*
X7725420Y-6514650D01*
X7725420Y-6514650D02*
X7744468Y-6524174D01*
X7744468Y-6524174D02*
X7753991Y-6543222D01*
X7753991Y-6543222D02*
X7753991Y-6562269D01*
X7753991Y-6562269D02*
X7658753Y-6581317D01*
X7830182Y-6638460D02*
X7849230Y-6647984D01*
X7849230Y-6647984D02*
X7887325Y-6647984D01*
X7887325Y-6647984D02*
X7906372Y-6638460D01*
X7906372Y-6638460D02*
X7915896Y-6619412D01*
X7915896Y-6619412D02*
X7915896Y-6609888D01*
X7915896Y-6609888D02*
X7906372Y-6590841D01*
X7906372Y-6590841D02*
X7887325Y-6581317D01*
X7887325Y-6581317D02*
X7858753Y-6581317D01*
X7858753Y-6581317D02*
X7839706Y-6571793D01*
X7839706Y-6571793D02*
X7830182Y-6552746D01*
X7830182Y-6552746D02*
X7830182Y-6543222D01*
X7830182Y-6543222D02*
X7839706Y-6524174D01*
X7839706Y-6524174D02*
X7858753Y-6514650D01*
X7858753Y-6514650D02*
X7887325Y-6514650D01*
X7887325Y-6514650D02*
X7906372Y-6524174D01*
X7982563Y-6724174D02*
X7992087Y-6714650D01*
X7992087Y-6714650D02*
X8011134Y-6686079D01*
X8011134Y-6686079D02*
X8020658Y-6667031D01*
X8020658Y-6667031D02*
X8030182Y-6638460D01*
X8030182Y-6638460D02*
X8039706Y-6590841D01*
X8039706Y-6590841D02*
X8039706Y-6552746D01*
X8039706Y-6552746D02*
X8030182Y-6505127D01*
X8030182Y-6505127D02*
X8020658Y-6476555D01*
X8020658Y-6476555D02*
X8011134Y-6457508D01*
X8011134Y-6457508D02*
X7992087Y-6428936D01*
X7992087Y-6428936D02*
X7982563Y-6419412D01*
D12*
X3157500Y-6770500D02*
X3157500Y-6870500D01*
X3107500Y-6820500D02*
X3207500Y-6820500D01*
D11*
X3573039Y-6911984D02*
X3458753Y-6911984D01*
X3515896Y-6911984D02*
X3515896Y-6711984D01*
X3515896Y-6711984D02*
X3496848Y-6740555D01*
X3496848Y-6740555D02*
X3477801Y-6759603D01*
X3477801Y-6759603D02*
X3458753Y-6769127D01*
X3658753Y-6892936D02*
X3668277Y-6902460D01*
X3668277Y-6902460D02*
X3658753Y-6911984D01*
X3658753Y-6911984D02*
X3649229Y-6902460D01*
X3649229Y-6902460D02*
X3658753Y-6892936D01*
X3658753Y-6892936D02*
X3658753Y-6911984D01*
X3792086Y-6711984D02*
X3811134Y-6711984D01*
X3811134Y-6711984D02*
X3830182Y-6721508D01*
X3830182Y-6721508D02*
X3839705Y-6731031D01*
X3839705Y-6731031D02*
X3849229Y-6750079D01*
X3849229Y-6750079D02*
X3858753Y-6788174D01*
X3858753Y-6788174D02*
X3858753Y-6835793D01*
X3858753Y-6835793D02*
X3849229Y-6873888D01*
X3849229Y-6873888D02*
X3839705Y-6892936D01*
X3839705Y-6892936D02*
X3830182Y-6902460D01*
X3830182Y-6902460D02*
X3811134Y-6911984D01*
X3811134Y-6911984D02*
X3792086Y-6911984D01*
X3792086Y-6911984D02*
X3773039Y-6902460D01*
X3773039Y-6902460D02*
X3763515Y-6892936D01*
X3763515Y-6892936D02*
X3753991Y-6873888D01*
X3753991Y-6873888D02*
X3744467Y-6835793D01*
X3744467Y-6835793D02*
X3744467Y-6788174D01*
X3744467Y-6788174D02*
X3753991Y-6750079D01*
X3753991Y-6750079D02*
X3763515Y-6731031D01*
X3763515Y-6731031D02*
X3773039Y-6721508D01*
X3773039Y-6721508D02*
X3792086Y-6711984D01*
X3982562Y-6711984D02*
X4001610Y-6711984D01*
X4001610Y-6711984D02*
X4020658Y-6721508D01*
X4020658Y-6721508D02*
X4030182Y-6731031D01*
X4030182Y-6731031D02*
X4039705Y-6750079D01*
X4039705Y-6750079D02*
X4049229Y-6788174D01*
X4049229Y-6788174D02*
X4049229Y-6835793D01*
X4049229Y-6835793D02*
X4039705Y-6873888D01*
X4039705Y-6873888D02*
X4030182Y-6892936D01*
X4030182Y-6892936D02*
X4020658Y-6902460D01*
X4020658Y-6902460D02*
X4001610Y-6911984D01*
X4001610Y-6911984D02*
X3982562Y-6911984D01*
X3982562Y-6911984D02*
X3963515Y-6902460D01*
X3963515Y-6902460D02*
X3953991Y-6892936D01*
X3953991Y-6892936D02*
X3944467Y-6873888D01*
X3944467Y-6873888D02*
X3934943Y-6835793D01*
X3934943Y-6835793D02*
X3934943Y-6788174D01*
X3934943Y-6788174D02*
X3944467Y-6750079D01*
X3944467Y-6750079D02*
X3953991Y-6731031D01*
X3953991Y-6731031D02*
X3963515Y-6721508D01*
X3963515Y-6721508D02*
X3982562Y-6711984D01*
X4173039Y-6711984D02*
X4192086Y-6711984D01*
X4192086Y-6711984D02*
X4211134Y-6721508D01*
X4211134Y-6721508D02*
X4220658Y-6731031D01*
X4220658Y-6731031D02*
X4230182Y-6750079D01*
X4230182Y-6750079D02*
X4239705Y-6788174D01*
X4239705Y-6788174D02*
X4239705Y-6835793D01*
X4239705Y-6835793D02*
X4230182Y-6873888D01*
X4230182Y-6873888D02*
X4220658Y-6892936D01*
X4220658Y-6892936D02*
X4211134Y-6902460D01*
X4211134Y-6902460D02*
X4192086Y-6911984D01*
X4192086Y-6911984D02*
X4173039Y-6911984D01*
X4173039Y-6911984D02*
X4153991Y-6902460D01*
X4153991Y-6902460D02*
X4144467Y-6892936D01*
X4144467Y-6892936D02*
X4134943Y-6873888D01*
X4134943Y-6873888D02*
X4125420Y-6835793D01*
X4125420Y-6835793D02*
X4125420Y-6788174D01*
X4125420Y-6788174D02*
X4134943Y-6750079D01*
X4134943Y-6750079D02*
X4144467Y-6731031D01*
X4144467Y-6731031D02*
X4153991Y-6721508D01*
X4153991Y-6721508D02*
X4173039Y-6711984D01*
X4325420Y-6911984D02*
X4325420Y-6778650D01*
X4325420Y-6797698D02*
X4334944Y-6788174D01*
X4334944Y-6788174D02*
X4353991Y-6778650D01*
X4353991Y-6778650D02*
X4382563Y-6778650D01*
X4382563Y-6778650D02*
X4401610Y-6788174D01*
X4401610Y-6788174D02*
X4411134Y-6807222D01*
X4411134Y-6807222D02*
X4411134Y-6911984D01*
X4411134Y-6807222D02*
X4420658Y-6788174D01*
X4420658Y-6788174D02*
X4439705Y-6778650D01*
X4439705Y-6778650D02*
X4468277Y-6778650D01*
X4468277Y-6778650D02*
X4487325Y-6788174D01*
X4487325Y-6788174D02*
X4496848Y-6807222D01*
X4496848Y-6807222D02*
X4496848Y-6911984D01*
X4592086Y-6911984D02*
X4592086Y-6778650D01*
X4592086Y-6797698D02*
X4601610Y-6788174D01*
X4601610Y-6788174D02*
X4620658Y-6778650D01*
X4620658Y-6778650D02*
X4649229Y-6778650D01*
X4649229Y-6778650D02*
X4668277Y-6788174D01*
X4668277Y-6788174D02*
X4677801Y-6807222D01*
X4677801Y-6807222D02*
X4677801Y-6911984D01*
X4677801Y-6807222D02*
X4687325Y-6788174D01*
X4687325Y-6788174D02*
X4706372Y-6778650D01*
X4706372Y-6778650D02*
X4734944Y-6778650D01*
X4734944Y-6778650D02*
X4753991Y-6788174D01*
X4753991Y-6788174D02*
X4763515Y-6807222D01*
X4763515Y-6807222D02*
X4763515Y-6911984D01*
X5153991Y-6702460D02*
X4982563Y-6959603D01*
X5411134Y-6711984D02*
X5430182Y-6711984D01*
X5430182Y-6711984D02*
X5449229Y-6721508D01*
X5449229Y-6721508D02*
X5458753Y-6731031D01*
X5458753Y-6731031D02*
X5468277Y-6750079D01*
X5468277Y-6750079D02*
X5477801Y-6788174D01*
X5477801Y-6788174D02*
X5477801Y-6835793D01*
X5477801Y-6835793D02*
X5468277Y-6873888D01*
X5468277Y-6873888D02*
X5458753Y-6892936D01*
X5458753Y-6892936D02*
X5449229Y-6902460D01*
X5449229Y-6902460D02*
X5430182Y-6911984D01*
X5430182Y-6911984D02*
X5411134Y-6911984D01*
X5411134Y-6911984D02*
X5392087Y-6902460D01*
X5392087Y-6902460D02*
X5382563Y-6892936D01*
X5382563Y-6892936D02*
X5373039Y-6873888D01*
X5373039Y-6873888D02*
X5363515Y-6835793D01*
X5363515Y-6835793D02*
X5363515Y-6788174D01*
X5363515Y-6788174D02*
X5373039Y-6750079D01*
X5373039Y-6750079D02*
X5382563Y-6731031D01*
X5382563Y-6731031D02*
X5392087Y-6721508D01*
X5392087Y-6721508D02*
X5411134Y-6711984D01*
X5563515Y-6892936D02*
X5573039Y-6902460D01*
X5573039Y-6902460D02*
X5563515Y-6911984D01*
X5563515Y-6911984D02*
X5553991Y-6902460D01*
X5553991Y-6902460D02*
X5563515Y-6892936D01*
X5563515Y-6892936D02*
X5563515Y-6911984D01*
X5696848Y-6711984D02*
X5715896Y-6711984D01*
X5715896Y-6711984D02*
X5734944Y-6721508D01*
X5734944Y-6721508D02*
X5744467Y-6731031D01*
X5744467Y-6731031D02*
X5753991Y-6750079D01*
X5753991Y-6750079D02*
X5763515Y-6788174D01*
X5763515Y-6788174D02*
X5763515Y-6835793D01*
X5763515Y-6835793D02*
X5753991Y-6873888D01*
X5753991Y-6873888D02*
X5744467Y-6892936D01*
X5744467Y-6892936D02*
X5734944Y-6902460D01*
X5734944Y-6902460D02*
X5715896Y-6911984D01*
X5715896Y-6911984D02*
X5696848Y-6911984D01*
X5696848Y-6911984D02*
X5677801Y-6902460D01*
X5677801Y-6902460D02*
X5668277Y-6892936D01*
X5668277Y-6892936D02*
X5658753Y-6873888D01*
X5658753Y-6873888D02*
X5649229Y-6835793D01*
X5649229Y-6835793D02*
X5649229Y-6788174D01*
X5649229Y-6788174D02*
X5658753Y-6750079D01*
X5658753Y-6750079D02*
X5668277Y-6731031D01*
X5668277Y-6731031D02*
X5677801Y-6721508D01*
X5677801Y-6721508D02*
X5696848Y-6711984D01*
X5830182Y-6711984D02*
X5953991Y-6711984D01*
X5953991Y-6711984D02*
X5887325Y-6788174D01*
X5887325Y-6788174D02*
X5915896Y-6788174D01*
X5915896Y-6788174D02*
X5934944Y-6797698D01*
X5934944Y-6797698D02*
X5944467Y-6807222D01*
X5944467Y-6807222D02*
X5953991Y-6826269D01*
X5953991Y-6826269D02*
X5953991Y-6873888D01*
X5953991Y-6873888D02*
X5944467Y-6892936D01*
X5944467Y-6892936D02*
X5934944Y-6902460D01*
X5934944Y-6902460D02*
X5915896Y-6911984D01*
X5915896Y-6911984D02*
X5858753Y-6911984D01*
X5858753Y-6911984D02*
X5839706Y-6902460D01*
X5839706Y-6902460D02*
X5830182Y-6892936D01*
X6049229Y-6911984D02*
X6087325Y-6911984D01*
X6087325Y-6911984D02*
X6106372Y-6902460D01*
X6106372Y-6902460D02*
X6115896Y-6892936D01*
X6115896Y-6892936D02*
X6134944Y-6864365D01*
X6134944Y-6864365D02*
X6144467Y-6826269D01*
X6144467Y-6826269D02*
X6144467Y-6750079D01*
X6144467Y-6750079D02*
X6134944Y-6731031D01*
X6134944Y-6731031D02*
X6125420Y-6721508D01*
X6125420Y-6721508D02*
X6106372Y-6711984D01*
X6106372Y-6711984D02*
X6068277Y-6711984D01*
X6068277Y-6711984D02*
X6049229Y-6721508D01*
X6049229Y-6721508D02*
X6039706Y-6731031D01*
X6039706Y-6731031D02*
X6030182Y-6750079D01*
X6030182Y-6750079D02*
X6030182Y-6797698D01*
X6030182Y-6797698D02*
X6039706Y-6816746D01*
X6039706Y-6816746D02*
X6049229Y-6826269D01*
X6049229Y-6826269D02*
X6068277Y-6835793D01*
X6068277Y-6835793D02*
X6106372Y-6835793D01*
X6106372Y-6835793D02*
X6125420Y-6826269D01*
X6125420Y-6826269D02*
X6134944Y-6816746D01*
X6134944Y-6816746D02*
X6144467Y-6797698D01*
X6315896Y-6778650D02*
X6315896Y-6911984D01*
X6268277Y-6702460D02*
X6220658Y-6845317D01*
X6220658Y-6845317D02*
X6344467Y-6845317D01*
X6411134Y-6711984D02*
X6411134Y-6750079D01*
X6487325Y-6711984D02*
X6487325Y-6750079D01*
X6782563Y-6988174D02*
X6773039Y-6978650D01*
X6773039Y-6978650D02*
X6753991Y-6950079D01*
X6753991Y-6950079D02*
X6744468Y-6931031D01*
X6744468Y-6931031D02*
X6734944Y-6902460D01*
X6734944Y-6902460D02*
X6725420Y-6854841D01*
X6725420Y-6854841D02*
X6725420Y-6816746D01*
X6725420Y-6816746D02*
X6734944Y-6769127D01*
X6734944Y-6769127D02*
X6744468Y-6740555D01*
X6744468Y-6740555D02*
X6753991Y-6721508D01*
X6753991Y-6721508D02*
X6773039Y-6692936D01*
X6773039Y-6692936D02*
X6782563Y-6683412D01*
X6963515Y-6911984D02*
X6849229Y-6911984D01*
X6906372Y-6911984D02*
X6906372Y-6711984D01*
X6906372Y-6711984D02*
X6887325Y-6740555D01*
X6887325Y-6740555D02*
X6868277Y-6759603D01*
X6868277Y-6759603D02*
X6849229Y-6769127D01*
X7134944Y-6711984D02*
X7096848Y-6711984D01*
X7096848Y-6711984D02*
X7077801Y-6721508D01*
X7077801Y-6721508D02*
X7068277Y-6731031D01*
X7068277Y-6731031D02*
X7049229Y-6759603D01*
X7049229Y-6759603D02*
X7039706Y-6797698D01*
X7039706Y-6797698D02*
X7039706Y-6873888D01*
X7039706Y-6873888D02*
X7049229Y-6892936D01*
X7049229Y-6892936D02*
X7058753Y-6902460D01*
X7058753Y-6902460D02*
X7077801Y-6911984D01*
X7077801Y-6911984D02*
X7115896Y-6911984D01*
X7115896Y-6911984D02*
X7134944Y-6902460D01*
X7134944Y-6902460D02*
X7144468Y-6892936D01*
X7144468Y-6892936D02*
X7153991Y-6873888D01*
X7153991Y-6873888D02*
X7153991Y-6826269D01*
X7153991Y-6826269D02*
X7144468Y-6807222D01*
X7144468Y-6807222D02*
X7134944Y-6797698D01*
X7134944Y-6797698D02*
X7115896Y-6788174D01*
X7115896Y-6788174D02*
X7077801Y-6788174D01*
X7077801Y-6788174D02*
X7058753Y-6797698D01*
X7058753Y-6797698D02*
X7049229Y-6807222D01*
X7049229Y-6807222D02*
X7039706Y-6826269D01*
X7392087Y-6911984D02*
X7392087Y-6711984D01*
X7477801Y-6911984D02*
X7477801Y-6807222D01*
X7477801Y-6807222D02*
X7468277Y-6788174D01*
X7468277Y-6788174D02*
X7449230Y-6778650D01*
X7449230Y-6778650D02*
X7420658Y-6778650D01*
X7420658Y-6778650D02*
X7401610Y-6788174D01*
X7401610Y-6788174D02*
X7392087Y-6797698D01*
X7601610Y-6911984D02*
X7582563Y-6902460D01*
X7582563Y-6902460D02*
X7573039Y-6892936D01*
X7573039Y-6892936D02*
X7563515Y-6873888D01*
X7563515Y-6873888D02*
X7563515Y-6816746D01*
X7563515Y-6816746D02*
X7573039Y-6797698D01*
X7573039Y-6797698D02*
X7582563Y-6788174D01*
X7582563Y-6788174D02*
X7601610Y-6778650D01*
X7601610Y-6778650D02*
X7630182Y-6778650D01*
X7630182Y-6778650D02*
X7649230Y-6788174D01*
X7649230Y-6788174D02*
X7658753Y-6797698D01*
X7658753Y-6797698D02*
X7668277Y-6816746D01*
X7668277Y-6816746D02*
X7668277Y-6873888D01*
X7668277Y-6873888D02*
X7658753Y-6892936D01*
X7658753Y-6892936D02*
X7649230Y-6902460D01*
X7649230Y-6902460D02*
X7630182Y-6911984D01*
X7630182Y-6911984D02*
X7601610Y-6911984D01*
X7782563Y-6911984D02*
X7763515Y-6902460D01*
X7763515Y-6902460D02*
X7753991Y-6883412D01*
X7753991Y-6883412D02*
X7753991Y-6711984D01*
X7934944Y-6902460D02*
X7915896Y-6911984D01*
X7915896Y-6911984D02*
X7877801Y-6911984D01*
X7877801Y-6911984D02*
X7858753Y-6902460D01*
X7858753Y-6902460D02*
X7849230Y-6883412D01*
X7849230Y-6883412D02*
X7849230Y-6807222D01*
X7849230Y-6807222D02*
X7858753Y-6788174D01*
X7858753Y-6788174D02*
X7877801Y-6778650D01*
X7877801Y-6778650D02*
X7915896Y-6778650D01*
X7915896Y-6778650D02*
X7934944Y-6788174D01*
X7934944Y-6788174D02*
X7944468Y-6807222D01*
X7944468Y-6807222D02*
X7944468Y-6826269D01*
X7944468Y-6826269D02*
X7849230Y-6845317D01*
X8020658Y-6902460D02*
X8039706Y-6911984D01*
X8039706Y-6911984D02*
X8077801Y-6911984D01*
X8077801Y-6911984D02*
X8096849Y-6902460D01*
X8096849Y-6902460D02*
X8106372Y-6883412D01*
X8106372Y-6883412D02*
X8106372Y-6873888D01*
X8106372Y-6873888D02*
X8096849Y-6854841D01*
X8096849Y-6854841D02*
X8077801Y-6845317D01*
X8077801Y-6845317D02*
X8049230Y-6845317D01*
X8049230Y-6845317D02*
X8030182Y-6835793D01*
X8030182Y-6835793D02*
X8020658Y-6816746D01*
X8020658Y-6816746D02*
X8020658Y-6807222D01*
X8020658Y-6807222D02*
X8030182Y-6788174D01*
X8030182Y-6788174D02*
X8049230Y-6778650D01*
X8049230Y-6778650D02*
X8077801Y-6778650D01*
X8077801Y-6778650D02*
X8096849Y-6788174D01*
X8173039Y-6988174D02*
X8182563Y-6978650D01*
X8182563Y-6978650D02*
X8201611Y-6950079D01*
X8201611Y-6950079D02*
X8211134Y-6931031D01*
X8211134Y-6931031D02*
X8220658Y-6902460D01*
X8220658Y-6902460D02*
X8230182Y-6854841D01*
X8230182Y-6854841D02*
X8230182Y-6816746D01*
X8230182Y-6816746D02*
X8220658Y-6769127D01*
X8220658Y-6769127D02*
X8211134Y-6740555D01*
X8211134Y-6740555D02*
X8201611Y-6721508D01*
X8201611Y-6721508D02*
X8182563Y-6692936D01*
X8182563Y-6692936D02*
X8173039Y-6683412D01*
D13*
X3191391Y-7123391D02*
X3191391Y-7045609D01*
X3113609Y-7045609D01*
X3113609Y-7123391D01*
X3191391Y-7123391D01*
D11*
X3573039Y-7175984D02*
X3458753Y-7175984D01*
X3515896Y-7175984D02*
X3515896Y-6975984D01*
X3515896Y-6975984D02*
X3496848Y-7004555D01*
X3496848Y-7004555D02*
X3477801Y-7023603D01*
X3477801Y-7023603D02*
X3458753Y-7033127D01*
X3658753Y-7156936D02*
X3668277Y-7166460D01*
X3668277Y-7166460D02*
X3658753Y-7175984D01*
X3658753Y-7175984D02*
X3649229Y-7166460D01*
X3649229Y-7166460D02*
X3658753Y-7156936D01*
X3658753Y-7156936D02*
X3658753Y-7175984D01*
X3858753Y-7175984D02*
X3744467Y-7175984D01*
X3801610Y-7175984D02*
X3801610Y-6975984D01*
X3801610Y-6975984D02*
X3782562Y-7004555D01*
X3782562Y-7004555D02*
X3763515Y-7023603D01*
X3763515Y-7023603D02*
X3744467Y-7033127D01*
X3982562Y-6975984D02*
X4001610Y-6975984D01*
X4001610Y-6975984D02*
X4020658Y-6985508D01*
X4020658Y-6985508D02*
X4030182Y-6995031D01*
X4030182Y-6995031D02*
X4039705Y-7014079D01*
X4039705Y-7014079D02*
X4049229Y-7052174D01*
X4049229Y-7052174D02*
X4049229Y-7099793D01*
X4049229Y-7099793D02*
X4039705Y-7137888D01*
X4039705Y-7137888D02*
X4030182Y-7156936D01*
X4030182Y-7156936D02*
X4020658Y-7166460D01*
X4020658Y-7166460D02*
X4001610Y-7175984D01*
X4001610Y-7175984D02*
X3982562Y-7175984D01*
X3982562Y-7175984D02*
X3963515Y-7166460D01*
X3963515Y-7166460D02*
X3953991Y-7156936D01*
X3953991Y-7156936D02*
X3944467Y-7137888D01*
X3944467Y-7137888D02*
X3934943Y-7099793D01*
X3934943Y-7099793D02*
X3934943Y-7052174D01*
X3934943Y-7052174D02*
X3944467Y-7014079D01*
X3944467Y-7014079D02*
X3953991Y-6995031D01*
X3953991Y-6995031D02*
X3963515Y-6985508D01*
X3963515Y-6985508D02*
X3982562Y-6975984D01*
X4173039Y-6975984D02*
X4192086Y-6975984D01*
X4192086Y-6975984D02*
X4211134Y-6985508D01*
X4211134Y-6985508D02*
X4220658Y-6995031D01*
X4220658Y-6995031D02*
X4230182Y-7014079D01*
X4230182Y-7014079D02*
X4239705Y-7052174D01*
X4239705Y-7052174D02*
X4239705Y-7099793D01*
X4239705Y-7099793D02*
X4230182Y-7137888D01*
X4230182Y-7137888D02*
X4220658Y-7156936D01*
X4220658Y-7156936D02*
X4211134Y-7166460D01*
X4211134Y-7166460D02*
X4192086Y-7175984D01*
X4192086Y-7175984D02*
X4173039Y-7175984D01*
X4173039Y-7175984D02*
X4153991Y-7166460D01*
X4153991Y-7166460D02*
X4144467Y-7156936D01*
X4144467Y-7156936D02*
X4134943Y-7137888D01*
X4134943Y-7137888D02*
X4125420Y-7099793D01*
X4125420Y-7099793D02*
X4125420Y-7052174D01*
X4125420Y-7052174D02*
X4134943Y-7014079D01*
X4134943Y-7014079D02*
X4144467Y-6995031D01*
X4144467Y-6995031D02*
X4153991Y-6985508D01*
X4153991Y-6985508D02*
X4173039Y-6975984D01*
X4325420Y-7175984D02*
X4325420Y-7042650D01*
X4325420Y-7061698D02*
X4334944Y-7052174D01*
X4334944Y-7052174D02*
X4353991Y-7042650D01*
X4353991Y-7042650D02*
X4382563Y-7042650D01*
X4382563Y-7042650D02*
X4401610Y-7052174D01*
X4401610Y-7052174D02*
X4411134Y-7071222D01*
X4411134Y-7071222D02*
X4411134Y-7175984D01*
X4411134Y-7071222D02*
X4420658Y-7052174D01*
X4420658Y-7052174D02*
X4439705Y-7042650D01*
X4439705Y-7042650D02*
X4468277Y-7042650D01*
X4468277Y-7042650D02*
X4487325Y-7052174D01*
X4487325Y-7052174D02*
X4496848Y-7071222D01*
X4496848Y-7071222D02*
X4496848Y-7175984D01*
X4592086Y-7175984D02*
X4592086Y-7042650D01*
X4592086Y-7061698D02*
X4601610Y-7052174D01*
X4601610Y-7052174D02*
X4620658Y-7042650D01*
X4620658Y-7042650D02*
X4649229Y-7042650D01*
X4649229Y-7042650D02*
X4668277Y-7052174D01*
X4668277Y-7052174D02*
X4677801Y-7071222D01*
X4677801Y-7071222D02*
X4677801Y-7175984D01*
X4677801Y-7071222D02*
X4687325Y-7052174D01*
X4687325Y-7052174D02*
X4706372Y-7042650D01*
X4706372Y-7042650D02*
X4734944Y-7042650D01*
X4734944Y-7042650D02*
X4753991Y-7052174D01*
X4753991Y-7052174D02*
X4763515Y-7071222D01*
X4763515Y-7071222D02*
X4763515Y-7175984D01*
X5153991Y-6966460D02*
X4982563Y-7223603D01*
X5411134Y-6975984D02*
X5430182Y-6975984D01*
X5430182Y-6975984D02*
X5449229Y-6985508D01*
X5449229Y-6985508D02*
X5458753Y-6995031D01*
X5458753Y-6995031D02*
X5468277Y-7014079D01*
X5468277Y-7014079D02*
X5477801Y-7052174D01*
X5477801Y-7052174D02*
X5477801Y-7099793D01*
X5477801Y-7099793D02*
X5468277Y-7137888D01*
X5468277Y-7137888D02*
X5458753Y-7156936D01*
X5458753Y-7156936D02*
X5449229Y-7166460D01*
X5449229Y-7166460D02*
X5430182Y-7175984D01*
X5430182Y-7175984D02*
X5411134Y-7175984D01*
X5411134Y-7175984D02*
X5392087Y-7166460D01*
X5392087Y-7166460D02*
X5382563Y-7156936D01*
X5382563Y-7156936D02*
X5373039Y-7137888D01*
X5373039Y-7137888D02*
X5363515Y-7099793D01*
X5363515Y-7099793D02*
X5363515Y-7052174D01*
X5363515Y-7052174D02*
X5373039Y-7014079D01*
X5373039Y-7014079D02*
X5382563Y-6995031D01*
X5382563Y-6995031D02*
X5392087Y-6985508D01*
X5392087Y-6985508D02*
X5411134Y-6975984D01*
X5563515Y-7156936D02*
X5573039Y-7166460D01*
X5573039Y-7166460D02*
X5563515Y-7175984D01*
X5563515Y-7175984D02*
X5553991Y-7166460D01*
X5553991Y-7166460D02*
X5563515Y-7156936D01*
X5563515Y-7156936D02*
X5563515Y-7175984D01*
X5696848Y-6975984D02*
X5715896Y-6975984D01*
X5715896Y-6975984D02*
X5734944Y-6985508D01*
X5734944Y-6985508D02*
X5744467Y-6995031D01*
X5744467Y-6995031D02*
X5753991Y-7014079D01*
X5753991Y-7014079D02*
X5763515Y-7052174D01*
X5763515Y-7052174D02*
X5763515Y-7099793D01*
X5763515Y-7099793D02*
X5753991Y-7137888D01*
X5753991Y-7137888D02*
X5744467Y-7156936D01*
X5744467Y-7156936D02*
X5734944Y-7166460D01*
X5734944Y-7166460D02*
X5715896Y-7175984D01*
X5715896Y-7175984D02*
X5696848Y-7175984D01*
X5696848Y-7175984D02*
X5677801Y-7166460D01*
X5677801Y-7166460D02*
X5668277Y-7156936D01*
X5668277Y-7156936D02*
X5658753Y-7137888D01*
X5658753Y-7137888D02*
X5649229Y-7099793D01*
X5649229Y-7099793D02*
X5649229Y-7052174D01*
X5649229Y-7052174D02*
X5658753Y-7014079D01*
X5658753Y-7014079D02*
X5668277Y-6995031D01*
X5668277Y-6995031D02*
X5677801Y-6985508D01*
X5677801Y-6985508D02*
X5696848Y-6975984D01*
X5934944Y-7042650D02*
X5934944Y-7175984D01*
X5887325Y-6966460D02*
X5839706Y-7109317D01*
X5839706Y-7109317D02*
X5963515Y-7109317D01*
X6020658Y-6975984D02*
X6144467Y-6975984D01*
X6144467Y-6975984D02*
X6077801Y-7052174D01*
X6077801Y-7052174D02*
X6106372Y-7052174D01*
X6106372Y-7052174D02*
X6125420Y-7061698D01*
X6125420Y-7061698D02*
X6134944Y-7071222D01*
X6134944Y-7071222D02*
X6144467Y-7090269D01*
X6144467Y-7090269D02*
X6144467Y-7137888D01*
X6144467Y-7137888D02*
X6134944Y-7156936D01*
X6134944Y-7156936D02*
X6125420Y-7166460D01*
X6125420Y-7166460D02*
X6106372Y-7175984D01*
X6106372Y-7175984D02*
X6049229Y-7175984D01*
X6049229Y-7175984D02*
X6030182Y-7166460D01*
X6030182Y-7166460D02*
X6020658Y-7156936D01*
X6211134Y-6975984D02*
X6334944Y-6975984D01*
X6334944Y-6975984D02*
X6268277Y-7052174D01*
X6268277Y-7052174D02*
X6296848Y-7052174D01*
X6296848Y-7052174D02*
X6315896Y-7061698D01*
X6315896Y-7061698D02*
X6325420Y-7071222D01*
X6325420Y-7071222D02*
X6334944Y-7090269D01*
X6334944Y-7090269D02*
X6334944Y-7137888D01*
X6334944Y-7137888D02*
X6325420Y-7156936D01*
X6325420Y-7156936D02*
X6315896Y-7166460D01*
X6315896Y-7166460D02*
X6296848Y-7175984D01*
X6296848Y-7175984D02*
X6239706Y-7175984D01*
X6239706Y-7175984D02*
X6220658Y-7166460D01*
X6220658Y-7166460D02*
X6211134Y-7156936D01*
X6411134Y-6975984D02*
X6411134Y-7014079D01*
X6487325Y-6975984D02*
X6487325Y-7014079D01*
X6782563Y-7252174D02*
X6773039Y-7242650D01*
X6773039Y-7242650D02*
X6753991Y-7214079D01*
X6753991Y-7214079D02*
X6744468Y-7195031D01*
X6744468Y-7195031D02*
X6734944Y-7166460D01*
X6734944Y-7166460D02*
X6725420Y-7118841D01*
X6725420Y-7118841D02*
X6725420Y-7080746D01*
X6725420Y-7080746D02*
X6734944Y-7033127D01*
X6734944Y-7033127D02*
X6744468Y-7004555D01*
X6744468Y-7004555D02*
X6753991Y-6985508D01*
X6753991Y-6985508D02*
X6773039Y-6956936D01*
X6773039Y-6956936D02*
X6782563Y-6947412D01*
X6839706Y-6975984D02*
X6963515Y-6975984D01*
X6963515Y-6975984D02*
X6896848Y-7052174D01*
X6896848Y-7052174D02*
X6925420Y-7052174D01*
X6925420Y-7052174D02*
X6944468Y-7061698D01*
X6944468Y-7061698D02*
X6953991Y-7071222D01*
X6953991Y-7071222D02*
X6963515Y-7090269D01*
X6963515Y-7090269D02*
X6963515Y-7137888D01*
X6963515Y-7137888D02*
X6953991Y-7156936D01*
X6953991Y-7156936D02*
X6944468Y-7166460D01*
X6944468Y-7166460D02*
X6925420Y-7175984D01*
X6925420Y-7175984D02*
X6868277Y-7175984D01*
X6868277Y-7175984D02*
X6849229Y-7166460D01*
X6849229Y-7166460D02*
X6839706Y-7156936D01*
X7134944Y-7042650D02*
X7134944Y-7175984D01*
X7087325Y-6966460D02*
X7039706Y-7109317D01*
X7039706Y-7109317D02*
X7163515Y-7109317D01*
X7392087Y-7175984D02*
X7392087Y-6975984D01*
X7477801Y-7175984D02*
X7477801Y-7071222D01*
X7477801Y-7071222D02*
X7468277Y-7052174D01*
X7468277Y-7052174D02*
X7449230Y-7042650D01*
X7449230Y-7042650D02*
X7420658Y-7042650D01*
X7420658Y-7042650D02*
X7401610Y-7052174D01*
X7401610Y-7052174D02*
X7392087Y-7061698D01*
X7601610Y-7175984D02*
X7582563Y-7166460D01*
X7582563Y-7166460D02*
X7573039Y-7156936D01*
X7573039Y-7156936D02*
X7563515Y-7137888D01*
X7563515Y-7137888D02*
X7563515Y-7080746D01*
X7563515Y-7080746D02*
X7573039Y-7061698D01*
X7573039Y-7061698D02*
X7582563Y-7052174D01*
X7582563Y-7052174D02*
X7601610Y-7042650D01*
X7601610Y-7042650D02*
X7630182Y-7042650D01*
X7630182Y-7042650D02*
X7649230Y-7052174D01*
X7649230Y-7052174D02*
X7658753Y-7061698D01*
X7658753Y-7061698D02*
X7668277Y-7080746D01*
X7668277Y-7080746D02*
X7668277Y-7137888D01*
X7668277Y-7137888D02*
X7658753Y-7156936D01*
X7658753Y-7156936D02*
X7649230Y-7166460D01*
X7649230Y-7166460D02*
X7630182Y-7175984D01*
X7630182Y-7175984D02*
X7601610Y-7175984D01*
X7782563Y-7175984D02*
X7763515Y-7166460D01*
X7763515Y-7166460D02*
X7753991Y-7147412D01*
X7753991Y-7147412D02*
X7753991Y-6975984D01*
X7934944Y-7166460D02*
X7915896Y-7175984D01*
X7915896Y-7175984D02*
X7877801Y-7175984D01*
X7877801Y-7175984D02*
X7858753Y-7166460D01*
X7858753Y-7166460D02*
X7849230Y-7147412D01*
X7849230Y-7147412D02*
X7849230Y-7071222D01*
X7849230Y-7071222D02*
X7858753Y-7052174D01*
X7858753Y-7052174D02*
X7877801Y-7042650D01*
X7877801Y-7042650D02*
X7915896Y-7042650D01*
X7915896Y-7042650D02*
X7934944Y-7052174D01*
X7934944Y-7052174D02*
X7944468Y-7071222D01*
X7944468Y-7071222D02*
X7944468Y-7090269D01*
X7944468Y-7090269D02*
X7849230Y-7109317D01*
X8020658Y-7166460D02*
X8039706Y-7175984D01*
X8039706Y-7175984D02*
X8077801Y-7175984D01*
X8077801Y-7175984D02*
X8096849Y-7166460D01*
X8096849Y-7166460D02*
X8106372Y-7147412D01*
X8106372Y-7147412D02*
X8106372Y-7137888D01*
X8106372Y-7137888D02*
X8096849Y-7118841D01*
X8096849Y-7118841D02*
X8077801Y-7109317D01*
X8077801Y-7109317D02*
X8049230Y-7109317D01*
X8049230Y-7109317D02*
X8030182Y-7099793D01*
X8030182Y-7099793D02*
X8020658Y-7080746D01*
X8020658Y-7080746D02*
X8020658Y-7071222D01*
X8020658Y-7071222D02*
X8030182Y-7052174D01*
X8030182Y-7052174D02*
X8049230Y-7042650D01*
X8049230Y-7042650D02*
X8077801Y-7042650D01*
X8077801Y-7042650D02*
X8096849Y-7052174D01*
X8173039Y-7252174D02*
X8182563Y-7242650D01*
X8182563Y-7242650D02*
X8201611Y-7214079D01*
X8201611Y-7214079D02*
X8211134Y-7195031D01*
X8211134Y-7195031D02*
X8220658Y-7166460D01*
X8220658Y-7166460D02*
X8230182Y-7118841D01*
X8230182Y-7118841D02*
X8230182Y-7080746D01*
X8230182Y-7080746D02*
X8220658Y-7033127D01*
X8220658Y-7033127D02*
X8211134Y-7004555D01*
X8211134Y-7004555D02*
X8201611Y-6985508D01*
X8201611Y-6985508D02*
X8182563Y-6956936D01*
X8182563Y-6956936D02*
X8173039Y-6947412D01*
M02*
