M48
; DRILL file {KiCad 8.0.5+1} date 2024-10-17T13:50:33-0400
; FORMAT={-:-/ absolute / inch / decimal}
; #@! TF.CreationDate,2024-10-17T13:50:33-04:00
; #@! TF.GenerationSoftware,Kicad,Pcbnew,8.0.5+1
; #@! TF.FileFunction,Plated,1,4,PTH
FMAT,2
INCH
; #@! TA.AperFunction,Plated,PTH,ViaDrill
T1C0.0118
; #@! TA.AperFunction,Plated,PTH,ViaDrill
T2C0.0157
; #@! TA.AperFunction,Plated,PTH,ViaDrill
T3C0.0197
; #@! TA.AperFunction,Plated,PTH,ComponentDrill
T4C0.0236
; #@! TA.AperFunction,Plated,PTH,ViaDrill
T5C0.0295
; #@! TA.AperFunction,Plated,PTH,ComponentDrill
T6C0.0295
; #@! TA.AperFunction,Plated,PTH,ComponentDrill
T7C0.0354
; #@! TA.AperFunction,Plated,PTH,ComponentDrill
T8C0.0394
; #@! TA.AperFunction,Plated,PTH,ComponentDrill
T9C0.0748
; #@! TA.AperFunction,Plated,PTH,ComponentDrill
T10C0.1063
%
G90
G05
T1
X0.7987Y-2.9179
X0.8892Y-1.1935
X0.905Y-2.4021
X0.9128Y-1.4139
X0.9128Y-1.4687
X0.9207Y-1.7797
X0.9207Y-2.0911
X0.9207Y-2.7092
X0.9246Y-2.5754
X0.9483Y-2.658
X0.9758Y-2.4691
X1.0939Y-2.7447
X1.1057Y-2.0872
X1.1073Y-2.4021
X1.1097Y-1.473
X1.1112Y-1.784
X1.1517Y-2.9634
X1.1569Y-2.1029
X1.1609Y-1.7998
X1.1609Y-2.3982
X1.1845Y-1.8943
X1.2042Y-1.473
X1.5231Y-1.8824
X1.5349Y-3.0006
X1.6372Y-2.7053
X1.6372Y-2.8706
X1.6648Y-3.0714
X1.6805Y-2.7604
X1.6805Y-2.9179
X1.7081Y-2.1029
X1.7908Y-2.0399
X1.8459Y-1.8234
X1.8735Y-2.0754
X1.9902Y-3.2643
X2.0152Y-3.3352
X2.0231Y-3.3982
X2.0821Y-3.2683
X2.0979Y-3.3628
X2.153Y-3.2722
X2.3301Y-3.1777
X2.3709Y-3.0737
X2.3892Y-3.3076
X2.5585Y-3.2722
X2.6195Y-3.2821
X2.6766Y-3.3273
X2.6845Y-3.2643
X2.6884Y-3.3785
X2.7357Y-3.3549
X3.0469Y-3.0884
X3.0703Y-3.3037
X3.3853Y-3.2722
X3.4758Y-3.288
X3.4758Y-3.3785
X3.527Y-3.2604
X3.5467Y-3.351
X3.5861Y-3.4021
X3.7234Y-3.1634
X3.7474Y-3.0658
X3.775Y-3.2958
X3.8144Y-1.5872
X3.8144Y-1.6265
X3.8144Y-1.6659
X3.8144Y-1.7053
X4.0839Y-3.2648
X4.1412Y-3.2801
X4.149Y-3.3785
X4.1845Y-3.2604
X4.2081Y-3.3313
X4.2317Y-3.3943
X4.279Y-3.351
X4.4151Y-3.1874
X4.4286Y-3.2998
X4.4392Y-3.1006
T2
X0.8287Y-1.351
X0.8287Y-1.6594
X0.8287Y-1.9705
X0.8287Y-2.2776
X0.8287Y-2.5965
X1.0349Y-2.7092
X1.0939Y-2.7919
X1.3749Y-2.0256
X1.4168Y-2.7447
X1.4168Y-2.8943
X1.4275Y-2.3363
X1.4719Y-2.5517
X1.7829Y-1.9612
X3.7632Y-2.2447
X3.7672Y-2.1974
X3.8026Y-2.2447
X3.8065Y-2.1974
X4.1766Y-1.5202
X4.1805Y-1.6265
X4.1845Y-1.4454
X4.1845Y-1.7053
X4.216Y-1.5557
X4.2514Y-1.4691
X4.2553Y-1.5242
X4.279Y-2.2447
X4.2829Y-2.1856
X4.2868Y-2.1305
X4.3577Y-2.1305
X4.3577Y-2.1974
X4.3577Y-2.2604
X4.3577Y-2.3155
X4.3853Y-1.6147
X4.3853Y-1.662
X4.3853Y-1.7092
X4.4837Y-1.8824
X4.4876Y-1.9297
X4.5388Y-1.9297
X4.5427Y-1.8824
T3
X0.6648Y-2.9848
X0.6963Y-3.162
X0.7672Y-1.162
X0.8194Y-3.2602
X0.901Y-1.9415
X0.9207Y-1.3155
X0.9876Y-1.8706
X0.9876Y-2.1895
X0.9994Y-3.2683
X0.9994Y-3.6029
X1.0113Y-1.158
X1.0113Y-1.5596
X1.0113Y-3.4612
X1.0191Y-1.0124
X1.0306Y-0.8814
X1.0742Y-2.6344
X1.1057Y-1.8785
X1.1057Y-2.1935
X1.1571Y-0.8608
X1.1727Y-1.9526
X1.1817Y-2.544
X1.1845Y-2.2486
X1.1884Y-1.2643
X1.1884Y-3.0793
X1.1924Y-1.5714
X1.212Y-1.784
X1.2317Y-2.6265
X1.232Y-1.65
X1.2435Y-3.6344
X1.2514Y-3.2919
X1.2553Y-1.1108
X1.2947Y-1.0281
X1.3026Y-2.3982
X1.3498Y-2.9691
X1.3696Y-0.8505
X1.3774Y-1.4848
X1.3774Y-2.5439
X1.3774Y-3.5163
X1.3813Y-2.6423
X1.3931Y-1.1108
X1.4027Y-1.024
X1.4089Y-1.847
X1.4601Y-3.284
X1.4719Y-3.6226
X1.4837Y-1.4848
X1.4918Y-2.4019
X1.5605Y-1.9612
X1.6294Y-1.4966
X1.6451Y-2.9848
X1.649Y-3.2919
X1.649Y-2.3862
X1.6687Y-3.2053
X1.6924Y-2.5517
X1.716Y-2.7013
X1.7199Y-1.2171
X1.7278Y-0.851
X1.7357Y-2.2407
X1.7435Y-1.4966
X1.7672Y-3.6344
X1.8262Y-2.1423
X1.8341Y-2.2604
X1.838Y-2.7998
X1.838Y-2.8943
X1.838Y-2.9887
X1.838Y-3.1699
X1.8459Y-2.6108
X1.8498Y-1.5872
X1.8558Y-1.6835
X1.8695Y-1.4927
X1.8735Y-2.5163
X1.8813Y-1.9809
X1.9364Y-2.9769
X1.9443Y-1.9258
X1.9522Y-1.7722
X1.9522Y-2.4258
X1.9601Y-2.1344
X1.9601Y-2.2958
X1.9719Y-1.6777
X1.9758Y-1.5832
X2.0073Y-2.7525
X2.0113Y-2.6147
X2.0388Y-3.6305
X2.0427Y-2.9651
X2.0742Y-0.8824
X2.1057Y-3.5202
X2.1176Y-1.1305
X2.1648Y-2.5832
X2.1668Y-2.4298
X2.1924Y-2.9651
X2.211Y-2.753
X2.216Y-2.1423
X2.2396Y-2.2958
X2.2672Y-3.6384
X2.275Y-1.6502
X2.342Y-2.9612
X2.3853Y-1.1344
X2.394Y-0.8887
X2.4316Y-2.7574
X2.4601Y-2.5754
X2.4719Y-1.599
X2.4724Y-2.4298
X2.4798Y-2.9612
X2.499Y-2.1097
X2.5231Y-2.2722
X2.5245Y-3.6208
X2.5349Y-3.099
X2.5382Y-1.7758
X2.5388Y-1.9297
X2.5546Y-3.0124
X2.6254Y-1.599
X2.6577Y-2.7442
X2.6727Y-2.9809
X2.6805Y-1.7801
X2.6884Y-1.9258
X2.7002Y-0.8903
X2.724Y-2.09
X2.7316Y-2.4276
X2.7357Y-2.5675
X2.7593Y-2.2643
X2.779Y-3.5163
X2.7925Y-3.6208
X2.7987Y-1.7643
X2.8026Y-1.1344
X2.8065Y-1.8864
X2.901Y-2.9612
X2.9478Y-2.742
X2.9483Y-2.5517
X3.0073Y-1.1502
X3.0664Y-1.7643
X3.1018Y-2.9612
X3.1109Y-0.8924
X3.1294Y-3.6541
X3.1924Y-2.5045
X3.216Y-2.7919
X3.2238Y-2.6502
X3.2238Y-3.1817
X3.2357Y-1.7683
X3.2475Y-3.0911
X3.2514Y-2.3195
X3.2632Y-2.3982
X3.2711Y-1.6344
X3.2804Y-2.9745
X3.2947Y-1.2801
X3.3498Y-2.3155
X3.3498Y-2.4021
X3.3754Y-2.0655
X3.405Y-3.6462
X3.4168Y-1.6817
X3.4207Y-2.5045
X3.4305Y-2.0675
X3.4341Y-2.3761
X3.4522Y-2.0124
X3.4542Y-1.9592
X3.4758Y-2.7958
X3.4798Y-2.2958
X3.4837Y-3.5281
X3.4935Y-2.0695
X3.4994Y-2.6541
X3.5034Y-1.9592
X3.5073Y-1.1423
X3.5654Y-0.8939
X3.6057Y-1.6187
X3.6057Y-2.973
X3.6097Y-1.6935
X3.6116Y-1.5183
X3.6136Y-2.5439
X3.6156Y-1.4435
X3.6805Y-1.5143
X3.6845Y-1.4454
X3.712Y-3.6423
X3.7435Y-2.6974
X3.8144Y-1.1265
X3.8262Y-2.4258
X3.8301Y-2.6069
X3.8301Y-2.9769
X3.8695Y-2.8352
X3.905Y-1.0557
X3.9207Y-3.0911
X3.9246Y-1.6817
X3.9522Y-2.4179
X3.9753Y-2.1799
X3.9798Y-1.8155
X3.9837Y-1.9573
X3.9916Y-3.6344
X3.9994Y-2.973
X4.0034Y-2.5517
X4.0231Y-2.8155
X4.0349Y-2.3982
X4.065Y-1.674
X4.0703Y-2.6738
X4.1372Y-0.8864
X4.1569Y-2.1423
X4.1609Y-3.5399
X4.1746Y-1.1304
X4.1805Y-2.8982
X4.2441Y-3.6417
X4.3774Y-1.099
X4.464Y-1.5163
X4.4798Y-2.8903
X4.4981Y-1.674
X4.4994Y-2.6935
X4.5022Y-3.6495
X4.5546Y-3.4454
X4.5979Y-2.6935
X4.6018Y-0.847
X4.6057Y-1.5006
X4.6176Y-3.1069
X4.6195Y-1.6777
X4.6294Y-2.2368
X4.6294Y-2.3273
X4.6412Y-2.4809
X4.653Y-2.599
X4.6648Y-2.1344
X4.6727Y-2.8864
X4.716Y-2.3903
X4.716Y-2.6817
X4.779Y-3.351
X4.7987Y-1.7722
X4.8058Y-1.988
X4.8144Y-2.3037
X4.854Y-3.105
X4.8577Y-2.2092
X4.8629Y-2.652
X4.8636Y-2.4255
X4.8656Y-2.8667
X4.8735Y-1.9139
T5
X1.4111Y-1.1878
X3.1057Y-1.9376
X4.0349Y-2.2998
X4.6313Y-1.0104
X4.6372Y-1.1699
X4.7711Y-1.5911
T6
X4.7735Y-1.2344
X4.7735Y-1.3132
T7
X1.2425Y-3.1888
X1.2925Y-3.0888
X1.3425Y-3.1888
X1.3925Y-3.0888
X1.4425Y-3.1888
X1.4925Y-3.0888
X1.5425Y-3.1888
X1.5925Y-3.0888
X1.9388Y-3.1888
X1.9888Y-3.0888
X2.0388Y-3.1888
X2.0888Y-3.0888
X2.1388Y-3.1888
X2.1888Y-3.0888
X2.2388Y-3.1888
X2.2888Y-3.0888
X2.635Y-3.1888
X2.685Y-3.0888
X2.735Y-3.1888
X2.785Y-3.0888
X2.835Y-3.1888
X2.885Y-3.0888
X2.935Y-3.1888
X2.985Y-3.0888
X3.3313Y-3.1888
X3.3813Y-3.0888
X3.4313Y-3.1888
X3.4813Y-3.0888
X3.5313Y-3.1888
X3.5813Y-3.0888
X3.6313Y-3.1888
X3.6813Y-3.0888
X4.0276Y-3.1888
X4.0776Y-3.0888
X4.1276Y-3.1888
X4.1776Y-3.0888
X4.2276Y-3.1888
X4.2776Y-3.0888
X4.3276Y-3.1888
X4.3776Y-3.0888
T8
X0.7991Y-3.0108
X0.8991Y-3.0108
X0.9991Y-3.0108
X1.4459Y-1.651
X1.4459Y-1.751
X1.5459Y-1.651
X1.5459Y-1.751
X1.6459Y-1.651
X1.6459Y-1.751
X1.7459Y-1.651
X1.7459Y-1.751
X3.3541Y-0.9203
X3.7872Y-0.9203
X3.927Y-0.9203
X4.36Y-0.9203
X4.5187Y-1.214
X4.5187Y-1.314
T9
X3.4722Y-1.314
X3.6691Y-1.314
X4.0451Y-1.314
X4.2419Y-1.314
T10
X2.0963Y-1.44
X2.0971Y-1.8415
X2.294Y-1.8415
X2.3797Y-1.44
X2.7872Y-1.44
X3.0707Y-1.44
T4
G00X1.9722Y-1.1821
M15
G01X1.9722Y-1.2254
M16
G05
G00X2.5037Y-1.1821
M15
G01X2.5037Y-1.2254
M16
G05
G00X2.6632Y-1.1821
M15
G01X2.6632Y-1.2254
M16
G05
G00X3.1947Y-1.1821
M15
G01X3.1947Y-1.2254
M16
G05
T8
G00X1.5108Y-1.177
M15
G01X1.5108Y-1.2557
M16
G05
G00X1.7352Y-1.0982
M15
G01X1.6565Y-1.0982
M16
G05
G00X1.7451Y-1.3423
M15
G01X1.6467Y-1.3423
M16
G05
M30
