%TF.GenerationSoftware,KiCad,Pcbnew,8.0.5*%
%TF.CreationDate,2024-10-13T14:48:05-04:00*%
%TF.ProjectId,mainBoard,6d61696e-426f-4617-9264-2e6b69636164,rev?*%
%TF.SameCoordinates,Original*%
%TF.FileFunction,Copper,L1,Top*%
%TF.FilePolarity,Positive*%
%FSLAX46Y46*%
G04 Gerber Fmt 4.6, Leading zero omitted, Abs format (unit mm)*
G04 Created by KiCad (PCBNEW 8.0.5) date 2024-10-13 14:48:05*
%MOMM*%
%LPD*%
G01*
G04 APERTURE LIST*
G04 Aperture macros list*
%AMRoundRect*
0 Rectangle with rounded corners*
0 $1 Rounding radius*
0 $2 $3 $4 $5 $6 $7 $8 $9 X,Y pos of 4 corners*
0 Add a 4 corners polygon primitive as box body*
4,1,4,$2,$3,$4,$5,$6,$7,$8,$9,$2,$3,0*
0 Add four circle primitives for the rounded corners*
1,1,$1+$1,$2,$3*
1,1,$1+$1,$4,$5*
1,1,$1+$1,$6,$7*
1,1,$1+$1,$8,$9*
0 Add four rect primitives between the rounded corners*
20,1,$1+$1,$2,$3,$4,$5,0*
20,1,$1+$1,$4,$5,$6,$7,0*
20,1,$1+$1,$6,$7,$8,$9,0*
20,1,$1+$1,$8,$9,$2,$3,0*%
G04 Aperture macros list end*
%TA.AperFunction,ComponentPad*%
%ADD10R,4.500000X2.000000*%
%TD*%
%TA.AperFunction,ComponentPad*%
%ADD11O,4.000000X2.000000*%
%TD*%
%TA.AperFunction,ComponentPad*%
%ADD12O,2.000000X4.000000*%
%TD*%
%TA.AperFunction,ComponentPad*%
%ADD13RoundRect,0.250000X0.625000X-0.350000X0.625000X0.350000X-0.625000X0.350000X-0.625000X-0.350000X0*%
%TD*%
%TA.AperFunction,ComponentPad*%
%ADD14O,1.750000X1.200000*%
%TD*%
%TA.AperFunction,ComponentPad*%
%ADD15R,0.900000X2.000000*%
%TD*%
%TA.AperFunction,ComponentPad*%
%ADD16RoundRect,1.025000X-1.025000X-1.025000X1.025000X-1.025000X1.025000X1.025000X-1.025000X1.025000X0*%
%TD*%
%TA.AperFunction,ComponentPad*%
%ADD17C,4.100000*%
%TD*%
%TA.AperFunction,SMDPad,CuDef*%
%ADD18RoundRect,0.150000X0.625000X-0.150000X0.625000X0.150000X-0.625000X0.150000X-0.625000X-0.150000X0*%
%TD*%
%TA.AperFunction,SMDPad,CuDef*%
%ADD19RoundRect,0.250000X0.650000X-0.350000X0.650000X0.350000X-0.650000X0.350000X-0.650000X-0.350000X0*%
%TD*%
%TA.AperFunction,SMDPad,CuDef*%
%ADD20RoundRect,0.250000X-0.337500X-0.475000X0.337500X-0.475000X0.337500X0.475000X-0.337500X0.475000X0*%
%TD*%
%TA.AperFunction,SMDPad,CuDef*%
%ADD21RoundRect,0.250000X0.337500X0.475000X-0.337500X0.475000X-0.337500X-0.475000X0.337500X-0.475000X0*%
%TD*%
%TA.AperFunction,SMDPad,CuDef*%
%ADD22RoundRect,0.250000X0.475000X-0.337500X0.475000X0.337500X-0.475000X0.337500X-0.475000X-0.337500X0*%
%TD*%
%TA.AperFunction,ComponentPad*%
%ADD23C,1.400000*%
%TD*%
%TA.AperFunction,ComponentPad*%
%ADD24R,3.500000X3.500000*%
%TD*%
%TA.AperFunction,ComponentPad*%
%ADD25C,3.500000*%
%TD*%
%TA.AperFunction,SMDPad,CuDef*%
%ADD26RoundRect,0.250000X-0.450000X0.350000X-0.450000X-0.350000X0.450000X-0.350000X0.450000X0.350000X0*%
%TD*%
%TA.AperFunction,SMDPad,CuDef*%
%ADD27RoundRect,0.250000X-0.350000X-0.450000X0.350000X-0.450000X0.350000X0.450000X-0.350000X0.450000X0*%
%TD*%
%TA.AperFunction,SMDPad,CuDef*%
%ADD28RoundRect,0.250000X0.850000X0.350000X-0.850000X0.350000X-0.850000X-0.350000X0.850000X-0.350000X0*%
%TD*%
%TA.AperFunction,SMDPad,CuDef*%
%ADD29RoundRect,0.250000X1.275000X1.125000X-1.275000X1.125000X-1.275000X-1.125000X1.275000X-1.125000X0*%
%TD*%
%TA.AperFunction,SMDPad,CuDef*%
%ADD30RoundRect,0.249997X2.950003X2.650003X-2.950003X2.650003X-2.950003X-2.650003X2.950003X-2.650003X0*%
%TD*%
%TA.AperFunction,SMDPad,CuDef*%
%ADD31RoundRect,0.250000X0.450000X-0.350000X0.450000X0.350000X-0.450000X0.350000X-0.450000X-0.350000X0*%
%TD*%
%TA.AperFunction,SMDPad,CuDef*%
%ADD32RoundRect,0.250000X0.350000X-0.850000X0.350000X0.850000X-0.350000X0.850000X-0.350000X-0.850000X0*%
%TD*%
%TA.AperFunction,SMDPad,CuDef*%
%ADD33RoundRect,0.250000X1.125000X-1.275000X1.125000X1.275000X-1.125000X1.275000X-1.125000X-1.275000X0*%
%TD*%
%TA.AperFunction,SMDPad,CuDef*%
%ADD34RoundRect,0.249997X2.650003X-2.950003X2.650003X2.950003X-2.650003X2.950003X-2.650003X-2.950003X0*%
%TD*%
%TA.AperFunction,WasherPad*%
%ADD35C,3.650000*%
%TD*%
%TA.AperFunction,ComponentPad*%
%ADD36R,1.500000X1.500000*%
%TD*%
%TA.AperFunction,ComponentPad*%
%ADD37C,1.500000*%
%TD*%
%TA.AperFunction,SMDPad,CuDef*%
%ADD38RoundRect,0.150000X-0.512500X-0.150000X0.512500X-0.150000X0.512500X0.150000X-0.512500X0.150000X0*%
%TD*%
%TA.AperFunction,ComponentPad*%
%ADD39R,1.700000X1.700000*%
%TD*%
%TA.AperFunction,ComponentPad*%
%ADD40O,1.700000X1.700000*%
%TD*%
%TA.AperFunction,SMDPad,CuDef*%
%ADD41RoundRect,0.150000X-0.150000X0.512500X-0.150000X-0.512500X0.150000X-0.512500X0.150000X0.512500X0*%
%TD*%
%TA.AperFunction,SMDPad,CuDef*%
%ADD42RoundRect,0.235000X1.465000X-0.940000X1.465000X0.940000X-1.465000X0.940000X-1.465000X-0.940000X0*%
%TD*%
%TA.AperFunction,SMDPad,CuDef*%
%ADD43RoundRect,0.250000X0.325000X0.450000X-0.325000X0.450000X-0.325000X-0.450000X0.325000X-0.450000X0*%
%TD*%
%TA.AperFunction,ComponentPad*%
%ADD44R,3.800000X3.800000*%
%TD*%
%TA.AperFunction,ComponentPad*%
%ADD45C,4.000000*%
%TD*%
%TA.AperFunction,SMDPad,CuDef*%
%ADD46RoundRect,0.250000X-0.475000X0.337500X-0.475000X-0.337500X0.475000X-0.337500X0.475000X0.337500X0*%
%TD*%
%TA.AperFunction,SMDPad,CuDef*%
%ADD47RoundRect,0.250000X-1.075000X0.400000X-1.075000X-0.400000X1.075000X-0.400000X1.075000X0.400000X0*%
%TD*%
%TA.AperFunction,SMDPad,CuDef*%
%ADD48RoundRect,0.250000X0.400000X1.075000X-0.400000X1.075000X-0.400000X-1.075000X0.400000X-1.075000X0*%
%TD*%
%TA.AperFunction,SMDPad,CuDef*%
%ADD49RoundRect,0.150000X-0.825000X-0.150000X0.825000X-0.150000X0.825000X0.150000X-0.825000X0.150000X0*%
%TD*%
%TA.AperFunction,SMDPad,CuDef*%
%ADD50RoundRect,0.250000X0.450000X-0.325000X0.450000X0.325000X-0.450000X0.325000X-0.450000X-0.325000X0*%
%TD*%
%TA.AperFunction,SMDPad,CuDef*%
%ADD51RoundRect,0.250000X0.350000X0.450000X-0.350000X0.450000X-0.350000X-0.450000X0.350000X-0.450000X0*%
%TD*%
%TA.AperFunction,SMDPad,CuDef*%
%ADD52RoundRect,0.100000X-0.637500X-0.100000X0.637500X-0.100000X0.637500X0.100000X-0.637500X0.100000X0*%
%TD*%
%TA.AperFunction,SMDPad,CuDef*%
%ADD53RoundRect,0.250000X-0.325000X-0.450000X0.325000X-0.450000X0.325000X0.450000X-0.325000X0.450000X0*%
%TD*%
%TA.AperFunction,ViaPad*%
%ADD54C,0.800000*%
%TD*%
%TA.AperFunction,ViaPad*%
%ADD55C,0.600000*%
%TD*%
%TA.AperFunction,ViaPad*%
%ADD56C,1.000000*%
%TD*%
%TA.AperFunction,ViaPad*%
%ADD57C,1.500000*%
%TD*%
%TA.AperFunction,Conductor*%
%ADD58C,0.200000*%
%TD*%
%TA.AperFunction,Conductor*%
%ADD59C,0.600000*%
%TD*%
%TA.AperFunction,Conductor*%
%ADD60C,0.400000*%
%TD*%
%TA.AperFunction,Conductor*%
%ADD61C,1.000000*%
%TD*%
%TA.AperFunction,Conductor*%
%ADD62C,1.500000*%
%TD*%
%TA.AperFunction,Conductor*%
%ADD63C,1.200000*%
%TD*%
G04 APERTURE END LIST*
D10*
%TO.P,J5,1*%
%TO.N,+12V*%
X43075000Y-34095000D03*
D11*
%TO.P,J5,2*%
%TO.N,GND*%
X43075000Y-27895000D03*
D12*
%TO.P,J5,3*%
%TO.N,N/C*%
X38375000Y-30895000D03*
%TD*%
D13*
%TO.P,J21,1,Pin_1*%
%TO.N,+5V*%
X121246571Y-33355001D03*
D14*
%TO.P,J21,2,Pin_2*%
%TO.N,GND*%
X121246571Y-31355001D03*
%TD*%
D15*
%TO.P,J2,*%
%TO.N,*%
X67645000Y-30575000D03*
X81145000Y-30575000D03*
D16*
%TO.P,J2,1,Pin_1*%
%TO.N,+12V*%
X70795000Y-36575000D03*
D17*
%TO.P,J2,2,Pin_2*%
%TO.N,GND*%
X77995000Y-36575000D03*
%TD*%
D18*
%TO.P,J16,1,1*%
%TO.N,SCLS0*%
X21050000Y-38305000D03*
%TO.P,J16,2,2*%
%TO.N,SDAS0*%
X21050000Y-37305000D03*
%TO.P,J16,3,3*%
%TO.N,+3V3*%
X21050000Y-36305000D03*
%TO.P,J16,4,4*%
%TO.N,GND*%
X21050000Y-35305000D03*
D19*
%TO.P,J16,MP*%
%TO.N,N/C*%
X18525000Y-39605000D03*
X18525000Y-34005000D03*
%TD*%
D20*
%TO.P,C5,1*%
%TO.N,+5V*%
X107727500Y-41015000D03*
%TO.P,C5,2*%
%TO.N,GND*%
X109802500Y-41015000D03*
%TD*%
D21*
%TO.P,C3,1*%
%TO.N,Net-(Q1-S)*%
X114289071Y-58490001D03*
%TO.P,C3,2*%
%TO.N,GND*%
X112214071Y-58490001D03*
%TD*%
D20*
%TO.P,C6,1*%
%TO.N,+5V*%
X107737500Y-43075000D03*
%TO.P,C6,2*%
%TO.N,GND*%
X109812500Y-43075000D03*
%TD*%
D22*
%TO.P,C8,1*%
%TO.N,Net-(Q2-S)*%
X88431094Y-56090930D03*
%TO.P,C8,2*%
%TO.N,GND*%
X88431094Y-54015930D03*
%TD*%
D23*
%TO.P,J4,*%
%TO.N,*%
X85195000Y-23375000D03*
X96195000Y-23375000D03*
D24*
%TO.P,J4,1,Pin_1*%
%TO.N,+3V3*%
X93195000Y-33375000D03*
D25*
%TO.P,J4,2,Pin_2*%
%TO.N,GND*%
X88195000Y-33375000D03*
%TD*%
D26*
%TO.P,R10,1*%
%TO.N,Net-(Q2-G)*%
X86050477Y-48063429D03*
%TO.P,R10,2*%
%TO.N,GND*%
X86050477Y-50063429D03*
%TD*%
D27*
%TO.P,R6,1*%
%TO.N,Net-(U2-VFB)*%
X92391094Y-60353430D03*
%TO.P,R6,2*%
%TO.N,+3V3*%
X94391094Y-60353430D03*
%TD*%
D23*
%TO.P,J3,*%
%TO.N,*%
X99745000Y-23375000D03*
X110745000Y-23375000D03*
D24*
%TO.P,J3,1,Pin_1*%
%TO.N,+5V*%
X107745000Y-33375000D03*
D25*
%TO.P,J3,2,Pin_2*%
%TO.N,GND*%
X102745000Y-33375000D03*
%TD*%
D20*
%TO.P,C12,1*%
%TO.N,+3V3*%
X93252978Y-42975000D03*
%TO.P,C12,2*%
%TO.N,GND*%
X95327978Y-42975000D03*
%TD*%
D28*
%TO.P,Q1,1,D*%
%TO.N,+12V*%
X114276572Y-65408430D03*
%TO.P,Q1,2,G*%
%TO.N,Net-(Q1-G)*%
X114276572Y-63128430D03*
D29*
X109651572Y-64653430D03*
X109651572Y-61603430D03*
D30*
X107976572Y-63128430D03*
D29*
X106301572Y-64653430D03*
X106301572Y-61603430D03*
D28*
%TO.P,Q1,3,S*%
%TO.N,Net-(Q1-S)*%
X114276572Y-60848430D03*
%TD*%
D31*
%TO.P,R3,1*%
%TO.N,CANP*%
X38725000Y-70675000D03*
%TO.P,R3,2*%
%TO.N,Net-(C16-Pad1)*%
X38725000Y-68675000D03*
%TD*%
D21*
%TO.P,C2,1*%
%TO.N,Net-(Q1-S)*%
X114289071Y-56400001D03*
%TO.P,C2,2*%
%TO.N,GND*%
X112214071Y-56400001D03*
%TD*%
D32*
%TO.P,Q2,1,D*%
%TO.N,+12V*%
X79241095Y-56065001D03*
%TO.P,Q2,2,G*%
%TO.N,Net-(Q2-G)*%
X81521095Y-56065001D03*
D33*
X79996095Y-51440001D03*
X83046095Y-51440001D03*
D34*
X81521095Y-49765001D03*
D33*
X79996095Y-48090001D03*
X83046095Y-48090001D03*
D32*
%TO.P,Q2,3,S*%
%TO.N,Net-(Q2-S)*%
X83801095Y-56065001D03*
%TD*%
D35*
%TO.P,J11,*%
%TO.N,*%
X101030000Y-87345000D03*
X112460000Y-87345000D03*
D36*
%TO.P,J11,1*%
%TO.N,+12V*%
X102300000Y-80995000D03*
D37*
%TO.P,J11,2*%
X103570000Y-78455000D03*
%TO.P,J11,3*%
X104840000Y-80995000D03*
%TO.P,J11,4*%
%TO.N,GND*%
X106110000Y-78455000D03*
%TO.P,J11,5*%
X107380000Y-80995000D03*
%TO.P,J11,6*%
X108650000Y-78455000D03*
%TO.P,J11,7*%
%TO.N,CANP*%
X109920000Y-80995000D03*
%TO.P,J11,8*%
%TO.N,CANN*%
X111190000Y-78455000D03*
%TD*%
D38*
%TO.P,U1,1,GND*%
%TO.N,GND*%
X114339071Y-50600001D03*
%TO.P,U1,2,SW*%
%TO.N,Net-(U1-SW)*%
X114339071Y-51550001D03*
%TO.P,U1,3,VIN*%
%TO.N,Net-(Q1-S)*%
X114339071Y-52500001D03*
%TO.P,U1,4,VFB*%
%TO.N,Net-(U1-VFB)*%
X116614071Y-52500001D03*
%TO.P,U1,5,EN*%
%TO.N,unconnected-(U1-EN-Pad5)*%
X116614071Y-51550001D03*
%TO.P,U1,6,VBST*%
%TO.N,Net-(U1-VBST)*%
X116614071Y-50600001D03*
%TD*%
D22*
%TO.P,C16,1*%
%TO.N,Net-(C16-Pad1)*%
X38725000Y-66932500D03*
%TO.P,C16,2*%
%TO.N,GND*%
X38725000Y-64857500D03*
%TD*%
D39*
%TO.P,J22,1,Pin_1*%
%TO.N,+5V*%
X114775000Y-33375000D03*
D40*
%TO.P,J22,2,Pin_2*%
%TO.N,GND*%
X114775000Y-30835000D03*
%TD*%
D35*
%TO.P,J7,*%
%TO.N,*%
X30290000Y-87345000D03*
X41720000Y-87345000D03*
D36*
%TO.P,J7,1*%
%TO.N,+12V*%
X31560000Y-80995000D03*
D37*
%TO.P,J7,2*%
X32830000Y-78455000D03*
%TO.P,J7,3*%
X34100000Y-80995000D03*
%TO.P,J7,4*%
%TO.N,GND*%
X35370000Y-78455000D03*
%TO.P,J7,5*%
X36640000Y-80995000D03*
%TO.P,J7,6*%
X37910000Y-78455000D03*
%TO.P,J7,7*%
%TO.N,CANP*%
X39180000Y-80995000D03*
%TO.P,J7,8*%
%TO.N,CANN*%
X40450000Y-78455000D03*
%TD*%
D26*
%TO.P,R19,1*%
%TO.N,+3V3*%
X25795000Y-49595000D03*
%TO.P,R19,2*%
%TO.N,SCLS2*%
X25795000Y-51595000D03*
%TD*%
D21*
%TO.P,C1,1*%
%TO.N,Net-(Q1-S)*%
X114289071Y-54310001D03*
%TO.P,C1,2*%
%TO.N,GND*%
X112214071Y-54310001D03*
%TD*%
D26*
%TO.P,R2,1*%
%TO.N,GND*%
X120576571Y-50495001D03*
%TO.P,R2,2*%
%TO.N,Net-(U1-VFB)*%
X120576571Y-52495001D03*
%TD*%
%TO.P,R17,1*%
%TO.N,+3V3*%
X25895000Y-41695000D03*
%TO.P,R17,2*%
%TO.N,SCLS1*%
X25895000Y-43695000D03*
%TD*%
D41*
%TO.P,U2,1,GND*%
%TO.N,GND*%
X94291094Y-56065930D03*
%TO.P,U2,2,SW*%
%TO.N,Net-(U2-SW)*%
X93341094Y-56065930D03*
%TO.P,U2,3,VIN*%
%TO.N,Net-(Q2-S)*%
X92391094Y-56065930D03*
%TO.P,U2,4,VFB*%
%TO.N,Net-(U2-VFB)*%
X92391094Y-58340930D03*
%TO.P,U2,5,EN*%
%TO.N,unconnected-(U2-EN-Pad5)*%
X93341094Y-58340930D03*
%TO.P,U2,6,VBST*%
%TO.N,Net-(U2-VBST)*%
X94291094Y-58340930D03*
%TD*%
D42*
%TO.P,L2,1,1*%
%TO.N,Net-(U2-SW)*%
X93311094Y-51508430D03*
%TO.P,L2,2,2*%
%TO.N,+3V3*%
X93311094Y-45458430D03*
%TD*%
D39*
%TO.P,J23,1,Pin_1*%
%TO.N,unconnected-(J23-Pin_1-Pad1)*%
X36725000Y-44475000D03*
D40*
%TO.P,J23,2,Pin_2*%
%TO.N,unconnected-(J23-Pin_2-Pad2)*%
X36725000Y-41935000D03*
%TO.P,J23,3,Pin_3*%
%TO.N,SDA1*%
X39265000Y-44475000D03*
%TO.P,J23,4,Pin_4*%
%TO.N,unconnected-(J23-Pin_4-Pad4)*%
X39265000Y-41935000D03*
%TO.P,J23,5,Pin_5*%
%TO.N,SCL1*%
X41805000Y-44475000D03*
%TO.P,J23,6,Pin_6*%
%TO.N,GND*%
X41805000Y-41935000D03*
%TO.P,J23,7,Pin_7*%
%TO.N,GPIO_GCLK*%
X44345000Y-44475000D03*
%TO.P,J23,8,Pin_8*%
%TO.N,unconnected-(J23-Pin_8-Pad8)*%
X44345000Y-41935000D03*
%TD*%
D26*
%TO.P,R20,1*%
%TO.N,+3V3*%
X28125000Y-49595000D03*
%TO.P,R20,2*%
%TO.N,SDAS2*%
X28125000Y-51595000D03*
%TD*%
D43*
%TO.P,D2,1,K*%
%TO.N,GND*%
X35841571Y-32025001D03*
%TO.P,D2,2,A*%
%TO.N,Net-(D2-A)*%
X33791571Y-32025001D03*
%TD*%
D44*
%TO.P,J6,1,Pin_1*%
%TO.N,+12V*%
X53266571Y-46775001D03*
D45*
%TO.P,J6,2,Pin_2*%
%TO.N,GND*%
X58266571Y-46775001D03*
%TD*%
D26*
%TO.P,R16,1*%
%TO.N,+3V3*%
X28225000Y-33795000D03*
%TO.P,R16,2*%
%TO.N,SDAS0*%
X28225000Y-35795000D03*
%TD*%
D22*
%TO.P,C10,1*%
%TO.N,Net-(Q2-S)*%
X86351094Y-56090930D03*
%TO.P,C10,2*%
%TO.N,GND*%
X86351094Y-54015930D03*
%TD*%
D27*
%TO.P,R7,1*%
%TO.N,GND*%
X88541094Y-60353430D03*
%TO.P,R7,2*%
%TO.N,Net-(U2-VFB)*%
X90541094Y-60353430D03*
%TD*%
D39*
%TO.P,J12,1,Pin_1*%
%TO.N,C_TX*%
X20296571Y-76475001D03*
D40*
%TO.P,J12,2,Pin_2*%
%TO.N,C_RX*%
X22836571Y-76475001D03*
%TO.P,J12,3,Pin_3*%
%TO.N,GND*%
X25376571Y-76475001D03*
%TD*%
D26*
%TO.P,R18,1*%
%TO.N,+3V3*%
X28225000Y-41695000D03*
%TO.P,R18,2*%
%TO.N,SDAS1*%
X28225000Y-43695000D03*
%TD*%
D27*
%TO.P,R9,1*%
%TO.N,Net-(Q1-G)*%
X106276572Y-58503430D03*
%TO.P,R9,2*%
%TO.N,GND*%
X108276572Y-58503430D03*
%TD*%
%TO.P,R5,1*%
%TO.N,Net-(D2-A)*%
X33816571Y-34075001D03*
%TO.P,R5,2*%
%TO.N,+12V*%
X35816571Y-34075001D03*
%TD*%
D46*
%TO.P,C4,1*%
%TO.N,Net-(U1-VBST)*%
X112266571Y-49527501D03*
%TO.P,C4,2*%
%TO.N,Net-(U1-SW)*%
X112266571Y-51602501D03*
%TD*%
D47*
%TO.P,R13,1*%
%TO.N,Net-(Q1-S)*%
X117396572Y-61523430D03*
%TO.P,R13,2*%
%TO.N,+12V*%
X117396572Y-64623430D03*
%TD*%
D21*
%TO.P,C11,1*%
%TO.N,Net-(U2-VBST)*%
X95408594Y-54013430D03*
%TO.P,C11,2*%
%TO.N,Net-(U2-SW)*%
X93333594Y-54013430D03*
%TD*%
D48*
%TO.P,R14,1*%
%TO.N,Net-(Q2-S)*%
X83151095Y-59135001D03*
%TO.P,R14,2*%
%TO.N,+12V*%
X80051095Y-59135001D03*
%TD*%
D18*
%TO.P,J17,1,1*%
%TO.N,SCLS1*%
X21050000Y-46205000D03*
%TO.P,J17,2,2*%
%TO.N,SDAS1*%
X21050000Y-45205000D03*
%TO.P,J17,3,3*%
%TO.N,+3V3*%
X21050000Y-44205000D03*
%TO.P,J17,4,4*%
%TO.N,GND*%
X21050000Y-43205000D03*
D19*
%TO.P,J17,MP*%
%TO.N,N/C*%
X18525000Y-47505000D03*
X18525000Y-41905000D03*
%TD*%
D18*
%TO.P,J20,1,1*%
%TO.N,SCL1*%
X21050000Y-69905000D03*
%TO.P,J20,2,2*%
%TO.N,SDA1*%
X21050000Y-68905000D03*
%TO.P,J20,3,3*%
%TO.N,+3V3*%
X21050000Y-67905000D03*
%TO.P,J20,4,4*%
%TO.N,GND*%
X21050000Y-66905000D03*
D19*
%TO.P,J20,MP*%
%TO.N,N/C*%
X18525000Y-71205000D03*
X18525000Y-65605000D03*
%TD*%
D31*
%TO.P,R8,1*%
%TO.N,+3V3*%
X113840000Y-25605000D03*
%TO.P,R8,2*%
%TO.N,Net-(D3-A)*%
X113840000Y-23605000D03*
%TD*%
D20*
%TO.P,C13,1*%
%TO.N,+3V3*%
X93252978Y-40985000D03*
%TO.P,C13,2*%
%TO.N,GND*%
X95327978Y-40985000D03*
%TD*%
D26*
%TO.P,R21,1*%
%TO.N,+3V3*%
X25795000Y-57495000D03*
%TO.P,R21,2*%
%TO.N,SCLS3*%
X25795000Y-59495000D03*
%TD*%
D18*
%TO.P,J18,1,1*%
%TO.N,SCLS2*%
X21050000Y-54105000D03*
%TO.P,J18,2,2*%
%TO.N,SDAS2*%
X21050000Y-53105000D03*
%TO.P,J18,3,3*%
%TO.N,+3V3*%
X21050000Y-52105000D03*
%TO.P,J18,4,4*%
%TO.N,GND*%
X21050000Y-51105000D03*
D19*
%TO.P,J18,MP*%
%TO.N,N/C*%
X18525000Y-55405000D03*
X18525000Y-49805000D03*
%TD*%
D26*
%TO.P,R22,1*%
%TO.N,+3V3*%
X28125000Y-57495000D03*
%TO.P,R22,2*%
%TO.N,SDAS3*%
X28125000Y-59495000D03*
%TD*%
D35*
%TO.P,J9,*%
%TO.N,*%
X65660000Y-87345000D03*
X77090000Y-87345000D03*
D36*
%TO.P,J9,1*%
%TO.N,+12V*%
X66930000Y-80995000D03*
D37*
%TO.P,J9,2*%
X68200000Y-78455000D03*
%TO.P,J9,3*%
X69470000Y-80995000D03*
%TO.P,J9,4*%
%TO.N,GND*%
X70740000Y-78455000D03*
%TO.P,J9,5*%
X72010000Y-80995000D03*
%TO.P,J9,6*%
X73280000Y-78455000D03*
%TO.P,J9,7*%
%TO.N,CANP*%
X74550000Y-80995000D03*
%TO.P,J9,8*%
%TO.N,CANN*%
X75820000Y-78455000D03*
%TD*%
D27*
%TO.P,R4,1*%
%TO.N,+5V*%
X121245001Y-36853429D03*
%TO.P,R4,2*%
%TO.N,Net-(D1-A)*%
X123245001Y-36853429D03*
%TD*%
D42*
%TO.P,L1,1,1*%
%TO.N,Net-(U1-SW)*%
X107626571Y-51580001D03*
%TO.P,L1,2,2*%
%TO.N,+5V*%
X107626571Y-45530001D03*
%TD*%
D20*
%TO.P,C7,1*%
%TO.N,+3V3*%
X42037500Y-49805000D03*
%TO.P,C7,2*%
%TO.N,GND*%
X44112500Y-49805000D03*
%TD*%
D31*
%TO.P,R24,1*%
%TO.N,Net-(C16-Pad1)*%
X38725000Y-74425000D03*
%TO.P,R24,2*%
%TO.N,CANN*%
X38725000Y-72425000D03*
%TD*%
D35*
%TO.P,J10,*%
%TO.N,*%
X83345000Y-87345000D03*
X94775000Y-87345000D03*
D36*
%TO.P,J10,1*%
%TO.N,+12V*%
X84615000Y-80995000D03*
D37*
%TO.P,J10,2*%
X85885000Y-78455000D03*
%TO.P,J10,3*%
X87155000Y-80995000D03*
%TO.P,J10,4*%
%TO.N,GND*%
X88425000Y-78455000D03*
%TO.P,J10,5*%
X89695000Y-80995000D03*
%TO.P,J10,6*%
X90965000Y-78455000D03*
%TO.P,J10,7*%
%TO.N,CANP*%
X92235000Y-80995000D03*
%TO.P,J10,8*%
%TO.N,CANN*%
X93505000Y-78455000D03*
%TD*%
D49*
%TO.P,IC1,1,TXD*%
%TO.N,C_TX*%
X29445000Y-69670000D03*
%TO.P,IC1,2,GND*%
%TO.N,GND*%
X29445000Y-70940000D03*
%TO.P,IC1,3,VCC*%
%TO.N,+3V3*%
X29445000Y-72210000D03*
%TO.P,IC1,4,RXD*%
%TO.N,C_RX*%
X29445000Y-73480000D03*
%TO.P,IC1,5,SHDNVIO*%
%TO.N,GND*%
X34395000Y-73480000D03*
%TO.P,IC1,6,CANL*%
%TO.N,CANN*%
X34395000Y-72210000D03*
%TO.P,IC1,7,CANH*%
%TO.N,CANP*%
X34395000Y-70940000D03*
%TO.P,IC1,8,STB*%
%TO.N,GND*%
X34395000Y-69670000D03*
%TD*%
D22*
%TO.P,C9,1*%
%TO.N,Net-(Q2-S)*%
X90541094Y-56090930D03*
%TO.P,C9,2*%
%TO.N,GND*%
X90541094Y-54015930D03*
%TD*%
D31*
%TO.P,R1,1*%
%TO.N,Net-(U1-VFB)*%
X118546571Y-52495001D03*
%TO.P,R1,2*%
%TO.N,+5V*%
X118546571Y-50495001D03*
%TD*%
D26*
%TO.P,R15,1*%
%TO.N,+3V3*%
X25895000Y-33795000D03*
%TO.P,R15,2*%
%TO.N,SCLS0*%
X25895000Y-35795000D03*
%TD*%
D50*
%TO.P,D3,1,K*%
%TO.N,GND*%
X115931572Y-25663430D03*
%TO.P,D3,2,A*%
%TO.N,Net-(D3-A)*%
X115931572Y-23613430D03*
%TD*%
D35*
%TO.P,J8,*%
%TO.N,*%
X47975000Y-87345000D03*
X59405000Y-87345000D03*
D36*
%TO.P,J8,1*%
%TO.N,+12V*%
X49245000Y-80995000D03*
D37*
%TO.P,J8,2*%
X50515000Y-78455000D03*
%TO.P,J8,3*%
X51785000Y-80995000D03*
%TO.P,J8,4*%
%TO.N,GND*%
X53055000Y-78455000D03*
%TO.P,J8,5*%
X54325000Y-80995000D03*
%TO.P,J8,6*%
X55595000Y-78455000D03*
%TO.P,J8,7*%
%TO.N,CANP*%
X56865000Y-80995000D03*
%TO.P,J8,8*%
%TO.N,CANN*%
X58135000Y-78455000D03*
%TD*%
D46*
%TO.P,C15,1*%
%TO.N,GND*%
X117776571Y-31247501D03*
%TO.P,C15,2*%
%TO.N,+5V*%
X117776571Y-33322501D03*
%TD*%
D51*
%TO.P,R23,1*%
%TO.N,+3V3*%
X37295000Y-49805000D03*
%TO.P,R23,2*%
%TO.N,GPIO_GCLK*%
X35295000Y-49805000D03*
%TD*%
D18*
%TO.P,J19,1,1*%
%TO.N,SCLS3*%
X21050000Y-62005000D03*
%TO.P,J19,2,2*%
%TO.N,SDAS3*%
X21050000Y-61005000D03*
%TO.P,J19,3,3*%
%TO.N,+3V3*%
X21050000Y-60005000D03*
%TO.P,J19,4,4*%
%TO.N,GND*%
X21050000Y-59005000D03*
D19*
%TO.P,J19,MP*%
%TO.N,N/C*%
X18525000Y-63305000D03*
X18525000Y-57705000D03*
%TD*%
D52*
%TO.P,U3,1,A0*%
%TO.N,GND*%
X36257500Y-51450000D03*
%TO.P,U3,2,A1*%
X36257500Y-52100000D03*
%TO.P,U3,3,~{RESET}*%
%TO.N,GPIO_GCLK*%
X36257500Y-52750000D03*
%TO.P,U3,4,SD0*%
%TO.N,SDAS0*%
X36257500Y-53400000D03*
%TO.P,U3,5,SC0*%
%TO.N,SCLS0*%
X36257500Y-54050000D03*
%TO.P,U3,6,SD1*%
%TO.N,SDAS1*%
X36257500Y-54700000D03*
%TO.P,U3,7,SC1*%
%TO.N,SCLS1*%
X36257500Y-55350000D03*
%TO.P,U3,8,SD2*%
%TO.N,SDAS2*%
X36257500Y-56000000D03*
%TO.P,U3,9,SC2*%
%TO.N,SCLS2*%
X36257500Y-56650000D03*
%TO.P,U3,10,SD3*%
%TO.N,SDAS3*%
X36257500Y-57300000D03*
%TO.P,U3,11,SC3*%
%TO.N,SCLS3*%
X36257500Y-57950000D03*
%TO.P,U3,12,GND*%
%TO.N,GND*%
X36257500Y-58600000D03*
%TO.P,U3,13,SD4*%
%TO.N,unconnected-(U3-SD4-Pad13)*%
X41982500Y-58600000D03*
%TO.P,U3,14,SC4*%
%TO.N,unconnected-(U3-SC4-Pad14)*%
X41982500Y-57950000D03*
%TO.P,U3,15,SD5*%
%TO.N,unconnected-(U3-SD5-Pad15)*%
X41982500Y-57300000D03*
%TO.P,U3,16,SC5*%
%TO.N,unconnected-(U3-SC5-Pad16)*%
X41982500Y-56650000D03*
%TO.P,U3,17,SD6*%
%TO.N,unconnected-(U3-SD6-Pad17)*%
X41982500Y-56000000D03*
%TO.P,U3,18,SC6*%
%TO.N,unconnected-(U3-SC6-Pad18)*%
X41982500Y-55350000D03*
%TO.P,U3,19,SD7*%
%TO.N,unconnected-(U3-SD7-Pad19)*%
X41982500Y-54700000D03*
%TO.P,U3,20,SC7*%
%TO.N,unconnected-(U3-SC7-Pad20)*%
X41982500Y-54050000D03*
%TO.P,U3,21,A2*%
%TO.N,GND*%
X41982500Y-53400000D03*
%TO.P,U3,22,SCL*%
%TO.N,SCL1*%
X41982500Y-52750000D03*
%TO.P,U3,23,SDA*%
%TO.N,SDA1*%
X41982500Y-52100000D03*
%TO.P,U3,24,VCC*%
%TO.N,+3V3*%
X41982500Y-51450000D03*
%TD*%
D53*
%TO.P,D1,1,K*%
%TO.N,GND*%
X121220001Y-38890001D03*
%TO.P,D1,2,A*%
%TO.N,Net-(D1-A)*%
X123270001Y-38890001D03*
%TD*%
D22*
%TO.P,C14,1*%
%TO.N,+3V3*%
X26315000Y-72162500D03*
%TO.P,C14,2*%
%TO.N,GND*%
X26315000Y-70087500D03*
%TD*%
D15*
%TO.P,J1,*%
%TO.N,*%
X50095000Y-30575000D03*
X63595000Y-30575000D03*
D16*
%TO.P,J1,1,Pin_1*%
%TO.N,+12V*%
X53245000Y-36575000D03*
D17*
%TO.P,J1,2,Pin_2*%
%TO.N,GND*%
X60445000Y-36575000D03*
%TD*%
D54*
%TO.N,GND*%
X108685786Y-57014215D03*
X108785786Y-55514215D03*
X108885786Y-54114215D03*
D55*
X112485786Y-83814215D03*
X60685786Y-84014215D03*
X77985786Y-83914215D03*
X95885786Y-83714215D03*
X24785786Y-62714215D03*
D54*
X113885786Y-47814215D03*
D55*
X23185786Y-35914215D03*
D54*
X110685786Y-54114215D03*
D55*
X88285786Y-85814215D03*
D56*
X117334539Y-42613628D03*
X27285786Y-66914215D03*
X79017272Y-22666952D03*
X114355115Y-92696085D03*
D57*
X117785786Y-29714215D03*
D56*
X114252727Y-42520240D03*
D54*
X21050000Y-65950001D03*
D56*
X123292711Y-78866952D03*
X35627875Y-26009177D03*
X44885786Y-92314215D03*
X113385786Y-38514215D03*
D57*
X121185786Y-40414215D03*
D56*
X105085786Y-22514215D03*
X96885786Y-28614215D03*
X47785786Y-50314215D03*
X83685786Y-32514215D03*
X41885817Y-60610179D03*
X60806561Y-22573563D03*
X19485786Y-29514215D03*
D55*
X68185786Y-82914215D03*
D56*
X46585786Y-57414215D03*
X105685786Y-89914215D03*
X76385786Y-29214215D03*
D55*
X51385786Y-86314215D03*
D56*
X25385786Y-91514215D03*
X96322181Y-62598717D03*
D55*
X30085786Y-48114215D03*
D54*
X110685786Y-58814215D03*
D55*
X96885786Y-43314215D03*
D56*
X101185786Y-49714215D03*
X43885786Y-21614215D03*
X86785786Y-42714215D03*
D55*
X42685786Y-74114215D03*
D56*
X88985786Y-49764215D03*
D55*
X29485786Y-60914215D03*
D56*
X25085786Y-47514215D03*
D54*
X96685786Y-55814215D03*
D55*
X103730011Y-82927164D03*
D56*
X122066572Y-50495001D03*
X25685786Y-87914215D03*
X87685786Y-51114215D03*
X34985786Y-64614215D03*
D55*
X22585786Y-30314215D03*
D54*
X35985786Y-73514215D03*
D56*
X43585786Y-68614215D03*
X117285786Y-78914215D03*
X87135786Y-52514215D03*
D55*
X91085786Y-86414215D03*
X112754531Y-78756481D03*
D54*
X21050000Y-34314215D03*
D56*
X37385786Y-92014215D03*
D54*
X110685786Y-57414215D03*
D55*
X23485786Y-65414215D03*
X24085786Y-67514215D03*
X107485786Y-86214215D03*
X42285786Y-78014215D03*
D56*
X76579902Y-49412294D03*
D55*
X112144395Y-80960444D03*
D56*
X35785786Y-46914215D03*
X121385786Y-85114215D03*
D55*
X54685786Y-83114215D03*
D54*
X115385786Y-47814215D03*
D56*
X53485786Y-89414215D03*
X123385786Y-56114215D03*
X30015673Y-64617510D03*
D55*
X108685786Y-85114215D03*
D56*
X31585786Y-92314215D03*
X34985786Y-89314215D03*
X123585786Y-72814215D03*
D54*
X37385786Y-64814215D03*
D56*
X42985786Y-64814215D03*
D54*
X21050000Y-50050001D03*
D55*
X96885786Y-40314215D03*
D56*
X31292577Y-41910081D03*
X34788591Y-21602326D03*
X30785786Y-45314215D03*
X100972916Y-55370465D03*
X17685786Y-80314215D03*
X47136083Y-42761811D03*
X33085786Y-60914215D03*
X106035227Y-28711232D03*
D55*
X85985786Y-83114215D03*
X38685786Y-47814215D03*
X106285786Y-82814215D03*
D56*
X86485786Y-92614215D03*
X30285786Y-39914215D03*
X37685786Y-37714215D03*
X44085786Y-56914215D03*
X79485786Y-92814215D03*
X103251590Y-42520240D03*
X70929573Y-91967657D03*
D55*
X30585786Y-37414215D03*
D56*
X77885786Y-44814215D03*
X68585786Y-22614215D03*
D55*
X50550255Y-82914204D03*
D54*
X34921571Y-51450000D03*
D56*
X46385786Y-54414215D03*
X123535520Y-61608801D03*
X16885786Y-75814215D03*
X99685786Y-42714215D03*
D54*
X110685786Y-55814215D03*
D56*
X123785786Y-48614215D03*
X83085786Y-41514215D03*
X41785786Y-75814215D03*
X87225001Y-60353430D03*
X115685786Y-87514215D03*
X85735786Y-52464215D03*
X35085786Y-67114215D03*
D55*
X96885786Y-42314215D03*
D54*
X36257500Y-59342501D03*
D55*
X69485786Y-85214215D03*
D56*
X20813816Y-82809544D03*
D55*
X59185786Y-80714215D03*
X95185086Y-77872406D03*
D56*
X89085786Y-29014215D03*
X101785786Y-63914215D03*
D54*
X21050000Y-57850001D03*
D56*
X26178193Y-22386787D03*
D54*
X111385786Y-43414215D03*
X113985786Y-49014215D03*
X96585786Y-57014215D03*
D55*
X43385786Y-53414215D03*
D56*
X29390749Y-21863813D03*
X121885786Y-45014215D03*
X60585786Y-28814215D03*
X30185786Y-32114215D03*
X71185786Y-28814215D03*
D54*
X26285786Y-68814215D03*
D56*
X22885786Y-49314215D03*
X118485786Y-54214215D03*
D57*
X117635001Y-25663430D03*
D54*
X35985786Y-69714215D03*
D56*
X90560061Y-22704307D03*
X101385786Y-92314215D03*
D55*
X60220521Y-78071634D03*
D56*
X111185786Y-27914215D03*
D54*
X115285786Y-49014215D03*
D56*
X28085786Y-47714215D03*
X64121568Y-91967657D03*
D55*
X53285786Y-85414215D03*
D56*
X123516842Y-67361518D03*
X28085786Y-55714215D03*
X46985786Y-40314215D03*
D55*
X94574950Y-80350308D03*
D56*
X35385786Y-28214215D03*
X99185786Y-26814215D03*
X34985786Y-37714215D03*
X57585786Y-92414215D03*
D54*
X111385786Y-42214215D03*
D56*
X25085786Y-55614215D03*
X94285786Y-92514215D03*
D54*
X95685786Y-55814215D03*
D56*
X82185786Y-44914215D03*
X31285786Y-66714215D03*
X37892950Y-61008636D03*
X32885786Y-26114215D03*
D55*
X42685786Y-70114215D03*
D56*
X53785786Y-28714215D03*
X34285786Y-75414215D03*
D54*
X111385786Y-41014215D03*
D56*
X105585786Y-54414215D03*
X31885786Y-28214215D03*
D54*
X95585786Y-57014215D03*
D56*
X87735786Y-49764215D03*
X116985786Y-38114215D03*
X107799259Y-92499970D03*
D55*
X68285786Y-85814215D03*
D56*
X25685786Y-29414215D03*
D57*
X35841571Y-30170000D03*
D56*
X30085786Y-57114215D03*
D54*
X45285786Y-49814215D03*
D56*
X23385786Y-33414215D03*
X25685786Y-39614215D03*
D55*
X96885786Y-41314215D03*
D56*
X52685786Y-22414215D03*
X43685786Y-30914215D03*
X101985786Y-59414215D03*
D55*
X105385786Y-85814215D03*
D56*
X70585786Y-89314215D03*
X88735786Y-52564215D03*
D55*
X38985786Y-76214215D03*
D56*
X25885786Y-25714215D03*
D55*
X89585786Y-82814215D03*
D56*
X25385786Y-83014215D03*
D55*
X64985786Y-83114215D03*
X29252973Y-75269986D03*
X29485786Y-45714215D03*
D54*
X27785786Y-70914215D03*
D56*
X51785786Y-92214215D03*
D54*
X21050000Y-42150001D03*
D56*
X116885786Y-21514215D03*
X120485786Y-58314215D03*
D55*
X29385786Y-53414215D03*
D56*
X101085786Y-46114215D03*
D55*
X77391509Y-78445187D03*
D56*
X88485786Y-89614215D03*
D54*
%TO.N,+5V*%
X106285786Y-36714215D03*
X106285786Y-43314215D03*
X107985786Y-37314215D03*
X108085786Y-38714215D03*
X106085786Y-38614215D03*
X107085786Y-39514215D03*
X106185786Y-41314215D03*
D56*
%TO.N,+3V3*%
X91835786Y-36664215D03*
X93585786Y-36714215D03*
X39635786Y-49814215D03*
X91735786Y-38564215D03*
X93485786Y-38464215D03*
X91585786Y-41114215D03*
X91685786Y-43014215D03*
X29785786Y-49595000D03*
D55*
%TO.N,C_TX*%
X27785786Y-69714215D03*
X20285786Y-74114215D03*
%TO.N,CANN*%
X67985786Y-84514215D03*
X90085786Y-85114215D03*
X105185786Y-83314215D03*
X66535786Y-83364215D03*
X106885786Y-84614215D03*
X88285786Y-83514215D03*
%TO.N,CANP*%
X52885786Y-83014215D03*
X51185786Y-84714215D03*
D56*
%TO.N,+12V*%
X70085786Y-57514215D03*
X98285786Y-72014215D03*
X117185786Y-67914215D03*
X74873189Y-69645762D03*
X97285786Y-66214215D03*
X41885786Y-83614215D03*
X61761477Y-70037992D03*
X74020167Y-52377390D03*
X69188881Y-53087141D03*
X56285786Y-54414215D03*
X41385786Y-38014215D03*
X78785786Y-75214215D03*
X103385786Y-67914215D03*
X97285786Y-75614215D03*
X81685786Y-70914215D03*
X82485786Y-78514215D03*
X55037522Y-61717098D03*
X64469661Y-45105557D03*
X112919491Y-68365461D03*
X64485786Y-49014215D03*
X107385786Y-73314215D03*
X49585786Y-61614215D03*
X101585786Y-75514215D03*
X44285786Y-38014215D03*
X51885786Y-75314215D03*
X112485786Y-73114215D03*
X46685786Y-80514215D03*
X68285786Y-48914215D03*
X42385786Y-81414215D03*
X81885786Y-67314215D03*
X47485786Y-37914215D03*
X51085786Y-66414215D03*
X88885786Y-67414215D03*
X83322297Y-75553405D03*
X81085786Y-63614215D03*
X64085786Y-57714215D03*
X49585786Y-45014215D03*
X63473519Y-53585212D03*
X91585786Y-75514215D03*
X69485786Y-65214215D03*
X112085786Y-70414215D03*
X46685786Y-75914215D03*
X117285786Y-73014215D03*
X46685786Y-71114215D03*
X73085786Y-48114215D03*
X86885786Y-63614215D03*
X56158181Y-69925926D03*
X95085786Y-68514215D03*
X76685786Y-58814215D03*
X68085786Y-45214215D03*
X50985786Y-69914215D03*
X64885786Y-76514215D03*
X69381959Y-61661065D03*
X102185786Y-71514215D03*
X76285786Y-55814215D03*
X62985786Y-75214215D03*
X67885786Y-75714215D03*
X78785786Y-62214215D03*
X49785786Y-58314215D03*
X62798086Y-61717098D03*
X49185786Y-75614215D03*
X54985786Y-65614215D03*
X46885786Y-66314215D03*
X99585786Y-78514215D03*
X57785786Y-41914215D03*
X91785786Y-64614215D03*
X59485786Y-75214215D03*
X88285786Y-71014215D03*
X106892835Y-70345292D03*
X49385786Y-48914215D03*
X50085786Y-42614215D03*
X30185786Y-78214215D03*
X47585786Y-63914215D03*
X73785786Y-61714215D03*
X49785786Y-54214215D03*
X73685786Y-75214215D03*
X56885786Y-58314215D03*
X62485786Y-65414215D03*
X81885786Y-80814215D03*
X73185786Y-44814215D03*
X37085786Y-83414215D03*
X50185786Y-40214215D03*
X31785786Y-83614215D03*
X67504855Y-69701795D03*
X117385786Y-70514215D03*
X74885786Y-64814215D03*
X46685786Y-73514215D03*
X62785786Y-40614215D03*
X55685786Y-75314215D03*
X66685786Y-40614215D03*
X64385786Y-78714215D03*
X106985786Y-67914215D03*
D55*
%TO.N,SCL1*%
X46885786Y-46314215D03*
X47585786Y-52714215D03*
%TO.N,SDA1*%
X23385786Y-68814215D03*
X45485786Y-51814215D03*
X45685786Y-47714215D03*
%TO.N,SDAS0*%
X28185786Y-37414215D03*
X23185786Y-37305000D03*
%TO.N,SDAS1*%
X28225000Y-45314215D03*
X23385786Y-45205000D03*
%TO.N,SDAS2*%
X23385786Y-53114215D03*
X28085786Y-53014215D03*
%TO.N,SDAS3*%
X28125000Y-61014215D03*
X22985786Y-61014215D03*
%TO.N,Net-(C16-Pad1)*%
X41585786Y-72914215D03*
X41585786Y-68714215D03*
D54*
%TO.N,Net-(Q1-S)*%
X116085786Y-59714215D03*
X115785786Y-56414215D03*
X117085786Y-57914215D03*
X117985786Y-56214215D03*
X118085786Y-59714215D03*
D56*
%TO.N,Net-(Q2-S)*%
X85235786Y-59314215D03*
X86685786Y-57814215D03*
X88535786Y-57714215D03*
X90435786Y-57714215D03*
%TD*%
D58*
%TO.N,CANP*%
X93005001Y-80995000D02*
X92235000Y-80995000D01*
X105831128Y-84239215D02*
X99892586Y-84239215D01*
X94685786Y-79314215D02*
X93005001Y-80995000D01*
X99892586Y-84239215D02*
X94967586Y-79314215D01*
X106381128Y-83689215D02*
X105831128Y-84239215D01*
X107577152Y-83689215D02*
X107185786Y-83689215D01*
X108057152Y-82748548D02*
X107977152Y-82748548D01*
X107817152Y-82908548D02*
X107817152Y-83529215D01*
X108217152Y-83529215D02*
X108217152Y-82908548D01*
X109657152Y-82748549D02*
X109577152Y-82748549D01*
X109920000Y-80995000D02*
X110885786Y-81960786D01*
X108617152Y-82908551D02*
X108617152Y-83529215D01*
X108457152Y-83689215D02*
X108377152Y-83689215D01*
X107657152Y-83689215D02*
X107577152Y-83689215D01*
X108857152Y-82748551D02*
X108777152Y-82748551D01*
X107185786Y-83689215D02*
X106381128Y-83689215D01*
X109257152Y-83689215D02*
X109177152Y-83689215D01*
X94967586Y-79314215D02*
X94685786Y-79314215D01*
X109417152Y-82908549D02*
X109417152Y-83529215D01*
X109817152Y-83529215D02*
X109817152Y-82908549D01*
X110885786Y-81960786D02*
X110885786Y-82896484D01*
X110885786Y-82896484D02*
X110093055Y-83689215D01*
X110093055Y-83689215D02*
X109977152Y-83689215D01*
X109017152Y-83529215D02*
X109017152Y-82908551D01*
X108377152Y-83689215D02*
G75*
G02*
X108217185Y-83529215I48J160015D01*
G01*
X108617152Y-83529215D02*
G75*
G02*
X108457152Y-83689152I-159952J15D01*
G01*
X109017152Y-82908551D02*
G75*
G03*
X108857152Y-82748648I-159952J-49D01*
G01*
X108217152Y-82908548D02*
G75*
G03*
X108057152Y-82748548I-159952J48D01*
G01*
X109577152Y-82748549D02*
G75*
G03*
X109417249Y-82908549I48J-159951D01*
G01*
X109177152Y-83689215D02*
G75*
G02*
X109017185Y-83529215I48J160015D01*
G01*
X109817152Y-82908549D02*
G75*
G03*
X109657152Y-82748548I-159952J49D01*
G01*
X108777152Y-82748551D02*
G75*
G03*
X108617151Y-82908551I48J-160049D01*
G01*
X107817152Y-83529215D02*
G75*
G02*
X107657152Y-83689152I-159952J15D01*
G01*
X109417152Y-83529215D02*
G75*
G02*
X109257152Y-83689152I-159952J15D01*
G01*
X107977152Y-82748548D02*
G75*
G03*
X107817248Y-82908548I48J-159952D01*
G01*
X109977152Y-83689215D02*
G75*
G02*
X109817185Y-83529215I48J160015D01*
G01*
X72807357Y-82746199D02*
X72727357Y-82746199D01*
X73207357Y-83589215D02*
X73127357Y-83589215D01*
X63967586Y-84414215D02*
X59367586Y-79814215D01*
X72967357Y-83429215D02*
X72967357Y-82906199D01*
X73367357Y-82906199D02*
X73367357Y-83429215D01*
X74007357Y-83589215D02*
X73927357Y-83589215D01*
X70532495Y-83589215D02*
X67610786Y-83589215D01*
X72327357Y-83589215D02*
X70532495Y-83589215D01*
X74167357Y-82906199D02*
X74167357Y-83429215D01*
X73767357Y-83429215D02*
X73767357Y-82906199D01*
X75022341Y-83589215D02*
X74727357Y-83589215D01*
X76060786Y-81189215D02*
X76060786Y-82550770D01*
X74180000Y-80995000D02*
X75866571Y-80995000D01*
X72407357Y-83589215D02*
X72327357Y-83589215D01*
X75866571Y-80995000D02*
X76060786Y-81189215D01*
X59367586Y-79814215D02*
X58045785Y-79814215D01*
X73607357Y-82746199D02*
X73527357Y-82746199D01*
X76060786Y-82550770D02*
X75022341Y-83589215D01*
X58045785Y-79814215D02*
X56865000Y-80995000D01*
X74407357Y-82746199D02*
X74327357Y-82746199D01*
X72567357Y-82906199D02*
X72567357Y-83429215D01*
X66785786Y-84414215D02*
X63967586Y-84414215D01*
X74567357Y-83429215D02*
X74567357Y-82906199D01*
X67610786Y-83589215D02*
X66785786Y-84414215D01*
X73367357Y-83429215D02*
G75*
G02*
X73207357Y-83589157I-159957J15D01*
G01*
X72567357Y-83429215D02*
G75*
G02*
X72407357Y-83589157I-159957J15D01*
G01*
X72967357Y-82906199D02*
G75*
G03*
X72807357Y-82746243I-159957J-1D01*
G01*
X74727357Y-83589215D02*
G75*
G02*
X74567385Y-83429215I43J160015D01*
G01*
X73127357Y-83589215D02*
G75*
G02*
X72967385Y-83429215I43J160015D01*
G01*
X74567357Y-82906199D02*
G75*
G03*
X74407357Y-82746243I-159957J-1D01*
G01*
X73767357Y-82906199D02*
G75*
G03*
X73607357Y-82746243I-159957J-1D01*
G01*
X74167357Y-83429215D02*
G75*
G02*
X74007357Y-83589157I-159957J15D01*
G01*
X72727357Y-82746199D02*
G75*
G03*
X72567399Y-82906199I43J-160001D01*
G01*
X73527357Y-82746199D02*
G75*
G03*
X73367399Y-82906199I43J-160001D01*
G01*
X73927357Y-83589215D02*
G75*
G02*
X73767385Y-83429215I43J160015D01*
G01*
X74327357Y-82746199D02*
G75*
G03*
X74167399Y-82906199I43J-160001D01*
G01*
%TO.N,CANN*%
X111285786Y-83062170D02*
X111285786Y-78550786D01*
X110208741Y-84139215D02*
X111285786Y-83062170D01*
X107760786Y-84139215D02*
X110208741Y-84139215D01*
X106885786Y-84614215D02*
X107285786Y-84614215D01*
X107285786Y-84614215D02*
X107760786Y-84139215D01*
%TO.N,CANP*%
X109920000Y-81370627D02*
X109885786Y-81404841D01*
%TO.N,CANN*%
X94514217Y-78914215D02*
X94055002Y-78455000D01*
X95203986Y-78914215D02*
X94514217Y-78914215D01*
X100078986Y-83789215D02*
X95203986Y-78914215D01*
X101917447Y-83789215D02*
X100078986Y-83789215D01*
X76510786Y-82737170D02*
X76510786Y-81039215D01*
X75208741Y-84039215D02*
X76510786Y-82737170D01*
X76510786Y-81039215D02*
X75785786Y-80314215D01*
X75785786Y-80314215D02*
X75785786Y-78790786D01*
X68385786Y-84514215D02*
X68860786Y-84039215D01*
X67985786Y-84514215D02*
X68385786Y-84514215D01*
X68860786Y-84039215D02*
X75208741Y-84039215D01*
D59*
%TO.N,GND*%
X35941571Y-69670000D02*
X35985786Y-69714215D01*
D60*
X36257500Y-59342501D02*
X36257500Y-58600000D01*
D59*
X37429071Y-64857500D02*
X37385786Y-64814215D01*
D61*
X121185786Y-40414215D02*
X121185786Y-38924216D01*
D60*
X45276571Y-49805000D02*
X45285786Y-49814215D01*
D59*
X38725000Y-64857500D02*
X37429071Y-64857500D01*
X21050000Y-50050001D02*
X21050000Y-51105000D01*
D60*
X34921571Y-51450000D02*
X36257500Y-51450000D01*
D59*
X27811571Y-70940000D02*
X27785786Y-70914215D01*
X26315000Y-70087500D02*
X26315000Y-68843429D01*
D61*
X117776571Y-29723430D02*
X117776571Y-31247501D01*
D59*
X122066572Y-50495001D02*
X120576571Y-50495001D01*
D61*
X117635001Y-25663430D02*
X115931572Y-25663430D01*
D59*
X21050000Y-42150001D02*
X21050000Y-43205000D01*
D61*
X35841571Y-30170000D02*
X35841571Y-32025001D01*
D59*
X29445000Y-70940000D02*
X27811571Y-70940000D01*
D60*
X43371571Y-53400000D02*
X43385786Y-53414215D01*
D59*
X21050000Y-34314215D02*
X21050000Y-35305000D01*
X34395000Y-69670000D02*
X35941571Y-69670000D01*
D60*
X44112500Y-49805000D02*
X45276571Y-49805000D01*
D59*
X35951571Y-73480000D02*
X35985786Y-73514215D01*
X26315000Y-68843429D02*
X26285786Y-68814215D01*
X21050000Y-57850001D02*
X21050000Y-59005000D01*
D60*
X41982500Y-53400000D02*
X43371571Y-53400000D01*
D61*
X121185786Y-38924216D02*
X121220001Y-38890001D01*
D59*
X87225001Y-60353430D02*
X88541094Y-60353430D01*
D60*
X36257500Y-52100000D02*
X36257500Y-51450000D01*
D61*
X117785786Y-29714215D02*
X117776571Y-29723430D01*
D59*
X21050000Y-65950001D02*
X21050000Y-66905000D01*
X34395000Y-73480000D02*
X35951571Y-73480000D01*
%TO.N,Net-(U1-VBST)*%
X112366571Y-49527501D02*
X112366571Y-46933430D01*
X112366571Y-46933430D02*
X112785786Y-46514215D01*
X116614071Y-46742500D02*
X116614071Y-50600001D01*
X112785786Y-46514215D02*
X116385786Y-46514215D01*
X116385786Y-46514215D02*
X116614071Y-46742500D01*
%TO.N,+5V*%
X118546571Y-47025000D02*
X118546571Y-50495001D01*
D62*
X107745000Y-33375000D02*
X114775000Y-33375000D01*
D59*
X107626571Y-45530001D02*
X117051572Y-45530001D01*
D61*
X121246571Y-33355001D02*
X117809071Y-33355001D01*
X121246571Y-33355001D02*
X121246571Y-36851859D01*
D59*
X117051572Y-45530001D02*
X118546571Y-47025000D01*
D61*
X121246571Y-36851859D02*
X121245001Y-36853429D01*
X117776571Y-33322501D02*
X114827499Y-33322501D01*
D59*
%TO.N,+3V3*%
X22395001Y-60005000D02*
X23285786Y-59114215D01*
D61*
X96425001Y-33375000D02*
X104195001Y-25605000D01*
D59*
X16385786Y-67914215D02*
X16385786Y-68414215D01*
X16885786Y-36305000D02*
X16395001Y-36305000D01*
X16385786Y-68414215D02*
X16385786Y-72314215D01*
X16385786Y-59514215D02*
X16385786Y-60014215D01*
X21050000Y-52105000D02*
X16985786Y-52105000D01*
X23905001Y-57495000D02*
X25795000Y-57495000D01*
X16876571Y-67905000D02*
X16876571Y-67923430D01*
D61*
X93195000Y-33375000D02*
X96425001Y-33375000D01*
D59*
X16385786Y-36314215D02*
X16385786Y-36814215D01*
X16385786Y-52114215D02*
X16385786Y-52614215D01*
X99085786Y-59214215D02*
X99085786Y-45914215D01*
X16985786Y-60005000D02*
X16876571Y-60005000D01*
X16395001Y-44205000D02*
X16385786Y-44214215D01*
D61*
X104195001Y-25605000D02*
X113840000Y-25605000D01*
D59*
X24205001Y-49595000D02*
X25795000Y-49595000D01*
X16395001Y-36305000D02*
X16385786Y-36314215D01*
D61*
X49585786Y-25814215D02*
X47285786Y-23514215D01*
D59*
X16876571Y-67905000D02*
X16385786Y-67414215D01*
X17085786Y-73014215D02*
X23685786Y-73014215D01*
D61*
X28225000Y-27775001D02*
X28225000Y-33795000D01*
D59*
X16885786Y-44205000D02*
X16876571Y-44205000D01*
X16385786Y-60514215D02*
X16385786Y-67414215D01*
X21050000Y-36305000D02*
X16885786Y-36305000D01*
D61*
X93195000Y-33375000D02*
X93195000Y-26723429D01*
D59*
X23285786Y-58114215D02*
X23905001Y-57495000D01*
D61*
X47285786Y-23514215D02*
X32485786Y-23514215D01*
D59*
X21050000Y-52105000D02*
X22395001Y-52105000D01*
X16885786Y-36305000D02*
X16876571Y-36305000D01*
D61*
X92285786Y-25814215D02*
X49585786Y-25814215D01*
D59*
X42028285Y-49814215D02*
X42037500Y-49805000D01*
X17085786Y-67905000D02*
X16395001Y-67905000D01*
X26315000Y-72162500D02*
X29397500Y-72162500D01*
X16385786Y-51614215D02*
X16385786Y-52114215D01*
X16985786Y-52105000D02*
X16876571Y-52105000D01*
X16885786Y-44205000D02*
X16885786Y-44214215D01*
X16985786Y-60005000D02*
X16395001Y-60005000D01*
X23885786Y-49914215D02*
X24205001Y-49595000D01*
X16885786Y-44214215D02*
X16385786Y-44714215D01*
X97946571Y-60353430D02*
X99085786Y-59214215D01*
X23905001Y-41695000D02*
X25895000Y-41695000D01*
X17085786Y-31614215D02*
X16385786Y-32314215D01*
X99085786Y-45914215D02*
X98630001Y-45458430D01*
D61*
X32485786Y-23514215D02*
X28225000Y-27775001D01*
D59*
X39635786Y-49814215D02*
X42028285Y-49814215D01*
X37304215Y-49814215D02*
X37295000Y-49805000D01*
X16385786Y-44714215D02*
X16385786Y-51614215D01*
X16885786Y-36314215D02*
X16385786Y-36814215D01*
X21050000Y-60005000D02*
X22395001Y-60005000D01*
X16385786Y-43714215D02*
X16385786Y-44214215D01*
X22395001Y-52105000D02*
X23885786Y-50614215D01*
X16395001Y-60005000D02*
X16385786Y-60014215D01*
X16385786Y-67414215D02*
X16385786Y-67914215D01*
X16385786Y-72314215D02*
X17085786Y-73014215D01*
X28225000Y-41695000D02*
X25895000Y-41695000D01*
X16385786Y-52614215D02*
X16385786Y-59514215D01*
X25795000Y-49595000D02*
X28125000Y-49595000D01*
X16395001Y-52105000D02*
X16385786Y-52114215D01*
X23585786Y-43014215D02*
X23585786Y-42014215D01*
X16876571Y-52105000D02*
X16876571Y-52123430D01*
X25795000Y-57495000D02*
X28125000Y-57495000D01*
X94391094Y-60353430D02*
X97946571Y-60353430D01*
X25485786Y-31614215D02*
X17085786Y-31614215D01*
X17085786Y-67905000D02*
X16876571Y-67905000D01*
X16876571Y-44205000D02*
X16385786Y-43714215D01*
X16876571Y-52105000D02*
X16385786Y-51614215D01*
X23285786Y-59114215D02*
X23285786Y-58114215D01*
X16885786Y-44205000D02*
X16395001Y-44205000D01*
X24537501Y-72162500D02*
X26315000Y-72162500D01*
X23585786Y-42014215D02*
X23905001Y-41695000D01*
X16876571Y-52123430D02*
X16385786Y-52614215D01*
X22395001Y-44205000D02*
X23585786Y-43014215D01*
X25895000Y-32023429D02*
X25485786Y-31614215D01*
D60*
X42037500Y-49805000D02*
X42037500Y-51395000D01*
D59*
X23685786Y-73014215D02*
X24537501Y-72162500D01*
X16876571Y-36305000D02*
X16385786Y-35814215D01*
X16876571Y-67923430D02*
X16385786Y-68414215D01*
X21050000Y-44205000D02*
X22395001Y-44205000D01*
X16985786Y-60005000D02*
X16895001Y-60005000D01*
X29397500Y-72162500D02*
X29445000Y-72210000D01*
X16385786Y-35814215D02*
X16385786Y-36314215D01*
X16985786Y-52105000D02*
X16395001Y-52105000D01*
X16885786Y-36305000D02*
X16885786Y-36314215D01*
X25895000Y-33795000D02*
X25895000Y-32023429D01*
X39635786Y-49814215D02*
X37304215Y-49814215D01*
D61*
X93195000Y-26723429D02*
X92285786Y-25814215D01*
D59*
X16876571Y-60005000D02*
X16385786Y-59514215D01*
X16385786Y-36814215D02*
X16385786Y-43714215D01*
X29785786Y-49595000D02*
X28125000Y-49595000D01*
X98630001Y-45458430D02*
X93311094Y-45458430D01*
X16395001Y-67905000D02*
X16385786Y-67914215D01*
X16385786Y-60014215D02*
X16385786Y-60514215D01*
X16385786Y-32314215D02*
X16385786Y-35814215D01*
X21050000Y-60005000D02*
X16985786Y-60005000D01*
X16895001Y-60005000D02*
X16385786Y-60514215D01*
X16385786Y-44214215D02*
X16385786Y-44714215D01*
X21050000Y-67905000D02*
X17085786Y-67905000D01*
X23885786Y-50614215D02*
X23885786Y-49914215D01*
D61*
X28225000Y-33795000D02*
X25895000Y-33795000D01*
D59*
X21050000Y-44205000D02*
X16885786Y-44205000D01*
%TO.N,Net-(U2-VBST)*%
X97159071Y-58340930D02*
X97785786Y-57714215D01*
X97385001Y-54013430D02*
X95408594Y-54013430D01*
X97785786Y-54414215D02*
X97385001Y-54013430D01*
X97785786Y-57714215D02*
X97785786Y-54414215D01*
X94291094Y-58340930D02*
X97159071Y-58340930D01*
D61*
%TO.N,Net-(D1-A)*%
X123245001Y-36853429D02*
X123245001Y-38865001D01*
%TO.N,Net-(D2-A)*%
X33791571Y-32025001D02*
X33791571Y-34050001D01*
%TO.N,Net-(D3-A)*%
X115923142Y-23605000D02*
X115931572Y-23613430D01*
X113840000Y-23605000D02*
X115923142Y-23605000D01*
D58*
%TO.N,C_TX*%
X20296571Y-74125000D02*
X20296571Y-76475001D01*
X20285786Y-74114215D02*
X20296571Y-74125000D01*
X27785786Y-69714215D02*
X29400785Y-69714215D01*
%TO.N,C_RX*%
X22836571Y-74363430D02*
X23285786Y-73914215D01*
X25620001Y-73480000D02*
X29445000Y-73480000D01*
X25185786Y-73914215D02*
X25620001Y-73480000D01*
X23285786Y-73914215D02*
X25185786Y-73914215D01*
X22836571Y-76475001D02*
X22836571Y-74363430D01*
%TO.N,CANN*%
X37024999Y-71775000D02*
X37674999Y-72425000D01*
X42967762Y-77601015D02*
X42967762Y-77521015D01*
X41049365Y-71775000D02*
X40425001Y-71775000D01*
X105185786Y-83314215D02*
X104835786Y-83314215D01*
X43500786Y-76961015D02*
X43127762Y-76961015D01*
X58544999Y-78864999D02*
X58135000Y-78455000D01*
X42967762Y-76001015D02*
X42967762Y-75921015D01*
X59054770Y-78864999D02*
X58544999Y-78864999D01*
X39775001Y-72425000D02*
X38725000Y-72425000D01*
X37674999Y-72425000D02*
X38725000Y-72425000D01*
X43127762Y-77361015D02*
X43500786Y-77361015D01*
X43660786Y-78321015D02*
X43660786Y-77921015D01*
X36882992Y-71775000D02*
X37024999Y-71775000D01*
X88785786Y-83514215D02*
X90085786Y-84814215D01*
X42967762Y-76801015D02*
X42967762Y-76721015D01*
X35857501Y-72210000D02*
X36267501Y-71800000D01*
X40859999Y-78864999D02*
X43116802Y-78864999D01*
X101922981Y-83789215D02*
X101917447Y-83789215D01*
X66535786Y-83364215D02*
X66535786Y-83764215D01*
X90085786Y-84814215D02*
X90085786Y-85114215D01*
X104360786Y-83789215D02*
X101922981Y-83789215D01*
X43660786Y-75601015D02*
X43660786Y-75521015D01*
X41113580Y-71839215D02*
X41049365Y-71775000D01*
X43127762Y-75761015D02*
X43500786Y-75761015D01*
X36267501Y-71800000D02*
X36857992Y-71800000D01*
X43500786Y-77761015D02*
X43127762Y-77761015D01*
X40450000Y-78455000D02*
X40859999Y-78864999D01*
X43660786Y-77201015D02*
X43660786Y-77121015D01*
X43660786Y-72907415D02*
X42592586Y-71839215D01*
X36857992Y-71800000D02*
X36882992Y-71775000D01*
X104835786Y-83314215D02*
X104360786Y-83789215D01*
X43660786Y-75521015D02*
X43660786Y-72914215D01*
X40425001Y-71775000D02*
X39775001Y-72425000D01*
X42592586Y-71839215D02*
X41113580Y-71839215D01*
X64203986Y-84014215D02*
X59054770Y-78864999D01*
X43500786Y-76161015D02*
X43127762Y-76161015D01*
X43660786Y-76401015D02*
X43660786Y-76321015D01*
X43127762Y-76561015D02*
X43500786Y-76561015D01*
X43660786Y-72914215D02*
X43660786Y-72907415D01*
X34395000Y-72210000D02*
X35857501Y-72210000D01*
X43116802Y-78864999D02*
X43660786Y-78321015D01*
X88285786Y-83514215D02*
X88785786Y-83514215D01*
X66285786Y-84014215D02*
X64203986Y-84014215D01*
X66535786Y-83764215D02*
X66285786Y-84014215D01*
X43127762Y-76161015D02*
G75*
G02*
X42967785Y-76001015I38J160015D01*
G01*
X43127762Y-76961015D02*
G75*
G02*
X42967785Y-76801015I38J160015D01*
G01*
X42967762Y-76721015D02*
G75*
G02*
X43127762Y-76560962I160038J15D01*
G01*
X43660786Y-76321015D02*
G75*
G03*
X43500786Y-76161014I-159986J15D01*
G01*
X43500786Y-76561015D02*
G75*
G03*
X43660815Y-76401015I14J160015D01*
G01*
X43660786Y-77121015D02*
G75*
G03*
X43500786Y-76961014I-159986J15D01*
G01*
X43127762Y-77761015D02*
G75*
G02*
X42967785Y-77601015I38J160015D01*
G01*
X42967762Y-75921015D02*
G75*
G02*
X43127762Y-75760962I160038J15D01*
G01*
X43660786Y-77921015D02*
G75*
G03*
X43500786Y-77761014I-159986J15D01*
G01*
X43500786Y-75761015D02*
G75*
G03*
X43660815Y-75601015I14J160015D01*
G01*
X43500786Y-77361015D02*
G75*
G03*
X43660815Y-77201015I14J160015D01*
G01*
X42967762Y-77521015D02*
G75*
G02*
X43127762Y-77360962I160038J15D01*
G01*
%TO.N,CANP*%
X35857501Y-70940000D02*
X36267501Y-71350000D01*
X51185786Y-84714215D02*
X51185786Y-83614215D01*
X34395000Y-70940000D02*
X35857501Y-70940000D01*
X37674999Y-70675000D02*
X38725000Y-70675000D01*
X51785786Y-83014215D02*
X52885786Y-83014215D01*
X36685786Y-71350000D02*
X36710786Y-71325000D01*
X36710786Y-71325000D02*
X37024999Y-71325000D01*
X37024999Y-71325000D02*
X37674999Y-70675000D01*
X51185786Y-83614215D02*
X51785786Y-83014215D01*
X36267501Y-71350000D02*
X36685786Y-71350000D01*
D61*
%TO.N,+12V*%
X35816571Y-34075001D02*
X43055001Y-34075001D01*
D58*
%TO.N,SCL1*%
X24785786Y-66614215D02*
X24785786Y-69214215D01*
X41805000Y-46133429D02*
X41805000Y-44475000D01*
X47550001Y-52750000D02*
X41982500Y-52750000D01*
X41985786Y-46314215D02*
X41805000Y-46133429D01*
X24095001Y-69905000D02*
X21050000Y-69905000D01*
X47585786Y-58814215D02*
X43485786Y-62914215D01*
X47585786Y-52714215D02*
X47550001Y-52750000D01*
X47585786Y-52714215D02*
X47585786Y-58814215D01*
X24785786Y-69214215D02*
X24095001Y-69905000D01*
X28485786Y-62914215D02*
X24785786Y-66614215D01*
X43485786Y-62914215D02*
X28485786Y-62914215D01*
X46885786Y-46314215D02*
X41985786Y-46314215D01*
%TO.N,GPIO_GCLK*%
X47885786Y-47514215D02*
X47885786Y-45714215D01*
X34495001Y-49805000D02*
X35295000Y-49805000D01*
X34821571Y-52750000D02*
X34221571Y-52150000D01*
X36257500Y-52750000D02*
X34821571Y-52750000D01*
X46646571Y-44475000D02*
X44345000Y-44475000D01*
X46785786Y-48614215D02*
X47885786Y-47514215D01*
X35295000Y-49805000D02*
X35295000Y-48905001D01*
X35295000Y-48905001D02*
X35585786Y-48614215D01*
X47885786Y-45714215D02*
X46646571Y-44475000D01*
X35585786Y-48614215D02*
X46785786Y-48614215D01*
X34221571Y-50078430D02*
X34495001Y-49805000D01*
X34221571Y-52150000D02*
X34221571Y-50078430D01*
%TO.N,SDA1*%
X44500001Y-52100000D02*
X41982500Y-52100000D01*
X23385786Y-68814215D02*
X23295001Y-68905000D01*
X23295001Y-68905000D02*
X21050000Y-68905000D01*
X39265000Y-47172643D02*
X39265000Y-44475000D01*
X45485786Y-51814215D02*
X44785786Y-51814215D01*
X45685786Y-47714215D02*
X39806572Y-47714215D01*
X44785786Y-51814215D02*
X44500001Y-52100000D01*
X39806572Y-47714215D02*
X39265000Y-47172643D01*
%TO.N,SDAS0*%
X28225000Y-37375001D02*
X28225000Y-35795000D01*
X28185786Y-37414215D02*
X28225000Y-37375001D01*
X36257500Y-53400000D02*
X34271571Y-53400000D01*
X32166571Y-35795000D02*
X28225000Y-35795000D01*
X33385786Y-52514215D02*
X33385786Y-37014215D01*
X23185786Y-37305000D02*
X21050000Y-37305000D01*
X33385786Y-37014215D02*
X32166571Y-35795000D01*
X34271571Y-53400000D02*
X33385786Y-52514215D01*
%TO.N,SCLS0*%
X26585786Y-38414215D02*
X25895000Y-37723429D01*
X25895000Y-37723429D02*
X25895000Y-35795000D01*
X24605001Y-35795000D02*
X24285786Y-36114215D01*
X32685786Y-38614215D02*
X32485786Y-38414215D01*
X33921571Y-54050000D02*
X32685786Y-52814215D01*
X25895000Y-35795000D02*
X24605001Y-35795000D01*
X36257500Y-54050000D02*
X33921571Y-54050000D01*
X32485786Y-38414215D02*
X26585786Y-38414215D01*
X24285786Y-37914215D02*
X23895001Y-38305000D01*
X32685786Y-52814215D02*
X32685786Y-38614215D01*
X24285786Y-36114215D02*
X24285786Y-37914215D01*
X23895001Y-38305000D02*
X21050000Y-38305000D01*
%TO.N,SDAS1*%
X31885786Y-44014215D02*
X31566571Y-43695000D01*
X28225000Y-45314215D02*
X28225000Y-43695000D01*
X31885786Y-53314215D02*
X31885786Y-44014215D01*
X33271571Y-54700000D02*
X31885786Y-53314215D01*
X36257500Y-54700000D02*
X33271571Y-54700000D01*
X23385786Y-45205000D02*
X21050000Y-45205000D01*
X31566571Y-43695000D02*
X28225000Y-43695000D01*
%TO.N,SCLS1*%
X24805001Y-43695000D02*
X25895000Y-43695000D01*
X31185786Y-53614215D02*
X31185786Y-47414215D01*
X30385786Y-46614215D02*
X26785786Y-46614215D01*
X24095001Y-46205000D02*
X24585786Y-45714215D01*
X32921571Y-55350000D02*
X31185786Y-53614215D01*
X24585786Y-45714215D02*
X24585786Y-43914215D01*
X36257500Y-55350000D02*
X32921571Y-55350000D01*
X26785786Y-46614215D02*
X25895000Y-45723429D01*
X21050000Y-46205000D02*
X24095001Y-46205000D01*
X25895000Y-45723429D02*
X25895000Y-43695000D01*
X24585786Y-43914215D02*
X24805001Y-43695000D01*
X31185786Y-47414215D02*
X30385786Y-46614215D01*
%TO.N,SCLS2*%
X28985786Y-54214215D02*
X26385786Y-54214215D01*
X24705001Y-51595000D02*
X24485786Y-51814215D01*
X25795000Y-53623429D02*
X25795000Y-51595000D01*
X26385786Y-54214215D02*
X25795000Y-53623429D01*
X25795000Y-51595000D02*
X24705001Y-51595000D01*
X36257500Y-56650000D02*
X31421571Y-56650000D01*
X23776571Y-54105000D02*
X21050000Y-54105000D01*
X24485786Y-53614215D02*
X23985786Y-54114215D01*
X23785786Y-54114215D02*
X23776571Y-54105000D01*
X31421571Y-56650000D02*
X28985786Y-54214215D01*
X23985786Y-54114215D02*
X23785786Y-54114215D01*
X24485786Y-51814215D02*
X24485786Y-53614215D01*
%TO.N,SDAS2*%
X29666571Y-51595000D02*
X28125000Y-51595000D01*
X23385786Y-53114215D02*
X23376571Y-53105000D01*
X30285786Y-52214215D02*
X29666571Y-51595000D01*
X23376571Y-53105000D02*
X21050000Y-53105000D01*
X28125000Y-52975001D02*
X28085786Y-53014215D01*
X28125000Y-51595000D02*
X28125000Y-52975001D01*
X36257500Y-56000000D02*
X32771571Y-56000000D01*
X32771571Y-56000000D02*
X30285786Y-53514215D01*
X30285786Y-53514215D02*
X30285786Y-52214215D01*
%TO.N,SDAS3*%
X29905001Y-59495000D02*
X28125000Y-59495000D01*
X28125000Y-61014215D02*
X28125000Y-59495000D01*
X22985786Y-61014215D02*
X22785786Y-61014215D01*
X32100001Y-57300000D02*
X29905001Y-59495000D01*
X22776571Y-61005000D02*
X21050000Y-61005000D01*
X36257500Y-57300000D02*
X32100001Y-57300000D01*
X22785786Y-61014215D02*
X22776571Y-61005000D01*
%TO.N,SCLS3*%
X25795000Y-59495000D02*
X24605001Y-59495000D01*
X33550001Y-57950000D02*
X29385786Y-62114215D01*
X36257500Y-57950000D02*
X33550001Y-57950000D01*
X25795000Y-61823429D02*
X25795000Y-59495000D01*
X24605001Y-59495000D02*
X24285786Y-59814215D01*
X24285786Y-61614215D02*
X23895001Y-62005000D01*
X29385786Y-62114215D02*
X26085786Y-62114215D01*
X26085786Y-62114215D02*
X25795000Y-61823429D01*
X24285786Y-59814215D02*
X24285786Y-61614215D01*
X23895001Y-62005000D02*
X21050000Y-62005000D01*
D59*
%TO.N,Net-(U1-VFB)*%
X118541571Y-52500001D02*
X118546571Y-52495001D01*
X120576571Y-52495001D02*
X118546571Y-52495001D01*
X116614071Y-52500001D02*
X118541571Y-52500001D01*
%TO.N,Net-(U2-VFB)*%
X92391094Y-58340930D02*
X92391094Y-60353430D01*
X92391094Y-60353430D02*
X90541094Y-60353430D01*
D58*
%TO.N,Net-(C16-Pad1)*%
X41375001Y-74425000D02*
X41585786Y-74214215D01*
X41585786Y-74214215D02*
X41585786Y-72914215D01*
X41546571Y-68675000D02*
X38725000Y-68675000D01*
X38725000Y-74425000D02*
X41375001Y-74425000D01*
X38725000Y-68675000D02*
X38725000Y-66932500D01*
X41585786Y-68714215D02*
X41546571Y-68675000D01*
D61*
%TO.N,Net-(Q1-G)*%
X106276572Y-58503430D02*
X106276572Y-61578430D01*
D63*
X114276572Y-63128430D02*
X107976572Y-63128430D01*
D61*
%TO.N,Net-(Q2-G)*%
X81521095Y-56065001D02*
X81521095Y-49765001D01*
X86050477Y-48063429D02*
X83072667Y-48063429D01*
D58*
%TO.N,CANP*%
X39775001Y-70675000D02*
X38725000Y-70675000D01*
X41221571Y-71325000D02*
X40425001Y-71325000D01*
X41285786Y-71389215D02*
X41221571Y-71325000D01*
X42778986Y-71389215D02*
X41285786Y-71389215D01*
X41585000Y-79315001D02*
X43303200Y-79315001D01*
X44110786Y-72721015D02*
X42778986Y-71389215D01*
X43303200Y-79315001D02*
X44110786Y-78507415D01*
X41085786Y-79814215D02*
X41585000Y-79315001D01*
X44110786Y-78507415D02*
X44110786Y-72721015D01*
X40425001Y-71325000D02*
X39775001Y-70675000D01*
X40360785Y-79814215D02*
X41085786Y-79814215D01*
X39180000Y-80995000D02*
X40360785Y-79814215D01*
%TD*%
%TA.AperFunction,Conductor*%
%TO.N,Net-(Q2-S)*%
G36*
X84488076Y-54618306D02*
G01*
X84539499Y-54631853D01*
X84594476Y-54662980D01*
X84625572Y-54693301D01*
X84632549Y-54700104D01*
X84652309Y-54725087D01*
X84827524Y-55017113D01*
X84827526Y-55017115D01*
X84885786Y-55114215D01*
X84979971Y-55114215D01*
X85000633Y-55124260D01*
X85008724Y-55130378D01*
X85063903Y-55161822D01*
X85136917Y-55191705D01*
X85146719Y-55194302D01*
X85146724Y-55194303D01*
X85188581Y-55205392D01*
X85227373Y-55213022D01*
X85227374Y-55213023D01*
X85238933Y-55214527D01*
X85259124Y-55217157D01*
X85298572Y-55219715D01*
X85298573Y-55219715D01*
X91373562Y-55219715D01*
X91373575Y-55219715D01*
X91403527Y-55218243D01*
X91403544Y-55218241D01*
X91403551Y-55218241D01*
X91411680Y-55217439D01*
X91427716Y-55215860D01*
X91457368Y-55211461D01*
X91481216Y-55206717D01*
X91481216Y-55206718D01*
X91481220Y-55206716D01*
X91497719Y-55203435D01*
X91555046Y-55186046D01*
X91599745Y-55167530D01*
X91652560Y-55139298D01*
X91658820Y-55135114D01*
X91725497Y-55114235D01*
X91727714Y-55114215D01*
X92473575Y-55114215D01*
X92497757Y-55116596D01*
X92538132Y-55124627D01*
X92582829Y-55143142D01*
X92606699Y-55159092D01*
X92640908Y-55193301D01*
X92656858Y-55217171D01*
X92675373Y-55261866D01*
X92677902Y-55274577D01*
X92680286Y-55298774D01*
X92680286Y-55441818D01*
X92682050Y-55474608D01*
X92682052Y-55474637D01*
X92685007Y-55502013D01*
X92685164Y-55503552D01*
X92685227Y-55504213D01*
X92685786Y-55515978D01*
X92685786Y-56702004D01*
X92683403Y-56726197D01*
X92675374Y-56766559D01*
X92656858Y-56811258D01*
X92640908Y-56835128D01*
X92606699Y-56869337D01*
X92582829Y-56885287D01*
X92538130Y-56903803D01*
X92521627Y-56907085D01*
X92497764Y-56911832D01*
X92473575Y-56914215D01*
X91385786Y-56914215D01*
X91385786Y-57114210D01*
X91385786Y-58302004D01*
X91383403Y-58326197D01*
X91375374Y-58366559D01*
X91356858Y-58411258D01*
X91340908Y-58435128D01*
X91306699Y-58469337D01*
X91282829Y-58485287D01*
X91238130Y-58503803D01*
X91221627Y-58507085D01*
X91197764Y-58511832D01*
X91173575Y-58514215D01*
X86085786Y-58514215D01*
X86085786Y-58714210D01*
X86085786Y-60602004D01*
X86083403Y-60626197D01*
X86075374Y-60666559D01*
X86056858Y-60711258D01*
X86040908Y-60735128D01*
X86006699Y-60769337D01*
X85982829Y-60785287D01*
X85938130Y-60803803D01*
X85921627Y-60807085D01*
X85897764Y-60811832D01*
X85873575Y-60814215D01*
X82397997Y-60814215D01*
X82373806Y-60811832D01*
X82358530Y-60808793D01*
X82333442Y-60803803D01*
X82288742Y-60785287D01*
X82264872Y-60769337D01*
X82230663Y-60735128D01*
X82214713Y-60711258D01*
X82196198Y-60666561D01*
X82188167Y-60626186D01*
X82185786Y-60602004D01*
X82185786Y-57661963D01*
X82188218Y-57637526D01*
X82196410Y-57596773D01*
X82215295Y-57551696D01*
X82231547Y-57527691D01*
X82266380Y-57493420D01*
X82301189Y-57470670D01*
X82322954Y-57459347D01*
X82560064Y-57364504D01*
X82560064Y-57364503D01*
X82560065Y-57364502D01*
X82685786Y-57314215D01*
X82685786Y-54826425D01*
X82688167Y-54802244D01*
X82696198Y-54761866D01*
X82714713Y-54717171D01*
X82730663Y-54693301D01*
X82764872Y-54659092D01*
X82788742Y-54643142D01*
X82833439Y-54624627D01*
X82873813Y-54616596D01*
X82897997Y-54614215D01*
X84456487Y-54614215D01*
X84488076Y-54618306D01*
G37*
%TD.AperFunction*%
%TD*%
%TA.AperFunction,Conductor*%
%TO.N,GND*%
G36*
X97497757Y-39816596D02*
G01*
X97576404Y-39832239D01*
X97621094Y-39850750D01*
X97677412Y-39888381D01*
X97711619Y-39922588D01*
X97749248Y-39978903D01*
X97767762Y-40023602D01*
X97783403Y-40102234D01*
X97785786Y-40126425D01*
X97785786Y-43402004D01*
X97783403Y-43426195D01*
X97767762Y-43504827D01*
X97749248Y-43549526D01*
X97711622Y-43605838D01*
X97677409Y-43640051D01*
X97621097Y-43677677D01*
X97576398Y-43696191D01*
X97497766Y-43711832D01*
X97473575Y-43714215D01*
X94897997Y-43714215D01*
X94873806Y-43711832D01*
X94795173Y-43696191D01*
X94750475Y-43677677D01*
X94694159Y-43640048D01*
X94659952Y-43605841D01*
X94622321Y-43549523D01*
X94603810Y-43504833D01*
X94588167Y-43426186D01*
X94585786Y-43402004D01*
X94585786Y-40126425D01*
X94588167Y-40102244D01*
X94603811Y-40023594D01*
X94622320Y-39978908D01*
X94659954Y-39922585D01*
X94694156Y-39888383D01*
X94750479Y-39850749D01*
X94795165Y-39832240D01*
X94873814Y-39816596D01*
X94897997Y-39814215D01*
X97473575Y-39814215D01*
X97497757Y-39816596D01*
G37*
%TD.AperFunction*%
%TD*%
%TA.AperFunction,Conductor*%
%TO.N,Net-(U1-SW)*%
G36*
X109648671Y-50117690D02*
G01*
X109650852Y-50118218D01*
X109702803Y-50144942D01*
X109704502Y-50146411D01*
X109724300Y-50168135D01*
X110185786Y-50814215D01*
X110307844Y-50818423D01*
X111762218Y-50868574D01*
X113047287Y-50912887D01*
X113113608Y-50934870D01*
X113150520Y-50975021D01*
X113164583Y-50999489D01*
X113164588Y-50999496D01*
X113210055Y-51059847D01*
X113210059Y-51059852D01*
X113210061Y-51059854D01*
X113234691Y-51085271D01*
X113293594Y-51132623D01*
X113345390Y-51164601D01*
X113345389Y-51164601D01*
X113345393Y-51164603D01*
X113345395Y-51164604D01*
X113414116Y-51196046D01*
X113463083Y-51211467D01*
X113499834Y-51220580D01*
X113530007Y-51226104D01*
X113530011Y-51226104D01*
X113530014Y-51226105D01*
X113536063Y-51226828D01*
X113567594Y-51230601D01*
X113982329Y-51254301D01*
X113991038Y-51254675D01*
X113998112Y-51254877D01*
X113999531Y-51254897D01*
X114006796Y-51255001D01*
X114006832Y-51255001D01*
X114859797Y-51255001D01*
X114893622Y-51259703D01*
X114895617Y-51260270D01*
X114954740Y-51297495D01*
X114984355Y-51360778D01*
X114985786Y-51379565D01*
X114985786Y-51775501D01*
X114966101Y-51842540D01*
X114913297Y-51888295D01*
X114861786Y-51899501D01*
X113772301Y-51899501D01*
X113741871Y-51902354D01*
X113741869Y-51902354D01*
X113613690Y-51947207D01*
X113613688Y-51947208D01*
X113504421Y-52027851D01*
X113474314Y-52068645D01*
X113418666Y-52110895D01*
X113405951Y-52114215D01*
X113385786Y-52114215D01*
X113360593Y-52131010D01*
X113360589Y-52131012D01*
X113306523Y-52167056D01*
X113265213Y-52194595D01*
X113250970Y-52202783D01*
X113249469Y-52203518D01*
X113218427Y-52213908D01*
X113217837Y-52214021D01*
X113216780Y-52214225D01*
X113200476Y-52216261D01*
X112819332Y-52238356D01*
X109865511Y-52409592D01*
X109865509Y-52409593D01*
X109785786Y-52414215D01*
X109772658Y-52492983D01*
X109772658Y-52492984D01*
X109772657Y-52492985D01*
X109720639Y-52805100D01*
X109690201Y-52867992D01*
X109630593Y-52904443D01*
X109598326Y-52908715D01*
X107697997Y-52908715D01*
X107680667Y-52909566D01*
X107668056Y-52910185D01*
X107643882Y-52912565D01*
X107643864Y-52912567D01*
X107614241Y-52916961D01*
X107614221Y-52916964D01*
X107614212Y-52916966D01*
X107614192Y-52916970D01*
X107573840Y-52924996D01*
X107573831Y-52924998D01*
X107516520Y-52942385D01*
X107471826Y-52960899D01*
X107471819Y-52960902D01*
X107419016Y-52989127D01*
X107415031Y-52991789D01*
X107412745Y-52993317D01*
X107346070Y-53014195D01*
X107343856Y-53014215D01*
X105910450Y-53014215D01*
X105862934Y-53004749D01*
X105862460Y-53004553D01*
X105808083Y-52960681D01*
X105795396Y-52937417D01*
X105795202Y-52936948D01*
X105785786Y-52889551D01*
X105785786Y-50238878D01*
X105795201Y-50191483D01*
X105795397Y-50191009D01*
X105839211Y-50136587D01*
X105862659Y-50123794D01*
X105863141Y-50123594D01*
X105910450Y-50114215D01*
X109619522Y-50114215D01*
X109648671Y-50117690D01*
G37*
%TD.AperFunction*%
%TD*%
%TA.AperFunction,Conductor*%
%TO.N,GND*%
G36*
X89397757Y-49016596D02*
G01*
X89438132Y-49024627D01*
X89482829Y-49043142D01*
X89506699Y-49059092D01*
X89540908Y-49093301D01*
X89556858Y-49117171D01*
X89575374Y-49161870D01*
X89583403Y-49202237D01*
X89585786Y-49226425D01*
X89585786Y-52414215D01*
X90973575Y-52414215D01*
X90997757Y-52416596D01*
X91038132Y-52424627D01*
X91082829Y-52443142D01*
X91106699Y-52459092D01*
X91140908Y-52493301D01*
X91156858Y-52517171D01*
X91175374Y-52561870D01*
X91183403Y-52602237D01*
X91185786Y-52626425D01*
X91185786Y-53014215D01*
X91379116Y-53062547D01*
X91420951Y-53073007D01*
X91446583Y-53082522D01*
X91487730Y-53103214D01*
X91529760Y-53137685D01*
X91549428Y-53162876D01*
X91572675Y-53212006D01*
X91582771Y-53256950D01*
X91585786Y-53284126D01*
X91585786Y-54702004D01*
X91583403Y-54726193D01*
X91578656Y-54750056D01*
X91575374Y-54766559D01*
X91556858Y-54811258D01*
X91540908Y-54835128D01*
X91506699Y-54869337D01*
X91482829Y-54885287D01*
X91438130Y-54903803D01*
X91421627Y-54907085D01*
X91397764Y-54911832D01*
X91373575Y-54914215D01*
X85298572Y-54914215D01*
X85266817Y-54910080D01*
X85224960Y-54898991D01*
X85215158Y-54896394D01*
X85159979Y-54864950D01*
X85133786Y-54839197D01*
X85101411Y-54784557D01*
X85086852Y-54733136D01*
X85082180Y-54701456D01*
X85058157Y-53284126D01*
X84989442Y-49229947D01*
X84991462Y-49205462D01*
X84998970Y-49164559D01*
X85017102Y-49119156D01*
X85032958Y-49094873D01*
X85067232Y-49060013D01*
X85091243Y-49043748D01*
X85136333Y-49024848D01*
X85149283Y-49022243D01*
X85177104Y-49016649D01*
X85201551Y-49014215D01*
X89373575Y-49014215D01*
X89397757Y-49016596D01*
G37*
%TD.AperFunction*%
%TD*%
%TA.AperFunction,Conductor*%
%TO.N,+12V*%
G36*
X45786738Y-32315276D02*
G01*
X45891902Y-32329121D01*
X45923169Y-32337499D01*
X46013594Y-32374954D01*
X46041628Y-32391139D01*
X46125789Y-32455718D01*
X46137984Y-32466413D01*
X46839333Y-33167763D01*
X46839340Y-33167769D01*
X46985786Y-33314215D01*
X56477660Y-33314215D01*
X56493845Y-33315276D01*
X56599009Y-33329121D01*
X56630277Y-33337499D01*
X56720704Y-33374955D01*
X56748737Y-33391140D01*
X56774312Y-33410764D01*
X56826388Y-33450724D01*
X56849277Y-33473613D01*
X56908860Y-33551263D01*
X56925045Y-33579296D01*
X56962501Y-33669723D01*
X56970879Y-33700990D01*
X56984725Y-33806154D01*
X56985786Y-33822340D01*
X56985786Y-39414215D01*
X57507194Y-39391868D01*
X57507195Y-39391869D01*
X57507202Y-39391868D01*
X57507204Y-39391869D01*
X61369188Y-39226355D01*
X63514741Y-39134403D01*
X63514743Y-39134402D01*
X63985786Y-39114215D01*
X64043475Y-35479731D01*
X68245000Y-35479731D01*
X68245000Y-35875000D01*
X69636528Y-35875000D01*
X69543906Y-36056780D01*
X69478242Y-36258874D01*
X69445000Y-36468753D01*
X69445000Y-36681247D01*
X69478242Y-36891126D01*
X69543906Y-37093220D01*
X69636528Y-37275000D01*
X68245000Y-37275000D01*
X68245000Y-37670268D01*
X68255215Y-37814958D01*
X68255217Y-37814968D01*
X68309313Y-38055165D01*
X68309315Y-38055172D01*
X68401244Y-38283585D01*
X68528620Y-38494289D01*
X68528627Y-38494299D01*
X68688153Y-38681846D01*
X68875700Y-38841372D01*
X68875710Y-38841379D01*
X69086414Y-38968755D01*
X69314827Y-39060684D01*
X69314834Y-39060686D01*
X69555031Y-39114782D01*
X69555041Y-39114784D01*
X69699731Y-39124999D01*
X69699734Y-39125000D01*
X70095000Y-39125000D01*
X70095000Y-37733471D01*
X70276780Y-37826094D01*
X70478874Y-37891758D01*
X70688753Y-37925000D01*
X70901247Y-37925000D01*
X71111126Y-37891758D01*
X71313220Y-37826094D01*
X71495000Y-37733471D01*
X71495000Y-39125000D01*
X71890266Y-39125000D01*
X71890268Y-39124999D01*
X72034958Y-39114784D01*
X72034968Y-39114782D01*
X72275165Y-39060686D01*
X72275172Y-39060684D01*
X72503585Y-38968755D01*
X72714289Y-38841379D01*
X72714299Y-38841372D01*
X72901846Y-38681846D01*
X73061372Y-38494299D01*
X73061379Y-38494289D01*
X73188755Y-38283585D01*
X73280684Y-38055172D01*
X73280686Y-38055165D01*
X73334782Y-37814968D01*
X73334784Y-37814958D01*
X73344999Y-37670268D01*
X73345000Y-37670266D01*
X73345000Y-37275000D01*
X71953472Y-37275000D01*
X72046094Y-37093220D01*
X72111758Y-36891126D01*
X72145000Y-36681247D01*
X72145000Y-36468753D01*
X72111758Y-36258874D01*
X72046094Y-36056780D01*
X71953472Y-35875000D01*
X73345000Y-35875000D01*
X73345000Y-35479734D01*
X73344999Y-35479731D01*
X73334784Y-35335041D01*
X73334782Y-35335031D01*
X73280686Y-35094834D01*
X73280684Y-35094827D01*
X73188755Y-34866414D01*
X73061379Y-34655710D01*
X73061372Y-34655700D01*
X72901846Y-34468153D01*
X72714299Y-34308627D01*
X72714289Y-34308620D01*
X72503585Y-34181244D01*
X72275172Y-34089315D01*
X72275165Y-34089313D01*
X72034968Y-34035217D01*
X72034958Y-34035215D01*
X71890268Y-34025000D01*
X71495000Y-34025000D01*
X71495000Y-35416528D01*
X71313220Y-35323906D01*
X71111126Y-35258242D01*
X70901247Y-35225000D01*
X70688753Y-35225000D01*
X70478874Y-35258242D01*
X70276780Y-35323906D01*
X70095000Y-35416528D01*
X70095000Y-34025000D01*
X69699731Y-34025000D01*
X69555041Y-34035215D01*
X69555031Y-34035217D01*
X69314834Y-34089313D01*
X69314827Y-34089315D01*
X69086414Y-34181244D01*
X68875710Y-34308620D01*
X68875700Y-34308627D01*
X68688153Y-34468153D01*
X68528627Y-34655700D01*
X68528620Y-34655710D01*
X68401244Y-34866414D01*
X68309315Y-35094827D01*
X68309313Y-35094834D01*
X68255217Y-35335031D01*
X68255215Y-35335041D01*
X68245000Y-35479731D01*
X64043475Y-35479731D01*
X64077821Y-33315933D01*
X64079621Y-33296763D01*
X64101070Y-33172828D01*
X64113397Y-33136467D01*
X64167208Y-33033695D01*
X64190068Y-33002854D01*
X64272742Y-32921482D01*
X64303953Y-32899108D01*
X64351919Y-32874955D01*
X64407554Y-32846940D01*
X64444114Y-32835189D01*
X64537096Y-32820613D01*
X64568370Y-32815711D01*
X64587573Y-32814215D01*
X74477660Y-32814215D01*
X74493845Y-32815276D01*
X74599009Y-32829121D01*
X74630277Y-32837499D01*
X74720704Y-32874955D01*
X74748738Y-32891140D01*
X74826388Y-32950724D01*
X74849277Y-32973613D01*
X74908860Y-33051263D01*
X74925045Y-33079296D01*
X74962501Y-33169723D01*
X74970879Y-33200990D01*
X74976967Y-33247227D01*
X74983488Y-33296763D01*
X74984725Y-33306154D01*
X74985786Y-33322340D01*
X74985786Y-43614215D01*
X74985786Y-43914215D01*
X75085786Y-51614215D01*
X75371100Y-51746682D01*
X75371103Y-51746684D01*
X75371106Y-51746685D01*
X75371107Y-51746686D01*
X80388341Y-54076115D01*
X80403734Y-54084638D01*
X80500128Y-54147337D01*
X80526547Y-54170448D01*
X80595700Y-54250889D01*
X80614585Y-54280478D01*
X80658425Y-54377074D01*
X80668261Y-54410768D01*
X80668754Y-54414207D01*
X80684538Y-54524606D01*
X80685786Y-54542157D01*
X80685786Y-54921494D01*
X80677141Y-54966983D01*
X80631217Y-55083437D01*
X80628877Y-55102930D01*
X80620595Y-55171899D01*
X80620595Y-56958103D01*
X80625020Y-56994949D01*
X80631218Y-57046566D01*
X80670176Y-57145356D01*
X80676458Y-57214943D01*
X80644121Y-57276879D01*
X80583433Y-57311500D01*
X80542220Y-57314204D01*
X80501083Y-57310001D01*
X80422029Y-57310001D01*
X80354990Y-57290316D01*
X80309235Y-57237512D01*
X80299291Y-57168354D01*
X80304323Y-57146997D01*
X80330600Y-57067698D01*
X80330601Y-57067691D01*
X80341094Y-56964987D01*
X80341095Y-56964974D01*
X80341095Y-56665001D01*
X78141096Y-56665001D01*
X78141096Y-56964987D01*
X78151589Y-57067698D01*
X78206736Y-57234120D01*
X78206738Y-57234125D01*
X78298779Y-57383346D01*
X78422749Y-57507316D01*
X78571970Y-57599357D01*
X78571975Y-57599359D01*
X78738397Y-57654506D01*
X78738405Y-57654507D01*
X78833242Y-57664196D01*
X78897934Y-57690592D01*
X78938085Y-57747772D01*
X78940949Y-57817583D01*
X78938346Y-57826558D01*
X78911589Y-57907303D01*
X78911588Y-57907310D01*
X78901095Y-58010014D01*
X78901095Y-58485001D01*
X80577095Y-58485001D01*
X80644134Y-58504686D01*
X80685786Y-58552754D01*
X80685786Y-62114215D01*
X88307738Y-62015228D01*
X88316745Y-62015440D01*
X88376033Y-62019004D01*
X88393945Y-62021403D01*
X88452061Y-62033551D01*
X88460812Y-62035717D01*
X95305061Y-63997178D01*
X104785786Y-66714215D01*
X111785786Y-66814215D01*
X111814564Y-66008430D01*
X112719309Y-66008430D01*
X112742213Y-66077550D01*
X112834256Y-66226775D01*
X112958226Y-66350745D01*
X113107447Y-66442786D01*
X113107452Y-66442788D01*
X113273874Y-66497935D01*
X113273881Y-66497936D01*
X113376591Y-66508429D01*
X113676571Y-66508429D01*
X113676572Y-66508428D01*
X113676572Y-66008430D01*
X112719309Y-66008430D01*
X111814564Y-66008430D01*
X111857420Y-64808430D01*
X112719309Y-64808430D01*
X113676572Y-64808430D01*
X113676572Y-64308430D01*
X113376600Y-64308430D01*
X113376584Y-64308431D01*
X113273874Y-64318924D01*
X113107452Y-64374071D01*
X113107447Y-64374073D01*
X112958226Y-64466114D01*
X112834256Y-64590084D01*
X112742213Y-64739309D01*
X112719309Y-64808430D01*
X111857420Y-64808430D01*
X111868225Y-64505890D01*
X111870358Y-64487008D01*
X111893717Y-64365030D01*
X111906457Y-64329322D01*
X111960993Y-64228594D01*
X111983934Y-64198402D01*
X112066356Y-64118871D01*
X112097342Y-64097027D01*
X112199955Y-64046120D01*
X112236097Y-64034662D01*
X112242582Y-64033659D01*
X112263727Y-64030388D01*
X112282684Y-64028930D01*
X115169675Y-64028930D01*
X115191789Y-64026274D01*
X115258136Y-64018307D01*
X115268513Y-64014215D01*
X115560957Y-64014215D01*
X115577386Y-64041915D01*
X115580591Y-64085162D01*
X115571572Y-64173441D01*
X115571572Y-64244064D01*
X115551887Y-64311103D01*
X115499083Y-64356858D01*
X115429925Y-64366802D01*
X115408568Y-64361770D01*
X115279269Y-64318924D01*
X115279262Y-64318923D01*
X115176558Y-64308430D01*
X114876572Y-64308430D01*
X114876572Y-66508429D01*
X115176544Y-66508429D01*
X115176558Y-66508428D01*
X115279269Y-66497935D01*
X115445691Y-66442788D01*
X115445696Y-66442786D01*
X115594917Y-66350745D01*
X115718887Y-66226775D01*
X115810928Y-66077554D01*
X115810930Y-66077549D01*
X115866077Y-65911127D01*
X115866078Y-65911119D01*
X115874934Y-65824438D01*
X115901330Y-65759746D01*
X115958510Y-65719595D01*
X116028321Y-65716731D01*
X116037296Y-65719334D01*
X116168874Y-65762935D01*
X116168881Y-65762936D01*
X116271591Y-65773429D01*
X116746571Y-65773429D01*
X118046572Y-65773429D01*
X118521544Y-65773429D01*
X118521558Y-65773428D01*
X118624269Y-65762935D01*
X118790691Y-65707788D01*
X118790696Y-65707786D01*
X118939917Y-65615745D01*
X119063887Y-65491775D01*
X119155930Y-65342550D01*
X119178835Y-65273430D01*
X118046572Y-65273430D01*
X118046572Y-65773429D01*
X116746571Y-65773429D01*
X116746572Y-65773428D01*
X116746572Y-63973430D01*
X118046572Y-63973430D01*
X119178834Y-63973430D01*
X119155930Y-63904309D01*
X119063887Y-63755084D01*
X118939917Y-63631114D01*
X118790696Y-63539073D01*
X118790691Y-63539071D01*
X118624269Y-63483924D01*
X118624262Y-63483923D01*
X118521558Y-63473430D01*
X118046572Y-63473430D01*
X118046572Y-63973430D01*
X116746572Y-63973430D01*
X116746572Y-63473430D01*
X116271600Y-63473430D01*
X116271584Y-63473431D01*
X116168874Y-63483924D01*
X116002452Y-63539071D01*
X116002443Y-63539075D01*
X115876332Y-63616861D01*
X115808940Y-63635301D01*
X115742276Y-63614378D01*
X115697507Y-63560736D01*
X115688297Y-63495138D01*
X115700692Y-63400988D01*
X115709070Y-63369723D01*
X115746526Y-63279296D01*
X115762709Y-63251265D01*
X115822299Y-63173607D01*
X115845178Y-63150728D01*
X115922836Y-63091138D01*
X115950865Y-63074955D01*
X116041295Y-63037498D01*
X116072561Y-63029121D01*
X116177727Y-63015276D01*
X116193912Y-63014215D01*
X119577660Y-63014215D01*
X119593845Y-63015276D01*
X119699009Y-63029121D01*
X119730277Y-63037499D01*
X119820704Y-63074955D01*
X119848738Y-63091140D01*
X119926388Y-63150724D01*
X119949277Y-63173613D01*
X120008860Y-63251263D01*
X120025045Y-63279296D01*
X120062501Y-63369723D01*
X120070879Y-63400990D01*
X120084725Y-63506154D01*
X120085786Y-63522340D01*
X120085786Y-74306089D01*
X120084725Y-74322275D01*
X120070879Y-74427439D01*
X120062501Y-74458706D01*
X120025045Y-74549133D01*
X120008860Y-74577166D01*
X119949277Y-74654816D01*
X119926387Y-74677706D01*
X119848737Y-74737289D01*
X119820704Y-74753474D01*
X119730277Y-74790930D01*
X119699010Y-74799308D01*
X119605184Y-74811661D01*
X119593844Y-74813154D01*
X119577660Y-74814215D01*
X104885786Y-74814215D01*
X104885786Y-78129161D01*
X104881037Y-78133910D01*
X104842917Y-78181213D01*
X104829156Y-78185792D01*
X104559949Y-78454999D01*
X104833245Y-78728294D01*
X104867813Y-78751687D01*
X104884679Y-78779729D01*
X104885786Y-78780836D01*
X104885786Y-79414215D01*
X105161189Y-79541324D01*
X105185057Y-79569065D01*
X105240158Y-79577771D01*
X105535786Y-79714215D01*
X105848558Y-79858572D01*
X105887288Y-79876447D01*
X105902728Y-79884953D01*
X105999424Y-79947576D01*
X105999440Y-79947586D01*
X106025951Y-79970698D01*
X106095354Y-80051199D01*
X106114310Y-80080826D01*
X106158317Y-80177574D01*
X106168192Y-80211329D01*
X106184533Y-80325385D01*
X106185786Y-80342971D01*
X106185786Y-80639162D01*
X106176348Y-80661949D01*
X106174985Y-80661384D01*
X106166101Y-80691640D01*
X106113297Y-80737395D01*
X106083230Y-80741718D01*
X105829949Y-80994999D01*
X106081813Y-81246862D01*
X106099542Y-81247285D01*
X106157405Y-81286447D01*
X106175389Y-81328444D01*
X106176347Y-81328048D01*
X106185786Y-81350835D01*
X106185786Y-81477792D01*
X106185786Y-81906089D01*
X106184725Y-81922275D01*
X106170879Y-82027439D01*
X106162501Y-82058706D01*
X106125045Y-82149133D01*
X106108860Y-82177167D01*
X106061195Y-82239285D01*
X106010274Y-82278358D01*
X105982944Y-82289678D01*
X105888239Y-82362348D01*
X105860206Y-82378533D01*
X105830275Y-82390931D01*
X105799007Y-82399309D01*
X105693845Y-82413154D01*
X105677660Y-82414215D01*
X105190724Y-82414215D01*
X105123685Y-82394530D01*
X105077930Y-82341726D01*
X105067986Y-82272568D01*
X105070949Y-82258124D01*
X105079871Y-82224822D01*
X104840000Y-81984949D01*
X104600128Y-82224820D01*
X104609051Y-82258123D01*
X104607388Y-82327973D01*
X104568225Y-82385835D01*
X104503996Y-82413338D01*
X104489276Y-82414215D01*
X104085491Y-82414215D01*
X104038038Y-82404776D01*
X103886773Y-82342120D01*
X103886771Y-82342119D01*
X103730012Y-82321482D01*
X103730010Y-82321482D01*
X103573250Y-82342119D01*
X103573248Y-82342120D01*
X103421984Y-82404776D01*
X103374531Y-82414215D01*
X103362933Y-82414215D01*
X103295894Y-82394530D01*
X103250139Y-82341726D01*
X103240195Y-82272568D01*
X103269220Y-82209012D01*
X103288622Y-82190948D01*
X103407190Y-82102186D01*
X103493350Y-81987093D01*
X103493354Y-81987086D01*
X103543596Y-81852379D01*
X103543598Y-81852372D01*
X103549999Y-81792844D01*
X103550000Y-81792827D01*
X103550000Y-81533578D01*
X103518417Y-81501995D01*
X103484932Y-81440672D01*
X103489916Y-81370980D01*
X103518417Y-81326633D01*
X103567428Y-81277621D01*
X103567441Y-81277606D01*
X103850049Y-80994999D01*
X103790806Y-80935756D01*
X104390000Y-80935756D01*
X104390000Y-81054244D01*
X104420667Y-81168694D01*
X104479910Y-81271306D01*
X104563694Y-81355090D01*
X104666306Y-81414333D01*
X104780756Y-81445000D01*
X104899244Y-81445000D01*
X105013694Y-81414333D01*
X105116306Y-81355090D01*
X105200090Y-81271306D01*
X105259333Y-81168694D01*
X105290000Y-81054244D01*
X105290000Y-80935756D01*
X105259333Y-80821306D01*
X105200090Y-80718694D01*
X105116306Y-80634910D01*
X105013694Y-80575667D01*
X104899244Y-80545000D01*
X104780756Y-80545000D01*
X104666306Y-80575667D01*
X104563694Y-80634910D01*
X104479910Y-80718694D01*
X104420667Y-80821306D01*
X104390000Y-80935756D01*
X103790806Y-80935756D01*
X103567442Y-80712392D01*
X103567438Y-80712386D01*
X103518418Y-80663367D01*
X103484932Y-80602044D01*
X103489916Y-80532353D01*
X103518418Y-80488003D01*
X103549999Y-80456421D01*
X103550000Y-80456421D01*
X103550000Y-80197172D01*
X103549999Y-80197155D01*
X103543598Y-80137627D01*
X103543596Y-80137620D01*
X103493354Y-80002913D01*
X103493352Y-80002910D01*
X103419356Y-79904065D01*
X103394938Y-79838601D01*
X103409789Y-79770327D01*
X103414939Y-79765177D01*
X104600128Y-79765177D01*
X104600128Y-79765178D01*
X104839999Y-80005049D01*
X105079870Y-79765177D01*
X105078115Y-79758627D01*
X105063479Y-79758776D01*
X105063223Y-79760229D01*
X105057884Y-79759287D01*
X104840001Y-79740225D01*
X104839999Y-79740225D01*
X104622116Y-79759287D01*
X104622100Y-79759290D01*
X104600128Y-79765177D01*
X103414939Y-79765177D01*
X103459194Y-79720922D01*
X103527467Y-79706069D01*
X103529431Y-79706225D01*
X103570000Y-79709774D01*
X103787882Y-79690712D01*
X103787889Y-79690711D01*
X103809870Y-79684820D01*
X103570000Y-79444949D01*
X103310300Y-79704648D01*
X103274543Y-79757473D01*
X103241351Y-79773596D01*
X103238366Y-79776582D01*
X103177043Y-79810067D01*
X103107351Y-79805083D01*
X103063004Y-79776582D01*
X103031422Y-79745000D01*
X103000000Y-79745000D01*
X103000000Y-81571000D01*
X102980315Y-81638039D01*
X102927511Y-81683794D01*
X102876000Y-81695000D01*
X101050000Y-81695000D01*
X101050000Y-81792844D01*
X101056401Y-81852372D01*
X101056403Y-81852379D01*
X101106645Y-81987086D01*
X101106649Y-81987093D01*
X101192809Y-82102186D01*
X101311378Y-82190948D01*
X101353249Y-82246882D01*
X101358233Y-82316574D01*
X101324748Y-82377897D01*
X101263424Y-82411381D01*
X101237067Y-82414215D01*
X100208450Y-82414215D01*
X100191766Y-82413087D01*
X100168427Y-82409917D01*
X100083425Y-82398375D01*
X100051265Y-82389477D01*
X99958541Y-82349738D01*
X99929918Y-82332586D01*
X99844546Y-82264278D01*
X99832222Y-82252973D01*
X99828565Y-82249133D01*
X99766392Y-82183851D01*
X98577730Y-80935756D01*
X101850000Y-80935756D01*
X101850000Y-81054244D01*
X101880667Y-81168694D01*
X101939910Y-81271306D01*
X102023694Y-81355090D01*
X102126306Y-81414333D01*
X102240756Y-81445000D01*
X102359244Y-81445000D01*
X102473694Y-81414333D01*
X102576306Y-81355090D01*
X102660090Y-81271306D01*
X102719333Y-81168694D01*
X102750000Y-81054244D01*
X102750000Y-80935756D01*
X102719333Y-80821306D01*
X102660090Y-80718694D01*
X102576306Y-80634910D01*
X102473694Y-80575667D01*
X102359244Y-80545000D01*
X102240756Y-80545000D01*
X102126306Y-80575667D01*
X102023694Y-80634910D01*
X101939910Y-80718694D01*
X101880667Y-80821306D01*
X101850000Y-80935756D01*
X98577730Y-80935756D01*
X98129144Y-80464741D01*
X98119050Y-80452699D01*
X98058134Y-80369879D01*
X98042893Y-80342461D01*
X98039561Y-80334131D01*
X98007656Y-80254369D01*
X97999787Y-80224014D01*
X97996362Y-80197155D01*
X101050000Y-80197155D01*
X101050000Y-80295000D01*
X101600000Y-80295000D01*
X101600000Y-79745000D01*
X101502155Y-79745000D01*
X101442627Y-79751401D01*
X101442620Y-79751403D01*
X101307913Y-79801645D01*
X101307906Y-79801649D01*
X101192812Y-79887809D01*
X101192809Y-79887812D01*
X101106649Y-80002906D01*
X101106645Y-80002913D01*
X101056403Y-80137620D01*
X101056401Y-80137627D01*
X101050000Y-80197155D01*
X97996362Y-80197155D01*
X97989108Y-80140263D01*
X97986782Y-80122024D01*
X97985786Y-80106340D01*
X97985786Y-78454999D01*
X102315225Y-78454999D01*
X102315225Y-78455000D01*
X102334287Y-78672884D01*
X102334289Y-78672894D01*
X102340177Y-78694870D01*
X102580049Y-78454999D01*
X102520806Y-78395756D01*
X103120000Y-78395756D01*
X103120000Y-78514244D01*
X103150667Y-78628694D01*
X103209910Y-78731306D01*
X103293694Y-78815090D01*
X103396306Y-78874333D01*
X103510756Y-78905000D01*
X103629244Y-78905000D01*
X103743694Y-78874333D01*
X103846306Y-78815090D01*
X103930090Y-78731306D01*
X103989333Y-78628694D01*
X104020000Y-78514244D01*
X104020000Y-78395756D01*
X103989333Y-78281306D01*
X103930090Y-78178694D01*
X103846306Y-78094910D01*
X103743694Y-78035667D01*
X103629244Y-78005000D01*
X103510756Y-78005000D01*
X103396306Y-78035667D01*
X103293694Y-78094910D01*
X103209910Y-78178694D01*
X103150667Y-78281306D01*
X103120000Y-78395756D01*
X102520806Y-78395756D01*
X102340178Y-78215128D01*
X102340177Y-78215128D01*
X102334290Y-78237100D01*
X102334287Y-78237116D01*
X102315225Y-78454999D01*
X97985786Y-78454999D01*
X97985786Y-77814221D01*
X97985786Y-77814215D01*
X97985786Y-77314215D01*
X97485786Y-77314215D01*
X97485779Y-77314215D01*
X95431342Y-77314215D01*
X95383890Y-77304776D01*
X95341851Y-77287363D01*
X95341846Y-77287361D01*
X95185087Y-77266724D01*
X95185085Y-77266724D01*
X95028325Y-77287361D01*
X95028320Y-77287363D01*
X94986282Y-77304776D01*
X94938830Y-77314215D01*
X87512786Y-77314215D01*
X86985786Y-77314215D01*
X87037283Y-78292664D01*
X86874949Y-78454999D01*
X86874949Y-78455000D01*
X87055320Y-78635370D01*
X87085786Y-79214215D01*
X87930057Y-79733766D01*
X88141099Y-79863638D01*
X88153989Y-79872751D01*
X88234340Y-79937601D01*
X88256146Y-79960344D01*
X88312815Y-80036941D01*
X88328185Y-80064446D01*
X88363721Y-80152857D01*
X88371662Y-80183347D01*
X88384781Y-80285765D01*
X88385786Y-80301520D01*
X88385786Y-80754162D01*
X88144949Y-80995000D01*
X88385786Y-81235835D01*
X88385786Y-81592791D01*
X88385786Y-81806089D01*
X88384725Y-81822275D01*
X88370879Y-81927439D01*
X88362501Y-81958706D01*
X88325045Y-82049133D01*
X88308860Y-82077166D01*
X88249277Y-82154816D01*
X88226387Y-82177706D01*
X88148737Y-82237289D01*
X88120704Y-82253474D01*
X88030277Y-82290930D01*
X87999010Y-82299308D01*
X87905184Y-82311661D01*
X87893844Y-82313154D01*
X87877660Y-82314215D01*
X87484265Y-82314215D01*
X87482707Y-82313570D01*
X87428304Y-82269729D01*
X87422579Y-82252530D01*
X87155000Y-81984949D01*
X86886992Y-82252956D01*
X86858783Y-82294632D01*
X86827294Y-82313569D01*
X86825735Y-82314214D01*
X86825734Y-82314215D01*
X85809525Y-82314215D01*
X85742486Y-82294530D01*
X85696731Y-82241726D01*
X85686787Y-82172568D01*
X85715812Y-82109012D01*
X85721844Y-82102534D01*
X85722190Y-82102187D01*
X85808350Y-81987093D01*
X85808354Y-81987086D01*
X85858596Y-81852379D01*
X85858598Y-81852372D01*
X85864999Y-81792844D01*
X85865000Y-81792827D01*
X85865000Y-81533578D01*
X85833417Y-81501995D01*
X85799932Y-81440672D01*
X85804916Y-81370980D01*
X85833417Y-81326633D01*
X85882428Y-81277621D01*
X85882441Y-81277606D01*
X86165049Y-80994999D01*
X86105806Y-80935756D01*
X86705000Y-80935756D01*
X86705000Y-81054244D01*
X86735667Y-81168694D01*
X86794910Y-81271306D01*
X86878694Y-81355090D01*
X86981306Y-81414333D01*
X87095756Y-81445000D01*
X87214244Y-81445000D01*
X87328694Y-81414333D01*
X87431306Y-81355090D01*
X87515090Y-81271306D01*
X87574333Y-81168694D01*
X87605000Y-81054244D01*
X87605000Y-80935756D01*
X87574333Y-80821306D01*
X87515090Y-80718694D01*
X87431306Y-80634910D01*
X87328694Y-80575667D01*
X87214244Y-80545000D01*
X87095756Y-80545000D01*
X86981306Y-80575667D01*
X86878694Y-80634910D01*
X86794910Y-80718694D01*
X86735667Y-80821306D01*
X86705000Y-80935756D01*
X86105806Y-80935756D01*
X85882442Y-80712392D01*
X85882438Y-80712386D01*
X85833418Y-80663367D01*
X85799932Y-80602044D01*
X85804916Y-80532353D01*
X85833418Y-80488003D01*
X85864999Y-80456421D01*
X85865000Y-80456421D01*
X85865000Y-80197172D01*
X85864999Y-80197155D01*
X85858598Y-80137627D01*
X85858596Y-80137620D01*
X85808354Y-80002913D01*
X85808352Y-80002910D01*
X85734356Y-79904065D01*
X85709938Y-79838601D01*
X85724789Y-79770327D01*
X85729939Y-79765177D01*
X86915128Y-79765177D01*
X86915128Y-79765178D01*
X87154999Y-80005049D01*
X87394870Y-79765177D01*
X87372894Y-79759289D01*
X87372884Y-79759287D01*
X87155001Y-79740225D01*
X87154999Y-79740225D01*
X86937116Y-79759287D01*
X86937100Y-79759290D01*
X86915128Y-79765177D01*
X85729939Y-79765177D01*
X85774194Y-79720922D01*
X85842467Y-79706069D01*
X85844431Y-79706225D01*
X85885000Y-79709774D01*
X86102882Y-79690712D01*
X86102889Y-79690711D01*
X86124870Y-79684820D01*
X85885000Y-79444949D01*
X85625300Y-79704648D01*
X85589543Y-79757473D01*
X85556351Y-79773596D01*
X85553366Y-79776582D01*
X85492043Y-79810067D01*
X85422351Y-79805083D01*
X85378004Y-79776582D01*
X85346422Y-79745000D01*
X85315000Y-79745000D01*
X85315000Y-81571000D01*
X85295315Y-81638039D01*
X85242511Y-81683794D01*
X85191000Y-81695000D01*
X83365000Y-81695000D01*
X83365000Y-81792844D01*
X83371401Y-81852372D01*
X83371403Y-81852379D01*
X83421645Y-81987086D01*
X83421649Y-81987093D01*
X83507809Y-82102187D01*
X83508156Y-82102534D01*
X83508390Y-82102963D01*
X83513125Y-82109288D01*
X83512215Y-82109968D01*
X83541641Y-82163857D01*
X83536657Y-82233549D01*
X83494785Y-82289482D01*
X83429321Y-82313899D01*
X83420475Y-82314215D01*
X81493912Y-82314215D01*
X81477727Y-82313154D01*
X81464703Y-82311439D01*
X81372561Y-82299308D01*
X81341294Y-82290930D01*
X81250867Y-82253474D01*
X81222834Y-82237289D01*
X81159056Y-82188350D01*
X81145183Y-82177705D01*
X81122294Y-82154816D01*
X81117933Y-82149133D01*
X81062711Y-82077166D01*
X81046526Y-82049133D01*
X81009070Y-81958706D01*
X81000692Y-81927438D01*
X80986847Y-81822274D01*
X80985786Y-81806089D01*
X80985786Y-80935756D01*
X84165000Y-80935756D01*
X84165000Y-81054244D01*
X84195667Y-81168694D01*
X84254910Y-81271306D01*
X84338694Y-81355090D01*
X84441306Y-81414333D01*
X84555756Y-81445000D01*
X84674244Y-81445000D01*
X84788694Y-81414333D01*
X84891306Y-81355090D01*
X84975090Y-81271306D01*
X85034333Y-81168694D01*
X85065000Y-81054244D01*
X85065000Y-80935756D01*
X85034333Y-80821306D01*
X84975090Y-80718694D01*
X84891306Y-80634910D01*
X84788694Y-80575667D01*
X84674244Y-80545000D01*
X84555756Y-80545000D01*
X84441306Y-80575667D01*
X84338694Y-80634910D01*
X84254910Y-80718694D01*
X84195667Y-80821306D01*
X84165000Y-80935756D01*
X80985786Y-80935756D01*
X80985786Y-80197155D01*
X83365000Y-80197155D01*
X83365000Y-80295000D01*
X83915000Y-80295000D01*
X83915000Y-79745000D01*
X83817155Y-79745000D01*
X83757627Y-79751401D01*
X83757620Y-79751403D01*
X83622913Y-79801645D01*
X83622906Y-79801649D01*
X83507812Y-79887809D01*
X83507809Y-79887812D01*
X83421649Y-80002906D01*
X83421645Y-80002913D01*
X83371403Y-80137620D01*
X83371401Y-80137627D01*
X83365000Y-80197155D01*
X80985786Y-80197155D01*
X80985786Y-78454999D01*
X84630225Y-78454999D01*
X84630225Y-78455000D01*
X84649287Y-78672884D01*
X84649289Y-78672894D01*
X84655177Y-78694870D01*
X84895049Y-78454999D01*
X84835806Y-78395756D01*
X85435000Y-78395756D01*
X85435000Y-78514244D01*
X85465667Y-78628694D01*
X85524910Y-78731306D01*
X85608694Y-78815090D01*
X85711306Y-78874333D01*
X85825756Y-78905000D01*
X85944244Y-78905000D01*
X86058694Y-78874333D01*
X86161306Y-78815090D01*
X86245090Y-78731306D01*
X86304333Y-78628694D01*
X86335000Y-78514244D01*
X86335000Y-78395756D01*
X86304333Y-78281306D01*
X86245090Y-78178694D01*
X86161306Y-78094910D01*
X86058694Y-78035667D01*
X85944244Y-78005000D01*
X85825756Y-78005000D01*
X85711306Y-78035667D01*
X85608694Y-78094910D01*
X85524910Y-78178694D01*
X85465667Y-78281306D01*
X85435000Y-78395756D01*
X84835806Y-78395756D01*
X84655178Y-78215128D01*
X84655177Y-78215128D01*
X84649290Y-78237100D01*
X84649287Y-78237116D01*
X84630225Y-78454999D01*
X80985786Y-78454999D01*
X80985786Y-77521328D01*
X80985786Y-77521322D01*
X80985786Y-77314215D01*
X80896748Y-77225177D01*
X85645128Y-77225177D01*
X85645128Y-77225178D01*
X85884999Y-77465049D01*
X86124870Y-77225177D01*
X103330128Y-77225177D01*
X103330128Y-77225178D01*
X103569999Y-77465049D01*
X103809870Y-77225177D01*
X103787894Y-77219289D01*
X103787884Y-77219287D01*
X103570001Y-77200225D01*
X103569999Y-77200225D01*
X103352116Y-77219287D01*
X103352100Y-77219290D01*
X103330128Y-77225177D01*
X86124870Y-77225177D01*
X86102894Y-77219289D01*
X86102884Y-77219287D01*
X85885001Y-77200225D01*
X85884999Y-77200225D01*
X85667116Y-77219287D01*
X85667100Y-77219290D01*
X85645128Y-77225177D01*
X80896748Y-77225177D01*
X80839340Y-77167769D01*
X80839334Y-77167762D01*
X80134211Y-76462640D01*
X80134210Y-76462639D01*
X79985786Y-76314215D01*
X79775894Y-76316213D01*
X79775887Y-76316213D01*
X69981033Y-76409497D01*
X69981013Y-76409498D01*
X69981012Y-76409498D01*
X69485786Y-76414215D01*
X69485786Y-78159162D01*
X69189949Y-78454999D01*
X69480443Y-78745492D01*
X69480443Y-78745493D01*
X69485786Y-78750836D01*
X69485786Y-79014215D01*
X69999460Y-79356664D01*
X70085786Y-79414215D01*
X70745718Y-79854170D01*
X70758311Y-79863782D01*
X70836495Y-79931783D01*
X70857512Y-79955405D01*
X70911443Y-80034361D01*
X70925804Y-80062532D01*
X70958013Y-80152564D01*
X70964781Y-80183452D01*
X70973874Y-80286676D01*
X70974253Y-80302513D01*
X70954762Y-80789795D01*
X70932414Y-80855994D01*
X70877823Y-80899602D01*
X70808323Y-80906773D01*
X70745978Y-80875232D01*
X70710583Y-80814991D01*
X70707333Y-80795643D01*
X70705712Y-80777114D01*
X70699820Y-80755128D01*
X70459949Y-80994999D01*
X70699822Y-81234871D01*
X70714176Y-81231025D01*
X70726760Y-81210381D01*
X70789607Y-81179853D01*
X70858983Y-81188148D01*
X70912860Y-81232634D01*
X70934134Y-81299186D01*
X70934070Y-81307092D01*
X70905367Y-82024697D01*
X70903162Y-82043533D01*
X70879400Y-82165076D01*
X70866570Y-82200649D01*
X70811888Y-82300928D01*
X70788933Y-82330979D01*
X70706569Y-82410114D01*
X70675624Y-82431850D01*
X70573237Y-82482482D01*
X70537180Y-82493880D01*
X70457767Y-82506133D01*
X70414782Y-82512765D01*
X70395876Y-82514215D01*
X68693019Y-82514215D01*
X68625980Y-82494530D01*
X68617533Y-82488591D01*
X68488628Y-82389679D01*
X68342548Y-82329171D01*
X68342546Y-82329170D01*
X68185787Y-82308533D01*
X68185783Y-82308533D01*
X68139196Y-82314666D01*
X68070161Y-82303900D01*
X68017906Y-82257520D01*
X68008726Y-82224820D01*
X69230128Y-82224820D01*
X69252113Y-82230712D01*
X69469999Y-82249775D01*
X69470001Y-82249775D01*
X69687882Y-82230712D01*
X69687889Y-82230711D01*
X69709870Y-82224820D01*
X69470000Y-81984949D01*
X69230128Y-82224820D01*
X68008726Y-82224820D01*
X67999021Y-82190251D01*
X68019502Y-82123450D01*
X68035336Y-82104040D01*
X68037195Y-82102180D01*
X68123350Y-81987093D01*
X68123354Y-81987086D01*
X68173596Y-81852379D01*
X68173598Y-81852372D01*
X68179999Y-81792844D01*
X68180000Y-81792827D01*
X68180000Y-81533578D01*
X68148417Y-81501995D01*
X68114932Y-81440672D01*
X68119916Y-81370980D01*
X68148417Y-81326633D01*
X68197428Y-81277621D01*
X68197441Y-81277606D01*
X68480049Y-80994999D01*
X68420806Y-80935756D01*
X69020000Y-80935756D01*
X69020000Y-81054244D01*
X69050667Y-81168694D01*
X69109910Y-81271306D01*
X69193694Y-81355090D01*
X69296306Y-81414333D01*
X69410756Y-81445000D01*
X69529244Y-81445000D01*
X69643694Y-81414333D01*
X69746306Y-81355090D01*
X69830090Y-81271306D01*
X69889333Y-81168694D01*
X69920000Y-81054244D01*
X69920000Y-80935756D01*
X69889333Y-80821306D01*
X69830090Y-80718694D01*
X69746306Y-80634910D01*
X69643694Y-80575667D01*
X69529244Y-80545000D01*
X69410756Y-80545000D01*
X69296306Y-80575667D01*
X69193694Y-80634910D01*
X69109910Y-80718694D01*
X69050667Y-80821306D01*
X69020000Y-80935756D01*
X68420806Y-80935756D01*
X68197442Y-80712392D01*
X68197438Y-80712386D01*
X68148418Y-80663367D01*
X68114932Y-80602044D01*
X68119916Y-80532353D01*
X68148418Y-80488003D01*
X68179999Y-80456421D01*
X68180000Y-80456421D01*
X68180000Y-80197172D01*
X68179999Y-80197155D01*
X68173598Y-80137627D01*
X68173596Y-80137620D01*
X68123354Y-80002913D01*
X68123352Y-80002910D01*
X68049356Y-79904065D01*
X68024938Y-79838601D01*
X68039789Y-79770327D01*
X68044939Y-79765177D01*
X69230128Y-79765177D01*
X69230128Y-79765178D01*
X69469999Y-80005049D01*
X69709870Y-79765177D01*
X69687894Y-79759289D01*
X69687884Y-79759287D01*
X69470001Y-79740225D01*
X69469999Y-79740225D01*
X69252116Y-79759287D01*
X69252100Y-79759290D01*
X69230128Y-79765177D01*
X68044939Y-79765177D01*
X68089194Y-79720922D01*
X68157467Y-79706069D01*
X68159431Y-79706225D01*
X68200000Y-79709774D01*
X68417882Y-79690712D01*
X68417889Y-79690711D01*
X68439870Y-79684820D01*
X68200000Y-79444949D01*
X67940300Y-79704648D01*
X67904543Y-79757473D01*
X67871351Y-79773596D01*
X67868366Y-79776582D01*
X67807043Y-79810067D01*
X67737351Y-79805083D01*
X67693004Y-79776582D01*
X67661422Y-79745000D01*
X67630000Y-79745000D01*
X67630000Y-82245000D01*
X67706201Y-82245000D01*
X67773240Y-82264685D01*
X67818995Y-82317489D01*
X67828939Y-82386647D01*
X67799914Y-82450203D01*
X67781687Y-82467376D01*
X67754039Y-82488591D01*
X67688870Y-82513785D01*
X67678553Y-82514215D01*
X65037071Y-82514215D01*
X65020887Y-82513154D01*
X64985786Y-82508533D01*
X64950684Y-82513154D01*
X64934501Y-82514215D01*
X63793912Y-82514215D01*
X63777727Y-82513154D01*
X63764703Y-82511439D01*
X63672561Y-82499308D01*
X63641294Y-82490930D01*
X63550867Y-82453474D01*
X63522834Y-82437289D01*
X63445184Y-82377706D01*
X63422294Y-82354816D01*
X63414826Y-82345084D01*
X63364550Y-82279563D01*
X63362711Y-82277166D01*
X63346526Y-82249133D01*
X63309070Y-82158706D01*
X63300692Y-82127438D01*
X63286847Y-82022274D01*
X63285786Y-82006089D01*
X63285786Y-81792844D01*
X65680000Y-81792844D01*
X65686401Y-81852372D01*
X65686403Y-81852379D01*
X65736645Y-81987086D01*
X65736649Y-81987093D01*
X65822809Y-82102187D01*
X65822812Y-82102190D01*
X65937906Y-82188350D01*
X65937913Y-82188354D01*
X66072620Y-82238596D01*
X66072627Y-82238598D01*
X66132155Y-82244999D01*
X66132172Y-82245000D01*
X66230000Y-82245000D01*
X66230000Y-81695000D01*
X65680000Y-81695000D01*
X65680000Y-81792844D01*
X63285786Y-81792844D01*
X63285786Y-80935756D01*
X66480000Y-80935756D01*
X66480000Y-81054244D01*
X66510667Y-81168694D01*
X66569910Y-81271306D01*
X66653694Y-81355090D01*
X66756306Y-81414333D01*
X66870756Y-81445000D01*
X66989244Y-81445000D01*
X67103694Y-81414333D01*
X67206306Y-81355090D01*
X67290090Y-81271306D01*
X67349333Y-81168694D01*
X67380000Y-81054244D01*
X67380000Y-80935756D01*
X67349333Y-80821306D01*
X67290090Y-80718694D01*
X67206306Y-80634910D01*
X67103694Y-80575667D01*
X66989244Y-80545000D01*
X66870756Y-80545000D01*
X66756306Y-80575667D01*
X66653694Y-80634910D01*
X66569910Y-80718694D01*
X66510667Y-80821306D01*
X66480000Y-80935756D01*
X63285786Y-80935756D01*
X63285786Y-80197155D01*
X65680000Y-80197155D01*
X65680000Y-80295000D01*
X66230000Y-80295000D01*
X66230000Y-79745000D01*
X66132155Y-79745000D01*
X66072627Y-79751401D01*
X66072620Y-79751403D01*
X65937913Y-79801645D01*
X65937906Y-79801649D01*
X65822812Y-79887809D01*
X65822809Y-79887812D01*
X65736649Y-80002906D01*
X65736645Y-80002913D01*
X65686403Y-80137620D01*
X65686401Y-80137627D01*
X65680000Y-80197155D01*
X63285786Y-80197155D01*
X63285786Y-78454999D01*
X66945225Y-78454999D01*
X66945225Y-78455000D01*
X66964287Y-78672884D01*
X66964289Y-78672894D01*
X66970177Y-78694870D01*
X67210049Y-78454999D01*
X67150806Y-78395756D01*
X67750000Y-78395756D01*
X67750000Y-78514244D01*
X67780667Y-78628694D01*
X67839910Y-78731306D01*
X67923694Y-78815090D01*
X68026306Y-78874333D01*
X68140756Y-78905000D01*
X68259244Y-78905000D01*
X68373694Y-78874333D01*
X68476306Y-78815090D01*
X68560090Y-78731306D01*
X68619333Y-78628694D01*
X68650000Y-78514244D01*
X68650000Y-78395756D01*
X68619333Y-78281306D01*
X68560090Y-78178694D01*
X68476306Y-78094910D01*
X68373694Y-78035667D01*
X68259244Y-78005000D01*
X68140756Y-78005000D01*
X68026306Y-78035667D01*
X67923694Y-78094910D01*
X67839910Y-78178694D01*
X67780667Y-78281306D01*
X67750000Y-78395756D01*
X67150806Y-78395756D01*
X66970178Y-78215128D01*
X66970177Y-78215128D01*
X66964290Y-78237100D01*
X66964287Y-78237116D01*
X66945225Y-78454999D01*
X63285786Y-78454999D01*
X63285786Y-77225177D01*
X67960128Y-77225177D01*
X67960128Y-77225178D01*
X68199999Y-77465049D01*
X68439870Y-77225177D01*
X68417894Y-77219289D01*
X68417884Y-77219287D01*
X68200001Y-77200225D01*
X68199999Y-77200225D01*
X67982116Y-77219287D01*
X67982100Y-77219290D01*
X67960128Y-77225177D01*
X63285786Y-77225177D01*
X63285786Y-76814221D01*
X63285786Y-76814215D01*
X63285786Y-76314215D01*
X62785786Y-76314215D01*
X62785779Y-76314215D01*
X52303949Y-76314215D01*
X51785786Y-76314215D01*
X51804280Y-76832054D01*
X51804280Y-76832063D01*
X51844414Y-77955837D01*
X51844415Y-77955841D01*
X51849922Y-78110023D01*
X51843026Y-78127551D01*
X51800163Y-78182728D01*
X51764716Y-78195232D01*
X51504949Y-78454999D01*
X51752490Y-78702539D01*
X51789009Y-78703409D01*
X51846871Y-78742572D01*
X51874375Y-78806800D01*
X51875173Y-78817093D01*
X51875474Y-78825524D01*
X51875475Y-78825528D01*
X51885786Y-79114215D01*
X52804911Y-79880152D01*
X52865390Y-79930551D01*
X52876818Y-79941378D01*
X52934004Y-80002910D01*
X52947036Y-80016932D01*
X52965362Y-80042517D01*
X53010516Y-80126297D01*
X53021811Y-80155672D01*
X53044419Y-80248122D01*
X53047955Y-80279395D01*
X53046443Y-80382524D01*
X53045209Y-80398244D01*
X53041660Y-80423080D01*
X53041661Y-80423083D01*
X53035989Y-80462792D01*
X52990794Y-80779153D01*
X52470690Y-81299259D01*
X51551582Y-82218367D01*
X51551582Y-82218368D01*
X51534527Y-82235422D01*
X51202472Y-82241050D01*
X51202471Y-82241050D01*
X50488994Y-82253143D01*
X50421631Y-82234598D01*
X50374988Y-82182577D01*
X50363874Y-82113596D01*
X50387627Y-82054849D01*
X50438352Y-81987089D01*
X50438354Y-81987086D01*
X50488596Y-81852379D01*
X50488598Y-81852372D01*
X50494999Y-81792844D01*
X50495000Y-81792827D01*
X50495000Y-81533578D01*
X50463417Y-81501995D01*
X50429932Y-81440672D01*
X50434916Y-81370980D01*
X50463417Y-81326633D01*
X50512428Y-81277621D01*
X50512441Y-81277606D01*
X50795049Y-80994999D01*
X50735806Y-80935756D01*
X51335000Y-80935756D01*
X51335000Y-81054244D01*
X51365667Y-81168694D01*
X51424910Y-81271306D01*
X51508694Y-81355090D01*
X51611306Y-81414333D01*
X51725756Y-81445000D01*
X51844244Y-81445000D01*
X51958694Y-81414333D01*
X52061306Y-81355090D01*
X52145090Y-81271306D01*
X52204333Y-81168694D01*
X52235000Y-81054244D01*
X52235000Y-80935756D01*
X52204333Y-80821306D01*
X52145090Y-80718694D01*
X52061306Y-80634910D01*
X51958694Y-80575667D01*
X51844244Y-80545000D01*
X51725756Y-80545000D01*
X51611306Y-80575667D01*
X51508694Y-80634910D01*
X51424910Y-80718694D01*
X51365667Y-80821306D01*
X51335000Y-80935756D01*
X50735806Y-80935756D01*
X50512442Y-80712392D01*
X50512438Y-80712386D01*
X50463418Y-80663367D01*
X50429932Y-80602044D01*
X50434916Y-80532353D01*
X50463418Y-80488003D01*
X50494999Y-80456421D01*
X50495000Y-80456421D01*
X50495000Y-80197172D01*
X50494999Y-80197155D01*
X50488598Y-80137627D01*
X50488596Y-80137620D01*
X50438354Y-80002913D01*
X50438352Y-80002910D01*
X50364356Y-79904065D01*
X50339938Y-79838601D01*
X50354789Y-79770327D01*
X50359939Y-79765177D01*
X51545128Y-79765177D01*
X51545128Y-79765178D01*
X51784999Y-80005049D01*
X52024870Y-79765177D01*
X52002894Y-79759289D01*
X52002884Y-79759287D01*
X51785001Y-79740225D01*
X51784999Y-79740225D01*
X51567116Y-79759287D01*
X51567100Y-79759290D01*
X51545128Y-79765177D01*
X50359939Y-79765177D01*
X50404194Y-79720922D01*
X50472467Y-79706069D01*
X50474431Y-79706225D01*
X50515000Y-79709774D01*
X50732882Y-79690712D01*
X50732889Y-79690711D01*
X50754870Y-79684820D01*
X50515000Y-79444949D01*
X50255300Y-79704648D01*
X50219543Y-79757473D01*
X50186351Y-79773596D01*
X50183366Y-79776582D01*
X50122043Y-79810067D01*
X50052351Y-79805083D01*
X50008004Y-79776582D01*
X49976422Y-79745000D01*
X49945000Y-79745000D01*
X49945000Y-81571000D01*
X49925315Y-81638039D01*
X49872511Y-81683794D01*
X49821000Y-81695000D01*
X47995000Y-81695000D01*
X47995000Y-81792844D01*
X48001401Y-81852372D01*
X48001403Y-81852379D01*
X48051645Y-81987086D01*
X48051649Y-81987093D01*
X48133492Y-82096420D01*
X48157910Y-82161884D01*
X48143059Y-82230157D01*
X48093654Y-82279563D01*
X48036328Y-82294713D01*
X47377319Y-82305883D01*
X47377307Y-82305884D01*
X47377306Y-82305884D01*
X46885786Y-82314215D01*
X46885786Y-82805810D01*
X46885786Y-84206089D01*
X46884725Y-84222275D01*
X46870879Y-84327439D01*
X46862501Y-84358706D01*
X46825045Y-84449133D01*
X46808860Y-84477166D01*
X46749277Y-84554816D01*
X46726387Y-84577706D01*
X46648737Y-84637289D01*
X46620704Y-84653474D01*
X46530277Y-84690930D01*
X46499010Y-84699308D01*
X46405184Y-84711661D01*
X46393844Y-84713154D01*
X46377660Y-84714215D01*
X41985786Y-84714215D01*
X29493912Y-84714215D01*
X29477727Y-84713154D01*
X29464703Y-84711439D01*
X29372561Y-84699308D01*
X29341294Y-84690930D01*
X29250867Y-84653474D01*
X29222834Y-84637289D01*
X29145184Y-84577706D01*
X29122294Y-84554816D01*
X29062711Y-84477166D01*
X29046526Y-84449133D01*
X29009070Y-84358706D01*
X29000692Y-84327438D01*
X28986847Y-84222274D01*
X28985786Y-84206089D01*
X28985786Y-81792844D01*
X30310000Y-81792844D01*
X30316401Y-81852372D01*
X30316403Y-81852379D01*
X30366645Y-81987086D01*
X30366649Y-81987093D01*
X30452809Y-82102187D01*
X30452812Y-82102190D01*
X30567906Y-82188350D01*
X30567913Y-82188354D01*
X30702620Y-82238596D01*
X30702627Y-82238598D01*
X30762155Y-82244999D01*
X30762172Y-82245000D01*
X30860000Y-82245000D01*
X30860000Y-81695000D01*
X30310000Y-81695000D01*
X30310000Y-81792844D01*
X28985786Y-81792844D01*
X28985786Y-80935756D01*
X31110000Y-80935756D01*
X31110000Y-81054244D01*
X31140667Y-81168694D01*
X31199910Y-81271306D01*
X31283694Y-81355090D01*
X31386306Y-81414333D01*
X31500756Y-81445000D01*
X31619244Y-81445000D01*
X31733694Y-81414333D01*
X31836306Y-81355090D01*
X31920090Y-81271306D01*
X31979333Y-81168694D01*
X32010000Y-81054244D01*
X32010000Y-80935756D01*
X31979333Y-80821306D01*
X31920090Y-80718694D01*
X31836306Y-80634910D01*
X31733694Y-80575667D01*
X31619244Y-80545000D01*
X31500756Y-80545000D01*
X31386306Y-80575667D01*
X31283694Y-80634910D01*
X31199910Y-80718694D01*
X31140667Y-80821306D01*
X31110000Y-80935756D01*
X28985786Y-80935756D01*
X28985786Y-80197155D01*
X30310000Y-80197155D01*
X30310000Y-80295000D01*
X30860000Y-80295000D01*
X30860000Y-79745000D01*
X32260000Y-79745000D01*
X32260000Y-82245000D01*
X32357828Y-82245000D01*
X32357844Y-82244999D01*
X32417372Y-82238598D01*
X32417379Y-82238596D01*
X32454315Y-82224820D01*
X33860128Y-82224820D01*
X33882113Y-82230712D01*
X34099999Y-82249775D01*
X34100001Y-82249775D01*
X34317882Y-82230712D01*
X34317889Y-82230711D01*
X34339870Y-82224820D01*
X34100000Y-81984949D01*
X33860128Y-82224820D01*
X32454315Y-82224820D01*
X32552086Y-82188354D01*
X32552093Y-82188350D01*
X32667187Y-82102190D01*
X32667190Y-82102187D01*
X32753350Y-81987093D01*
X32753354Y-81987086D01*
X32803596Y-81852379D01*
X32803598Y-81852372D01*
X32809999Y-81792844D01*
X32810000Y-81792827D01*
X32810000Y-81533578D01*
X32778417Y-81501995D01*
X32744932Y-81440672D01*
X32749916Y-81370980D01*
X32778417Y-81326633D01*
X32827428Y-81277621D01*
X32827441Y-81277606D01*
X33110049Y-80994999D01*
X33050806Y-80935756D01*
X33650000Y-80935756D01*
X33650000Y-81054244D01*
X33680667Y-81168694D01*
X33739910Y-81271306D01*
X33823694Y-81355090D01*
X33926306Y-81414333D01*
X34040756Y-81445000D01*
X34159244Y-81445000D01*
X34273694Y-81414333D01*
X34376306Y-81355090D01*
X34460090Y-81271306D01*
X34519333Y-81168694D01*
X34550000Y-81054244D01*
X34550000Y-80935756D01*
X34519333Y-80821306D01*
X34460090Y-80718694D01*
X34376306Y-80634910D01*
X34273694Y-80575667D01*
X34159244Y-80545000D01*
X34040756Y-80545000D01*
X33926306Y-80575667D01*
X33823694Y-80634910D01*
X33739910Y-80718694D01*
X33680667Y-80821306D01*
X33650000Y-80935756D01*
X33050806Y-80935756D01*
X32827442Y-80712392D01*
X32827438Y-80712386D01*
X32778418Y-80663367D01*
X32744932Y-80602044D01*
X32749916Y-80532353D01*
X32778418Y-80488003D01*
X32809999Y-80456421D01*
X32810000Y-80456421D01*
X32810000Y-80197172D01*
X32809999Y-80197155D01*
X32803598Y-80137627D01*
X32803596Y-80137620D01*
X32753354Y-80002913D01*
X32753352Y-80002910D01*
X32679356Y-79904065D01*
X32654938Y-79838601D01*
X32669789Y-79770327D01*
X32719194Y-79720922D01*
X32787467Y-79706069D01*
X32789431Y-79706225D01*
X32830000Y-79709774D01*
X33047882Y-79690712D01*
X33047889Y-79690711D01*
X33069870Y-79684820D01*
X32830000Y-79444949D01*
X32570300Y-79704648D01*
X32534543Y-79757473D01*
X32501351Y-79773596D01*
X32498366Y-79776582D01*
X32437043Y-79810067D01*
X32367351Y-79805083D01*
X32323004Y-79776582D01*
X32291422Y-79745000D01*
X32260000Y-79745000D01*
X30860000Y-79745000D01*
X30762155Y-79745000D01*
X30702627Y-79751401D01*
X30702620Y-79751403D01*
X30567913Y-79801645D01*
X30567906Y-79801649D01*
X30452812Y-79887809D01*
X30452809Y-79887812D01*
X30366649Y-80002906D01*
X30366645Y-80002913D01*
X30316403Y-80137620D01*
X30316401Y-80137627D01*
X30310000Y-80197155D01*
X28985786Y-80197155D01*
X28985786Y-78454999D01*
X31575225Y-78454999D01*
X31575225Y-78455000D01*
X31594287Y-78672884D01*
X31594289Y-78672894D01*
X31600177Y-78694870D01*
X31840049Y-78454999D01*
X31780806Y-78395756D01*
X32380000Y-78395756D01*
X32380000Y-78514244D01*
X32410667Y-78628694D01*
X32469910Y-78731306D01*
X32553694Y-78815090D01*
X32656306Y-78874333D01*
X32770756Y-78905000D01*
X32889244Y-78905000D01*
X33003694Y-78874333D01*
X33106306Y-78815090D01*
X33190090Y-78731306D01*
X33249333Y-78628694D01*
X33280000Y-78514244D01*
X33280000Y-78395756D01*
X33249333Y-78281306D01*
X33190090Y-78178694D01*
X33106306Y-78094910D01*
X33003694Y-78035667D01*
X32889244Y-78005000D01*
X32770756Y-78005000D01*
X32656306Y-78035667D01*
X32553694Y-78094910D01*
X32469910Y-78178694D01*
X32410667Y-78281306D01*
X32380000Y-78395756D01*
X31780806Y-78395756D01*
X31600178Y-78215128D01*
X31600177Y-78215128D01*
X31594290Y-78237100D01*
X31594287Y-78237116D01*
X31575225Y-78454999D01*
X28985786Y-78454999D01*
X28985786Y-77225177D01*
X32590128Y-77225177D01*
X32590128Y-77225178D01*
X32829999Y-77465049D01*
X33069870Y-77225177D01*
X33047894Y-77219289D01*
X33047884Y-77219287D01*
X32830001Y-77200225D01*
X32829999Y-77200225D01*
X32612116Y-77219287D01*
X32612100Y-77219290D01*
X32590128Y-77225177D01*
X28985786Y-77225177D01*
X28985786Y-76822340D01*
X28986847Y-76806155D01*
X29000692Y-76700991D01*
X29009070Y-76669723D01*
X29012745Y-76660851D01*
X29046526Y-76579294D01*
X29062709Y-76551265D01*
X29122299Y-76473607D01*
X29145178Y-76450728D01*
X29222836Y-76391138D01*
X29250865Y-76374955D01*
X29341295Y-76337498D01*
X29372561Y-76329121D01*
X29477727Y-76315276D01*
X29493912Y-76314215D01*
X33593189Y-76314215D01*
X33612152Y-76315674D01*
X33734988Y-76334695D01*
X33771151Y-76346171D01*
X33873821Y-76397153D01*
X33904827Y-76419034D01*
X33987263Y-76498677D01*
X34010200Y-76528912D01*
X34064689Y-76629760D01*
X34077408Y-76665517D01*
X34100649Y-76787611D01*
X34102762Y-76806525D01*
X34141784Y-77938204D01*
X34141785Y-77938207D01*
X34148284Y-78126663D01*
X34145716Y-78129231D01*
X34105969Y-78180329D01*
X34088453Y-78186495D01*
X33819949Y-78454999D01*
X34072843Y-78707893D01*
X34086090Y-78708208D01*
X34143953Y-78747370D01*
X34160492Y-78785989D01*
X34162348Y-78785183D01*
X34171736Y-78806788D01*
X34176238Y-78937334D01*
X34176237Y-78937338D01*
X34178074Y-78990576D01*
X34185786Y-79214215D01*
X34357681Y-79357461D01*
X34357685Y-79357465D01*
X34655771Y-79605870D01*
X34694670Y-79663909D01*
X34696016Y-79733766D01*
X34659381Y-79793261D01*
X34596396Y-79823504D01*
X34533976Y-79817650D01*
X34529161Y-79815897D01*
X34317894Y-79759289D01*
X34317884Y-79759287D01*
X34100001Y-79740225D01*
X34099999Y-79740225D01*
X33882116Y-79759287D01*
X33882100Y-79759290D01*
X33860128Y-79765177D01*
X33860128Y-79765178D01*
X34388562Y-80293613D01*
X35336848Y-81241899D01*
X35319607Y-81603969D01*
X35319606Y-81603971D01*
X35310727Y-81790431D01*
X35310727Y-81790436D01*
X35285786Y-82314215D01*
X40485779Y-82314215D01*
X40485786Y-82314215D01*
X40985786Y-82314215D01*
X40985786Y-80935756D01*
X48795000Y-80935756D01*
X48795000Y-81054244D01*
X48825667Y-81168694D01*
X48884910Y-81271306D01*
X48968694Y-81355090D01*
X49071306Y-81414333D01*
X49185756Y-81445000D01*
X49304244Y-81445000D01*
X49418694Y-81414333D01*
X49521306Y-81355090D01*
X49605090Y-81271306D01*
X49664333Y-81168694D01*
X49695000Y-81054244D01*
X49695000Y-80935756D01*
X49664333Y-80821306D01*
X49605090Y-80718694D01*
X49521306Y-80634910D01*
X49418694Y-80575667D01*
X49304244Y-80545000D01*
X49185756Y-80545000D01*
X49071306Y-80575667D01*
X48968694Y-80634910D01*
X48884910Y-80718694D01*
X48825667Y-80821306D01*
X48795000Y-80935756D01*
X40985786Y-80935756D01*
X40985786Y-80822340D01*
X40986847Y-80806155D01*
X41000692Y-80700991D01*
X41009070Y-80669723D01*
X41030072Y-80619019D01*
X41046526Y-80579294D01*
X41062709Y-80551265D01*
X41122299Y-80473607D01*
X41145178Y-80450728D01*
X41222836Y-80391138D01*
X41250865Y-80374955D01*
X41341295Y-80337498D01*
X41372561Y-80329121D01*
X41477727Y-80315276D01*
X41493912Y-80314215D01*
X41904642Y-80314215D01*
X41904647Y-80314215D01*
X41985786Y-80314215D01*
X42062757Y-80288557D01*
X42062761Y-80288557D01*
X42336967Y-80197155D01*
X47995000Y-80197155D01*
X47995000Y-80295000D01*
X48545000Y-80295000D01*
X48545000Y-79745000D01*
X48447155Y-79745000D01*
X48387627Y-79751401D01*
X48387620Y-79751403D01*
X48252913Y-79801645D01*
X48252906Y-79801649D01*
X48137812Y-79887809D01*
X48137809Y-79887812D01*
X48051649Y-80002906D01*
X48051645Y-80002913D01*
X48001403Y-80137620D01*
X48001401Y-80137627D01*
X47995000Y-80197155D01*
X42336967Y-80197155D01*
X44643900Y-79428177D01*
X44985786Y-79314215D01*
X44985786Y-78454999D01*
X49260225Y-78454999D01*
X49260225Y-78455000D01*
X49279287Y-78672884D01*
X49279289Y-78672894D01*
X49285177Y-78694870D01*
X49525049Y-78454999D01*
X49465806Y-78395756D01*
X50065000Y-78395756D01*
X50065000Y-78514244D01*
X50095667Y-78628694D01*
X50154910Y-78731306D01*
X50238694Y-78815090D01*
X50341306Y-78874333D01*
X50455756Y-78905000D01*
X50574244Y-78905000D01*
X50688694Y-78874333D01*
X50791306Y-78815090D01*
X50875090Y-78731306D01*
X50934333Y-78628694D01*
X50965000Y-78514244D01*
X50965000Y-78395756D01*
X50934333Y-78281306D01*
X50875090Y-78178694D01*
X50791306Y-78094910D01*
X50688694Y-78035667D01*
X50574244Y-78005000D01*
X50455756Y-78005000D01*
X50341306Y-78035667D01*
X50238694Y-78094910D01*
X50154910Y-78178694D01*
X50095667Y-78281306D01*
X50065000Y-78395756D01*
X49465806Y-78395756D01*
X49285178Y-78215128D01*
X49285177Y-78215128D01*
X49279290Y-78237100D01*
X49279287Y-78237116D01*
X49260225Y-78454999D01*
X44985786Y-78454999D01*
X44985786Y-77225177D01*
X50275128Y-77225177D01*
X50275128Y-77225178D01*
X50514999Y-77465049D01*
X50754870Y-77225177D01*
X50732894Y-77219289D01*
X50732884Y-77219287D01*
X50515001Y-77200225D01*
X50514999Y-77200225D01*
X50297116Y-77219287D01*
X50297100Y-77219290D01*
X50275128Y-77225177D01*
X44985786Y-77225177D01*
X44985786Y-64490878D01*
X44987387Y-64471016D01*
X45003118Y-64374073D01*
X45008221Y-64342626D01*
X45020782Y-64304945D01*
X45081148Y-64189734D01*
X45091784Y-64172884D01*
X47902411Y-60425382D01*
X47902411Y-60425381D01*
X47902414Y-60425377D01*
X47902414Y-60425376D01*
X47902413Y-60425376D01*
X47985786Y-60314215D01*
X47991301Y-60259987D01*
X78901096Y-60259987D01*
X78911589Y-60362698D01*
X78966736Y-60529120D01*
X78966738Y-60529125D01*
X79058779Y-60678346D01*
X79182749Y-60802316D01*
X79331976Y-60894360D01*
X79401094Y-60917263D01*
X79401095Y-60917263D01*
X79401095Y-59785001D01*
X78901096Y-59785001D01*
X78901096Y-60259987D01*
X47991301Y-60259987D01*
X48509434Y-55165014D01*
X78141095Y-55165014D01*
X78141095Y-55465001D01*
X78641095Y-55465001D01*
X79841095Y-55465001D01*
X80341094Y-55465001D01*
X80341094Y-55165029D01*
X80341093Y-55165014D01*
X80330600Y-55062303D01*
X80275453Y-54895881D01*
X80275451Y-54895876D01*
X80183410Y-54746655D01*
X80059440Y-54622685D01*
X79910215Y-54530642D01*
X79841095Y-54507738D01*
X79841095Y-55465001D01*
X78641095Y-55465001D01*
X78641095Y-54507738D01*
X78571974Y-54530642D01*
X78422749Y-54622685D01*
X78298779Y-54746655D01*
X78206738Y-54895876D01*
X78206736Y-54895881D01*
X78151589Y-55062303D01*
X78151588Y-55062310D01*
X78141095Y-55165014D01*
X48509434Y-55165014D01*
X48585786Y-54414215D01*
X48582243Y-54280478D01*
X48535621Y-52520538D01*
X48488445Y-50739621D01*
X48506348Y-50672085D01*
X48507364Y-50670438D01*
X48511575Y-50663737D01*
X48563720Y-50514715D01*
X48571152Y-50493477D01*
X48571155Y-50493464D01*
X48591351Y-50314218D01*
X48591351Y-50314211D01*
X48571155Y-50134965D01*
X48571154Y-50134960D01*
X48511575Y-49964693D01*
X48508367Y-49959588D01*
X48484058Y-49920901D01*
X48465096Y-49858218D01*
X48331823Y-44827156D01*
X50866571Y-44827156D01*
X50866571Y-46075001D01*
X52108099Y-46075001D01*
X52015477Y-46256781D01*
X51949813Y-46458875D01*
X51916571Y-46668754D01*
X51916571Y-46881248D01*
X51949813Y-47091127D01*
X52015477Y-47293221D01*
X52108099Y-47475001D01*
X50866571Y-47475001D01*
X50866571Y-48722845D01*
X50872972Y-48782373D01*
X50872974Y-48782380D01*
X50923216Y-48917087D01*
X50923220Y-48917094D01*
X51009380Y-49032188D01*
X51009383Y-49032191D01*
X51124477Y-49118351D01*
X51124484Y-49118355D01*
X51259191Y-49168597D01*
X51259198Y-49168599D01*
X51318726Y-49175000D01*
X51318743Y-49175001D01*
X52566571Y-49175001D01*
X52566571Y-47933472D01*
X52748351Y-48026095D01*
X52950445Y-48091759D01*
X53160324Y-48125001D01*
X53372818Y-48125001D01*
X53582697Y-48091759D01*
X53784791Y-48026095D01*
X53966571Y-47933472D01*
X53966571Y-49175001D01*
X55214399Y-49175001D01*
X55214415Y-49175000D01*
X55273943Y-49168599D01*
X55273950Y-49168597D01*
X55408657Y-49118355D01*
X55408664Y-49118351D01*
X55523758Y-49032191D01*
X55523761Y-49032188D01*
X55609921Y-48917094D01*
X55609925Y-48917087D01*
X55660167Y-48782380D01*
X55660169Y-48782373D01*
X55666570Y-48722845D01*
X55666571Y-48722828D01*
X55666571Y-47475001D01*
X54425043Y-47475001D01*
X54517665Y-47293221D01*
X54583329Y-47091127D01*
X54616571Y-46881248D01*
X54616571Y-46775001D01*
X55961135Y-46775001D01*
X55976846Y-47014715D01*
X55980858Y-47075919D01*
X55980859Y-47075931D01*
X56039689Y-47371684D01*
X56039693Y-47371699D01*
X56136624Y-47657248D01*
X56136633Y-47657269D01*
X56270002Y-47927714D01*
X56270006Y-47927721D01*
X56437544Y-48178460D01*
X56636381Y-48405190D01*
X56863111Y-48604027D01*
X57113850Y-48771565D01*
X57113857Y-48771569D01*
X57384302Y-48904938D01*
X57384307Y-48904940D01*
X57384319Y-48904946D01*
X57669880Y-49001881D01*
X57853603Y-49038426D01*
X57965640Y-49060712D01*
X57965641Y-49060712D01*
X57965651Y-49060714D01*
X58266571Y-49080437D01*
X58567491Y-49060714D01*
X58863262Y-49001881D01*
X59148823Y-48904946D01*
X59419289Y-48771567D01*
X59670032Y-48604026D01*
X59896760Y-48405190D01*
X60095596Y-48178462D01*
X60263137Y-47927719D01*
X60396516Y-47657253D01*
X60493451Y-47371692D01*
X60552284Y-47075921D01*
X60572007Y-46775001D01*
X60552284Y-46474081D01*
X60550226Y-46463737D01*
X60529825Y-46361172D01*
X60493451Y-46178310D01*
X60396516Y-45892749D01*
X60385779Y-45870977D01*
X60263139Y-45622287D01*
X60263135Y-45622280D01*
X60095597Y-45371541D01*
X59896760Y-45144811D01*
X59670030Y-44945974D01*
X59419291Y-44778436D01*
X59419284Y-44778432D01*
X59148839Y-44645063D01*
X59148818Y-44645054D01*
X58863269Y-44548123D01*
X58863263Y-44548121D01*
X58863262Y-44548121D01*
X58863260Y-44548120D01*
X58863254Y-44548119D01*
X58567501Y-44489289D01*
X58567492Y-44489288D01*
X58567491Y-44489288D01*
X58266571Y-44469565D01*
X57965651Y-44489288D01*
X57965650Y-44489288D01*
X57965640Y-44489289D01*
X57669887Y-44548119D01*
X57669872Y-44548123D01*
X57384323Y-44645054D01*
X57384302Y-44645063D01*
X57113857Y-44778432D01*
X57113850Y-44778436D01*
X56863111Y-44945974D01*
X56636381Y-45144811D01*
X56437544Y-45371541D01*
X56270006Y-45622280D01*
X56270002Y-45622287D01*
X56136633Y-45892732D01*
X56136624Y-45892753D01*
X56039693Y-46178302D01*
X56039689Y-46178317D01*
X55980859Y-46474070D01*
X55980858Y-46474080D01*
X55980858Y-46474081D01*
X55961135Y-46775001D01*
X54616571Y-46775001D01*
X54616571Y-46668754D01*
X54583329Y-46458875D01*
X54517665Y-46256781D01*
X54425043Y-46075001D01*
X55666571Y-46075001D01*
X55666571Y-44827173D01*
X55666570Y-44827156D01*
X55660169Y-44767628D01*
X55660167Y-44767621D01*
X55609925Y-44632914D01*
X55609921Y-44632907D01*
X55523761Y-44517813D01*
X55523758Y-44517810D01*
X55408664Y-44431650D01*
X55408657Y-44431646D01*
X55273950Y-44381404D01*
X55273943Y-44381402D01*
X55214415Y-44375001D01*
X53966571Y-44375001D01*
X53966571Y-45616529D01*
X53784791Y-45523907D01*
X53582697Y-45458243D01*
X53372818Y-45425001D01*
X53160324Y-45425001D01*
X52950445Y-45458243D01*
X52748351Y-45523907D01*
X52566571Y-45616529D01*
X52566571Y-44375001D01*
X51318726Y-44375001D01*
X51259198Y-44381402D01*
X51259191Y-44381404D01*
X51124484Y-44431646D01*
X51124477Y-44431650D01*
X51009383Y-44517810D01*
X51009380Y-44517813D01*
X50923220Y-44632907D01*
X50923216Y-44632914D01*
X50872974Y-44767621D01*
X50872972Y-44767628D01*
X50866571Y-44827156D01*
X48331823Y-44827156D01*
X48198680Y-39800975D01*
X48185786Y-39314215D01*
X47698858Y-39314215D01*
X40493912Y-39314215D01*
X40477727Y-39313154D01*
X40464703Y-39311439D01*
X40372561Y-39299308D01*
X40341294Y-39290930D01*
X40250867Y-39253474D01*
X40222834Y-39237289D01*
X40145184Y-39177706D01*
X40122294Y-39154816D01*
X40117431Y-39148479D01*
X40062711Y-39077166D01*
X40046526Y-39049133D01*
X40009070Y-38958706D01*
X40000692Y-38927438D01*
X39986847Y-38822274D01*
X39985786Y-38806089D01*
X39985786Y-35142844D01*
X40325000Y-35142844D01*
X40331401Y-35202372D01*
X40331403Y-35202379D01*
X40381645Y-35337086D01*
X40381649Y-35337093D01*
X40467809Y-35452187D01*
X40467812Y-35452190D01*
X40582906Y-35538350D01*
X40582913Y-35538354D01*
X40717620Y-35588596D01*
X40717627Y-35588598D01*
X40777155Y-35594999D01*
X40777172Y-35595000D01*
X42375000Y-35595000D01*
X43775000Y-35595000D01*
X45372828Y-35595000D01*
X45372844Y-35594999D01*
X45432372Y-35588598D01*
X45432379Y-35588596D01*
X45567086Y-35538354D01*
X45567093Y-35538350D01*
X45645397Y-35479731D01*
X50695000Y-35479731D01*
X50695000Y-35875000D01*
X52086528Y-35875000D01*
X51993906Y-36056780D01*
X51928242Y-36258874D01*
X51895000Y-36468753D01*
X51895000Y-36681247D01*
X51928242Y-36891126D01*
X51993906Y-37093220D01*
X52086528Y-37275000D01*
X50695000Y-37275000D01*
X50695000Y-37670268D01*
X50705215Y-37814958D01*
X50705217Y-37814968D01*
X50759313Y-38055165D01*
X50759315Y-38055172D01*
X50851244Y-38283585D01*
X50978620Y-38494289D01*
X50978627Y-38494299D01*
X51138153Y-38681846D01*
X51325700Y-38841372D01*
X51325710Y-38841379D01*
X51536414Y-38968755D01*
X51764827Y-39060684D01*
X51764834Y-39060686D01*
X52005031Y-39114782D01*
X52005041Y-39114784D01*
X52149731Y-39124999D01*
X52149734Y-39125000D01*
X52545000Y-39125000D01*
X52545000Y-37733471D01*
X52726780Y-37826094D01*
X52928874Y-37891758D01*
X53138753Y-37925000D01*
X53351247Y-37925000D01*
X53561126Y-37891758D01*
X53763220Y-37826094D01*
X53945000Y-37733471D01*
X53945000Y-39125000D01*
X54340266Y-39125000D01*
X54340268Y-39124999D01*
X54484958Y-39114784D01*
X54484968Y-39114782D01*
X54725165Y-39060686D01*
X54725172Y-39060684D01*
X54953585Y-38968755D01*
X55164289Y-38841379D01*
X55164299Y-38841372D01*
X55351846Y-38681846D01*
X55511372Y-38494299D01*
X55511379Y-38494289D01*
X55638755Y-38283585D01*
X55730684Y-38055172D01*
X55730686Y-38055165D01*
X55784782Y-37814968D01*
X55784784Y-37814958D01*
X55794999Y-37670268D01*
X55795000Y-37670266D01*
X55795000Y-37275000D01*
X54403472Y-37275000D01*
X54496094Y-37093220D01*
X54561758Y-36891126D01*
X54595000Y-36681247D01*
X54595000Y-36468753D01*
X54561758Y-36258874D01*
X54496094Y-36056780D01*
X54403472Y-35875000D01*
X55795000Y-35875000D01*
X55795000Y-35479734D01*
X55794999Y-35479731D01*
X55784784Y-35335041D01*
X55784782Y-35335031D01*
X55730686Y-35094834D01*
X55730684Y-35094827D01*
X55638755Y-34866414D01*
X55511379Y-34655710D01*
X55511372Y-34655700D01*
X55351846Y-34468153D01*
X55164299Y-34308627D01*
X55164289Y-34308620D01*
X54953585Y-34181244D01*
X54725172Y-34089315D01*
X54725165Y-34089313D01*
X54484968Y-34035217D01*
X54484958Y-34035215D01*
X54340268Y-34025000D01*
X53945000Y-34025000D01*
X53945000Y-35416528D01*
X53763220Y-35323906D01*
X53561126Y-35258242D01*
X53351247Y-35225000D01*
X53138753Y-35225000D01*
X52928874Y-35258242D01*
X52726780Y-35323906D01*
X52545000Y-35416528D01*
X52545000Y-34025000D01*
X52149731Y-34025000D01*
X52005041Y-34035215D01*
X52005031Y-34035217D01*
X51764834Y-34089313D01*
X51764827Y-34089315D01*
X51536414Y-34181244D01*
X51325710Y-34308620D01*
X51325700Y-34308627D01*
X51138153Y-34468153D01*
X50978627Y-34655700D01*
X50978620Y-34655710D01*
X50851244Y-34866414D01*
X50759315Y-35094827D01*
X50759313Y-35094834D01*
X50705217Y-35335031D01*
X50705215Y-35335041D01*
X50695000Y-35479731D01*
X45645397Y-35479731D01*
X45682187Y-35452190D01*
X45682190Y-35452187D01*
X45768350Y-35337093D01*
X45768354Y-35337086D01*
X45818596Y-35202379D01*
X45818598Y-35202372D01*
X45824999Y-35142844D01*
X45825000Y-35142827D01*
X45825000Y-34795000D01*
X43775000Y-34795000D01*
X43775000Y-35595000D01*
X42375000Y-35595000D01*
X42375000Y-34795000D01*
X40325000Y-34795000D01*
X40325000Y-35142844D01*
X39985786Y-35142844D01*
X39985786Y-34029174D01*
X41325000Y-34029174D01*
X41325000Y-34160826D01*
X41359075Y-34287993D01*
X41424901Y-34402007D01*
X41517993Y-34495099D01*
X41632007Y-34560925D01*
X41759174Y-34595000D01*
X44390826Y-34595000D01*
X44517993Y-34560925D01*
X44632007Y-34495099D01*
X44725099Y-34402007D01*
X44790925Y-34287993D01*
X44825000Y-34160826D01*
X44825000Y-34029174D01*
X44790925Y-33902007D01*
X44725099Y-33787993D01*
X44632007Y-33694901D01*
X44517993Y-33629075D01*
X44390826Y-33595000D01*
X41759174Y-33595000D01*
X41632007Y-33629075D01*
X41517993Y-33694901D01*
X41424901Y-33787993D01*
X41359075Y-33902007D01*
X41325000Y-34029174D01*
X39985786Y-34029174D01*
X39985786Y-33047155D01*
X40325000Y-33047155D01*
X40325000Y-33395000D01*
X42375000Y-33395000D01*
X43775000Y-33395000D01*
X45825000Y-33395000D01*
X45825000Y-33047172D01*
X45824999Y-33047155D01*
X45818598Y-32987627D01*
X45818596Y-32987620D01*
X45768354Y-32852913D01*
X45768350Y-32852906D01*
X45682190Y-32737812D01*
X45682187Y-32737809D01*
X45567093Y-32651649D01*
X45567086Y-32651645D01*
X45432379Y-32601403D01*
X45432372Y-32601401D01*
X45372844Y-32595000D01*
X43775000Y-32595000D01*
X43775000Y-33395000D01*
X42375000Y-33395000D01*
X42375000Y-32595000D01*
X40777155Y-32595000D01*
X40717627Y-32601401D01*
X40717620Y-32601403D01*
X40582913Y-32651645D01*
X40582906Y-32651649D01*
X40467812Y-32737809D01*
X40467809Y-32737812D01*
X40381649Y-32852906D01*
X40381645Y-32852913D01*
X40331403Y-32987620D01*
X40331401Y-32987627D01*
X40325000Y-33047155D01*
X39985786Y-33047155D01*
X39985786Y-32822340D01*
X39986847Y-32806155D01*
X39995845Y-32737812D01*
X40000692Y-32700990D01*
X40009070Y-32669723D01*
X40046526Y-32579294D01*
X40062709Y-32551265D01*
X40122299Y-32473607D01*
X40145178Y-32450728D01*
X40222836Y-32391138D01*
X40250865Y-32374955D01*
X40341295Y-32337498D01*
X40372561Y-32329121D01*
X40477727Y-32315276D01*
X40493912Y-32314215D01*
X45770553Y-32314215D01*
X45786738Y-32315276D01*
G37*
%TD.AperFunction*%
%TD*%
%TA.AperFunction,Conductor*%
%TO.N,Net-(U2-SW)*%
G36*
X94897757Y-50216596D02*
G01*
X94938132Y-50224627D01*
X94982829Y-50243142D01*
X95006699Y-50259092D01*
X95040908Y-50293301D01*
X95056858Y-50317171D01*
X95075374Y-50361870D01*
X95083403Y-50402235D01*
X95085786Y-50426425D01*
X95085786Y-52532860D01*
X95082468Y-52561351D01*
X95071395Y-52608254D01*
X95045915Y-52659215D01*
X95024542Y-52684825D01*
X94978958Y-52719013D01*
X94934793Y-52738296D01*
X94907361Y-52746655D01*
X94572409Y-52807556D01*
X94145664Y-52885146D01*
X93985786Y-52914215D01*
X93981511Y-53076658D01*
X93981511Y-53076662D01*
X93939565Y-54670595D01*
X93936611Y-54694430D01*
X93927720Y-54734133D01*
X93908475Y-54777897D01*
X93892253Y-54801192D01*
X93857876Y-54834426D01*
X93821179Y-54858180D01*
X93811051Y-54864077D01*
X93810795Y-54864209D01*
X93810786Y-54864215D01*
X93685786Y-54914215D01*
X93685786Y-55048843D01*
X93685786Y-56602004D01*
X93683403Y-56626197D01*
X93675374Y-56666559D01*
X93656858Y-56711258D01*
X93640908Y-56735128D01*
X93606699Y-56769337D01*
X93582829Y-56785287D01*
X93538130Y-56803803D01*
X93521627Y-56807085D01*
X93497764Y-56811832D01*
X93473575Y-56814215D01*
X93197997Y-56814215D01*
X93173806Y-56811832D01*
X93158530Y-56808793D01*
X93133442Y-56803803D01*
X93088742Y-56785287D01*
X93064872Y-56769337D01*
X93030663Y-56735128D01*
X93014713Y-56711258D01*
X92996196Y-56666552D01*
X92993976Y-56655389D01*
X92991594Y-56631203D01*
X92991594Y-55499161D01*
X92988740Y-55468733D01*
X92988642Y-55468282D01*
X92985786Y-55441822D01*
X92985786Y-55027454D01*
X92985786Y-55027453D01*
X92985786Y-54914215D01*
X92888685Y-54855954D01*
X92888684Y-54855953D01*
X92843255Y-54828696D01*
X92818864Y-54809538D01*
X92782388Y-54772632D01*
X92751340Y-54719481D01*
X92737110Y-54669592D01*
X92732399Y-54638934D01*
X92690173Y-53076538D01*
X92685786Y-52914215D01*
X92526023Y-52885167D01*
X92526021Y-52885166D01*
X92291365Y-52842501D01*
X92215617Y-52828729D01*
X91764209Y-52746655D01*
X91736778Y-52738296D01*
X91692611Y-52719012D01*
X91647029Y-52684825D01*
X91625656Y-52659215D01*
X91600175Y-52608252D01*
X91589103Y-52561349D01*
X91585786Y-52532860D01*
X91585786Y-50426425D01*
X91588167Y-50402244D01*
X91596198Y-50361866D01*
X91614713Y-50317171D01*
X91630663Y-50293301D01*
X91664872Y-50259092D01*
X91688742Y-50243142D01*
X91733439Y-50224627D01*
X91773813Y-50216596D01*
X91797997Y-50214215D01*
X94873575Y-50214215D01*
X94897757Y-50216596D01*
G37*
%TD.AperFunction*%
%TD*%
%TA.AperFunction,Conductor*%
%TO.N,Net-(Q1-S)*%
G36*
X115075847Y-52207853D02*
G01*
X115107190Y-52212868D01*
X115158040Y-52227879D01*
X115211930Y-52260461D01*
X115237323Y-52286635D01*
X115268259Y-52341488D01*
X115281721Y-52392765D01*
X115285786Y-52424250D01*
X115285786Y-52814215D01*
X115285786Y-55014215D01*
X118429433Y-55014215D01*
X118443317Y-55014995D01*
X118485784Y-55019780D01*
X118485786Y-55019780D01*
X118485788Y-55019780D01*
X118528255Y-55014995D01*
X118542139Y-55014215D01*
X118873575Y-55014215D01*
X118897757Y-55016596D01*
X118938132Y-55024627D01*
X118982829Y-55043142D01*
X119006699Y-55059092D01*
X119040908Y-55093301D01*
X119056858Y-55117171D01*
X119075374Y-55161870D01*
X119083403Y-55202237D01*
X119085786Y-55226425D01*
X119085786Y-62202004D01*
X119083403Y-62226197D01*
X119075374Y-62266559D01*
X119056858Y-62311258D01*
X119040908Y-62335128D01*
X119006699Y-62369337D01*
X118982829Y-62385287D01*
X118938130Y-62403803D01*
X118921627Y-62407085D01*
X118897764Y-62411832D01*
X118873575Y-62414215D01*
X116050053Y-62414215D01*
X116023550Y-62411349D01*
X115994271Y-62404943D01*
X115979625Y-62401738D01*
X115931461Y-62379600D01*
X115906521Y-62360788D01*
X115872002Y-62320557D01*
X115850694Y-62280965D01*
X115840658Y-62256268D01*
X115727231Y-61859272D01*
X115727231Y-61859271D01*
X115727230Y-61859269D01*
X115685786Y-61714215D01*
X115534926Y-61714215D01*
X115534922Y-61714215D01*
X113097997Y-61714215D01*
X113073806Y-61711832D01*
X113058530Y-61708793D01*
X113033442Y-61703803D01*
X112988742Y-61685287D01*
X112964872Y-61669337D01*
X112930663Y-61635128D01*
X112914713Y-61611258D01*
X112896198Y-61566561D01*
X112888167Y-61526186D01*
X112885786Y-61502004D01*
X112885786Y-60190877D01*
X112887387Y-60171018D01*
X112892825Y-60137501D01*
X112905385Y-60099817D01*
X112921153Y-60069722D01*
X112931776Y-60052894D01*
X113142664Y-59771710D01*
X113155013Y-59757609D01*
X113177858Y-59735194D01*
X113208192Y-59713329D01*
X113236691Y-59698740D01*
X113253969Y-59691487D01*
X113298484Y-59676649D01*
X113485786Y-59614215D01*
X113578404Y-55014215D01*
X113631270Y-52388516D01*
X113652299Y-52321890D01*
X113666966Y-52303936D01*
X113719493Y-52250691D01*
X113734120Y-52238016D01*
X113743022Y-52231446D01*
X113775698Y-52214180D01*
X113782049Y-52211958D01*
X113822998Y-52205001D01*
X114861780Y-52205001D01*
X114861786Y-52205001D01*
X114879688Y-52203076D01*
X114896669Y-52202423D01*
X115075847Y-52207853D01*
G37*
%TD.AperFunction*%
%TD*%
%TA.AperFunction,Conductor*%
%TO.N,+3V3*%
G36*
X92862496Y-30986139D02*
G01*
X95373439Y-31012026D01*
X95397612Y-31014659D01*
X95421418Y-31019651D01*
X95437916Y-31023111D01*
X95482439Y-31042102D01*
X95506149Y-31058310D01*
X95540005Y-31092897D01*
X95555703Y-31116946D01*
X95573741Y-31161860D01*
X95581333Y-31202327D01*
X95583452Y-31226555D01*
X95536917Y-35461287D01*
X95533880Y-35487229D01*
X95524172Y-35530234D01*
X95502377Y-35577381D01*
X95475903Y-35612641D01*
X95458108Y-35631760D01*
X94452662Y-36506061D01*
X94452660Y-36506063D01*
X94385786Y-36564215D01*
X94383940Y-36652813D01*
X94383940Y-36652814D01*
X94383940Y-36652821D01*
X94316106Y-39908780D01*
X94310796Y-39942185D01*
X94304181Y-39963995D01*
X94288532Y-40042671D01*
X94284139Y-40072293D01*
X94284134Y-40072334D01*
X94281757Y-40096471D01*
X94281757Y-40096476D01*
X94281756Y-40096488D01*
X94280286Y-40126425D01*
X94280286Y-40126436D01*
X94280286Y-41626927D01*
X94280259Y-41629510D01*
X94238420Y-43637736D01*
X94238420Y-43637739D01*
X94238420Y-43637743D01*
X94235786Y-43764215D01*
X95009785Y-44151214D01*
X95037976Y-44170585D01*
X95079915Y-44208913D01*
X95115542Y-44266560D01*
X95131066Y-44321207D01*
X95135786Y-44355092D01*
X95135786Y-46652004D01*
X95133403Y-46676197D01*
X95125374Y-46716559D01*
X95106858Y-46761258D01*
X95090908Y-46785128D01*
X95056699Y-46819337D01*
X95032829Y-46835287D01*
X94988130Y-46853803D01*
X94971627Y-46857085D01*
X94947764Y-46861832D01*
X94923575Y-46864215D01*
X94087540Y-46864215D01*
X94087123Y-46864214D01*
X94086455Y-46864211D01*
X94086110Y-46864210D01*
X94085259Y-46864203D01*
X94084572Y-46864195D01*
X94084137Y-46864189D01*
X92909245Y-46846387D01*
X91002147Y-46817492D01*
X90977702Y-46814679D01*
X90936993Y-46805832D01*
X90892120Y-46786178D01*
X90868344Y-46769501D01*
X90834587Y-46734006D01*
X90819123Y-46709419D01*
X90801748Y-46663620D01*
X90794955Y-46622513D01*
X90793373Y-46597962D01*
X90885663Y-43967721D01*
X90885663Y-43967719D01*
X90885786Y-43964215D01*
X90885786Y-43864215D01*
X90885786Y-43714215D01*
X90839199Y-39963995D01*
X90785788Y-35664393D01*
X90785786Y-35664214D01*
X90785786Y-35664215D01*
X90738090Y-31180803D01*
X90740273Y-31156292D01*
X90748081Y-31115325D01*
X90766592Y-31069946D01*
X90782671Y-31045737D01*
X90817323Y-31011074D01*
X90841526Y-30994987D01*
X90886904Y-30976459D01*
X90927858Y-30968639D01*
X90952381Y-30966447D01*
X92862496Y-30986139D01*
G37*
%TD.AperFunction*%
%TD*%
%TA.AperFunction,Conductor*%
%TO.N,GND*%
G36*
X112897757Y-53216596D02*
G01*
X112938132Y-53224627D01*
X112982829Y-53243142D01*
X113006699Y-53259092D01*
X113040908Y-53293301D01*
X113056858Y-53317171D01*
X113075374Y-53361870D01*
X113083403Y-53402235D01*
X113085786Y-53426425D01*
X113085786Y-59202004D01*
X113083403Y-59226197D01*
X113075374Y-59266559D01*
X113056858Y-59311258D01*
X113040908Y-59335128D01*
X113006699Y-59369337D01*
X112982829Y-59385287D01*
X112938130Y-59403803D01*
X112921627Y-59407085D01*
X112897764Y-59411832D01*
X112873575Y-59414215D01*
X107697997Y-59414215D01*
X107673806Y-59411832D01*
X107658530Y-59408793D01*
X107633442Y-59403803D01*
X107588742Y-59385287D01*
X107564872Y-59369337D01*
X107530663Y-59335128D01*
X107514713Y-59311258D01*
X107496198Y-59266561D01*
X107488167Y-59226186D01*
X107485786Y-59202004D01*
X107485786Y-53426425D01*
X107488167Y-53402244D01*
X107496198Y-53361866D01*
X107514713Y-53317171D01*
X107530663Y-53293301D01*
X107564872Y-53259092D01*
X107588742Y-53243142D01*
X107633439Y-53224627D01*
X107673813Y-53216596D01*
X107697997Y-53214215D01*
X112873575Y-53214215D01*
X112897757Y-53216596D01*
G37*
%TD.AperFunction*%
%TD*%
%TA.AperFunction,Conductor*%
%TO.N,GND*%
G36*
X111897757Y-39916596D02*
G01*
X111938132Y-39924627D01*
X111982829Y-39943142D01*
X112006699Y-39959092D01*
X112040908Y-39993301D01*
X112056858Y-40017171D01*
X112075374Y-40061870D01*
X112083403Y-40102237D01*
X112085786Y-40126425D01*
X112085786Y-43802004D01*
X112083403Y-43826197D01*
X112075374Y-43866559D01*
X112056858Y-43911258D01*
X112040908Y-43935128D01*
X112006699Y-43969337D01*
X111982829Y-43985287D01*
X111938130Y-44003803D01*
X111921627Y-44007085D01*
X111897764Y-44011832D01*
X111873575Y-44014215D01*
X109103127Y-44014215D01*
X109078565Y-44011758D01*
X109037622Y-44003484D01*
X108992353Y-43984408D01*
X108979578Y-43975702D01*
X108968295Y-43968013D01*
X108933988Y-43932860D01*
X108920025Y-43911258D01*
X108918181Y-43908404D01*
X108900216Y-43862685D01*
X108892941Y-43821547D01*
X108891085Y-43796940D01*
X108980635Y-40125400D01*
X108985500Y-40093905D01*
X108994786Y-40061870D01*
X109000311Y-40042806D01*
X109032804Y-39988584D01*
X109058988Y-39963031D01*
X109113984Y-39931871D01*
X109165428Y-39918310D01*
X109197035Y-39914215D01*
X111873575Y-39914215D01*
X111897757Y-39916596D01*
G37*
%TD.AperFunction*%
%TD*%
%TA.AperFunction,Conductor*%
%TO.N,+5V*%
G36*
X109797757Y-31116596D02*
G01*
X109838132Y-31124627D01*
X109882829Y-31143142D01*
X109906699Y-31159092D01*
X109940908Y-31193301D01*
X109956858Y-31217171D01*
X109975374Y-31261870D01*
X109983403Y-31302235D01*
X109985786Y-31326425D01*
X109985786Y-35210945D01*
X109983019Y-35236994D01*
X109973732Y-35280216D01*
X109952335Y-35327712D01*
X109926113Y-35363308D01*
X109908436Y-35382638D01*
X108685786Y-36464215D01*
X108684128Y-36552037D01*
X108684128Y-36552042D01*
X108585821Y-41762349D01*
X108585786Y-41764215D01*
X108585786Y-41766173D01*
X108585786Y-43783471D01*
X108585749Y-43786501D01*
X108585676Y-43789487D01*
X108585746Y-43792244D01*
X108585786Y-43795392D01*
X108585786Y-44164215D01*
X108728338Y-44164215D01*
X108741782Y-44173316D01*
X108749664Y-44181392D01*
X108796247Y-44220460D01*
X108796253Y-44220465D01*
X108848503Y-44256071D01*
X108864336Y-44260825D01*
X108873715Y-44265931D01*
X108873720Y-44265933D01*
X108918989Y-44285009D01*
X108977108Y-44302931D01*
X108977109Y-44302931D01*
X108977115Y-44302933D01*
X109001332Y-44307826D01*
X109018051Y-44311205D01*
X109018059Y-44311206D01*
X109018063Y-44311207D01*
X109025079Y-44312263D01*
X109048157Y-44315741D01*
X109070672Y-44317993D01*
X109072718Y-44318198D01*
X109101803Y-44319648D01*
X109103127Y-44319715D01*
X109103146Y-44319715D01*
X109516670Y-44319715D01*
X109583709Y-44339400D01*
X109629464Y-44392204D01*
X109640651Y-44441540D01*
X109681904Y-46793010D01*
X109679827Y-46817887D01*
X109672097Y-46859395D01*
X109653405Y-46905419D01*
X109637099Y-46929907D01*
X109601843Y-46964902D01*
X109577236Y-46981024D01*
X109531073Y-46999373D01*
X109489506Y-47006794D01*
X109464614Y-47008685D01*
X107364478Y-46956182D01*
X105838815Y-46918040D01*
X105813774Y-46914843D01*
X105772187Y-46905149D01*
X105726584Y-46884068D01*
X105702683Y-46866383D01*
X105669188Y-46828937D01*
X105647760Y-46792008D01*
X105637379Y-46768993D01*
X105597312Y-46648792D01*
X105594606Y-46639473D01*
X105590577Y-46623249D01*
X105587388Y-46604103D01*
X105585942Y-46587463D01*
X105585480Y-46577770D01*
X105567528Y-44441540D01*
X105485793Y-34715055D01*
X105485788Y-34714215D01*
X105485786Y-34713375D01*
X105485786Y-31326425D01*
X105488167Y-31302244D01*
X105496198Y-31261866D01*
X105514713Y-31217171D01*
X105530663Y-31193301D01*
X105564872Y-31159092D01*
X105588742Y-31143142D01*
X105633439Y-31124627D01*
X105673813Y-31116596D01*
X105697997Y-31114215D01*
X109773575Y-31114215D01*
X109797757Y-31116596D01*
G37*
%TD.AperFunction*%
%TD*%
%TA.AperFunction,Conductor*%
%TO.N,GND*%
G36*
X115956610Y-47134400D02*
G01*
X116002365Y-47187204D01*
X116013571Y-47238715D01*
X116013571Y-49640215D01*
X115993886Y-49707254D01*
X115941082Y-49753009D01*
X115889571Y-49764215D01*
X115185786Y-49764215D01*
X115185786Y-49939215D01*
X115185786Y-49939216D01*
X115185786Y-50107807D01*
X115185774Y-50109533D01*
X115185733Y-50112479D01*
X115185638Y-50115915D01*
X115185512Y-50118939D01*
X115185428Y-50120655D01*
X115147576Y-50801998D01*
X115143849Y-50826045D01*
X115133574Y-50865943D01*
X115112569Y-50909581D01*
X115104834Y-50919859D01*
X115048794Y-50961588D01*
X114979090Y-50966395D01*
X114964805Y-50962338D01*
X114936274Y-50952355D01*
X114936270Y-50952354D01*
X114905841Y-50949501D01*
X114905837Y-50949501D01*
X114006832Y-50949501D01*
X113999758Y-50949299D01*
X113585023Y-50925599D01*
X113554850Y-50920075D01*
X113505883Y-50904654D01*
X113454082Y-50872673D01*
X113429452Y-50847256D01*
X113399118Y-50794480D01*
X113385242Y-50745044D01*
X113380670Y-50714723D01*
X113291624Y-47241892D01*
X113309583Y-47174371D01*
X113361197Y-47127278D01*
X113415583Y-47114715D01*
X115889571Y-47114715D01*
X115956610Y-47134400D01*
G37*
%TD.AperFunction*%
%TD*%
%TA.AperFunction,Conductor*%
%TO.N,GND*%
G36*
X94925716Y-55022860D02*
G01*
X94935793Y-55026833D01*
X94939530Y-55028307D01*
X95027992Y-55038930D01*
X95027997Y-55038930D01*
X95789191Y-55038930D01*
X95789196Y-55038930D01*
X95877658Y-55028307D01*
X95886990Y-55024627D01*
X95891472Y-55022860D01*
X95936960Y-55014215D01*
X97061286Y-55014215D01*
X97128325Y-55033900D01*
X97174080Y-55086704D01*
X97185286Y-55138215D01*
X97185286Y-57414117D01*
X97165601Y-57481156D01*
X97148967Y-57501798D01*
X97146135Y-57504628D01*
X94885786Y-57414215D01*
X94885786Y-57440685D01*
X94691666Y-57434976D01*
X94691665Y-57434975D01*
X94683792Y-57433723D01*
X94683994Y-57432447D01*
X94661534Y-57428282D01*
X94653976Y-57425637D01*
X94525793Y-57380784D01*
X94525792Y-57380783D01*
X94525790Y-57380783D01*
X94495364Y-57377930D01*
X94495360Y-57377930D01*
X94122904Y-57377930D01*
X94055865Y-57358245D01*
X94010110Y-57305441D01*
X94002973Y-57285435D01*
X93989855Y-57235498D01*
X93985786Y-57203993D01*
X93985786Y-56676386D01*
X93987130Y-56658178D01*
X93987433Y-56656134D01*
X93987501Y-56655439D01*
X93989815Y-56631951D01*
X93991286Y-56602004D01*
X93991286Y-55198774D01*
X93993666Y-55174598D01*
X93996198Y-55161869D01*
X94014711Y-55117172D01*
X94030665Y-55093296D01*
X94064871Y-55059092D01*
X94088741Y-55043141D01*
X94133437Y-55024627D01*
X94173812Y-55016596D01*
X94197997Y-55014215D01*
X94880228Y-55014215D01*
X94925716Y-55022860D01*
G37*
%TD.AperFunction*%
%TD*%
%TA.AperFunction,Conductor*%
%TO.N,GND*%
G36*
X97146137Y-57504628D02*
G01*
X96946655Y-57704111D01*
X96885332Y-57737596D01*
X96858974Y-57740430D01*
X95008432Y-57740430D01*
X94941393Y-57720745D01*
X94895638Y-57667941D01*
X94888353Y-57642459D01*
X94887812Y-57642602D01*
X94885786Y-57634889D01*
X94885786Y-57414215D01*
X97146137Y-57504628D01*
G37*
%TD.AperFunction*%
%TD*%
M02*
