M48
; DRILL file {KiCad 8.0.5} date 2024-10-13T14:48:03-0400
; FORMAT={-:-/ absolute / metric / decimal}
; #@! TF.CreationDate,2024-10-13T14:48:03-04:00
; #@! TF.GenerationSoftware,Kicad,Pcbnew,8.0.5
; #@! TF.FileFunction,Plated,1,4,PTH
FMAT,2
METRIC
; #@! TA.AperFunction,Plated,PTH,ViaDrill
T1C0.300
; #@! TA.AperFunction,Plated,PTH,ViaDrill
T2C0.400
; #@! TA.AperFunction,Plated,PTH,ViaDrill
T3C0.500
; #@! TA.AperFunction,Plated,PTH,ComponentDrill
T4C0.600
; #@! TA.AperFunction,Plated,PTH,ViaDrill
T5C0.750
; #@! TA.AperFunction,Plated,PTH,ComponentDrill
T6C0.750
; #@! TA.AperFunction,Plated,PTH,ComponentDrill
T7C0.900
; #@! TA.AperFunction,Plated,PTH,ComponentDrill
T8C1.000
; #@! TA.AperFunction,Plated,PTH,ComponentDrill
T9C1.900
; #@! TA.AperFunction,Plated,PTH,ComponentDrill
T10C2.700
%
G90
G05
T1
X20.286Y-74.114
X22.586Y-30.314
X22.986Y-61.014
X23.186Y-35.914
X23.186Y-37.305
X23.386Y-45.205
X23.386Y-53.114
X23.386Y-68.814
X23.486Y-65.414
X24.086Y-67.514
X24.786Y-62.714
X27.786Y-69.714
X28.086Y-53.014
X28.125Y-61.014
X28.186Y-37.414
X28.225Y-45.314
X29.253Y-75.27
X29.386Y-53.414
X29.486Y-45.714
X29.486Y-60.914
X30.086Y-48.114
X30.586Y-37.414
X38.686Y-47.814
X38.986Y-76.214
X41.586Y-68.714
X41.586Y-72.914
X42.286Y-78.014
X42.686Y-70.114
X42.686Y-74.114
X43.386Y-53.414
X45.486Y-51.814
X45.686Y-47.714
X46.886Y-46.314
X47.586Y-52.714
X50.55Y-82.914
X51.186Y-84.714
X51.386Y-86.314
X52.886Y-83.014
X53.286Y-85.414
X54.686Y-83.114
X59.186Y-80.714
X60.221Y-78.072
X60.686Y-84.014
X64.986Y-83.114
X66.536Y-83.364
X67.986Y-84.514
X68.186Y-82.914
X68.286Y-85.814
X69.486Y-85.214
X77.392Y-78.445
X77.986Y-83.914
X85.986Y-83.114
X88.286Y-83.514
X88.286Y-85.814
X89.586Y-82.814
X90.086Y-85.114
X91.086Y-86.414
X94.575Y-80.35
X95.185Y-77.872
X95.886Y-83.714
X96.886Y-40.314
X96.886Y-41.314
X96.886Y-42.314
X96.886Y-43.314
X103.73Y-82.927
X105.186Y-83.314
X105.386Y-85.814
X106.286Y-82.814
X106.886Y-84.614
X107.486Y-86.214
X108.686Y-85.114
X112.144Y-80.96
X112.486Y-83.814
X112.755Y-78.756
T2
X21.05Y-34.314
X21.05Y-42.15
X21.05Y-50.05
X21.05Y-57.85
X21.05Y-65.95
X26.286Y-68.814
X27.786Y-70.914
X34.922Y-51.45
X35.986Y-69.714
X35.986Y-73.514
X36.258Y-59.343
X37.386Y-64.814
X45.286Y-49.814
X95.586Y-57.014
X95.686Y-55.814
X96.586Y-57.014
X96.686Y-55.814
X106.086Y-38.614
X106.186Y-41.314
X106.286Y-36.714
X106.286Y-43.314
X107.086Y-39.514
X107.986Y-37.314
X108.086Y-38.714
X108.686Y-57.014
X108.786Y-55.514
X108.886Y-54.114
X110.686Y-54.114
X110.686Y-55.814
X110.686Y-57.414
X110.686Y-58.814
X111.386Y-41.014
X111.386Y-42.214
X111.386Y-43.414
X113.886Y-47.814
X113.986Y-49.014
X115.286Y-49.014
X115.386Y-47.814
X115.786Y-56.414
X116.086Y-59.714
X117.086Y-57.914
X117.986Y-56.214
X118.086Y-59.714
T3
X16.886Y-75.814
X17.686Y-80.314
X19.486Y-29.514
X20.814Y-82.81
X22.886Y-49.314
X23.386Y-33.414
X25.086Y-47.514
X25.086Y-55.614
X25.386Y-83.014
X25.386Y-91.514
X25.686Y-29.414
X25.686Y-39.614
X25.686Y-87.914
X25.886Y-25.714
X26.178Y-22.387
X27.286Y-66.914
X28.086Y-47.714
X28.086Y-55.714
X29.391Y-21.864
X29.786Y-49.595
X30.016Y-64.618
X30.086Y-57.114
X30.186Y-32.114
X30.186Y-78.214
X30.286Y-39.914
X30.786Y-45.314
X31.286Y-66.714
X31.293Y-41.91
X31.586Y-92.314
X31.786Y-83.614
X31.886Y-28.214
X32.886Y-26.114
X33.086Y-60.914
X34.286Y-75.414
X34.789Y-21.602
X34.986Y-37.714
X34.986Y-64.614
X34.986Y-89.314
X35.086Y-67.114
X35.386Y-28.214
X35.628Y-26.009
X35.786Y-46.914
X37.086Y-83.414
X37.386Y-92.014
X37.686Y-37.714
X37.893Y-61.009
X39.636Y-49.814
X41.386Y-38.014
X41.786Y-75.814
X41.886Y-83.614
X41.886Y-60.61
X42.386Y-81.414
X42.986Y-64.814
X43.586Y-68.614
X43.686Y-30.914
X43.886Y-21.614
X44.086Y-56.914
X44.286Y-38.014
X44.886Y-92.314
X46.386Y-54.414
X46.586Y-57.414
X46.686Y-71.114
X46.686Y-73.514
X46.686Y-75.914
X46.686Y-80.514
X46.886Y-66.314
X46.986Y-40.314
X47.136Y-42.762
X47.486Y-37.914
X47.586Y-63.914
X47.786Y-50.314
X49.186Y-75.614
X49.386Y-48.914
X49.586Y-45.014
X49.586Y-61.614
X49.786Y-54.214
X49.786Y-58.314
X50.086Y-42.614
X50.186Y-40.214
X50.986Y-69.914
X51.086Y-66.414
X51.786Y-92.214
X51.886Y-75.314
X52.686Y-22.414
X53.486Y-89.414
X53.786Y-28.714
X54.986Y-65.614
X55.038Y-61.717
X55.686Y-75.314
X56.158Y-69.926
X56.286Y-54.414
X56.886Y-58.314
X57.586Y-92.414
X57.786Y-41.914
X59.486Y-75.214
X60.586Y-28.814
X60.807Y-22.574
X61.761Y-70.038
X62.486Y-65.414
X62.786Y-40.614
X62.798Y-61.717
X62.986Y-75.214
X63.474Y-53.585
X64.086Y-57.714
X64.122Y-91.968
X64.386Y-78.714
X64.47Y-45.106
X64.486Y-49.014
X64.886Y-76.514
X66.686Y-40.614
X67.505Y-69.702
X67.886Y-75.714
X68.086Y-45.214
X68.286Y-48.914
X68.586Y-22.614
X69.189Y-53.087
X69.382Y-61.661
X69.486Y-65.214
X70.086Y-57.514
X70.586Y-89.314
X70.93Y-91.968
X71.186Y-28.814
X73.086Y-48.114
X73.186Y-44.814
X73.686Y-75.214
X73.786Y-61.714
X74.02Y-52.377
X74.873Y-69.646
X74.886Y-64.814
X76.286Y-55.814
X76.386Y-29.214
X76.58Y-49.412
X76.686Y-58.814
X77.886Y-44.814
X78.786Y-62.214
X78.786Y-75.214
X79.017Y-22.667
X79.486Y-92.814
X81.086Y-63.614
X81.686Y-70.914
X81.886Y-67.314
X81.886Y-80.814
X82.186Y-44.914
X82.486Y-78.514
X83.086Y-41.514
X83.322Y-75.553
X83.686Y-32.514
X85.236Y-59.314
X85.736Y-52.464
X86.486Y-92.614
X86.686Y-57.814
X86.786Y-42.714
X86.886Y-63.614
X87.136Y-52.514
X87.225Y-60.353
X87.686Y-51.114
X87.736Y-49.764
X88.286Y-71.014
X88.486Y-89.614
X88.536Y-57.714
X88.736Y-52.564
X88.886Y-67.414
X88.986Y-49.764
X89.086Y-29.014
X90.436Y-57.714
X90.56Y-22.704
X91.586Y-41.114
X91.586Y-75.514
X91.686Y-43.014
X91.736Y-38.564
X91.786Y-64.614
X91.836Y-36.664
X93.486Y-38.464
X93.586Y-36.714
X94.286Y-92.514
X95.086Y-68.514
X96.322Y-62.599
X96.886Y-28.614
X97.286Y-66.214
X97.286Y-75.614
X98.286Y-72.014
X99.186Y-26.814
X99.586Y-78.514
X99.686Y-42.714
X100.973Y-55.37
X101.086Y-46.114
X101.186Y-49.714
X101.386Y-92.314
X101.586Y-75.514
X101.786Y-63.914
X101.986Y-59.414
X102.186Y-71.514
X103.252Y-42.52
X103.386Y-67.914
X105.086Y-22.514
X105.586Y-54.414
X105.686Y-89.914
X106.035Y-28.711
X106.893Y-70.345
X106.986Y-67.914
X107.386Y-73.314
X107.799Y-92.5
X111.186Y-27.914
X112.086Y-70.414
X112.486Y-73.114
X112.919Y-68.365
X113.386Y-38.514
X114.253Y-42.52
X114.355Y-92.696
X115.686Y-87.514
X116.886Y-21.514
X116.986Y-38.114
X117.186Y-67.914
X117.286Y-73.014
X117.286Y-78.914
X117.335Y-42.614
X117.386Y-70.514
X118.486Y-54.214
X120.486Y-58.314
X121.386Y-85.114
X121.886Y-45.014
X122.067Y-50.495
X123.293Y-78.867
X123.386Y-56.114
X123.517Y-67.362
X123.536Y-61.609
X123.586Y-72.814
X123.786Y-48.614
T5
X35.842Y-30.17
X117.635Y-25.663
X117.786Y-29.714
X121.186Y-40.414
T6
X121.247Y-31.355
X121.247Y-33.355
T7
X31.56Y-80.995
X32.83Y-78.455
X34.1Y-80.995
X35.37Y-78.455
X36.64Y-80.995
X37.91Y-78.455
X39.18Y-80.995
X40.45Y-78.455
X49.245Y-80.995
X50.515Y-78.455
X51.785Y-80.995
X53.055Y-78.455
X54.325Y-80.995
X55.595Y-78.455
X56.865Y-80.995
X58.135Y-78.455
X66.93Y-80.995
X68.2Y-78.455
X69.47Y-80.995
X70.74Y-78.455
X72.01Y-80.995
X73.28Y-78.455
X74.55Y-80.995
X75.82Y-78.455
X84.615Y-80.995
X85.885Y-78.455
X87.155Y-80.995
X88.425Y-78.455
X89.695Y-80.995
X90.965Y-78.455
X92.235Y-80.995
X93.505Y-78.455
X102.3Y-80.995
X103.57Y-78.455
X104.84Y-80.995
X106.11Y-78.455
X107.38Y-80.995
X108.65Y-78.455
X109.92Y-80.995
X111.19Y-78.455
T8
X20.297Y-76.475
X22.837Y-76.475
X25.377Y-76.475
X36.725Y-41.935
X36.725Y-44.475
X39.265Y-41.935
X39.265Y-44.475
X41.805Y-41.935
X41.805Y-44.475
X44.345Y-41.935
X44.345Y-44.475
X85.195Y-23.375
X96.195Y-23.375
X99.745Y-23.375
X110.745Y-23.375
X114.775Y-30.835
X114.775Y-33.375
T9
X88.195Y-33.375
X93.195Y-33.375
X102.745Y-33.375
X107.745Y-33.375
T10
X53.245Y-36.575
X53.267Y-46.775
X58.267Y-46.775
X60.445Y-36.575
X70.795Y-36.575
X77.995Y-36.575
T4
G00X50.095Y-30.025
M15
G01X50.095Y-31.125
M16
G05
G00X63.595Y-30.025
M15
G01X63.595Y-31.125
M16
G05
G00X67.645Y-30.025
M15
G01X67.645Y-31.125
M16
G05
G00X81.145Y-30.025
M15
G01X81.145Y-31.125
M16
G05
T8
G00X38.375Y-29.895
M15
G01X38.375Y-31.895
M16
G05
G00X44.075Y-27.895
M15
G01X42.075Y-27.895
M16
G05
G00X44.325Y-34.095
M15
G01X41.825Y-34.095
M16
G05
M30
