%TF.GenerationSoftware,KiCad,Pcbnew,8.0.5*%
%TF.CreationDate,2024-10-12T21:51:17-04:00*%
%TF.ProjectId,mainBoard,6d61696e-426f-4617-9264-2e6b69636164,rev?*%
%TF.SameCoordinates,Original*%
%TF.FileFunction,Drillmap*%
%TF.FilePolarity,Positive*%
%FSLAX45Y45*%
G04 Gerber Fmt 4.5, Leading zero omitted, Abs format (unit mm)*
G04 Created by KiCad (PCBNEW 8.0.5) date 2024-10-12 21:51:17*
%MOMM*%
%LPD*%
G01*
G04 APERTURE LIST*
%ADD10C,0.200000*%
%ADD11C,0.345000*%
%ADD12C,0.430000*%
G04 APERTURE END LIST*
D10*
X12550000Y-2180000D02*
X12550000Y-9280000D01*
X1550000Y-2180000D02*
X1550000Y-9280000D01*
X1750000Y-9480000D02*
G75*
G02*
X1550000Y-9280000I0J200000D01*
G01*
X1750000Y-9480000D02*
X12350000Y-9480000D01*
X12550000Y-9280000D02*
G75*
G02*
X12350000Y-9480000I-200000J0D01*
G01*
X12350000Y-1980000D02*
G75*
G02*
X12550000Y-2180000I0J-200000D01*
G01*
X1750000Y-1980000D02*
X12350000Y-1980000D01*
X1550000Y-2180000D02*
G75*
G02*
X1750000Y-1980000I200000J0D01*
G01*
D11*
X2856500Y-8562000D02*
X3201500Y-8907000D01*
X3201500Y-8562000D02*
X2856500Y-8907000D01*
X3999500Y-8562000D02*
X4344500Y-8907000D01*
X4344500Y-8562000D02*
X3999500Y-8907000D01*
X4625000Y-8562000D02*
X4970000Y-8907000D01*
X4970000Y-8562000D02*
X4625000Y-8907000D01*
X5768000Y-8562000D02*
X6113000Y-8907000D01*
X6113000Y-8562000D02*
X5768000Y-8907000D01*
X6356500Y-8562000D02*
X6701500Y-8907000D01*
X6701500Y-8562000D02*
X6356500Y-8907000D01*
X7499500Y-8562000D02*
X7844500Y-8907000D01*
X7844500Y-8562000D02*
X7499500Y-8907000D01*
X8125000Y-8562000D02*
X8470000Y-8907000D01*
X8470000Y-8562000D02*
X8125000Y-8907000D01*
X9268000Y-8562000D02*
X9613000Y-8907000D01*
X9613000Y-8562000D02*
X9268000Y-8907000D01*
X9856500Y-8562000D02*
X10201500Y-8907000D01*
X10201500Y-8562000D02*
X9856500Y-8907000D01*
X10999500Y-8562000D02*
X11344500Y-8907000D01*
X11344500Y-8562000D02*
X10999500Y-8907000D01*
D12*
X2165000Y-2380000D02*
G75*
G02*
X1735000Y-2380000I-215000J0D01*
G01*
X1735000Y-2380000D02*
G75*
G02*
X2165000Y-2380000I215000J0D01*
G01*
X2165000Y-9080000D02*
G75*
G02*
X1735000Y-9080000I-215000J0D01*
G01*
X1735000Y-9080000D02*
G75*
G02*
X2165000Y-9080000I215000J0D01*
G01*
X12365000Y-2380000D02*
G75*
G02*
X11935000Y-2380000I-215000J0D01*
G01*
X11935000Y-2380000D02*
G75*
G02*
X12365000Y-2380000I215000J0D01*
G01*
X12365000Y-9080000D02*
G75*
G02*
X11935000Y-9080000I-215000J0D01*
G01*
X11935000Y-9080000D02*
G75*
G02*
X12365000Y-9080000I215000J0D01*
G01*
D10*
X1800777Y-9801484D02*
X1800777Y-9601484D01*
X1800777Y-9601484D02*
X1848396Y-9601484D01*
X1848396Y-9601484D02*
X1876967Y-9611008D01*
X1876967Y-9611008D02*
X1896015Y-9630055D01*
X1896015Y-9630055D02*
X1905539Y-9649103D01*
X1905539Y-9649103D02*
X1915062Y-9687198D01*
X1915062Y-9687198D02*
X1915062Y-9715770D01*
X1915062Y-9715770D02*
X1905539Y-9753865D01*
X1905539Y-9753865D02*
X1896015Y-9772912D01*
X1896015Y-9772912D02*
X1876967Y-9791960D01*
X1876967Y-9791960D02*
X1848396Y-9801484D01*
X1848396Y-9801484D02*
X1800777Y-9801484D01*
X2000777Y-9801484D02*
X2000777Y-9668151D01*
X2000777Y-9706246D02*
X2010301Y-9687198D01*
X2010301Y-9687198D02*
X2019824Y-9677674D01*
X2019824Y-9677674D02*
X2038872Y-9668151D01*
X2038872Y-9668151D02*
X2057920Y-9668151D01*
X2124586Y-9801484D02*
X2124586Y-9668151D01*
X2124586Y-9601484D02*
X2115063Y-9611008D01*
X2115063Y-9611008D02*
X2124586Y-9620532D01*
X2124586Y-9620532D02*
X2134110Y-9611008D01*
X2134110Y-9611008D02*
X2124586Y-9601484D01*
X2124586Y-9601484D02*
X2124586Y-9620532D01*
X2248396Y-9801484D02*
X2229348Y-9791960D01*
X2229348Y-9791960D02*
X2219824Y-9772912D01*
X2219824Y-9772912D02*
X2219824Y-9601484D01*
X2353158Y-9801484D02*
X2334110Y-9791960D01*
X2334110Y-9791960D02*
X2324586Y-9772912D01*
X2324586Y-9772912D02*
X2324586Y-9601484D01*
X2581729Y-9801484D02*
X2581729Y-9601484D01*
X2581729Y-9601484D02*
X2648396Y-9744341D01*
X2648396Y-9744341D02*
X2715063Y-9601484D01*
X2715063Y-9601484D02*
X2715063Y-9801484D01*
X2896015Y-9801484D02*
X2896015Y-9696722D01*
X2896015Y-9696722D02*
X2886491Y-9677674D01*
X2886491Y-9677674D02*
X2867443Y-9668151D01*
X2867443Y-9668151D02*
X2829348Y-9668151D01*
X2829348Y-9668151D02*
X2810301Y-9677674D01*
X2896015Y-9791960D02*
X2876967Y-9801484D01*
X2876967Y-9801484D02*
X2829348Y-9801484D01*
X2829348Y-9801484D02*
X2810301Y-9791960D01*
X2810301Y-9791960D02*
X2800777Y-9772912D01*
X2800777Y-9772912D02*
X2800777Y-9753865D01*
X2800777Y-9753865D02*
X2810301Y-9734817D01*
X2810301Y-9734817D02*
X2829348Y-9725293D01*
X2829348Y-9725293D02*
X2876967Y-9725293D01*
X2876967Y-9725293D02*
X2896015Y-9715770D01*
X2991253Y-9668151D02*
X2991253Y-9868151D01*
X2991253Y-9677674D02*
X3010301Y-9668151D01*
X3010301Y-9668151D02*
X3048396Y-9668151D01*
X3048396Y-9668151D02*
X3067443Y-9677674D01*
X3067443Y-9677674D02*
X3076967Y-9687198D01*
X3076967Y-9687198D02*
X3086491Y-9706246D01*
X3086491Y-9706246D02*
X3086491Y-9763389D01*
X3086491Y-9763389D02*
X3076967Y-9782436D01*
X3076967Y-9782436D02*
X3067443Y-9791960D01*
X3067443Y-9791960D02*
X3048396Y-9801484D01*
X3048396Y-9801484D02*
X3010301Y-9801484D01*
X3010301Y-9801484D02*
X2991253Y-9791960D01*
X3172205Y-9782436D02*
X3181729Y-9791960D01*
X3181729Y-9791960D02*
X3172205Y-9801484D01*
X3172205Y-9801484D02*
X3162682Y-9791960D01*
X3162682Y-9791960D02*
X3172205Y-9782436D01*
X3172205Y-9782436D02*
X3172205Y-9801484D01*
X3172205Y-9677674D02*
X3181729Y-9687198D01*
X3181729Y-9687198D02*
X3172205Y-9696722D01*
X3172205Y-9696722D02*
X3162682Y-9687198D01*
X3162682Y-9687198D02*
X3172205Y-9677674D01*
X3172205Y-9677674D02*
X3172205Y-9696722D01*
X1340000Y-10030000D02*
X1540000Y-10230000D01*
X1540000Y-10030000D02*
X1340000Y-10230000D01*
X1781729Y-10021484D02*
X1905539Y-10021484D01*
X1905539Y-10021484D02*
X1838872Y-10097674D01*
X1838872Y-10097674D02*
X1867443Y-10097674D01*
X1867443Y-10097674D02*
X1886491Y-10107198D01*
X1886491Y-10107198D02*
X1896015Y-10116722D01*
X1896015Y-10116722D02*
X1905539Y-10135770D01*
X1905539Y-10135770D02*
X1905539Y-10183389D01*
X1905539Y-10183389D02*
X1896015Y-10202436D01*
X1896015Y-10202436D02*
X1886491Y-10211960D01*
X1886491Y-10211960D02*
X1867443Y-10221484D01*
X1867443Y-10221484D02*
X1810301Y-10221484D01*
X1810301Y-10221484D02*
X1791253Y-10211960D01*
X1791253Y-10211960D02*
X1781729Y-10202436D01*
X1991253Y-10202436D02*
X2000777Y-10211960D01*
X2000777Y-10211960D02*
X1991253Y-10221484D01*
X1991253Y-10221484D02*
X1981729Y-10211960D01*
X1981729Y-10211960D02*
X1991253Y-10202436D01*
X1991253Y-10202436D02*
X1991253Y-10221484D01*
X2172205Y-10088151D02*
X2172205Y-10221484D01*
X2124586Y-10011960D02*
X2076967Y-10154817D01*
X2076967Y-10154817D02*
X2200777Y-10154817D01*
X2372205Y-10021484D02*
X2276967Y-10021484D01*
X2276967Y-10021484D02*
X2267444Y-10116722D01*
X2267444Y-10116722D02*
X2276967Y-10107198D01*
X2276967Y-10107198D02*
X2296015Y-10097674D01*
X2296015Y-10097674D02*
X2343634Y-10097674D01*
X2343634Y-10097674D02*
X2362682Y-10107198D01*
X2362682Y-10107198D02*
X2372205Y-10116722D01*
X2372205Y-10116722D02*
X2381729Y-10135770D01*
X2381729Y-10135770D02*
X2381729Y-10183389D01*
X2381729Y-10183389D02*
X2372205Y-10202436D01*
X2372205Y-10202436D02*
X2362682Y-10211960D01*
X2362682Y-10211960D02*
X2343634Y-10221484D01*
X2343634Y-10221484D02*
X2296015Y-10221484D01*
X2296015Y-10221484D02*
X2276967Y-10211960D01*
X2276967Y-10211960D02*
X2267444Y-10202436D01*
X2505539Y-10021484D02*
X2524586Y-10021484D01*
X2524586Y-10021484D02*
X2543634Y-10031008D01*
X2543634Y-10031008D02*
X2553158Y-10040532D01*
X2553158Y-10040532D02*
X2562682Y-10059579D01*
X2562682Y-10059579D02*
X2572205Y-10097674D01*
X2572205Y-10097674D02*
X2572205Y-10145293D01*
X2572205Y-10145293D02*
X2562682Y-10183389D01*
X2562682Y-10183389D02*
X2553158Y-10202436D01*
X2553158Y-10202436D02*
X2543634Y-10211960D01*
X2543634Y-10211960D02*
X2524586Y-10221484D01*
X2524586Y-10221484D02*
X2505539Y-10221484D01*
X2505539Y-10221484D02*
X2486491Y-10211960D01*
X2486491Y-10211960D02*
X2476967Y-10202436D01*
X2476967Y-10202436D02*
X2467444Y-10183389D01*
X2467444Y-10183389D02*
X2457920Y-10145293D01*
X2457920Y-10145293D02*
X2457920Y-10097674D01*
X2457920Y-10097674D02*
X2467444Y-10059579D01*
X2467444Y-10059579D02*
X2476967Y-10040532D01*
X2476967Y-10040532D02*
X2486491Y-10031008D01*
X2486491Y-10031008D02*
X2505539Y-10021484D01*
X2657920Y-10221484D02*
X2657920Y-10088151D01*
X2657920Y-10107198D02*
X2667444Y-10097674D01*
X2667444Y-10097674D02*
X2686491Y-10088151D01*
X2686491Y-10088151D02*
X2715063Y-10088151D01*
X2715063Y-10088151D02*
X2734110Y-10097674D01*
X2734110Y-10097674D02*
X2743634Y-10116722D01*
X2743634Y-10116722D02*
X2743634Y-10221484D01*
X2743634Y-10116722D02*
X2753158Y-10097674D01*
X2753158Y-10097674D02*
X2772205Y-10088151D01*
X2772205Y-10088151D02*
X2800777Y-10088151D01*
X2800777Y-10088151D02*
X2819824Y-10097674D01*
X2819824Y-10097674D02*
X2829348Y-10116722D01*
X2829348Y-10116722D02*
X2829348Y-10221484D01*
X2924586Y-10221484D02*
X2924586Y-10088151D01*
X2924586Y-10107198D02*
X2934110Y-10097674D01*
X2934110Y-10097674D02*
X2953158Y-10088151D01*
X2953158Y-10088151D02*
X2981729Y-10088151D01*
X2981729Y-10088151D02*
X3000777Y-10097674D01*
X3000777Y-10097674D02*
X3010301Y-10116722D01*
X3010301Y-10116722D02*
X3010301Y-10221484D01*
X3010301Y-10116722D02*
X3019824Y-10097674D01*
X3019824Y-10097674D02*
X3038872Y-10088151D01*
X3038872Y-10088151D02*
X3067443Y-10088151D01*
X3067443Y-10088151D02*
X3086491Y-10097674D01*
X3086491Y-10097674D02*
X3096015Y-10116722D01*
X3096015Y-10116722D02*
X3096015Y-10221484D01*
X3486491Y-10011960D02*
X3315063Y-10269103D01*
X3743634Y-10021484D02*
X3762682Y-10021484D01*
X3762682Y-10021484D02*
X3781729Y-10031008D01*
X3781729Y-10031008D02*
X3791253Y-10040532D01*
X3791253Y-10040532D02*
X3800777Y-10059579D01*
X3800777Y-10059579D02*
X3810301Y-10097674D01*
X3810301Y-10097674D02*
X3810301Y-10145293D01*
X3810301Y-10145293D02*
X3800777Y-10183389D01*
X3800777Y-10183389D02*
X3791253Y-10202436D01*
X3791253Y-10202436D02*
X3781729Y-10211960D01*
X3781729Y-10211960D02*
X3762682Y-10221484D01*
X3762682Y-10221484D02*
X3743634Y-10221484D01*
X3743634Y-10221484D02*
X3724586Y-10211960D01*
X3724586Y-10211960D02*
X3715063Y-10202436D01*
X3715063Y-10202436D02*
X3705539Y-10183389D01*
X3705539Y-10183389D02*
X3696015Y-10145293D01*
X3696015Y-10145293D02*
X3696015Y-10097674D01*
X3696015Y-10097674D02*
X3705539Y-10059579D01*
X3705539Y-10059579D02*
X3715063Y-10040532D01*
X3715063Y-10040532D02*
X3724586Y-10031008D01*
X3724586Y-10031008D02*
X3743634Y-10021484D01*
X3896015Y-10202436D02*
X3905539Y-10211960D01*
X3905539Y-10211960D02*
X3896015Y-10221484D01*
X3896015Y-10221484D02*
X3886491Y-10211960D01*
X3886491Y-10211960D02*
X3896015Y-10202436D01*
X3896015Y-10202436D02*
X3896015Y-10221484D01*
X4096015Y-10221484D02*
X3981729Y-10221484D01*
X4038872Y-10221484D02*
X4038872Y-10021484D01*
X4038872Y-10021484D02*
X4019825Y-10050055D01*
X4019825Y-10050055D02*
X4000777Y-10069103D01*
X4000777Y-10069103D02*
X3981729Y-10078627D01*
X4162682Y-10021484D02*
X4286491Y-10021484D01*
X4286491Y-10021484D02*
X4219825Y-10097674D01*
X4219825Y-10097674D02*
X4248396Y-10097674D01*
X4248396Y-10097674D02*
X4267444Y-10107198D01*
X4267444Y-10107198D02*
X4276968Y-10116722D01*
X4276968Y-10116722D02*
X4286491Y-10135770D01*
X4286491Y-10135770D02*
X4286491Y-10183389D01*
X4286491Y-10183389D02*
X4276968Y-10202436D01*
X4276968Y-10202436D02*
X4267444Y-10211960D01*
X4267444Y-10211960D02*
X4248396Y-10221484D01*
X4248396Y-10221484D02*
X4191253Y-10221484D01*
X4191253Y-10221484D02*
X4172206Y-10211960D01*
X4172206Y-10211960D02*
X4162682Y-10202436D01*
X4467444Y-10021484D02*
X4372206Y-10021484D01*
X4372206Y-10021484D02*
X4362682Y-10116722D01*
X4362682Y-10116722D02*
X4372206Y-10107198D01*
X4372206Y-10107198D02*
X4391253Y-10097674D01*
X4391253Y-10097674D02*
X4438872Y-10097674D01*
X4438872Y-10097674D02*
X4457920Y-10107198D01*
X4457920Y-10107198D02*
X4467444Y-10116722D01*
X4467444Y-10116722D02*
X4476968Y-10135770D01*
X4476968Y-10135770D02*
X4476968Y-10183389D01*
X4476968Y-10183389D02*
X4467444Y-10202436D01*
X4467444Y-10202436D02*
X4457920Y-10211960D01*
X4457920Y-10211960D02*
X4438872Y-10221484D01*
X4438872Y-10221484D02*
X4391253Y-10221484D01*
X4391253Y-10221484D02*
X4372206Y-10211960D01*
X4372206Y-10211960D02*
X4362682Y-10202436D01*
X4591253Y-10107198D02*
X4572206Y-10097674D01*
X4572206Y-10097674D02*
X4562682Y-10088151D01*
X4562682Y-10088151D02*
X4553158Y-10069103D01*
X4553158Y-10069103D02*
X4553158Y-10059579D01*
X4553158Y-10059579D02*
X4562682Y-10040532D01*
X4562682Y-10040532D02*
X4572206Y-10031008D01*
X4572206Y-10031008D02*
X4591253Y-10021484D01*
X4591253Y-10021484D02*
X4629349Y-10021484D01*
X4629349Y-10021484D02*
X4648396Y-10031008D01*
X4648396Y-10031008D02*
X4657920Y-10040532D01*
X4657920Y-10040532D02*
X4667444Y-10059579D01*
X4667444Y-10059579D02*
X4667444Y-10069103D01*
X4667444Y-10069103D02*
X4657920Y-10088151D01*
X4657920Y-10088151D02*
X4648396Y-10097674D01*
X4648396Y-10097674D02*
X4629349Y-10107198D01*
X4629349Y-10107198D02*
X4591253Y-10107198D01*
X4591253Y-10107198D02*
X4572206Y-10116722D01*
X4572206Y-10116722D02*
X4562682Y-10126246D01*
X4562682Y-10126246D02*
X4553158Y-10145293D01*
X4553158Y-10145293D02*
X4553158Y-10183389D01*
X4553158Y-10183389D02*
X4562682Y-10202436D01*
X4562682Y-10202436D02*
X4572206Y-10211960D01*
X4572206Y-10211960D02*
X4591253Y-10221484D01*
X4591253Y-10221484D02*
X4629349Y-10221484D01*
X4629349Y-10221484D02*
X4648396Y-10211960D01*
X4648396Y-10211960D02*
X4657920Y-10202436D01*
X4657920Y-10202436D02*
X4667444Y-10183389D01*
X4667444Y-10183389D02*
X4667444Y-10145293D01*
X4667444Y-10145293D02*
X4657920Y-10126246D01*
X4657920Y-10126246D02*
X4648396Y-10116722D01*
X4648396Y-10116722D02*
X4629349Y-10107198D01*
X4743634Y-10021484D02*
X4743634Y-10059579D01*
X4819825Y-10021484D02*
X4819825Y-10059579D01*
X5115063Y-10297674D02*
X5105539Y-10288151D01*
X5105539Y-10288151D02*
X5086491Y-10259579D01*
X5086491Y-10259579D02*
X5076968Y-10240532D01*
X5076968Y-10240532D02*
X5067444Y-10211960D01*
X5067444Y-10211960D02*
X5057920Y-10164341D01*
X5057920Y-10164341D02*
X5057920Y-10126246D01*
X5057920Y-10126246D02*
X5067444Y-10078627D01*
X5067444Y-10078627D02*
X5076968Y-10050055D01*
X5076968Y-10050055D02*
X5086491Y-10031008D01*
X5086491Y-10031008D02*
X5105539Y-10002436D01*
X5105539Y-10002436D02*
X5115063Y-9992912D01*
X5296015Y-10221484D02*
X5181730Y-10221484D01*
X5238872Y-10221484D02*
X5238872Y-10021484D01*
X5238872Y-10021484D02*
X5219825Y-10050055D01*
X5219825Y-10050055D02*
X5200777Y-10069103D01*
X5200777Y-10069103D02*
X5181730Y-10078627D01*
X5419825Y-10021484D02*
X5438872Y-10021484D01*
X5438872Y-10021484D02*
X5457920Y-10031008D01*
X5457920Y-10031008D02*
X5467444Y-10040532D01*
X5467444Y-10040532D02*
X5476968Y-10059579D01*
X5476968Y-10059579D02*
X5486491Y-10097674D01*
X5486491Y-10097674D02*
X5486491Y-10145293D01*
X5486491Y-10145293D02*
X5476968Y-10183389D01*
X5476968Y-10183389D02*
X5467444Y-10202436D01*
X5467444Y-10202436D02*
X5457920Y-10211960D01*
X5457920Y-10211960D02*
X5438872Y-10221484D01*
X5438872Y-10221484D02*
X5419825Y-10221484D01*
X5419825Y-10221484D02*
X5400777Y-10211960D01*
X5400777Y-10211960D02*
X5391253Y-10202436D01*
X5391253Y-10202436D02*
X5381730Y-10183389D01*
X5381730Y-10183389D02*
X5372206Y-10145293D01*
X5372206Y-10145293D02*
X5372206Y-10097674D01*
X5372206Y-10097674D02*
X5381730Y-10059579D01*
X5381730Y-10059579D02*
X5391253Y-10040532D01*
X5391253Y-10040532D02*
X5400777Y-10031008D01*
X5400777Y-10031008D02*
X5419825Y-10021484D01*
X5724587Y-10221484D02*
X5724587Y-10021484D01*
X5810301Y-10221484D02*
X5810301Y-10116722D01*
X5810301Y-10116722D02*
X5800777Y-10097674D01*
X5800777Y-10097674D02*
X5781730Y-10088151D01*
X5781730Y-10088151D02*
X5753158Y-10088151D01*
X5753158Y-10088151D02*
X5734110Y-10097674D01*
X5734110Y-10097674D02*
X5724587Y-10107198D01*
X5934110Y-10221484D02*
X5915063Y-10211960D01*
X5915063Y-10211960D02*
X5905539Y-10202436D01*
X5905539Y-10202436D02*
X5896015Y-10183389D01*
X5896015Y-10183389D02*
X5896015Y-10126246D01*
X5896015Y-10126246D02*
X5905539Y-10107198D01*
X5905539Y-10107198D02*
X5915063Y-10097674D01*
X5915063Y-10097674D02*
X5934110Y-10088151D01*
X5934110Y-10088151D02*
X5962682Y-10088151D01*
X5962682Y-10088151D02*
X5981730Y-10097674D01*
X5981730Y-10097674D02*
X5991253Y-10107198D01*
X5991253Y-10107198D02*
X6000777Y-10126246D01*
X6000777Y-10126246D02*
X6000777Y-10183389D01*
X6000777Y-10183389D02*
X5991253Y-10202436D01*
X5991253Y-10202436D02*
X5981730Y-10211960D01*
X5981730Y-10211960D02*
X5962682Y-10221484D01*
X5962682Y-10221484D02*
X5934110Y-10221484D01*
X6115063Y-10221484D02*
X6096015Y-10211960D01*
X6096015Y-10211960D02*
X6086491Y-10192912D01*
X6086491Y-10192912D02*
X6086491Y-10021484D01*
X6267444Y-10211960D02*
X6248396Y-10221484D01*
X6248396Y-10221484D02*
X6210301Y-10221484D01*
X6210301Y-10221484D02*
X6191253Y-10211960D01*
X6191253Y-10211960D02*
X6181730Y-10192912D01*
X6181730Y-10192912D02*
X6181730Y-10116722D01*
X6181730Y-10116722D02*
X6191253Y-10097674D01*
X6191253Y-10097674D02*
X6210301Y-10088151D01*
X6210301Y-10088151D02*
X6248396Y-10088151D01*
X6248396Y-10088151D02*
X6267444Y-10097674D01*
X6267444Y-10097674D02*
X6276968Y-10116722D01*
X6276968Y-10116722D02*
X6276968Y-10135770D01*
X6276968Y-10135770D02*
X6181730Y-10154817D01*
X6353158Y-10211960D02*
X6372206Y-10221484D01*
X6372206Y-10221484D02*
X6410301Y-10221484D01*
X6410301Y-10221484D02*
X6429349Y-10211960D01*
X6429349Y-10211960D02*
X6438872Y-10192912D01*
X6438872Y-10192912D02*
X6438872Y-10183389D01*
X6438872Y-10183389D02*
X6429349Y-10164341D01*
X6429349Y-10164341D02*
X6410301Y-10154817D01*
X6410301Y-10154817D02*
X6381730Y-10154817D01*
X6381730Y-10154817D02*
X6362682Y-10145293D01*
X6362682Y-10145293D02*
X6353158Y-10126246D01*
X6353158Y-10126246D02*
X6353158Y-10116722D01*
X6353158Y-10116722D02*
X6362682Y-10097674D01*
X6362682Y-10097674D02*
X6381730Y-10088151D01*
X6381730Y-10088151D02*
X6410301Y-10088151D01*
X6410301Y-10088151D02*
X6429349Y-10097674D01*
X6505539Y-10297674D02*
X6515063Y-10288151D01*
X6515063Y-10288151D02*
X6534111Y-10259579D01*
X6534111Y-10259579D02*
X6543634Y-10240532D01*
X6543634Y-10240532D02*
X6553158Y-10211960D01*
X6553158Y-10211960D02*
X6562682Y-10164341D01*
X6562682Y-10164341D02*
X6562682Y-10126246D01*
X6562682Y-10126246D02*
X6553158Y-10078627D01*
X6553158Y-10078627D02*
X6543634Y-10050055D01*
X6543634Y-10050055D02*
X6534111Y-10031008D01*
X6534111Y-10031008D02*
X6515063Y-10002436D01*
X6515063Y-10002436D02*
X6505539Y-9992912D01*
X6867444Y-10297674D02*
X6857920Y-10288151D01*
X6857920Y-10288151D02*
X6838872Y-10259579D01*
X6838872Y-10259579D02*
X6829349Y-10240532D01*
X6829349Y-10240532D02*
X6819825Y-10211960D01*
X6819825Y-10211960D02*
X6810301Y-10164341D01*
X6810301Y-10164341D02*
X6810301Y-10126246D01*
X6810301Y-10126246D02*
X6819825Y-10078627D01*
X6819825Y-10078627D02*
X6829349Y-10050055D01*
X6829349Y-10050055D02*
X6838872Y-10031008D01*
X6838872Y-10031008D02*
X6857920Y-10002436D01*
X6857920Y-10002436D02*
X6867444Y-9992912D01*
X6943634Y-10088151D02*
X6943634Y-10221484D01*
X6943634Y-10107198D02*
X6953158Y-10097674D01*
X6953158Y-10097674D02*
X6972206Y-10088151D01*
X6972206Y-10088151D02*
X7000777Y-10088151D01*
X7000777Y-10088151D02*
X7019825Y-10097674D01*
X7019825Y-10097674D02*
X7029349Y-10116722D01*
X7029349Y-10116722D02*
X7029349Y-10221484D01*
X7153158Y-10221484D02*
X7134111Y-10211960D01*
X7134111Y-10211960D02*
X7124587Y-10202436D01*
X7124587Y-10202436D02*
X7115063Y-10183389D01*
X7115063Y-10183389D02*
X7115063Y-10126246D01*
X7115063Y-10126246D02*
X7124587Y-10107198D01*
X7124587Y-10107198D02*
X7134111Y-10097674D01*
X7134111Y-10097674D02*
X7153158Y-10088151D01*
X7153158Y-10088151D02*
X7181730Y-10088151D01*
X7181730Y-10088151D02*
X7200777Y-10097674D01*
X7200777Y-10097674D02*
X7210301Y-10107198D01*
X7210301Y-10107198D02*
X7219825Y-10126246D01*
X7219825Y-10126246D02*
X7219825Y-10183389D01*
X7219825Y-10183389D02*
X7210301Y-10202436D01*
X7210301Y-10202436D02*
X7200777Y-10211960D01*
X7200777Y-10211960D02*
X7181730Y-10221484D01*
X7181730Y-10221484D02*
X7153158Y-10221484D01*
X7276968Y-10088151D02*
X7353158Y-10088151D01*
X7305539Y-10021484D02*
X7305539Y-10192912D01*
X7305539Y-10192912D02*
X7315063Y-10211960D01*
X7315063Y-10211960D02*
X7334111Y-10221484D01*
X7334111Y-10221484D02*
X7353158Y-10221484D01*
X7572206Y-10088151D02*
X7572206Y-10288151D01*
X7572206Y-10097674D02*
X7591253Y-10088151D01*
X7591253Y-10088151D02*
X7629349Y-10088151D01*
X7629349Y-10088151D02*
X7648396Y-10097674D01*
X7648396Y-10097674D02*
X7657920Y-10107198D01*
X7657920Y-10107198D02*
X7667444Y-10126246D01*
X7667444Y-10126246D02*
X7667444Y-10183389D01*
X7667444Y-10183389D02*
X7657920Y-10202436D01*
X7657920Y-10202436D02*
X7648396Y-10211960D01*
X7648396Y-10211960D02*
X7629349Y-10221484D01*
X7629349Y-10221484D02*
X7591253Y-10221484D01*
X7591253Y-10221484D02*
X7572206Y-10211960D01*
X7781730Y-10221484D02*
X7762682Y-10211960D01*
X7762682Y-10211960D02*
X7753158Y-10192912D01*
X7753158Y-10192912D02*
X7753158Y-10021484D01*
X7943634Y-10221484D02*
X7943634Y-10116722D01*
X7943634Y-10116722D02*
X7934111Y-10097674D01*
X7934111Y-10097674D02*
X7915063Y-10088151D01*
X7915063Y-10088151D02*
X7876968Y-10088151D01*
X7876968Y-10088151D02*
X7857920Y-10097674D01*
X7943634Y-10211960D02*
X7924587Y-10221484D01*
X7924587Y-10221484D02*
X7876968Y-10221484D01*
X7876968Y-10221484D02*
X7857920Y-10211960D01*
X7857920Y-10211960D02*
X7848396Y-10192912D01*
X7848396Y-10192912D02*
X7848396Y-10173865D01*
X7848396Y-10173865D02*
X7857920Y-10154817D01*
X7857920Y-10154817D02*
X7876968Y-10145293D01*
X7876968Y-10145293D02*
X7924587Y-10145293D01*
X7924587Y-10145293D02*
X7943634Y-10135770D01*
X8010301Y-10088151D02*
X8086492Y-10088151D01*
X8038873Y-10021484D02*
X8038873Y-10192912D01*
X8038873Y-10192912D02*
X8048396Y-10211960D01*
X8048396Y-10211960D02*
X8067444Y-10221484D01*
X8067444Y-10221484D02*
X8086492Y-10221484D01*
X8229349Y-10211960D02*
X8210301Y-10221484D01*
X8210301Y-10221484D02*
X8172206Y-10221484D01*
X8172206Y-10221484D02*
X8153158Y-10211960D01*
X8153158Y-10211960D02*
X8143634Y-10192912D01*
X8143634Y-10192912D02*
X8143634Y-10116722D01*
X8143634Y-10116722D02*
X8153158Y-10097674D01*
X8153158Y-10097674D02*
X8172206Y-10088151D01*
X8172206Y-10088151D02*
X8210301Y-10088151D01*
X8210301Y-10088151D02*
X8229349Y-10097674D01*
X8229349Y-10097674D02*
X8238873Y-10116722D01*
X8238873Y-10116722D02*
X8238873Y-10135770D01*
X8238873Y-10135770D02*
X8143634Y-10154817D01*
X8410301Y-10221484D02*
X8410301Y-10021484D01*
X8410301Y-10211960D02*
X8391254Y-10221484D01*
X8391254Y-10221484D02*
X8353158Y-10221484D01*
X8353158Y-10221484D02*
X8334111Y-10211960D01*
X8334111Y-10211960D02*
X8324587Y-10202436D01*
X8324587Y-10202436D02*
X8315063Y-10183389D01*
X8315063Y-10183389D02*
X8315063Y-10126246D01*
X8315063Y-10126246D02*
X8324587Y-10107198D01*
X8324587Y-10107198D02*
X8334111Y-10097674D01*
X8334111Y-10097674D02*
X8353158Y-10088151D01*
X8353158Y-10088151D02*
X8391254Y-10088151D01*
X8391254Y-10088151D02*
X8410301Y-10097674D01*
X8486492Y-10297674D02*
X8496016Y-10288151D01*
X8496016Y-10288151D02*
X8515063Y-10259579D01*
X8515063Y-10259579D02*
X8524587Y-10240532D01*
X8524587Y-10240532D02*
X8534111Y-10211960D01*
X8534111Y-10211960D02*
X8543635Y-10164341D01*
X8543635Y-10164341D02*
X8543635Y-10126246D01*
X8543635Y-10126246D02*
X8534111Y-10078627D01*
X8534111Y-10078627D02*
X8524587Y-10050055D01*
X8524587Y-10050055D02*
X8515063Y-10031008D01*
X8515063Y-10031008D02*
X8496016Y-10002436D01*
X8496016Y-10002436D02*
X8486492Y-9992912D01*
X1540000Y-10450000D02*
G75*
G02*
X1340000Y-10450000I-100000J0D01*
G01*
X1340000Y-10450000D02*
G75*
G02*
X1540000Y-10450000I100000J0D01*
G01*
X1886491Y-10408151D02*
X1886491Y-10541484D01*
X1838872Y-10331960D02*
X1791253Y-10474817D01*
X1791253Y-10474817D02*
X1915062Y-10474817D01*
X1991253Y-10522436D02*
X2000777Y-10531960D01*
X2000777Y-10531960D02*
X1991253Y-10541484D01*
X1991253Y-10541484D02*
X1981729Y-10531960D01*
X1981729Y-10531960D02*
X1991253Y-10522436D01*
X1991253Y-10522436D02*
X1991253Y-10541484D01*
X2067443Y-10341484D02*
X2191253Y-10341484D01*
X2191253Y-10341484D02*
X2124586Y-10417674D01*
X2124586Y-10417674D02*
X2153158Y-10417674D01*
X2153158Y-10417674D02*
X2172205Y-10427198D01*
X2172205Y-10427198D02*
X2181729Y-10436722D01*
X2181729Y-10436722D02*
X2191253Y-10455770D01*
X2191253Y-10455770D02*
X2191253Y-10503389D01*
X2191253Y-10503389D02*
X2181729Y-10522436D01*
X2181729Y-10522436D02*
X2172205Y-10531960D01*
X2172205Y-10531960D02*
X2153158Y-10541484D01*
X2153158Y-10541484D02*
X2096015Y-10541484D01*
X2096015Y-10541484D02*
X2076967Y-10531960D01*
X2076967Y-10531960D02*
X2067443Y-10522436D01*
X2315063Y-10341484D02*
X2334110Y-10341484D01*
X2334110Y-10341484D02*
X2353158Y-10351008D01*
X2353158Y-10351008D02*
X2362682Y-10360532D01*
X2362682Y-10360532D02*
X2372205Y-10379579D01*
X2372205Y-10379579D02*
X2381729Y-10417674D01*
X2381729Y-10417674D02*
X2381729Y-10465293D01*
X2381729Y-10465293D02*
X2372205Y-10503389D01*
X2372205Y-10503389D02*
X2362682Y-10522436D01*
X2362682Y-10522436D02*
X2353158Y-10531960D01*
X2353158Y-10531960D02*
X2334110Y-10541484D01*
X2334110Y-10541484D02*
X2315063Y-10541484D01*
X2315063Y-10541484D02*
X2296015Y-10531960D01*
X2296015Y-10531960D02*
X2286491Y-10522436D01*
X2286491Y-10522436D02*
X2276967Y-10503389D01*
X2276967Y-10503389D02*
X2267444Y-10465293D01*
X2267444Y-10465293D02*
X2267444Y-10417674D01*
X2267444Y-10417674D02*
X2276967Y-10379579D01*
X2276967Y-10379579D02*
X2286491Y-10360532D01*
X2286491Y-10360532D02*
X2296015Y-10351008D01*
X2296015Y-10351008D02*
X2315063Y-10341484D01*
X2505539Y-10341484D02*
X2524586Y-10341484D01*
X2524586Y-10341484D02*
X2543634Y-10351008D01*
X2543634Y-10351008D02*
X2553158Y-10360532D01*
X2553158Y-10360532D02*
X2562682Y-10379579D01*
X2562682Y-10379579D02*
X2572205Y-10417674D01*
X2572205Y-10417674D02*
X2572205Y-10465293D01*
X2572205Y-10465293D02*
X2562682Y-10503389D01*
X2562682Y-10503389D02*
X2553158Y-10522436D01*
X2553158Y-10522436D02*
X2543634Y-10531960D01*
X2543634Y-10531960D02*
X2524586Y-10541484D01*
X2524586Y-10541484D02*
X2505539Y-10541484D01*
X2505539Y-10541484D02*
X2486491Y-10531960D01*
X2486491Y-10531960D02*
X2476967Y-10522436D01*
X2476967Y-10522436D02*
X2467444Y-10503389D01*
X2467444Y-10503389D02*
X2457920Y-10465293D01*
X2457920Y-10465293D02*
X2457920Y-10417674D01*
X2457920Y-10417674D02*
X2467444Y-10379579D01*
X2467444Y-10379579D02*
X2476967Y-10360532D01*
X2476967Y-10360532D02*
X2486491Y-10351008D01*
X2486491Y-10351008D02*
X2505539Y-10341484D01*
X2657920Y-10541484D02*
X2657920Y-10408151D01*
X2657920Y-10427198D02*
X2667444Y-10417674D01*
X2667444Y-10417674D02*
X2686491Y-10408151D01*
X2686491Y-10408151D02*
X2715063Y-10408151D01*
X2715063Y-10408151D02*
X2734110Y-10417674D01*
X2734110Y-10417674D02*
X2743634Y-10436722D01*
X2743634Y-10436722D02*
X2743634Y-10541484D01*
X2743634Y-10436722D02*
X2753158Y-10417674D01*
X2753158Y-10417674D02*
X2772205Y-10408151D01*
X2772205Y-10408151D02*
X2800777Y-10408151D01*
X2800777Y-10408151D02*
X2819824Y-10417674D01*
X2819824Y-10417674D02*
X2829348Y-10436722D01*
X2829348Y-10436722D02*
X2829348Y-10541484D01*
X2924586Y-10541484D02*
X2924586Y-10408151D01*
X2924586Y-10427198D02*
X2934110Y-10417674D01*
X2934110Y-10417674D02*
X2953158Y-10408151D01*
X2953158Y-10408151D02*
X2981729Y-10408151D01*
X2981729Y-10408151D02*
X3000777Y-10417674D01*
X3000777Y-10417674D02*
X3010301Y-10436722D01*
X3010301Y-10436722D02*
X3010301Y-10541484D01*
X3010301Y-10436722D02*
X3019824Y-10417674D01*
X3019824Y-10417674D02*
X3038872Y-10408151D01*
X3038872Y-10408151D02*
X3067443Y-10408151D01*
X3067443Y-10408151D02*
X3086491Y-10417674D01*
X3086491Y-10417674D02*
X3096015Y-10436722D01*
X3096015Y-10436722D02*
X3096015Y-10541484D01*
X3486491Y-10331960D02*
X3315063Y-10589103D01*
X3743634Y-10341484D02*
X3762682Y-10341484D01*
X3762682Y-10341484D02*
X3781729Y-10351008D01*
X3781729Y-10351008D02*
X3791253Y-10360532D01*
X3791253Y-10360532D02*
X3800777Y-10379579D01*
X3800777Y-10379579D02*
X3810301Y-10417674D01*
X3810301Y-10417674D02*
X3810301Y-10465293D01*
X3810301Y-10465293D02*
X3800777Y-10503389D01*
X3800777Y-10503389D02*
X3791253Y-10522436D01*
X3791253Y-10522436D02*
X3781729Y-10531960D01*
X3781729Y-10531960D02*
X3762682Y-10541484D01*
X3762682Y-10541484D02*
X3743634Y-10541484D01*
X3743634Y-10541484D02*
X3724586Y-10531960D01*
X3724586Y-10531960D02*
X3715063Y-10522436D01*
X3715063Y-10522436D02*
X3705539Y-10503389D01*
X3705539Y-10503389D02*
X3696015Y-10465293D01*
X3696015Y-10465293D02*
X3696015Y-10417674D01*
X3696015Y-10417674D02*
X3705539Y-10379579D01*
X3705539Y-10379579D02*
X3715063Y-10360532D01*
X3715063Y-10360532D02*
X3724586Y-10351008D01*
X3724586Y-10351008D02*
X3743634Y-10341484D01*
X3896015Y-10522436D02*
X3905539Y-10531960D01*
X3905539Y-10531960D02*
X3896015Y-10541484D01*
X3896015Y-10541484D02*
X3886491Y-10531960D01*
X3886491Y-10531960D02*
X3896015Y-10522436D01*
X3896015Y-10522436D02*
X3896015Y-10541484D01*
X4096015Y-10541484D02*
X3981729Y-10541484D01*
X4038872Y-10541484D02*
X4038872Y-10341484D01*
X4038872Y-10341484D02*
X4019825Y-10370055D01*
X4019825Y-10370055D02*
X4000777Y-10389103D01*
X4000777Y-10389103D02*
X3981729Y-10398627D01*
X4267444Y-10341484D02*
X4229348Y-10341484D01*
X4229348Y-10341484D02*
X4210301Y-10351008D01*
X4210301Y-10351008D02*
X4200777Y-10360532D01*
X4200777Y-10360532D02*
X4181729Y-10389103D01*
X4181729Y-10389103D02*
X4172206Y-10427198D01*
X4172206Y-10427198D02*
X4172206Y-10503389D01*
X4172206Y-10503389D02*
X4181729Y-10522436D01*
X4181729Y-10522436D02*
X4191253Y-10531960D01*
X4191253Y-10531960D02*
X4210301Y-10541484D01*
X4210301Y-10541484D02*
X4248396Y-10541484D01*
X4248396Y-10541484D02*
X4267444Y-10531960D01*
X4267444Y-10531960D02*
X4276968Y-10522436D01*
X4276968Y-10522436D02*
X4286491Y-10503389D01*
X4286491Y-10503389D02*
X4286491Y-10455770D01*
X4286491Y-10455770D02*
X4276968Y-10436722D01*
X4276968Y-10436722D02*
X4267444Y-10427198D01*
X4267444Y-10427198D02*
X4248396Y-10417674D01*
X4248396Y-10417674D02*
X4210301Y-10417674D01*
X4210301Y-10417674D02*
X4191253Y-10427198D01*
X4191253Y-10427198D02*
X4181729Y-10436722D01*
X4181729Y-10436722D02*
X4172206Y-10455770D01*
X4381729Y-10541484D02*
X4419825Y-10541484D01*
X4419825Y-10541484D02*
X4438872Y-10531960D01*
X4438872Y-10531960D02*
X4448396Y-10522436D01*
X4448396Y-10522436D02*
X4467444Y-10493865D01*
X4467444Y-10493865D02*
X4476968Y-10455770D01*
X4476968Y-10455770D02*
X4476968Y-10379579D01*
X4476968Y-10379579D02*
X4467444Y-10360532D01*
X4467444Y-10360532D02*
X4457920Y-10351008D01*
X4457920Y-10351008D02*
X4438872Y-10341484D01*
X4438872Y-10341484D02*
X4400777Y-10341484D01*
X4400777Y-10341484D02*
X4381729Y-10351008D01*
X4381729Y-10351008D02*
X4372206Y-10360532D01*
X4372206Y-10360532D02*
X4362682Y-10379579D01*
X4362682Y-10379579D02*
X4362682Y-10427198D01*
X4362682Y-10427198D02*
X4372206Y-10446246D01*
X4372206Y-10446246D02*
X4381729Y-10455770D01*
X4381729Y-10455770D02*
X4400777Y-10465293D01*
X4400777Y-10465293D02*
X4438872Y-10465293D01*
X4438872Y-10465293D02*
X4457920Y-10455770D01*
X4457920Y-10455770D02*
X4467444Y-10446246D01*
X4467444Y-10446246D02*
X4476968Y-10427198D01*
X4543634Y-10341484D02*
X4667444Y-10341484D01*
X4667444Y-10341484D02*
X4600777Y-10417674D01*
X4600777Y-10417674D02*
X4629349Y-10417674D01*
X4629349Y-10417674D02*
X4648396Y-10427198D01*
X4648396Y-10427198D02*
X4657920Y-10436722D01*
X4657920Y-10436722D02*
X4667444Y-10455770D01*
X4667444Y-10455770D02*
X4667444Y-10503389D01*
X4667444Y-10503389D02*
X4657920Y-10522436D01*
X4657920Y-10522436D02*
X4648396Y-10531960D01*
X4648396Y-10531960D02*
X4629349Y-10541484D01*
X4629349Y-10541484D02*
X4572206Y-10541484D01*
X4572206Y-10541484D02*
X4553158Y-10531960D01*
X4553158Y-10531960D02*
X4543634Y-10522436D01*
X4743634Y-10341484D02*
X4743634Y-10379579D01*
X4819825Y-10341484D02*
X4819825Y-10379579D01*
X5115063Y-10617674D02*
X5105539Y-10608151D01*
X5105539Y-10608151D02*
X5086491Y-10579579D01*
X5086491Y-10579579D02*
X5076968Y-10560532D01*
X5076968Y-10560532D02*
X5067444Y-10531960D01*
X5067444Y-10531960D02*
X5057920Y-10484341D01*
X5057920Y-10484341D02*
X5057920Y-10446246D01*
X5057920Y-10446246D02*
X5067444Y-10398627D01*
X5067444Y-10398627D02*
X5076968Y-10370055D01*
X5076968Y-10370055D02*
X5086491Y-10351008D01*
X5086491Y-10351008D02*
X5105539Y-10322436D01*
X5105539Y-10322436D02*
X5115063Y-10312912D01*
X5276968Y-10408151D02*
X5276968Y-10541484D01*
X5229349Y-10331960D02*
X5181730Y-10474817D01*
X5181730Y-10474817D02*
X5305539Y-10474817D01*
X5534111Y-10541484D02*
X5534111Y-10341484D01*
X5619825Y-10541484D02*
X5619825Y-10436722D01*
X5619825Y-10436722D02*
X5610301Y-10417674D01*
X5610301Y-10417674D02*
X5591253Y-10408151D01*
X5591253Y-10408151D02*
X5562682Y-10408151D01*
X5562682Y-10408151D02*
X5543634Y-10417674D01*
X5543634Y-10417674D02*
X5534111Y-10427198D01*
X5743634Y-10541484D02*
X5724587Y-10531960D01*
X5724587Y-10531960D02*
X5715063Y-10522436D01*
X5715063Y-10522436D02*
X5705539Y-10503389D01*
X5705539Y-10503389D02*
X5705539Y-10446246D01*
X5705539Y-10446246D02*
X5715063Y-10427198D01*
X5715063Y-10427198D02*
X5724587Y-10417674D01*
X5724587Y-10417674D02*
X5743634Y-10408151D01*
X5743634Y-10408151D02*
X5772206Y-10408151D01*
X5772206Y-10408151D02*
X5791253Y-10417674D01*
X5791253Y-10417674D02*
X5800777Y-10427198D01*
X5800777Y-10427198D02*
X5810301Y-10446246D01*
X5810301Y-10446246D02*
X5810301Y-10503389D01*
X5810301Y-10503389D02*
X5800777Y-10522436D01*
X5800777Y-10522436D02*
X5791253Y-10531960D01*
X5791253Y-10531960D02*
X5772206Y-10541484D01*
X5772206Y-10541484D02*
X5743634Y-10541484D01*
X5924587Y-10541484D02*
X5905539Y-10531960D01*
X5905539Y-10531960D02*
X5896015Y-10512912D01*
X5896015Y-10512912D02*
X5896015Y-10341484D01*
X6076968Y-10531960D02*
X6057920Y-10541484D01*
X6057920Y-10541484D02*
X6019825Y-10541484D01*
X6019825Y-10541484D02*
X6000777Y-10531960D01*
X6000777Y-10531960D02*
X5991253Y-10512912D01*
X5991253Y-10512912D02*
X5991253Y-10436722D01*
X5991253Y-10436722D02*
X6000777Y-10417674D01*
X6000777Y-10417674D02*
X6019825Y-10408151D01*
X6019825Y-10408151D02*
X6057920Y-10408151D01*
X6057920Y-10408151D02*
X6076968Y-10417674D01*
X6076968Y-10417674D02*
X6086491Y-10436722D01*
X6086491Y-10436722D02*
X6086491Y-10455770D01*
X6086491Y-10455770D02*
X5991253Y-10474817D01*
X6162682Y-10531960D02*
X6181730Y-10541484D01*
X6181730Y-10541484D02*
X6219825Y-10541484D01*
X6219825Y-10541484D02*
X6238872Y-10531960D01*
X6238872Y-10531960D02*
X6248396Y-10512912D01*
X6248396Y-10512912D02*
X6248396Y-10503389D01*
X6248396Y-10503389D02*
X6238872Y-10484341D01*
X6238872Y-10484341D02*
X6219825Y-10474817D01*
X6219825Y-10474817D02*
X6191253Y-10474817D01*
X6191253Y-10474817D02*
X6172206Y-10465293D01*
X6172206Y-10465293D02*
X6162682Y-10446246D01*
X6162682Y-10446246D02*
X6162682Y-10436722D01*
X6162682Y-10436722D02*
X6172206Y-10417674D01*
X6172206Y-10417674D02*
X6191253Y-10408151D01*
X6191253Y-10408151D02*
X6219825Y-10408151D01*
X6219825Y-10408151D02*
X6238872Y-10417674D01*
X6315063Y-10617674D02*
X6324587Y-10608151D01*
X6324587Y-10608151D02*
X6343634Y-10579579D01*
X6343634Y-10579579D02*
X6353158Y-10560532D01*
X6353158Y-10560532D02*
X6362682Y-10531960D01*
X6362682Y-10531960D02*
X6372206Y-10484341D01*
X6372206Y-10484341D02*
X6372206Y-10446246D01*
X6372206Y-10446246D02*
X6362682Y-10398627D01*
X6362682Y-10398627D02*
X6353158Y-10370055D01*
X6353158Y-10370055D02*
X6343634Y-10351008D01*
X6343634Y-10351008D02*
X6324587Y-10322436D01*
X6324587Y-10322436D02*
X6315063Y-10312912D01*
X6676968Y-10617674D02*
X6667444Y-10608151D01*
X6667444Y-10608151D02*
X6648396Y-10579579D01*
X6648396Y-10579579D02*
X6638872Y-10560532D01*
X6638872Y-10560532D02*
X6629349Y-10531960D01*
X6629349Y-10531960D02*
X6619825Y-10484341D01*
X6619825Y-10484341D02*
X6619825Y-10446246D01*
X6619825Y-10446246D02*
X6629349Y-10398627D01*
X6629349Y-10398627D02*
X6638872Y-10370055D01*
X6638872Y-10370055D02*
X6648396Y-10351008D01*
X6648396Y-10351008D02*
X6667444Y-10322436D01*
X6667444Y-10322436D02*
X6676968Y-10312912D01*
X6753158Y-10408151D02*
X6753158Y-10541484D01*
X6753158Y-10427198D02*
X6762682Y-10417674D01*
X6762682Y-10417674D02*
X6781730Y-10408151D01*
X6781730Y-10408151D02*
X6810301Y-10408151D01*
X6810301Y-10408151D02*
X6829349Y-10417674D01*
X6829349Y-10417674D02*
X6838872Y-10436722D01*
X6838872Y-10436722D02*
X6838872Y-10541484D01*
X6962682Y-10541484D02*
X6943634Y-10531960D01*
X6943634Y-10531960D02*
X6934111Y-10522436D01*
X6934111Y-10522436D02*
X6924587Y-10503389D01*
X6924587Y-10503389D02*
X6924587Y-10446246D01*
X6924587Y-10446246D02*
X6934111Y-10427198D01*
X6934111Y-10427198D02*
X6943634Y-10417674D01*
X6943634Y-10417674D02*
X6962682Y-10408151D01*
X6962682Y-10408151D02*
X6991253Y-10408151D01*
X6991253Y-10408151D02*
X7010301Y-10417674D01*
X7010301Y-10417674D02*
X7019825Y-10427198D01*
X7019825Y-10427198D02*
X7029349Y-10446246D01*
X7029349Y-10446246D02*
X7029349Y-10503389D01*
X7029349Y-10503389D02*
X7019825Y-10522436D01*
X7019825Y-10522436D02*
X7010301Y-10531960D01*
X7010301Y-10531960D02*
X6991253Y-10541484D01*
X6991253Y-10541484D02*
X6962682Y-10541484D01*
X7086492Y-10408151D02*
X7162682Y-10408151D01*
X7115063Y-10341484D02*
X7115063Y-10512912D01*
X7115063Y-10512912D02*
X7124587Y-10531960D01*
X7124587Y-10531960D02*
X7143634Y-10541484D01*
X7143634Y-10541484D02*
X7162682Y-10541484D01*
X7381730Y-10408151D02*
X7381730Y-10608151D01*
X7381730Y-10417674D02*
X7400777Y-10408151D01*
X7400777Y-10408151D02*
X7438873Y-10408151D01*
X7438873Y-10408151D02*
X7457920Y-10417674D01*
X7457920Y-10417674D02*
X7467444Y-10427198D01*
X7467444Y-10427198D02*
X7476968Y-10446246D01*
X7476968Y-10446246D02*
X7476968Y-10503389D01*
X7476968Y-10503389D02*
X7467444Y-10522436D01*
X7467444Y-10522436D02*
X7457920Y-10531960D01*
X7457920Y-10531960D02*
X7438873Y-10541484D01*
X7438873Y-10541484D02*
X7400777Y-10541484D01*
X7400777Y-10541484D02*
X7381730Y-10531960D01*
X7591253Y-10541484D02*
X7572206Y-10531960D01*
X7572206Y-10531960D02*
X7562682Y-10512912D01*
X7562682Y-10512912D02*
X7562682Y-10341484D01*
X7753158Y-10541484D02*
X7753158Y-10436722D01*
X7753158Y-10436722D02*
X7743634Y-10417674D01*
X7743634Y-10417674D02*
X7724587Y-10408151D01*
X7724587Y-10408151D02*
X7686492Y-10408151D01*
X7686492Y-10408151D02*
X7667444Y-10417674D01*
X7753158Y-10531960D02*
X7734111Y-10541484D01*
X7734111Y-10541484D02*
X7686492Y-10541484D01*
X7686492Y-10541484D02*
X7667444Y-10531960D01*
X7667444Y-10531960D02*
X7657920Y-10512912D01*
X7657920Y-10512912D02*
X7657920Y-10493865D01*
X7657920Y-10493865D02*
X7667444Y-10474817D01*
X7667444Y-10474817D02*
X7686492Y-10465293D01*
X7686492Y-10465293D02*
X7734111Y-10465293D01*
X7734111Y-10465293D02*
X7753158Y-10455770D01*
X7819825Y-10408151D02*
X7896015Y-10408151D01*
X7848396Y-10341484D02*
X7848396Y-10512912D01*
X7848396Y-10512912D02*
X7857920Y-10531960D01*
X7857920Y-10531960D02*
X7876968Y-10541484D01*
X7876968Y-10541484D02*
X7896015Y-10541484D01*
X8038873Y-10531960D02*
X8019825Y-10541484D01*
X8019825Y-10541484D02*
X7981730Y-10541484D01*
X7981730Y-10541484D02*
X7962682Y-10531960D01*
X7962682Y-10531960D02*
X7953158Y-10512912D01*
X7953158Y-10512912D02*
X7953158Y-10436722D01*
X7953158Y-10436722D02*
X7962682Y-10417674D01*
X7962682Y-10417674D02*
X7981730Y-10408151D01*
X7981730Y-10408151D02*
X8019825Y-10408151D01*
X8019825Y-10408151D02*
X8038873Y-10417674D01*
X8038873Y-10417674D02*
X8048396Y-10436722D01*
X8048396Y-10436722D02*
X8048396Y-10455770D01*
X8048396Y-10455770D02*
X7953158Y-10474817D01*
X8219825Y-10541484D02*
X8219825Y-10341484D01*
X8219825Y-10531960D02*
X8200777Y-10541484D01*
X8200777Y-10541484D02*
X8162682Y-10541484D01*
X8162682Y-10541484D02*
X8143634Y-10531960D01*
X8143634Y-10531960D02*
X8134111Y-10522436D01*
X8134111Y-10522436D02*
X8124587Y-10503389D01*
X8124587Y-10503389D02*
X8124587Y-10446246D01*
X8124587Y-10446246D02*
X8134111Y-10427198D01*
X8134111Y-10427198D02*
X8143634Y-10417674D01*
X8143634Y-10417674D02*
X8162682Y-10408151D01*
X8162682Y-10408151D02*
X8200777Y-10408151D01*
X8200777Y-10408151D02*
X8219825Y-10417674D01*
X8296015Y-10617674D02*
X8305539Y-10608151D01*
X8305539Y-10608151D02*
X8324587Y-10579579D01*
X8324587Y-10579579D02*
X8334111Y-10560532D01*
X8334111Y-10560532D02*
X8343634Y-10531960D01*
X8343634Y-10531960D02*
X8353158Y-10484341D01*
X8353158Y-10484341D02*
X8353158Y-10446246D01*
X8353158Y-10446246D02*
X8343634Y-10398627D01*
X8343634Y-10398627D02*
X8334111Y-10370055D01*
X8334111Y-10370055D02*
X8324587Y-10351008D01*
X8324587Y-10351008D02*
X8305539Y-10322436D01*
X8305539Y-10322436D02*
X8296015Y-10312912D01*
M02*
