%TF.GenerationSoftware,KiCad,Pcbnew,8.0.5+1*%
%TF.CreationDate,2024-10-17T13:50:31-04:00*%
%TF.ProjectId,mainBoard,6d61696e-426f-4617-9264-2e6b69636164,rev?*%
%TF.SameCoordinates,Original*%
%TF.FileFunction,Legend,Top*%
%TF.FilePolarity,Positive*%
%FSLAX46Y46*%
G04 Gerber Fmt 4.6, Leading zero omitted, Abs format (unit mm)*
G04 Created by KiCad (PCBNEW 8.0.5+1) date 2024-10-17 13:50:31*
%MOMM*%
%LPD*%
G01*
G04 APERTURE LIST*
G04 Aperture macros list*
%AMRoundRect*
0 Rectangle with rounded corners*
0 $1 Rounding radius*
0 $2 $3 $4 $5 $6 $7 $8 $9 X,Y pos of 4 corners*
0 Add a 4 corners polygon primitive as box body*
4,1,4,$2,$3,$4,$5,$6,$7,$8,$9,$2,$3,0*
0 Add four circle primitives for the rounded corners*
1,1,$1+$1,$2,$3*
1,1,$1+$1,$4,$5*
1,1,$1+$1,$6,$7*
1,1,$1+$1,$8,$9*
0 Add four rect primitives between the rounded corners*
20,1,$1+$1,$2,$3,$4,$5,0*
20,1,$1+$1,$4,$5,$6,$7,0*
20,1,$1+$1,$6,$7,$8,$9,0*
20,1,$1+$1,$8,$9,$2,$3,0*%
G04 Aperture macros list end*
%ADD10C,0.100000*%
%ADD11C,0.250000*%
%ADD12C,0.150000*%
%ADD13C,0.120000*%
%ADD14C,3.650000*%
%ADD15C,4.300000*%
%ADD16R,4.500000X2.000000*%
%ADD17O,4.000000X2.000000*%
%ADD18O,2.000000X4.000000*%
%ADD19RoundRect,0.250000X0.625000X-0.350000X0.625000X0.350000X-0.625000X0.350000X-0.625000X-0.350000X0*%
%ADD20O,1.750000X1.200000*%
%ADD21R,0.900000X2.000000*%
%ADD22RoundRect,1.025000X-1.025000X-1.025000X1.025000X-1.025000X1.025000X1.025000X-1.025000X1.025000X0*%
%ADD23C,4.100000*%
%ADD24RoundRect,0.150000X0.625000X-0.150000X0.625000X0.150000X-0.625000X0.150000X-0.625000X-0.150000X0*%
%ADD25RoundRect,0.250000X0.650000X-0.350000X0.650000X0.350000X-0.650000X0.350000X-0.650000X-0.350000X0*%
%ADD26RoundRect,0.250000X-0.337500X-0.475000X0.337500X-0.475000X0.337500X0.475000X-0.337500X0.475000X0*%
%ADD27RoundRect,0.250000X0.337500X0.475000X-0.337500X0.475000X-0.337500X-0.475000X0.337500X-0.475000X0*%
%ADD28RoundRect,0.250000X0.475000X-0.337500X0.475000X0.337500X-0.475000X0.337500X-0.475000X-0.337500X0*%
%ADD29C,1.400000*%
%ADD30R,3.500000X3.500000*%
%ADD31C,3.500000*%
%ADD32RoundRect,0.250000X-0.350000X-0.450000X0.350000X-0.450000X0.350000X0.450000X-0.350000X0.450000X0*%
%ADD33RoundRect,0.250000X0.450000X-0.350000X0.450000X0.350000X-0.450000X0.350000X-0.450000X-0.350000X0*%
%ADD34R,1.500000X1.500000*%
%ADD35C,1.500000*%
%ADD36RoundRect,0.150000X-0.512500X-0.150000X0.512500X-0.150000X0.512500X0.150000X-0.512500X0.150000X0*%
%ADD37R,1.700000X1.700000*%
%ADD38O,1.700000X1.700000*%
%ADD39RoundRect,0.250000X-0.450000X0.350000X-0.450000X-0.350000X0.450000X-0.350000X0.450000X0.350000X0*%
%ADD40RoundRect,0.150000X-0.150000X0.512500X-0.150000X-0.512500X0.150000X-0.512500X0.150000X0.512500X0*%
%ADD41RoundRect,0.235000X1.465000X-0.940000X1.465000X0.940000X-1.465000X0.940000X-1.465000X-0.940000X0*%
%ADD42RoundRect,0.250000X0.325000X0.450000X-0.325000X0.450000X-0.325000X-0.450000X0.325000X-0.450000X0*%
%ADD43R,3.800000X3.800000*%
%ADD44C,4.000000*%
%ADD45RoundRect,0.250000X-0.850000X-0.350000X0.850000X-0.350000X0.850000X0.350000X-0.850000X0.350000X0*%
%ADD46RoundRect,0.249997X-2.950003X-2.650003X2.950003X-2.650003X2.950003X2.650003X-2.950003X2.650003X0*%
%ADD47RoundRect,0.250000X-0.475000X0.337500X-0.475000X-0.337500X0.475000X-0.337500X0.475000X0.337500X0*%
%ADD48RoundRect,0.250000X0.400000X1.075000X-0.400000X1.075000X-0.400000X-1.075000X0.400000X-1.075000X0*%
%ADD49RoundRect,0.250000X0.350000X0.450000X-0.350000X0.450000X-0.350000X-0.450000X0.350000X-0.450000X0*%
%ADD50RoundRect,0.150000X-0.825000X-0.150000X0.825000X-0.150000X0.825000X0.150000X-0.825000X0.150000X0*%
%ADD51RoundRect,0.250000X0.450000X-0.325000X0.450000X0.325000X-0.450000X0.325000X-0.450000X-0.325000X0*%
%ADD52RoundRect,0.100000X-0.637500X-0.100000X0.637500X-0.100000X0.637500X0.100000X-0.637500X0.100000X0*%
%ADD53RoundRect,0.250000X-0.325000X-0.450000X0.325000X-0.450000X0.325000X0.450000X-0.325000X0.450000X0*%
G04 APERTURE END LIST*
D10*
X16875384Y-84586634D02*
X16875384Y-85300919D01*
X16875384Y-85300919D02*
X16827765Y-85443776D01*
X16827765Y-85443776D02*
X16732527Y-85539015D01*
X16732527Y-85539015D02*
X16589670Y-85586634D01*
X16589670Y-85586634D02*
X16494432Y-85586634D01*
X17827765Y-85586634D02*
X17351575Y-85586634D01*
X17351575Y-85586634D02*
X17351575Y-84586634D01*
X18732527Y-85491395D02*
X18684908Y-85539015D01*
X18684908Y-85539015D02*
X18542051Y-85586634D01*
X18542051Y-85586634D02*
X18446813Y-85586634D01*
X18446813Y-85586634D02*
X18303956Y-85539015D01*
X18303956Y-85539015D02*
X18208718Y-85443776D01*
X18208718Y-85443776D02*
X18161099Y-85348538D01*
X18161099Y-85348538D02*
X18113480Y-85158062D01*
X18113480Y-85158062D02*
X18113480Y-85015205D01*
X18113480Y-85015205D02*
X18161099Y-84824729D01*
X18161099Y-84824729D02*
X18208718Y-84729491D01*
X18208718Y-84729491D02*
X18303956Y-84634253D01*
X18303956Y-84634253D02*
X18446813Y-84586634D01*
X18446813Y-84586634D02*
X18542051Y-84586634D01*
X18542051Y-84586634D02*
X18684908Y-84634253D01*
X18684908Y-84634253D02*
X18732527Y-84681872D01*
X19446813Y-84586634D02*
X19446813Y-85300919D01*
X19446813Y-85300919D02*
X19399194Y-85443776D01*
X19399194Y-85443776D02*
X19303956Y-85539015D01*
X19303956Y-85539015D02*
X19161099Y-85586634D01*
X19161099Y-85586634D02*
X19065861Y-85586634D01*
X20399194Y-85586634D02*
X19923004Y-85586634D01*
X19923004Y-85586634D02*
X19923004Y-84586634D01*
X21303956Y-85491395D02*
X21256337Y-85539015D01*
X21256337Y-85539015D02*
X21113480Y-85586634D01*
X21113480Y-85586634D02*
X21018242Y-85586634D01*
X21018242Y-85586634D02*
X20875385Y-85539015D01*
X20875385Y-85539015D02*
X20780147Y-85443776D01*
X20780147Y-85443776D02*
X20732528Y-85348538D01*
X20732528Y-85348538D02*
X20684909Y-85158062D01*
X20684909Y-85158062D02*
X20684909Y-85015205D01*
X20684909Y-85015205D02*
X20732528Y-84824729D01*
X20732528Y-84824729D02*
X20780147Y-84729491D01*
X20780147Y-84729491D02*
X20875385Y-84634253D01*
X20875385Y-84634253D02*
X21018242Y-84586634D01*
X21018242Y-84586634D02*
X21113480Y-84586634D01*
X21113480Y-84586634D02*
X21256337Y-84634253D01*
X21256337Y-84634253D02*
X21303956Y-84681872D01*
X22018242Y-84586634D02*
X22018242Y-85300919D01*
X22018242Y-85300919D02*
X21970623Y-85443776D01*
X21970623Y-85443776D02*
X21875385Y-85539015D01*
X21875385Y-85539015D02*
X21732528Y-85586634D01*
X21732528Y-85586634D02*
X21637290Y-85586634D01*
X22970623Y-85586634D02*
X22494433Y-85586634D01*
X22494433Y-85586634D02*
X22494433Y-84586634D01*
X23875385Y-85491395D02*
X23827766Y-85539015D01*
X23827766Y-85539015D02*
X23684909Y-85586634D01*
X23684909Y-85586634D02*
X23589671Y-85586634D01*
X23589671Y-85586634D02*
X23446814Y-85539015D01*
X23446814Y-85539015D02*
X23351576Y-85443776D01*
X23351576Y-85443776D02*
X23303957Y-85348538D01*
X23303957Y-85348538D02*
X23256338Y-85158062D01*
X23256338Y-85158062D02*
X23256338Y-85015205D01*
X23256338Y-85015205D02*
X23303957Y-84824729D01*
X23303957Y-84824729D02*
X23351576Y-84729491D01*
X23351576Y-84729491D02*
X23446814Y-84634253D01*
X23446814Y-84634253D02*
X23589671Y-84586634D01*
X23589671Y-84586634D02*
X23684909Y-84586634D01*
X23684909Y-84586634D02*
X23827766Y-84634253D01*
X23827766Y-84634253D02*
X23875385Y-84681872D01*
X24589671Y-84586634D02*
X24589671Y-85300919D01*
X24589671Y-85300919D02*
X24542052Y-85443776D01*
X24542052Y-85443776D02*
X24446814Y-85539015D01*
X24446814Y-85539015D02*
X24303957Y-85586634D01*
X24303957Y-85586634D02*
X24208719Y-85586634D01*
X25542052Y-85586634D02*
X25065862Y-85586634D01*
X25065862Y-85586634D02*
X25065862Y-84586634D01*
X26446814Y-85491395D02*
X26399195Y-85539015D01*
X26399195Y-85539015D02*
X26256338Y-85586634D01*
X26256338Y-85586634D02*
X26161100Y-85586634D01*
X26161100Y-85586634D02*
X26018243Y-85539015D01*
X26018243Y-85539015D02*
X25923005Y-85443776D01*
X25923005Y-85443776D02*
X25875386Y-85348538D01*
X25875386Y-85348538D02*
X25827767Y-85158062D01*
X25827767Y-85158062D02*
X25827767Y-85015205D01*
X25827767Y-85015205D02*
X25875386Y-84824729D01*
X25875386Y-84824729D02*
X25923005Y-84729491D01*
X25923005Y-84729491D02*
X26018243Y-84634253D01*
X26018243Y-84634253D02*
X26161100Y-84586634D01*
X26161100Y-84586634D02*
X26256338Y-84586634D01*
X26256338Y-84586634D02*
X26399195Y-84634253D01*
X26399195Y-84634253D02*
X26446814Y-84681872D01*
X114092928Y-20359771D02*
X114557214Y-20359771D01*
X114557214Y-20359771D02*
X114307214Y-20645485D01*
X114307214Y-20645485D02*
X114414357Y-20645485D01*
X114414357Y-20645485D02*
X114485786Y-20681199D01*
X114485786Y-20681199D02*
X114521500Y-20716914D01*
X114521500Y-20716914D02*
X114557214Y-20788342D01*
X114557214Y-20788342D02*
X114557214Y-20966914D01*
X114557214Y-20966914D02*
X114521500Y-21038342D01*
X114521500Y-21038342D02*
X114485786Y-21074057D01*
X114485786Y-21074057D02*
X114414357Y-21109771D01*
X114414357Y-21109771D02*
X114200071Y-21109771D01*
X114200071Y-21109771D02*
X114128643Y-21074057D01*
X114128643Y-21074057D02*
X114092928Y-21038342D01*
X114807214Y-20609771D02*
X114985786Y-21109771D01*
X114985786Y-21109771D02*
X115164357Y-20609771D01*
X115378643Y-20359771D02*
X115842929Y-20359771D01*
X115842929Y-20359771D02*
X115592929Y-20645485D01*
X115592929Y-20645485D02*
X115700072Y-20645485D01*
X115700072Y-20645485D02*
X115771501Y-20681199D01*
X115771501Y-20681199D02*
X115807215Y-20716914D01*
X115807215Y-20716914D02*
X115842929Y-20788342D01*
X115842929Y-20788342D02*
X115842929Y-20966914D01*
X115842929Y-20966914D02*
X115807215Y-21038342D01*
X115807215Y-21038342D02*
X115771501Y-21074057D01*
X115771501Y-21074057D02*
X115700072Y-21109771D01*
X115700072Y-21109771D02*
X115485786Y-21109771D01*
X115485786Y-21109771D02*
X115414358Y-21074057D01*
X115414358Y-21074057D02*
X115378643Y-21038342D01*
X113985786Y-22317229D02*
X113985786Y-21567229D01*
X113985786Y-21567229D02*
X114271500Y-21567229D01*
X114271500Y-21567229D02*
X114342929Y-21602943D01*
X114342929Y-21602943D02*
X114378643Y-21638657D01*
X114378643Y-21638657D02*
X114414357Y-21710086D01*
X114414357Y-21710086D02*
X114414357Y-21817229D01*
X114414357Y-21817229D02*
X114378643Y-21888657D01*
X114378643Y-21888657D02*
X114342929Y-21924372D01*
X114342929Y-21924372D02*
X114271500Y-21960086D01*
X114271500Y-21960086D02*
X113985786Y-21960086D01*
X114664357Y-21567229D02*
X114842929Y-22317229D01*
X114842929Y-22317229D02*
X114985786Y-21781515D01*
X114985786Y-21781515D02*
X115128643Y-22317229D01*
X115128643Y-22317229D02*
X115307215Y-21567229D01*
X116021500Y-22317229D02*
X115771500Y-21960086D01*
X115592929Y-22317229D02*
X115592929Y-21567229D01*
X115592929Y-21567229D02*
X115878643Y-21567229D01*
X115878643Y-21567229D02*
X115950072Y-21602943D01*
X115950072Y-21602943D02*
X115985786Y-21638657D01*
X115985786Y-21638657D02*
X116021500Y-21710086D01*
X116021500Y-21710086D02*
X116021500Y-21817229D01*
X116021500Y-21817229D02*
X115985786Y-21888657D01*
X115985786Y-21888657D02*
X115950072Y-21924372D01*
X115950072Y-21924372D02*
X115878643Y-21960086D01*
X115878643Y-21960086D02*
X115592929Y-21960086D01*
X23410586Y-48557949D02*
X23458205Y-48415092D01*
X23458205Y-48415092D02*
X23458205Y-48176997D01*
X23458205Y-48176997D02*
X23410586Y-48081759D01*
X23410586Y-48081759D02*
X23362966Y-48034140D01*
X23362966Y-48034140D02*
X23267728Y-47986521D01*
X23267728Y-47986521D02*
X23172490Y-47986521D01*
X23172490Y-47986521D02*
X23077252Y-48034140D01*
X23077252Y-48034140D02*
X23029633Y-48081759D01*
X23029633Y-48081759D02*
X22982014Y-48176997D01*
X22982014Y-48176997D02*
X22934395Y-48367473D01*
X22934395Y-48367473D02*
X22886776Y-48462711D01*
X22886776Y-48462711D02*
X22839157Y-48510330D01*
X22839157Y-48510330D02*
X22743919Y-48557949D01*
X22743919Y-48557949D02*
X22648681Y-48557949D01*
X22648681Y-48557949D02*
X22553443Y-48510330D01*
X22553443Y-48510330D02*
X22505824Y-48462711D01*
X22505824Y-48462711D02*
X22458205Y-48367473D01*
X22458205Y-48367473D02*
X22458205Y-48129378D01*
X22458205Y-48129378D02*
X22505824Y-47986521D01*
X23458205Y-47034140D02*
X23458205Y-47605568D01*
X23458205Y-47319854D02*
X22458205Y-47319854D01*
X22458205Y-47319854D02*
X22601062Y-47415092D01*
X22601062Y-47415092D02*
X22696300Y-47510330D01*
X22696300Y-47510330D02*
X22743919Y-47605568D01*
X78549990Y-60226119D02*
X78573800Y-60154691D01*
X78573800Y-60154691D02*
X78597609Y-60130881D01*
X78597609Y-60130881D02*
X78645228Y-60107072D01*
X78645228Y-60107072D02*
X78716657Y-60107072D01*
X78716657Y-60107072D02*
X78764276Y-60130881D01*
X78764276Y-60130881D02*
X78788086Y-60154691D01*
X78788086Y-60154691D02*
X78811895Y-60202310D01*
X78811895Y-60202310D02*
X78811895Y-60392786D01*
X78811895Y-60392786D02*
X78311895Y-60392786D01*
X78311895Y-60392786D02*
X78311895Y-60226119D01*
X78311895Y-60226119D02*
X78335705Y-60178500D01*
X78335705Y-60178500D02*
X78359514Y-60154691D01*
X78359514Y-60154691D02*
X78407133Y-60130881D01*
X78407133Y-60130881D02*
X78454752Y-60130881D01*
X78454752Y-60130881D02*
X78502371Y-60154691D01*
X78502371Y-60154691D02*
X78526181Y-60178500D01*
X78526181Y-60178500D02*
X78549990Y-60226119D01*
X78549990Y-60226119D02*
X78549990Y-60392786D01*
X78478562Y-59940405D02*
X78811895Y-59821357D01*
X78478562Y-59702310D02*
X78811895Y-59821357D01*
X78811895Y-59821357D02*
X78930943Y-59868976D01*
X78930943Y-59868976D02*
X78954752Y-59892786D01*
X78954752Y-59892786D02*
X78978562Y-59940405D01*
X78478562Y-59511834D02*
X78978562Y-59511834D01*
X78502371Y-59511834D02*
X78478562Y-59464215D01*
X78478562Y-59464215D02*
X78478562Y-59368977D01*
X78478562Y-59368977D02*
X78502371Y-59321358D01*
X78502371Y-59321358D02*
X78526181Y-59297548D01*
X78526181Y-59297548D02*
X78573800Y-59273739D01*
X78573800Y-59273739D02*
X78716657Y-59273739D01*
X78716657Y-59273739D02*
X78764276Y-59297548D01*
X78764276Y-59297548D02*
X78788086Y-59321358D01*
X78788086Y-59321358D02*
X78811895Y-59368977D01*
X78811895Y-59368977D02*
X78811895Y-59464215D01*
X78811895Y-59464215D02*
X78788086Y-59511834D01*
X78811895Y-58845167D02*
X78549990Y-58845167D01*
X78549990Y-58845167D02*
X78502371Y-58868977D01*
X78502371Y-58868977D02*
X78478562Y-58916596D01*
X78478562Y-58916596D02*
X78478562Y-59011834D01*
X78478562Y-59011834D02*
X78502371Y-59059453D01*
X78788086Y-58845167D02*
X78811895Y-58892786D01*
X78811895Y-58892786D02*
X78811895Y-59011834D01*
X78811895Y-59011834D02*
X78788086Y-59059453D01*
X78788086Y-59059453D02*
X78740466Y-59083262D01*
X78740466Y-59083262D02*
X78692847Y-59083262D01*
X78692847Y-59083262D02*
X78645228Y-59059453D01*
X78645228Y-59059453D02*
X78621419Y-59011834D01*
X78621419Y-59011834D02*
X78621419Y-58892786D01*
X78621419Y-58892786D02*
X78597609Y-58845167D01*
X78788086Y-58630881D02*
X78811895Y-58583262D01*
X78811895Y-58583262D02*
X78811895Y-58488024D01*
X78811895Y-58488024D02*
X78788086Y-58440405D01*
X78788086Y-58440405D02*
X78740466Y-58416596D01*
X78740466Y-58416596D02*
X78716657Y-58416596D01*
X78716657Y-58416596D02*
X78669038Y-58440405D01*
X78669038Y-58440405D02*
X78645228Y-58488024D01*
X78645228Y-58488024D02*
X78645228Y-58559453D01*
X78645228Y-58559453D02*
X78621419Y-58607072D01*
X78621419Y-58607072D02*
X78573800Y-58630881D01*
X78573800Y-58630881D02*
X78549990Y-58630881D01*
X78549990Y-58630881D02*
X78502371Y-58607072D01*
X78502371Y-58607072D02*
X78478562Y-58559453D01*
X78478562Y-58559453D02*
X78478562Y-58488024D01*
X78478562Y-58488024D02*
X78502371Y-58440405D01*
X78788086Y-58226119D02*
X78811895Y-58178500D01*
X78811895Y-58178500D02*
X78811895Y-58083262D01*
X78811895Y-58083262D02*
X78788086Y-58035643D01*
X78788086Y-58035643D02*
X78740466Y-58011834D01*
X78740466Y-58011834D02*
X78716657Y-58011834D01*
X78716657Y-58011834D02*
X78669038Y-58035643D01*
X78669038Y-58035643D02*
X78645228Y-58083262D01*
X78645228Y-58083262D02*
X78645228Y-58154691D01*
X78645228Y-58154691D02*
X78621419Y-58202310D01*
X78621419Y-58202310D02*
X78573800Y-58226119D01*
X78573800Y-58226119D02*
X78549990Y-58226119D01*
X78549990Y-58226119D02*
X78502371Y-58202310D01*
X78502371Y-58202310D02*
X78478562Y-58154691D01*
X78478562Y-58154691D02*
X78478562Y-58083262D01*
X78478562Y-58083262D02*
X78502371Y-58035643D01*
X24905824Y-80386521D02*
X24858205Y-80481759D01*
X24858205Y-80481759D02*
X24858205Y-80624616D01*
X24858205Y-80624616D02*
X24905824Y-80767473D01*
X24905824Y-80767473D02*
X25001062Y-80862711D01*
X25001062Y-80862711D02*
X25096300Y-80910330D01*
X25096300Y-80910330D02*
X25286776Y-80957949D01*
X25286776Y-80957949D02*
X25429633Y-80957949D01*
X25429633Y-80957949D02*
X25620109Y-80910330D01*
X25620109Y-80910330D02*
X25715347Y-80862711D01*
X25715347Y-80862711D02*
X25810586Y-80767473D01*
X25810586Y-80767473D02*
X25858205Y-80624616D01*
X25858205Y-80624616D02*
X25858205Y-80529378D01*
X25858205Y-80529378D02*
X25810586Y-80386521D01*
X25810586Y-80386521D02*
X25762966Y-80338902D01*
X25762966Y-80338902D02*
X25429633Y-80338902D01*
X25429633Y-80338902D02*
X25429633Y-80529378D01*
X25858205Y-79910330D02*
X24858205Y-79910330D01*
X24858205Y-79910330D02*
X25858205Y-79338902D01*
X25858205Y-79338902D02*
X24858205Y-79338902D01*
X25858205Y-78862711D02*
X24858205Y-78862711D01*
X24858205Y-78862711D02*
X24858205Y-78624616D01*
X24858205Y-78624616D02*
X24905824Y-78481759D01*
X24905824Y-78481759D02*
X25001062Y-78386521D01*
X25001062Y-78386521D02*
X25096300Y-78338902D01*
X25096300Y-78338902D02*
X25286776Y-78291283D01*
X25286776Y-78291283D02*
X25429633Y-78291283D01*
X25429633Y-78291283D02*
X25620109Y-78338902D01*
X25620109Y-78338902D02*
X25715347Y-78386521D01*
X25715347Y-78386521D02*
X25810586Y-78481759D01*
X25810586Y-78481759D02*
X25858205Y-78624616D01*
X25858205Y-78624616D02*
X25858205Y-78862711D01*
X22586062Y-72129378D02*
X22919395Y-72129378D01*
X22633681Y-72129378D02*
X22609871Y-72105568D01*
X22609871Y-72105568D02*
X22586062Y-72057949D01*
X22586062Y-72057949D02*
X22586062Y-71986521D01*
X22586062Y-71986521D02*
X22609871Y-71938902D01*
X22609871Y-71938902D02*
X22657490Y-71915092D01*
X22657490Y-71915092D02*
X22919395Y-71915092D01*
X22919395Y-71605568D02*
X22895586Y-71653187D01*
X22895586Y-71653187D02*
X22871776Y-71676997D01*
X22871776Y-71676997D02*
X22824157Y-71700806D01*
X22824157Y-71700806D02*
X22681300Y-71700806D01*
X22681300Y-71700806D02*
X22633681Y-71676997D01*
X22633681Y-71676997D02*
X22609871Y-71653187D01*
X22609871Y-71653187D02*
X22586062Y-71605568D01*
X22586062Y-71605568D02*
X22586062Y-71534140D01*
X22586062Y-71534140D02*
X22609871Y-71486521D01*
X22609871Y-71486521D02*
X22633681Y-71462711D01*
X22633681Y-71462711D02*
X22681300Y-71438902D01*
X22681300Y-71438902D02*
X22824157Y-71438902D01*
X22824157Y-71438902D02*
X22871776Y-71462711D01*
X22871776Y-71462711D02*
X22895586Y-71486521D01*
X22895586Y-71486521D02*
X22919395Y-71534140D01*
X22919395Y-71534140D02*
X22919395Y-71605568D01*
X22586062Y-71224616D02*
X22919395Y-71224616D01*
X22633681Y-71224616D02*
X22609871Y-71200806D01*
X22609871Y-71200806D02*
X22586062Y-71153187D01*
X22586062Y-71153187D02*
X22586062Y-71081759D01*
X22586062Y-71081759D02*
X22609871Y-71034140D01*
X22609871Y-71034140D02*
X22657490Y-71010330D01*
X22657490Y-71010330D02*
X22919395Y-71010330D01*
X22919395Y-70391283D02*
X22586062Y-70391283D01*
X22633681Y-70391283D02*
X22609871Y-70367473D01*
X22609871Y-70367473D02*
X22586062Y-70319854D01*
X22586062Y-70319854D02*
X22586062Y-70248426D01*
X22586062Y-70248426D02*
X22609871Y-70200807D01*
X22609871Y-70200807D02*
X22657490Y-70176997D01*
X22657490Y-70176997D02*
X22919395Y-70176997D01*
X22657490Y-70176997D02*
X22609871Y-70153188D01*
X22609871Y-70153188D02*
X22586062Y-70105569D01*
X22586062Y-70105569D02*
X22586062Y-70034140D01*
X22586062Y-70034140D02*
X22609871Y-69986521D01*
X22609871Y-69986521D02*
X22657490Y-69962711D01*
X22657490Y-69962711D02*
X22919395Y-69962711D01*
X22586062Y-69510330D02*
X22919395Y-69510330D01*
X22586062Y-69724616D02*
X22847966Y-69724616D01*
X22847966Y-69724616D02*
X22895586Y-69700806D01*
X22895586Y-69700806D02*
X22919395Y-69653187D01*
X22919395Y-69653187D02*
X22919395Y-69581759D01*
X22919395Y-69581759D02*
X22895586Y-69534140D01*
X22895586Y-69534140D02*
X22871776Y-69510330D01*
X22919395Y-69200806D02*
X22895586Y-69248425D01*
X22895586Y-69248425D02*
X22847966Y-69272235D01*
X22847966Y-69272235D02*
X22419395Y-69272235D01*
X22586062Y-69081758D02*
X22586062Y-68891282D01*
X22419395Y-69010330D02*
X22847966Y-69010330D01*
X22847966Y-69010330D02*
X22895586Y-68986520D01*
X22895586Y-68986520D02*
X22919395Y-68938901D01*
X22919395Y-68938901D02*
X22919395Y-68891282D01*
X22919395Y-68724616D02*
X22586062Y-68724616D01*
X22419395Y-68724616D02*
X22443205Y-68748425D01*
X22443205Y-68748425D02*
X22467014Y-68724616D01*
X22467014Y-68724616D02*
X22443205Y-68700806D01*
X22443205Y-68700806D02*
X22419395Y-68724616D01*
X22419395Y-68724616D02*
X22467014Y-68724616D01*
X22586062Y-68486521D02*
X23086062Y-68486521D01*
X22609871Y-68486521D02*
X22586062Y-68438902D01*
X22586062Y-68438902D02*
X22586062Y-68343664D01*
X22586062Y-68343664D02*
X22609871Y-68296045D01*
X22609871Y-68296045D02*
X22633681Y-68272235D01*
X22633681Y-68272235D02*
X22681300Y-68248426D01*
X22681300Y-68248426D02*
X22824157Y-68248426D01*
X22824157Y-68248426D02*
X22871776Y-68272235D01*
X22871776Y-68272235D02*
X22895586Y-68296045D01*
X22895586Y-68296045D02*
X22919395Y-68343664D01*
X22919395Y-68343664D02*
X22919395Y-68438902D01*
X22919395Y-68438902D02*
X22895586Y-68486521D01*
X22919395Y-67962711D02*
X22895586Y-68010330D01*
X22895586Y-68010330D02*
X22847966Y-68034140D01*
X22847966Y-68034140D02*
X22419395Y-68034140D01*
X22895586Y-67581759D02*
X22919395Y-67629378D01*
X22919395Y-67629378D02*
X22919395Y-67724616D01*
X22919395Y-67724616D02*
X22895586Y-67772235D01*
X22895586Y-67772235D02*
X22847966Y-67796044D01*
X22847966Y-67796044D02*
X22657490Y-67796044D01*
X22657490Y-67796044D02*
X22609871Y-67772235D01*
X22609871Y-67772235D02*
X22586062Y-67724616D01*
X22586062Y-67724616D02*
X22586062Y-67629378D01*
X22586062Y-67629378D02*
X22609871Y-67581759D01*
X22609871Y-67581759D02*
X22657490Y-67557949D01*
X22657490Y-67557949D02*
X22705109Y-67557949D01*
X22705109Y-67557949D02*
X22752728Y-67796044D01*
X22919395Y-67391283D02*
X22586062Y-67129378D01*
X22586062Y-67391283D02*
X22919395Y-67129378D01*
X100665860Y-39986634D02*
X100189670Y-39986634D01*
X100189670Y-39986634D02*
X100142051Y-40462824D01*
X100142051Y-40462824D02*
X100189670Y-40415205D01*
X100189670Y-40415205D02*
X100284908Y-40367586D01*
X100284908Y-40367586D02*
X100523003Y-40367586D01*
X100523003Y-40367586D02*
X100618241Y-40415205D01*
X100618241Y-40415205D02*
X100665860Y-40462824D01*
X100665860Y-40462824D02*
X100713479Y-40558062D01*
X100713479Y-40558062D02*
X100713479Y-40796157D01*
X100713479Y-40796157D02*
X100665860Y-40891395D01*
X100665860Y-40891395D02*
X100618241Y-40939015D01*
X100618241Y-40939015D02*
X100523003Y-40986634D01*
X100523003Y-40986634D02*
X100284908Y-40986634D01*
X100284908Y-40986634D02*
X100189670Y-40939015D01*
X100189670Y-40939015D02*
X100142051Y-40891395D01*
X101094432Y-40700919D02*
X101570622Y-40700919D01*
X100999194Y-40986634D02*
X101332527Y-39986634D01*
X101332527Y-39986634D02*
X101665860Y-40986634D01*
X23410586Y-64257949D02*
X23458205Y-64115092D01*
X23458205Y-64115092D02*
X23458205Y-63876997D01*
X23458205Y-63876997D02*
X23410586Y-63781759D01*
X23410586Y-63781759D02*
X23362966Y-63734140D01*
X23362966Y-63734140D02*
X23267728Y-63686521D01*
X23267728Y-63686521D02*
X23172490Y-63686521D01*
X23172490Y-63686521D02*
X23077252Y-63734140D01*
X23077252Y-63734140D02*
X23029633Y-63781759D01*
X23029633Y-63781759D02*
X22982014Y-63876997D01*
X22982014Y-63876997D02*
X22934395Y-64067473D01*
X22934395Y-64067473D02*
X22886776Y-64162711D01*
X22886776Y-64162711D02*
X22839157Y-64210330D01*
X22839157Y-64210330D02*
X22743919Y-64257949D01*
X22743919Y-64257949D02*
X22648681Y-64257949D01*
X22648681Y-64257949D02*
X22553443Y-64210330D01*
X22553443Y-64210330D02*
X22505824Y-64162711D01*
X22505824Y-64162711D02*
X22458205Y-64067473D01*
X22458205Y-64067473D02*
X22458205Y-63829378D01*
X22458205Y-63829378D02*
X22505824Y-63686521D01*
X22458205Y-63353187D02*
X22458205Y-62734140D01*
X22458205Y-62734140D02*
X22839157Y-63067473D01*
X22839157Y-63067473D02*
X22839157Y-62924616D01*
X22839157Y-62924616D02*
X22886776Y-62829378D01*
X22886776Y-62829378D02*
X22934395Y-62781759D01*
X22934395Y-62781759D02*
X23029633Y-62734140D01*
X23029633Y-62734140D02*
X23267728Y-62734140D01*
X23267728Y-62734140D02*
X23362966Y-62781759D01*
X23362966Y-62781759D02*
X23410586Y-62829378D01*
X23410586Y-62829378D02*
X23458205Y-62924616D01*
X23458205Y-62924616D02*
X23458205Y-63210330D01*
X23458205Y-63210330D02*
X23410586Y-63305568D01*
X23410586Y-63305568D02*
X23362966Y-63353187D01*
X85265860Y-40086634D02*
X84789670Y-40086634D01*
X84789670Y-40086634D02*
X84742051Y-40562824D01*
X84742051Y-40562824D02*
X84789670Y-40515205D01*
X84789670Y-40515205D02*
X84884908Y-40467586D01*
X84884908Y-40467586D02*
X85123003Y-40467586D01*
X85123003Y-40467586D02*
X85218241Y-40515205D01*
X85218241Y-40515205D02*
X85265860Y-40562824D01*
X85265860Y-40562824D02*
X85313479Y-40658062D01*
X85313479Y-40658062D02*
X85313479Y-40896157D01*
X85313479Y-40896157D02*
X85265860Y-40991395D01*
X85265860Y-40991395D02*
X85218241Y-41039015D01*
X85218241Y-41039015D02*
X85123003Y-41086634D01*
X85123003Y-41086634D02*
X84884908Y-41086634D01*
X84884908Y-41086634D02*
X84789670Y-41039015D01*
X84789670Y-41039015D02*
X84742051Y-40991395D01*
X85694432Y-40800919D02*
X86170622Y-40800919D01*
X85599194Y-41086634D02*
X85932527Y-40086634D01*
X85932527Y-40086634D02*
X86265860Y-41086634D01*
X37742051Y-47339015D02*
X37884908Y-47386634D01*
X37884908Y-47386634D02*
X38123003Y-47386634D01*
X38123003Y-47386634D02*
X38218241Y-47339015D01*
X38218241Y-47339015D02*
X38265860Y-47291395D01*
X38265860Y-47291395D02*
X38313479Y-47196157D01*
X38313479Y-47196157D02*
X38313479Y-47100919D01*
X38313479Y-47100919D02*
X38265860Y-47005681D01*
X38265860Y-47005681D02*
X38218241Y-46958062D01*
X38218241Y-46958062D02*
X38123003Y-46910443D01*
X38123003Y-46910443D02*
X37932527Y-46862824D01*
X37932527Y-46862824D02*
X37837289Y-46815205D01*
X37837289Y-46815205D02*
X37789670Y-46767586D01*
X37789670Y-46767586D02*
X37742051Y-46672348D01*
X37742051Y-46672348D02*
X37742051Y-46577110D01*
X37742051Y-46577110D02*
X37789670Y-46481872D01*
X37789670Y-46481872D02*
X37837289Y-46434253D01*
X37837289Y-46434253D02*
X37932527Y-46386634D01*
X37932527Y-46386634D02*
X38170622Y-46386634D01*
X38170622Y-46386634D02*
X38313479Y-46434253D01*
X38742051Y-47386634D02*
X38742051Y-46386634D01*
X38742051Y-46386634D02*
X38980146Y-46386634D01*
X38980146Y-46386634D02*
X39123003Y-46434253D01*
X39123003Y-46434253D02*
X39218241Y-46529491D01*
X39218241Y-46529491D02*
X39265860Y-46624729D01*
X39265860Y-46624729D02*
X39313479Y-46815205D01*
X39313479Y-46815205D02*
X39313479Y-46958062D01*
X39313479Y-46958062D02*
X39265860Y-47148538D01*
X39265860Y-47148538D02*
X39218241Y-47243776D01*
X39218241Y-47243776D02*
X39123003Y-47339015D01*
X39123003Y-47339015D02*
X38980146Y-47386634D01*
X38980146Y-47386634D02*
X38742051Y-47386634D01*
X39694432Y-47100919D02*
X40170622Y-47100919D01*
X39599194Y-47386634D02*
X39932527Y-46386634D01*
X39932527Y-46386634D02*
X40265860Y-47386634D01*
X114565860Y-35386634D02*
X114089670Y-35386634D01*
X114089670Y-35386634D02*
X114042051Y-35862824D01*
X114042051Y-35862824D02*
X114089670Y-35815205D01*
X114089670Y-35815205D02*
X114184908Y-35767586D01*
X114184908Y-35767586D02*
X114423003Y-35767586D01*
X114423003Y-35767586D02*
X114518241Y-35815205D01*
X114518241Y-35815205D02*
X114565860Y-35862824D01*
X114565860Y-35862824D02*
X114613479Y-35958062D01*
X114613479Y-35958062D02*
X114613479Y-36196157D01*
X114613479Y-36196157D02*
X114565860Y-36291395D01*
X114565860Y-36291395D02*
X114518241Y-36339015D01*
X114518241Y-36339015D02*
X114423003Y-36386634D01*
X114423003Y-36386634D02*
X114184908Y-36386634D01*
X114184908Y-36386634D02*
X114089670Y-36339015D01*
X114089670Y-36339015D02*
X114042051Y-36291395D01*
X114899194Y-35386634D02*
X115232527Y-36386634D01*
X115232527Y-36386634D02*
X115565860Y-35386634D01*
X111989670Y-33405681D02*
X112751575Y-33405681D01*
X112370622Y-33786634D02*
X112370622Y-33024729D01*
X30770622Y-74947824D02*
X30770622Y-74614491D01*
X30770622Y-74662110D02*
X30794432Y-74638300D01*
X30794432Y-74638300D02*
X30842051Y-74614491D01*
X30842051Y-74614491D02*
X30913479Y-74614491D01*
X30913479Y-74614491D02*
X30961098Y-74638300D01*
X30961098Y-74638300D02*
X30984908Y-74685919D01*
X30984908Y-74685919D02*
X30984908Y-74947824D01*
X30984908Y-74685919D02*
X31008717Y-74638300D01*
X31008717Y-74638300D02*
X31056336Y-74614491D01*
X31056336Y-74614491D02*
X31127765Y-74614491D01*
X31127765Y-74614491D02*
X31175384Y-74638300D01*
X31175384Y-74638300D02*
X31199194Y-74685919D01*
X31199194Y-74685919D02*
X31199194Y-74947824D01*
X31651575Y-74947824D02*
X31651575Y-74685919D01*
X31651575Y-74685919D02*
X31627765Y-74638300D01*
X31627765Y-74638300D02*
X31580146Y-74614491D01*
X31580146Y-74614491D02*
X31484908Y-74614491D01*
X31484908Y-74614491D02*
X31437289Y-74638300D01*
X31651575Y-74924015D02*
X31603956Y-74947824D01*
X31603956Y-74947824D02*
X31484908Y-74947824D01*
X31484908Y-74947824D02*
X31437289Y-74924015D01*
X31437289Y-74924015D02*
X31413480Y-74876395D01*
X31413480Y-74876395D02*
X31413480Y-74828776D01*
X31413480Y-74828776D02*
X31437289Y-74781157D01*
X31437289Y-74781157D02*
X31484908Y-74757348D01*
X31484908Y-74757348D02*
X31603956Y-74757348D01*
X31603956Y-74757348D02*
X31651575Y-74733538D01*
X32103956Y-74614491D02*
X32103956Y-75019253D01*
X32103956Y-75019253D02*
X32080146Y-75066872D01*
X32080146Y-75066872D02*
X32056337Y-75090681D01*
X32056337Y-75090681D02*
X32008718Y-75114491D01*
X32008718Y-75114491D02*
X31937289Y-75114491D01*
X31937289Y-75114491D02*
X31889670Y-75090681D01*
X32103956Y-74924015D02*
X32056337Y-74947824D01*
X32056337Y-74947824D02*
X31961099Y-74947824D01*
X31961099Y-74947824D02*
X31913480Y-74924015D01*
X31913480Y-74924015D02*
X31889670Y-74900205D01*
X31889670Y-74900205D02*
X31865861Y-74852586D01*
X31865861Y-74852586D02*
X31865861Y-74709729D01*
X31865861Y-74709729D02*
X31889670Y-74662110D01*
X31889670Y-74662110D02*
X31913480Y-74638300D01*
X31913480Y-74638300D02*
X31961099Y-74614491D01*
X31961099Y-74614491D02*
X32056337Y-74614491D01*
X32056337Y-74614491D02*
X32103956Y-74638300D01*
X32342051Y-74947824D02*
X32342051Y-74614491D01*
X32342051Y-74447824D02*
X32318242Y-74471634D01*
X32318242Y-74471634D02*
X32342051Y-74495443D01*
X32342051Y-74495443D02*
X32365861Y-74471634D01*
X32365861Y-74471634D02*
X32342051Y-74447824D01*
X32342051Y-74447824D02*
X32342051Y-74495443D01*
X32794432Y-74924015D02*
X32746813Y-74947824D01*
X32746813Y-74947824D02*
X32651575Y-74947824D01*
X32651575Y-74947824D02*
X32603956Y-74924015D01*
X32603956Y-74924015D02*
X32580146Y-74900205D01*
X32580146Y-74900205D02*
X32556337Y-74852586D01*
X32556337Y-74852586D02*
X32556337Y-74709729D01*
X32556337Y-74709729D02*
X32580146Y-74662110D01*
X32580146Y-74662110D02*
X32603956Y-74638300D01*
X32603956Y-74638300D02*
X32651575Y-74614491D01*
X32651575Y-74614491D02*
X32746813Y-74614491D01*
X32746813Y-74614491D02*
X32794432Y-74638300D01*
X40842051Y-47339015D02*
X40984908Y-47386634D01*
X40984908Y-47386634D02*
X41223003Y-47386634D01*
X41223003Y-47386634D02*
X41318241Y-47339015D01*
X41318241Y-47339015D02*
X41365860Y-47291395D01*
X41365860Y-47291395D02*
X41413479Y-47196157D01*
X41413479Y-47196157D02*
X41413479Y-47100919D01*
X41413479Y-47100919D02*
X41365860Y-47005681D01*
X41365860Y-47005681D02*
X41318241Y-46958062D01*
X41318241Y-46958062D02*
X41223003Y-46910443D01*
X41223003Y-46910443D02*
X41032527Y-46862824D01*
X41032527Y-46862824D02*
X40937289Y-46815205D01*
X40937289Y-46815205D02*
X40889670Y-46767586D01*
X40889670Y-46767586D02*
X40842051Y-46672348D01*
X40842051Y-46672348D02*
X40842051Y-46577110D01*
X40842051Y-46577110D02*
X40889670Y-46481872D01*
X40889670Y-46481872D02*
X40937289Y-46434253D01*
X40937289Y-46434253D02*
X41032527Y-46386634D01*
X41032527Y-46386634D02*
X41270622Y-46386634D01*
X41270622Y-46386634D02*
X41413479Y-46434253D01*
X42413479Y-47291395D02*
X42365860Y-47339015D01*
X42365860Y-47339015D02*
X42223003Y-47386634D01*
X42223003Y-47386634D02*
X42127765Y-47386634D01*
X42127765Y-47386634D02*
X41984908Y-47339015D01*
X41984908Y-47339015D02*
X41889670Y-47243776D01*
X41889670Y-47243776D02*
X41842051Y-47148538D01*
X41842051Y-47148538D02*
X41794432Y-46958062D01*
X41794432Y-46958062D02*
X41794432Y-46815205D01*
X41794432Y-46815205D02*
X41842051Y-46624729D01*
X41842051Y-46624729D02*
X41889670Y-46529491D01*
X41889670Y-46529491D02*
X41984908Y-46434253D01*
X41984908Y-46434253D02*
X42127765Y-46386634D01*
X42127765Y-46386634D02*
X42223003Y-46386634D01*
X42223003Y-46386634D02*
X42365860Y-46434253D01*
X42365860Y-46434253D02*
X42413479Y-46481872D01*
X43318241Y-47386634D02*
X42842051Y-47386634D01*
X42842051Y-47386634D02*
X42842051Y-46386634D01*
X119965860Y-41186634D02*
X119489670Y-41186634D01*
X119489670Y-41186634D02*
X119442051Y-41662824D01*
X119442051Y-41662824D02*
X119489670Y-41615205D01*
X119489670Y-41615205D02*
X119584908Y-41567586D01*
X119584908Y-41567586D02*
X119823003Y-41567586D01*
X119823003Y-41567586D02*
X119918241Y-41615205D01*
X119918241Y-41615205D02*
X119965860Y-41662824D01*
X119965860Y-41662824D02*
X120013479Y-41758062D01*
X120013479Y-41758062D02*
X120013479Y-41996157D01*
X120013479Y-41996157D02*
X119965860Y-42091395D01*
X119965860Y-42091395D02*
X119918241Y-42139015D01*
X119918241Y-42139015D02*
X119823003Y-42186634D01*
X119823003Y-42186634D02*
X119584908Y-42186634D01*
X119584908Y-42186634D02*
X119489670Y-42139015D01*
X119489670Y-42139015D02*
X119442051Y-42091395D01*
X120346813Y-41519967D02*
X120584908Y-42186634D01*
X120584908Y-42186634D02*
X120823003Y-41519967D01*
X121965861Y-42186634D02*
X121965861Y-41186634D01*
X121965861Y-41186634D02*
X122346813Y-41186634D01*
X122346813Y-41186634D02*
X122442051Y-41234253D01*
X122442051Y-41234253D02*
X122489670Y-41281872D01*
X122489670Y-41281872D02*
X122537289Y-41377110D01*
X122537289Y-41377110D02*
X122537289Y-41519967D01*
X122537289Y-41519967D02*
X122489670Y-41615205D01*
X122489670Y-41615205D02*
X122442051Y-41662824D01*
X122442051Y-41662824D02*
X122346813Y-41710443D01*
X122346813Y-41710443D02*
X121965861Y-41710443D01*
X122870623Y-41186634D02*
X123108718Y-42186634D01*
X123108718Y-42186634D02*
X123299194Y-41472348D01*
X123299194Y-41472348D02*
X123489670Y-42186634D01*
X123489670Y-42186634D02*
X123727766Y-41186634D01*
X124680146Y-42186634D02*
X124346813Y-41710443D01*
X124108718Y-42186634D02*
X124108718Y-41186634D01*
X124108718Y-41186634D02*
X124489670Y-41186634D01*
X124489670Y-41186634D02*
X124584908Y-41234253D01*
X124584908Y-41234253D02*
X124632527Y-41281872D01*
X124632527Y-41281872D02*
X124680146Y-41377110D01*
X124680146Y-41377110D02*
X124680146Y-41519967D01*
X124680146Y-41519967D02*
X124632527Y-41615205D01*
X124632527Y-41615205D02*
X124584908Y-41662824D01*
X124584908Y-41662824D02*
X124489670Y-41710443D01*
X124489670Y-41710443D02*
X124108718Y-41710443D01*
X23510586Y-40657949D02*
X23558205Y-40515092D01*
X23558205Y-40515092D02*
X23558205Y-40276997D01*
X23558205Y-40276997D02*
X23510586Y-40181759D01*
X23510586Y-40181759D02*
X23462966Y-40134140D01*
X23462966Y-40134140D02*
X23367728Y-40086521D01*
X23367728Y-40086521D02*
X23272490Y-40086521D01*
X23272490Y-40086521D02*
X23177252Y-40134140D01*
X23177252Y-40134140D02*
X23129633Y-40181759D01*
X23129633Y-40181759D02*
X23082014Y-40276997D01*
X23082014Y-40276997D02*
X23034395Y-40467473D01*
X23034395Y-40467473D02*
X22986776Y-40562711D01*
X22986776Y-40562711D02*
X22939157Y-40610330D01*
X22939157Y-40610330D02*
X22843919Y-40657949D01*
X22843919Y-40657949D02*
X22748681Y-40657949D01*
X22748681Y-40657949D02*
X22653443Y-40610330D01*
X22653443Y-40610330D02*
X22605824Y-40562711D01*
X22605824Y-40562711D02*
X22558205Y-40467473D01*
X22558205Y-40467473D02*
X22558205Y-40229378D01*
X22558205Y-40229378D02*
X22605824Y-40086521D01*
X22558205Y-39467473D02*
X22558205Y-39372235D01*
X22558205Y-39372235D02*
X22605824Y-39276997D01*
X22605824Y-39276997D02*
X22653443Y-39229378D01*
X22653443Y-39229378D02*
X22748681Y-39181759D01*
X22748681Y-39181759D02*
X22939157Y-39134140D01*
X22939157Y-39134140D02*
X23177252Y-39134140D01*
X23177252Y-39134140D02*
X23367728Y-39181759D01*
X23367728Y-39181759D02*
X23462966Y-39229378D01*
X23462966Y-39229378D02*
X23510586Y-39276997D01*
X23510586Y-39276997D02*
X23558205Y-39372235D01*
X23558205Y-39372235D02*
X23558205Y-39467473D01*
X23558205Y-39467473D02*
X23510586Y-39562711D01*
X23510586Y-39562711D02*
X23462966Y-39610330D01*
X23462966Y-39610330D02*
X23367728Y-39657949D01*
X23367728Y-39657949D02*
X23177252Y-39705568D01*
X23177252Y-39705568D02*
X22939157Y-39705568D01*
X22939157Y-39705568D02*
X22748681Y-39657949D01*
X22748681Y-39657949D02*
X22653443Y-39610330D01*
X22653443Y-39610330D02*
X22605824Y-39562711D01*
X22605824Y-39562711D02*
X22558205Y-39467473D01*
D11*
X50974068Y-52556453D02*
X49831211Y-52556453D01*
X50402639Y-52556453D02*
X50402639Y-50556453D01*
X50402639Y-50556453D02*
X50212163Y-50842167D01*
X50212163Y-50842167D02*
X50021687Y-51032643D01*
X50021687Y-51032643D02*
X49831211Y-51127881D01*
X51735973Y-50746929D02*
X51831211Y-50651691D01*
X51831211Y-50651691D02*
X52021687Y-50556453D01*
X52021687Y-50556453D02*
X52497878Y-50556453D01*
X52497878Y-50556453D02*
X52688354Y-50651691D01*
X52688354Y-50651691D02*
X52783592Y-50746929D01*
X52783592Y-50746929D02*
X52878830Y-50937405D01*
X52878830Y-50937405D02*
X52878830Y-51127881D01*
X52878830Y-51127881D02*
X52783592Y-51413595D01*
X52783592Y-51413595D02*
X51640735Y-52556453D01*
X51640735Y-52556453D02*
X52878830Y-52556453D01*
X53450259Y-50556453D02*
X54116925Y-52556453D01*
X54116925Y-52556453D02*
X54783592Y-50556453D01*
X57355021Y-50556453D02*
X57735974Y-50556453D01*
X57735974Y-50556453D02*
X57926450Y-50651691D01*
X57926450Y-50651691D02*
X58116926Y-50842167D01*
X58116926Y-50842167D02*
X58212164Y-51223119D01*
X58212164Y-51223119D02*
X58212164Y-51889786D01*
X58212164Y-51889786D02*
X58116926Y-52270738D01*
X58116926Y-52270738D02*
X57926450Y-52461215D01*
X57926450Y-52461215D02*
X57735974Y-52556453D01*
X57735974Y-52556453D02*
X57355021Y-52556453D01*
X57355021Y-52556453D02*
X57164545Y-52461215D01*
X57164545Y-52461215D02*
X56974069Y-52270738D01*
X56974069Y-52270738D02*
X56878831Y-51889786D01*
X56878831Y-51889786D02*
X56878831Y-51223119D01*
X56878831Y-51223119D02*
X56974069Y-50842167D01*
X56974069Y-50842167D02*
X57164545Y-50651691D01*
X57164545Y-50651691D02*
X57355021Y-50556453D01*
X59069307Y-50556453D02*
X59069307Y-52175500D01*
X59069307Y-52175500D02*
X59164545Y-52365976D01*
X59164545Y-52365976D02*
X59259783Y-52461215D01*
X59259783Y-52461215D02*
X59450259Y-52556453D01*
X59450259Y-52556453D02*
X59831212Y-52556453D01*
X59831212Y-52556453D02*
X60021688Y-52461215D01*
X60021688Y-52461215D02*
X60116926Y-52365976D01*
X60116926Y-52365976D02*
X60212164Y-52175500D01*
X60212164Y-52175500D02*
X60212164Y-50556453D01*
X60878831Y-50556453D02*
X62021688Y-50556453D01*
X61450259Y-52556453D02*
X61450259Y-50556453D01*
D10*
X111989670Y-30805681D02*
X112751575Y-30805681D01*
D11*
X53174068Y-43156453D02*
X52031211Y-43156453D01*
X52602639Y-43156453D02*
X52602639Y-41156453D01*
X52602639Y-41156453D02*
X52412163Y-41442167D01*
X52412163Y-41442167D02*
X52221687Y-41632643D01*
X52221687Y-41632643D02*
X52031211Y-41727881D01*
X53935973Y-41346929D02*
X54031211Y-41251691D01*
X54031211Y-41251691D02*
X54221687Y-41156453D01*
X54221687Y-41156453D02*
X54697878Y-41156453D01*
X54697878Y-41156453D02*
X54888354Y-41251691D01*
X54888354Y-41251691D02*
X54983592Y-41346929D01*
X54983592Y-41346929D02*
X55078830Y-41537405D01*
X55078830Y-41537405D02*
X55078830Y-41727881D01*
X55078830Y-41727881D02*
X54983592Y-42013595D01*
X54983592Y-42013595D02*
X53840735Y-43156453D01*
X53840735Y-43156453D02*
X55078830Y-43156453D01*
X55650259Y-41156453D02*
X56316925Y-43156453D01*
X56316925Y-43156453D02*
X56983592Y-41156453D01*
X59174069Y-43156453D02*
X59174069Y-41156453D01*
X60126450Y-43156453D02*
X60126450Y-41156453D01*
X60126450Y-41156453D02*
X61269307Y-43156453D01*
X61269307Y-43156453D02*
X61269307Y-41156453D01*
X101278830Y-37456453D02*
X100326449Y-37456453D01*
X100326449Y-37456453D02*
X100231211Y-38408834D01*
X100231211Y-38408834D02*
X100326449Y-38313595D01*
X100326449Y-38313595D02*
X100516925Y-38218357D01*
X100516925Y-38218357D02*
X100993116Y-38218357D01*
X100993116Y-38218357D02*
X101183592Y-38313595D01*
X101183592Y-38313595D02*
X101278830Y-38408834D01*
X101278830Y-38408834D02*
X101374068Y-38599310D01*
X101374068Y-38599310D02*
X101374068Y-39075500D01*
X101374068Y-39075500D02*
X101278830Y-39265976D01*
X101278830Y-39265976D02*
X101183592Y-39361215D01*
X101183592Y-39361215D02*
X100993116Y-39456453D01*
X100993116Y-39456453D02*
X100516925Y-39456453D01*
X100516925Y-39456453D02*
X100326449Y-39361215D01*
X100326449Y-39361215D02*
X100231211Y-39265976D01*
X101945497Y-37456453D02*
X102612163Y-39456453D01*
X102612163Y-39456453D02*
X103278830Y-37456453D01*
X105850259Y-37456453D02*
X106231212Y-37456453D01*
X106231212Y-37456453D02*
X106421688Y-37551691D01*
X106421688Y-37551691D02*
X106612164Y-37742167D01*
X106612164Y-37742167D02*
X106707402Y-38123119D01*
X106707402Y-38123119D02*
X106707402Y-38789786D01*
X106707402Y-38789786D02*
X106612164Y-39170738D01*
X106612164Y-39170738D02*
X106421688Y-39361215D01*
X106421688Y-39361215D02*
X106231212Y-39456453D01*
X106231212Y-39456453D02*
X105850259Y-39456453D01*
X105850259Y-39456453D02*
X105659783Y-39361215D01*
X105659783Y-39361215D02*
X105469307Y-39170738D01*
X105469307Y-39170738D02*
X105374069Y-38789786D01*
X105374069Y-38789786D02*
X105374069Y-38123119D01*
X105374069Y-38123119D02*
X105469307Y-37742167D01*
X105469307Y-37742167D02*
X105659783Y-37551691D01*
X105659783Y-37551691D02*
X105850259Y-37456453D01*
X107564545Y-37456453D02*
X107564545Y-39075500D01*
X107564545Y-39075500D02*
X107659783Y-39265976D01*
X107659783Y-39265976D02*
X107755021Y-39361215D01*
X107755021Y-39361215D02*
X107945497Y-39456453D01*
X107945497Y-39456453D02*
X108326450Y-39456453D01*
X108326450Y-39456453D02*
X108516926Y-39361215D01*
X108516926Y-39361215D02*
X108612164Y-39265976D01*
X108612164Y-39265976D02*
X108707402Y-39075500D01*
X108707402Y-39075500D02*
X108707402Y-37456453D01*
X109374069Y-37456453D02*
X110516926Y-37456453D01*
X109945497Y-39456453D02*
X109945497Y-37456453D01*
D10*
X41213479Y-39034253D02*
X41118241Y-38986634D01*
X41118241Y-38986634D02*
X40975384Y-38986634D01*
X40975384Y-38986634D02*
X40832527Y-39034253D01*
X40832527Y-39034253D02*
X40737289Y-39129491D01*
X40737289Y-39129491D02*
X40689670Y-39224729D01*
X40689670Y-39224729D02*
X40642051Y-39415205D01*
X40642051Y-39415205D02*
X40642051Y-39558062D01*
X40642051Y-39558062D02*
X40689670Y-39748538D01*
X40689670Y-39748538D02*
X40737289Y-39843776D01*
X40737289Y-39843776D02*
X40832527Y-39939015D01*
X40832527Y-39939015D02*
X40975384Y-39986634D01*
X40975384Y-39986634D02*
X41070622Y-39986634D01*
X41070622Y-39986634D02*
X41213479Y-39939015D01*
X41213479Y-39939015D02*
X41261098Y-39891395D01*
X41261098Y-39891395D02*
X41261098Y-39558062D01*
X41261098Y-39558062D02*
X41070622Y-39558062D01*
X41689670Y-39986634D02*
X41689670Y-38986634D01*
X41689670Y-38986634D02*
X42261098Y-39986634D01*
X42261098Y-39986634D02*
X42261098Y-38986634D01*
X42737289Y-39986634D02*
X42737289Y-38986634D01*
X42737289Y-38986634D02*
X42975384Y-38986634D01*
X42975384Y-38986634D02*
X43118241Y-39034253D01*
X43118241Y-39034253D02*
X43213479Y-39129491D01*
X43213479Y-39129491D02*
X43261098Y-39224729D01*
X43261098Y-39224729D02*
X43308717Y-39415205D01*
X43308717Y-39415205D02*
X43308717Y-39558062D01*
X43308717Y-39558062D02*
X43261098Y-39748538D01*
X43261098Y-39748538D02*
X43213479Y-39843776D01*
X43213479Y-39843776D02*
X43118241Y-39939015D01*
X43118241Y-39939015D02*
X42975384Y-39986634D01*
X42975384Y-39986634D02*
X42737289Y-39986634D01*
D11*
X84699754Y-37456453D02*
X85937849Y-37456453D01*
X85937849Y-37456453D02*
X85271182Y-38218357D01*
X85271182Y-38218357D02*
X85556897Y-38218357D01*
X85556897Y-38218357D02*
X85747373Y-38313595D01*
X85747373Y-38313595D02*
X85842611Y-38408834D01*
X85842611Y-38408834D02*
X85937849Y-38599310D01*
X85937849Y-38599310D02*
X85937849Y-39075500D01*
X85937849Y-39075500D02*
X85842611Y-39265976D01*
X85842611Y-39265976D02*
X85747373Y-39361215D01*
X85747373Y-39361215D02*
X85556897Y-39456453D01*
X85556897Y-39456453D02*
X84985468Y-39456453D01*
X84985468Y-39456453D02*
X84794992Y-39361215D01*
X84794992Y-39361215D02*
X84699754Y-39265976D01*
X86509278Y-37456453D02*
X87175944Y-39456453D01*
X87175944Y-39456453D02*
X87842611Y-37456453D01*
X88318802Y-37456453D02*
X89556897Y-37456453D01*
X89556897Y-37456453D02*
X88890230Y-38218357D01*
X88890230Y-38218357D02*
X89175945Y-38218357D01*
X89175945Y-38218357D02*
X89366421Y-38313595D01*
X89366421Y-38313595D02*
X89461659Y-38408834D01*
X89461659Y-38408834D02*
X89556897Y-38599310D01*
X89556897Y-38599310D02*
X89556897Y-39075500D01*
X89556897Y-39075500D02*
X89461659Y-39265976D01*
X89461659Y-39265976D02*
X89366421Y-39361215D01*
X89366421Y-39361215D02*
X89175945Y-39456453D01*
X89175945Y-39456453D02*
X88604516Y-39456453D01*
X88604516Y-39456453D02*
X88414040Y-39361215D01*
X88414040Y-39361215D02*
X88318802Y-39265976D01*
X92318802Y-37456453D02*
X92699755Y-37456453D01*
X92699755Y-37456453D02*
X92890231Y-37551691D01*
X92890231Y-37551691D02*
X93080707Y-37742167D01*
X93080707Y-37742167D02*
X93175945Y-38123119D01*
X93175945Y-38123119D02*
X93175945Y-38789786D01*
X93175945Y-38789786D02*
X93080707Y-39170738D01*
X93080707Y-39170738D02*
X92890231Y-39361215D01*
X92890231Y-39361215D02*
X92699755Y-39456453D01*
X92699755Y-39456453D02*
X92318802Y-39456453D01*
X92318802Y-39456453D02*
X92128326Y-39361215D01*
X92128326Y-39361215D02*
X91937850Y-39170738D01*
X91937850Y-39170738D02*
X91842612Y-38789786D01*
X91842612Y-38789786D02*
X91842612Y-38123119D01*
X91842612Y-38123119D02*
X91937850Y-37742167D01*
X91937850Y-37742167D02*
X92128326Y-37551691D01*
X92128326Y-37551691D02*
X92318802Y-37456453D01*
X94033088Y-37456453D02*
X94033088Y-39075500D01*
X94033088Y-39075500D02*
X94128326Y-39265976D01*
X94128326Y-39265976D02*
X94223564Y-39361215D01*
X94223564Y-39361215D02*
X94414040Y-39456453D01*
X94414040Y-39456453D02*
X94794993Y-39456453D01*
X94794993Y-39456453D02*
X94985469Y-39361215D01*
X94985469Y-39361215D02*
X95080707Y-39265976D01*
X95080707Y-39265976D02*
X95175945Y-39075500D01*
X95175945Y-39075500D02*
X95175945Y-37456453D01*
X95842612Y-37456453D02*
X96985469Y-37456453D01*
X96414040Y-39456453D02*
X96414040Y-37456453D01*
D10*
X44461098Y-47386634D02*
X44127765Y-46910443D01*
X43889670Y-47386634D02*
X43889670Y-46386634D01*
X43889670Y-46386634D02*
X44270622Y-46386634D01*
X44270622Y-46386634D02*
X44365860Y-46434253D01*
X44365860Y-46434253D02*
X44413479Y-46481872D01*
X44413479Y-46481872D02*
X44461098Y-46577110D01*
X44461098Y-46577110D02*
X44461098Y-46719967D01*
X44461098Y-46719967D02*
X44413479Y-46815205D01*
X44413479Y-46815205D02*
X44365860Y-46862824D01*
X44365860Y-46862824D02*
X44270622Y-46910443D01*
X44270622Y-46910443D02*
X43889670Y-46910443D01*
X44842051Y-47339015D02*
X44984908Y-47386634D01*
X44984908Y-47386634D02*
X45223003Y-47386634D01*
X45223003Y-47386634D02*
X45318241Y-47339015D01*
X45318241Y-47339015D02*
X45365860Y-47291395D01*
X45365860Y-47291395D02*
X45413479Y-47196157D01*
X45413479Y-47196157D02*
X45413479Y-47100919D01*
X45413479Y-47100919D02*
X45365860Y-47005681D01*
X45365860Y-47005681D02*
X45318241Y-46958062D01*
X45318241Y-46958062D02*
X45223003Y-46910443D01*
X45223003Y-46910443D02*
X45032527Y-46862824D01*
X45032527Y-46862824D02*
X44937289Y-46815205D01*
X44937289Y-46815205D02*
X44889670Y-46767586D01*
X44889670Y-46767586D02*
X44842051Y-46672348D01*
X44842051Y-46672348D02*
X44842051Y-46577110D01*
X44842051Y-46577110D02*
X44889670Y-46481872D01*
X44889670Y-46481872D02*
X44937289Y-46434253D01*
X44937289Y-46434253D02*
X45032527Y-46386634D01*
X45032527Y-46386634D02*
X45270622Y-46386634D01*
X45270622Y-46386634D02*
X45413479Y-46434253D01*
X45699194Y-46386634D02*
X46270622Y-46386634D01*
X45984908Y-47386634D02*
X45984908Y-46386634D01*
X23410586Y-56457949D02*
X23458205Y-56315092D01*
X23458205Y-56315092D02*
X23458205Y-56076997D01*
X23458205Y-56076997D02*
X23410586Y-55981759D01*
X23410586Y-55981759D02*
X23362966Y-55934140D01*
X23362966Y-55934140D02*
X23267728Y-55886521D01*
X23267728Y-55886521D02*
X23172490Y-55886521D01*
X23172490Y-55886521D02*
X23077252Y-55934140D01*
X23077252Y-55934140D02*
X23029633Y-55981759D01*
X23029633Y-55981759D02*
X22982014Y-56076997D01*
X22982014Y-56076997D02*
X22934395Y-56267473D01*
X22934395Y-56267473D02*
X22886776Y-56362711D01*
X22886776Y-56362711D02*
X22839157Y-56410330D01*
X22839157Y-56410330D02*
X22743919Y-56457949D01*
X22743919Y-56457949D02*
X22648681Y-56457949D01*
X22648681Y-56457949D02*
X22553443Y-56410330D01*
X22553443Y-56410330D02*
X22505824Y-56362711D01*
X22505824Y-56362711D02*
X22458205Y-56267473D01*
X22458205Y-56267473D02*
X22458205Y-56029378D01*
X22458205Y-56029378D02*
X22505824Y-55886521D01*
X22553443Y-55505568D02*
X22505824Y-55457949D01*
X22505824Y-55457949D02*
X22458205Y-55362711D01*
X22458205Y-55362711D02*
X22458205Y-55124616D01*
X22458205Y-55124616D02*
X22505824Y-55029378D01*
X22505824Y-55029378D02*
X22553443Y-54981759D01*
X22553443Y-54981759D02*
X22648681Y-54934140D01*
X22648681Y-54934140D02*
X22743919Y-54934140D01*
X22743919Y-54934140D02*
X22886776Y-54981759D01*
X22886776Y-54981759D02*
X23458205Y-55553187D01*
X23458205Y-55553187D02*
X23458205Y-54934140D01*
D11*
X69474068Y-43156453D02*
X68331211Y-43156453D01*
X68902639Y-43156453D02*
X68902639Y-41156453D01*
X68902639Y-41156453D02*
X68712163Y-41442167D01*
X68712163Y-41442167D02*
X68521687Y-41632643D01*
X68521687Y-41632643D02*
X68331211Y-41727881D01*
X70235973Y-41346929D02*
X70331211Y-41251691D01*
X70331211Y-41251691D02*
X70521687Y-41156453D01*
X70521687Y-41156453D02*
X70997878Y-41156453D01*
X70997878Y-41156453D02*
X71188354Y-41251691D01*
X71188354Y-41251691D02*
X71283592Y-41346929D01*
X71283592Y-41346929D02*
X71378830Y-41537405D01*
X71378830Y-41537405D02*
X71378830Y-41727881D01*
X71378830Y-41727881D02*
X71283592Y-42013595D01*
X71283592Y-42013595D02*
X70140735Y-43156453D01*
X70140735Y-43156453D02*
X71378830Y-43156453D01*
X71950259Y-41156453D02*
X72616925Y-43156453D01*
X72616925Y-43156453D02*
X73283592Y-41156453D01*
X75855021Y-41156453D02*
X76235974Y-41156453D01*
X76235974Y-41156453D02*
X76426450Y-41251691D01*
X76426450Y-41251691D02*
X76616926Y-41442167D01*
X76616926Y-41442167D02*
X76712164Y-41823119D01*
X76712164Y-41823119D02*
X76712164Y-42489786D01*
X76712164Y-42489786D02*
X76616926Y-42870738D01*
X76616926Y-42870738D02*
X76426450Y-43061215D01*
X76426450Y-43061215D02*
X76235974Y-43156453D01*
X76235974Y-43156453D02*
X75855021Y-43156453D01*
X75855021Y-43156453D02*
X75664545Y-43061215D01*
X75664545Y-43061215D02*
X75474069Y-42870738D01*
X75474069Y-42870738D02*
X75378831Y-42489786D01*
X75378831Y-42489786D02*
X75378831Y-41823119D01*
X75378831Y-41823119D02*
X75474069Y-41442167D01*
X75474069Y-41442167D02*
X75664545Y-41251691D01*
X75664545Y-41251691D02*
X75855021Y-41156453D01*
X77569307Y-41156453D02*
X77569307Y-42775500D01*
X77569307Y-42775500D02*
X77664545Y-42965976D01*
X77664545Y-42965976D02*
X77759783Y-43061215D01*
X77759783Y-43061215D02*
X77950259Y-43156453D01*
X77950259Y-43156453D02*
X78331212Y-43156453D01*
X78331212Y-43156453D02*
X78521688Y-43061215D01*
X78521688Y-43061215D02*
X78616926Y-42965976D01*
X78616926Y-42965976D02*
X78712164Y-42775500D01*
X78712164Y-42775500D02*
X78712164Y-41156453D01*
X79378831Y-41156453D02*
X80521688Y-41156453D01*
X79950259Y-43156453D02*
X79950259Y-41156453D01*
D10*
X23362966Y-81038902D02*
X23410586Y-81086521D01*
X23410586Y-81086521D02*
X23458205Y-81229378D01*
X23458205Y-81229378D02*
X23458205Y-81324616D01*
X23458205Y-81324616D02*
X23410586Y-81467473D01*
X23410586Y-81467473D02*
X23315347Y-81562711D01*
X23315347Y-81562711D02*
X23220109Y-81610330D01*
X23220109Y-81610330D02*
X23029633Y-81657949D01*
X23029633Y-81657949D02*
X22886776Y-81657949D01*
X22886776Y-81657949D02*
X22696300Y-81610330D01*
X22696300Y-81610330D02*
X22601062Y-81562711D01*
X22601062Y-81562711D02*
X22505824Y-81467473D01*
X22505824Y-81467473D02*
X22458205Y-81324616D01*
X22458205Y-81324616D02*
X22458205Y-81229378D01*
X22458205Y-81229378D02*
X22505824Y-81086521D01*
X22505824Y-81086521D02*
X22553443Y-81038902D01*
X23553443Y-80848426D02*
X23553443Y-80086521D01*
X23458205Y-79276997D02*
X22982014Y-79610330D01*
X23458205Y-79848425D02*
X22458205Y-79848425D01*
X22458205Y-79848425D02*
X22458205Y-79467473D01*
X22458205Y-79467473D02*
X22505824Y-79372235D01*
X22505824Y-79372235D02*
X22553443Y-79324616D01*
X22553443Y-79324616D02*
X22648681Y-79276997D01*
X22648681Y-79276997D02*
X22791538Y-79276997D01*
X22791538Y-79276997D02*
X22886776Y-79324616D01*
X22886776Y-79324616D02*
X22934395Y-79372235D01*
X22934395Y-79372235D02*
X22982014Y-79467473D01*
X22982014Y-79467473D02*
X22982014Y-79848425D01*
X22458205Y-78943663D02*
X23458205Y-78276997D01*
X22458205Y-78276997D02*
X23458205Y-78943663D01*
D11*
X48026449Y-74256453D02*
X48026449Y-72256453D01*
X48026449Y-72256453D02*
X49169306Y-74256453D01*
X49169306Y-74256453D02*
X49169306Y-72256453D01*
X50502639Y-72256453D02*
X50883592Y-72256453D01*
X50883592Y-72256453D02*
X51074068Y-72351691D01*
X51074068Y-72351691D02*
X51264544Y-72542167D01*
X51264544Y-72542167D02*
X51359782Y-72923119D01*
X51359782Y-72923119D02*
X51359782Y-73589786D01*
X51359782Y-73589786D02*
X51264544Y-73970738D01*
X51264544Y-73970738D02*
X51074068Y-74161215D01*
X51074068Y-74161215D02*
X50883592Y-74256453D01*
X50883592Y-74256453D02*
X50502639Y-74256453D01*
X50502639Y-74256453D02*
X50312163Y-74161215D01*
X50312163Y-74161215D02*
X50121687Y-73970738D01*
X50121687Y-73970738D02*
X50026449Y-73589786D01*
X50026449Y-73589786D02*
X50026449Y-72923119D01*
X50026449Y-72923119D02*
X50121687Y-72542167D01*
X50121687Y-72542167D02*
X50312163Y-72351691D01*
X50312163Y-72351691D02*
X50502639Y-72256453D01*
X51931211Y-72256453D02*
X53074068Y-72256453D01*
X52502639Y-74256453D02*
X52502639Y-72256453D01*
X55264545Y-73208834D02*
X55931212Y-73208834D01*
X56216926Y-74256453D02*
X55264545Y-74256453D01*
X55264545Y-74256453D02*
X55264545Y-72256453D01*
X55264545Y-72256453D02*
X56216926Y-72256453D01*
X56788355Y-72256453D02*
X57931212Y-72256453D01*
X57359783Y-74256453D02*
X57359783Y-72256453D01*
X58597879Y-74256453D02*
X58597879Y-72256453D01*
X58597879Y-73208834D02*
X59740736Y-73208834D01*
X59740736Y-74256453D02*
X59740736Y-72256453D01*
X60693117Y-73208834D02*
X61359784Y-73208834D01*
X61645498Y-74256453D02*
X60693117Y-74256453D01*
X60693117Y-74256453D02*
X60693117Y-72256453D01*
X60693117Y-72256453D02*
X61645498Y-72256453D01*
X63645498Y-74256453D02*
X62978831Y-73304072D01*
X62502641Y-74256453D02*
X62502641Y-72256453D01*
X62502641Y-72256453D02*
X63264546Y-72256453D01*
X63264546Y-72256453D02*
X63455022Y-72351691D01*
X63455022Y-72351691D02*
X63550260Y-72446929D01*
X63550260Y-72446929D02*
X63645498Y-72637405D01*
X63645498Y-72637405D02*
X63645498Y-72923119D01*
X63645498Y-72923119D02*
X63550260Y-73113595D01*
X63550260Y-73113595D02*
X63455022Y-73208834D01*
X63455022Y-73208834D02*
X63264546Y-73304072D01*
X63264546Y-73304072D02*
X62502641Y-73304072D01*
X64502641Y-74256453D02*
X64502641Y-72256453D01*
X64502641Y-72256453D02*
X65645498Y-74256453D01*
X65645498Y-74256453D02*
X65645498Y-72256453D01*
X66597879Y-73208834D02*
X67264546Y-73208834D01*
X67550260Y-74256453D02*
X66597879Y-74256453D01*
X66597879Y-74256453D02*
X66597879Y-72256453D01*
X66597879Y-72256453D02*
X67550260Y-72256453D01*
X68121689Y-72256453D02*
X69264546Y-72256453D01*
X68693117Y-74256453D02*
X68693117Y-72256453D01*
X69931213Y-74065976D02*
X70026451Y-74161215D01*
X70026451Y-74161215D02*
X69931213Y-74256453D01*
X69931213Y-74256453D02*
X69835975Y-74161215D01*
X69835975Y-74161215D02*
X69931213Y-74065976D01*
X69931213Y-74065976D02*
X69931213Y-74256453D01*
X69931213Y-73494548D02*
X69835975Y-72351691D01*
X69835975Y-72351691D02*
X69931213Y-72256453D01*
X69931213Y-72256453D02*
X70026451Y-72351691D01*
X70026451Y-72351691D02*
X69931213Y-73494548D01*
X69931213Y-73494548D02*
X69931213Y-72256453D01*
X70883594Y-74065976D02*
X70978832Y-74161215D01*
X70978832Y-74161215D02*
X70883594Y-74256453D01*
X70883594Y-74256453D02*
X70788356Y-74161215D01*
X70788356Y-74161215D02*
X70883594Y-74065976D01*
X70883594Y-74065976D02*
X70883594Y-74256453D01*
X70883594Y-73494548D02*
X70788356Y-72351691D01*
X70788356Y-72351691D02*
X70883594Y-72256453D01*
X70883594Y-72256453D02*
X70978832Y-72351691D01*
X70978832Y-72351691D02*
X70883594Y-73494548D01*
X70883594Y-73494548D02*
X70883594Y-72256453D01*
X71835975Y-74065976D02*
X71931213Y-74161215D01*
X71931213Y-74161215D02*
X71835975Y-74256453D01*
X71835975Y-74256453D02*
X71740737Y-74161215D01*
X71740737Y-74161215D02*
X71835975Y-74065976D01*
X71835975Y-74065976D02*
X71835975Y-74256453D01*
X71835975Y-73494548D02*
X71740737Y-72351691D01*
X71740737Y-72351691D02*
X71835975Y-72256453D01*
X71835975Y-72256453D02*
X71931213Y-72351691D01*
X71931213Y-72351691D02*
X71835975Y-73494548D01*
X71835975Y-73494548D02*
X71835975Y-72256453D01*
X72788356Y-74065976D02*
X72883594Y-74161215D01*
X72883594Y-74161215D02*
X72788356Y-74256453D01*
X72788356Y-74256453D02*
X72693118Y-74161215D01*
X72693118Y-74161215D02*
X72788356Y-74065976D01*
X72788356Y-74065976D02*
X72788356Y-74256453D01*
X72788356Y-73494548D02*
X72693118Y-72351691D01*
X72693118Y-72351691D02*
X72788356Y-72256453D01*
X72788356Y-72256453D02*
X72883594Y-72351691D01*
X72883594Y-72351691D02*
X72788356Y-73494548D01*
X72788356Y-73494548D02*
X72788356Y-72256453D01*
X73740737Y-74065976D02*
X73835975Y-74161215D01*
X73835975Y-74161215D02*
X73740737Y-74256453D01*
X73740737Y-74256453D02*
X73645499Y-74161215D01*
X73645499Y-74161215D02*
X73740737Y-74065976D01*
X73740737Y-74065976D02*
X73740737Y-74256453D01*
X73740737Y-73494548D02*
X73645499Y-72351691D01*
X73645499Y-72351691D02*
X73740737Y-72256453D01*
X73740737Y-72256453D02*
X73835975Y-72351691D01*
X73835975Y-72351691D02*
X73740737Y-73494548D01*
X73740737Y-73494548D02*
X73740737Y-72256453D01*
X74693118Y-74065976D02*
X74788356Y-74161215D01*
X74788356Y-74161215D02*
X74693118Y-74256453D01*
X74693118Y-74256453D02*
X74597880Y-74161215D01*
X74597880Y-74161215D02*
X74693118Y-74065976D01*
X74693118Y-74065976D02*
X74693118Y-74256453D01*
X74693118Y-73494548D02*
X74597880Y-72351691D01*
X74597880Y-72351691D02*
X74693118Y-72256453D01*
X74693118Y-72256453D02*
X74788356Y-72351691D01*
X74788356Y-72351691D02*
X74693118Y-73494548D01*
X74693118Y-73494548D02*
X74693118Y-72256453D01*
X75645499Y-74065976D02*
X75740737Y-74161215D01*
X75740737Y-74161215D02*
X75645499Y-74256453D01*
X75645499Y-74256453D02*
X75550261Y-74161215D01*
X75550261Y-74161215D02*
X75645499Y-74065976D01*
X75645499Y-74065976D02*
X75645499Y-74256453D01*
X75645499Y-73494548D02*
X75550261Y-72351691D01*
X75550261Y-72351691D02*
X75645499Y-72256453D01*
X75645499Y-72256453D02*
X75740737Y-72351691D01*
X75740737Y-72351691D02*
X75645499Y-73494548D01*
X75645499Y-73494548D02*
X75645499Y-72256453D01*
X76597880Y-74065976D02*
X76693118Y-74161215D01*
X76693118Y-74161215D02*
X76597880Y-74256453D01*
X76597880Y-74256453D02*
X76502642Y-74161215D01*
X76502642Y-74161215D02*
X76597880Y-74065976D01*
X76597880Y-74065976D02*
X76597880Y-74256453D01*
X76597880Y-73494548D02*
X76502642Y-72351691D01*
X76502642Y-72351691D02*
X76597880Y-72256453D01*
X76597880Y-72256453D02*
X76693118Y-72351691D01*
X76693118Y-72351691D02*
X76597880Y-73494548D01*
X76597880Y-73494548D02*
X76597880Y-72256453D01*
X77550261Y-74065976D02*
X77645499Y-74161215D01*
X77645499Y-74161215D02*
X77550261Y-74256453D01*
X77550261Y-74256453D02*
X77455023Y-74161215D01*
X77455023Y-74161215D02*
X77550261Y-74065976D01*
X77550261Y-74065976D02*
X77550261Y-74256453D01*
X77550261Y-73494548D02*
X77455023Y-72351691D01*
X77455023Y-72351691D02*
X77550261Y-72256453D01*
X77550261Y-72256453D02*
X77645499Y-72351691D01*
X77645499Y-72351691D02*
X77550261Y-73494548D01*
X77550261Y-73494548D02*
X77550261Y-72256453D01*
X78502642Y-74065976D02*
X78597880Y-74161215D01*
X78597880Y-74161215D02*
X78502642Y-74256453D01*
X78502642Y-74256453D02*
X78407404Y-74161215D01*
X78407404Y-74161215D02*
X78502642Y-74065976D01*
X78502642Y-74065976D02*
X78502642Y-74256453D01*
X78502642Y-73494548D02*
X78407404Y-72351691D01*
X78407404Y-72351691D02*
X78502642Y-72256453D01*
X78502642Y-72256453D02*
X78597880Y-72351691D01*
X78597880Y-72351691D02*
X78502642Y-73494548D01*
X78502642Y-73494548D02*
X78502642Y-72256453D01*
X79455023Y-74065976D02*
X79550261Y-74161215D01*
X79550261Y-74161215D02*
X79455023Y-74256453D01*
X79455023Y-74256453D02*
X79359785Y-74161215D01*
X79359785Y-74161215D02*
X79455023Y-74065976D01*
X79455023Y-74065976D02*
X79455023Y-74256453D01*
X79455023Y-73494548D02*
X79359785Y-72351691D01*
X79359785Y-72351691D02*
X79455023Y-72256453D01*
X79455023Y-72256453D02*
X79550261Y-72351691D01*
X79550261Y-72351691D02*
X79455023Y-73494548D01*
X79455023Y-73494548D02*
X79455023Y-72256453D01*
X80407404Y-74065976D02*
X80502642Y-74161215D01*
X80502642Y-74161215D02*
X80407404Y-74256453D01*
X80407404Y-74256453D02*
X80312166Y-74161215D01*
X80312166Y-74161215D02*
X80407404Y-74065976D01*
X80407404Y-74065976D02*
X80407404Y-74256453D01*
X80407404Y-73494548D02*
X80312166Y-72351691D01*
X80312166Y-72351691D02*
X80407404Y-72256453D01*
X80407404Y-72256453D02*
X80502642Y-72351691D01*
X80502642Y-72351691D02*
X80407404Y-73494548D01*
X80407404Y-73494548D02*
X80407404Y-72256453D01*
X81359785Y-74065976D02*
X81455023Y-74161215D01*
X81455023Y-74161215D02*
X81359785Y-74256453D01*
X81359785Y-74256453D02*
X81264547Y-74161215D01*
X81264547Y-74161215D02*
X81359785Y-74065976D01*
X81359785Y-74065976D02*
X81359785Y-74256453D01*
X81359785Y-73494548D02*
X81264547Y-72351691D01*
X81264547Y-72351691D02*
X81359785Y-72256453D01*
X81359785Y-72256453D02*
X81455023Y-72351691D01*
X81455023Y-72351691D02*
X81359785Y-73494548D01*
X81359785Y-73494548D02*
X81359785Y-72256453D01*
X82312166Y-74065976D02*
X82407404Y-74161215D01*
X82407404Y-74161215D02*
X82312166Y-74256453D01*
X82312166Y-74256453D02*
X82216928Y-74161215D01*
X82216928Y-74161215D02*
X82312166Y-74065976D01*
X82312166Y-74065976D02*
X82312166Y-74256453D01*
X82312166Y-73494548D02*
X82216928Y-72351691D01*
X82216928Y-72351691D02*
X82312166Y-72256453D01*
X82312166Y-72256453D02*
X82407404Y-72351691D01*
X82407404Y-72351691D02*
X82312166Y-73494548D01*
X82312166Y-73494548D02*
X82312166Y-72256453D01*
X83264547Y-74065976D02*
X83359785Y-74161215D01*
X83359785Y-74161215D02*
X83264547Y-74256453D01*
X83264547Y-74256453D02*
X83169309Y-74161215D01*
X83169309Y-74161215D02*
X83264547Y-74065976D01*
X83264547Y-74065976D02*
X83264547Y-74256453D01*
X83264547Y-73494548D02*
X83169309Y-72351691D01*
X83169309Y-72351691D02*
X83264547Y-72256453D01*
X83264547Y-72256453D02*
X83359785Y-72351691D01*
X83359785Y-72351691D02*
X83264547Y-73494548D01*
X83264547Y-73494548D02*
X83264547Y-72256453D01*
X84216928Y-74065976D02*
X84312166Y-74161215D01*
X84312166Y-74161215D02*
X84216928Y-74256453D01*
X84216928Y-74256453D02*
X84121690Y-74161215D01*
X84121690Y-74161215D02*
X84216928Y-74065976D01*
X84216928Y-74065976D02*
X84216928Y-74256453D01*
X84216928Y-73494548D02*
X84121690Y-72351691D01*
X84121690Y-72351691D02*
X84216928Y-72256453D01*
X84216928Y-72256453D02*
X84312166Y-72351691D01*
X84312166Y-72351691D02*
X84216928Y-73494548D01*
X84216928Y-73494548D02*
X84216928Y-72256453D01*
X85169309Y-74065976D02*
X85264547Y-74161215D01*
X85264547Y-74161215D02*
X85169309Y-74256453D01*
X85169309Y-74256453D02*
X85074071Y-74161215D01*
X85074071Y-74161215D02*
X85169309Y-74065976D01*
X85169309Y-74065976D02*
X85169309Y-74256453D01*
X85169309Y-73494548D02*
X85074071Y-72351691D01*
X85074071Y-72351691D02*
X85169309Y-72256453D01*
X85169309Y-72256453D02*
X85264547Y-72351691D01*
X85264547Y-72351691D02*
X85169309Y-73494548D01*
X85169309Y-73494548D02*
X85169309Y-72256453D01*
X86121690Y-74065976D02*
X86216928Y-74161215D01*
X86216928Y-74161215D02*
X86121690Y-74256453D01*
X86121690Y-74256453D02*
X86026452Y-74161215D01*
X86026452Y-74161215D02*
X86121690Y-74065976D01*
X86121690Y-74065976D02*
X86121690Y-74256453D01*
X86121690Y-73494548D02*
X86026452Y-72351691D01*
X86026452Y-72351691D02*
X86121690Y-72256453D01*
X86121690Y-72256453D02*
X86216928Y-72351691D01*
X86216928Y-72351691D02*
X86121690Y-73494548D01*
X86121690Y-73494548D02*
X86121690Y-72256453D01*
X87074071Y-74065976D02*
X87169309Y-74161215D01*
X87169309Y-74161215D02*
X87074071Y-74256453D01*
X87074071Y-74256453D02*
X86978833Y-74161215D01*
X86978833Y-74161215D02*
X87074071Y-74065976D01*
X87074071Y-74065976D02*
X87074071Y-74256453D01*
X87074071Y-73494548D02*
X86978833Y-72351691D01*
X86978833Y-72351691D02*
X87074071Y-72256453D01*
X87074071Y-72256453D02*
X87169309Y-72351691D01*
X87169309Y-72351691D02*
X87074071Y-73494548D01*
X87074071Y-73494548D02*
X87074071Y-72256453D01*
X88026452Y-74065976D02*
X88121690Y-74161215D01*
X88121690Y-74161215D02*
X88026452Y-74256453D01*
X88026452Y-74256453D02*
X87931214Y-74161215D01*
X87931214Y-74161215D02*
X88026452Y-74065976D01*
X88026452Y-74065976D02*
X88026452Y-74256453D01*
X88026452Y-73494548D02*
X87931214Y-72351691D01*
X87931214Y-72351691D02*
X88026452Y-72256453D01*
X88026452Y-72256453D02*
X88121690Y-72351691D01*
X88121690Y-72351691D02*
X88026452Y-73494548D01*
X88026452Y-73494548D02*
X88026452Y-72256453D01*
X88978833Y-74065976D02*
X89074071Y-74161215D01*
X89074071Y-74161215D02*
X88978833Y-74256453D01*
X88978833Y-74256453D02*
X88883595Y-74161215D01*
X88883595Y-74161215D02*
X88978833Y-74065976D01*
X88978833Y-74065976D02*
X88978833Y-74256453D01*
X88978833Y-73494548D02*
X88883595Y-72351691D01*
X88883595Y-72351691D02*
X88978833Y-72256453D01*
X88978833Y-72256453D02*
X89074071Y-72351691D01*
X89074071Y-72351691D02*
X88978833Y-73494548D01*
X88978833Y-73494548D02*
X88978833Y-72256453D01*
X89931214Y-74065976D02*
X90026452Y-74161215D01*
X90026452Y-74161215D02*
X89931214Y-74256453D01*
X89931214Y-74256453D02*
X89835976Y-74161215D01*
X89835976Y-74161215D02*
X89931214Y-74065976D01*
X89931214Y-74065976D02*
X89931214Y-74256453D01*
X89931214Y-73494548D02*
X89835976Y-72351691D01*
X89835976Y-72351691D02*
X89931214Y-72256453D01*
X89931214Y-72256453D02*
X90026452Y-72351691D01*
X90026452Y-72351691D02*
X89931214Y-73494548D01*
X89931214Y-73494548D02*
X89931214Y-72256453D01*
X90883595Y-74065976D02*
X90978833Y-74161215D01*
X90978833Y-74161215D02*
X90883595Y-74256453D01*
X90883595Y-74256453D02*
X90788357Y-74161215D01*
X90788357Y-74161215D02*
X90883595Y-74065976D01*
X90883595Y-74065976D02*
X90883595Y-74256453D01*
X90883595Y-73494548D02*
X90788357Y-72351691D01*
X90788357Y-72351691D02*
X90883595Y-72256453D01*
X90883595Y-72256453D02*
X90978833Y-72351691D01*
X90978833Y-72351691D02*
X90883595Y-73494548D01*
X90883595Y-73494548D02*
X90883595Y-72256453D01*
X91835976Y-74065976D02*
X91931214Y-74161215D01*
X91931214Y-74161215D02*
X91835976Y-74256453D01*
X91835976Y-74256453D02*
X91740738Y-74161215D01*
X91740738Y-74161215D02*
X91835976Y-74065976D01*
X91835976Y-74065976D02*
X91835976Y-74256453D01*
X91835976Y-73494548D02*
X91740738Y-72351691D01*
X91740738Y-72351691D02*
X91835976Y-72256453D01*
X91835976Y-72256453D02*
X91931214Y-72351691D01*
X91931214Y-72351691D02*
X91835976Y-73494548D01*
X91835976Y-73494548D02*
X91835976Y-72256453D01*
X92788357Y-74065976D02*
X92883595Y-74161215D01*
X92883595Y-74161215D02*
X92788357Y-74256453D01*
X92788357Y-74256453D02*
X92693119Y-74161215D01*
X92693119Y-74161215D02*
X92788357Y-74065976D01*
X92788357Y-74065976D02*
X92788357Y-74256453D01*
X92788357Y-73494548D02*
X92693119Y-72351691D01*
X92693119Y-72351691D02*
X92788357Y-72256453D01*
X92788357Y-72256453D02*
X92883595Y-72351691D01*
X92883595Y-72351691D02*
X92788357Y-73494548D01*
X92788357Y-73494548D02*
X92788357Y-72256453D01*
X93740738Y-74065976D02*
X93835976Y-74161215D01*
X93835976Y-74161215D02*
X93740738Y-74256453D01*
X93740738Y-74256453D02*
X93645500Y-74161215D01*
X93645500Y-74161215D02*
X93740738Y-74065976D01*
X93740738Y-74065976D02*
X93740738Y-74256453D01*
X93740738Y-73494548D02*
X93645500Y-72351691D01*
X93645500Y-72351691D02*
X93740738Y-72256453D01*
X93740738Y-72256453D02*
X93835976Y-72351691D01*
X93835976Y-72351691D02*
X93740738Y-73494548D01*
X93740738Y-73494548D02*
X93740738Y-72256453D01*
X94693119Y-74065976D02*
X94788357Y-74161215D01*
X94788357Y-74161215D02*
X94693119Y-74256453D01*
X94693119Y-74256453D02*
X94597881Y-74161215D01*
X94597881Y-74161215D02*
X94693119Y-74065976D01*
X94693119Y-74065976D02*
X94693119Y-74256453D01*
X94693119Y-73494548D02*
X94597881Y-72351691D01*
X94597881Y-72351691D02*
X94693119Y-72256453D01*
X94693119Y-72256453D02*
X94788357Y-72351691D01*
X94788357Y-72351691D02*
X94693119Y-73494548D01*
X94693119Y-73494548D02*
X94693119Y-72256453D01*
X95645500Y-74065976D02*
X95740738Y-74161215D01*
X95740738Y-74161215D02*
X95645500Y-74256453D01*
X95645500Y-74256453D02*
X95550262Y-74161215D01*
X95550262Y-74161215D02*
X95645500Y-74065976D01*
X95645500Y-74065976D02*
X95645500Y-74256453D01*
X95645500Y-73494548D02*
X95550262Y-72351691D01*
X95550262Y-72351691D02*
X95645500Y-72256453D01*
X95645500Y-72256453D02*
X95740738Y-72351691D01*
X95740738Y-72351691D02*
X95645500Y-73494548D01*
X95645500Y-73494548D02*
X95645500Y-72256453D01*
X96597881Y-74065976D02*
X96693119Y-74161215D01*
X96693119Y-74161215D02*
X96597881Y-74256453D01*
X96597881Y-74256453D02*
X96502643Y-74161215D01*
X96502643Y-74161215D02*
X96597881Y-74065976D01*
X96597881Y-74065976D02*
X96597881Y-74256453D01*
X96597881Y-73494548D02*
X96502643Y-72351691D01*
X96502643Y-72351691D02*
X96597881Y-72256453D01*
X96597881Y-72256453D02*
X96693119Y-72351691D01*
X96693119Y-72351691D02*
X96597881Y-73494548D01*
X96597881Y-73494548D02*
X96597881Y-72256453D01*
D10*
X32558205Y-35586521D02*
X32558205Y-36157949D01*
X32558205Y-35872235D02*
X31558205Y-35872235D01*
X31558205Y-35872235D02*
X31701062Y-35967473D01*
X31701062Y-35967473D02*
X31796300Y-36062711D01*
X31796300Y-36062711D02*
X31843919Y-36157949D01*
X31653443Y-35205568D02*
X31605824Y-35157949D01*
X31605824Y-35157949D02*
X31558205Y-35062711D01*
X31558205Y-35062711D02*
X31558205Y-34824616D01*
X31558205Y-34824616D02*
X31605824Y-34729378D01*
X31605824Y-34729378D02*
X31653443Y-34681759D01*
X31653443Y-34681759D02*
X31748681Y-34634140D01*
X31748681Y-34634140D02*
X31843919Y-34634140D01*
X31843919Y-34634140D02*
X31986776Y-34681759D01*
X31986776Y-34681759D02*
X32558205Y-35253187D01*
X32558205Y-35253187D02*
X32558205Y-34634140D01*
X31891538Y-34300806D02*
X32558205Y-34062711D01*
X32558205Y-34062711D02*
X31891538Y-33824616D01*
X32558205Y-32681758D02*
X31558205Y-32681758D01*
X31558205Y-32681758D02*
X31558205Y-32300806D01*
X31558205Y-32300806D02*
X31605824Y-32205568D01*
X31605824Y-32205568D02*
X31653443Y-32157949D01*
X31653443Y-32157949D02*
X31748681Y-32110330D01*
X31748681Y-32110330D02*
X31891538Y-32110330D01*
X31891538Y-32110330D02*
X31986776Y-32157949D01*
X31986776Y-32157949D02*
X32034395Y-32205568D01*
X32034395Y-32205568D02*
X32082014Y-32300806D01*
X32082014Y-32300806D02*
X32082014Y-32681758D01*
X31558205Y-31776996D02*
X32558205Y-31538901D01*
X32558205Y-31538901D02*
X31843919Y-31348425D01*
X31843919Y-31348425D02*
X32558205Y-31157949D01*
X32558205Y-31157949D02*
X31558205Y-30919854D01*
X32558205Y-29967473D02*
X32082014Y-30300806D01*
X32558205Y-30538901D02*
X31558205Y-30538901D01*
X31558205Y-30538901D02*
X31558205Y-30157949D01*
X31558205Y-30157949D02*
X31605824Y-30062711D01*
X31605824Y-30062711D02*
X31653443Y-30015092D01*
X31653443Y-30015092D02*
X31748681Y-29967473D01*
X31748681Y-29967473D02*
X31891538Y-29967473D01*
X31891538Y-29967473D02*
X31986776Y-30015092D01*
X31986776Y-30015092D02*
X32034395Y-30062711D01*
X32034395Y-30062711D02*
X32082014Y-30157949D01*
X32082014Y-30157949D02*
X32082014Y-30538901D01*
X106049990Y-69526119D02*
X106073800Y-69454691D01*
X106073800Y-69454691D02*
X106097609Y-69430881D01*
X106097609Y-69430881D02*
X106145228Y-69407072D01*
X106145228Y-69407072D02*
X106216657Y-69407072D01*
X106216657Y-69407072D02*
X106264276Y-69430881D01*
X106264276Y-69430881D02*
X106288086Y-69454691D01*
X106288086Y-69454691D02*
X106311895Y-69502310D01*
X106311895Y-69502310D02*
X106311895Y-69692786D01*
X106311895Y-69692786D02*
X105811895Y-69692786D01*
X105811895Y-69692786D02*
X105811895Y-69526119D01*
X105811895Y-69526119D02*
X105835705Y-69478500D01*
X105835705Y-69478500D02*
X105859514Y-69454691D01*
X105859514Y-69454691D02*
X105907133Y-69430881D01*
X105907133Y-69430881D02*
X105954752Y-69430881D01*
X105954752Y-69430881D02*
X106002371Y-69454691D01*
X106002371Y-69454691D02*
X106026181Y-69478500D01*
X106026181Y-69478500D02*
X106049990Y-69526119D01*
X106049990Y-69526119D02*
X106049990Y-69692786D01*
X105978562Y-69240405D02*
X106311895Y-69121357D01*
X105978562Y-69002310D02*
X106311895Y-69121357D01*
X106311895Y-69121357D02*
X106430943Y-69168976D01*
X106430943Y-69168976D02*
X106454752Y-69192786D01*
X106454752Y-69192786D02*
X106478562Y-69240405D01*
X105978562Y-68811834D02*
X106478562Y-68811834D01*
X106002371Y-68811834D02*
X105978562Y-68764215D01*
X105978562Y-68764215D02*
X105978562Y-68668977D01*
X105978562Y-68668977D02*
X106002371Y-68621358D01*
X106002371Y-68621358D02*
X106026181Y-68597548D01*
X106026181Y-68597548D02*
X106073800Y-68573739D01*
X106073800Y-68573739D02*
X106216657Y-68573739D01*
X106216657Y-68573739D02*
X106264276Y-68597548D01*
X106264276Y-68597548D02*
X106288086Y-68621358D01*
X106288086Y-68621358D02*
X106311895Y-68668977D01*
X106311895Y-68668977D02*
X106311895Y-68764215D01*
X106311895Y-68764215D02*
X106288086Y-68811834D01*
X106311895Y-68145167D02*
X106049990Y-68145167D01*
X106049990Y-68145167D02*
X106002371Y-68168977D01*
X106002371Y-68168977D02*
X105978562Y-68216596D01*
X105978562Y-68216596D02*
X105978562Y-68311834D01*
X105978562Y-68311834D02*
X106002371Y-68359453D01*
X106288086Y-68145167D02*
X106311895Y-68192786D01*
X106311895Y-68192786D02*
X106311895Y-68311834D01*
X106311895Y-68311834D02*
X106288086Y-68359453D01*
X106288086Y-68359453D02*
X106240466Y-68383262D01*
X106240466Y-68383262D02*
X106192847Y-68383262D01*
X106192847Y-68383262D02*
X106145228Y-68359453D01*
X106145228Y-68359453D02*
X106121419Y-68311834D01*
X106121419Y-68311834D02*
X106121419Y-68192786D01*
X106121419Y-68192786D02*
X106097609Y-68145167D01*
X106288086Y-67930881D02*
X106311895Y-67883262D01*
X106311895Y-67883262D02*
X106311895Y-67788024D01*
X106311895Y-67788024D02*
X106288086Y-67740405D01*
X106288086Y-67740405D02*
X106240466Y-67716596D01*
X106240466Y-67716596D02*
X106216657Y-67716596D01*
X106216657Y-67716596D02*
X106169038Y-67740405D01*
X106169038Y-67740405D02*
X106145228Y-67788024D01*
X106145228Y-67788024D02*
X106145228Y-67859453D01*
X106145228Y-67859453D02*
X106121419Y-67907072D01*
X106121419Y-67907072D02*
X106073800Y-67930881D01*
X106073800Y-67930881D02*
X106049990Y-67930881D01*
X106049990Y-67930881D02*
X106002371Y-67907072D01*
X106002371Y-67907072D02*
X105978562Y-67859453D01*
X105978562Y-67859453D02*
X105978562Y-67788024D01*
X105978562Y-67788024D02*
X106002371Y-67740405D01*
X106288086Y-67526119D02*
X106311895Y-67478500D01*
X106311895Y-67478500D02*
X106311895Y-67383262D01*
X106311895Y-67383262D02*
X106288086Y-67335643D01*
X106288086Y-67335643D02*
X106240466Y-67311834D01*
X106240466Y-67311834D02*
X106216657Y-67311834D01*
X106216657Y-67311834D02*
X106169038Y-67335643D01*
X106169038Y-67335643D02*
X106145228Y-67383262D01*
X106145228Y-67383262D02*
X106145228Y-67454691D01*
X106145228Y-67454691D02*
X106121419Y-67502310D01*
X106121419Y-67502310D02*
X106073800Y-67526119D01*
X106073800Y-67526119D02*
X106049990Y-67526119D01*
X106049990Y-67526119D02*
X106002371Y-67502310D01*
X106002371Y-67502310D02*
X105978562Y-67454691D01*
X105978562Y-67454691D02*
X105978562Y-67383262D01*
X105978562Y-67383262D02*
X106002371Y-67335643D01*
X20762966Y-80838902D02*
X20810586Y-80886521D01*
X20810586Y-80886521D02*
X20858205Y-81029378D01*
X20858205Y-81029378D02*
X20858205Y-81124616D01*
X20858205Y-81124616D02*
X20810586Y-81267473D01*
X20810586Y-81267473D02*
X20715347Y-81362711D01*
X20715347Y-81362711D02*
X20620109Y-81410330D01*
X20620109Y-81410330D02*
X20429633Y-81457949D01*
X20429633Y-81457949D02*
X20286776Y-81457949D01*
X20286776Y-81457949D02*
X20096300Y-81410330D01*
X20096300Y-81410330D02*
X20001062Y-81362711D01*
X20001062Y-81362711D02*
X19905824Y-81267473D01*
X19905824Y-81267473D02*
X19858205Y-81124616D01*
X19858205Y-81124616D02*
X19858205Y-81029378D01*
X19858205Y-81029378D02*
X19905824Y-80886521D01*
X19905824Y-80886521D02*
X19953443Y-80838902D01*
X20953443Y-80648426D02*
X20953443Y-79886521D01*
X19858205Y-79791282D02*
X19858205Y-79219854D01*
X20858205Y-79505568D02*
X19858205Y-79505568D01*
X19858205Y-78981758D02*
X20858205Y-78315092D01*
X19858205Y-78315092D02*
X20858205Y-78981758D01*
X41023880Y-35686634D02*
X41023880Y-36400919D01*
X41023880Y-36400919D02*
X40976261Y-36543776D01*
X40976261Y-36543776D02*
X40881023Y-36639015D01*
X40881023Y-36639015D02*
X40738166Y-36686634D01*
X40738166Y-36686634D02*
X40642928Y-36686634D01*
X41881023Y-36639015D02*
X41785785Y-36686634D01*
X41785785Y-36686634D02*
X41595309Y-36686634D01*
X41595309Y-36686634D02*
X41500071Y-36639015D01*
X41500071Y-36639015D02*
X41452452Y-36543776D01*
X41452452Y-36543776D02*
X41452452Y-36162824D01*
X41452452Y-36162824D02*
X41500071Y-36067586D01*
X41500071Y-36067586D02*
X41595309Y-36019967D01*
X41595309Y-36019967D02*
X41785785Y-36019967D01*
X41785785Y-36019967D02*
X41881023Y-36067586D01*
X41881023Y-36067586D02*
X41928642Y-36162824D01*
X41928642Y-36162824D02*
X41928642Y-36258062D01*
X41928642Y-36258062D02*
X41452452Y-36353300D01*
X42214357Y-36019967D02*
X42595309Y-36019967D01*
X42357214Y-35686634D02*
X42357214Y-36543776D01*
X42357214Y-36543776D02*
X42404833Y-36639015D01*
X42404833Y-36639015D02*
X42500071Y-36686634D01*
X42500071Y-36686634D02*
X42595309Y-36686634D01*
X42881024Y-36639015D02*
X42976262Y-36686634D01*
X42976262Y-36686634D02*
X43166738Y-36686634D01*
X43166738Y-36686634D02*
X43261976Y-36639015D01*
X43261976Y-36639015D02*
X43309595Y-36543776D01*
X43309595Y-36543776D02*
X43309595Y-36496157D01*
X43309595Y-36496157D02*
X43261976Y-36400919D01*
X43261976Y-36400919D02*
X43166738Y-36353300D01*
X43166738Y-36353300D02*
X43023881Y-36353300D01*
X43023881Y-36353300D02*
X42928643Y-36305681D01*
X42928643Y-36305681D02*
X42881024Y-36210443D01*
X42881024Y-36210443D02*
X42881024Y-36162824D01*
X42881024Y-36162824D02*
X42928643Y-36067586D01*
X42928643Y-36067586D02*
X43023881Y-36019967D01*
X43023881Y-36019967D02*
X43166738Y-36019967D01*
X43166738Y-36019967D02*
X43261976Y-36067586D01*
X43881024Y-36686634D02*
X43785786Y-36639015D01*
X43785786Y-36639015D02*
X43738167Y-36591395D01*
X43738167Y-36591395D02*
X43690548Y-36496157D01*
X43690548Y-36496157D02*
X43690548Y-36210443D01*
X43690548Y-36210443D02*
X43738167Y-36115205D01*
X43738167Y-36115205D02*
X43785786Y-36067586D01*
X43785786Y-36067586D02*
X43881024Y-36019967D01*
X43881024Y-36019967D02*
X44023881Y-36019967D01*
X44023881Y-36019967D02*
X44119119Y-36067586D01*
X44119119Y-36067586D02*
X44166738Y-36115205D01*
X44166738Y-36115205D02*
X44214357Y-36210443D01*
X44214357Y-36210443D02*
X44214357Y-36496157D01*
X44214357Y-36496157D02*
X44166738Y-36591395D01*
X44166738Y-36591395D02*
X44119119Y-36639015D01*
X44119119Y-36639015D02*
X44023881Y-36686634D01*
X44023881Y-36686634D02*
X43881024Y-36686634D01*
X44642929Y-36019967D02*
X44642929Y-36686634D01*
X44642929Y-36115205D02*
X44690548Y-36067586D01*
X44690548Y-36067586D02*
X44785786Y-36019967D01*
X44785786Y-36019967D02*
X44928643Y-36019967D01*
X44928643Y-36019967D02*
X45023881Y-36067586D01*
X45023881Y-36067586D02*
X45071500Y-36162824D01*
X45071500Y-36162824D02*
X45071500Y-36686634D01*
D12*
X46741666Y-35449819D02*
X46741666Y-36164104D01*
X46741666Y-36164104D02*
X46694047Y-36306961D01*
X46694047Y-36306961D02*
X46598809Y-36402200D01*
X46598809Y-36402200D02*
X46455952Y-36449819D01*
X46455952Y-36449819D02*
X46360714Y-36449819D01*
X47694047Y-35449819D02*
X47217857Y-35449819D01*
X47217857Y-35449819D02*
X47170238Y-35926009D01*
X47170238Y-35926009D02*
X47217857Y-35878390D01*
X47217857Y-35878390D02*
X47313095Y-35830771D01*
X47313095Y-35830771D02*
X47551190Y-35830771D01*
X47551190Y-35830771D02*
X47646428Y-35878390D01*
X47646428Y-35878390D02*
X47694047Y-35926009D01*
X47694047Y-35926009D02*
X47741666Y-36021247D01*
X47741666Y-36021247D02*
X47741666Y-36259342D01*
X47741666Y-36259342D02*
X47694047Y-36354580D01*
X47694047Y-36354580D02*
X47646428Y-36402200D01*
X47646428Y-36402200D02*
X47551190Y-36449819D01*
X47551190Y-36449819D02*
X47313095Y-36449819D01*
X47313095Y-36449819D02*
X47217857Y-36402200D01*
X47217857Y-36402200D02*
X47170238Y-36354580D01*
X119917048Y-28108249D02*
X119917048Y-28822534D01*
X119917048Y-28822534D02*
X119869429Y-28965391D01*
X119869429Y-28965391D02*
X119774191Y-29060630D01*
X119774191Y-29060630D02*
X119631334Y-29108249D01*
X119631334Y-29108249D02*
X119536096Y-29108249D01*
X120345620Y-28203487D02*
X120393239Y-28155868D01*
X120393239Y-28155868D02*
X120488477Y-28108249D01*
X120488477Y-28108249D02*
X120726572Y-28108249D01*
X120726572Y-28108249D02*
X120821810Y-28155868D01*
X120821810Y-28155868D02*
X120869429Y-28203487D01*
X120869429Y-28203487D02*
X120917048Y-28298725D01*
X120917048Y-28298725D02*
X120917048Y-28393963D01*
X120917048Y-28393963D02*
X120869429Y-28536820D01*
X120869429Y-28536820D02*
X120298001Y-29108249D01*
X120298001Y-29108249D02*
X120917048Y-29108249D01*
X121869429Y-29108249D02*
X121298001Y-29108249D01*
X121583715Y-29108249D02*
X121583715Y-28108249D01*
X121583715Y-28108249D02*
X121488477Y-28251106D01*
X121488477Y-28251106D02*
X121393239Y-28346344D01*
X121393239Y-28346344D02*
X121298001Y-28393963D01*
X74067760Y-39308249D02*
X74067760Y-40022534D01*
X74067760Y-40022534D02*
X74020141Y-40165391D01*
X74020141Y-40165391D02*
X73924903Y-40260630D01*
X73924903Y-40260630D02*
X73782046Y-40308249D01*
X73782046Y-40308249D02*
X73686808Y-40308249D01*
X74496332Y-39403487D02*
X74543951Y-39355868D01*
X74543951Y-39355868D02*
X74639189Y-39308249D01*
X74639189Y-39308249D02*
X74877284Y-39308249D01*
X74877284Y-39308249D02*
X74972522Y-39355868D01*
X74972522Y-39355868D02*
X75020141Y-39403487D01*
X75020141Y-39403487D02*
X75067760Y-39498725D01*
X75067760Y-39498725D02*
X75067760Y-39593963D01*
X75067760Y-39593963D02*
X75020141Y-39736820D01*
X75020141Y-39736820D02*
X74448713Y-40308249D01*
X74448713Y-40308249D02*
X75067760Y-40308249D01*
X77529665Y-39968130D02*
X78672523Y-39968130D01*
X70229665Y-39968130D02*
X71372523Y-39968130D01*
X70801094Y-40539558D02*
X70801094Y-39396701D01*
X15979819Y-37614523D02*
X16694104Y-37614523D01*
X16694104Y-37614523D02*
X16836961Y-37662142D01*
X16836961Y-37662142D02*
X16932200Y-37757380D01*
X16932200Y-37757380D02*
X16979819Y-37900237D01*
X16979819Y-37900237D02*
X16979819Y-37995475D01*
X16979819Y-36614523D02*
X16979819Y-37185951D01*
X16979819Y-36900237D02*
X15979819Y-36900237D01*
X15979819Y-36900237D02*
X16122676Y-36995475D01*
X16122676Y-36995475D02*
X16217914Y-37090713D01*
X16217914Y-37090713D02*
X16265533Y-37185951D01*
X15979819Y-35757380D02*
X15979819Y-35947856D01*
X15979819Y-35947856D02*
X16027438Y-36043094D01*
X16027438Y-36043094D02*
X16075057Y-36090713D01*
X16075057Y-36090713D02*
X16217914Y-36185951D01*
X16217914Y-36185951D02*
X16408390Y-36233570D01*
X16408390Y-36233570D02*
X16789342Y-36233570D01*
X16789342Y-36233570D02*
X16884580Y-36185951D01*
X16884580Y-36185951D02*
X16932200Y-36138332D01*
X16932200Y-36138332D02*
X16979819Y-36043094D01*
X16979819Y-36043094D02*
X16979819Y-35852618D01*
X16979819Y-35852618D02*
X16932200Y-35757380D01*
X16932200Y-35757380D02*
X16884580Y-35709761D01*
X16884580Y-35709761D02*
X16789342Y-35662142D01*
X16789342Y-35662142D02*
X16551247Y-35662142D01*
X16551247Y-35662142D02*
X16456009Y-35709761D01*
X16456009Y-35709761D02*
X16408390Y-35757380D01*
X16408390Y-35757380D02*
X16360771Y-35852618D01*
X16360771Y-35852618D02*
X16360771Y-36043094D01*
X16360771Y-36043094D02*
X16408390Y-36138332D01*
X16408390Y-36138332D02*
X16456009Y-36185951D01*
X16456009Y-36185951D02*
X16551247Y-36233570D01*
X106594580Y-41301666D02*
X106642200Y-41349285D01*
X106642200Y-41349285D02*
X106689819Y-41492142D01*
X106689819Y-41492142D02*
X106689819Y-41587380D01*
X106689819Y-41587380D02*
X106642200Y-41730237D01*
X106642200Y-41730237D02*
X106546961Y-41825475D01*
X106546961Y-41825475D02*
X106451723Y-41873094D01*
X106451723Y-41873094D02*
X106261247Y-41920713D01*
X106261247Y-41920713D02*
X106118390Y-41920713D01*
X106118390Y-41920713D02*
X105927914Y-41873094D01*
X105927914Y-41873094D02*
X105832676Y-41825475D01*
X105832676Y-41825475D02*
X105737438Y-41730237D01*
X105737438Y-41730237D02*
X105689819Y-41587380D01*
X105689819Y-41587380D02*
X105689819Y-41492142D01*
X105689819Y-41492142D02*
X105737438Y-41349285D01*
X105737438Y-41349285D02*
X105785057Y-41301666D01*
X105689819Y-40396904D02*
X105689819Y-40873094D01*
X105689819Y-40873094D02*
X106166009Y-40920713D01*
X106166009Y-40920713D02*
X106118390Y-40873094D01*
X106118390Y-40873094D02*
X106070771Y-40777856D01*
X106070771Y-40777856D02*
X106070771Y-40539761D01*
X106070771Y-40539761D02*
X106118390Y-40444523D01*
X106118390Y-40444523D02*
X106166009Y-40396904D01*
X106166009Y-40396904D02*
X106261247Y-40349285D01*
X106261247Y-40349285D02*
X106499342Y-40349285D01*
X106499342Y-40349285D02*
X106594580Y-40396904D01*
X106594580Y-40396904D02*
X106642200Y-40444523D01*
X106642200Y-40444523D02*
X106689819Y-40539761D01*
X106689819Y-40539761D02*
X106689819Y-40777856D01*
X106689819Y-40777856D02*
X106642200Y-40873094D01*
X106642200Y-40873094D02*
X106594580Y-40920713D01*
X116161151Y-58716667D02*
X116208771Y-58764286D01*
X116208771Y-58764286D02*
X116256390Y-58907143D01*
X116256390Y-58907143D02*
X116256390Y-59002381D01*
X116256390Y-59002381D02*
X116208771Y-59145238D01*
X116208771Y-59145238D02*
X116113532Y-59240476D01*
X116113532Y-59240476D02*
X116018294Y-59288095D01*
X116018294Y-59288095D02*
X115827818Y-59335714D01*
X115827818Y-59335714D02*
X115684961Y-59335714D01*
X115684961Y-59335714D02*
X115494485Y-59288095D01*
X115494485Y-59288095D02*
X115399247Y-59240476D01*
X115399247Y-59240476D02*
X115304009Y-59145238D01*
X115304009Y-59145238D02*
X115256390Y-59002381D01*
X115256390Y-59002381D02*
X115256390Y-58907143D01*
X115256390Y-58907143D02*
X115304009Y-58764286D01*
X115304009Y-58764286D02*
X115351628Y-58716667D01*
X115256390Y-58383333D02*
X115256390Y-57764286D01*
X115256390Y-57764286D02*
X115637342Y-58097619D01*
X115637342Y-58097619D02*
X115637342Y-57954762D01*
X115637342Y-57954762D02*
X115684961Y-57859524D01*
X115684961Y-57859524D02*
X115732580Y-57811905D01*
X115732580Y-57811905D02*
X115827818Y-57764286D01*
X115827818Y-57764286D02*
X116065913Y-57764286D01*
X116065913Y-57764286D02*
X116161151Y-57811905D01*
X116161151Y-57811905D02*
X116208771Y-57859524D01*
X116208771Y-57859524D02*
X116256390Y-57954762D01*
X116256390Y-57954762D02*
X116256390Y-58240476D01*
X116256390Y-58240476D02*
X116208771Y-58335714D01*
X116208771Y-58335714D02*
X116161151Y-58383333D01*
X106654580Y-43291666D02*
X106702200Y-43339285D01*
X106702200Y-43339285D02*
X106749819Y-43482142D01*
X106749819Y-43482142D02*
X106749819Y-43577380D01*
X106749819Y-43577380D02*
X106702200Y-43720237D01*
X106702200Y-43720237D02*
X106606961Y-43815475D01*
X106606961Y-43815475D02*
X106511723Y-43863094D01*
X106511723Y-43863094D02*
X106321247Y-43910713D01*
X106321247Y-43910713D02*
X106178390Y-43910713D01*
X106178390Y-43910713D02*
X105987914Y-43863094D01*
X105987914Y-43863094D02*
X105892676Y-43815475D01*
X105892676Y-43815475D02*
X105797438Y-43720237D01*
X105797438Y-43720237D02*
X105749819Y-43577380D01*
X105749819Y-43577380D02*
X105749819Y-43482142D01*
X105749819Y-43482142D02*
X105797438Y-43339285D01*
X105797438Y-43339285D02*
X105845057Y-43291666D01*
X105749819Y-42434523D02*
X105749819Y-42624999D01*
X105749819Y-42624999D02*
X105797438Y-42720237D01*
X105797438Y-42720237D02*
X105845057Y-42767856D01*
X105845057Y-42767856D02*
X105987914Y-42863094D01*
X105987914Y-42863094D02*
X106178390Y-42910713D01*
X106178390Y-42910713D02*
X106559342Y-42910713D01*
X106559342Y-42910713D02*
X106654580Y-42863094D01*
X106654580Y-42863094D02*
X106702200Y-42815475D01*
X106702200Y-42815475D02*
X106749819Y-42720237D01*
X106749819Y-42720237D02*
X106749819Y-42529761D01*
X106749819Y-42529761D02*
X106702200Y-42434523D01*
X106702200Y-42434523D02*
X106654580Y-42386904D01*
X106654580Y-42386904D02*
X106559342Y-42339285D01*
X106559342Y-42339285D02*
X106321247Y-42339285D01*
X106321247Y-42339285D02*
X106226009Y-42386904D01*
X106226009Y-42386904D02*
X106178390Y-42434523D01*
X106178390Y-42434523D02*
X106130771Y-42529761D01*
X106130771Y-42529761D02*
X106130771Y-42720237D01*
X106130771Y-42720237D02*
X106178390Y-42815475D01*
X106178390Y-42815475D02*
X106226009Y-42863094D01*
X106226009Y-42863094D02*
X106321247Y-42910713D01*
X88304427Y-57983010D02*
X88256808Y-58030630D01*
X88256808Y-58030630D02*
X88113951Y-58078249D01*
X88113951Y-58078249D02*
X88018713Y-58078249D01*
X88018713Y-58078249D02*
X87875856Y-58030630D01*
X87875856Y-58030630D02*
X87780618Y-57935391D01*
X87780618Y-57935391D02*
X87732999Y-57840153D01*
X87732999Y-57840153D02*
X87685380Y-57649677D01*
X87685380Y-57649677D02*
X87685380Y-57506820D01*
X87685380Y-57506820D02*
X87732999Y-57316344D01*
X87732999Y-57316344D02*
X87780618Y-57221106D01*
X87780618Y-57221106D02*
X87875856Y-57125868D01*
X87875856Y-57125868D02*
X88018713Y-57078249D01*
X88018713Y-57078249D02*
X88113951Y-57078249D01*
X88113951Y-57078249D02*
X88256808Y-57125868D01*
X88256808Y-57125868D02*
X88304427Y-57173487D01*
X88875856Y-57506820D02*
X88780618Y-57459201D01*
X88780618Y-57459201D02*
X88732999Y-57411582D01*
X88732999Y-57411582D02*
X88685380Y-57316344D01*
X88685380Y-57316344D02*
X88685380Y-57268725D01*
X88685380Y-57268725D02*
X88732999Y-57173487D01*
X88732999Y-57173487D02*
X88780618Y-57125868D01*
X88780618Y-57125868D02*
X88875856Y-57078249D01*
X88875856Y-57078249D02*
X89066332Y-57078249D01*
X89066332Y-57078249D02*
X89161570Y-57125868D01*
X89161570Y-57125868D02*
X89209189Y-57173487D01*
X89209189Y-57173487D02*
X89256808Y-57268725D01*
X89256808Y-57268725D02*
X89256808Y-57316344D01*
X89256808Y-57316344D02*
X89209189Y-57411582D01*
X89209189Y-57411582D02*
X89161570Y-57459201D01*
X89161570Y-57459201D02*
X89066332Y-57506820D01*
X89066332Y-57506820D02*
X88875856Y-57506820D01*
X88875856Y-57506820D02*
X88780618Y-57554439D01*
X88780618Y-57554439D02*
X88732999Y-57602058D01*
X88732999Y-57602058D02*
X88685380Y-57697296D01*
X88685380Y-57697296D02*
X88685380Y-57887772D01*
X88685380Y-57887772D02*
X88732999Y-57983010D01*
X88732999Y-57983010D02*
X88780618Y-58030630D01*
X88780618Y-58030630D02*
X88875856Y-58078249D01*
X88875856Y-58078249D02*
X89066332Y-58078249D01*
X89066332Y-58078249D02*
X89161570Y-58030630D01*
X89161570Y-58030630D02*
X89209189Y-57983010D01*
X89209189Y-57983010D02*
X89256808Y-57887772D01*
X89256808Y-57887772D02*
X89256808Y-57697296D01*
X89256808Y-57697296D02*
X89209189Y-57602058D01*
X89209189Y-57602058D02*
X89161570Y-57554439D01*
X89161570Y-57554439D02*
X89066332Y-57506820D01*
X89961666Y-35829819D02*
X89961666Y-36544104D01*
X89961666Y-36544104D02*
X89914047Y-36686961D01*
X89914047Y-36686961D02*
X89818809Y-36782200D01*
X89818809Y-36782200D02*
X89675952Y-36829819D01*
X89675952Y-36829819D02*
X89580714Y-36829819D01*
X90866428Y-36163152D02*
X90866428Y-36829819D01*
X90628333Y-35782200D02*
X90390238Y-36496485D01*
X90390238Y-36496485D02*
X91009285Y-36496485D01*
X92723571Y-36389700D02*
X93866429Y-36389700D01*
X93295000Y-36961128D02*
X93295000Y-35818271D01*
X87423571Y-36389700D02*
X88566429Y-36389700D01*
X92224427Y-62458249D02*
X91891094Y-61982058D01*
X91652999Y-62458249D02*
X91652999Y-61458249D01*
X91652999Y-61458249D02*
X92033951Y-61458249D01*
X92033951Y-61458249D02*
X92129189Y-61505868D01*
X92129189Y-61505868D02*
X92176808Y-61553487D01*
X92176808Y-61553487D02*
X92224427Y-61648725D01*
X92224427Y-61648725D02*
X92224427Y-61791582D01*
X92224427Y-61791582D02*
X92176808Y-61886820D01*
X92176808Y-61886820D02*
X92129189Y-61934439D01*
X92129189Y-61934439D02*
X92033951Y-61982058D01*
X92033951Y-61982058D02*
X91652999Y-61982058D01*
X93081570Y-61458249D02*
X92891094Y-61458249D01*
X92891094Y-61458249D02*
X92795856Y-61505868D01*
X92795856Y-61505868D02*
X92748237Y-61553487D01*
X92748237Y-61553487D02*
X92652999Y-61696344D01*
X92652999Y-61696344D02*
X92605380Y-61886820D01*
X92605380Y-61886820D02*
X92605380Y-62267772D01*
X92605380Y-62267772D02*
X92652999Y-62363010D01*
X92652999Y-62363010D02*
X92700618Y-62410630D01*
X92700618Y-62410630D02*
X92795856Y-62458249D01*
X92795856Y-62458249D02*
X92986332Y-62458249D01*
X92986332Y-62458249D02*
X93081570Y-62410630D01*
X93081570Y-62410630D02*
X93129189Y-62363010D01*
X93129189Y-62363010D02*
X93176808Y-62267772D01*
X93176808Y-62267772D02*
X93176808Y-62029677D01*
X93176808Y-62029677D02*
X93129189Y-61934439D01*
X93129189Y-61934439D02*
X93081570Y-61886820D01*
X93081570Y-61886820D02*
X92986332Y-61839201D01*
X92986332Y-61839201D02*
X92795856Y-61839201D01*
X92795856Y-61839201D02*
X92700618Y-61886820D01*
X92700618Y-61886820D02*
X92652999Y-61934439D01*
X92652999Y-61934439D02*
X92605380Y-62029677D01*
X104711666Y-35829819D02*
X104711666Y-36544104D01*
X104711666Y-36544104D02*
X104664047Y-36686961D01*
X104664047Y-36686961D02*
X104568809Y-36782200D01*
X104568809Y-36782200D02*
X104425952Y-36829819D01*
X104425952Y-36829819D02*
X104330714Y-36829819D01*
X105092619Y-35829819D02*
X105711666Y-35829819D01*
X105711666Y-35829819D02*
X105378333Y-36210771D01*
X105378333Y-36210771D02*
X105521190Y-36210771D01*
X105521190Y-36210771D02*
X105616428Y-36258390D01*
X105616428Y-36258390D02*
X105664047Y-36306009D01*
X105664047Y-36306009D02*
X105711666Y-36401247D01*
X105711666Y-36401247D02*
X105711666Y-36639342D01*
X105711666Y-36639342D02*
X105664047Y-36734580D01*
X105664047Y-36734580D02*
X105616428Y-36782200D01*
X105616428Y-36782200D02*
X105521190Y-36829819D01*
X105521190Y-36829819D02*
X105235476Y-36829819D01*
X105235476Y-36829819D02*
X105140238Y-36782200D01*
X105140238Y-36782200D02*
X105092619Y-36734580D01*
X107173571Y-36289700D02*
X108316429Y-36289700D01*
X107745000Y-36861128D02*
X107745000Y-35718271D01*
X101973571Y-36289700D02*
X103116429Y-36289700D01*
X90326048Y-43293010D02*
X90278429Y-43340630D01*
X90278429Y-43340630D02*
X90135572Y-43388249D01*
X90135572Y-43388249D02*
X90040334Y-43388249D01*
X90040334Y-43388249D02*
X89897477Y-43340630D01*
X89897477Y-43340630D02*
X89802239Y-43245391D01*
X89802239Y-43245391D02*
X89754620Y-43150153D01*
X89754620Y-43150153D02*
X89707001Y-42959677D01*
X89707001Y-42959677D02*
X89707001Y-42816820D01*
X89707001Y-42816820D02*
X89754620Y-42626344D01*
X89754620Y-42626344D02*
X89802239Y-42531106D01*
X89802239Y-42531106D02*
X89897477Y-42435868D01*
X89897477Y-42435868D02*
X90040334Y-42388249D01*
X90040334Y-42388249D02*
X90135572Y-42388249D01*
X90135572Y-42388249D02*
X90278429Y-42435868D01*
X90278429Y-42435868D02*
X90326048Y-42483487D01*
X91278429Y-43388249D02*
X90707001Y-43388249D01*
X90992715Y-43388249D02*
X90992715Y-42388249D01*
X90992715Y-42388249D02*
X90897477Y-42531106D01*
X90897477Y-42531106D02*
X90802239Y-42626344D01*
X90802239Y-42626344D02*
X90707001Y-42673963D01*
X91659382Y-42483487D02*
X91707001Y-42435868D01*
X91707001Y-42435868D02*
X91802239Y-42388249D01*
X91802239Y-42388249D02*
X92040334Y-42388249D01*
X92040334Y-42388249D02*
X92135572Y-42435868D01*
X92135572Y-42435868D02*
X92183191Y-42483487D01*
X92183191Y-42483487D02*
X92230810Y-42578725D01*
X92230810Y-42578725D02*
X92230810Y-42673963D01*
X92230810Y-42673963D02*
X92183191Y-42816820D01*
X92183191Y-42816820D02*
X91611763Y-43388249D01*
X91611763Y-43388249D02*
X92230810Y-43388249D01*
X40879819Y-70891666D02*
X40403628Y-71224999D01*
X40879819Y-71463094D02*
X39879819Y-71463094D01*
X39879819Y-71463094D02*
X39879819Y-71082142D01*
X39879819Y-71082142D02*
X39927438Y-70986904D01*
X39927438Y-70986904D02*
X39975057Y-70939285D01*
X39975057Y-70939285D02*
X40070295Y-70891666D01*
X40070295Y-70891666D02*
X40213152Y-70891666D01*
X40213152Y-70891666D02*
X40308390Y-70939285D01*
X40308390Y-70939285D02*
X40356009Y-70986904D01*
X40356009Y-70986904D02*
X40403628Y-71082142D01*
X40403628Y-71082142D02*
X40403628Y-71463094D01*
X39879819Y-70558332D02*
X39879819Y-69939285D01*
X39879819Y-69939285D02*
X40260771Y-70272618D01*
X40260771Y-70272618D02*
X40260771Y-70129761D01*
X40260771Y-70129761D02*
X40308390Y-70034523D01*
X40308390Y-70034523D02*
X40356009Y-69986904D01*
X40356009Y-69986904D02*
X40451247Y-69939285D01*
X40451247Y-69939285D02*
X40689342Y-69939285D01*
X40689342Y-69939285D02*
X40784580Y-69986904D01*
X40784580Y-69986904D02*
X40832200Y-70034523D01*
X40832200Y-70034523D02*
X40879819Y-70129761D01*
X40879819Y-70129761D02*
X40879819Y-70415475D01*
X40879819Y-70415475D02*
X40832200Y-70510713D01*
X40832200Y-70510713D02*
X40784580Y-70558332D01*
X116171151Y-56616667D02*
X116218771Y-56664286D01*
X116218771Y-56664286D02*
X116266390Y-56807143D01*
X116266390Y-56807143D02*
X116266390Y-56902381D01*
X116266390Y-56902381D02*
X116218771Y-57045238D01*
X116218771Y-57045238D02*
X116123532Y-57140476D01*
X116123532Y-57140476D02*
X116028294Y-57188095D01*
X116028294Y-57188095D02*
X115837818Y-57235714D01*
X115837818Y-57235714D02*
X115694961Y-57235714D01*
X115694961Y-57235714D02*
X115504485Y-57188095D01*
X115504485Y-57188095D02*
X115409247Y-57140476D01*
X115409247Y-57140476D02*
X115314009Y-57045238D01*
X115314009Y-57045238D02*
X115266390Y-56902381D01*
X115266390Y-56902381D02*
X115266390Y-56807143D01*
X115266390Y-56807143D02*
X115314009Y-56664286D01*
X115314009Y-56664286D02*
X115361628Y-56616667D01*
X115361628Y-56235714D02*
X115314009Y-56188095D01*
X115314009Y-56188095D02*
X115266390Y-56092857D01*
X115266390Y-56092857D02*
X115266390Y-55854762D01*
X115266390Y-55854762D02*
X115314009Y-55759524D01*
X115314009Y-55759524D02*
X115361628Y-55711905D01*
X115361628Y-55711905D02*
X115456866Y-55664286D01*
X115456866Y-55664286D02*
X115552104Y-55664286D01*
X115552104Y-55664286D02*
X115694961Y-55711905D01*
X115694961Y-55711905D02*
X116266390Y-56283333D01*
X116266390Y-56283333D02*
X116266390Y-55664286D01*
X105940476Y-75449819D02*
X105940476Y-76164104D01*
X105940476Y-76164104D02*
X105892857Y-76306961D01*
X105892857Y-76306961D02*
X105797619Y-76402200D01*
X105797619Y-76402200D02*
X105654762Y-76449819D01*
X105654762Y-76449819D02*
X105559524Y-76449819D01*
X106940476Y-76449819D02*
X106369048Y-76449819D01*
X106654762Y-76449819D02*
X106654762Y-75449819D01*
X106654762Y-75449819D02*
X106559524Y-75592676D01*
X106559524Y-75592676D02*
X106464286Y-75687914D01*
X106464286Y-75687914D02*
X106369048Y-75735533D01*
X107892857Y-76449819D02*
X107321429Y-76449819D01*
X107607143Y-76449819D02*
X107607143Y-75449819D01*
X107607143Y-75449819D02*
X107511905Y-75592676D01*
X107511905Y-75592676D02*
X107416667Y-75687914D01*
X107416667Y-75687914D02*
X107321429Y-75735533D01*
X114714666Y-48604820D02*
X114714666Y-49414343D01*
X114714666Y-49414343D02*
X114762285Y-49509581D01*
X114762285Y-49509581D02*
X114809904Y-49557201D01*
X114809904Y-49557201D02*
X114905142Y-49604820D01*
X114905142Y-49604820D02*
X115095618Y-49604820D01*
X115095618Y-49604820D02*
X115190856Y-49557201D01*
X115190856Y-49557201D02*
X115238475Y-49509581D01*
X115238475Y-49509581D02*
X115286094Y-49414343D01*
X115286094Y-49414343D02*
X115286094Y-48604820D01*
X116286094Y-49604820D02*
X115714666Y-49604820D01*
X116000380Y-49604820D02*
X116000380Y-48604820D01*
X116000380Y-48604820D02*
X115905142Y-48747677D01*
X115905142Y-48747677D02*
X115809904Y-48842915D01*
X115809904Y-48842915D02*
X115714666Y-48890534D01*
X40804580Y-67037857D02*
X40852200Y-67085476D01*
X40852200Y-67085476D02*
X40899819Y-67228333D01*
X40899819Y-67228333D02*
X40899819Y-67323571D01*
X40899819Y-67323571D02*
X40852200Y-67466428D01*
X40852200Y-67466428D02*
X40756961Y-67561666D01*
X40756961Y-67561666D02*
X40661723Y-67609285D01*
X40661723Y-67609285D02*
X40471247Y-67656904D01*
X40471247Y-67656904D02*
X40328390Y-67656904D01*
X40328390Y-67656904D02*
X40137914Y-67609285D01*
X40137914Y-67609285D02*
X40042676Y-67561666D01*
X40042676Y-67561666D02*
X39947438Y-67466428D01*
X39947438Y-67466428D02*
X39899819Y-67323571D01*
X39899819Y-67323571D02*
X39899819Y-67228333D01*
X39899819Y-67228333D02*
X39947438Y-67085476D01*
X39947438Y-67085476D02*
X39995057Y-67037857D01*
X40899819Y-66085476D02*
X40899819Y-66656904D01*
X40899819Y-66371190D02*
X39899819Y-66371190D01*
X39899819Y-66371190D02*
X40042676Y-66466428D01*
X40042676Y-66466428D02*
X40137914Y-66561666D01*
X40137914Y-66561666D02*
X40185533Y-66656904D01*
X39899819Y-65228333D02*
X39899819Y-65418809D01*
X39899819Y-65418809D02*
X39947438Y-65514047D01*
X39947438Y-65514047D02*
X39995057Y-65561666D01*
X39995057Y-65561666D02*
X40137914Y-65656904D01*
X40137914Y-65656904D02*
X40328390Y-65704523D01*
X40328390Y-65704523D02*
X40709342Y-65704523D01*
X40709342Y-65704523D02*
X40804580Y-65656904D01*
X40804580Y-65656904D02*
X40852200Y-65609285D01*
X40852200Y-65609285D02*
X40899819Y-65514047D01*
X40899819Y-65514047D02*
X40899819Y-65323571D01*
X40899819Y-65323571D02*
X40852200Y-65228333D01*
X40852200Y-65228333D02*
X40804580Y-65180714D01*
X40804580Y-65180714D02*
X40709342Y-65133095D01*
X40709342Y-65133095D02*
X40471247Y-65133095D01*
X40471247Y-65133095D02*
X40376009Y-65180714D01*
X40376009Y-65180714D02*
X40328390Y-65228333D01*
X40328390Y-65228333D02*
X40280771Y-65323571D01*
X40280771Y-65323571D02*
X40280771Y-65514047D01*
X40280771Y-65514047D02*
X40328390Y-65609285D01*
X40328390Y-65609285D02*
X40376009Y-65656904D01*
X40376009Y-65656904D02*
X40471247Y-65704523D01*
X113865476Y-28259819D02*
X113865476Y-28974104D01*
X113865476Y-28974104D02*
X113817857Y-29116961D01*
X113817857Y-29116961D02*
X113722619Y-29212200D01*
X113722619Y-29212200D02*
X113579762Y-29259819D01*
X113579762Y-29259819D02*
X113484524Y-29259819D01*
X114294048Y-28355057D02*
X114341667Y-28307438D01*
X114341667Y-28307438D02*
X114436905Y-28259819D01*
X114436905Y-28259819D02*
X114675000Y-28259819D01*
X114675000Y-28259819D02*
X114770238Y-28307438D01*
X114770238Y-28307438D02*
X114817857Y-28355057D01*
X114817857Y-28355057D02*
X114865476Y-28450295D01*
X114865476Y-28450295D02*
X114865476Y-28545533D01*
X114865476Y-28545533D02*
X114817857Y-28688390D01*
X114817857Y-28688390D02*
X114246429Y-29259819D01*
X114246429Y-29259819D02*
X114865476Y-29259819D01*
X115246429Y-28355057D02*
X115294048Y-28307438D01*
X115294048Y-28307438D02*
X115389286Y-28259819D01*
X115389286Y-28259819D02*
X115627381Y-28259819D01*
X115627381Y-28259819D02*
X115722619Y-28307438D01*
X115722619Y-28307438D02*
X115770238Y-28355057D01*
X115770238Y-28355057D02*
X115817857Y-28450295D01*
X115817857Y-28450295D02*
X115817857Y-28545533D01*
X115817857Y-28545533D02*
X115770238Y-28688390D01*
X115770238Y-28688390D02*
X115198810Y-29259819D01*
X115198810Y-29259819D02*
X115817857Y-29259819D01*
X35676666Y-75449819D02*
X35676666Y-76164104D01*
X35676666Y-76164104D02*
X35629047Y-76306961D01*
X35629047Y-76306961D02*
X35533809Y-76402200D01*
X35533809Y-76402200D02*
X35390952Y-76449819D01*
X35390952Y-76449819D02*
X35295714Y-76449819D01*
X36057619Y-75449819D02*
X36724285Y-75449819D01*
X36724285Y-75449819D02*
X36295714Y-76449819D01*
X24899819Y-51837857D02*
X24423628Y-52171190D01*
X24899819Y-52409285D02*
X23899819Y-52409285D01*
X23899819Y-52409285D02*
X23899819Y-52028333D01*
X23899819Y-52028333D02*
X23947438Y-51933095D01*
X23947438Y-51933095D02*
X23995057Y-51885476D01*
X23995057Y-51885476D02*
X24090295Y-51837857D01*
X24090295Y-51837857D02*
X24233152Y-51837857D01*
X24233152Y-51837857D02*
X24328390Y-51885476D01*
X24328390Y-51885476D02*
X24376009Y-51933095D01*
X24376009Y-51933095D02*
X24423628Y-52028333D01*
X24423628Y-52028333D02*
X24423628Y-52409285D01*
X24899819Y-50885476D02*
X24899819Y-51456904D01*
X24899819Y-51171190D02*
X23899819Y-51171190D01*
X23899819Y-51171190D02*
X24042676Y-51266428D01*
X24042676Y-51266428D02*
X24137914Y-51361666D01*
X24137914Y-51361666D02*
X24185533Y-51456904D01*
X24899819Y-50409285D02*
X24899819Y-50218809D01*
X24899819Y-50218809D02*
X24852200Y-50123571D01*
X24852200Y-50123571D02*
X24804580Y-50075952D01*
X24804580Y-50075952D02*
X24661723Y-49980714D01*
X24661723Y-49980714D02*
X24471247Y-49933095D01*
X24471247Y-49933095D02*
X24090295Y-49933095D01*
X24090295Y-49933095D02*
X23995057Y-49980714D01*
X23995057Y-49980714D02*
X23947438Y-50028333D01*
X23947438Y-50028333D02*
X23899819Y-50123571D01*
X23899819Y-50123571D02*
X23899819Y-50314047D01*
X23899819Y-50314047D02*
X23947438Y-50409285D01*
X23947438Y-50409285D02*
X23995057Y-50456904D01*
X23995057Y-50456904D02*
X24090295Y-50504523D01*
X24090295Y-50504523D02*
X24328390Y-50504523D01*
X24328390Y-50504523D02*
X24423628Y-50456904D01*
X24423628Y-50456904D02*
X24471247Y-50409285D01*
X24471247Y-50409285D02*
X24518866Y-50314047D01*
X24518866Y-50314047D02*
X24518866Y-50123571D01*
X24518866Y-50123571D02*
X24471247Y-50028333D01*
X24471247Y-50028333D02*
X24423628Y-49980714D01*
X24423628Y-49980714D02*
X24328390Y-49933095D01*
X116181151Y-54516667D02*
X116228771Y-54564286D01*
X116228771Y-54564286D02*
X116276390Y-54707143D01*
X116276390Y-54707143D02*
X116276390Y-54802381D01*
X116276390Y-54802381D02*
X116228771Y-54945238D01*
X116228771Y-54945238D02*
X116133532Y-55040476D01*
X116133532Y-55040476D02*
X116038294Y-55088095D01*
X116038294Y-55088095D02*
X115847818Y-55135714D01*
X115847818Y-55135714D02*
X115704961Y-55135714D01*
X115704961Y-55135714D02*
X115514485Y-55088095D01*
X115514485Y-55088095D02*
X115419247Y-55040476D01*
X115419247Y-55040476D02*
X115324009Y-54945238D01*
X115324009Y-54945238D02*
X115276390Y-54802381D01*
X115276390Y-54802381D02*
X115276390Y-54707143D01*
X115276390Y-54707143D02*
X115324009Y-54564286D01*
X115324009Y-54564286D02*
X115371628Y-54516667D01*
X116276390Y-53564286D02*
X116276390Y-54135714D01*
X116276390Y-53850000D02*
X115276390Y-53850000D01*
X115276390Y-53850000D02*
X115419247Y-53945238D01*
X115419247Y-53945238D02*
X115514485Y-54040476D01*
X115514485Y-54040476D02*
X115562104Y-54135714D01*
X120279905Y-49448249D02*
X119946572Y-48972058D01*
X119708477Y-49448249D02*
X119708477Y-48448249D01*
X119708477Y-48448249D02*
X120089429Y-48448249D01*
X120089429Y-48448249D02*
X120184667Y-48495868D01*
X120184667Y-48495868D02*
X120232286Y-48543487D01*
X120232286Y-48543487D02*
X120279905Y-48638725D01*
X120279905Y-48638725D02*
X120279905Y-48781582D01*
X120279905Y-48781582D02*
X120232286Y-48876820D01*
X120232286Y-48876820D02*
X120184667Y-48924439D01*
X120184667Y-48924439D02*
X120089429Y-48972058D01*
X120089429Y-48972058D02*
X119708477Y-48972058D01*
X120660858Y-48543487D02*
X120708477Y-48495868D01*
X120708477Y-48495868D02*
X120803715Y-48448249D01*
X120803715Y-48448249D02*
X121041810Y-48448249D01*
X121041810Y-48448249D02*
X121137048Y-48495868D01*
X121137048Y-48495868D02*
X121184667Y-48543487D01*
X121184667Y-48543487D02*
X121232286Y-48638725D01*
X121232286Y-48638725D02*
X121232286Y-48733963D01*
X121232286Y-48733963D02*
X121184667Y-48876820D01*
X121184667Y-48876820D02*
X120613239Y-49448249D01*
X120613239Y-49448249D02*
X121232286Y-49448249D01*
X24999819Y-43937857D02*
X24523628Y-44271190D01*
X24999819Y-44509285D02*
X23999819Y-44509285D01*
X23999819Y-44509285D02*
X23999819Y-44128333D01*
X23999819Y-44128333D02*
X24047438Y-44033095D01*
X24047438Y-44033095D02*
X24095057Y-43985476D01*
X24095057Y-43985476D02*
X24190295Y-43937857D01*
X24190295Y-43937857D02*
X24333152Y-43937857D01*
X24333152Y-43937857D02*
X24428390Y-43985476D01*
X24428390Y-43985476D02*
X24476009Y-44033095D01*
X24476009Y-44033095D02*
X24523628Y-44128333D01*
X24523628Y-44128333D02*
X24523628Y-44509285D01*
X24999819Y-42985476D02*
X24999819Y-43556904D01*
X24999819Y-43271190D02*
X23999819Y-43271190D01*
X23999819Y-43271190D02*
X24142676Y-43366428D01*
X24142676Y-43366428D02*
X24237914Y-43461666D01*
X24237914Y-43461666D02*
X24285533Y-43556904D01*
X23999819Y-42652142D02*
X23999819Y-41985476D01*
X23999819Y-41985476D02*
X24999819Y-42414047D01*
X95195913Y-57965334D02*
X96005436Y-57965334D01*
X96005436Y-57965334D02*
X96100674Y-57917715D01*
X96100674Y-57917715D02*
X96148294Y-57870096D01*
X96148294Y-57870096D02*
X96195913Y-57774858D01*
X96195913Y-57774858D02*
X96195913Y-57584382D01*
X96195913Y-57584382D02*
X96148294Y-57489144D01*
X96148294Y-57489144D02*
X96100674Y-57441525D01*
X96100674Y-57441525D02*
X96005436Y-57393906D01*
X96005436Y-57393906D02*
X95195913Y-57393906D01*
X95291151Y-56965334D02*
X95243532Y-56917715D01*
X95243532Y-56917715D02*
X95195913Y-56822477D01*
X95195913Y-56822477D02*
X95195913Y-56584382D01*
X95195913Y-56584382D02*
X95243532Y-56489144D01*
X95243532Y-56489144D02*
X95291151Y-56441525D01*
X95291151Y-56441525D02*
X95386389Y-56393906D01*
X95386389Y-56393906D02*
X95481627Y-56393906D01*
X95481627Y-56393906D02*
X95624484Y-56441525D01*
X95624484Y-56441525D02*
X96195913Y-57012953D01*
X96195913Y-57012953D02*
X96195913Y-56393906D01*
X89515913Y-51750096D02*
X89515913Y-52226286D01*
X89515913Y-52226286D02*
X88515913Y-52226286D01*
X88611151Y-51464381D02*
X88563532Y-51416762D01*
X88563532Y-51416762D02*
X88515913Y-51321524D01*
X88515913Y-51321524D02*
X88515913Y-51083429D01*
X88515913Y-51083429D02*
X88563532Y-50988191D01*
X88563532Y-50988191D02*
X88611151Y-50940572D01*
X88611151Y-50940572D02*
X88706389Y-50892953D01*
X88706389Y-50892953D02*
X88801627Y-50892953D01*
X88801627Y-50892953D02*
X88944484Y-50940572D01*
X88944484Y-50940572D02*
X89515913Y-51512000D01*
X89515913Y-51512000D02*
X89515913Y-50892953D01*
X33849819Y-44014523D02*
X34564104Y-44014523D01*
X34564104Y-44014523D02*
X34706961Y-44062142D01*
X34706961Y-44062142D02*
X34802200Y-44157380D01*
X34802200Y-44157380D02*
X34849819Y-44300237D01*
X34849819Y-44300237D02*
X34849819Y-44395475D01*
X33945057Y-43585951D02*
X33897438Y-43538332D01*
X33897438Y-43538332D02*
X33849819Y-43443094D01*
X33849819Y-43443094D02*
X33849819Y-43204999D01*
X33849819Y-43204999D02*
X33897438Y-43109761D01*
X33897438Y-43109761D02*
X33945057Y-43062142D01*
X33945057Y-43062142D02*
X34040295Y-43014523D01*
X34040295Y-43014523D02*
X34135533Y-43014523D01*
X34135533Y-43014523D02*
X34278390Y-43062142D01*
X34278390Y-43062142D02*
X34849819Y-43633570D01*
X34849819Y-43633570D02*
X34849819Y-43014523D01*
X33849819Y-42681189D02*
X33849819Y-42062142D01*
X33849819Y-42062142D02*
X34230771Y-42395475D01*
X34230771Y-42395475D02*
X34230771Y-42252618D01*
X34230771Y-42252618D02*
X34278390Y-42157380D01*
X34278390Y-42157380D02*
X34326009Y-42109761D01*
X34326009Y-42109761D02*
X34421247Y-42062142D01*
X34421247Y-42062142D02*
X34659342Y-42062142D01*
X34659342Y-42062142D02*
X34754580Y-42109761D01*
X34754580Y-42109761D02*
X34802200Y-42157380D01*
X34802200Y-42157380D02*
X34849819Y-42252618D01*
X34849819Y-42252618D02*
X34849819Y-42538332D01*
X34849819Y-42538332D02*
X34802200Y-42633570D01*
X34802200Y-42633570D02*
X34754580Y-42681189D01*
X30229819Y-51837857D02*
X29753628Y-52171190D01*
X30229819Y-52409285D02*
X29229819Y-52409285D01*
X29229819Y-52409285D02*
X29229819Y-52028333D01*
X29229819Y-52028333D02*
X29277438Y-51933095D01*
X29277438Y-51933095D02*
X29325057Y-51885476D01*
X29325057Y-51885476D02*
X29420295Y-51837857D01*
X29420295Y-51837857D02*
X29563152Y-51837857D01*
X29563152Y-51837857D02*
X29658390Y-51885476D01*
X29658390Y-51885476D02*
X29706009Y-51933095D01*
X29706009Y-51933095D02*
X29753628Y-52028333D01*
X29753628Y-52028333D02*
X29753628Y-52409285D01*
X29325057Y-51456904D02*
X29277438Y-51409285D01*
X29277438Y-51409285D02*
X29229819Y-51314047D01*
X29229819Y-51314047D02*
X29229819Y-51075952D01*
X29229819Y-51075952D02*
X29277438Y-50980714D01*
X29277438Y-50980714D02*
X29325057Y-50933095D01*
X29325057Y-50933095D02*
X29420295Y-50885476D01*
X29420295Y-50885476D02*
X29515533Y-50885476D01*
X29515533Y-50885476D02*
X29658390Y-50933095D01*
X29658390Y-50933095D02*
X30229819Y-51504523D01*
X30229819Y-51504523D02*
X30229819Y-50885476D01*
X29229819Y-50266428D02*
X29229819Y-50171190D01*
X29229819Y-50171190D02*
X29277438Y-50075952D01*
X29277438Y-50075952D02*
X29325057Y-50028333D01*
X29325057Y-50028333D02*
X29420295Y-49980714D01*
X29420295Y-49980714D02*
X29610771Y-49933095D01*
X29610771Y-49933095D02*
X29848866Y-49933095D01*
X29848866Y-49933095D02*
X30039342Y-49980714D01*
X30039342Y-49980714D02*
X30134580Y-50028333D01*
X30134580Y-50028333D02*
X30182200Y-50075952D01*
X30182200Y-50075952D02*
X30229819Y-50171190D01*
X30229819Y-50171190D02*
X30229819Y-50266428D01*
X30229819Y-50266428D02*
X30182200Y-50361666D01*
X30182200Y-50361666D02*
X30134580Y-50409285D01*
X30134580Y-50409285D02*
X30039342Y-50456904D01*
X30039342Y-50456904D02*
X29848866Y-50504523D01*
X29848866Y-50504523D02*
X29610771Y-50504523D01*
X29610771Y-50504523D02*
X29420295Y-50456904D01*
X29420295Y-50456904D02*
X29325057Y-50409285D01*
X29325057Y-50409285D02*
X29277438Y-50361666D01*
X29277438Y-50361666D02*
X29229819Y-50266428D01*
X33023477Y-30873249D02*
X33023477Y-29873249D01*
X33023477Y-29873249D02*
X33261572Y-29873249D01*
X33261572Y-29873249D02*
X33404429Y-29920868D01*
X33404429Y-29920868D02*
X33499667Y-30016106D01*
X33499667Y-30016106D02*
X33547286Y-30111344D01*
X33547286Y-30111344D02*
X33594905Y-30301820D01*
X33594905Y-30301820D02*
X33594905Y-30444677D01*
X33594905Y-30444677D02*
X33547286Y-30635153D01*
X33547286Y-30635153D02*
X33499667Y-30730391D01*
X33499667Y-30730391D02*
X33404429Y-30825630D01*
X33404429Y-30825630D02*
X33261572Y-30873249D01*
X33261572Y-30873249D02*
X33023477Y-30873249D01*
X33975858Y-29968487D02*
X34023477Y-29920868D01*
X34023477Y-29920868D02*
X34118715Y-29873249D01*
X34118715Y-29873249D02*
X34356810Y-29873249D01*
X34356810Y-29873249D02*
X34452048Y-29920868D01*
X34452048Y-29920868D02*
X34499667Y-29968487D01*
X34499667Y-29968487D02*
X34547286Y-30063725D01*
X34547286Y-30063725D02*
X34547286Y-30158963D01*
X34547286Y-30158963D02*
X34499667Y-30301820D01*
X34499667Y-30301820D02*
X33928239Y-30873249D01*
X33928239Y-30873249D02*
X34547286Y-30873249D01*
X61501390Y-49538334D02*
X62215675Y-49538334D01*
X62215675Y-49538334D02*
X62358532Y-49585953D01*
X62358532Y-49585953D02*
X62453771Y-49681191D01*
X62453771Y-49681191D02*
X62501390Y-49824048D01*
X62501390Y-49824048D02*
X62501390Y-49919286D01*
X61501390Y-48633572D02*
X61501390Y-48824048D01*
X61501390Y-48824048D02*
X61549009Y-48919286D01*
X61549009Y-48919286D02*
X61596628Y-48966905D01*
X61596628Y-48966905D02*
X61739485Y-49062143D01*
X61739485Y-49062143D02*
X61929961Y-49109762D01*
X61929961Y-49109762D02*
X62310913Y-49109762D01*
X62310913Y-49109762D02*
X62406151Y-49062143D01*
X62406151Y-49062143D02*
X62453771Y-49014524D01*
X62453771Y-49014524D02*
X62501390Y-48919286D01*
X62501390Y-48919286D02*
X62501390Y-48728810D01*
X62501390Y-48728810D02*
X62453771Y-48633572D01*
X62453771Y-48633572D02*
X62406151Y-48585953D01*
X62406151Y-48585953D02*
X62310913Y-48538334D01*
X62310913Y-48538334D02*
X62072818Y-48538334D01*
X62072818Y-48538334D02*
X61977580Y-48585953D01*
X61977580Y-48585953D02*
X61929961Y-48633572D01*
X61929961Y-48633572D02*
X61882342Y-48728810D01*
X61882342Y-48728810D02*
X61882342Y-48919286D01*
X61882342Y-48919286D02*
X61929961Y-49014524D01*
X61929961Y-49014524D02*
X61977580Y-49062143D01*
X61977580Y-49062143D02*
X62072818Y-49109762D01*
X48895142Y-46989701D02*
X50038000Y-46989701D01*
X49466571Y-47561129D02*
X49466571Y-46418272D01*
X61761271Y-47376429D02*
X61761271Y-46233572D01*
X30329819Y-36037857D02*
X29853628Y-36371190D01*
X30329819Y-36609285D02*
X29329819Y-36609285D01*
X29329819Y-36609285D02*
X29329819Y-36228333D01*
X29329819Y-36228333D02*
X29377438Y-36133095D01*
X29377438Y-36133095D02*
X29425057Y-36085476D01*
X29425057Y-36085476D02*
X29520295Y-36037857D01*
X29520295Y-36037857D02*
X29663152Y-36037857D01*
X29663152Y-36037857D02*
X29758390Y-36085476D01*
X29758390Y-36085476D02*
X29806009Y-36133095D01*
X29806009Y-36133095D02*
X29853628Y-36228333D01*
X29853628Y-36228333D02*
X29853628Y-36609285D01*
X30329819Y-35085476D02*
X30329819Y-35656904D01*
X30329819Y-35371190D02*
X29329819Y-35371190D01*
X29329819Y-35371190D02*
X29472676Y-35466428D01*
X29472676Y-35466428D02*
X29567914Y-35561666D01*
X29567914Y-35561666D02*
X29615533Y-35656904D01*
X29329819Y-34228333D02*
X29329819Y-34418809D01*
X29329819Y-34418809D02*
X29377438Y-34514047D01*
X29377438Y-34514047D02*
X29425057Y-34561666D01*
X29425057Y-34561666D02*
X29567914Y-34656904D01*
X29567914Y-34656904D02*
X29758390Y-34704523D01*
X29758390Y-34704523D02*
X30139342Y-34704523D01*
X30139342Y-34704523D02*
X30234580Y-34656904D01*
X30234580Y-34656904D02*
X30282200Y-34609285D01*
X30282200Y-34609285D02*
X30329819Y-34514047D01*
X30329819Y-34514047D02*
X30329819Y-34323571D01*
X30329819Y-34323571D02*
X30282200Y-34228333D01*
X30282200Y-34228333D02*
X30234580Y-34180714D01*
X30234580Y-34180714D02*
X30139342Y-34133095D01*
X30139342Y-34133095D02*
X29901247Y-34133095D01*
X29901247Y-34133095D02*
X29806009Y-34180714D01*
X29806009Y-34180714D02*
X29758390Y-34228333D01*
X29758390Y-34228333D02*
X29710771Y-34323571D01*
X29710771Y-34323571D02*
X29710771Y-34514047D01*
X29710771Y-34514047D02*
X29758390Y-34609285D01*
X29758390Y-34609285D02*
X29806009Y-34656904D01*
X29806009Y-34656904D02*
X29901247Y-34704523D01*
X85778236Y-52913010D02*
X85730617Y-52960630D01*
X85730617Y-52960630D02*
X85587760Y-53008249D01*
X85587760Y-53008249D02*
X85492522Y-53008249D01*
X85492522Y-53008249D02*
X85349665Y-52960630D01*
X85349665Y-52960630D02*
X85254427Y-52865391D01*
X85254427Y-52865391D02*
X85206808Y-52770153D01*
X85206808Y-52770153D02*
X85159189Y-52579677D01*
X85159189Y-52579677D02*
X85159189Y-52436820D01*
X85159189Y-52436820D02*
X85206808Y-52246344D01*
X85206808Y-52246344D02*
X85254427Y-52151106D01*
X85254427Y-52151106D02*
X85349665Y-52055868D01*
X85349665Y-52055868D02*
X85492522Y-52008249D01*
X85492522Y-52008249D02*
X85587760Y-52008249D01*
X85587760Y-52008249D02*
X85730617Y-52055868D01*
X85730617Y-52055868D02*
X85778236Y-52103487D01*
X86730617Y-53008249D02*
X86159189Y-53008249D01*
X86444903Y-53008249D02*
X86444903Y-52008249D01*
X86444903Y-52008249D02*
X86349665Y-52151106D01*
X86349665Y-52151106D02*
X86254427Y-52246344D01*
X86254427Y-52246344D02*
X86159189Y-52293963D01*
X87349665Y-52008249D02*
X87444903Y-52008249D01*
X87444903Y-52008249D02*
X87540141Y-52055868D01*
X87540141Y-52055868D02*
X87587760Y-52103487D01*
X87587760Y-52103487D02*
X87635379Y-52198725D01*
X87635379Y-52198725D02*
X87682998Y-52389201D01*
X87682998Y-52389201D02*
X87682998Y-52627296D01*
X87682998Y-52627296D02*
X87635379Y-52817772D01*
X87635379Y-52817772D02*
X87587760Y-52913010D01*
X87587760Y-52913010D02*
X87540141Y-52960630D01*
X87540141Y-52960630D02*
X87444903Y-53008249D01*
X87444903Y-53008249D02*
X87349665Y-53008249D01*
X87349665Y-53008249D02*
X87254427Y-52960630D01*
X87254427Y-52960630D02*
X87206808Y-52913010D01*
X87206808Y-52913010D02*
X87159189Y-52817772D01*
X87159189Y-52817772D02*
X87111570Y-52627296D01*
X87111570Y-52627296D02*
X87111570Y-52389201D01*
X87111570Y-52389201D02*
X87159189Y-52198725D01*
X87159189Y-52198725D02*
X87206808Y-52103487D01*
X87206808Y-52103487D02*
X87254427Y-52055868D01*
X87254427Y-52055868D02*
X87349665Y-52008249D01*
X88374427Y-62458249D02*
X88041094Y-61982058D01*
X87802999Y-62458249D02*
X87802999Y-61458249D01*
X87802999Y-61458249D02*
X88183951Y-61458249D01*
X88183951Y-61458249D02*
X88279189Y-61505868D01*
X88279189Y-61505868D02*
X88326808Y-61553487D01*
X88326808Y-61553487D02*
X88374427Y-61648725D01*
X88374427Y-61648725D02*
X88374427Y-61791582D01*
X88374427Y-61791582D02*
X88326808Y-61886820D01*
X88326808Y-61886820D02*
X88279189Y-61934439D01*
X88279189Y-61934439D02*
X88183951Y-61982058D01*
X88183951Y-61982058D02*
X87802999Y-61982058D01*
X88707761Y-61458249D02*
X89374427Y-61458249D01*
X89374427Y-61458249D02*
X88945856Y-62458249D01*
X108719761Y-59435057D02*
X108624523Y-59387438D01*
X108624523Y-59387438D02*
X108529285Y-59292200D01*
X108529285Y-59292200D02*
X108386428Y-59149342D01*
X108386428Y-59149342D02*
X108291190Y-59101723D01*
X108291190Y-59101723D02*
X108195952Y-59101723D01*
X108243571Y-59339819D02*
X108148333Y-59292200D01*
X108148333Y-59292200D02*
X108053095Y-59196961D01*
X108053095Y-59196961D02*
X108005476Y-59006485D01*
X108005476Y-59006485D02*
X108005476Y-58673152D01*
X108005476Y-58673152D02*
X108053095Y-58482676D01*
X108053095Y-58482676D02*
X108148333Y-58387438D01*
X108148333Y-58387438D02*
X108243571Y-58339819D01*
X108243571Y-58339819D02*
X108434047Y-58339819D01*
X108434047Y-58339819D02*
X108529285Y-58387438D01*
X108529285Y-58387438D02*
X108624523Y-58482676D01*
X108624523Y-58482676D02*
X108672142Y-58673152D01*
X108672142Y-58673152D02*
X108672142Y-59006485D01*
X108672142Y-59006485D02*
X108624523Y-59196961D01*
X108624523Y-59196961D02*
X108529285Y-59292200D01*
X108529285Y-59292200D02*
X108434047Y-59339819D01*
X108434047Y-59339819D02*
X108243571Y-59339819D01*
X109053095Y-58435057D02*
X109100714Y-58387438D01*
X109100714Y-58387438D02*
X109195952Y-58339819D01*
X109195952Y-58339819D02*
X109434047Y-58339819D01*
X109434047Y-58339819D02*
X109529285Y-58387438D01*
X109529285Y-58387438D02*
X109576904Y-58435057D01*
X109576904Y-58435057D02*
X109624523Y-58530295D01*
X109624523Y-58530295D02*
X109624523Y-58625533D01*
X109624523Y-58625533D02*
X109576904Y-58768390D01*
X109576904Y-58768390D02*
X109005476Y-59339819D01*
X109005476Y-59339819D02*
X109624523Y-59339819D01*
X17721390Y-77384524D02*
X18435675Y-77384524D01*
X18435675Y-77384524D02*
X18578532Y-77432143D01*
X18578532Y-77432143D02*
X18673771Y-77527381D01*
X18673771Y-77527381D02*
X18721390Y-77670238D01*
X18721390Y-77670238D02*
X18721390Y-77765476D01*
X18721390Y-76384524D02*
X18721390Y-76955952D01*
X18721390Y-76670238D02*
X17721390Y-76670238D01*
X17721390Y-76670238D02*
X17864247Y-76765476D01*
X17864247Y-76765476D02*
X17959485Y-76860714D01*
X17959485Y-76860714D02*
X18007104Y-76955952D01*
X17816628Y-76003571D02*
X17769009Y-75955952D01*
X17769009Y-75955952D02*
X17721390Y-75860714D01*
X17721390Y-75860714D02*
X17721390Y-75622619D01*
X17721390Y-75622619D02*
X17769009Y-75527381D01*
X17769009Y-75527381D02*
X17816628Y-75479762D01*
X17816628Y-75479762D02*
X17911866Y-75432143D01*
X17911866Y-75432143D02*
X18007104Y-75432143D01*
X18007104Y-75432143D02*
X18149961Y-75479762D01*
X18149961Y-75479762D02*
X18721390Y-76051190D01*
X18721390Y-76051190D02*
X18721390Y-75432143D01*
X30329819Y-43937857D02*
X29853628Y-44271190D01*
X30329819Y-44509285D02*
X29329819Y-44509285D01*
X29329819Y-44509285D02*
X29329819Y-44128333D01*
X29329819Y-44128333D02*
X29377438Y-44033095D01*
X29377438Y-44033095D02*
X29425057Y-43985476D01*
X29425057Y-43985476D02*
X29520295Y-43937857D01*
X29520295Y-43937857D02*
X29663152Y-43937857D01*
X29663152Y-43937857D02*
X29758390Y-43985476D01*
X29758390Y-43985476D02*
X29806009Y-44033095D01*
X29806009Y-44033095D02*
X29853628Y-44128333D01*
X29853628Y-44128333D02*
X29853628Y-44509285D01*
X30329819Y-42985476D02*
X30329819Y-43556904D01*
X30329819Y-43271190D02*
X29329819Y-43271190D01*
X29329819Y-43271190D02*
X29472676Y-43366428D01*
X29472676Y-43366428D02*
X29567914Y-43461666D01*
X29567914Y-43461666D02*
X29615533Y-43556904D01*
X29758390Y-42414047D02*
X29710771Y-42509285D01*
X29710771Y-42509285D02*
X29663152Y-42556904D01*
X29663152Y-42556904D02*
X29567914Y-42604523D01*
X29567914Y-42604523D02*
X29520295Y-42604523D01*
X29520295Y-42604523D02*
X29425057Y-42556904D01*
X29425057Y-42556904D02*
X29377438Y-42509285D01*
X29377438Y-42509285D02*
X29329819Y-42414047D01*
X29329819Y-42414047D02*
X29329819Y-42223571D01*
X29329819Y-42223571D02*
X29377438Y-42128333D01*
X29377438Y-42128333D02*
X29425057Y-42080714D01*
X29425057Y-42080714D02*
X29520295Y-42033095D01*
X29520295Y-42033095D02*
X29567914Y-42033095D01*
X29567914Y-42033095D02*
X29663152Y-42080714D01*
X29663152Y-42080714D02*
X29710771Y-42128333D01*
X29710771Y-42128333D02*
X29758390Y-42223571D01*
X29758390Y-42223571D02*
X29758390Y-42414047D01*
X29758390Y-42414047D02*
X29806009Y-42509285D01*
X29806009Y-42509285D02*
X29853628Y-42556904D01*
X29853628Y-42556904D02*
X29948866Y-42604523D01*
X29948866Y-42604523D02*
X30139342Y-42604523D01*
X30139342Y-42604523D02*
X30234580Y-42556904D01*
X30234580Y-42556904D02*
X30282200Y-42509285D01*
X30282200Y-42509285D02*
X30329819Y-42414047D01*
X30329819Y-42414047D02*
X30329819Y-42223571D01*
X30329819Y-42223571D02*
X30282200Y-42128333D01*
X30282200Y-42128333D02*
X30234580Y-42080714D01*
X30234580Y-42080714D02*
X30139342Y-42033095D01*
X30139342Y-42033095D02*
X29948866Y-42033095D01*
X29948866Y-42033095D02*
X29853628Y-42080714D01*
X29853628Y-42080714D02*
X29806009Y-42128333D01*
X29806009Y-42128333D02*
X29758390Y-42223571D01*
X33649904Y-36179820D02*
X33316571Y-35703629D01*
X33078476Y-36179820D02*
X33078476Y-35179820D01*
X33078476Y-35179820D02*
X33459428Y-35179820D01*
X33459428Y-35179820D02*
X33554666Y-35227439D01*
X33554666Y-35227439D02*
X33602285Y-35275058D01*
X33602285Y-35275058D02*
X33649904Y-35370296D01*
X33649904Y-35370296D02*
X33649904Y-35513153D01*
X33649904Y-35513153D02*
X33602285Y-35608391D01*
X33602285Y-35608391D02*
X33554666Y-35656010D01*
X33554666Y-35656010D02*
X33459428Y-35703629D01*
X33459428Y-35703629D02*
X33078476Y-35703629D01*
X34554666Y-35179820D02*
X34078476Y-35179820D01*
X34078476Y-35179820D02*
X34030857Y-35656010D01*
X34030857Y-35656010D02*
X34078476Y-35608391D01*
X34078476Y-35608391D02*
X34173714Y-35560772D01*
X34173714Y-35560772D02*
X34411809Y-35560772D01*
X34411809Y-35560772D02*
X34507047Y-35608391D01*
X34507047Y-35608391D02*
X34554666Y-35656010D01*
X34554666Y-35656010D02*
X34602285Y-35751248D01*
X34602285Y-35751248D02*
X34602285Y-35989343D01*
X34602285Y-35989343D02*
X34554666Y-36084581D01*
X34554666Y-36084581D02*
X34507047Y-36132201D01*
X34507047Y-36132201D02*
X34411809Y-36179820D01*
X34411809Y-36179820D02*
X34173714Y-36179820D01*
X34173714Y-36179820D02*
X34078476Y-36132201D01*
X34078476Y-36132201D02*
X34030857Y-36084581D01*
X112069904Y-48384581D02*
X112022285Y-48432201D01*
X112022285Y-48432201D02*
X111879428Y-48479820D01*
X111879428Y-48479820D02*
X111784190Y-48479820D01*
X111784190Y-48479820D02*
X111641333Y-48432201D01*
X111641333Y-48432201D02*
X111546095Y-48336962D01*
X111546095Y-48336962D02*
X111498476Y-48241724D01*
X111498476Y-48241724D02*
X111450857Y-48051248D01*
X111450857Y-48051248D02*
X111450857Y-47908391D01*
X111450857Y-47908391D02*
X111498476Y-47717915D01*
X111498476Y-47717915D02*
X111546095Y-47622677D01*
X111546095Y-47622677D02*
X111641333Y-47527439D01*
X111641333Y-47527439D02*
X111784190Y-47479820D01*
X111784190Y-47479820D02*
X111879428Y-47479820D01*
X111879428Y-47479820D02*
X112022285Y-47527439D01*
X112022285Y-47527439D02*
X112069904Y-47575058D01*
X112927047Y-47813153D02*
X112927047Y-48479820D01*
X112688952Y-47432201D02*
X112450857Y-48146486D01*
X112450857Y-48146486D02*
X113069904Y-48146486D01*
X75682142Y-48026247D02*
X75348809Y-47550056D01*
X75110714Y-48026247D02*
X75110714Y-47026247D01*
X75110714Y-47026247D02*
X75491666Y-47026247D01*
X75491666Y-47026247D02*
X75586904Y-47073866D01*
X75586904Y-47073866D02*
X75634523Y-47121485D01*
X75634523Y-47121485D02*
X75682142Y-47216723D01*
X75682142Y-47216723D02*
X75682142Y-47359580D01*
X75682142Y-47359580D02*
X75634523Y-47454818D01*
X75634523Y-47454818D02*
X75586904Y-47502437D01*
X75586904Y-47502437D02*
X75491666Y-47550056D01*
X75491666Y-47550056D02*
X75110714Y-47550056D01*
X76634523Y-48026247D02*
X76063095Y-48026247D01*
X76348809Y-48026247D02*
X76348809Y-47026247D01*
X76348809Y-47026247D02*
X76253571Y-47169104D01*
X76253571Y-47169104D02*
X76158333Y-47264342D01*
X76158333Y-47264342D02*
X76063095Y-47311961D01*
X77253571Y-47026247D02*
X77348809Y-47026247D01*
X77348809Y-47026247D02*
X77444047Y-47073866D01*
X77444047Y-47073866D02*
X77491666Y-47121485D01*
X77491666Y-47121485D02*
X77539285Y-47216723D01*
X77539285Y-47216723D02*
X77586904Y-47407199D01*
X77586904Y-47407199D02*
X77586904Y-47645294D01*
X77586904Y-47645294D02*
X77539285Y-47835770D01*
X77539285Y-47835770D02*
X77491666Y-47931008D01*
X77491666Y-47931008D02*
X77444047Y-47978628D01*
X77444047Y-47978628D02*
X77348809Y-48026247D01*
X77348809Y-48026247D02*
X77253571Y-48026247D01*
X77253571Y-48026247D02*
X77158333Y-47978628D01*
X77158333Y-47978628D02*
X77110714Y-47931008D01*
X77110714Y-47931008D02*
X77063095Y-47835770D01*
X77063095Y-47835770D02*
X77015476Y-47645294D01*
X77015476Y-47645294D02*
X77015476Y-47407199D01*
X77015476Y-47407199D02*
X77063095Y-47216723D01*
X77063095Y-47216723D02*
X77110714Y-47121485D01*
X77110714Y-47121485D02*
X77158333Y-47073866D01*
X77158333Y-47073866D02*
X77253571Y-47026247D01*
X107383713Y-71059820D02*
X107050380Y-70583629D01*
X106812285Y-71059820D02*
X106812285Y-70059820D01*
X106812285Y-70059820D02*
X107193237Y-70059820D01*
X107193237Y-70059820D02*
X107288475Y-70107439D01*
X107288475Y-70107439D02*
X107336094Y-70155058D01*
X107336094Y-70155058D02*
X107383713Y-70250296D01*
X107383713Y-70250296D02*
X107383713Y-70393153D01*
X107383713Y-70393153D02*
X107336094Y-70488391D01*
X107336094Y-70488391D02*
X107288475Y-70536010D01*
X107288475Y-70536010D02*
X107193237Y-70583629D01*
X107193237Y-70583629D02*
X106812285Y-70583629D01*
X108336094Y-71059820D02*
X107764666Y-71059820D01*
X108050380Y-71059820D02*
X108050380Y-70059820D01*
X108050380Y-70059820D02*
X107955142Y-70202677D01*
X107955142Y-70202677D02*
X107859904Y-70297915D01*
X107859904Y-70297915D02*
X107764666Y-70345534D01*
X108669428Y-70059820D02*
X109288475Y-70059820D01*
X109288475Y-70059820D02*
X108955142Y-70440772D01*
X108955142Y-70440772D02*
X109097999Y-70440772D01*
X109097999Y-70440772D02*
X109193237Y-70488391D01*
X109193237Y-70488391D02*
X109240856Y-70536010D01*
X109240856Y-70536010D02*
X109288475Y-70631248D01*
X109288475Y-70631248D02*
X109288475Y-70869343D01*
X109288475Y-70869343D02*
X109240856Y-70964581D01*
X109240856Y-70964581D02*
X109193237Y-71012201D01*
X109193237Y-71012201D02*
X109097999Y-71059820D01*
X109097999Y-71059820D02*
X108812285Y-71059820D01*
X108812285Y-71059820D02*
X108717047Y-71012201D01*
X108717047Y-71012201D02*
X108669428Y-70964581D01*
X97128236Y-54453010D02*
X97080617Y-54500630D01*
X97080617Y-54500630D02*
X96937760Y-54548249D01*
X96937760Y-54548249D02*
X96842522Y-54548249D01*
X96842522Y-54548249D02*
X96699665Y-54500630D01*
X96699665Y-54500630D02*
X96604427Y-54405391D01*
X96604427Y-54405391D02*
X96556808Y-54310153D01*
X96556808Y-54310153D02*
X96509189Y-54119677D01*
X96509189Y-54119677D02*
X96509189Y-53976820D01*
X96509189Y-53976820D02*
X96556808Y-53786344D01*
X96556808Y-53786344D02*
X96604427Y-53691106D01*
X96604427Y-53691106D02*
X96699665Y-53595868D01*
X96699665Y-53595868D02*
X96842522Y-53548249D01*
X96842522Y-53548249D02*
X96937760Y-53548249D01*
X96937760Y-53548249D02*
X97080617Y-53595868D01*
X97080617Y-53595868D02*
X97128236Y-53643487D01*
X98080617Y-54548249D02*
X97509189Y-54548249D01*
X97794903Y-54548249D02*
X97794903Y-53548249D01*
X97794903Y-53548249D02*
X97699665Y-53691106D01*
X97699665Y-53691106D02*
X97604427Y-53786344D01*
X97604427Y-53786344D02*
X97509189Y-53833963D01*
X99032998Y-54548249D02*
X98461570Y-54548249D01*
X98747284Y-54548249D02*
X98747284Y-53548249D01*
X98747284Y-53548249D02*
X98652046Y-53691106D01*
X98652046Y-53691106D02*
X98556808Y-53786344D01*
X98556808Y-53786344D02*
X98461570Y-53833963D01*
X81865915Y-59966287D02*
X81389724Y-60299620D01*
X81865915Y-60537715D02*
X80865915Y-60537715D01*
X80865915Y-60537715D02*
X80865915Y-60156763D01*
X80865915Y-60156763D02*
X80913534Y-60061525D01*
X80913534Y-60061525D02*
X80961153Y-60013906D01*
X80961153Y-60013906D02*
X81056391Y-59966287D01*
X81056391Y-59966287D02*
X81199248Y-59966287D01*
X81199248Y-59966287D02*
X81294486Y-60013906D01*
X81294486Y-60013906D02*
X81342105Y-60061525D01*
X81342105Y-60061525D02*
X81389724Y-60156763D01*
X81389724Y-60156763D02*
X81389724Y-60537715D01*
X81865915Y-59013906D02*
X81865915Y-59585334D01*
X81865915Y-59299620D02*
X80865915Y-59299620D01*
X80865915Y-59299620D02*
X81008772Y-59394858D01*
X81008772Y-59394858D02*
X81104010Y-59490096D01*
X81104010Y-59490096D02*
X81151629Y-59585334D01*
X81199248Y-58156763D02*
X81865915Y-58156763D01*
X80818296Y-58394858D02*
X81532581Y-58632953D01*
X81532581Y-58632953D02*
X81532581Y-58013906D01*
X15979819Y-45514523D02*
X16694104Y-45514523D01*
X16694104Y-45514523D02*
X16836961Y-45562142D01*
X16836961Y-45562142D02*
X16932200Y-45657380D01*
X16932200Y-45657380D02*
X16979819Y-45800237D01*
X16979819Y-45800237D02*
X16979819Y-45895475D01*
X16979819Y-44514523D02*
X16979819Y-45085951D01*
X16979819Y-44800237D02*
X15979819Y-44800237D01*
X15979819Y-44800237D02*
X16122676Y-44895475D01*
X16122676Y-44895475D02*
X16217914Y-44990713D01*
X16217914Y-44990713D02*
X16265533Y-45085951D01*
X15979819Y-44181189D02*
X15979819Y-43514523D01*
X15979819Y-43514523D02*
X16979819Y-43943094D01*
X15979819Y-69214523D02*
X16694104Y-69214523D01*
X16694104Y-69214523D02*
X16836961Y-69262142D01*
X16836961Y-69262142D02*
X16932200Y-69357380D01*
X16932200Y-69357380D02*
X16979819Y-69500237D01*
X16979819Y-69500237D02*
X16979819Y-69595475D01*
X16075057Y-68785951D02*
X16027438Y-68738332D01*
X16027438Y-68738332D02*
X15979819Y-68643094D01*
X15979819Y-68643094D02*
X15979819Y-68404999D01*
X15979819Y-68404999D02*
X16027438Y-68309761D01*
X16027438Y-68309761D02*
X16075057Y-68262142D01*
X16075057Y-68262142D02*
X16170295Y-68214523D01*
X16170295Y-68214523D02*
X16265533Y-68214523D01*
X16265533Y-68214523D02*
X16408390Y-68262142D01*
X16408390Y-68262142D02*
X16979819Y-68833570D01*
X16979819Y-68833570D02*
X16979819Y-68214523D01*
X15979819Y-67595475D02*
X15979819Y-67500237D01*
X15979819Y-67500237D02*
X16027438Y-67404999D01*
X16027438Y-67404999D02*
X16075057Y-67357380D01*
X16075057Y-67357380D02*
X16170295Y-67309761D01*
X16170295Y-67309761D02*
X16360771Y-67262142D01*
X16360771Y-67262142D02*
X16598866Y-67262142D01*
X16598866Y-67262142D02*
X16789342Y-67309761D01*
X16789342Y-67309761D02*
X16884580Y-67357380D01*
X16884580Y-67357380D02*
X16932200Y-67404999D01*
X16932200Y-67404999D02*
X16979819Y-67500237D01*
X16979819Y-67500237D02*
X16979819Y-67595475D01*
X16979819Y-67595475D02*
X16932200Y-67690713D01*
X16932200Y-67690713D02*
X16884580Y-67738332D01*
X16884580Y-67738332D02*
X16789342Y-67785951D01*
X16789342Y-67785951D02*
X16598866Y-67833570D01*
X16598866Y-67833570D02*
X16360771Y-67833570D01*
X16360771Y-67833570D02*
X16170295Y-67785951D01*
X16170295Y-67785951D02*
X16075057Y-67738332D01*
X16075057Y-67738332D02*
X16027438Y-67690713D01*
X16027438Y-67690713D02*
X15979819Y-67595475D01*
X113509904Y-27664820D02*
X113176571Y-27188629D01*
X112938476Y-27664820D02*
X112938476Y-26664820D01*
X112938476Y-26664820D02*
X113319428Y-26664820D01*
X113319428Y-26664820D02*
X113414666Y-26712439D01*
X113414666Y-26712439D02*
X113462285Y-26760058D01*
X113462285Y-26760058D02*
X113509904Y-26855296D01*
X113509904Y-26855296D02*
X113509904Y-26998153D01*
X113509904Y-26998153D02*
X113462285Y-27093391D01*
X113462285Y-27093391D02*
X113414666Y-27141010D01*
X113414666Y-27141010D02*
X113319428Y-27188629D01*
X113319428Y-27188629D02*
X112938476Y-27188629D01*
X114081333Y-27093391D02*
X113986095Y-27045772D01*
X113986095Y-27045772D02*
X113938476Y-26998153D01*
X113938476Y-26998153D02*
X113890857Y-26902915D01*
X113890857Y-26902915D02*
X113890857Y-26855296D01*
X113890857Y-26855296D02*
X113938476Y-26760058D01*
X113938476Y-26760058D02*
X113986095Y-26712439D01*
X113986095Y-26712439D02*
X114081333Y-26664820D01*
X114081333Y-26664820D02*
X114271809Y-26664820D01*
X114271809Y-26664820D02*
X114367047Y-26712439D01*
X114367047Y-26712439D02*
X114414666Y-26760058D01*
X114414666Y-26760058D02*
X114462285Y-26855296D01*
X114462285Y-26855296D02*
X114462285Y-26902915D01*
X114462285Y-26902915D02*
X114414666Y-26998153D01*
X114414666Y-26998153D02*
X114367047Y-27045772D01*
X114367047Y-27045772D02*
X114271809Y-27093391D01*
X114271809Y-27093391D02*
X114081333Y-27093391D01*
X114081333Y-27093391D02*
X113986095Y-27141010D01*
X113986095Y-27141010D02*
X113938476Y-27188629D01*
X113938476Y-27188629D02*
X113890857Y-27283867D01*
X113890857Y-27283867D02*
X113890857Y-27474343D01*
X113890857Y-27474343D02*
X113938476Y-27569581D01*
X113938476Y-27569581D02*
X113986095Y-27617201D01*
X113986095Y-27617201D02*
X114081333Y-27664820D01*
X114081333Y-27664820D02*
X114271809Y-27664820D01*
X114271809Y-27664820D02*
X114367047Y-27617201D01*
X114367047Y-27617201D02*
X114414666Y-27569581D01*
X114414666Y-27569581D02*
X114462285Y-27474343D01*
X114462285Y-27474343D02*
X114462285Y-27283867D01*
X114462285Y-27283867D02*
X114414666Y-27188629D01*
X114414666Y-27188629D02*
X114367047Y-27141010D01*
X114367047Y-27141010D02*
X114271809Y-27093391D01*
X90347619Y-41433009D02*
X90300000Y-41480629D01*
X90300000Y-41480629D02*
X90157143Y-41528248D01*
X90157143Y-41528248D02*
X90061905Y-41528248D01*
X90061905Y-41528248D02*
X89919048Y-41480629D01*
X89919048Y-41480629D02*
X89823810Y-41385390D01*
X89823810Y-41385390D02*
X89776191Y-41290152D01*
X89776191Y-41290152D02*
X89728572Y-41099676D01*
X89728572Y-41099676D02*
X89728572Y-40956819D01*
X89728572Y-40956819D02*
X89776191Y-40766343D01*
X89776191Y-40766343D02*
X89823810Y-40671105D01*
X89823810Y-40671105D02*
X89919048Y-40575867D01*
X89919048Y-40575867D02*
X90061905Y-40528248D01*
X90061905Y-40528248D02*
X90157143Y-40528248D01*
X90157143Y-40528248D02*
X90300000Y-40575867D01*
X90300000Y-40575867D02*
X90347619Y-40623486D01*
X91300000Y-41528248D02*
X90728572Y-41528248D01*
X91014286Y-41528248D02*
X91014286Y-40528248D01*
X91014286Y-40528248D02*
X90919048Y-40671105D01*
X90919048Y-40671105D02*
X90823810Y-40766343D01*
X90823810Y-40766343D02*
X90728572Y-40813962D01*
X91633334Y-40528248D02*
X92252381Y-40528248D01*
X92252381Y-40528248D02*
X91919048Y-40909200D01*
X91919048Y-40909200D02*
X92061905Y-40909200D01*
X92061905Y-40909200D02*
X92157143Y-40956819D01*
X92157143Y-40956819D02*
X92204762Y-41004438D01*
X92204762Y-41004438D02*
X92252381Y-41099676D01*
X92252381Y-41099676D02*
X92252381Y-41337771D01*
X92252381Y-41337771D02*
X92204762Y-41433009D01*
X92204762Y-41433009D02*
X92157143Y-41480629D01*
X92157143Y-41480629D02*
X92061905Y-41528248D01*
X92061905Y-41528248D02*
X91776191Y-41528248D01*
X91776191Y-41528248D02*
X91680953Y-41480629D01*
X91680953Y-41480629D02*
X91633334Y-41433009D01*
X24699819Y-59737857D02*
X24223628Y-60071190D01*
X24699819Y-60309285D02*
X23699819Y-60309285D01*
X23699819Y-60309285D02*
X23699819Y-59928333D01*
X23699819Y-59928333D02*
X23747438Y-59833095D01*
X23747438Y-59833095D02*
X23795057Y-59785476D01*
X23795057Y-59785476D02*
X23890295Y-59737857D01*
X23890295Y-59737857D02*
X24033152Y-59737857D01*
X24033152Y-59737857D02*
X24128390Y-59785476D01*
X24128390Y-59785476D02*
X24176009Y-59833095D01*
X24176009Y-59833095D02*
X24223628Y-59928333D01*
X24223628Y-59928333D02*
X24223628Y-60309285D01*
X23795057Y-59356904D02*
X23747438Y-59309285D01*
X23747438Y-59309285D02*
X23699819Y-59214047D01*
X23699819Y-59214047D02*
X23699819Y-58975952D01*
X23699819Y-58975952D02*
X23747438Y-58880714D01*
X23747438Y-58880714D02*
X23795057Y-58833095D01*
X23795057Y-58833095D02*
X23890295Y-58785476D01*
X23890295Y-58785476D02*
X23985533Y-58785476D01*
X23985533Y-58785476D02*
X24128390Y-58833095D01*
X24128390Y-58833095D02*
X24699819Y-59404523D01*
X24699819Y-59404523D02*
X24699819Y-58785476D01*
X24699819Y-57833095D02*
X24699819Y-58404523D01*
X24699819Y-58118809D02*
X23699819Y-58118809D01*
X23699819Y-58118809D02*
X23842676Y-58214047D01*
X23842676Y-58214047D02*
X23937914Y-58309285D01*
X23937914Y-58309285D02*
X23985533Y-58404523D01*
X15979819Y-53414523D02*
X16694104Y-53414523D01*
X16694104Y-53414523D02*
X16836961Y-53462142D01*
X16836961Y-53462142D02*
X16932200Y-53557380D01*
X16932200Y-53557380D02*
X16979819Y-53700237D01*
X16979819Y-53700237D02*
X16979819Y-53795475D01*
X16979819Y-52414523D02*
X16979819Y-52985951D01*
X16979819Y-52700237D02*
X15979819Y-52700237D01*
X15979819Y-52700237D02*
X16122676Y-52795475D01*
X16122676Y-52795475D02*
X16217914Y-52890713D01*
X16217914Y-52890713D02*
X16265533Y-52985951D01*
X16408390Y-51843094D02*
X16360771Y-51938332D01*
X16360771Y-51938332D02*
X16313152Y-51985951D01*
X16313152Y-51985951D02*
X16217914Y-52033570D01*
X16217914Y-52033570D02*
X16170295Y-52033570D01*
X16170295Y-52033570D02*
X16075057Y-51985951D01*
X16075057Y-51985951D02*
X16027438Y-51938332D01*
X16027438Y-51938332D02*
X15979819Y-51843094D01*
X15979819Y-51843094D02*
X15979819Y-51652618D01*
X15979819Y-51652618D02*
X16027438Y-51557380D01*
X16027438Y-51557380D02*
X16075057Y-51509761D01*
X16075057Y-51509761D02*
X16170295Y-51462142D01*
X16170295Y-51462142D02*
X16217914Y-51462142D01*
X16217914Y-51462142D02*
X16313152Y-51509761D01*
X16313152Y-51509761D02*
X16360771Y-51557380D01*
X16360771Y-51557380D02*
X16408390Y-51652618D01*
X16408390Y-51652618D02*
X16408390Y-51843094D01*
X16408390Y-51843094D02*
X16456009Y-51938332D01*
X16456009Y-51938332D02*
X16503628Y-51985951D01*
X16503628Y-51985951D02*
X16598866Y-52033570D01*
X16598866Y-52033570D02*
X16789342Y-52033570D01*
X16789342Y-52033570D02*
X16884580Y-51985951D01*
X16884580Y-51985951D02*
X16932200Y-51938332D01*
X16932200Y-51938332D02*
X16979819Y-51843094D01*
X16979819Y-51843094D02*
X16979819Y-51652618D01*
X16979819Y-51652618D02*
X16932200Y-51557380D01*
X16932200Y-51557380D02*
X16884580Y-51509761D01*
X16884580Y-51509761D02*
X16789342Y-51462142D01*
X16789342Y-51462142D02*
X16598866Y-51462142D01*
X16598866Y-51462142D02*
X16503628Y-51509761D01*
X16503628Y-51509761D02*
X16456009Y-51557380D01*
X16456009Y-51557380D02*
X16408390Y-51652618D01*
X30229819Y-59737857D02*
X29753628Y-60071190D01*
X30229819Y-60309285D02*
X29229819Y-60309285D01*
X29229819Y-60309285D02*
X29229819Y-59928333D01*
X29229819Y-59928333D02*
X29277438Y-59833095D01*
X29277438Y-59833095D02*
X29325057Y-59785476D01*
X29325057Y-59785476D02*
X29420295Y-59737857D01*
X29420295Y-59737857D02*
X29563152Y-59737857D01*
X29563152Y-59737857D02*
X29658390Y-59785476D01*
X29658390Y-59785476D02*
X29706009Y-59833095D01*
X29706009Y-59833095D02*
X29753628Y-59928333D01*
X29753628Y-59928333D02*
X29753628Y-60309285D01*
X29325057Y-59356904D02*
X29277438Y-59309285D01*
X29277438Y-59309285D02*
X29229819Y-59214047D01*
X29229819Y-59214047D02*
X29229819Y-58975952D01*
X29229819Y-58975952D02*
X29277438Y-58880714D01*
X29277438Y-58880714D02*
X29325057Y-58833095D01*
X29325057Y-58833095D02*
X29420295Y-58785476D01*
X29420295Y-58785476D02*
X29515533Y-58785476D01*
X29515533Y-58785476D02*
X29658390Y-58833095D01*
X29658390Y-58833095D02*
X30229819Y-59404523D01*
X30229819Y-59404523D02*
X30229819Y-58785476D01*
X29325057Y-58404523D02*
X29277438Y-58356904D01*
X29277438Y-58356904D02*
X29229819Y-58261666D01*
X29229819Y-58261666D02*
X29229819Y-58023571D01*
X29229819Y-58023571D02*
X29277438Y-57928333D01*
X29277438Y-57928333D02*
X29325057Y-57880714D01*
X29325057Y-57880714D02*
X29420295Y-57833095D01*
X29420295Y-57833095D02*
X29515533Y-57833095D01*
X29515533Y-57833095D02*
X29658390Y-57880714D01*
X29658390Y-57880714D02*
X30229819Y-58452142D01*
X30229819Y-58452142D02*
X30229819Y-57833095D01*
X71046666Y-75449819D02*
X71046666Y-76164104D01*
X71046666Y-76164104D02*
X70999047Y-76306961D01*
X70999047Y-76306961D02*
X70903809Y-76402200D01*
X70903809Y-76402200D02*
X70760952Y-76449819D01*
X70760952Y-76449819D02*
X70665714Y-76449819D01*
X71570476Y-76449819D02*
X71760952Y-76449819D01*
X71760952Y-76449819D02*
X71856190Y-76402200D01*
X71856190Y-76402200D02*
X71903809Y-76354580D01*
X71903809Y-76354580D02*
X71999047Y-76211723D01*
X71999047Y-76211723D02*
X72046666Y-76021247D01*
X72046666Y-76021247D02*
X72046666Y-75640295D01*
X72046666Y-75640295D02*
X71999047Y-75545057D01*
X71999047Y-75545057D02*
X71951428Y-75497438D01*
X71951428Y-75497438D02*
X71856190Y-75449819D01*
X71856190Y-75449819D02*
X71665714Y-75449819D01*
X71665714Y-75449819D02*
X71570476Y-75497438D01*
X71570476Y-75497438D02*
X71522857Y-75545057D01*
X71522857Y-75545057D02*
X71475238Y-75640295D01*
X71475238Y-75640295D02*
X71475238Y-75878390D01*
X71475238Y-75878390D02*
X71522857Y-75973628D01*
X71522857Y-75973628D02*
X71570476Y-76021247D01*
X71570476Y-76021247D02*
X71665714Y-76068866D01*
X71665714Y-76068866D02*
X71856190Y-76068866D01*
X71856190Y-76068866D02*
X71951428Y-76021247D01*
X71951428Y-76021247D02*
X71999047Y-75973628D01*
X71999047Y-75973628D02*
X72046666Y-75878390D01*
X120229819Y-37121666D02*
X119753628Y-37454999D01*
X120229819Y-37693094D02*
X119229819Y-37693094D01*
X119229819Y-37693094D02*
X119229819Y-37312142D01*
X119229819Y-37312142D02*
X119277438Y-37216904D01*
X119277438Y-37216904D02*
X119325057Y-37169285D01*
X119325057Y-37169285D02*
X119420295Y-37121666D01*
X119420295Y-37121666D02*
X119563152Y-37121666D01*
X119563152Y-37121666D02*
X119658390Y-37169285D01*
X119658390Y-37169285D02*
X119706009Y-37216904D01*
X119706009Y-37216904D02*
X119753628Y-37312142D01*
X119753628Y-37312142D02*
X119753628Y-37693094D01*
X119563152Y-36264523D02*
X120229819Y-36264523D01*
X119182200Y-36502618D02*
X119896485Y-36740713D01*
X119896485Y-36740713D02*
X119896485Y-36121666D01*
X103779905Y-57258249D02*
X103446572Y-56782058D01*
X103208477Y-57258249D02*
X103208477Y-56258249D01*
X103208477Y-56258249D02*
X103589429Y-56258249D01*
X103589429Y-56258249D02*
X103684667Y-56305868D01*
X103684667Y-56305868D02*
X103732286Y-56353487D01*
X103732286Y-56353487D02*
X103779905Y-56448725D01*
X103779905Y-56448725D02*
X103779905Y-56591582D01*
X103779905Y-56591582D02*
X103732286Y-56686820D01*
X103732286Y-56686820D02*
X103684667Y-56734439D01*
X103684667Y-56734439D02*
X103589429Y-56782058D01*
X103589429Y-56782058D02*
X103208477Y-56782058D01*
X104256096Y-57258249D02*
X104446572Y-57258249D01*
X104446572Y-57258249D02*
X104541810Y-57210630D01*
X104541810Y-57210630D02*
X104589429Y-57163010D01*
X104589429Y-57163010D02*
X104684667Y-57020153D01*
X104684667Y-57020153D02*
X104732286Y-56829677D01*
X104732286Y-56829677D02*
X104732286Y-56448725D01*
X104732286Y-56448725D02*
X104684667Y-56353487D01*
X104684667Y-56353487D02*
X104637048Y-56305868D01*
X104637048Y-56305868D02*
X104541810Y-56258249D01*
X104541810Y-56258249D02*
X104351334Y-56258249D01*
X104351334Y-56258249D02*
X104256096Y-56305868D01*
X104256096Y-56305868D02*
X104208477Y-56353487D01*
X104208477Y-56353487D02*
X104160858Y-56448725D01*
X104160858Y-56448725D02*
X104160858Y-56686820D01*
X104160858Y-56686820D02*
X104208477Y-56782058D01*
X104208477Y-56782058D02*
X104256096Y-56829677D01*
X104256096Y-56829677D02*
X104351334Y-56877296D01*
X104351334Y-56877296D02*
X104541810Y-56877296D01*
X104541810Y-56877296D02*
X104637048Y-56829677D01*
X104637048Y-56829677D02*
X104684667Y-56782058D01*
X104684667Y-56782058D02*
X104732286Y-56686820D01*
X103831390Y-51821667D02*
X103831390Y-52297857D01*
X103831390Y-52297857D02*
X102831390Y-52297857D01*
X103831390Y-50964524D02*
X103831390Y-51535952D01*
X103831390Y-51250238D02*
X102831390Y-51250238D01*
X102831390Y-51250238D02*
X102974247Y-51345476D01*
X102974247Y-51345476D02*
X103069485Y-51440714D01*
X103069485Y-51440714D02*
X103117104Y-51535952D01*
X41808333Y-48584580D02*
X41760714Y-48632200D01*
X41760714Y-48632200D02*
X41617857Y-48679819D01*
X41617857Y-48679819D02*
X41522619Y-48679819D01*
X41522619Y-48679819D02*
X41379762Y-48632200D01*
X41379762Y-48632200D02*
X41284524Y-48536961D01*
X41284524Y-48536961D02*
X41236905Y-48441723D01*
X41236905Y-48441723D02*
X41189286Y-48251247D01*
X41189286Y-48251247D02*
X41189286Y-48108390D01*
X41189286Y-48108390D02*
X41236905Y-47917914D01*
X41236905Y-47917914D02*
X41284524Y-47822676D01*
X41284524Y-47822676D02*
X41379762Y-47727438D01*
X41379762Y-47727438D02*
X41522619Y-47679819D01*
X41522619Y-47679819D02*
X41617857Y-47679819D01*
X41617857Y-47679819D02*
X41760714Y-47727438D01*
X41760714Y-47727438D02*
X41808333Y-47775057D01*
X42141667Y-47679819D02*
X42808333Y-47679819D01*
X42808333Y-47679819D02*
X42379762Y-48679819D01*
X40879819Y-74617857D02*
X40403628Y-74951190D01*
X40879819Y-75189285D02*
X39879819Y-75189285D01*
X39879819Y-75189285D02*
X39879819Y-74808333D01*
X39879819Y-74808333D02*
X39927438Y-74713095D01*
X39927438Y-74713095D02*
X39975057Y-74665476D01*
X39975057Y-74665476D02*
X40070295Y-74617857D01*
X40070295Y-74617857D02*
X40213152Y-74617857D01*
X40213152Y-74617857D02*
X40308390Y-74665476D01*
X40308390Y-74665476D02*
X40356009Y-74713095D01*
X40356009Y-74713095D02*
X40403628Y-74808333D01*
X40403628Y-74808333D02*
X40403628Y-75189285D01*
X39975057Y-74236904D02*
X39927438Y-74189285D01*
X39927438Y-74189285D02*
X39879819Y-74094047D01*
X39879819Y-74094047D02*
X39879819Y-73855952D01*
X39879819Y-73855952D02*
X39927438Y-73760714D01*
X39927438Y-73760714D02*
X39975057Y-73713095D01*
X39975057Y-73713095D02*
X40070295Y-73665476D01*
X40070295Y-73665476D02*
X40165533Y-73665476D01*
X40165533Y-73665476D02*
X40308390Y-73713095D01*
X40308390Y-73713095D02*
X40879819Y-74284523D01*
X40879819Y-74284523D02*
X40879819Y-73665476D01*
X40213152Y-72808333D02*
X40879819Y-72808333D01*
X39832200Y-73046428D02*
X40546485Y-73284523D01*
X40546485Y-73284523D02*
X40546485Y-72665476D01*
X88255476Y-75449819D02*
X88255476Y-76164104D01*
X88255476Y-76164104D02*
X88207857Y-76306961D01*
X88207857Y-76306961D02*
X88112619Y-76402200D01*
X88112619Y-76402200D02*
X87969762Y-76449819D01*
X87969762Y-76449819D02*
X87874524Y-76449819D01*
X89255476Y-76449819D02*
X88684048Y-76449819D01*
X88969762Y-76449819D02*
X88969762Y-75449819D01*
X88969762Y-75449819D02*
X88874524Y-75592676D01*
X88874524Y-75592676D02*
X88779286Y-75687914D01*
X88779286Y-75687914D02*
X88684048Y-75735533D01*
X89874524Y-75449819D02*
X89969762Y-75449819D01*
X89969762Y-75449819D02*
X90065000Y-75497438D01*
X90065000Y-75497438D02*
X90112619Y-75545057D01*
X90112619Y-75545057D02*
X90160238Y-75640295D01*
X90160238Y-75640295D02*
X90207857Y-75830771D01*
X90207857Y-75830771D02*
X90207857Y-76068866D01*
X90207857Y-76068866D02*
X90160238Y-76259342D01*
X90160238Y-76259342D02*
X90112619Y-76354580D01*
X90112619Y-76354580D02*
X90065000Y-76402200D01*
X90065000Y-76402200D02*
X89969762Y-76449819D01*
X89969762Y-76449819D02*
X89874524Y-76449819D01*
X89874524Y-76449819D02*
X89779286Y-76402200D01*
X89779286Y-76402200D02*
X89731667Y-76354580D01*
X89731667Y-76354580D02*
X89684048Y-76259342D01*
X89684048Y-76259342D02*
X89636429Y-76068866D01*
X89636429Y-76068866D02*
X89636429Y-75830771D01*
X89636429Y-75830771D02*
X89684048Y-75640295D01*
X89684048Y-75640295D02*
X89731667Y-75545057D01*
X89731667Y-75545057D02*
X89779286Y-75497438D01*
X89779286Y-75497438D02*
X89874524Y-75449819D01*
X82519761Y-50180057D02*
X82424523Y-50132438D01*
X82424523Y-50132438D02*
X82329285Y-50037200D01*
X82329285Y-50037200D02*
X82186428Y-49894342D01*
X82186428Y-49894342D02*
X82091190Y-49846723D01*
X82091190Y-49846723D02*
X81995952Y-49846723D01*
X82043571Y-50084819D02*
X81948333Y-50037200D01*
X81948333Y-50037200D02*
X81853095Y-49941961D01*
X81853095Y-49941961D02*
X81805476Y-49751485D01*
X81805476Y-49751485D02*
X81805476Y-49418152D01*
X81805476Y-49418152D02*
X81853095Y-49227676D01*
X81853095Y-49227676D02*
X81948333Y-49132438D01*
X81948333Y-49132438D02*
X82043571Y-49084819D01*
X82043571Y-49084819D02*
X82234047Y-49084819D01*
X82234047Y-49084819D02*
X82329285Y-49132438D01*
X82329285Y-49132438D02*
X82424523Y-49227676D01*
X82424523Y-49227676D02*
X82472142Y-49418152D01*
X82472142Y-49418152D02*
X82472142Y-49751485D01*
X82472142Y-49751485D02*
X82424523Y-49941961D01*
X82424523Y-49941961D02*
X82329285Y-50037200D01*
X82329285Y-50037200D02*
X82234047Y-50084819D01*
X82234047Y-50084819D02*
X82043571Y-50084819D01*
X83424523Y-50084819D02*
X82853095Y-50084819D01*
X83138809Y-50084819D02*
X83138809Y-49084819D01*
X83138809Y-49084819D02*
X83043571Y-49227676D01*
X83043571Y-49227676D02*
X82948333Y-49322914D01*
X82948333Y-49322914D02*
X82853095Y-49370533D01*
X30943810Y-68629819D02*
X30943810Y-67629819D01*
X31991428Y-68534580D02*
X31943809Y-68582200D01*
X31943809Y-68582200D02*
X31800952Y-68629819D01*
X31800952Y-68629819D02*
X31705714Y-68629819D01*
X31705714Y-68629819D02*
X31562857Y-68582200D01*
X31562857Y-68582200D02*
X31467619Y-68486961D01*
X31467619Y-68486961D02*
X31420000Y-68391723D01*
X31420000Y-68391723D02*
X31372381Y-68201247D01*
X31372381Y-68201247D02*
X31372381Y-68058390D01*
X31372381Y-68058390D02*
X31420000Y-67867914D01*
X31420000Y-67867914D02*
X31467619Y-67772676D01*
X31467619Y-67772676D02*
X31562857Y-67677438D01*
X31562857Y-67677438D02*
X31705714Y-67629819D01*
X31705714Y-67629819D02*
X31800952Y-67629819D01*
X31800952Y-67629819D02*
X31943809Y-67677438D01*
X31943809Y-67677438D02*
X31991428Y-67725057D01*
X32943809Y-68629819D02*
X32372381Y-68629819D01*
X32658095Y-68629819D02*
X32658095Y-67629819D01*
X32658095Y-67629819D02*
X32562857Y-67772676D01*
X32562857Y-67772676D02*
X32467619Y-67867914D01*
X32467619Y-67867914D02*
X32372381Y-67915533D01*
X90404427Y-57973010D02*
X90356808Y-58020630D01*
X90356808Y-58020630D02*
X90213951Y-58068249D01*
X90213951Y-58068249D02*
X90118713Y-58068249D01*
X90118713Y-58068249D02*
X89975856Y-58020630D01*
X89975856Y-58020630D02*
X89880618Y-57925391D01*
X89880618Y-57925391D02*
X89832999Y-57830153D01*
X89832999Y-57830153D02*
X89785380Y-57639677D01*
X89785380Y-57639677D02*
X89785380Y-57496820D01*
X89785380Y-57496820D02*
X89832999Y-57306344D01*
X89832999Y-57306344D02*
X89880618Y-57211106D01*
X89880618Y-57211106D02*
X89975856Y-57115868D01*
X89975856Y-57115868D02*
X90118713Y-57068249D01*
X90118713Y-57068249D02*
X90213951Y-57068249D01*
X90213951Y-57068249D02*
X90356808Y-57115868D01*
X90356808Y-57115868D02*
X90404427Y-57163487D01*
X90880618Y-58068249D02*
X91071094Y-58068249D01*
X91071094Y-58068249D02*
X91166332Y-58020630D01*
X91166332Y-58020630D02*
X91213951Y-57973010D01*
X91213951Y-57973010D02*
X91309189Y-57830153D01*
X91309189Y-57830153D02*
X91356808Y-57639677D01*
X91356808Y-57639677D02*
X91356808Y-57258725D01*
X91356808Y-57258725D02*
X91309189Y-57163487D01*
X91309189Y-57163487D02*
X91261570Y-57115868D01*
X91261570Y-57115868D02*
X91166332Y-57068249D01*
X91166332Y-57068249D02*
X90975856Y-57068249D01*
X90975856Y-57068249D02*
X90880618Y-57115868D01*
X90880618Y-57115868D02*
X90832999Y-57163487D01*
X90832999Y-57163487D02*
X90785380Y-57258725D01*
X90785380Y-57258725D02*
X90785380Y-57496820D01*
X90785380Y-57496820D02*
X90832999Y-57592058D01*
X90832999Y-57592058D02*
X90880618Y-57639677D01*
X90880618Y-57639677D02*
X90975856Y-57687296D01*
X90975856Y-57687296D02*
X91166332Y-57687296D01*
X91166332Y-57687296D02*
X91261570Y-57639677D01*
X91261570Y-57639677D02*
X91309189Y-57592058D01*
X91309189Y-57592058D02*
X91356808Y-57496820D01*
X118239905Y-49458249D02*
X117906572Y-48982058D01*
X117668477Y-49458249D02*
X117668477Y-48458249D01*
X117668477Y-48458249D02*
X118049429Y-48458249D01*
X118049429Y-48458249D02*
X118144667Y-48505868D01*
X118144667Y-48505868D02*
X118192286Y-48553487D01*
X118192286Y-48553487D02*
X118239905Y-48648725D01*
X118239905Y-48648725D02*
X118239905Y-48791582D01*
X118239905Y-48791582D02*
X118192286Y-48886820D01*
X118192286Y-48886820D02*
X118144667Y-48934439D01*
X118144667Y-48934439D02*
X118049429Y-48982058D01*
X118049429Y-48982058D02*
X117668477Y-48982058D01*
X119192286Y-49458249D02*
X118620858Y-49458249D01*
X118906572Y-49458249D02*
X118906572Y-48458249D01*
X118906572Y-48458249D02*
X118811334Y-48601106D01*
X118811334Y-48601106D02*
X118716096Y-48696344D01*
X118716096Y-48696344D02*
X118620858Y-48743963D01*
X24799819Y-36037857D02*
X24323628Y-36371190D01*
X24799819Y-36609285D02*
X23799819Y-36609285D01*
X23799819Y-36609285D02*
X23799819Y-36228333D01*
X23799819Y-36228333D02*
X23847438Y-36133095D01*
X23847438Y-36133095D02*
X23895057Y-36085476D01*
X23895057Y-36085476D02*
X23990295Y-36037857D01*
X23990295Y-36037857D02*
X24133152Y-36037857D01*
X24133152Y-36037857D02*
X24228390Y-36085476D01*
X24228390Y-36085476D02*
X24276009Y-36133095D01*
X24276009Y-36133095D02*
X24323628Y-36228333D01*
X24323628Y-36228333D02*
X24323628Y-36609285D01*
X24799819Y-35085476D02*
X24799819Y-35656904D01*
X24799819Y-35371190D02*
X23799819Y-35371190D01*
X23799819Y-35371190D02*
X23942676Y-35466428D01*
X23942676Y-35466428D02*
X24037914Y-35561666D01*
X24037914Y-35561666D02*
X24085533Y-35656904D01*
X23799819Y-34180714D02*
X23799819Y-34656904D01*
X23799819Y-34656904D02*
X24276009Y-34704523D01*
X24276009Y-34704523D02*
X24228390Y-34656904D01*
X24228390Y-34656904D02*
X24180771Y-34561666D01*
X24180771Y-34561666D02*
X24180771Y-34323571D01*
X24180771Y-34323571D02*
X24228390Y-34228333D01*
X24228390Y-34228333D02*
X24276009Y-34180714D01*
X24276009Y-34180714D02*
X24371247Y-34133095D01*
X24371247Y-34133095D02*
X24609342Y-34133095D01*
X24609342Y-34133095D02*
X24704580Y-34180714D01*
X24704580Y-34180714D02*
X24752200Y-34228333D01*
X24752200Y-34228333D02*
X24799819Y-34323571D01*
X24799819Y-34323571D02*
X24799819Y-34561666D01*
X24799819Y-34561666D02*
X24752200Y-34656904D01*
X24752200Y-34656904D02*
X24704580Y-34704523D01*
X115071906Y-27773248D02*
X115071906Y-26773248D01*
X115071906Y-26773248D02*
X115310001Y-26773248D01*
X115310001Y-26773248D02*
X115452858Y-26820867D01*
X115452858Y-26820867D02*
X115548096Y-26916105D01*
X115548096Y-26916105D02*
X115595715Y-27011343D01*
X115595715Y-27011343D02*
X115643334Y-27201819D01*
X115643334Y-27201819D02*
X115643334Y-27344676D01*
X115643334Y-27344676D02*
X115595715Y-27535152D01*
X115595715Y-27535152D02*
X115548096Y-27630390D01*
X115548096Y-27630390D02*
X115452858Y-27725629D01*
X115452858Y-27725629D02*
X115310001Y-27773248D01*
X115310001Y-27773248D02*
X115071906Y-27773248D01*
X115976668Y-26773248D02*
X116595715Y-26773248D01*
X116595715Y-26773248D02*
X116262382Y-27154200D01*
X116262382Y-27154200D02*
X116405239Y-27154200D01*
X116405239Y-27154200D02*
X116500477Y-27201819D01*
X116500477Y-27201819D02*
X116548096Y-27249438D01*
X116548096Y-27249438D02*
X116595715Y-27344676D01*
X116595715Y-27344676D02*
X116595715Y-27582771D01*
X116595715Y-27582771D02*
X116548096Y-27678009D01*
X116548096Y-27678009D02*
X116500477Y-27725629D01*
X116500477Y-27725629D02*
X116405239Y-27773248D01*
X116405239Y-27773248D02*
X116119525Y-27773248D01*
X116119525Y-27773248D02*
X116024287Y-27725629D01*
X116024287Y-27725629D02*
X115976668Y-27678009D01*
X53361666Y-75449819D02*
X53361666Y-76164104D01*
X53361666Y-76164104D02*
X53314047Y-76306961D01*
X53314047Y-76306961D02*
X53218809Y-76402200D01*
X53218809Y-76402200D02*
X53075952Y-76449819D01*
X53075952Y-76449819D02*
X52980714Y-76449819D01*
X53980714Y-75878390D02*
X53885476Y-75830771D01*
X53885476Y-75830771D02*
X53837857Y-75783152D01*
X53837857Y-75783152D02*
X53790238Y-75687914D01*
X53790238Y-75687914D02*
X53790238Y-75640295D01*
X53790238Y-75640295D02*
X53837857Y-75545057D01*
X53837857Y-75545057D02*
X53885476Y-75497438D01*
X53885476Y-75497438D02*
X53980714Y-75449819D01*
X53980714Y-75449819D02*
X54171190Y-75449819D01*
X54171190Y-75449819D02*
X54266428Y-75497438D01*
X54266428Y-75497438D02*
X54314047Y-75545057D01*
X54314047Y-75545057D02*
X54361666Y-75640295D01*
X54361666Y-75640295D02*
X54361666Y-75687914D01*
X54361666Y-75687914D02*
X54314047Y-75783152D01*
X54314047Y-75783152D02*
X54266428Y-75830771D01*
X54266428Y-75830771D02*
X54171190Y-75878390D01*
X54171190Y-75878390D02*
X53980714Y-75878390D01*
X53980714Y-75878390D02*
X53885476Y-75926009D01*
X53885476Y-75926009D02*
X53837857Y-75973628D01*
X53837857Y-75973628D02*
X53790238Y-76068866D01*
X53790238Y-76068866D02*
X53790238Y-76259342D01*
X53790238Y-76259342D02*
X53837857Y-76354580D01*
X53837857Y-76354580D02*
X53885476Y-76402200D01*
X53885476Y-76402200D02*
X53980714Y-76449819D01*
X53980714Y-76449819D02*
X54171190Y-76449819D01*
X54171190Y-76449819D02*
X54266428Y-76402200D01*
X54266428Y-76402200D02*
X54314047Y-76354580D01*
X54314047Y-76354580D02*
X54361666Y-76259342D01*
X54361666Y-76259342D02*
X54361666Y-76068866D01*
X54361666Y-76068866D02*
X54314047Y-75973628D01*
X54314047Y-75973628D02*
X54266428Y-75926009D01*
X54266428Y-75926009D02*
X54171190Y-75878390D01*
X119116151Y-28427858D02*
X119163771Y-28475477D01*
X119163771Y-28475477D02*
X119211390Y-28618334D01*
X119211390Y-28618334D02*
X119211390Y-28713572D01*
X119211390Y-28713572D02*
X119163771Y-28856429D01*
X119163771Y-28856429D02*
X119068532Y-28951667D01*
X119068532Y-28951667D02*
X118973294Y-28999286D01*
X118973294Y-28999286D02*
X118782818Y-29046905D01*
X118782818Y-29046905D02*
X118639961Y-29046905D01*
X118639961Y-29046905D02*
X118449485Y-28999286D01*
X118449485Y-28999286D02*
X118354247Y-28951667D01*
X118354247Y-28951667D02*
X118259009Y-28856429D01*
X118259009Y-28856429D02*
X118211390Y-28713572D01*
X118211390Y-28713572D02*
X118211390Y-28618334D01*
X118211390Y-28618334D02*
X118259009Y-28475477D01*
X118259009Y-28475477D02*
X118306628Y-28427858D01*
X119211390Y-27475477D02*
X119211390Y-28046905D01*
X119211390Y-27761191D02*
X118211390Y-27761191D01*
X118211390Y-27761191D02*
X118354247Y-27856429D01*
X118354247Y-27856429D02*
X118449485Y-27951667D01*
X118449485Y-27951667D02*
X118497104Y-28046905D01*
X118211390Y-26570715D02*
X118211390Y-27046905D01*
X118211390Y-27046905D02*
X118687580Y-27094524D01*
X118687580Y-27094524D02*
X118639961Y-27046905D01*
X118639961Y-27046905D02*
X118592342Y-26951667D01*
X118592342Y-26951667D02*
X118592342Y-26713572D01*
X118592342Y-26713572D02*
X118639961Y-26618334D01*
X118639961Y-26618334D02*
X118687580Y-26570715D01*
X118687580Y-26570715D02*
X118782818Y-26523096D01*
X118782818Y-26523096D02*
X119020913Y-26523096D01*
X119020913Y-26523096D02*
X119116151Y-26570715D01*
X119116151Y-26570715D02*
X119163771Y-26618334D01*
X119163771Y-26618334D02*
X119211390Y-26713572D01*
X119211390Y-26713572D02*
X119211390Y-26951667D01*
X119211390Y-26951667D02*
X119163771Y-27046905D01*
X119163771Y-27046905D02*
X119116151Y-27094524D01*
X35052142Y-48609819D02*
X34718809Y-48133628D01*
X34480714Y-48609819D02*
X34480714Y-47609819D01*
X34480714Y-47609819D02*
X34861666Y-47609819D01*
X34861666Y-47609819D02*
X34956904Y-47657438D01*
X34956904Y-47657438D02*
X35004523Y-47705057D01*
X35004523Y-47705057D02*
X35052142Y-47800295D01*
X35052142Y-47800295D02*
X35052142Y-47943152D01*
X35052142Y-47943152D02*
X35004523Y-48038390D01*
X35004523Y-48038390D02*
X34956904Y-48086009D01*
X34956904Y-48086009D02*
X34861666Y-48133628D01*
X34861666Y-48133628D02*
X34480714Y-48133628D01*
X35433095Y-47705057D02*
X35480714Y-47657438D01*
X35480714Y-47657438D02*
X35575952Y-47609819D01*
X35575952Y-47609819D02*
X35814047Y-47609819D01*
X35814047Y-47609819D02*
X35909285Y-47657438D01*
X35909285Y-47657438D02*
X35956904Y-47705057D01*
X35956904Y-47705057D02*
X36004523Y-47800295D01*
X36004523Y-47800295D02*
X36004523Y-47895533D01*
X36004523Y-47895533D02*
X35956904Y-48038390D01*
X35956904Y-48038390D02*
X35385476Y-48609819D01*
X35385476Y-48609819D02*
X36004523Y-48609819D01*
X36337857Y-47609819D02*
X36956904Y-47609819D01*
X36956904Y-47609819D02*
X36623571Y-47990771D01*
X36623571Y-47990771D02*
X36766428Y-47990771D01*
X36766428Y-47990771D02*
X36861666Y-48038390D01*
X36861666Y-48038390D02*
X36909285Y-48086009D01*
X36909285Y-48086009D02*
X36956904Y-48181247D01*
X36956904Y-48181247D02*
X36956904Y-48419342D01*
X36956904Y-48419342D02*
X36909285Y-48514580D01*
X36909285Y-48514580D02*
X36861666Y-48562200D01*
X36861666Y-48562200D02*
X36766428Y-48609819D01*
X36766428Y-48609819D02*
X36480714Y-48609819D01*
X36480714Y-48609819D02*
X36385476Y-48562200D01*
X36385476Y-48562200D02*
X36337857Y-48514580D01*
X15979819Y-61314523D02*
X16694104Y-61314523D01*
X16694104Y-61314523D02*
X16836961Y-61362142D01*
X16836961Y-61362142D02*
X16932200Y-61457380D01*
X16932200Y-61457380D02*
X16979819Y-61600237D01*
X16979819Y-61600237D02*
X16979819Y-61695475D01*
X16979819Y-60314523D02*
X16979819Y-60885951D01*
X16979819Y-60600237D02*
X15979819Y-60600237D01*
X15979819Y-60600237D02*
X16122676Y-60695475D01*
X16122676Y-60695475D02*
X16217914Y-60790713D01*
X16217914Y-60790713D02*
X16265533Y-60885951D01*
X16979819Y-59838332D02*
X16979819Y-59647856D01*
X16979819Y-59647856D02*
X16932200Y-59552618D01*
X16932200Y-59552618D02*
X16884580Y-59504999D01*
X16884580Y-59504999D02*
X16741723Y-59409761D01*
X16741723Y-59409761D02*
X16551247Y-59362142D01*
X16551247Y-59362142D02*
X16170295Y-59362142D01*
X16170295Y-59362142D02*
X16075057Y-59409761D01*
X16075057Y-59409761D02*
X16027438Y-59457380D01*
X16027438Y-59457380D02*
X15979819Y-59552618D01*
X15979819Y-59552618D02*
X15979819Y-59743094D01*
X15979819Y-59743094D02*
X16027438Y-59838332D01*
X16027438Y-59838332D02*
X16075057Y-59885951D01*
X16075057Y-59885951D02*
X16170295Y-59933570D01*
X16170295Y-59933570D02*
X16408390Y-59933570D01*
X16408390Y-59933570D02*
X16503628Y-59885951D01*
X16503628Y-59885951D02*
X16551247Y-59838332D01*
X16551247Y-59838332D02*
X16598866Y-59743094D01*
X16598866Y-59743094D02*
X16598866Y-59552618D01*
X16598866Y-59552618D02*
X16551247Y-59457380D01*
X16551247Y-59457380D02*
X16503628Y-59409761D01*
X16503628Y-59409761D02*
X16408390Y-59362142D01*
X38358095Y-49629819D02*
X38358095Y-50439342D01*
X38358095Y-50439342D02*
X38405714Y-50534580D01*
X38405714Y-50534580D02*
X38453333Y-50582200D01*
X38453333Y-50582200D02*
X38548571Y-50629819D01*
X38548571Y-50629819D02*
X38739047Y-50629819D01*
X38739047Y-50629819D02*
X38834285Y-50582200D01*
X38834285Y-50582200D02*
X38881904Y-50534580D01*
X38881904Y-50534580D02*
X38929523Y-50439342D01*
X38929523Y-50439342D02*
X38929523Y-49629819D01*
X39310476Y-49629819D02*
X39929523Y-49629819D01*
X39929523Y-49629819D02*
X39596190Y-50010771D01*
X39596190Y-50010771D02*
X39739047Y-50010771D01*
X39739047Y-50010771D02*
X39834285Y-50058390D01*
X39834285Y-50058390D02*
X39881904Y-50106009D01*
X39881904Y-50106009D02*
X39929523Y-50201247D01*
X39929523Y-50201247D02*
X39929523Y-50439342D01*
X39929523Y-50439342D02*
X39881904Y-50534580D01*
X39881904Y-50534580D02*
X39834285Y-50582200D01*
X39834285Y-50582200D02*
X39739047Y-50629819D01*
X39739047Y-50629819D02*
X39453333Y-50629819D01*
X39453333Y-50629819D02*
X39358095Y-50582200D01*
X39358095Y-50582200D02*
X39310476Y-50534580D01*
X120129821Y-39856524D02*
X119129821Y-39856524D01*
X119129821Y-39856524D02*
X119129821Y-39618429D01*
X119129821Y-39618429D02*
X119177440Y-39475572D01*
X119177440Y-39475572D02*
X119272678Y-39380334D01*
X119272678Y-39380334D02*
X119367916Y-39332715D01*
X119367916Y-39332715D02*
X119558392Y-39285096D01*
X119558392Y-39285096D02*
X119701249Y-39285096D01*
X119701249Y-39285096D02*
X119891725Y-39332715D01*
X119891725Y-39332715D02*
X119986963Y-39380334D01*
X119986963Y-39380334D02*
X120082202Y-39475572D01*
X120082202Y-39475572D02*
X120129821Y-39618429D01*
X120129821Y-39618429D02*
X120129821Y-39856524D01*
X120129821Y-38332715D02*
X120129821Y-38904143D01*
X120129821Y-38618429D02*
X119129821Y-38618429D01*
X119129821Y-38618429D02*
X119272678Y-38713667D01*
X119272678Y-38713667D02*
X119367916Y-38808905D01*
X119367916Y-38808905D02*
X119415535Y-38904143D01*
X25094580Y-72367857D02*
X25142200Y-72415476D01*
X25142200Y-72415476D02*
X25189819Y-72558333D01*
X25189819Y-72558333D02*
X25189819Y-72653571D01*
X25189819Y-72653571D02*
X25142200Y-72796428D01*
X25142200Y-72796428D02*
X25046961Y-72891666D01*
X25046961Y-72891666D02*
X24951723Y-72939285D01*
X24951723Y-72939285D02*
X24761247Y-72986904D01*
X24761247Y-72986904D02*
X24618390Y-72986904D01*
X24618390Y-72986904D02*
X24427914Y-72939285D01*
X24427914Y-72939285D02*
X24332676Y-72891666D01*
X24332676Y-72891666D02*
X24237438Y-72796428D01*
X24237438Y-72796428D02*
X24189819Y-72653571D01*
X24189819Y-72653571D02*
X24189819Y-72558333D01*
X24189819Y-72558333D02*
X24237438Y-72415476D01*
X24237438Y-72415476D02*
X24285057Y-72367857D01*
X25189819Y-71415476D02*
X25189819Y-71986904D01*
X25189819Y-71701190D02*
X24189819Y-71701190D01*
X24189819Y-71701190D02*
X24332676Y-71796428D01*
X24332676Y-71796428D02*
X24427914Y-71891666D01*
X24427914Y-71891666D02*
X24475533Y-71986904D01*
X24523152Y-70558333D02*
X25189819Y-70558333D01*
X24142200Y-70796428D02*
X24856485Y-71034523D01*
X24856485Y-71034523D02*
X24856485Y-70415476D01*
X56511666Y-39529819D02*
X56511666Y-40244104D01*
X56511666Y-40244104D02*
X56464047Y-40386961D01*
X56464047Y-40386961D02*
X56368809Y-40482200D01*
X56368809Y-40482200D02*
X56225952Y-40529819D01*
X56225952Y-40529819D02*
X56130714Y-40529819D01*
X57511666Y-40529819D02*
X56940238Y-40529819D01*
X57225952Y-40529819D02*
X57225952Y-39529819D01*
X57225952Y-39529819D02*
X57130714Y-39672676D01*
X57130714Y-39672676D02*
X57035476Y-39767914D01*
X57035476Y-39767914D02*
X56940238Y-39815533D01*
X59873571Y-39889700D02*
X61016429Y-39889700D01*
X52673571Y-39889700D02*
X53816429Y-39889700D01*
X53245000Y-40461128D02*
X53245000Y-39318271D01*
D13*
%TO.C,J5*%
X38455000Y-20075000D02*
X38455000Y-28195000D01*
X38455000Y-33595000D02*
X38455000Y-34815000D01*
X38455000Y-34815000D02*
X40125000Y-34815000D01*
X46025000Y-34815000D02*
X47695000Y-34815000D01*
X47695000Y-20075000D02*
X38455000Y-20075000D01*
X47695000Y-34815000D02*
X47695000Y-20075000D01*
%TO.C,J21*%
X119136571Y-34465001D02*
X119136571Y-35715001D01*
X119136571Y-35715001D02*
X120386571Y-35715001D01*
X119236571Y-33655001D02*
X119236571Y-33955001D01*
X119236571Y-33955001D02*
X119436571Y-33955001D01*
X119336571Y-33655001D02*
X119336571Y-33955001D01*
X119436571Y-29295001D02*
X119436571Y-35415001D01*
X119436571Y-32855001D02*
X120046571Y-32855001D01*
X119436571Y-33655001D02*
X119236571Y-33655001D01*
X119436571Y-35415001D02*
X124156571Y-35415001D01*
X120046571Y-29905001D02*
X120046571Y-31855001D01*
X120046571Y-31855001D02*
X119436571Y-31855001D01*
X120046571Y-32855001D02*
X120046571Y-34805001D01*
X120046571Y-34805001D02*
X123546571Y-34805001D01*
X120746571Y-29295001D02*
X120746571Y-29905001D01*
X120746571Y-35415001D02*
X120746571Y-34805001D01*
X122046571Y-29295001D02*
X122046571Y-29905001D01*
X122046571Y-35415001D02*
X122046571Y-34805001D01*
X123046571Y-32255001D02*
X123546571Y-32255001D01*
X123046571Y-32455001D02*
X123046571Y-32255001D01*
X123546571Y-29905001D02*
X120046571Y-29905001D01*
X123546571Y-32355001D02*
X123046571Y-32355001D01*
X123546571Y-32455001D02*
X123046571Y-32455001D01*
X123546571Y-34805001D02*
X123546571Y-29905001D01*
X124156571Y-29295001D02*
X119436571Y-29295001D01*
X124156571Y-35415001D02*
X124156571Y-29295001D01*
%TO.C,J2*%
X66535000Y-20115000D02*
X66535000Y-34425000D01*
X66535000Y-20115000D02*
X82255000Y-20115000D01*
X73105000Y-38535000D02*
X76845000Y-38535000D01*
X82255000Y-20115000D02*
X82255000Y-34425000D01*
X68528194Y-37947958D02*
G75*
G02*
X66535000Y-34425000I2116805J3522957D01*
G01*
X82255000Y-34425000D02*
G75*
G02*
X79346648Y-38355413I-4110000J0D01*
G01*
%TO.C,J16*%
X17715000Y-38745000D02*
X17715000Y-34865000D01*
X19685000Y-33695000D02*
X20835000Y-33695000D01*
X19685000Y-39915000D02*
X20835000Y-39915000D01*
X20835000Y-33695000D02*
X20835000Y-34745000D01*
X20835000Y-38865000D02*
X21825000Y-38865000D01*
X20835000Y-39915000D02*
X20835000Y-38865000D01*
%TO.C,C5*%
X108503748Y-40280000D02*
X109026252Y-40280000D01*
X108503748Y-41750000D02*
X109026252Y-41750000D01*
%TO.C,C3*%
X113512823Y-57755001D02*
X112990319Y-57755001D01*
X113512823Y-59225001D02*
X112990319Y-59225001D01*
%TO.C,C6*%
X108513748Y-42340000D02*
X109036252Y-42340000D01*
X108513748Y-43810000D02*
X109036252Y-43810000D01*
%TO.C,C8*%
X87696094Y-55314682D02*
X87696094Y-54792178D01*
X89166094Y-55314682D02*
X89166094Y-54792178D01*
%TO.C,J4*%
X85045000Y-22265000D02*
X85635000Y-22265000D01*
X85045000Y-24485000D02*
X85635000Y-24485000D01*
X85635000Y-20165000D02*
X85635000Y-22265000D01*
X85635000Y-20165000D02*
X95755000Y-20165000D01*
X85635000Y-24485000D02*
X85635000Y-29385000D01*
X85635000Y-29385000D02*
X95755000Y-29385000D01*
X95755000Y-20165000D02*
X95755000Y-22265000D01*
X95755000Y-22265000D02*
X96345000Y-22265000D01*
X95755000Y-24485000D02*
X95755000Y-29385000D01*
X95755000Y-24485000D02*
X96345000Y-24485000D01*
X85045000Y-24485000D02*
G75*
G02*
X85045000Y-22265000I0J1110000D01*
G01*
X96345000Y-22265000D02*
G75*
G02*
X96345000Y-24485000I0J-1110000D01*
G01*
%TO.C,R6*%
X93164030Y-59618430D02*
X93618158Y-59618430D01*
X93164030Y-61088430D02*
X93618158Y-61088430D01*
%TO.C,J3*%
X99595000Y-22265000D02*
X100185000Y-22265000D01*
X99595000Y-24485000D02*
X100185000Y-24485000D01*
X100185000Y-20165000D02*
X100185000Y-22265000D01*
X100185000Y-20165000D02*
X110305000Y-20165000D01*
X100185000Y-24485000D02*
X100185000Y-29385000D01*
X100185000Y-29385000D02*
X110305000Y-29385000D01*
X110305000Y-20165000D02*
X110305000Y-22265000D01*
X110305000Y-22265000D02*
X110895000Y-22265000D01*
X110305000Y-24485000D02*
X110305000Y-29385000D01*
X110305000Y-24485000D02*
X110895000Y-24485000D01*
X99595000Y-24485000D02*
G75*
G02*
X99595000Y-22265000I0J1110000D01*
G01*
X110895000Y-22265000D02*
G75*
G02*
X110895000Y-24485000I0J-1110000D01*
G01*
%TO.C,C12*%
X94029226Y-42240000D02*
X94551730Y-42240000D01*
X94029226Y-43710000D02*
X94551730Y-43710000D01*
%TO.C,R3*%
X37990000Y-69902064D02*
X37990000Y-69447936D01*
X39460000Y-69902064D02*
X39460000Y-69447936D01*
%TO.C,C2*%
X113512823Y-55665001D02*
X112990319Y-55665001D01*
X113512823Y-57135001D02*
X112990319Y-57135001D01*
%TO.C,J11*%
X98300000Y-80495000D02*
X98300000Y-81495000D01*
X98300000Y-81495000D02*
X98800000Y-80995000D01*
X98800000Y-80995000D02*
X98300000Y-80495000D01*
X98880000Y-77205000D02*
X98880000Y-93945000D01*
X114600000Y-77205000D02*
X98880000Y-77205000D01*
X114610000Y-77205000D02*
X114610000Y-93945000D01*
X114610000Y-93945000D02*
X98880000Y-93945000D01*
%TO.C,U1*%
X115476571Y-49990001D02*
X114676571Y-49990001D01*
X115476571Y-49990001D02*
X116276571Y-49990001D01*
X115476571Y-53110001D02*
X114676571Y-53110001D01*
X115476571Y-53110001D02*
X116276571Y-53110001D01*
X114176571Y-50040001D02*
X113936571Y-49710001D01*
X114416571Y-49710001D01*
X114176571Y-50040001D01*
G36*
X114176571Y-50040001D02*
G01*
X113936571Y-49710001D01*
X114416571Y-49710001D01*
X114176571Y-50040001D01*
G37*
%TO.C,C16*%
X37990000Y-66156252D02*
X37990000Y-65633748D01*
X39460000Y-66156252D02*
X39460000Y-65633748D01*
%TO.C,J22*%
X113445000Y-32105000D02*
X113445000Y-29505000D01*
X116105000Y-29505000D02*
X113445000Y-29505000D01*
X116105000Y-32105000D02*
X113445000Y-32105000D01*
X116105000Y-32105000D02*
X116105000Y-29505000D01*
X116105000Y-33375000D02*
X116105000Y-34705000D01*
X116105000Y-34705000D02*
X114775000Y-34705000D01*
%TO.C,J7*%
X27560000Y-80495000D02*
X27560000Y-81495000D01*
X27560000Y-81495000D02*
X28060000Y-80995000D01*
X28060000Y-80995000D02*
X27560000Y-80495000D01*
X28140000Y-77205000D02*
X28140000Y-93945000D01*
X43860000Y-77205000D02*
X28140000Y-77205000D01*
X43870000Y-77205000D02*
X43870000Y-93945000D01*
X43870000Y-93945000D02*
X28140000Y-93945000D01*
%TO.C,R19*%
X25060000Y-50367936D02*
X25060000Y-50822064D01*
X26530000Y-50367936D02*
X26530000Y-50822064D01*
%TO.C,C1*%
X113512823Y-53575001D02*
X112990319Y-53575001D01*
X113512823Y-55045001D02*
X112990319Y-55045001D01*
%TO.C,R2*%
X119841571Y-51267937D02*
X119841571Y-51722065D01*
X121311571Y-51267937D02*
X121311571Y-51722065D01*
%TO.C,R17*%
X25160000Y-42467936D02*
X25160000Y-42922064D01*
X26630000Y-42467936D02*
X26630000Y-42922064D01*
%TO.C,U2*%
X91781094Y-57203430D02*
X91781094Y-56403430D01*
X91781094Y-57203430D02*
X91781094Y-58003430D01*
X94901094Y-57203430D02*
X94901094Y-56403430D01*
X94901094Y-57203430D02*
X94901094Y-58003430D01*
X95181094Y-56143430D02*
X94851094Y-55903430D01*
X95181094Y-55663430D01*
X95181094Y-56143430D01*
G36*
X95181094Y-56143430D02*
G01*
X94851094Y-55903430D01*
X95181094Y-55663430D01*
X95181094Y-56143430D01*
G37*
%TO.C,L2*%
X89911094Y-44783430D02*
X89911094Y-52183430D01*
X89911094Y-44783430D02*
X91411094Y-44783430D01*
X89911094Y-52183430D02*
X91411094Y-52183430D01*
X96711094Y-44783430D02*
X95211094Y-44783430D01*
X96711094Y-52183430D02*
X95211094Y-52183430D01*
X96711094Y-52183430D02*
X96711094Y-44783430D01*
%TO.C,J23*%
X35395000Y-40605000D02*
X45675000Y-40605000D01*
X35395000Y-43205000D02*
X35395000Y-40605000D01*
X35395000Y-45805000D02*
X35395000Y-44475000D01*
X36725000Y-45805000D02*
X35395000Y-45805000D01*
X37995000Y-43205000D02*
X35395000Y-43205000D01*
X37995000Y-45805000D02*
X37995000Y-43205000D01*
X37995000Y-45805000D02*
X45675000Y-45805000D01*
X45675000Y-45805000D02*
X45675000Y-40605000D01*
%TO.C,R20*%
X27390000Y-50367936D02*
X27390000Y-50822064D01*
X28860000Y-50367936D02*
X28860000Y-50822064D01*
%TO.C,D2*%
X33816571Y-32985001D02*
X36676571Y-32985001D01*
X36676571Y-31065001D02*
X33816571Y-31065001D01*
X36676571Y-32985001D02*
X36676571Y-31065001D01*
%TO.C,J6*%
X50556571Y-45365001D02*
X50556571Y-48185001D01*
X50556571Y-45365001D02*
X52256571Y-44065001D01*
X50556571Y-48185001D02*
X52256571Y-49485001D01*
X52256571Y-44065001D02*
X60976571Y-44065001D01*
X52256571Y-49485001D02*
X60976571Y-49485001D01*
X60976571Y-44065001D02*
X60976571Y-49485001D01*
%TO.C,R16*%
X27490000Y-34567936D02*
X27490000Y-35022064D01*
X28960000Y-34567936D02*
X28960000Y-35022064D01*
%TO.C,C10*%
X85616094Y-55314682D02*
X85616094Y-54792178D01*
X87086094Y-55314682D02*
X87086094Y-54792178D01*
%TO.C,R7*%
X89314030Y-59618430D02*
X89768158Y-59618430D01*
X89314030Y-61088430D02*
X89768158Y-61088430D01*
%TO.C,Q2*%
X107905000Y-59635000D02*
X107905000Y-59905000D01*
X107905000Y-66535000D02*
X107905000Y-66265000D01*
X114325000Y-59635000D02*
X107905000Y-59635000D01*
X114325000Y-66535000D02*
X107905000Y-66535000D01*
X106485000Y-59945000D02*
X106245000Y-59615000D01*
X106725000Y-59615000D01*
X106485000Y-59945000D01*
G36*
X106485000Y-59945000D02*
G01*
X106245000Y-59615000D01*
X106725000Y-59615000D01*
X106485000Y-59945000D01*
G37*
%TO.C,J12*%
X18966571Y-77805001D02*
X18966571Y-76475001D01*
X20296571Y-77805001D02*
X18966571Y-77805001D01*
X21566571Y-75145001D02*
X26706571Y-75145001D01*
X21566571Y-77805001D02*
X21566571Y-75145001D01*
X21566571Y-77805001D02*
X26706571Y-77805001D01*
X26706571Y-77805001D02*
X26706571Y-75145001D01*
%TO.C,R18*%
X27490000Y-42467936D02*
X27490000Y-42922064D01*
X28960000Y-42467936D02*
X28960000Y-42922064D01*
%TO.C,R5*%
X34589507Y-33340001D02*
X35043635Y-33340001D01*
X34589507Y-34810001D02*
X35043635Y-34810001D01*
%TO.C,C4*%
X111531571Y-50303749D02*
X111531571Y-50826253D01*
X113001571Y-50303749D02*
X113001571Y-50826253D01*
%TO.C,R10*%
X76097936Y-48486428D02*
X76552064Y-48486428D01*
X76097936Y-49956428D02*
X76552064Y-49956428D01*
%TO.C,R13*%
X109850308Y-66970001D02*
X108402834Y-66970001D01*
X109850308Y-69680001D02*
X108402834Y-69680001D01*
%TO.C,C11*%
X94632346Y-53278430D02*
X94109842Y-53278430D01*
X94632346Y-54748430D02*
X94109842Y-54748430D01*
%TO.C,R14*%
X79024832Y-57680001D02*
X77577358Y-57680001D01*
X79024832Y-60390001D02*
X77577358Y-60390001D01*
%TO.C,J17*%
X17715000Y-46645000D02*
X17715000Y-42765000D01*
X19685000Y-41595000D02*
X20835000Y-41595000D01*
X19685000Y-47815000D02*
X20835000Y-47815000D01*
X20835000Y-41595000D02*
X20835000Y-42645000D01*
X20835000Y-46765000D02*
X21825000Y-46765000D01*
X20835000Y-47815000D02*
X20835000Y-46765000D01*
%TO.C,J20*%
X17715000Y-70345000D02*
X17715000Y-66465000D01*
X19685000Y-65295000D02*
X20835000Y-65295000D01*
X19685000Y-71515000D02*
X20835000Y-71515000D01*
X20835000Y-65295000D02*
X20835000Y-66345000D01*
X20835000Y-70465000D02*
X21825000Y-70465000D01*
X20835000Y-71515000D02*
X20835000Y-70465000D01*
%TO.C,R8*%
X113105000Y-24832064D02*
X113105000Y-24377936D01*
X114575000Y-24832064D02*
X114575000Y-24377936D01*
%TO.C,C13*%
X94029226Y-40250000D02*
X94551730Y-40250000D01*
X94029226Y-41720000D02*
X94551730Y-41720000D01*
%TO.C,R21*%
X25060000Y-58267936D02*
X25060000Y-58722064D01*
X26530000Y-58267936D02*
X26530000Y-58722064D01*
%TO.C,J18*%
X17715000Y-54545000D02*
X17715000Y-50665000D01*
X19685000Y-49495000D02*
X20835000Y-49495000D01*
X19685000Y-55715000D02*
X20835000Y-55715000D01*
X20835000Y-49495000D02*
X20835000Y-50545000D01*
X20835000Y-54665000D02*
X21825000Y-54665000D01*
X20835000Y-55715000D02*
X20835000Y-54665000D01*
%TO.C,R22*%
X27390000Y-58267936D02*
X27390000Y-58722064D01*
X28860000Y-58267936D02*
X28860000Y-58722064D01*
%TO.C,J9*%
X62930000Y-80495000D02*
X62930000Y-81495000D01*
X62930000Y-81495000D02*
X63430000Y-80995000D01*
X63430000Y-80995000D02*
X62930000Y-80495000D01*
X63510000Y-77205000D02*
X63510000Y-93945000D01*
X79230000Y-77205000D02*
X63510000Y-77205000D01*
X79240000Y-77205000D02*
X79240000Y-93945000D01*
X79240000Y-93945000D02*
X63510000Y-93945000D01*
%TO.C,R4*%
X122017937Y-36118429D02*
X122472065Y-36118429D01*
X122017937Y-37588429D02*
X122472065Y-37588429D01*
%TO.C,R9*%
X105273636Y-57718430D02*
X104819508Y-57718430D01*
X105273636Y-59188430D02*
X104819508Y-59188430D01*
%TO.C,L1*%
X104226571Y-44855001D02*
X104226571Y-52255001D01*
X104226571Y-44855001D02*
X105726571Y-44855001D01*
X104226571Y-52255001D02*
X105726571Y-52255001D01*
X111026571Y-44855001D02*
X109526571Y-44855001D01*
X111026571Y-52255001D02*
X109526571Y-52255001D01*
X111026571Y-52255001D02*
X111026571Y-44855001D01*
%TO.C,C7*%
X42813748Y-49070000D02*
X43336252Y-49070000D01*
X42813748Y-50540000D02*
X43336252Y-50540000D01*
%TO.C,R24*%
X37990000Y-73652064D02*
X37990000Y-73197936D01*
X39460000Y-73652064D02*
X39460000Y-73197936D01*
%TO.C,J10*%
X80615000Y-80495000D02*
X80615000Y-81495000D01*
X80615000Y-81495000D02*
X81115000Y-80995000D01*
X81115000Y-80995000D02*
X80615000Y-80495000D01*
X81195000Y-77205000D02*
X81195000Y-93945000D01*
X96915000Y-77205000D02*
X81195000Y-77205000D01*
X96925000Y-77205000D02*
X96925000Y-93945000D01*
X96925000Y-93945000D02*
X81195000Y-93945000D01*
%TO.C,Q1*%
X77005000Y-50380000D02*
X77005000Y-50650000D01*
X77005000Y-57280000D02*
X77005000Y-57010000D01*
X83425000Y-50380000D02*
X77005000Y-50380000D01*
X83425000Y-57280000D02*
X77005000Y-57280000D01*
X75585000Y-50690000D02*
X75345000Y-50360000D01*
X75825000Y-50360000D01*
X75585000Y-50690000D01*
G36*
X75585000Y-50690000D02*
G01*
X75345000Y-50360000D01*
X75825000Y-50360000D01*
X75585000Y-50690000D01*
G37*
%TO.C,IC1*%
X31920000Y-69015000D02*
X29970000Y-69015000D01*
X31920000Y-69015000D02*
X33870000Y-69015000D01*
X31920000Y-74135000D02*
X29970000Y-74135000D01*
X31920000Y-74135000D02*
X33870000Y-74135000D01*
X29220000Y-69110000D02*
X28980000Y-68780000D01*
X29460000Y-68780000D01*
X29220000Y-69110000D01*
G36*
X29220000Y-69110000D02*
G01*
X28980000Y-68780000D01*
X29460000Y-68780000D01*
X29220000Y-69110000D01*
G37*
%TO.C,C9*%
X89806094Y-55314682D02*
X89806094Y-54792178D01*
X91276094Y-55314682D02*
X91276094Y-54792178D01*
%TO.C,R1*%
X117811571Y-51722065D02*
X117811571Y-51267937D01*
X119281571Y-51722065D02*
X119281571Y-51267937D01*
%TO.C,R15*%
X25160000Y-34567936D02*
X25160000Y-35022064D01*
X26630000Y-34567936D02*
X26630000Y-35022064D01*
%TO.C,D3*%
X114971572Y-23638430D02*
X114971572Y-26498430D01*
X114971572Y-26498430D02*
X116891572Y-26498430D01*
X116891572Y-26498430D02*
X116891572Y-23638430D01*
%TO.C,J8*%
X45245000Y-80495000D02*
X45245000Y-81495000D01*
X45245000Y-81495000D02*
X45745000Y-80995000D01*
X45745000Y-80995000D02*
X45245000Y-80495000D01*
X45825000Y-77205000D02*
X45825000Y-93945000D01*
X61545000Y-77205000D02*
X45825000Y-77205000D01*
X61555000Y-77205000D02*
X61555000Y-93945000D01*
X61555000Y-93945000D02*
X45825000Y-93945000D01*
%TO.C,C15*%
X117041571Y-32023749D02*
X117041571Y-32546253D01*
X118511571Y-32023749D02*
X118511571Y-32546253D01*
%TO.C,R23*%
X36522064Y-49070000D02*
X36067936Y-49070000D01*
X36522064Y-50540000D02*
X36067936Y-50540000D01*
%TO.C,J19*%
X17715000Y-62445000D02*
X17715000Y-58565000D01*
X19685000Y-57395000D02*
X20835000Y-57395000D01*
X19685000Y-63615000D02*
X20835000Y-63615000D01*
X20835000Y-57395000D02*
X20835000Y-58445000D01*
X20835000Y-62565000D02*
X21825000Y-62565000D01*
X20835000Y-63615000D02*
X20835000Y-62565000D01*
%TO.C,U3*%
X39120000Y-50990000D02*
X36920000Y-50990000D01*
X39120000Y-50990000D02*
X41320000Y-50990000D01*
X39120000Y-59060000D02*
X36920000Y-59060000D01*
X39120000Y-59060000D02*
X41320000Y-59060000D01*
X35260000Y-51450000D02*
X34930000Y-51690000D01*
X34930000Y-51210000D01*
X35260000Y-51450000D01*
G36*
X35260000Y-51450000D02*
G01*
X34930000Y-51690000D01*
X34930000Y-51210000D01*
X35260000Y-51450000D01*
G37*
%TO.C,D1*%
X120385001Y-37930001D02*
X120385001Y-39850001D01*
X120385001Y-39850001D02*
X123245001Y-39850001D01*
X123245001Y-37930001D02*
X120385001Y-37930001D01*
%TO.C,C14*%
X25580000Y-71386252D02*
X25580000Y-70863748D01*
X27050000Y-71386252D02*
X27050000Y-70863748D01*
%TO.C,J1*%
X48985000Y-20115000D02*
X48985000Y-34425000D01*
X48985000Y-20115000D02*
X64705000Y-20115000D01*
X55555000Y-38535000D02*
X59295000Y-38535000D01*
X64705000Y-20115000D02*
X64705000Y-34425000D01*
X50978194Y-37947958D02*
G75*
G02*
X48985000Y-34425000I2116805J3522957D01*
G01*
X64705000Y-34425000D02*
G75*
G02*
X61796648Y-38355413I-4110000J0D01*
G01*
%TD*%
D14*
%TO.C,J11*%
X101030000Y-87345000D03*
X112460000Y-87345000D03*
%TD*%
%TO.C,J7*%
X30290000Y-87345000D03*
X41720000Y-87345000D03*
%TD*%
%TO.C,J9*%
X65660000Y-87345000D03*
X77090000Y-87345000D03*
%TD*%
%TO.C,J10*%
X83345000Y-87345000D03*
X94775000Y-87345000D03*
%TD*%
%TO.C,J8*%
X47975000Y-87345000D03*
X59405000Y-87345000D03*
%TD*%
%LPC*%
D15*
%TO.C,H4*%
X121500000Y-90800000D03*
%TD*%
D16*
%TO.C,J5*%
X43075000Y-34095000D03*
D17*
X43075000Y-27895000D03*
D18*
X38375000Y-30895000D03*
%TD*%
D19*
%TO.C,J21*%
X121246571Y-33355001D03*
D20*
X121246571Y-31355001D03*
%TD*%
D21*
%TO.C,J2*%
X67645000Y-30575000D03*
X81145000Y-30575000D03*
D22*
X70795000Y-36575000D03*
D23*
X77995000Y-36575000D03*
%TD*%
D24*
%TO.C,J16*%
X21050000Y-38305000D03*
X21050000Y-37305000D03*
X21050000Y-36305000D03*
X21050000Y-35305000D03*
D25*
X18525000Y-39605000D03*
X18525000Y-34005000D03*
%TD*%
D26*
%TO.C,C5*%
X107727500Y-41015000D03*
X109802500Y-41015000D03*
%TD*%
D27*
%TO.C,C3*%
X114289071Y-58490001D03*
X112214071Y-58490001D03*
%TD*%
D26*
%TO.C,C6*%
X107737500Y-43075000D03*
X109812500Y-43075000D03*
%TD*%
D28*
%TO.C,C8*%
X88431094Y-56090930D03*
X88431094Y-54015930D03*
%TD*%
D29*
%TO.C,J4*%
X85195000Y-23375000D03*
X96195000Y-23375000D03*
D30*
X93195000Y-33375000D03*
D31*
X88195000Y-33375000D03*
%TD*%
D15*
%TO.C,H3*%
X19500000Y-90800000D03*
%TD*%
D32*
%TO.C,R6*%
X92391094Y-60353430D03*
X94391094Y-60353430D03*
%TD*%
D29*
%TO.C,J3*%
X99745000Y-23375000D03*
X110745000Y-23375000D03*
D30*
X107745000Y-33375000D03*
D31*
X102745000Y-33375000D03*
%TD*%
D26*
%TO.C,C12*%
X93252978Y-42975000D03*
X95327978Y-42975000D03*
%TD*%
D15*
%TO.C,H1*%
X19500000Y-23800000D03*
%TD*%
D33*
%TO.C,R3*%
X38725000Y-70675000D03*
X38725000Y-68675000D03*
%TD*%
D27*
%TO.C,C2*%
X114289071Y-56400001D03*
X112214071Y-56400001D03*
%TD*%
D14*
%TO.C,J11*%
X101030000Y-87345000D03*
X112460000Y-87345000D03*
D34*
X102300000Y-80995000D03*
D35*
X103570000Y-78455000D03*
X104840000Y-80995000D03*
X106110000Y-78455000D03*
X107380000Y-80995000D03*
X108650000Y-78455000D03*
X109920000Y-80995000D03*
X111190000Y-78455000D03*
%TD*%
D36*
%TO.C,U1*%
X114339071Y-50600001D03*
X114339071Y-51550001D03*
X114339071Y-52500001D03*
X116614071Y-52500001D03*
X116614071Y-51550001D03*
X116614071Y-50600001D03*
%TD*%
D28*
%TO.C,C16*%
X38725000Y-66932500D03*
X38725000Y-64857500D03*
%TD*%
D37*
%TO.C,J22*%
X114775000Y-33375000D03*
D38*
X114775000Y-30835000D03*
%TD*%
D14*
%TO.C,J7*%
X30290000Y-87345000D03*
X41720000Y-87345000D03*
D34*
X31560000Y-80995000D03*
D35*
X32830000Y-78455000D03*
X34100000Y-80995000D03*
X35370000Y-78455000D03*
X36640000Y-80995000D03*
X37910000Y-78455000D03*
X39180000Y-80995000D03*
X40450000Y-78455000D03*
%TD*%
D39*
%TO.C,R19*%
X25795000Y-49595000D03*
X25795000Y-51595000D03*
%TD*%
D27*
%TO.C,C1*%
X114289071Y-54310001D03*
X112214071Y-54310001D03*
%TD*%
D39*
%TO.C,R2*%
X120576571Y-50495001D03*
X120576571Y-52495001D03*
%TD*%
%TO.C,R17*%
X25895000Y-41695000D03*
X25895000Y-43695000D03*
%TD*%
D40*
%TO.C,U2*%
X94291094Y-56065930D03*
X93341094Y-56065930D03*
X92391094Y-56065930D03*
X92391094Y-58340930D03*
X93341094Y-58340930D03*
X94291094Y-58340930D03*
%TD*%
D41*
%TO.C,L2*%
X93311094Y-51508430D03*
X93311094Y-45458430D03*
%TD*%
D37*
%TO.C,J23*%
X36725000Y-44475000D03*
D38*
X36725000Y-41935000D03*
X39265000Y-44475000D03*
X39265000Y-41935000D03*
X41805000Y-44475000D03*
X41805000Y-41935000D03*
X44345000Y-44475000D03*
X44345000Y-41935000D03*
%TD*%
D39*
%TO.C,R20*%
X28125000Y-49595000D03*
X28125000Y-51595000D03*
%TD*%
D42*
%TO.C,D2*%
X35841571Y-32025001D03*
X33791571Y-32025001D03*
%TD*%
D43*
%TO.C,J6*%
X53266571Y-46775001D03*
D44*
X58266571Y-46775001D03*
%TD*%
D39*
%TO.C,R16*%
X28225000Y-33795000D03*
X28225000Y-35795000D03*
%TD*%
D28*
%TO.C,C10*%
X86351094Y-56090930D03*
X86351094Y-54015930D03*
%TD*%
D32*
%TO.C,R7*%
X88541094Y-60353430D03*
X90541094Y-60353430D03*
%TD*%
D45*
%TO.C,Q2*%
X106175000Y-60805000D03*
D46*
X112475000Y-63085000D03*
D45*
X106175000Y-65365000D03*
%TD*%
D37*
%TO.C,J12*%
X20296571Y-76475001D03*
D38*
X22836571Y-76475001D03*
X25376571Y-76475001D03*
%TD*%
D39*
%TO.C,R18*%
X28225000Y-41695000D03*
X28225000Y-43695000D03*
%TD*%
D32*
%TO.C,R5*%
X33816571Y-34075001D03*
X35816571Y-34075001D03*
%TD*%
D47*
%TO.C,C4*%
X112266571Y-49527501D03*
X112266571Y-51602501D03*
%TD*%
D32*
%TO.C,R10*%
X75325000Y-49221428D03*
X77325000Y-49221428D03*
%TD*%
D48*
%TO.C,R13*%
X110676571Y-68325001D03*
X107576571Y-68325001D03*
%TD*%
D27*
%TO.C,C11*%
X95408594Y-54013430D03*
X93333594Y-54013430D03*
%TD*%
D48*
%TO.C,R14*%
X79851095Y-59035001D03*
X76751095Y-59035001D03*
%TD*%
D24*
%TO.C,J17*%
X21050000Y-46205000D03*
X21050000Y-45205000D03*
X21050000Y-44205000D03*
X21050000Y-43205000D03*
D25*
X18525000Y-47505000D03*
X18525000Y-41905000D03*
%TD*%
D24*
%TO.C,J20*%
X21050000Y-69905000D03*
X21050000Y-68905000D03*
X21050000Y-67905000D03*
X21050000Y-66905000D03*
D25*
X18525000Y-71205000D03*
X18525000Y-65605000D03*
%TD*%
D33*
%TO.C,R8*%
X113840000Y-25605000D03*
X113840000Y-23605000D03*
%TD*%
D26*
%TO.C,C13*%
X93252978Y-40985000D03*
X95327978Y-40985000D03*
%TD*%
D39*
%TO.C,R21*%
X25795000Y-57495000D03*
X25795000Y-59495000D03*
%TD*%
D24*
%TO.C,J18*%
X21050000Y-54105000D03*
X21050000Y-53105000D03*
X21050000Y-52105000D03*
X21050000Y-51105000D03*
D25*
X18525000Y-55405000D03*
X18525000Y-49805000D03*
%TD*%
D39*
%TO.C,R22*%
X28125000Y-57495000D03*
X28125000Y-59495000D03*
%TD*%
D14*
%TO.C,J9*%
X65660000Y-87345000D03*
X77090000Y-87345000D03*
D34*
X66930000Y-80995000D03*
D35*
X68200000Y-78455000D03*
X69470000Y-80995000D03*
X70740000Y-78455000D03*
X72010000Y-80995000D03*
X73280000Y-78455000D03*
X74550000Y-80995000D03*
X75820000Y-78455000D03*
%TD*%
D32*
%TO.C,R4*%
X121245001Y-36853429D03*
X123245001Y-36853429D03*
%TD*%
D49*
%TO.C,R9*%
X106046572Y-58453430D03*
X104046572Y-58453430D03*
%TD*%
D41*
%TO.C,L1*%
X107626571Y-51580001D03*
X107626571Y-45530001D03*
%TD*%
D26*
%TO.C,C7*%
X42037500Y-49805000D03*
X44112500Y-49805000D03*
%TD*%
D33*
%TO.C,R24*%
X38725000Y-74425000D03*
X38725000Y-72425000D03*
%TD*%
D15*
%TO.C,H2*%
X121500000Y-23800000D03*
%TD*%
D14*
%TO.C,J10*%
X83345000Y-87345000D03*
X94775000Y-87345000D03*
D34*
X84615000Y-80995000D03*
D35*
X85885000Y-78455000D03*
X87155000Y-80995000D03*
X88425000Y-78455000D03*
X89695000Y-80995000D03*
X90965000Y-78455000D03*
X92235000Y-80995000D03*
X93505000Y-78455000D03*
%TD*%
D45*
%TO.C,Q1*%
X75275000Y-51550000D03*
D46*
X81575000Y-53830000D03*
D45*
X75275000Y-56110000D03*
%TD*%
D50*
%TO.C,IC1*%
X29445000Y-69670000D03*
X29445000Y-70940000D03*
X29445000Y-72210000D03*
X29445000Y-73480000D03*
X34395000Y-73480000D03*
X34395000Y-72210000D03*
X34395000Y-70940000D03*
X34395000Y-69670000D03*
%TD*%
D28*
%TO.C,C9*%
X90541094Y-56090930D03*
X90541094Y-54015930D03*
%TD*%
D33*
%TO.C,R1*%
X118546571Y-52495001D03*
X118546571Y-50495001D03*
%TD*%
D39*
%TO.C,R15*%
X25895000Y-33795000D03*
X25895000Y-35795000D03*
%TD*%
D51*
%TO.C,D3*%
X115931572Y-25663430D03*
X115931572Y-23613430D03*
%TD*%
D14*
%TO.C,J8*%
X47975000Y-87345000D03*
X59405000Y-87345000D03*
D34*
X49245000Y-80995000D03*
D35*
X50515000Y-78455000D03*
X51785000Y-80995000D03*
X53055000Y-78455000D03*
X54325000Y-80995000D03*
X55595000Y-78455000D03*
X56865000Y-80995000D03*
X58135000Y-78455000D03*
%TD*%
D47*
%TO.C,C15*%
X117776571Y-31247501D03*
X117776571Y-33322501D03*
%TD*%
D49*
%TO.C,R23*%
X37295000Y-49805000D03*
X35295000Y-49805000D03*
%TD*%
D24*
%TO.C,J19*%
X21050000Y-62005000D03*
X21050000Y-61005000D03*
X21050000Y-60005000D03*
X21050000Y-59005000D03*
D25*
X18525000Y-63305000D03*
X18525000Y-57705000D03*
%TD*%
D52*
%TO.C,U3*%
X36257500Y-51450000D03*
X36257500Y-52100000D03*
X36257500Y-52750000D03*
X36257500Y-53400000D03*
X36257500Y-54050000D03*
X36257500Y-54700000D03*
X36257500Y-55350000D03*
X36257500Y-56000000D03*
X36257500Y-56650000D03*
X36257500Y-57300000D03*
X36257500Y-57950000D03*
X36257500Y-58600000D03*
X41982500Y-58600000D03*
X41982500Y-57950000D03*
X41982500Y-57300000D03*
X41982500Y-56650000D03*
X41982500Y-56000000D03*
X41982500Y-55350000D03*
X41982500Y-54700000D03*
X41982500Y-54050000D03*
X41982500Y-53400000D03*
X41982500Y-52750000D03*
X41982500Y-52100000D03*
X41982500Y-51450000D03*
%TD*%
D53*
%TO.C,D1*%
X121220001Y-38890001D03*
X123270001Y-38890001D03*
%TD*%
D28*
%TO.C,C14*%
X26315000Y-72162500D03*
X26315000Y-70087500D03*
%TD*%
D21*
%TO.C,J1*%
X50095000Y-30575000D03*
X63595000Y-30575000D03*
D22*
X53245000Y-36575000D03*
D23*
X60445000Y-36575000D03*
%TD*%
%LPD*%
M02*
