M48
; DRILL file {KiCad 8.0.8} date 2025-01-21T18:10:09-0500
; FORMAT={-:-/ absolute / metric / decimal}
; #@! TF.CreationDate,2025-01-21T18:10:09-05:00
; #@! TF.GenerationSoftware,Kicad,Pcbnew,8.0.8
; #@! TF.FileFunction,Plated,1,2,PTH
FMAT,2
METRIC
; #@! TA.AperFunction,Plated,PTH,ViaDrill
T1C0.300
; #@! TA.AperFunction,Plated,PTH,ComponentDrill
T2C0.700
; #@! TA.AperFunction,Plated,PTH,ViaDrill
T3C0.750
; #@! TA.AperFunction,Plated,PTH,ComponentDrill
T4C0.750
; #@! TA.AperFunction,Plated,PTH,ComponentDrill
T5C0.800
; #@! TA.AperFunction,Plated,PTH,ComponentDrill
T6C1.000
; #@! TA.AperFunction,Plated,PTH,ComponentDrill
T7C2.700
%
G90
G05
T1
X21.0Y-28.0
X21.0Y-33.0
X21.0Y-38.0
X21.0Y-43.0
X21.0Y-49.0
X21.0Y-54.0
X21.0Y-59.0
X21.0Y-64.0
X21.0Y-69.0
X21.0Y-74.0
X21.0Y-79.0
X21.0Y-84.0
X21.0Y-94.0
X21.0Y-99.0
X21.0Y-104.0
X23.074Y-42.056
X25.0Y-28.0
X25.0Y-76.0
X25.0Y-104.0
X26.0Y-69.0
X27.0Y-44.9
X27.0Y-90.0
X27.0Y-92.0
X27.0Y-94.0
X29.0Y-90.0
X29.0Y-92.0
X29.0Y-94.0
X29.0Y-96.0
X29.2Y-40.7
X30.0Y-28.0
X30.0Y-64.0
X30.0Y-69.0
X30.0Y-74.0
X30.0Y-104.0
X31.0Y-47.0
X31.0Y-50.0
X31.0Y-81.0
X31.0Y-84.0
X31.0Y-90.0
X31.0Y-92.0
X31.0Y-94.0
X31.0Y-96.0
X31.0Y-98.0
X32.0Y-52.0
X32.719Y-54.0
X33.0Y-38.0
X35.0Y-28.0
X35.0Y-43.0
X35.0Y-58.0
X35.0Y-64.0
X35.0Y-69.0
X35.0Y-74.0
X35.0Y-81.0
X35.0Y-84.0
X35.0Y-91.0
X35.0Y-96.1
X35.0Y-98.0
X35.0Y-100.0
X35.0Y-104.0
X36.0Y-42.0
X36.0Y-51.0
X37.0Y-41.0
X37.0Y-53.0
X38.0Y-36.0
X38.0Y-40.0
X38.0Y-55.0
X38.0Y-91.0
X38.0Y-95.0
X39.0Y-39.0
X40.0Y-28.0
X40.0Y-38.0
X40.0Y-64.0
X40.0Y-69.0
X40.0Y-74.0
X40.0Y-81.0
X40.0Y-84.0
X40.0Y-91.0
X40.0Y-93.0
X40.0Y-95.0
X40.0Y-100.0
X40.0Y-104.0
X40.1Y-62.8
X41.9Y-50.4
X42.0Y-58.0
X42.0Y-61.8
X42.0Y-93.0
X42.0Y-95.0
X42.8Y-51.6
X42.9Y-90.9
X43.0Y-56.0
X44.0Y-59.0
X45.0Y-28.0
X45.0Y-43.0
X45.0Y-64.0
X45.0Y-69.0
X45.0Y-74.0
X45.0Y-81.0
X45.0Y-84.0
X45.0Y-104.0
X46.0Y-53.0
X46.0Y-92.0
X46.0Y-95.0
X46.8Y-61.7
X48.0Y-64.0
X48.0Y-92.0
X48.0Y-100.0
X49.0Y-56.0
X50.0Y-28.0
X50.0Y-35.0
X50.0Y-38.0
X50.0Y-43.0
X50.0Y-47.0
X50.0Y-50.0
X50.0Y-69.0
X50.0Y-74.0
X50.0Y-80.892
X50.0Y-84.0
X50.0Y-94.0
X50.0Y-104.0
X50.7Y-52.3
X52.0Y-53.4
X52.0Y-96.0
X52.0Y-100.0
X52.7Y-91.552
X53.0Y-35.0
X53.0Y-38.0
X53.0Y-43.0
X53.0Y-47.0
X53.0Y-50.0
X53.0Y-56.0
X53.406Y-71.007
X53.5Y-65.8
X53.5Y-76.5
X55.0Y-28.0
X55.0Y-104.0
X56.0Y-35.0
X56.0Y-38.0
X56.0Y-43.0
X56.0Y-47.0
X56.0Y-54.0
X56.0Y-71.0
X56.0Y-81.0
X56.0Y-84.0
X56.0Y-88.0
X56.0Y-92.0
X56.0Y-96.0
X56.0Y-100.0
X59.0Y-35.0
X59.0Y-38.0
X59.0Y-43.0
X59.0Y-47.0
X60.0Y-28.0
X60.0Y-50.0
X60.0Y-54.0
X60.0Y-61.0
X60.0Y-65.9
X60.0Y-71.0
X60.0Y-76.0
X60.0Y-81.0
X60.0Y-84.0
X60.0Y-88.0
X60.0Y-92.0
X60.0Y-96.0
X60.0Y-100.0
X60.0Y-104.0
X64.0Y-45.0
X64.0Y-47.0
X64.0Y-50.0
X64.0Y-54.0
X64.0Y-61.0
X64.0Y-66.0
X64.0Y-71.0
X64.0Y-92.0
X64.0Y-96.0
X65.0Y-28.0
X65.0Y-38.0
X65.0Y-42.0
X65.0Y-104.0
X66.0Y-45.0
X66.0Y-47.0
X66.6Y-58.3
X66.6Y-63.6
X66.7Y-68.7
X67.5Y-54.0
X68.0Y-92.0
X68.0Y-96.0
X70.0Y-28.0
X70.0Y-38.0
X70.0Y-42.0
X70.0Y-51.0
X70.0Y-56.0
X70.0Y-63.0
X70.0Y-66.0
X70.0Y-69.0
X70.0Y-73.0
X70.0Y-76.0
X70.0Y-81.0
X70.0Y-84.0
X70.0Y-96.0
X70.0Y-98.0
X70.0Y-104.0
X73.0Y-52.0
X73.0Y-56.0
X73.0Y-95.0
X74.0Y-92.0
X75.0Y-28.0
X75.0Y-36.0
X75.0Y-38.0
X75.0Y-42.0
X75.0Y-45.0
X75.0Y-63.0
X75.0Y-66.0
X75.0Y-69.0
X75.0Y-73.0
X75.0Y-76.0
X75.0Y-81.0
X75.0Y-84.0
X75.0Y-91.0
X75.0Y-93.0
X75.0Y-104.0
X75.0Y-104.0
X75.5Y-54.2
X75.6Y-52.0
X75.6Y-56.0
X76.0Y-92.0
X76.0Y-95.0
X77.0Y-91.0
X77.0Y-93.0
X77.7Y-52.0
X77.7Y-59.0
X79.0Y-28.0
X79.0Y-91.0
X79.0Y-93.0
X79.0Y-95.0
X80.0Y-38.0
X80.0Y-42.0
X80.0Y-63.0
X80.0Y-66.0
X80.0Y-69.0
X80.0Y-73.0
X80.0Y-76.0
X80.0Y-81.0
X80.0Y-84.0
X80.0Y-104.0
X80.5Y-59.0
X81.0Y-52.0
X81.3Y-55.9
X82.0Y-46.0
X82.0Y-91.0
X82.1Y-36.1
X82.25Y-28.0
X82.9Y-52.0
X83.0Y-95.4
X83.3Y-59.1
X84.0Y-50.0
X84.275Y-40.079
X84.929Y-76.093
X85.0Y-44.0
X85.0Y-52.0
X85.0Y-54.0
X85.0Y-58.0
X85.0Y-63.0
X85.0Y-66.0
X85.0Y-69.0
X85.0Y-73.0
X85.0Y-84.0
X85.0Y-91.2
X85.0Y-95.0
X85.0Y-100.0
X85.0Y-104.0
X85.107Y-80.996
X85.2Y-55.542
X86.0Y-37.0
X86.0Y-51.0
X87.0Y-93.0
X88.0Y-30.0
X89.0Y-65.0
X89.0Y-66.0
X89.899Y-36.0
X90.0Y-40.0
X90.0Y-44.0
X90.0Y-58.0
X90.0Y-65.0
X90.0Y-66.0
X90.0Y-73.0
X90.0Y-76.0
X90.0Y-81.0
X90.0Y-83.993
X90.0Y-96.0
X90.0Y-100.0
X90.0Y-104.0
X90.111Y-50.901
X90.75Y-28.0
X92.0Y-32.0
X92.0Y-90.0
X92.0Y-92.0
X92.0Y-94.0
X92.0Y-96.0
X95.0Y-28.0
X95.0Y-38.0
X95.0Y-43.0
X95.0Y-49.0
X95.0Y-58.183
X95.0Y-61.0
X95.0Y-64.0
X95.0Y-69.0
X95.0Y-73.0
X95.0Y-76.0
X95.0Y-81.0
X95.0Y-84.0
X95.0Y-92.0
X95.0Y-94.0
X95.0Y-96.0
X95.0Y-100.0
X95.0Y-104.0
X97.0Y-32.0
X98.5Y-51.0
X99.5Y-50.0
X100.0Y-28.0
X100.0Y-36.0
X100.0Y-44.0
X100.0Y-45.0
X100.0Y-46.0
X100.0Y-47.0
X100.0Y-48.0
X100.0Y-49.0
X100.0Y-61.0
X100.0Y-64.0
X100.0Y-69.0
X100.0Y-72.0
X100.0Y-86.4
X100.0Y-96.0
X100.0Y-104.0
X100.5Y-53.0
X101.25Y-52.25
X102.0Y-51.5
X102.5Y-44.0
X102.5Y-45.0
X102.5Y-46.0
X102.5Y-47.0
X102.5Y-48.0
X102.5Y-49.0
X102.5Y-50.0
X104.0Y-28.0
X104.0Y-33.0
X104.0Y-41.0
X104.0Y-45.0
X104.0Y-49.0
X104.0Y-54.0
X104.0Y-59.0
X104.0Y-64.0
X104.0Y-69.0
X104.0Y-74.0
X104.0Y-79.0
X104.0Y-84.0
X104.0Y-89.0
X104.0Y-96.0
X104.0Y-104.0
T2
X44.75Y-35.71
X44.75Y-37.71
X44.75Y-39.71
X46.75Y-35.71
X46.75Y-37.71
X46.75Y-39.71
T3
X22.8Y-56.5
X23.1Y-44.4
T4
X38.13Y-45.45
X40.67Y-45.45
X43.21Y-45.45
X45.75Y-45.45
X48.29Y-45.45
T5
X27.29Y-78.125
X27.29Y-80.625
X27.29Y-85.275
X27.29Y-87.775
X31.78Y-33.26
X31.78Y-48.5
X34.32Y-33.26
X34.32Y-35.8
X34.32Y-48.5
X36.86Y-33.26
X36.86Y-48.5
X39.4Y-33.26
X39.4Y-48.5
X41.94Y-33.26
X41.94Y-48.5
X44.48Y-33.26
X44.48Y-48.5
X47.02Y-33.26
X47.02Y-48.5
X49.56Y-33.26
X49.56Y-48.5
X52.1Y-33.26
X52.1Y-48.5
X54.64Y-33.26
X54.64Y-48.5
X56.375Y-62.775
X56.375Y-67.855
X57.18Y-33.26
X57.18Y-48.5
X59.72Y-33.26
X59.72Y-48.5
X62.26Y-33.26
X62.26Y-48.5
X63.29Y-78.125
X63.29Y-80.625
X63.29Y-85.275
X63.29Y-87.775
X64.8Y-33.26
X64.8Y-48.5
X67.34Y-33.26
X67.34Y-48.5
X69.88Y-33.26
X69.88Y-48.5
X72.42Y-33.26
X72.42Y-48.5
X74.96Y-33.26
X74.96Y-48.5
X77.5Y-33.26
X77.5Y-35.8
X77.5Y-38.34
X77.5Y-40.88
X77.5Y-43.42
X77.5Y-45.96
X77.5Y-48.5
X80.04Y-33.26
X80.04Y-48.5
X82.58Y-33.26
X82.58Y-48.5
X85.12Y-33.26
X85.12Y-48.5
X87.66Y-33.26
X87.66Y-48.5
X90.2Y-33.26
X90.2Y-48.5
X91.875Y-63.165
X91.875Y-68.245
T6
X23.175Y-38.525
X24.0Y-59.725
X24.0Y-64.0
X26.925Y-38.525
X32.928Y-60.24
X32.928Y-88.16
X35.3Y-93.8
X35.468Y-60.24
X35.468Y-88.16
X37.325Y-97.625
X38.008Y-60.24
X38.008Y-88.16
X39.865Y-97.625
X40.547Y-60.24
X40.547Y-88.16
X42.405Y-97.625
X43.087Y-60.24
X43.087Y-88.16
X44.3Y-93.3
X44.945Y-97.625
X45.627Y-60.24
X45.627Y-88.16
X47.485Y-97.625
X48.167Y-60.24
X48.167Y-88.16
X50.025Y-97.625
X50.707Y-60.24
X50.707Y-88.16
X50.718Y-62.78
X50.718Y-65.32
X69.377Y-60.64
X69.377Y-88.56
X71.4Y-93.6
X71.917Y-60.64
X71.917Y-88.56
X73.225Y-97.525
X74.457Y-60.64
X74.457Y-88.56
X75.765Y-97.525
X76.998Y-60.64
X76.998Y-88.56
X78.305Y-97.525
X79.537Y-60.64
X79.537Y-88.56
X80.845Y-97.525
X81.5Y-93.4
X82.078Y-60.64
X82.078Y-88.56
X83.385Y-97.525
X84.617Y-60.64
X84.617Y-88.56
X85.925Y-97.525
X87.157Y-60.64
X87.157Y-88.56
X87.167Y-63.18
X87.167Y-65.72
X93.8Y-30.4
X93.8Y-34.425
X99.225Y-88.825
X99.225Y-93.075
T7
X99.485Y-76.575
X99.485Y-81.575
M30
