%TF.GenerationSoftware,KiCad,Pcbnew,8.0.8*%
%TF.CreationDate,2025-01-21T18:10:08-05:00*%
%TF.ProjectId,mechanumDriveTrain,6d656368-616e-4756-9d44-726976655472,rev?*%
%TF.SameCoordinates,Original*%
%TF.FileFunction,Drillmap*%
%TF.FilePolarity,Positive*%
%FSLAX45Y45*%
G04 Gerber Fmt 4.5, Leading zero omitted, Abs format (unit mm)*
G04 Created by KiCad (PCBNEW 8.0.8) date 2025-01-21 18:10:08*
%MOMM*%
%LPD*%
G01*
G04 APERTURE LIST*
%ADD10C,0.050000*%
%ADD11C,0.200000*%
%ADD12C,0.430000*%
G04 APERTURE END LIST*
D10*
X2000000Y-2700000D02*
X10490000Y-2700000D01*
X10490000Y-10600000D01*
X2000000Y-10600000D01*
X2000000Y-2700000D01*
D11*
D12*
X2285000Y-2985000D02*
X2715000Y-3415000D01*
X2715000Y-2985000D02*
X2285000Y-3415000D01*
X2285000Y-9885000D02*
X2715000Y-10315000D01*
X2715000Y-9885000D02*
X2285000Y-10315000D01*
X9785000Y-2985000D02*
X10215000Y-3415000D01*
X10215000Y-2985000D02*
X9785000Y-3415000D01*
X9785000Y-9885000D02*
X10215000Y-10315000D01*
X10215000Y-9885000D02*
X9785000Y-10315000D01*
D11*
X2258277Y-10913984D02*
X2258277Y-10713984D01*
X2258277Y-10713984D02*
X2305896Y-10713984D01*
X2305896Y-10713984D02*
X2334467Y-10723508D01*
X2334467Y-10723508D02*
X2353515Y-10742555D01*
X2353515Y-10742555D02*
X2363039Y-10761603D01*
X2363039Y-10761603D02*
X2372563Y-10799698D01*
X2372563Y-10799698D02*
X2372563Y-10828270D01*
X2372563Y-10828270D02*
X2363039Y-10866365D01*
X2363039Y-10866365D02*
X2353515Y-10885412D01*
X2353515Y-10885412D02*
X2334467Y-10904460D01*
X2334467Y-10904460D02*
X2305896Y-10913984D01*
X2305896Y-10913984D02*
X2258277Y-10913984D01*
X2458277Y-10913984D02*
X2458277Y-10780650D01*
X2458277Y-10818746D02*
X2467801Y-10799698D01*
X2467801Y-10799698D02*
X2477324Y-10790174D01*
X2477324Y-10790174D02*
X2496372Y-10780650D01*
X2496372Y-10780650D02*
X2515420Y-10780650D01*
X2582086Y-10913984D02*
X2582086Y-10780650D01*
X2582086Y-10713984D02*
X2572563Y-10723508D01*
X2572563Y-10723508D02*
X2582086Y-10733031D01*
X2582086Y-10733031D02*
X2591610Y-10723508D01*
X2591610Y-10723508D02*
X2582086Y-10713984D01*
X2582086Y-10713984D02*
X2582086Y-10733031D01*
X2705896Y-10913984D02*
X2686848Y-10904460D01*
X2686848Y-10904460D02*
X2677324Y-10885412D01*
X2677324Y-10885412D02*
X2677324Y-10713984D01*
X2810658Y-10913984D02*
X2791610Y-10904460D01*
X2791610Y-10904460D02*
X2782086Y-10885412D01*
X2782086Y-10885412D02*
X2782086Y-10713984D01*
X3039229Y-10913984D02*
X3039229Y-10713984D01*
X3039229Y-10713984D02*
X3105896Y-10856841D01*
X3105896Y-10856841D02*
X3172562Y-10713984D01*
X3172562Y-10713984D02*
X3172562Y-10913984D01*
X3353515Y-10913984D02*
X3353515Y-10809222D01*
X3353515Y-10809222D02*
X3343991Y-10790174D01*
X3343991Y-10790174D02*
X3324943Y-10780650D01*
X3324943Y-10780650D02*
X3286848Y-10780650D01*
X3286848Y-10780650D02*
X3267801Y-10790174D01*
X3353515Y-10904460D02*
X3334467Y-10913984D01*
X3334467Y-10913984D02*
X3286848Y-10913984D01*
X3286848Y-10913984D02*
X3267801Y-10904460D01*
X3267801Y-10904460D02*
X3258277Y-10885412D01*
X3258277Y-10885412D02*
X3258277Y-10866365D01*
X3258277Y-10866365D02*
X3267801Y-10847317D01*
X3267801Y-10847317D02*
X3286848Y-10837793D01*
X3286848Y-10837793D02*
X3334467Y-10837793D01*
X3334467Y-10837793D02*
X3353515Y-10828270D01*
X3448753Y-10780650D02*
X3448753Y-10980650D01*
X3448753Y-10790174D02*
X3467801Y-10780650D01*
X3467801Y-10780650D02*
X3505896Y-10780650D01*
X3505896Y-10780650D02*
X3524943Y-10790174D01*
X3524943Y-10790174D02*
X3534467Y-10799698D01*
X3534467Y-10799698D02*
X3543991Y-10818746D01*
X3543991Y-10818746D02*
X3543991Y-10875889D01*
X3543991Y-10875889D02*
X3534467Y-10894936D01*
X3534467Y-10894936D02*
X3524943Y-10904460D01*
X3524943Y-10904460D02*
X3505896Y-10913984D01*
X3505896Y-10913984D02*
X3467801Y-10913984D01*
X3467801Y-10913984D02*
X3448753Y-10904460D01*
X3629705Y-10894936D02*
X3639229Y-10904460D01*
X3639229Y-10904460D02*
X3629705Y-10913984D01*
X3629705Y-10913984D02*
X3620182Y-10904460D01*
X3620182Y-10904460D02*
X3629705Y-10894936D01*
X3629705Y-10894936D02*
X3629705Y-10913984D01*
X3629705Y-10790174D02*
X3639229Y-10799698D01*
X3639229Y-10799698D02*
X3629705Y-10809222D01*
X3629705Y-10809222D02*
X3620182Y-10799698D01*
X3620182Y-10799698D02*
X3629705Y-10790174D01*
X3629705Y-10790174D02*
X3629705Y-10809222D01*
X1797500Y-11142500D02*
X1997500Y-11342500D01*
X1997500Y-11142500D02*
X1797500Y-11342500D01*
X2343991Y-11200650D02*
X2343991Y-11333984D01*
X2296372Y-11124460D02*
X2248753Y-11267317D01*
X2248753Y-11267317D02*
X2372563Y-11267317D01*
X2448753Y-11314936D02*
X2458277Y-11324460D01*
X2458277Y-11324460D02*
X2448753Y-11333984D01*
X2448753Y-11333984D02*
X2439229Y-11324460D01*
X2439229Y-11324460D02*
X2448753Y-11314936D01*
X2448753Y-11314936D02*
X2448753Y-11333984D01*
X2524944Y-11133984D02*
X2648753Y-11133984D01*
X2648753Y-11133984D02*
X2582086Y-11210174D01*
X2582086Y-11210174D02*
X2610658Y-11210174D01*
X2610658Y-11210174D02*
X2629705Y-11219698D01*
X2629705Y-11219698D02*
X2639229Y-11229222D01*
X2639229Y-11229222D02*
X2648753Y-11248269D01*
X2648753Y-11248269D02*
X2648753Y-11295888D01*
X2648753Y-11295888D02*
X2639229Y-11314936D01*
X2639229Y-11314936D02*
X2629705Y-11324460D01*
X2629705Y-11324460D02*
X2610658Y-11333984D01*
X2610658Y-11333984D02*
X2553515Y-11333984D01*
X2553515Y-11333984D02*
X2534467Y-11324460D01*
X2534467Y-11324460D02*
X2524944Y-11314936D01*
X2772563Y-11133984D02*
X2791610Y-11133984D01*
X2791610Y-11133984D02*
X2810658Y-11143508D01*
X2810658Y-11143508D02*
X2820182Y-11153031D01*
X2820182Y-11153031D02*
X2829705Y-11172079D01*
X2829705Y-11172079D02*
X2839229Y-11210174D01*
X2839229Y-11210174D02*
X2839229Y-11257793D01*
X2839229Y-11257793D02*
X2829705Y-11295888D01*
X2829705Y-11295888D02*
X2820182Y-11314936D01*
X2820182Y-11314936D02*
X2810658Y-11324460D01*
X2810658Y-11324460D02*
X2791610Y-11333984D01*
X2791610Y-11333984D02*
X2772563Y-11333984D01*
X2772563Y-11333984D02*
X2753515Y-11324460D01*
X2753515Y-11324460D02*
X2743991Y-11314936D01*
X2743991Y-11314936D02*
X2734467Y-11295888D01*
X2734467Y-11295888D02*
X2724944Y-11257793D01*
X2724944Y-11257793D02*
X2724944Y-11210174D01*
X2724944Y-11210174D02*
X2734467Y-11172079D01*
X2734467Y-11172079D02*
X2743991Y-11153031D01*
X2743991Y-11153031D02*
X2753515Y-11143508D01*
X2753515Y-11143508D02*
X2772563Y-11133984D01*
X2963039Y-11133984D02*
X2982086Y-11133984D01*
X2982086Y-11133984D02*
X3001134Y-11143508D01*
X3001134Y-11143508D02*
X3010658Y-11153031D01*
X3010658Y-11153031D02*
X3020182Y-11172079D01*
X3020182Y-11172079D02*
X3029705Y-11210174D01*
X3029705Y-11210174D02*
X3029705Y-11257793D01*
X3029705Y-11257793D02*
X3020182Y-11295888D01*
X3020182Y-11295888D02*
X3010658Y-11314936D01*
X3010658Y-11314936D02*
X3001134Y-11324460D01*
X3001134Y-11324460D02*
X2982086Y-11333984D01*
X2982086Y-11333984D02*
X2963039Y-11333984D01*
X2963039Y-11333984D02*
X2943991Y-11324460D01*
X2943991Y-11324460D02*
X2934467Y-11314936D01*
X2934467Y-11314936D02*
X2924943Y-11295888D01*
X2924943Y-11295888D02*
X2915420Y-11257793D01*
X2915420Y-11257793D02*
X2915420Y-11210174D01*
X2915420Y-11210174D02*
X2924943Y-11172079D01*
X2924943Y-11172079D02*
X2934467Y-11153031D01*
X2934467Y-11153031D02*
X2943991Y-11143508D01*
X2943991Y-11143508D02*
X2963039Y-11133984D01*
X3115420Y-11333984D02*
X3115420Y-11200650D01*
X3115420Y-11219698D02*
X3124943Y-11210174D01*
X3124943Y-11210174D02*
X3143991Y-11200650D01*
X3143991Y-11200650D02*
X3172563Y-11200650D01*
X3172563Y-11200650D02*
X3191610Y-11210174D01*
X3191610Y-11210174D02*
X3201134Y-11229222D01*
X3201134Y-11229222D02*
X3201134Y-11333984D01*
X3201134Y-11229222D02*
X3210658Y-11210174D01*
X3210658Y-11210174D02*
X3229705Y-11200650D01*
X3229705Y-11200650D02*
X3258277Y-11200650D01*
X3258277Y-11200650D02*
X3277324Y-11210174D01*
X3277324Y-11210174D02*
X3286848Y-11229222D01*
X3286848Y-11229222D02*
X3286848Y-11333984D01*
X3382086Y-11333984D02*
X3382086Y-11200650D01*
X3382086Y-11219698D02*
X3391610Y-11210174D01*
X3391610Y-11210174D02*
X3410658Y-11200650D01*
X3410658Y-11200650D02*
X3439229Y-11200650D01*
X3439229Y-11200650D02*
X3458277Y-11210174D01*
X3458277Y-11210174D02*
X3467801Y-11229222D01*
X3467801Y-11229222D02*
X3467801Y-11333984D01*
X3467801Y-11229222D02*
X3477324Y-11210174D01*
X3477324Y-11210174D02*
X3496372Y-11200650D01*
X3496372Y-11200650D02*
X3524943Y-11200650D01*
X3524943Y-11200650D02*
X3543991Y-11210174D01*
X3543991Y-11210174D02*
X3553515Y-11229222D01*
X3553515Y-11229222D02*
X3553515Y-11333984D01*
X3943991Y-11124460D02*
X3772563Y-11381603D01*
X4201134Y-11133984D02*
X4220182Y-11133984D01*
X4220182Y-11133984D02*
X4239229Y-11143508D01*
X4239229Y-11143508D02*
X4248753Y-11153031D01*
X4248753Y-11153031D02*
X4258277Y-11172079D01*
X4258277Y-11172079D02*
X4267801Y-11210174D01*
X4267801Y-11210174D02*
X4267801Y-11257793D01*
X4267801Y-11257793D02*
X4258277Y-11295888D01*
X4258277Y-11295888D02*
X4248753Y-11314936D01*
X4248753Y-11314936D02*
X4239229Y-11324460D01*
X4239229Y-11324460D02*
X4220182Y-11333984D01*
X4220182Y-11333984D02*
X4201134Y-11333984D01*
X4201134Y-11333984D02*
X4182086Y-11324460D01*
X4182086Y-11324460D02*
X4172563Y-11314936D01*
X4172563Y-11314936D02*
X4163039Y-11295888D01*
X4163039Y-11295888D02*
X4153515Y-11257793D01*
X4153515Y-11257793D02*
X4153515Y-11210174D01*
X4153515Y-11210174D02*
X4163039Y-11172079D01*
X4163039Y-11172079D02*
X4172563Y-11153031D01*
X4172563Y-11153031D02*
X4182086Y-11143508D01*
X4182086Y-11143508D02*
X4201134Y-11133984D01*
X4353515Y-11314936D02*
X4363039Y-11324460D01*
X4363039Y-11324460D02*
X4353515Y-11333984D01*
X4353515Y-11333984D02*
X4343991Y-11324460D01*
X4343991Y-11324460D02*
X4353515Y-11314936D01*
X4353515Y-11314936D02*
X4353515Y-11333984D01*
X4553515Y-11333984D02*
X4439229Y-11333984D01*
X4496372Y-11333984D02*
X4496372Y-11133984D01*
X4496372Y-11133984D02*
X4477325Y-11162555D01*
X4477325Y-11162555D02*
X4458277Y-11181603D01*
X4458277Y-11181603D02*
X4439229Y-11191127D01*
X4724944Y-11133984D02*
X4686848Y-11133984D01*
X4686848Y-11133984D02*
X4667801Y-11143508D01*
X4667801Y-11143508D02*
X4658277Y-11153031D01*
X4658277Y-11153031D02*
X4639229Y-11181603D01*
X4639229Y-11181603D02*
X4629706Y-11219698D01*
X4629706Y-11219698D02*
X4629706Y-11295888D01*
X4629706Y-11295888D02*
X4639229Y-11314936D01*
X4639229Y-11314936D02*
X4648753Y-11324460D01*
X4648753Y-11324460D02*
X4667801Y-11333984D01*
X4667801Y-11333984D02*
X4705896Y-11333984D01*
X4705896Y-11333984D02*
X4724944Y-11324460D01*
X4724944Y-11324460D02*
X4734468Y-11314936D01*
X4734468Y-11314936D02*
X4743991Y-11295888D01*
X4743991Y-11295888D02*
X4743991Y-11248269D01*
X4743991Y-11248269D02*
X4734468Y-11229222D01*
X4734468Y-11229222D02*
X4724944Y-11219698D01*
X4724944Y-11219698D02*
X4705896Y-11210174D01*
X4705896Y-11210174D02*
X4667801Y-11210174D01*
X4667801Y-11210174D02*
X4648753Y-11219698D01*
X4648753Y-11219698D02*
X4639229Y-11229222D01*
X4639229Y-11229222D02*
X4629706Y-11248269D01*
X4839229Y-11333984D02*
X4877325Y-11333984D01*
X4877325Y-11333984D02*
X4896372Y-11324460D01*
X4896372Y-11324460D02*
X4905896Y-11314936D01*
X4905896Y-11314936D02*
X4924944Y-11286365D01*
X4924944Y-11286365D02*
X4934468Y-11248269D01*
X4934468Y-11248269D02*
X4934468Y-11172079D01*
X4934468Y-11172079D02*
X4924944Y-11153031D01*
X4924944Y-11153031D02*
X4915420Y-11143508D01*
X4915420Y-11143508D02*
X4896372Y-11133984D01*
X4896372Y-11133984D02*
X4858277Y-11133984D01*
X4858277Y-11133984D02*
X4839229Y-11143508D01*
X4839229Y-11143508D02*
X4829706Y-11153031D01*
X4829706Y-11153031D02*
X4820182Y-11172079D01*
X4820182Y-11172079D02*
X4820182Y-11219698D01*
X4820182Y-11219698D02*
X4829706Y-11238746D01*
X4829706Y-11238746D02*
X4839229Y-11248269D01*
X4839229Y-11248269D02*
X4858277Y-11257793D01*
X4858277Y-11257793D02*
X4896372Y-11257793D01*
X4896372Y-11257793D02*
X4915420Y-11248269D01*
X4915420Y-11248269D02*
X4924944Y-11238746D01*
X4924944Y-11238746D02*
X4934468Y-11219698D01*
X5001134Y-11133984D02*
X5124944Y-11133984D01*
X5124944Y-11133984D02*
X5058277Y-11210174D01*
X5058277Y-11210174D02*
X5086849Y-11210174D01*
X5086849Y-11210174D02*
X5105896Y-11219698D01*
X5105896Y-11219698D02*
X5115420Y-11229222D01*
X5115420Y-11229222D02*
X5124944Y-11248269D01*
X5124944Y-11248269D02*
X5124944Y-11295888D01*
X5124944Y-11295888D02*
X5115420Y-11314936D01*
X5115420Y-11314936D02*
X5105896Y-11324460D01*
X5105896Y-11324460D02*
X5086849Y-11333984D01*
X5086849Y-11333984D02*
X5029706Y-11333984D01*
X5029706Y-11333984D02*
X5010658Y-11324460D01*
X5010658Y-11324460D02*
X5001134Y-11314936D01*
X5201134Y-11133984D02*
X5201134Y-11172079D01*
X5277325Y-11133984D02*
X5277325Y-11172079D01*
X5572563Y-11410174D02*
X5563039Y-11400650D01*
X5563039Y-11400650D02*
X5543991Y-11372079D01*
X5543991Y-11372079D02*
X5534468Y-11353031D01*
X5534468Y-11353031D02*
X5524944Y-11324460D01*
X5524944Y-11324460D02*
X5515420Y-11276841D01*
X5515420Y-11276841D02*
X5515420Y-11238746D01*
X5515420Y-11238746D02*
X5524944Y-11191127D01*
X5524944Y-11191127D02*
X5534468Y-11162555D01*
X5534468Y-11162555D02*
X5543991Y-11143508D01*
X5543991Y-11143508D02*
X5563039Y-11114936D01*
X5563039Y-11114936D02*
X5572563Y-11105412D01*
X5734468Y-11200650D02*
X5734468Y-11333984D01*
X5686848Y-11124460D02*
X5639229Y-11267317D01*
X5639229Y-11267317D02*
X5763039Y-11267317D01*
X5991610Y-11333984D02*
X5991610Y-11133984D01*
X6077325Y-11333984D02*
X6077325Y-11229222D01*
X6077325Y-11229222D02*
X6067801Y-11210174D01*
X6067801Y-11210174D02*
X6048753Y-11200650D01*
X6048753Y-11200650D02*
X6020182Y-11200650D01*
X6020182Y-11200650D02*
X6001134Y-11210174D01*
X6001134Y-11210174D02*
X5991610Y-11219698D01*
X6201134Y-11333984D02*
X6182087Y-11324460D01*
X6182087Y-11324460D02*
X6172563Y-11314936D01*
X6172563Y-11314936D02*
X6163039Y-11295888D01*
X6163039Y-11295888D02*
X6163039Y-11238746D01*
X6163039Y-11238746D02*
X6172563Y-11219698D01*
X6172563Y-11219698D02*
X6182087Y-11210174D01*
X6182087Y-11210174D02*
X6201134Y-11200650D01*
X6201134Y-11200650D02*
X6229706Y-11200650D01*
X6229706Y-11200650D02*
X6248753Y-11210174D01*
X6248753Y-11210174D02*
X6258277Y-11219698D01*
X6258277Y-11219698D02*
X6267801Y-11238746D01*
X6267801Y-11238746D02*
X6267801Y-11295888D01*
X6267801Y-11295888D02*
X6258277Y-11314936D01*
X6258277Y-11314936D02*
X6248753Y-11324460D01*
X6248753Y-11324460D02*
X6229706Y-11333984D01*
X6229706Y-11333984D02*
X6201134Y-11333984D01*
X6382087Y-11333984D02*
X6363039Y-11324460D01*
X6363039Y-11324460D02*
X6353515Y-11305412D01*
X6353515Y-11305412D02*
X6353515Y-11133984D01*
X6534468Y-11324460D02*
X6515420Y-11333984D01*
X6515420Y-11333984D02*
X6477325Y-11333984D01*
X6477325Y-11333984D02*
X6458277Y-11324460D01*
X6458277Y-11324460D02*
X6448753Y-11305412D01*
X6448753Y-11305412D02*
X6448753Y-11229222D01*
X6448753Y-11229222D02*
X6458277Y-11210174D01*
X6458277Y-11210174D02*
X6477325Y-11200650D01*
X6477325Y-11200650D02*
X6515420Y-11200650D01*
X6515420Y-11200650D02*
X6534468Y-11210174D01*
X6534468Y-11210174D02*
X6543991Y-11229222D01*
X6543991Y-11229222D02*
X6543991Y-11248269D01*
X6543991Y-11248269D02*
X6448753Y-11267317D01*
X6620182Y-11324460D02*
X6639230Y-11333984D01*
X6639230Y-11333984D02*
X6677325Y-11333984D01*
X6677325Y-11333984D02*
X6696372Y-11324460D01*
X6696372Y-11324460D02*
X6705896Y-11305412D01*
X6705896Y-11305412D02*
X6705896Y-11295888D01*
X6705896Y-11295888D02*
X6696372Y-11276841D01*
X6696372Y-11276841D02*
X6677325Y-11267317D01*
X6677325Y-11267317D02*
X6648753Y-11267317D01*
X6648753Y-11267317D02*
X6629706Y-11257793D01*
X6629706Y-11257793D02*
X6620182Y-11238746D01*
X6620182Y-11238746D02*
X6620182Y-11229222D01*
X6620182Y-11229222D02*
X6629706Y-11210174D01*
X6629706Y-11210174D02*
X6648753Y-11200650D01*
X6648753Y-11200650D02*
X6677325Y-11200650D01*
X6677325Y-11200650D02*
X6696372Y-11210174D01*
X6772563Y-11410174D02*
X6782087Y-11400650D01*
X6782087Y-11400650D02*
X6801134Y-11372079D01*
X6801134Y-11372079D02*
X6810658Y-11353031D01*
X6810658Y-11353031D02*
X6820182Y-11324460D01*
X6820182Y-11324460D02*
X6829706Y-11276841D01*
X6829706Y-11276841D02*
X6829706Y-11238746D01*
X6829706Y-11238746D02*
X6820182Y-11191127D01*
X6820182Y-11191127D02*
X6810658Y-11162555D01*
X6810658Y-11162555D02*
X6801134Y-11143508D01*
X6801134Y-11143508D02*
X6782087Y-11114936D01*
X6782087Y-11114936D02*
X6772563Y-11105412D01*
X7134468Y-11410174D02*
X7124944Y-11400650D01*
X7124944Y-11400650D02*
X7105896Y-11372079D01*
X7105896Y-11372079D02*
X7096372Y-11353031D01*
X7096372Y-11353031D02*
X7086849Y-11324460D01*
X7086849Y-11324460D02*
X7077325Y-11276841D01*
X7077325Y-11276841D02*
X7077325Y-11238746D01*
X7077325Y-11238746D02*
X7086849Y-11191127D01*
X7086849Y-11191127D02*
X7096372Y-11162555D01*
X7096372Y-11162555D02*
X7105896Y-11143508D01*
X7105896Y-11143508D02*
X7124944Y-11114936D01*
X7124944Y-11114936D02*
X7134468Y-11105412D01*
X7210658Y-11200650D02*
X7210658Y-11333984D01*
X7210658Y-11219698D02*
X7220182Y-11210174D01*
X7220182Y-11210174D02*
X7239230Y-11200650D01*
X7239230Y-11200650D02*
X7267801Y-11200650D01*
X7267801Y-11200650D02*
X7286849Y-11210174D01*
X7286849Y-11210174D02*
X7296372Y-11229222D01*
X7296372Y-11229222D02*
X7296372Y-11333984D01*
X7420182Y-11333984D02*
X7401134Y-11324460D01*
X7401134Y-11324460D02*
X7391611Y-11314936D01*
X7391611Y-11314936D02*
X7382087Y-11295888D01*
X7382087Y-11295888D02*
X7382087Y-11238746D01*
X7382087Y-11238746D02*
X7391611Y-11219698D01*
X7391611Y-11219698D02*
X7401134Y-11210174D01*
X7401134Y-11210174D02*
X7420182Y-11200650D01*
X7420182Y-11200650D02*
X7448753Y-11200650D01*
X7448753Y-11200650D02*
X7467801Y-11210174D01*
X7467801Y-11210174D02*
X7477325Y-11219698D01*
X7477325Y-11219698D02*
X7486849Y-11238746D01*
X7486849Y-11238746D02*
X7486849Y-11295888D01*
X7486849Y-11295888D02*
X7477325Y-11314936D01*
X7477325Y-11314936D02*
X7467801Y-11324460D01*
X7467801Y-11324460D02*
X7448753Y-11333984D01*
X7448753Y-11333984D02*
X7420182Y-11333984D01*
X7543992Y-11200650D02*
X7620182Y-11200650D01*
X7572563Y-11133984D02*
X7572563Y-11305412D01*
X7572563Y-11305412D02*
X7582087Y-11324460D01*
X7582087Y-11324460D02*
X7601134Y-11333984D01*
X7601134Y-11333984D02*
X7620182Y-11333984D01*
X7839230Y-11200650D02*
X7839230Y-11400650D01*
X7839230Y-11210174D02*
X7858277Y-11200650D01*
X7858277Y-11200650D02*
X7896373Y-11200650D01*
X7896373Y-11200650D02*
X7915420Y-11210174D01*
X7915420Y-11210174D02*
X7924944Y-11219698D01*
X7924944Y-11219698D02*
X7934468Y-11238746D01*
X7934468Y-11238746D02*
X7934468Y-11295888D01*
X7934468Y-11295888D02*
X7924944Y-11314936D01*
X7924944Y-11314936D02*
X7915420Y-11324460D01*
X7915420Y-11324460D02*
X7896373Y-11333984D01*
X7896373Y-11333984D02*
X7858277Y-11333984D01*
X7858277Y-11333984D02*
X7839230Y-11324460D01*
X8048753Y-11333984D02*
X8029706Y-11324460D01*
X8029706Y-11324460D02*
X8020182Y-11305412D01*
X8020182Y-11305412D02*
X8020182Y-11133984D01*
X8210658Y-11333984D02*
X8210658Y-11229222D01*
X8210658Y-11229222D02*
X8201134Y-11210174D01*
X8201134Y-11210174D02*
X8182087Y-11200650D01*
X8182087Y-11200650D02*
X8143992Y-11200650D01*
X8143992Y-11200650D02*
X8124944Y-11210174D01*
X8210658Y-11324460D02*
X8191611Y-11333984D01*
X8191611Y-11333984D02*
X8143992Y-11333984D01*
X8143992Y-11333984D02*
X8124944Y-11324460D01*
X8124944Y-11324460D02*
X8115420Y-11305412D01*
X8115420Y-11305412D02*
X8115420Y-11286365D01*
X8115420Y-11286365D02*
X8124944Y-11267317D01*
X8124944Y-11267317D02*
X8143992Y-11257793D01*
X8143992Y-11257793D02*
X8191611Y-11257793D01*
X8191611Y-11257793D02*
X8210658Y-11248269D01*
X8277325Y-11200650D02*
X8353515Y-11200650D01*
X8305896Y-11133984D02*
X8305896Y-11305412D01*
X8305896Y-11305412D02*
X8315420Y-11324460D01*
X8315420Y-11324460D02*
X8334468Y-11333984D01*
X8334468Y-11333984D02*
X8353515Y-11333984D01*
X8496373Y-11324460D02*
X8477325Y-11333984D01*
X8477325Y-11333984D02*
X8439230Y-11333984D01*
X8439230Y-11333984D02*
X8420182Y-11324460D01*
X8420182Y-11324460D02*
X8410658Y-11305412D01*
X8410658Y-11305412D02*
X8410658Y-11229222D01*
X8410658Y-11229222D02*
X8420182Y-11210174D01*
X8420182Y-11210174D02*
X8439230Y-11200650D01*
X8439230Y-11200650D02*
X8477325Y-11200650D01*
X8477325Y-11200650D02*
X8496373Y-11210174D01*
X8496373Y-11210174D02*
X8505896Y-11229222D01*
X8505896Y-11229222D02*
X8505896Y-11248269D01*
X8505896Y-11248269D02*
X8410658Y-11267317D01*
X8677325Y-11333984D02*
X8677325Y-11133984D01*
X8677325Y-11324460D02*
X8658277Y-11333984D01*
X8658277Y-11333984D02*
X8620182Y-11333984D01*
X8620182Y-11333984D02*
X8601135Y-11324460D01*
X8601135Y-11324460D02*
X8591611Y-11314936D01*
X8591611Y-11314936D02*
X8582087Y-11295888D01*
X8582087Y-11295888D02*
X8582087Y-11238746D01*
X8582087Y-11238746D02*
X8591611Y-11219698D01*
X8591611Y-11219698D02*
X8601135Y-11210174D01*
X8601135Y-11210174D02*
X8620182Y-11200650D01*
X8620182Y-11200650D02*
X8658277Y-11200650D01*
X8658277Y-11200650D02*
X8677325Y-11210174D01*
X8753516Y-11410174D02*
X8763039Y-11400650D01*
X8763039Y-11400650D02*
X8782087Y-11372079D01*
X8782087Y-11372079D02*
X8791611Y-11353031D01*
X8791611Y-11353031D02*
X8801135Y-11324460D01*
X8801135Y-11324460D02*
X8810658Y-11276841D01*
X8810658Y-11276841D02*
X8810658Y-11238746D01*
X8810658Y-11238746D02*
X8801135Y-11191127D01*
X8801135Y-11191127D02*
X8791611Y-11162555D01*
X8791611Y-11162555D02*
X8782087Y-11143508D01*
X8782087Y-11143508D02*
X8763039Y-11114936D01*
X8763039Y-11114936D02*
X8753516Y-11105412D01*
M02*
