G04 #@! TF.GenerationSoftware,KiCad,Pcbnew,8.0.8*
G04 #@! TF.CreationDate,2025-01-21T18:10:11-05:00*
G04 #@! TF.ProjectId,mechanumDriveTrain,6d656368-616e-4756-9d44-726976655472,rev?*
G04 #@! TF.SameCoordinates,Original*
G04 #@! TF.FileFunction,Soldermask,Bot*
G04 #@! TF.FilePolarity,Negative*
%FSLAX46Y46*%
G04 Gerber Fmt 4.6, Leading zero omitted, Abs format (unit mm)*
G04 Created by KiCad (PCBNEW 8.0.8) date 2025-01-21 18:10:11*
%MOMM*%
%LPD*%
G01*
G04 APERTURE LIST*
%ADD10C,2.000000*%
%ADD11C,4.300000*%
%ADD12C,1.600000*%
%ADD13O,1.600000X1.600000*%
%ADD14R,1.600000X1.600000*%
%ADD15R,1.700000X1.700000*%
%ADD16O,1.700000X1.700000*%
%ADD17R,3.800000X3.800000*%
%ADD18C,3.800000*%
%ADD19C,1.512000*%
%ADD20C,1.462000*%
%ADD21C,1.412000*%
G04 APERTURE END LIST*
D10*
X24000000Y-64000000D03*
D11*
X100000000Y-101000000D03*
D12*
X56375000Y-67855000D03*
D13*
X56375000Y-62775000D03*
D10*
X44300000Y-93300000D03*
X93800000Y-34425000D03*
D14*
X27290000Y-80625000D03*
D12*
X27290000Y-78125000D03*
D10*
X99225000Y-88825000D03*
D15*
X37325000Y-97625000D03*
D16*
X39865000Y-97625000D03*
X42405000Y-97625000D03*
X44945000Y-97625000D03*
X47485000Y-97625000D03*
X50025000Y-97625000D03*
D11*
X25000000Y-32000000D03*
D15*
X73225000Y-97525000D03*
D16*
X75765000Y-97525000D03*
X78305000Y-97525000D03*
X80845000Y-97525000D03*
X83385000Y-97525000D03*
X85925000Y-97525000D03*
D10*
X35300000Y-93800000D03*
D17*
X99485000Y-81575000D03*
D18*
X99485000Y-76575000D03*
D10*
X26925000Y-38525000D03*
D14*
X63290000Y-80625000D03*
D12*
X63290000Y-78125000D03*
D15*
X87157500Y-60640000D03*
X87157500Y-88560000D03*
D16*
X84617500Y-88560000D03*
X84617500Y-60640000D03*
X82077500Y-60640000D03*
X79537500Y-60640000D03*
X76997500Y-60640000D03*
X74457500Y-60640000D03*
X71917500Y-60640000D03*
X69377500Y-60640000D03*
X82077500Y-88560000D03*
X79537500Y-88560000D03*
X76997500Y-88560000D03*
X74457500Y-88560000D03*
X71917500Y-88560000D03*
X69377500Y-88560000D03*
D15*
X87167500Y-63180000D03*
D16*
X87167500Y-65720000D03*
D10*
X93800000Y-30400000D03*
D11*
X100000000Y-32000000D03*
X25000000Y-101000000D03*
D14*
X27290000Y-85275000D03*
D12*
X27290000Y-87775000D03*
D10*
X24000000Y-59725000D03*
X99225000Y-93075000D03*
D14*
X63290000Y-85275000D03*
D12*
X63290000Y-87775000D03*
D10*
X81500000Y-93400000D03*
D15*
X50707500Y-60240000D03*
X50707500Y-88160000D03*
D16*
X48167500Y-88160000D03*
X48167500Y-60240000D03*
X45627500Y-60240000D03*
X43087500Y-60240000D03*
X40547500Y-60240000D03*
X38007500Y-60240000D03*
X35467500Y-60240000D03*
X32927500Y-60240000D03*
X45627500Y-88160000D03*
X43087500Y-88160000D03*
X40547500Y-88160000D03*
X38007500Y-88160000D03*
X35467500Y-88160000D03*
X32927500Y-88160000D03*
D15*
X50717500Y-62780000D03*
D16*
X50717500Y-65320000D03*
D10*
X23175000Y-38525000D03*
D19*
X34320000Y-48500000D03*
X36860000Y-48500000D03*
X39400000Y-48500000D03*
X41940000Y-48500000D03*
X36860000Y-33260000D03*
X67340000Y-48500000D03*
X77500000Y-43420000D03*
X44480000Y-48500000D03*
X47020000Y-48500000D03*
D20*
X38130000Y-45450000D03*
D19*
X49560000Y-48500000D03*
X52100000Y-48500000D03*
X54640000Y-48500000D03*
X57180000Y-48500000D03*
X59720000Y-48500000D03*
X62260000Y-48500000D03*
X64800000Y-48500000D03*
X64800000Y-33260000D03*
X62260000Y-33260000D03*
X59720000Y-33260000D03*
X57180000Y-33260000D03*
X54640000Y-33260000D03*
X52100000Y-33260000D03*
X49560000Y-33260000D03*
X47020000Y-33260000D03*
X44480000Y-33260000D03*
X41940000Y-33260000D03*
X39400000Y-33260000D03*
X69880000Y-48500000D03*
X72420000Y-48500000D03*
X74960000Y-48500000D03*
X77500000Y-48500000D03*
X80040000Y-48500000D03*
X82580000Y-48500000D03*
X85120000Y-48500000D03*
X87660000Y-48500000D03*
X90200000Y-48500000D03*
X90200000Y-33260000D03*
X87660000Y-33260000D03*
X85120000Y-33260000D03*
X82580000Y-33260000D03*
X80040000Y-33260000D03*
X77500000Y-33260000D03*
X74960000Y-33260000D03*
X72420000Y-33260000D03*
X69880000Y-33260000D03*
D20*
X43210000Y-45450000D03*
X40670000Y-45450000D03*
D19*
X31780000Y-48500000D03*
X34320000Y-33260000D03*
D21*
X46750000Y-37710000D03*
D19*
X67340000Y-33260000D03*
X77500000Y-40880000D03*
D21*
X44750000Y-37710000D03*
D19*
X77500000Y-35800000D03*
X77500000Y-38340000D03*
D21*
X44750000Y-35710000D03*
X46750000Y-35710000D03*
X46750000Y-39710000D03*
X44750000Y-39710000D03*
D20*
X45750000Y-45450000D03*
X48290000Y-45450000D03*
D19*
X77500000Y-45960000D03*
X31780000Y-33260000D03*
X34320000Y-35800000D03*
D10*
X71400000Y-93600000D03*
D12*
X91875000Y-68245000D03*
D13*
X91875000Y-63165000D03*
M02*
