M48
; DRILL file {KiCad 8.0.8} date 2025-01-20T09:17:46-0500
; FORMAT={-:-/ absolute / metric / decimal}
; #@! TF.CreationDate,2025-01-20T09:17:46-05:00
; #@! TF.GenerationSoftware,Kicad,Pcbnew,8.0.8
; #@! TF.FileFunction,Plated,1,2,PTH
FMAT,2
METRIC
; #@! TA.AperFunction,Plated,PTH,ViaDrill
T1C0.300
; #@! TA.AperFunction,Plated,PTH,ComponentDrill
T2C0.700
; #@! TA.AperFunction,Plated,PTH,ViaDrill
T3C0.750
; #@! TA.AperFunction,Plated,PTH,ComponentDrill
T4C0.750
; #@! TA.AperFunction,Plated,PTH,ComponentDrill
T5C0.800
; #@! TA.AperFunction,Plated,PTH,ComponentDrill
T6C1.000
; #@! TA.AperFunction,Plated,PTH,ComponentDrill
T7C2.700
%
G90
G05
T1
X20.9Y-88.4
X21.0Y-84.7
X21.2Y-74.8
X21.4Y-28.5
X21.598Y-36.093
X21.6Y-104.6
X22.2Y-68.8
X22.5Y-95.9
X23.074Y-42.056
X24.2Y-72.1
X24.279Y-89.745
X24.553Y-66.772
X25.9Y-62.2
X26.078Y-90.968
X26.773Y-92.985
X26.8Y-68.8
X27.0Y-44.9
X28.83Y-92.329
X29.2Y-35.1
X29.2Y-40.7
X29.2Y-95.4
X29.606Y-103.779
X29.886Y-28.729
X30.291Y-89.666
X30.44Y-91.415
X31.078Y-75.665
X31.1Y-94.4
X31.3Y-97.7
X31.6Y-80.5
X31.7Y-84.0
X31.8Y-45.1
X31.8Y-67.1
X31.885Y-51.424
X32.4Y-53.1
X32.7Y-38.6
X32.982Y-104.137
X33.234Y-71.381
X33.7Y-96.1
X33.9Y-98.0
X34.8Y-90.8
X35.4Y-62.7
X35.6Y-57.2
X36.0Y-52.4
X36.4Y-28.7
X36.6Y-43.3
X36.898Y-84.037
X37.1Y-80.9
X37.5Y-95.0
X37.579Y-92.012
X37.756Y-75.993
X37.776Y-54.109
X37.999Y-62.792
X38.1Y-35.3
X38.985Y-90.296
X39.5Y-66.7
X39.8Y-64.3
X40.0Y-95.2
X40.1Y-62.8
X40.2Y-31.5
X40.294Y-104.047
X40.4Y-93.1
X40.9Y-70.9
X41.2Y-100.0
X41.5Y-40.2
X41.611Y-36.819
X41.9Y-50.4
X41.9Y-61.8
X42.173Y-56.574
X42.2Y-95.0
X42.8Y-51.6
X43.2Y-90.9
X43.6Y-99.9
X44.2Y-81.0
X44.277Y-83.769
X44.3Y-76.4
X44.4Y-58.4
X45.017Y-28.699
X45.3Y-66.6
X45.446Y-31.294
X45.6Y-90.5
X46.2Y-53.0
X46.8Y-61.7
X48.031Y-70.618
X48.3Y-49.8
X48.5Y-55.3
X48.7Y-100.1
X48.814Y-104.114
X48.9Y-91.1
X48.914Y-57.997
X49.0Y-76.0
X49.8Y-83.9
X49.8Y-94.4
X49.837Y-80.892
X49.862Y-38.899
X50.7Y-52.3
X51.8Y-55.8
X52.0Y-53.4
X52.7Y-91.552
X52.9Y-56.7
X53.0Y-45.6
X53.193Y-39.327
X53.3Y-50.0
X53.378Y-96.591
X53.406Y-71.007
X53.5Y-65.8
X53.5Y-76.5
X53.7Y-53.0
X53.865Y-98.906
X53.9Y-35.4
X54.42Y-31.572
X54.6Y-59.4
X54.8Y-41.9
X55.802Y-93.311
X55.81Y-28.804
X56.0Y-53.7
X56.831Y-36.318
X57.224Y-89.823
X57.5Y-56.3
X57.6Y-84.2
X57.622Y-76.018
X57.7Y-103.8
X57.71Y-43.952
X58.17Y-81.19
X58.197Y-98.757
X58.2Y-65.9
X58.487Y-72.008
X58.6Y-49.9
X58.845Y-62.795
X59.097Y-37.781
X59.311Y-88.501
X59.7Y-95.0
X61.095Y-52.991
X62.855Y-62.78
X62.928Y-98.628
X63.3Y-45.3
X63.5Y-67.1
X63.5Y-70.8
X63.5Y-91.4
X63.543Y-28.178
X63.6Y-55.3
X63.664Y-104.125
X63.809Y-74.348
X63.9Y-94.7
X64.002Y-57.995
X65.2Y-99.6
X65.229Y-46.443
X65.312Y-31.304
X65.441Y-40.719
X65.8Y-52.2
X66.6Y-58.3
X66.6Y-63.6
X66.7Y-68.7
X66.7Y-75.8
X67.1Y-91.9
X67.395Y-36.392
X67.5Y-54.0
X67.778Y-96.044
X70.0Y-41.4
X70.1Y-104.3
X70.246Y-51.364
X70.4Y-97.2
X70.6Y-65.6
X70.7Y-46.2
X71.1Y-81.2
X71.706Y-84.589
X72.0Y-70.9
X72.2Y-28.4
X72.323Y-55.985
X72.5Y-76.3
X73.1Y-52.5
X73.1Y-95.4
X74.5Y-92.8
X74.8Y-91.1
X75.1Y-39.7
X75.4Y-45.6
X75.5Y-54.2
X75.6Y-52.4
X75.6Y-56.3
X75.8Y-36.1
X76.006Y-31.423
X76.3Y-95.0
X77.0Y-92.7
X77.0Y-99.2
X77.514Y-90.996
X77.7Y-52.0
X77.7Y-56.8
X77.7Y-65.4
X78.4Y-70.9
X79.0Y-81.0
X79.294Y-76.16
X79.3Y-28.4
X79.4Y-95.2
X79.532Y-84.052
X80.0Y-91.0
X80.1Y-37.4
X80.2Y-58.4
X80.252Y-103.891
X80.299Y-41.311
X81.0Y-55.6
X81.1Y-50.0
X81.1Y-52.0
X82.0Y-99.2
X82.1Y-36.1
X82.2Y-90.8
X82.7Y-95.4
X82.9Y-52.6
X83.05Y-66.746
X83.2Y-45.7
X83.3Y-59.1
X83.6Y-71.5
X83.8Y-50.0
X84.275Y-40.079
X84.5Y-94.1
X84.645Y-83.888
X84.8Y-53.5
X84.929Y-76.093
X85.107Y-80.996
X85.2Y-55.542
X86.0Y-91.2
X86.18Y-51.199
X86.272Y-37.058
X86.7Y-58.3
X86.797Y-93.991
X87.1Y-42.8
X87.6Y-102.4
X87.7Y-91.9
X88.0Y-30.6
X89.363Y-39.552
X89.492Y-45.934
X89.8Y-65.8
X89.899Y-36.69
X90.111Y-50.901
X90.7Y-59.3
X90.974Y-96.843
X91.1Y-88.8
X91.301Y-71.911
X91.4Y-103.5
X92.009Y-83.993
X92.4Y-81.0
X92.6Y-92.8
X92.665Y-76.383
X93.598Y-98.055
X93.783Y-59.524
X94.0Y-43.9
X94.656Y-50.431
X94.892Y-38.397
X95.59Y-58.183
X96.032Y-28.379
X96.3Y-47.2
X96.4Y-61.4
X96.4Y-96.9
X96.5Y-41.7
X96.8Y-85.7
X96.936Y-52.279
X97.495Y-65.091
X97.671Y-36.284
X97.764Y-51.496
X97.942Y-69.608
X98.658Y-50.445
X99.0Y-49.0
X99.078Y-59.796
X99.1Y-47.4
X99.374Y-45.414
X99.8Y-43.7
X101.2Y-52.8
X101.2Y-59.3
X101.3Y-86.4
X102.079Y-56.617
X102.191Y-61.447
X102.273Y-92.625
X102.394Y-51.915
X102.549Y-67.35
X102.6Y-46.1
X102.6Y-96.2
X102.616Y-53.397
X102.7Y-44.2
X102.7Y-48.1
X102.7Y-50.6
X103.2Y-28.6
X103.4Y-36.2
X103.5Y-72.5
X103.5Y-104.4
X103.7Y-78.7
X103.7Y-89.2
X103.898Y-84.351
T2
X44.75Y-35.71
X44.75Y-37.71
X44.75Y-39.71
X46.75Y-35.71
X46.75Y-37.71
X46.75Y-39.71
T3
X22.8Y-56.5
X23.1Y-44.4
T4
X38.13Y-45.45
X40.67Y-45.45
X43.21Y-45.45
X45.75Y-45.45
X48.29Y-45.45
T5
X27.29Y-78.125
X27.29Y-80.625
X27.29Y-85.275
X27.29Y-87.775
X31.78Y-33.26
X31.78Y-48.5
X34.32Y-33.26
X34.32Y-35.8
X34.32Y-48.5
X36.86Y-33.26
X36.86Y-48.5
X39.4Y-33.26
X39.4Y-48.5
X41.94Y-33.26
X41.94Y-48.5
X44.48Y-33.26
X44.48Y-48.5
X47.02Y-33.26
X47.02Y-48.5
X49.56Y-33.26
X49.56Y-48.5
X52.1Y-33.26
X52.1Y-48.5
X54.64Y-33.26
X54.64Y-48.5
X56.375Y-62.775
X56.375Y-67.855
X57.18Y-33.26
X57.18Y-48.5
X59.72Y-33.26
X59.72Y-48.5
X62.26Y-33.26
X62.26Y-48.5
X63.29Y-78.125
X63.29Y-80.625
X63.29Y-85.275
X63.29Y-87.775
X64.8Y-33.26
X64.8Y-48.5
X67.34Y-33.26
X67.34Y-48.5
X69.88Y-33.26
X69.88Y-48.5
X72.42Y-33.26
X72.42Y-48.5
X74.96Y-33.26
X74.96Y-48.5
X77.5Y-33.26
X77.5Y-35.8
X77.5Y-38.34
X77.5Y-40.88
X77.5Y-43.42
X77.5Y-45.96
X77.5Y-48.5
X80.04Y-33.26
X80.04Y-48.5
X82.58Y-33.26
X82.58Y-48.5
X85.12Y-33.26
X85.12Y-48.5
X87.66Y-33.26
X87.66Y-48.5
X90.2Y-33.26
X90.2Y-48.5
X91.875Y-63.165
X91.875Y-68.245
T6
X22.4Y-63.775
X22.5Y-59.725
X23.175Y-38.525
X26.925Y-38.525
X32.928Y-60.24
X32.928Y-88.16
X35.3Y-93.8
X35.468Y-60.24
X35.468Y-88.16
X37.325Y-97.625
X38.008Y-60.24
X38.008Y-88.16
X39.865Y-97.625
X40.547Y-60.24
X40.547Y-88.16
X42.405Y-97.625
X43.087Y-60.24
X43.087Y-88.16
X44.3Y-93.3
X44.945Y-97.625
X45.627Y-60.24
X45.627Y-88.16
X47.485Y-97.625
X48.167Y-60.24
X48.167Y-88.16
X50.025Y-97.625
X50.707Y-60.24
X50.707Y-88.16
X50.718Y-62.78
X50.718Y-65.32
X69.377Y-60.64
X69.377Y-88.56
X71.4Y-93.6
X71.917Y-60.64
X71.917Y-88.56
X73.225Y-97.525
X74.457Y-60.64
X74.457Y-88.56
X75.765Y-97.525
X76.998Y-60.64
X76.998Y-88.56
X78.305Y-97.525
X79.537Y-60.64
X79.537Y-88.56
X80.845Y-97.525
X81.5Y-93.4
X82.078Y-60.64
X82.078Y-88.56
X83.385Y-97.525
X84.617Y-60.64
X84.617Y-88.56
X85.925Y-97.525
X87.157Y-60.64
X87.157Y-88.56
X87.167Y-63.18
X87.167Y-65.72
X93.8Y-30.4
X93.8Y-34.425
X99.225Y-88.825
X99.225Y-93.075
T7
X99.485Y-76.575
X99.485Y-81.575
M30
