G04 #@! TF.GenerationSoftware,KiCad,Pcbnew,8.0.8*
G04 #@! TF.CreationDate,2025-01-21T18:10:11-05:00*
G04 #@! TF.ProjectId,mechanumDriveTrain,6d656368-616e-4756-9d44-726976655472,rev?*
G04 #@! TF.SameCoordinates,Original*
G04 #@! TF.FileFunction,Soldermask,Top*
G04 #@! TF.FilePolarity,Negative*
%FSLAX46Y46*%
G04 Gerber Fmt 4.6, Leading zero omitted, Abs format (unit mm)*
G04 Created by KiCad (PCBNEW 8.0.8) date 2025-01-21 18:10:11*
%MOMM*%
%LPD*%
G01*
G04 APERTURE LIST*
G04 Aperture macros list*
%AMRoundRect*
0 Rectangle with rounded corners*
0 $1 Rounding radius*
0 $2 $3 $4 $5 $6 $7 $8 $9 X,Y pos of 4 corners*
0 Add a 4 corners polygon primitive as box body*
4,1,4,$2,$3,$4,$5,$6,$7,$8,$9,$2,$3,0*
0 Add four circle primitives for the rounded corners*
1,1,$1+$1,$2,$3*
1,1,$1+$1,$4,$5*
1,1,$1+$1,$6,$7*
1,1,$1+$1,$8,$9*
0 Add four rect primitives between the rounded corners*
20,1,$1+$1,$2,$3,$4,$5,0*
20,1,$1+$1,$4,$5,$6,$7,0*
20,1,$1+$1,$6,$7,$8,$9,0*
20,1,$1+$1,$8,$9,$2,$3,0*%
G04 Aperture macros list end*
%ADD10RoundRect,0.250000X-0.350000X-0.450000X0.350000X-0.450000X0.350000X0.450000X-0.350000X0.450000X0*%
%ADD11C,2.000000*%
%ADD12C,4.300000*%
%ADD13C,1.600000*%
%ADD14O,1.600000X1.600000*%
%ADD15R,1.600000X1.600000*%
%ADD16R,1.700000X1.700000*%
%ADD17O,1.700000X1.700000*%
%ADD18R,3.800000X3.800000*%
%ADD19C,3.800000*%
%ADD20RoundRect,0.250000X0.350000X0.450000X-0.350000X0.450000X-0.350000X-0.450000X0.350000X-0.450000X0*%
%ADD21RoundRect,0.150000X-0.150000X-0.625000X0.150000X-0.625000X0.150000X0.625000X-0.150000X0.625000X0*%
%ADD22RoundRect,0.250000X-0.350000X-0.650000X0.350000X-0.650000X0.350000X0.650000X-0.350000X0.650000X0*%
%ADD23RoundRect,0.250000X0.475000X-0.337500X0.475000X0.337500X-0.475000X0.337500X-0.475000X-0.337500X0*%
%ADD24RoundRect,0.150000X-0.825000X-0.150000X0.825000X-0.150000X0.825000X0.150000X-0.825000X0.150000X0*%
%ADD25RoundRect,0.375000X0.375000X-0.625000X0.375000X0.625000X-0.375000X0.625000X-0.375000X-0.625000X0*%
%ADD26RoundRect,0.500000X1.400000X-0.500000X1.400000X0.500000X-1.400000X0.500000X-1.400000X-0.500000X0*%
%ADD27RoundRect,0.250000X0.337500X0.475000X-0.337500X0.475000X-0.337500X-0.475000X0.337500X-0.475000X0*%
%ADD28RoundRect,0.250000X-0.337500X-0.475000X0.337500X-0.475000X0.337500X0.475000X-0.337500X0.475000X0*%
%ADD29C,1.512000*%
%ADD30C,1.462000*%
%ADD31C,1.412000*%
G04 APERTURE END LIST*
D10*
X97200000Y-54100000D03*
X99200000Y-54100000D03*
D11*
X24000000Y-64000000D03*
D10*
X83100000Y-30500000D03*
X85100000Y-30500000D03*
D12*
X100000000Y-101000000D03*
D13*
X56375000Y-67855000D03*
D14*
X56375000Y-62775000D03*
D11*
X44300000Y-93300000D03*
X93800000Y-34425000D03*
D15*
X27290000Y-80625000D03*
D13*
X27290000Y-78125000D03*
D11*
X99225000Y-88825000D03*
D16*
X37325000Y-97625000D03*
D17*
X39865000Y-97625000D03*
X42405000Y-97625000D03*
X44945000Y-97625000D03*
X47485000Y-97625000D03*
X50025000Y-97625000D03*
D12*
X25000000Y-32000000D03*
D16*
X73225000Y-97525000D03*
D17*
X75765000Y-97525000D03*
X78305000Y-97525000D03*
X80845000Y-97525000D03*
X83385000Y-97525000D03*
X85925000Y-97525000D03*
D11*
X35300000Y-93800000D03*
D18*
X99485000Y-81575000D03*
D19*
X99485000Y-76575000D03*
D11*
X26925000Y-38525000D03*
D15*
X63290000Y-80625000D03*
D13*
X63290000Y-78125000D03*
D20*
X56650000Y-51250000D03*
X54650000Y-51250000D03*
D21*
X100775000Y-41790000D03*
X101775000Y-41790000D03*
D22*
X99475000Y-39265000D03*
X103075000Y-39265000D03*
D16*
X87157500Y-60640000D03*
X87157500Y-88560000D03*
D17*
X84617500Y-88560000D03*
X84617500Y-60640000D03*
X82077500Y-60640000D03*
X79537500Y-60640000D03*
X76997500Y-60640000D03*
X74457500Y-60640000D03*
X71917500Y-60640000D03*
X69377500Y-60640000D03*
X82077500Y-88560000D03*
X79537500Y-88560000D03*
X76997500Y-88560000D03*
X74457500Y-88560000D03*
X71917500Y-88560000D03*
X69377500Y-88560000D03*
D16*
X87167500Y-63180000D03*
D17*
X87167500Y-65720000D03*
D23*
X86545000Y-55542500D03*
X86545000Y-53467500D03*
D11*
X93800000Y-30400000D03*
D12*
X100000000Y-32000000D03*
D24*
X89440000Y-53020000D03*
X89440000Y-54290000D03*
X89440000Y-55560000D03*
X89440000Y-56830000D03*
X94390000Y-56830000D03*
X94390000Y-55560000D03*
X94390000Y-54290000D03*
X94390000Y-53020000D03*
D12*
X25000000Y-101000000D03*
D15*
X27290000Y-85275000D03*
D13*
X27290000Y-87775000D03*
D25*
X22800000Y-54615000D03*
X25100000Y-54615000D03*
D26*
X25100000Y-48315000D03*
D25*
X27400000Y-54615000D03*
D27*
X25132500Y-45885000D03*
X23057500Y-45885000D03*
D20*
X99200000Y-56000000D03*
X97200000Y-56000000D03*
D11*
X24000000Y-59725000D03*
X99225000Y-93075000D03*
D15*
X63290000Y-85275000D03*
D13*
X63290000Y-87775000D03*
D11*
X81500000Y-93400000D03*
D27*
X99237500Y-58000000D03*
X97162500Y-58000000D03*
D16*
X50707500Y-60240000D03*
X50707500Y-88160000D03*
D17*
X48167500Y-88160000D03*
X48167500Y-60240000D03*
X45627500Y-60240000D03*
X43087500Y-60240000D03*
X40547500Y-60240000D03*
X38007500Y-60240000D03*
X35467500Y-60240000D03*
X32927500Y-60240000D03*
X45627500Y-88160000D03*
X43087500Y-88160000D03*
X40547500Y-88160000D03*
X38007500Y-88160000D03*
X35467500Y-88160000D03*
X32927500Y-88160000D03*
D16*
X50717500Y-62780000D03*
D17*
X50717500Y-65320000D03*
D28*
X31767500Y-30605000D03*
X33842500Y-30605000D03*
D11*
X23175000Y-38525000D03*
D29*
X34320000Y-48500000D03*
X36860000Y-48500000D03*
X39400000Y-48500000D03*
X41940000Y-48500000D03*
X36860000Y-33260000D03*
X67340000Y-48500000D03*
X77500000Y-43420000D03*
X44480000Y-48500000D03*
X47020000Y-48500000D03*
D30*
X38130000Y-45450000D03*
D29*
X49560000Y-48500000D03*
X52100000Y-48500000D03*
X54640000Y-48500000D03*
X57180000Y-48500000D03*
X59720000Y-48500000D03*
X62260000Y-48500000D03*
X64800000Y-48500000D03*
X64800000Y-33260000D03*
X62260000Y-33260000D03*
X59720000Y-33260000D03*
X57180000Y-33260000D03*
X54640000Y-33260000D03*
X52100000Y-33260000D03*
X49560000Y-33260000D03*
X47020000Y-33260000D03*
X44480000Y-33260000D03*
X41940000Y-33260000D03*
X39400000Y-33260000D03*
X69880000Y-48500000D03*
X72420000Y-48500000D03*
X74960000Y-48500000D03*
X77500000Y-48500000D03*
X80040000Y-48500000D03*
X82580000Y-48500000D03*
X85120000Y-48500000D03*
X87660000Y-48500000D03*
X90200000Y-48500000D03*
X90200000Y-33260000D03*
X87660000Y-33260000D03*
X85120000Y-33260000D03*
X82580000Y-33260000D03*
X80040000Y-33260000D03*
X77500000Y-33260000D03*
X74960000Y-33260000D03*
X72420000Y-33260000D03*
X69880000Y-33260000D03*
D30*
X43210000Y-45450000D03*
X40670000Y-45450000D03*
D29*
X31780000Y-48500000D03*
X34320000Y-33260000D03*
D31*
X46750000Y-37710000D03*
D29*
X67340000Y-33260000D03*
X77500000Y-40880000D03*
D31*
X44750000Y-37710000D03*
D29*
X77500000Y-35800000D03*
X77500000Y-38340000D03*
D31*
X44750000Y-35710000D03*
X46750000Y-35710000D03*
X46750000Y-39710000D03*
X44750000Y-39710000D03*
D30*
X45750000Y-45450000D03*
X48290000Y-45450000D03*
D29*
X77500000Y-45960000D03*
X31780000Y-33260000D03*
X34320000Y-35800000D03*
D23*
X29805000Y-54632500D03*
X29805000Y-52557500D03*
D11*
X71400000Y-93600000D03*
D13*
X91875000Y-68245000D03*
D14*
X91875000Y-63165000D03*
M02*
