M48
; DRILL file {KiCad 8.0.2-1} date 2024-05-18T17:45:08-0500
; FORMAT={-:-/ absolute / metric / decimal}
; #@! TF.CreationDate,2024-05-18T17:45:08-05:00
; #@! TF.GenerationSoftware,Kicad,Pcbnew,8.0.2-1
; #@! TF.FileFunction,Plated,1,4,PTH
FMAT,2
METRIC
; #@! TA.AperFunction,Plated,PTH,ViaDrill
T1C0.300
; #@! TA.AperFunction,Plated,PTH,ComponentDrill
T2C0.500
; #@! TA.AperFunction,Plated,PTH,ComponentDrill
T3C1.000
; #@! TA.AperFunction,Plated,PTH,ComponentDrill
T4C1.100
%
G90
G05
T1
X37.625Y-30.175
X38.1Y-38.525
X38.275Y-23.3
X38.575Y-50.45
X38.6Y-41.825
X39.25Y-34.875
X39.8Y-32.625
X40.525Y-36.75
X40.85Y-30.675
X41.175Y-42.3
X41.175Y-49.55
X42.55Y-23.875
X43.125Y-35.05
X43.2Y-31.975
X43.525Y-38.525
X44.9Y-36.25
X44.975Y-24.2
X45.3Y-33.75
X45.925Y-40.55
X47.25Y-41.675
X47.275Y-39.775
X51.7Y-50.85
X52.2Y-53.825
X52.3Y-26.325
X52.425Y-40.45
X53.0Y-34.55
X53.175Y-25.225
X53.225Y-36.9
X53.4Y-53.725
X53.975Y-46.375
X54.075Y-26.525
X54.375Y-39.225
X54.525Y-31.275
X54.525Y-34.55
X54.625Y-43.15
X55.75Y-37.15
X56.35Y-42.775
X56.525Y-40.9
X58.425Y-23.8
X58.675Y-22.575
X59.075Y-42.35
X59.7Y-24.725
X60.425Y-41.2
X60.45Y-43.35
X60.525Y-31.325
X60.75Y-46.15
T2
X38.75Y-26.928
X39.75Y-26.928
X40.75Y-26.928
X41.75Y-26.928
X42.75Y-26.928
X43.75Y-26.928
X44.75Y-26.928
X45.75Y-26.928
T3
X37.17Y-45.19
X37.17Y-47.73
X39.71Y-45.19
X39.71Y-47.73
X40.98Y-21.06
X42.25Y-45.19
X42.25Y-47.73
X43.52Y-21.06
X44.79Y-45.19
X44.79Y-47.73
X47.33Y-45.19
X47.33Y-47.73
X52.9Y-18.95
X55.44Y-18.95
X57.98Y-18.95
X60.52Y-18.95
T4
X34.63Y-19.79
X34.63Y-22.33
X34.63Y-24.87
X34.63Y-27.41
X34.63Y-29.95
X34.63Y-32.49
X34.63Y-35.03
X34.63Y-37.57
X34.63Y-40.11
X34.63Y-42.65
X34.63Y-45.19
X34.63Y-47.73
X34.63Y-50.27
X34.63Y-52.81
X37.17Y-52.81
X39.71Y-52.81
X42.25Y-52.81
X44.79Y-52.81
X47.33Y-22.33
X47.33Y-52.81
X49.87Y-19.79
X49.87Y-22.33
X49.87Y-24.87
X49.87Y-27.41
X49.87Y-29.95
X49.87Y-32.49
X49.87Y-35.03
X49.87Y-37.57
X49.87Y-40.11
X49.87Y-42.65
X49.87Y-45.19
X49.87Y-47.73
X49.87Y-50.27
X49.87Y-52.81
M30
