%TF.GenerationSoftware,KiCad,Pcbnew,8.0.2-1*%
%TF.CreationDate,2024-05-18T17:45:13-05:00*%
%TF.ProjectId,can_test,63616e5f-7465-4737-942e-6b696361645f,rev?*%
%TF.SameCoordinates,Original*%
%TF.FileFunction,Drillmap*%
%TF.FilePolarity,Positive*%
%FSLAX45Y45*%
G04 Gerber Fmt 4.5, Leading zero omitted, Abs format (unit mm)*
G04 Created by KiCad (PCBNEW 8.0.2-1) date 2024-05-18 17:45:13*
%MOMM*%
%LPD*%
G01*
G04 APERTURE LIST*
%ADD10C,0.050000*%
%ADD11C,0.200000*%
G04 APERTURE END LIST*
D10*
X3210000Y-1590000D02*
X6275000Y-1590000D01*
X6275000Y-5650000D01*
X3210000Y-5650000D01*
X3210000Y-1590000D01*
D11*
X3468277Y-5963984D02*
X3468277Y-5763984D01*
X3468277Y-5763984D02*
X3515896Y-5763984D01*
X3515896Y-5763984D02*
X3544467Y-5773508D01*
X3544467Y-5773508D02*
X3563515Y-5792555D01*
X3563515Y-5792555D02*
X3573039Y-5811603D01*
X3573039Y-5811603D02*
X3582562Y-5849698D01*
X3582562Y-5849698D02*
X3582562Y-5878269D01*
X3582562Y-5878269D02*
X3573039Y-5916365D01*
X3573039Y-5916365D02*
X3563515Y-5935412D01*
X3563515Y-5935412D02*
X3544467Y-5954460D01*
X3544467Y-5954460D02*
X3515896Y-5963984D01*
X3515896Y-5963984D02*
X3468277Y-5963984D01*
X3668277Y-5963984D02*
X3668277Y-5830650D01*
X3668277Y-5868746D02*
X3677801Y-5849698D01*
X3677801Y-5849698D02*
X3687324Y-5840174D01*
X3687324Y-5840174D02*
X3706372Y-5830650D01*
X3706372Y-5830650D02*
X3725420Y-5830650D01*
X3792086Y-5963984D02*
X3792086Y-5830650D01*
X3792086Y-5763984D02*
X3782562Y-5773508D01*
X3782562Y-5773508D02*
X3792086Y-5783031D01*
X3792086Y-5783031D02*
X3801610Y-5773508D01*
X3801610Y-5773508D02*
X3792086Y-5763984D01*
X3792086Y-5763984D02*
X3792086Y-5783031D01*
X3915896Y-5963984D02*
X3896848Y-5954460D01*
X3896848Y-5954460D02*
X3887324Y-5935412D01*
X3887324Y-5935412D02*
X3887324Y-5763984D01*
X4020658Y-5963984D02*
X4001610Y-5954460D01*
X4001610Y-5954460D02*
X3992086Y-5935412D01*
X3992086Y-5935412D02*
X3992086Y-5763984D01*
X4249229Y-5963984D02*
X4249229Y-5763984D01*
X4249229Y-5763984D02*
X4315896Y-5906841D01*
X4315896Y-5906841D02*
X4382563Y-5763984D01*
X4382563Y-5763984D02*
X4382563Y-5963984D01*
X4563515Y-5963984D02*
X4563515Y-5859222D01*
X4563515Y-5859222D02*
X4553991Y-5840174D01*
X4553991Y-5840174D02*
X4534944Y-5830650D01*
X4534944Y-5830650D02*
X4496848Y-5830650D01*
X4496848Y-5830650D02*
X4477801Y-5840174D01*
X4563515Y-5954460D02*
X4544467Y-5963984D01*
X4544467Y-5963984D02*
X4496848Y-5963984D01*
X4496848Y-5963984D02*
X4477801Y-5954460D01*
X4477801Y-5954460D02*
X4468277Y-5935412D01*
X4468277Y-5935412D02*
X4468277Y-5916365D01*
X4468277Y-5916365D02*
X4477801Y-5897317D01*
X4477801Y-5897317D02*
X4496848Y-5887793D01*
X4496848Y-5887793D02*
X4544467Y-5887793D01*
X4544467Y-5887793D02*
X4563515Y-5878269D01*
X4658753Y-5830650D02*
X4658753Y-6030650D01*
X4658753Y-5840174D02*
X4677801Y-5830650D01*
X4677801Y-5830650D02*
X4715896Y-5830650D01*
X4715896Y-5830650D02*
X4734944Y-5840174D01*
X4734944Y-5840174D02*
X4744467Y-5849698D01*
X4744467Y-5849698D02*
X4753991Y-5868746D01*
X4753991Y-5868746D02*
X4753991Y-5925888D01*
X4753991Y-5925888D02*
X4744467Y-5944936D01*
X4744467Y-5944936D02*
X4734944Y-5954460D01*
X4734944Y-5954460D02*
X4715896Y-5963984D01*
X4715896Y-5963984D02*
X4677801Y-5963984D01*
X4677801Y-5963984D02*
X4658753Y-5954460D01*
X4839705Y-5944936D02*
X4849229Y-5954460D01*
X4849229Y-5954460D02*
X4839705Y-5963984D01*
X4839705Y-5963984D02*
X4830182Y-5954460D01*
X4830182Y-5954460D02*
X4839705Y-5944936D01*
X4839705Y-5944936D02*
X4839705Y-5963984D01*
X4839705Y-5840174D02*
X4849229Y-5849698D01*
X4849229Y-5849698D02*
X4839705Y-5859222D01*
X4839705Y-5859222D02*
X4830182Y-5849698D01*
X4830182Y-5849698D02*
X4839705Y-5840174D01*
X4839705Y-5840174D02*
X4839705Y-5859222D01*
M02*
