%TF.GenerationSoftware,KiCad,Pcbnew,8.0.5+1*%
%TF.CreationDate,2024-10-17T19:04:23-04:00*%
%TF.ProjectId,mainBoard,6d61696e-426f-4617-9264-2e6b69636164,rev?*%
%TF.SameCoordinates,Original*%
%TF.FileFunction,Copper,L4,Bot*%
%TF.FilePolarity,Positive*%
%FSLAX46Y46*%
G04 Gerber Fmt 4.6, Leading zero omitted, Abs format (unit mm)*
G04 Created by KiCad (PCBNEW 8.0.5+1) date 2024-10-17 19:04:23*
%MOMM*%
%LPD*%
G01*
G04 APERTURE LIST*
G04 Aperture macros list*
%AMRoundRect*
0 Rectangle with rounded corners*
0 $1 Rounding radius*
0 $2 $3 $4 $5 $6 $7 $8 $9 X,Y pos of 4 corners*
0 Add a 4 corners polygon primitive as box body*
4,1,4,$2,$3,$4,$5,$6,$7,$8,$9,$2,$3,0*
0 Add four circle primitives for the rounded corners*
1,1,$1+$1,$2,$3*
1,1,$1+$1,$4,$5*
1,1,$1+$1,$6,$7*
1,1,$1+$1,$8,$9*
0 Add four rect primitives between the rounded corners*
20,1,$1+$1,$2,$3,$4,$5,0*
20,1,$1+$1,$4,$5,$6,$7,0*
20,1,$1+$1,$6,$7,$8,$9,0*
20,1,$1+$1,$8,$9,$2,$3,0*%
G04 Aperture macros list end*
%TA.AperFunction,ComponentPad*%
%ADD10O,2.000000X4.000000*%
%TD*%
%TA.AperFunction,ComponentPad*%
%ADD11O,4.000000X2.000000*%
%TD*%
%TA.AperFunction,ComponentPad*%
%ADD12R,4.500000X2.000000*%
%TD*%
%TA.AperFunction,ComponentPad*%
%ADD13RoundRect,0.250000X0.625000X-0.350000X0.625000X0.350000X-0.625000X0.350000X-0.625000X-0.350000X0*%
%TD*%
%TA.AperFunction,ComponentPad*%
%ADD14O,1.750000X1.200000*%
%TD*%
%TA.AperFunction,ComponentPad*%
%ADD15C,4.100000*%
%TD*%
%TA.AperFunction,ComponentPad*%
%ADD16RoundRect,1.025000X-1.025000X-1.025000X1.025000X-1.025000X1.025000X1.025000X-1.025000X1.025000X0*%
%TD*%
%TA.AperFunction,ComponentPad*%
%ADD17R,0.900000X2.000000*%
%TD*%
%TA.AperFunction,ComponentPad*%
%ADD18C,3.500000*%
%TD*%
%TA.AperFunction,ComponentPad*%
%ADD19R,3.500000X3.500000*%
%TD*%
%TA.AperFunction,ComponentPad*%
%ADD20C,1.400000*%
%TD*%
%TA.AperFunction,ComponentPad*%
%ADD21R,3.800000X3.800000*%
%TD*%
%TA.AperFunction,ComponentPad*%
%ADD22C,3.800000*%
%TD*%
%TA.AperFunction,ComponentPad*%
%ADD23R,1.700000X1.700000*%
%TD*%
%TA.AperFunction,ComponentPad*%
%ADD24O,1.700000X1.700000*%
%TD*%
%TA.AperFunction,ViaPad*%
%ADD25C,0.800000*%
%TD*%
%TA.AperFunction,ViaPad*%
%ADD26C,1.000000*%
%TD*%
%TA.AperFunction,ViaPad*%
%ADD27C,0.600000*%
%TD*%
%TA.AperFunction,ViaPad*%
%ADD28C,1.500000*%
%TD*%
%TA.AperFunction,Conductor*%
%ADD29C,0.200000*%
%TD*%
%TA.AperFunction,Conductor*%
%ADD30C,0.600000*%
%TD*%
G04 APERTURE END LIST*
D10*
%TO.P,J5,3*%
%TO.N,N/C*%
X38375000Y-30895000D03*
D11*
%TO.P,J5,2*%
%TO.N,GND*%
X43075000Y-27895000D03*
D12*
%TO.P,J5,1*%
%TO.N,+12V*%
X43075000Y-34095000D03*
%TD*%
D13*
%TO.P,J21,1,Pin_1*%
%TO.N,+5V*%
X121246571Y-33355001D03*
D14*
%TO.P,J21,2,Pin_2*%
%TO.N,GND*%
X121246571Y-31355001D03*
%TD*%
D15*
%TO.P,J2,2,Pin_2*%
%TO.N,GND*%
X77995000Y-36575000D03*
D16*
%TO.P,J2,1,Pin_1*%
%TO.N,+12V*%
X70795000Y-36575000D03*
D17*
%TO.P,J2,*%
%TO.N,*%
X81145000Y-30575000D03*
X67645000Y-30575000D03*
%TD*%
D18*
%TO.P,J4,2,Pin_2*%
%TO.N,GND*%
X88195000Y-33375000D03*
D19*
%TO.P,J4,1,Pin_1*%
%TO.N,+3V3*%
X93195000Y-33375000D03*
D20*
%TO.P,J4,*%
%TO.N,*%
X96195000Y-23375000D03*
X85195000Y-23375000D03*
%TD*%
D18*
%TO.P,J3,2,Pin_2*%
%TO.N,GND*%
X102745000Y-33375000D03*
D19*
%TO.P,J3,1,Pin_1*%
%TO.N,+5V*%
X107745000Y-33375000D03*
D20*
%TO.P,J3,*%
%TO.N,*%
X110745000Y-23375000D03*
X99745000Y-23375000D03*
%TD*%
D21*
%TO.P,J11,1,Pin_1*%
%TO.N,+12V*%
X93000000Y-73650000D03*
D22*
%TO.P,J11,2,Pin_2*%
%TO.N,GND*%
X93000000Y-78650000D03*
%TD*%
D23*
%TO.P,J22,1,Pin_1*%
%TO.N,+5V*%
X114775000Y-33375000D03*
D24*
%TO.P,J22,2,Pin_2*%
%TO.N,GND*%
X114775000Y-30835000D03*
%TD*%
D21*
%TO.P,J7,1,Pin_1*%
%TO.N,+12V*%
X53000000Y-73650000D03*
D22*
%TO.P,J7,2,Pin_2*%
%TO.N,GND*%
X53000000Y-78650000D03*
%TD*%
D23*
%TO.P,J23,1,Pin_1*%
%TO.N,unconnected-(J23-Pin_1-Pad1)*%
X36725000Y-44475000D03*
D24*
%TO.P,J23,2,Pin_2*%
%TO.N,unconnected-(J23-Pin_2-Pad2)*%
X36725000Y-41935000D03*
%TO.P,J23,3,Pin_3*%
%TO.N,SDA1*%
X39265000Y-44475000D03*
%TO.P,J23,4,Pin_4*%
%TO.N,unconnected-(J23-Pin_4-Pad4)*%
X39265000Y-41935000D03*
%TO.P,J23,5,Pin_5*%
%TO.N,SCL1*%
X41805000Y-44475000D03*
%TO.P,J23,6,Pin_6*%
%TO.N,GND*%
X41805000Y-41935000D03*
%TO.P,J23,7,Pin_7*%
%TO.N,GPIO_GCLK*%
X44345000Y-44475000D03*
%TO.P,J23,8,Pin_8*%
%TO.N,unconnected-(J23-Pin_8-Pad8)*%
X44345000Y-41935000D03*
%TD*%
D21*
%TO.P,J9,1,Pin_1*%
%TO.N,+12V*%
X73000000Y-73650000D03*
D22*
%TO.P,J9,2,Pin_2*%
%TO.N,GND*%
X73000000Y-78650000D03*
%TD*%
D21*
%TO.P,J10,1,Pin_1*%
%TO.N,+12V*%
X83000000Y-73650000D03*
D22*
%TO.P,J10,2,Pin_2*%
%TO.N,GND*%
X83000000Y-78650000D03*
%TD*%
D21*
%TO.P,J8,1,Pin_1*%
%TO.N,+12V*%
X63000000Y-73650000D03*
D22*
%TO.P,J8,2,Pin_2*%
%TO.N,GND*%
X63000000Y-78650000D03*
%TD*%
D15*
%TO.P,J1,2,Pin_2*%
%TO.N,GND*%
X60445000Y-36575000D03*
D16*
%TO.P,J1,1,Pin_1*%
%TO.N,+12V*%
X53245000Y-36575000D03*
D17*
%TO.P,J1,*%
%TO.N,*%
X63595000Y-30575000D03*
X50095000Y-30575000D03*
%TD*%
D23*
%TO.P,J12,1,Pin_1*%
%TO.N,C_TX*%
X19646571Y-80925001D03*
D24*
%TO.P,J12,2,Pin_2*%
%TO.N,C_RX*%
X22186571Y-80925001D03*
%TO.P,J12,3,Pin_3*%
%TO.N,GND*%
X24726571Y-80925001D03*
%TD*%
D21*
%TO.P,J6,1,Pin_1*%
%TO.N,+12V*%
X103000000Y-73650000D03*
D22*
%TO.P,J6,2,Pin_2*%
%TO.N,GND*%
X103000000Y-78650000D03*
%TD*%
D25*
%TO.N,GND*%
X86585786Y-46914215D03*
X98385786Y-89714215D03*
X108085786Y-92414215D03*
D26*
%TO.N,+12V*%
X73185786Y-60914215D03*
D25*
%TO.N,GND*%
X123985786Y-56114215D03*
X120686474Y-47054167D03*
X123885786Y-58814215D03*
X124085786Y-63114215D03*
X124185786Y-67414215D03*
X123155271Y-72790612D03*
D26*
%TO.N,+12V*%
X88485786Y-69314215D03*
X85217357Y-65792056D03*
X79985786Y-65414215D03*
D27*
%TO.N,GND*%
X24785786Y-62714215D03*
D25*
X113885786Y-47814215D03*
D27*
X23185786Y-35914215D03*
D25*
X110685786Y-54114215D03*
D26*
X117334539Y-42613628D03*
X79017272Y-22666952D03*
D28*
X117785786Y-29714215D03*
D26*
X114252727Y-42520240D03*
D25*
X21050000Y-65950001D03*
D26*
X35627875Y-26009177D03*
D25*
X58285786Y-89664215D03*
D26*
X113385786Y-38514215D03*
D28*
X121185786Y-40414215D03*
D26*
X105085786Y-22514215D03*
X96885786Y-28614215D03*
D25*
X88379519Y-84199694D03*
D26*
X47785786Y-50314215D03*
X83685786Y-32514215D03*
X41885817Y-60610179D03*
X60806561Y-22573563D03*
X19485786Y-29514215D03*
D25*
X87847756Y-78057829D03*
D26*
X46585786Y-57414215D03*
D25*
X112635786Y-79564215D03*
D26*
X76385786Y-29214215D03*
D25*
X111735786Y-90814215D03*
D26*
X97185786Y-61614215D03*
D27*
X30085786Y-48114215D03*
D25*
X28556162Y-92149553D03*
X110685786Y-58814215D03*
X40574009Y-65880453D03*
D27*
X96885786Y-43314215D03*
D26*
X101185786Y-49714215D03*
D25*
X17135786Y-85214215D03*
X40935786Y-88114215D03*
D26*
X43885786Y-21614215D03*
D25*
X45935786Y-88464215D03*
D26*
X86785786Y-42714215D03*
D25*
X97785786Y-81614215D03*
X67826872Y-84199694D03*
D26*
X88660786Y-49864215D03*
D27*
X29485786Y-60914215D03*
D26*
X25085786Y-47514215D03*
D25*
X96685786Y-55814215D03*
X108885786Y-54114215D03*
D26*
X120585786Y-49114215D03*
X87110786Y-51139215D03*
D27*
X22585786Y-30314215D03*
D25*
X35335786Y-77964215D03*
X68435786Y-90014215D03*
X34485786Y-92264215D03*
X21050000Y-34314215D03*
X110685786Y-57414215D03*
X108785786Y-55514215D03*
X106698760Y-79520178D03*
D26*
X35785786Y-46914215D03*
D25*
X115385786Y-47814215D03*
X36735786Y-69264215D03*
X41510786Y-71564215D03*
X21050000Y-50050001D03*
D27*
X96885786Y-40314215D03*
D26*
X31292577Y-41910081D03*
X34788591Y-21602326D03*
X30785786Y-45314215D03*
X100972916Y-55370465D03*
X47136083Y-42761811D03*
X33085786Y-60914215D03*
X106035227Y-28711232D03*
D25*
X120135786Y-80064215D03*
X122935786Y-76614215D03*
X27085786Y-72239215D03*
X46935786Y-79464215D03*
D27*
X38685786Y-47814215D03*
D26*
X30285786Y-39914215D03*
X37685786Y-37714215D03*
X44085786Y-56914215D03*
D25*
X35935786Y-88464215D03*
D26*
X103251590Y-42520240D03*
D25*
X57935786Y-78464215D03*
D27*
X30585786Y-37414215D03*
D26*
X77885786Y-44814215D03*
X68585786Y-22614215D03*
D25*
X34921571Y-51450000D03*
X45572583Y-92096377D03*
D26*
X46385786Y-54414215D03*
D25*
X119248371Y-85529102D03*
D26*
X16885786Y-75814215D03*
X99685786Y-42714215D03*
D25*
X110685786Y-55814215D03*
D26*
X83085786Y-41514215D03*
X87225001Y-60353430D03*
D25*
X47327402Y-83295697D03*
D28*
X102485786Y-58414215D03*
D25*
X77935786Y-78464215D03*
D26*
X85735786Y-52464215D03*
D27*
X96885786Y-42314215D03*
D25*
X36257500Y-59342501D03*
X44735786Y-75214215D03*
D26*
X89085786Y-29014215D03*
X100385786Y-61414215D03*
D25*
X21050000Y-57850001D03*
D26*
X26178193Y-22386787D03*
D25*
X111385786Y-43414215D03*
X113985786Y-49014215D03*
X96585786Y-57014215D03*
X88185786Y-90214215D03*
X34352380Y-82843698D03*
D27*
X43385786Y-53414215D03*
D26*
X29390749Y-21863813D03*
X121885786Y-45014215D03*
X60585786Y-28814215D03*
X30185786Y-32114215D03*
D25*
X108685786Y-57014215D03*
D26*
X71185786Y-28814215D03*
D25*
X28435786Y-88564215D03*
X25635786Y-73264215D03*
D26*
X22885786Y-49314215D03*
X118485786Y-54214215D03*
D28*
X117635001Y-25663430D03*
D25*
X35335786Y-74164215D03*
D26*
X90560061Y-22704307D03*
X111185786Y-27914215D03*
D25*
X115285786Y-49014215D03*
D26*
X28085786Y-47714215D03*
X28085786Y-55714215D03*
D25*
X33035786Y-69664215D03*
D26*
X46985786Y-40314215D03*
X113785786Y-73414215D03*
X35385786Y-28214215D03*
X99185786Y-26814215D03*
X34985786Y-37714215D03*
D25*
X111385786Y-42214215D03*
D28*
X78885786Y-49214215D03*
D26*
X25085786Y-55614215D03*
D25*
X95685786Y-55814215D03*
D26*
X82185786Y-44914215D03*
X37892950Y-61008636D03*
X32885786Y-26114215D03*
X53785786Y-28714215D03*
D25*
X111385786Y-41014215D03*
D26*
X105585786Y-54414215D03*
X31885786Y-28214215D03*
D25*
X95585786Y-57014215D03*
D26*
X85960786Y-49914215D03*
X116985786Y-38114215D03*
D25*
X35734964Y-66013393D03*
X78249430Y-84438987D03*
X41735786Y-79689215D03*
X40387892Y-82923462D03*
D26*
X25685786Y-29414215D03*
X118685786Y-73314215D03*
D28*
X35841571Y-30170000D03*
D25*
X44235786Y-71214215D03*
D26*
X30085786Y-57114215D03*
D25*
X24535786Y-87864215D03*
X45285786Y-49814215D03*
D26*
X23385786Y-33414215D03*
X25685786Y-39614215D03*
D25*
X113319212Y-86114041D03*
D27*
X96885786Y-41314215D03*
D26*
X52685786Y-22414215D03*
X43685786Y-30914215D03*
D25*
X122885786Y-83014215D03*
D26*
X102485786Y-60914215D03*
D25*
X40135786Y-92464215D03*
D26*
X88735786Y-52564215D03*
X25885786Y-25714215D03*
D27*
X29485786Y-45714215D03*
D25*
X27135786Y-75364215D03*
X78135786Y-89864215D03*
X28735786Y-82514215D03*
X21050000Y-42150001D03*
D26*
X116885786Y-21514215D03*
D27*
X29385786Y-53414215D03*
D25*
X18110786Y-78164215D03*
D26*
X101085786Y-46114215D03*
D25*
X58035786Y-83814215D03*
X45485786Y-64664215D03*
X66785786Y-78714215D03*
X116435786Y-77114215D03*
%TO.N,+5V*%
X106285786Y-36714215D03*
X106285786Y-43314215D03*
X107985786Y-37314215D03*
X108085786Y-38714215D03*
X106085786Y-38614215D03*
X107085786Y-39514215D03*
X106185786Y-41314215D03*
D26*
%TO.N,+3V3*%
X91835786Y-36664215D03*
X93585786Y-36714215D03*
X39635786Y-49814215D03*
X91735786Y-38564215D03*
X93485786Y-38464215D03*
X91585786Y-41114215D03*
X91685786Y-43014215D03*
X29785786Y-49595000D03*
D27*
%TO.N,C_TX*%
X27135786Y-74164215D03*
X19635786Y-78564215D03*
D26*
%TO.N,+12V*%
X69185786Y-58314215D03*
X58172491Y-68753927D03*
X97285786Y-66214215D03*
X67785786Y-52614215D03*
X52585786Y-55414215D03*
X49185786Y-71114215D03*
X41385786Y-38014215D03*
X78335786Y-68964215D03*
X103385786Y-67914215D03*
X68885786Y-68914215D03*
X55037522Y-61717098D03*
X64469661Y-45105557D03*
X64485786Y-49014215D03*
X51885786Y-61514215D03*
X44285786Y-38014215D03*
X57835786Y-72814215D03*
X107485786Y-71714215D03*
X71385786Y-51014215D03*
X83285786Y-67714215D03*
X101685786Y-64814215D03*
X47485786Y-37914215D03*
X51085786Y-66414215D03*
X89885786Y-65914215D03*
X64085786Y-57714215D03*
X50585786Y-45814215D03*
X68185786Y-55114215D03*
X69485786Y-65214215D03*
X59185786Y-47114215D03*
X71285786Y-47914215D03*
X95085786Y-68514215D03*
X68085786Y-45214215D03*
X69381959Y-61661065D03*
X59885786Y-53914215D03*
X98985786Y-71764215D03*
X62798086Y-61717098D03*
X54085786Y-67614215D03*
X67385786Y-72114215D03*
X54685786Y-44614215D03*
X50485786Y-50114215D03*
X50485786Y-42714215D03*
X49585786Y-53114215D03*
X56885786Y-58314215D03*
X61885786Y-66914215D03*
X71085786Y-44814215D03*
X87785786Y-73114215D03*
X50185786Y-40214215D03*
X74885786Y-64814215D03*
X57685786Y-50114215D03*
X54185786Y-51214215D03*
X77885786Y-73014215D03*
X66685786Y-40614215D03*
D27*
%TO.N,SCL1*%
X46885786Y-46314215D03*
X47585786Y-52714215D03*
%TO.N,SDA1*%
X23485786Y-68814215D03*
X45485786Y-51814215D03*
%TO.N,SDAS0*%
X28185786Y-37414215D03*
X23185786Y-37305000D03*
%TO.N,SDAS1*%
X28225000Y-45314215D03*
X23385786Y-45205000D03*
%TO.N,SDAS2*%
X23385786Y-53114215D03*
X28085786Y-53014215D03*
%TO.N,SDAS3*%
X28125000Y-61014215D03*
X22985786Y-61014215D03*
%TO.N,Net-(C16-Pad1)*%
X40935786Y-78114215D03*
X40935786Y-73164215D03*
D26*
%TO.N,Net-(Q1-S)*%
X82685786Y-60914215D03*
X82485786Y-58639215D03*
X85010786Y-58764215D03*
X88385786Y-58314215D03*
X85085786Y-61014215D03*
%TO.N,Net-(Q2-S)*%
X119785786Y-68114215D03*
X114285786Y-68414215D03*
X117885786Y-63014215D03*
X117585786Y-56814215D03*
X118185786Y-66014215D03*
X116785786Y-68414215D03*
X119785786Y-60714215D03*
X117585786Y-59114215D03*
%TD*%
D29*
%TO.N,SDA1*%
X23485786Y-66714215D02*
X27785786Y-62414215D01*
X45485786Y-59514215D02*
X45485786Y-51814215D01*
X23485786Y-68814215D02*
X23485786Y-66714215D01*
X27785786Y-62414215D02*
X42585786Y-62414215D01*
X42585786Y-62414215D02*
X45485786Y-59514215D01*
%TO.N,Net-(C16-Pad1)*%
X40935786Y-78114215D02*
X40935786Y-73164215D01*
D30*
%TO.N,+3V3*%
X29785786Y-49595000D02*
X29955001Y-49764215D01*
X29955001Y-49764215D02*
X39585786Y-49764215D01*
X39585786Y-49764215D02*
X39635786Y-49814215D01*
D29*
%TO.N,C_TX*%
X19635786Y-76614215D02*
X22085786Y-74164215D01*
X19635786Y-78564215D02*
X19635786Y-77264215D01*
X19635786Y-77264215D02*
X19635786Y-77164215D01*
X19635786Y-77264215D02*
X19635786Y-76614215D01*
X22085786Y-74164215D02*
X27135786Y-74164215D01*
%TO.N,SCL1*%
X47585786Y-52014215D02*
X46885786Y-51314215D01*
X46885786Y-51314215D02*
X46885786Y-46314215D01*
X47585786Y-52714215D02*
X47585786Y-52014215D01*
%TO.N,SDA1*%
X45985786Y-50614215D02*
X45985786Y-48114215D01*
X45585786Y-47714215D02*
X40085786Y-47714215D01*
X45985786Y-48114215D02*
X45585786Y-47714215D01*
X39265000Y-46893429D02*
X39265000Y-44475000D01*
X40085786Y-47714215D02*
X39265000Y-46893429D01*
X45485786Y-51114215D02*
X45985786Y-50614215D01*
X45485786Y-51814215D02*
X45485786Y-51114215D01*
%TO.N,SDAS0*%
X23185786Y-37305000D02*
X23195001Y-37314215D01*
X23195001Y-37314215D02*
X28085786Y-37314215D01*
X28085786Y-37314215D02*
X28185786Y-37414215D01*
%TO.N,SDAS1*%
X23426571Y-45164215D02*
X23385786Y-45205000D01*
X28225000Y-45314215D02*
X27135786Y-45314215D01*
X26985786Y-45164215D02*
X23426571Y-45164215D01*
X27135786Y-45314215D02*
X26985786Y-45164215D01*
%TO.N,SDAS2*%
X27985786Y-53114215D02*
X28085786Y-53014215D01*
X23385786Y-53114215D02*
X27985786Y-53114215D01*
%TO.N,SDAS3*%
X28125000Y-61014215D02*
X22985786Y-61014215D01*
%TD*%
%TA.AperFunction,Conductor*%
%TO.N,GND*%
G36*
X116044230Y-47016653D02*
G01*
X116085024Y-47024864D01*
X116130147Y-47043795D01*
X116154159Y-47060077D01*
X116188445Y-47094991D01*
X116204288Y-47119294D01*
X116222398Y-47164758D01*
X116229866Y-47205696D01*
X116231858Y-47230196D01*
X116204310Y-48745351D01*
X116189649Y-49551721D01*
X116184944Y-49583371D01*
X116170344Y-49634734D01*
X116137949Y-49689305D01*
X116111758Y-49715024D01*
X116056610Y-49746420D01*
X116004986Y-49760086D01*
X115973254Y-49764215D01*
X115185786Y-49764215D01*
X115185786Y-49939215D01*
X115185786Y-49939216D01*
X115185786Y-50107807D01*
X115185774Y-50109533D01*
X115185733Y-50112479D01*
X115185638Y-50115915D01*
X115185512Y-50118939D01*
X115185428Y-50120655D01*
X115147576Y-50801998D01*
X115143849Y-50826045D01*
X115133574Y-50865943D01*
X115112569Y-50909582D01*
X115095292Y-50932539D01*
X115059177Y-50964801D01*
X115034424Y-50979390D01*
X114988699Y-50995360D01*
X114947901Y-51001087D01*
X114923590Y-51002089D01*
X113585023Y-50925599D01*
X113554850Y-50920075D01*
X113505883Y-50904654D01*
X113454082Y-50872673D01*
X113429452Y-50847256D01*
X113399118Y-50794480D01*
X113385242Y-50745044D01*
X113380670Y-50714723D01*
X113291364Y-47231748D01*
X113293194Y-47207115D01*
X113300427Y-47165946D01*
X113318364Y-47120172D01*
X113334162Y-47095689D01*
X113368471Y-47060487D01*
X113392546Y-47044064D01*
X113437838Y-47024962D01*
X113478820Y-47016674D01*
X113503391Y-47014215D01*
X116019762Y-47014215D01*
X116044230Y-47016653D01*
G37*
%TD.AperFunction*%
%TD*%
%TA.AperFunction,Conductor*%
%TO.N,GND*%
G36*
X97197757Y-55016596D02*
G01*
X97238132Y-55024627D01*
X97282829Y-55043142D01*
X97306699Y-55059092D01*
X97340908Y-55093301D01*
X97356858Y-55117171D01*
X97375374Y-55161870D01*
X97383403Y-55202235D01*
X97385786Y-55226425D01*
X97385786Y-57435322D01*
X97384096Y-57455724D01*
X97378361Y-57490106D01*
X97370300Y-57513595D01*
X94885786Y-57414215D01*
X94885786Y-57440685D01*
X94691666Y-57434976D01*
X94691660Y-57434975D01*
X94195914Y-57420394D01*
X94164542Y-57415401D01*
X94113659Y-57400421D01*
X94059716Y-57367851D01*
X94034301Y-57341677D01*
X94003332Y-57286801D01*
X93989855Y-57235499D01*
X93985786Y-57203993D01*
X93985786Y-55226425D01*
X93988167Y-55202244D01*
X93996198Y-55161866D01*
X94014713Y-55117171D01*
X94030663Y-55093301D01*
X94064872Y-55059092D01*
X94088742Y-55043142D01*
X94133439Y-55024627D01*
X94173813Y-55016596D01*
X94197997Y-55014215D01*
X97173575Y-55014215D01*
X97197757Y-55016596D01*
G37*
%TD.AperFunction*%
%TD*%
%TA.AperFunction,Conductor*%
%TO.N,GND*%
G36*
X97370301Y-57513595D02*
G01*
X97365122Y-57528691D01*
X97348546Y-57559341D01*
X97337355Y-57576483D01*
X97104532Y-57875827D01*
X97084844Y-57895937D01*
X97048113Y-57925780D01*
X96997883Y-57950347D01*
X96951767Y-57961021D01*
X96923805Y-57964215D01*
X95097997Y-57964215D01*
X95073806Y-57961832D01*
X95058530Y-57958793D01*
X95033442Y-57953803D01*
X94988742Y-57935287D01*
X94964872Y-57919337D01*
X94930663Y-57885128D01*
X94914713Y-57861258D01*
X94896198Y-57816561D01*
X94888167Y-57776186D01*
X94885786Y-57752004D01*
X94885786Y-57634891D01*
X94885786Y-57634889D01*
X94885786Y-57414215D01*
X97370301Y-57513595D01*
G37*
%TD.AperFunction*%
%TD*%
M02*
