%TF.GenerationSoftware,KiCad,Pcbnew,8.0.5+1*%
%TF.CreationDate,2024-10-17T19:04:23-04:00*%
%TF.ProjectId,mainBoard,6d61696e-426f-4617-9264-2e6b69636164,rev?*%
%TF.SameCoordinates,Original*%
%TF.FileFunction,Soldermask,Top*%
%TF.FilePolarity,Negative*%
%FSLAX46Y46*%
G04 Gerber Fmt 4.6, Leading zero omitted, Abs format (unit mm)*
G04 Created by KiCad (PCBNEW 8.0.5+1) date 2024-10-17 19:04:23*
%MOMM*%
%LPD*%
G01*
G04 APERTURE LIST*
G04 Aperture macros list*
%AMRoundRect*
0 Rectangle with rounded corners*
0 $1 Rounding radius*
0 $2 $3 $4 $5 $6 $7 $8 $9 X,Y pos of 4 corners*
0 Add a 4 corners polygon primitive as box body*
4,1,4,$2,$3,$4,$5,$6,$7,$8,$9,$2,$3,0*
0 Add four circle primitives for the rounded corners*
1,1,$1+$1,$2,$3*
1,1,$1+$1,$4,$5*
1,1,$1+$1,$6,$7*
1,1,$1+$1,$8,$9*
0 Add four rect primitives between the rounded corners*
20,1,$1+$1,$2,$3,$4,$5,0*
20,1,$1+$1,$4,$5,$6,$7,0*
20,1,$1+$1,$6,$7,$8,$9,0*
20,1,$1+$1,$8,$9,$2,$3,0*%
G04 Aperture macros list end*
%ADD10RoundRect,0.250000X-0.450000X0.350000X-0.450000X-0.350000X0.450000X-0.350000X0.450000X0.350000X0*%
%ADD11RoundRect,0.150000X-0.625000X0.150000X-0.625000X-0.150000X0.625000X-0.150000X0.625000X0.150000X0*%
%ADD12RoundRect,0.250000X-0.650000X0.350000X-0.650000X-0.350000X0.650000X-0.350000X0.650000X0.350000X0*%
%ADD13RoundRect,0.250000X0.450000X-0.350000X0.450000X0.350000X-0.450000X0.350000X-0.450000X-0.350000X0*%
%ADD14C,4.300000*%
%ADD15O,2.000000X4.000000*%
%ADD16O,4.000000X2.000000*%
%ADD17R,4.500000X2.000000*%
%ADD18RoundRect,0.250000X0.625000X-0.350000X0.625000X0.350000X-0.625000X0.350000X-0.625000X-0.350000X0*%
%ADD19O,1.750000X1.200000*%
%ADD20C,4.100000*%
%ADD21RoundRect,1.025000X-1.025000X-1.025000X1.025000X-1.025000X1.025000X1.025000X-1.025000X1.025000X0*%
%ADD22R,0.900000X2.000000*%
%ADD23RoundRect,0.250000X0.650000X-0.350000X0.650000X0.350000X-0.650000X0.350000X-0.650000X-0.350000X0*%
%ADD24RoundRect,0.150000X0.625000X-0.150000X0.625000X0.150000X-0.625000X0.150000X-0.625000X-0.150000X0*%
%ADD25RoundRect,0.250000X-0.337500X-0.475000X0.337500X-0.475000X0.337500X0.475000X-0.337500X0.475000X0*%
%ADD26RoundRect,0.250000X0.337500X0.475000X-0.337500X0.475000X-0.337500X-0.475000X0.337500X-0.475000X0*%
%ADD27RoundRect,0.250000X0.475000X-0.337500X0.475000X0.337500X-0.475000X0.337500X-0.475000X-0.337500X0*%
%ADD28C,3.500000*%
%ADD29R,3.500000X3.500000*%
%ADD30C,1.400000*%
%ADD31RoundRect,0.250000X-0.350000X-0.450000X0.350000X-0.450000X0.350000X0.450000X-0.350000X0.450000X0*%
%ADD32R,3.800000X3.800000*%
%ADD33C,3.800000*%
%ADD34RoundRect,0.150000X-0.512500X-0.150000X0.512500X-0.150000X0.512500X0.150000X-0.512500X0.150000X0*%
%ADD35R,1.700000X1.700000*%
%ADD36O,1.700000X1.700000*%
%ADD37RoundRect,0.150000X-0.150000X0.512500X-0.150000X-0.512500X0.150000X-0.512500X0.150000X0.512500X0*%
%ADD38RoundRect,0.235000X1.465000X-0.940000X1.465000X0.940000X-1.465000X0.940000X-1.465000X-0.940000X0*%
%ADD39RoundRect,0.250000X0.325000X0.450000X-0.325000X0.450000X-0.325000X-0.450000X0.325000X-0.450000X0*%
%ADD40RoundRect,0.250000X-0.850000X-0.350000X0.850000X-0.350000X0.850000X0.350000X-0.850000X0.350000X0*%
%ADD41RoundRect,0.249997X-2.950003X-2.650003X2.950003X-2.650003X2.950003X2.650003X-2.950003X2.650003X0*%
%ADD42RoundRect,0.250000X-0.475000X0.337500X-0.475000X-0.337500X0.475000X-0.337500X0.475000X0.337500X0*%
%ADD43RoundRect,0.250000X0.400000X1.075000X-0.400000X1.075000X-0.400000X-1.075000X0.400000X-1.075000X0*%
%ADD44RoundRect,0.250000X0.350000X0.450000X-0.350000X0.450000X-0.350000X-0.450000X0.350000X-0.450000X0*%
%ADD45RoundRect,0.150000X-0.825000X-0.150000X0.825000X-0.150000X0.825000X0.150000X-0.825000X0.150000X0*%
%ADD46RoundRect,0.250000X0.450000X-0.325000X0.450000X0.325000X-0.450000X0.325000X-0.450000X-0.325000X0*%
%ADD47RoundRect,0.100000X-0.637500X-0.100000X0.637500X-0.100000X0.637500X0.100000X-0.637500X0.100000X0*%
%ADD48RoundRect,0.250000X-0.325000X-0.450000X0.325000X-0.450000X0.325000X0.450000X-0.325000X0.450000X0*%
G04 APERTURE END LIST*
D10*
%TO.C,R26*%
X25795000Y-64753429D03*
X25795000Y-66753429D03*
%TD*%
%TO.C,R25*%
X28125000Y-64753429D03*
X28125000Y-66753429D03*
%TD*%
D11*
%TO.C,J26*%
X101675000Y-86000000D03*
X101675000Y-87000000D03*
D12*
X104200000Y-84700000D03*
X104200000Y-88300000D03*
%TD*%
D13*
%TO.C,R12*%
X122796571Y-53425001D03*
X122796571Y-51425001D03*
%TD*%
%TO.C,R11*%
X93346571Y-64325001D03*
X93346571Y-62325001D03*
%TD*%
D14*
%TO.C,H4*%
X121500000Y-90800000D03*
%TD*%
D15*
%TO.C,J5*%
X38375000Y-30895000D03*
D16*
X43075000Y-27895000D03*
D17*
X43075000Y-34095000D03*
%TD*%
D18*
%TO.C,J21*%
X121246571Y-33355001D03*
D19*
X121246571Y-31355001D03*
%TD*%
D20*
%TO.C,J2*%
X77995000Y-36575000D03*
D21*
X70795000Y-36575000D03*
D22*
X81145000Y-30575000D03*
X67645000Y-30575000D03*
%TD*%
D23*
%TO.C,J16*%
X18525000Y-34005000D03*
X18525000Y-39605000D03*
D24*
X21050000Y-35305000D03*
X21050000Y-36305000D03*
X21050000Y-37305000D03*
X21050000Y-38305000D03*
%TD*%
D25*
%TO.C,C5*%
X107727500Y-41015000D03*
X109802500Y-41015000D03*
%TD*%
D26*
%TO.C,C3*%
X114289071Y-58490001D03*
X112214071Y-58490001D03*
%TD*%
D25*
%TO.C,C6*%
X107737500Y-43075000D03*
X109812500Y-43075000D03*
%TD*%
D27*
%TO.C,C8*%
X88431094Y-56090930D03*
X88431094Y-54015930D03*
%TD*%
D28*
%TO.C,J4*%
X88195000Y-33375000D03*
D29*
X93195000Y-33375000D03*
D30*
X96195000Y-23375000D03*
X85195000Y-23375000D03*
%TD*%
D14*
%TO.C,H3*%
X19500000Y-90800000D03*
%TD*%
D31*
%TO.C,R6*%
X92391094Y-60353430D03*
X94391094Y-60353430D03*
%TD*%
D28*
%TO.C,J3*%
X102745000Y-33375000D03*
D29*
X107745000Y-33375000D03*
D30*
X110745000Y-23375000D03*
X99745000Y-23375000D03*
%TD*%
D25*
%TO.C,C12*%
X93252978Y-42975000D03*
X95327978Y-42975000D03*
%TD*%
D14*
%TO.C,H1*%
X19500000Y-23800000D03*
%TD*%
D13*
%TO.C,R3*%
X38075000Y-75125000D03*
X38075000Y-73125000D03*
%TD*%
D26*
%TO.C,C2*%
X114289071Y-56400001D03*
X112214071Y-56400001D03*
%TD*%
D32*
%TO.C,J11*%
X93000000Y-73650000D03*
D33*
X93000000Y-78650000D03*
%TD*%
D34*
%TO.C,U1*%
X114339071Y-50600001D03*
X114339071Y-51550001D03*
X114339071Y-52500001D03*
X116614071Y-52500001D03*
X116614071Y-51550001D03*
X116614071Y-50600001D03*
%TD*%
D27*
%TO.C,C16*%
X38075000Y-71382500D03*
X38075000Y-69307500D03*
%TD*%
D35*
%TO.C,J22*%
X114775000Y-33375000D03*
D36*
X114775000Y-30835000D03*
%TD*%
D32*
%TO.C,J7*%
X53000000Y-73650000D03*
D33*
X53000000Y-78650000D03*
%TD*%
D12*
%TO.C,J15*%
X74200000Y-88300000D03*
X74200000Y-84700000D03*
D11*
X71675000Y-87000000D03*
X71675000Y-86000000D03*
%TD*%
D10*
%TO.C,R19*%
X25795000Y-49595000D03*
X25795000Y-51595000D03*
%TD*%
D26*
%TO.C,C1*%
X114289071Y-54310001D03*
X112214071Y-54310001D03*
%TD*%
D10*
%TO.C,R2*%
X120576571Y-52495001D03*
X120576571Y-50495001D03*
%TD*%
%TO.C,R17*%
X25895000Y-41695000D03*
X25895000Y-43695000D03*
%TD*%
D37*
%TO.C,U2*%
X94291094Y-56065930D03*
X93341094Y-56065930D03*
X92391094Y-56065930D03*
X92391094Y-58340930D03*
X93341094Y-58340930D03*
X94291094Y-58340930D03*
%TD*%
D38*
%TO.C,L2*%
X93311094Y-51508430D03*
X93311094Y-45458430D03*
%TD*%
D35*
%TO.C,J23*%
X36725000Y-44475000D03*
D36*
X36725000Y-41935000D03*
X39265000Y-44475000D03*
X39265000Y-41935000D03*
X41805000Y-44475000D03*
X41805000Y-41935000D03*
X44345000Y-44475000D03*
X44345000Y-41935000D03*
%TD*%
D10*
%TO.C,R20*%
X28125000Y-49595000D03*
X28125000Y-51595000D03*
%TD*%
D39*
%TO.C,D2*%
X35841571Y-32025001D03*
X33791571Y-32025001D03*
%TD*%
D10*
%TO.C,R16*%
X28225000Y-33795000D03*
X28225000Y-35795000D03*
%TD*%
D27*
%TO.C,C10*%
X86351094Y-56090930D03*
X86351094Y-54015930D03*
%TD*%
D31*
%TO.C,R7*%
X88541094Y-60353430D03*
X90541094Y-60353430D03*
%TD*%
D40*
%TO.C,Q2*%
X106175000Y-60805000D03*
D41*
X112475000Y-63085000D03*
D40*
X106175000Y-65365000D03*
%TD*%
D10*
%TO.C,R18*%
X28225000Y-41695000D03*
X28225000Y-43695000D03*
%TD*%
D31*
%TO.C,R5*%
X33816571Y-34075001D03*
X35816571Y-34075001D03*
%TD*%
D42*
%TO.C,C4*%
X112266571Y-49527501D03*
X112266571Y-51602501D03*
%TD*%
D31*
%TO.C,R10*%
X75325000Y-49221428D03*
X77325000Y-49221428D03*
%TD*%
D43*
%TO.C,R13*%
X110676571Y-68325001D03*
X107576571Y-68325001D03*
%TD*%
D26*
%TO.C,C11*%
X95408594Y-54013430D03*
X93333594Y-54013430D03*
%TD*%
D43*
%TO.C,R14*%
X79851095Y-59035001D03*
X76751095Y-59035001D03*
%TD*%
D23*
%TO.C,J17*%
X18525000Y-41905000D03*
X18525000Y-47505000D03*
D24*
X21050000Y-43205000D03*
X21050000Y-44205000D03*
X21050000Y-45205000D03*
X21050000Y-46205000D03*
%TD*%
D23*
%TO.C,J20*%
X18525000Y-65605000D03*
X18525000Y-71205000D03*
D24*
X21050000Y-66905000D03*
X21050000Y-67905000D03*
X21050000Y-68905000D03*
X21050000Y-69905000D03*
%TD*%
D13*
%TO.C,R8*%
X113840000Y-25605000D03*
X113840000Y-23605000D03*
%TD*%
D12*
%TO.C,J25*%
X94200000Y-88300000D03*
X94200000Y-84700000D03*
D11*
X91675000Y-87000000D03*
X91675000Y-86000000D03*
%TD*%
D25*
%TO.C,C13*%
X93252978Y-40985000D03*
X95327978Y-40985000D03*
%TD*%
D12*
%TO.C,J24*%
X84200000Y-88300000D03*
X84200000Y-84700000D03*
D11*
X81675000Y-87000000D03*
X81675000Y-86000000D03*
%TD*%
D10*
%TO.C,R21*%
X25795000Y-57495000D03*
X25795000Y-59495000D03*
%TD*%
D23*
%TO.C,J18*%
X18525000Y-49805000D03*
X18525000Y-55405000D03*
D24*
X21050000Y-51105000D03*
X21050000Y-52105000D03*
X21050000Y-53105000D03*
X21050000Y-54105000D03*
%TD*%
D10*
%TO.C,R22*%
X28125000Y-57495000D03*
X28125000Y-59495000D03*
%TD*%
D32*
%TO.C,J9*%
X73000000Y-73650000D03*
D33*
X73000000Y-78650000D03*
%TD*%
D31*
%TO.C,R4*%
X121245001Y-36853429D03*
X123245001Y-36853429D03*
%TD*%
D44*
%TO.C,R9*%
X106046572Y-58453430D03*
X104046572Y-58453430D03*
%TD*%
D38*
%TO.C,L1*%
X107626571Y-51580001D03*
X107626571Y-45530001D03*
%TD*%
D25*
%TO.C,C7*%
X42037500Y-49805000D03*
X44112500Y-49805000D03*
%TD*%
D13*
%TO.C,R24*%
X38075000Y-78875000D03*
X38075000Y-76875000D03*
%TD*%
D14*
%TO.C,H2*%
X121500000Y-23800000D03*
%TD*%
D32*
%TO.C,J10*%
X83000000Y-73650000D03*
D33*
X83000000Y-78650000D03*
%TD*%
D40*
%TO.C,Q1*%
X75275000Y-51550000D03*
D41*
X81575000Y-53830000D03*
D40*
X75275000Y-56110000D03*
%TD*%
D45*
%TO.C,IC1*%
X28795000Y-74120000D03*
X28795000Y-75390000D03*
X28795000Y-76660000D03*
X28795000Y-77930000D03*
X33745000Y-77930000D03*
X33745000Y-76660000D03*
X33745000Y-75390000D03*
X33745000Y-74120000D03*
%TD*%
D27*
%TO.C,C9*%
X90541094Y-56090930D03*
X90541094Y-54015930D03*
%TD*%
D13*
%TO.C,R1*%
X118546571Y-50495001D03*
X118546571Y-52495001D03*
%TD*%
D10*
%TO.C,R15*%
X25895000Y-33795000D03*
X25895000Y-35795000D03*
%TD*%
D12*
%TO.C,J14*%
X64200000Y-88300000D03*
X64200000Y-84700000D03*
D11*
X61675000Y-87000000D03*
X61675000Y-86000000D03*
%TD*%
D46*
%TO.C,D3*%
X115931572Y-25663430D03*
X115931572Y-23613430D03*
%TD*%
D32*
%TO.C,J8*%
X63000000Y-73650000D03*
D33*
X63000000Y-78650000D03*
%TD*%
D42*
%TO.C,C15*%
X117776571Y-31247501D03*
X117776571Y-33322501D03*
%TD*%
D44*
%TO.C,R23*%
X37295000Y-49805000D03*
X35295000Y-49805000D03*
%TD*%
D23*
%TO.C,J19*%
X18525000Y-57705000D03*
X18525000Y-63305000D03*
D24*
X21050000Y-59005000D03*
X21050000Y-60005000D03*
X21050000Y-61005000D03*
X21050000Y-62005000D03*
%TD*%
D47*
%TO.C,U3*%
X36257500Y-51450000D03*
X36257500Y-52100000D03*
X36257500Y-52750000D03*
X36257500Y-53400000D03*
X36257500Y-54050000D03*
X36257500Y-54700000D03*
X36257500Y-55350000D03*
X36257500Y-56000000D03*
X36257500Y-56650000D03*
X36257500Y-57300000D03*
X36257500Y-57950000D03*
X36257500Y-58600000D03*
X41982500Y-58600000D03*
X41982500Y-57950000D03*
X41982500Y-57300000D03*
X41982500Y-56650000D03*
X41982500Y-56000000D03*
X41982500Y-55350000D03*
X41982500Y-54700000D03*
X41982500Y-54050000D03*
X41982500Y-53400000D03*
X41982500Y-52750000D03*
X41982500Y-52100000D03*
X41982500Y-51450000D03*
%TD*%
D12*
%TO.C,J13*%
X54200000Y-88300000D03*
X54200000Y-84700000D03*
D11*
X51675000Y-87000000D03*
X51675000Y-86000000D03*
%TD*%
D48*
%TO.C,D1*%
X121220001Y-38890001D03*
X123270001Y-38890001D03*
%TD*%
D27*
%TO.C,C14*%
X25665000Y-76612500D03*
X25665000Y-74537500D03*
%TD*%
D20*
%TO.C,J1*%
X60445000Y-36575000D03*
D21*
X53245000Y-36575000D03*
D22*
X63595000Y-30575000D03*
X50095000Y-30575000D03*
%TD*%
D35*
%TO.C,J12*%
X19646571Y-80925001D03*
D36*
X22186571Y-80925001D03*
X24726571Y-80925001D03*
%TD*%
D32*
%TO.C,J6*%
X103000000Y-73650000D03*
D33*
X103000000Y-78650000D03*
%TD*%
M02*
