%TF.GenerationSoftware,KiCad,Pcbnew,8.0.5+1*%
%TF.CreationDate,2024-10-17T19:04:23-04:00*%
%TF.ProjectId,mainBoard,6d61696e-426f-4617-9264-2e6b69636164,rev?*%
%TF.SameCoordinates,Original*%
%TF.FileFunction,Legend,Bot*%
%TF.FilePolarity,Positive*%
%FSLAX46Y46*%
G04 Gerber Fmt 4.6, Leading zero omitted, Abs format (unit mm)*
G04 Created by KiCad (PCBNEW 8.0.5+1) date 2024-10-17 19:04:23*
%MOMM*%
%LPD*%
G01*
G04 APERTURE LIST*
G04 Aperture macros list*
%AMRoundRect*
0 Rectangle with rounded corners*
0 $1 Rounding radius*
0 $2 $3 $4 $5 $6 $7 $8 $9 X,Y pos of 4 corners*
0 Add a 4 corners polygon primitive as box body*
4,1,4,$2,$3,$4,$5,$6,$7,$8,$9,$2,$3,0*
0 Add four circle primitives for the rounded corners*
1,1,$1+$1,$2,$3*
1,1,$1+$1,$4,$5*
1,1,$1+$1,$6,$7*
1,1,$1+$1,$8,$9*
0 Add four rect primitives between the rounded corners*
20,1,$1+$1,$2,$3,$4,$5,0*
20,1,$1+$1,$4,$5,$6,$7,0*
20,1,$1+$1,$6,$7,$8,$9,0*
20,1,$1+$1,$8,$9,$2,$3,0*%
G04 Aperture macros list end*
%ADD10C,0.150000*%
%ADD11C,0.250000*%
%ADD12C,0.000000*%
%ADD13C,4.300000*%
%ADD14O,2.000000X4.000000*%
%ADD15O,4.000000X2.000000*%
%ADD16R,4.500000X2.000000*%
%ADD17RoundRect,0.250000X0.625000X-0.350000X0.625000X0.350000X-0.625000X0.350000X-0.625000X-0.350000X0*%
%ADD18O,1.750000X1.200000*%
%ADD19C,4.100000*%
%ADD20RoundRect,1.025000X-1.025000X-1.025000X1.025000X-1.025000X1.025000X1.025000X-1.025000X1.025000X0*%
%ADD21R,0.900000X2.000000*%
%ADD22C,3.500000*%
%ADD23R,3.500000X3.500000*%
%ADD24C,1.400000*%
%ADD25R,3.800000X3.800000*%
%ADD26C,3.800000*%
%ADD27R,1.700000X1.700000*%
%ADD28O,1.700000X1.700000*%
G04 APERTURE END LIST*
D10*
X29263292Y-83084034D02*
X29263292Y-83798319D01*
X29263292Y-83798319D02*
X29310911Y-83941176D01*
X29310911Y-83941176D02*
X29406149Y-84036415D01*
X29406149Y-84036415D02*
X29549006Y-84084034D01*
X29549006Y-84084034D02*
X29644244Y-84084034D01*
X28215673Y-83988795D02*
X28263292Y-84036415D01*
X28263292Y-84036415D02*
X28406149Y-84084034D01*
X28406149Y-84084034D02*
X28501387Y-84084034D01*
X28501387Y-84084034D02*
X28644244Y-84036415D01*
X28644244Y-84036415D02*
X28739482Y-83941176D01*
X28739482Y-83941176D02*
X28787101Y-83845938D01*
X28787101Y-83845938D02*
X28834720Y-83655462D01*
X28834720Y-83655462D02*
X28834720Y-83512605D01*
X28834720Y-83512605D02*
X28787101Y-83322129D01*
X28787101Y-83322129D02*
X28739482Y-83226891D01*
X28739482Y-83226891D02*
X28644244Y-83131653D01*
X28644244Y-83131653D02*
X28501387Y-83084034D01*
X28501387Y-83084034D02*
X28406149Y-83084034D01*
X28406149Y-83084034D02*
X28263292Y-83131653D01*
X28263292Y-83131653D02*
X28215673Y-83179272D01*
X26739482Y-84464986D02*
X26787101Y-84417367D01*
X26787101Y-84417367D02*
X26882339Y-84274510D01*
X26882339Y-84274510D02*
X26929958Y-84179272D01*
X26929958Y-84179272D02*
X26977577Y-84036415D01*
X26977577Y-84036415D02*
X27025196Y-83798319D01*
X27025196Y-83798319D02*
X27025196Y-83607843D01*
X27025196Y-83607843D02*
X26977577Y-83369748D01*
X26977577Y-83369748D02*
X26929958Y-83226891D01*
X26929958Y-83226891D02*
X26882339Y-83131653D01*
X26882339Y-83131653D02*
X26787101Y-82988795D01*
X26787101Y-82988795D02*
X26739482Y-82941176D01*
X26453767Y-83417367D02*
X26215672Y-84084034D01*
X25977577Y-83417367D02*
X26215672Y-84084034D01*
X26215672Y-84084034D02*
X26310910Y-84322129D01*
X26310910Y-84322129D02*
X26358529Y-84369748D01*
X26358529Y-84369748D02*
X26453767Y-84417367D01*
X25215672Y-84036415D02*
X25310910Y-84084034D01*
X25310910Y-84084034D02*
X25501386Y-84084034D01*
X25501386Y-84084034D02*
X25596624Y-84036415D01*
X25596624Y-84036415D02*
X25644243Y-83941176D01*
X25644243Y-83941176D02*
X25644243Y-83560224D01*
X25644243Y-83560224D02*
X25596624Y-83464986D01*
X25596624Y-83464986D02*
X25501386Y-83417367D01*
X25501386Y-83417367D02*
X25310910Y-83417367D01*
X25310910Y-83417367D02*
X25215672Y-83464986D01*
X25215672Y-83464986D02*
X25168053Y-83560224D01*
X25168053Y-83560224D02*
X25168053Y-83655462D01*
X25168053Y-83655462D02*
X25644243Y-83750700D01*
X24882338Y-83417367D02*
X24501386Y-83417367D01*
X24739481Y-83084034D02*
X24739481Y-83941176D01*
X24739481Y-83941176D02*
X24691862Y-84036415D01*
X24691862Y-84036415D02*
X24596624Y-84084034D01*
X24596624Y-84084034D02*
X24501386Y-84084034D01*
X23739481Y-84084034D02*
X23739481Y-83560224D01*
X23739481Y-83560224D02*
X23787100Y-83464986D01*
X23787100Y-83464986D02*
X23882338Y-83417367D01*
X23882338Y-83417367D02*
X24072814Y-83417367D01*
X24072814Y-83417367D02*
X24168052Y-83464986D01*
X23739481Y-84036415D02*
X23834719Y-84084034D01*
X23834719Y-84084034D02*
X24072814Y-84084034D01*
X24072814Y-84084034D02*
X24168052Y-84036415D01*
X24168052Y-84036415D02*
X24215671Y-83941176D01*
X24215671Y-83941176D02*
X24215671Y-83845938D01*
X24215671Y-83845938D02*
X24168052Y-83750700D01*
X24168052Y-83750700D02*
X24072814Y-83703081D01*
X24072814Y-83703081D02*
X23834719Y-83703081D01*
X23834719Y-83703081D02*
X23739481Y-83655462D01*
X23263290Y-83417367D02*
X23263290Y-84084034D01*
X23263290Y-83512605D02*
X23215671Y-83464986D01*
X23215671Y-83464986D02*
X23120433Y-83417367D01*
X23120433Y-83417367D02*
X22977576Y-83417367D01*
X22977576Y-83417367D02*
X22882338Y-83464986D01*
X22882338Y-83464986D02*
X22834719Y-83560224D01*
X22834719Y-83560224D02*
X22834719Y-84084034D01*
X22215671Y-84084034D02*
X22310909Y-84036415D01*
X22310909Y-84036415D02*
X22358528Y-83988795D01*
X22358528Y-83988795D02*
X22406147Y-83893557D01*
X22406147Y-83893557D02*
X22406147Y-83607843D01*
X22406147Y-83607843D02*
X22358528Y-83512605D01*
X22358528Y-83512605D02*
X22310909Y-83464986D01*
X22310909Y-83464986D02*
X22215671Y-83417367D01*
X22215671Y-83417367D02*
X22072814Y-83417367D01*
X22072814Y-83417367D02*
X21977576Y-83464986D01*
X21977576Y-83464986D02*
X21929957Y-83512605D01*
X21929957Y-83512605D02*
X21882338Y-83607843D01*
X21882338Y-83607843D02*
X21882338Y-83893557D01*
X21882338Y-83893557D02*
X21929957Y-83988795D01*
X21929957Y-83988795D02*
X21977576Y-84036415D01*
X21977576Y-84036415D02*
X22072814Y-84084034D01*
X22072814Y-84084034D02*
X22215671Y-84084034D01*
X21596623Y-83417367D02*
X21215671Y-83417367D01*
X21453766Y-83084034D02*
X21453766Y-83941176D01*
X21453766Y-83941176D02*
X21406147Y-84036415D01*
X21406147Y-84036415D02*
X21310909Y-84084034D01*
X21310909Y-84084034D02*
X21215671Y-84084034D01*
X20882337Y-84084034D02*
X20882337Y-83084034D01*
X20453766Y-84084034D02*
X20453766Y-83560224D01*
X20453766Y-83560224D02*
X20501385Y-83464986D01*
X20501385Y-83464986D02*
X20596623Y-83417367D01*
X20596623Y-83417367D02*
X20739480Y-83417367D01*
X20739480Y-83417367D02*
X20834718Y-83464986D01*
X20834718Y-83464986D02*
X20882337Y-83512605D01*
X19596623Y-84036415D02*
X19691861Y-84084034D01*
X19691861Y-84084034D02*
X19882337Y-84084034D01*
X19882337Y-84084034D02*
X19977575Y-84036415D01*
X19977575Y-84036415D02*
X20025194Y-83941176D01*
X20025194Y-83941176D02*
X20025194Y-83560224D01*
X20025194Y-83560224D02*
X19977575Y-83464986D01*
X19977575Y-83464986D02*
X19882337Y-83417367D01*
X19882337Y-83417367D02*
X19691861Y-83417367D01*
X19691861Y-83417367D02*
X19596623Y-83464986D01*
X19596623Y-83464986D02*
X19549004Y-83560224D01*
X19549004Y-83560224D02*
X19549004Y-83655462D01*
X19549004Y-83655462D02*
X20025194Y-83750700D01*
X19120432Y-84084034D02*
X19120432Y-83417367D01*
X19120432Y-83607843D02*
X19072813Y-83512605D01*
X19072813Y-83512605D02*
X19025194Y-83464986D01*
X19025194Y-83464986D02*
X18929956Y-83417367D01*
X18929956Y-83417367D02*
X18834718Y-83417367D01*
X18596622Y-83417367D02*
X18358527Y-84084034D01*
X18120432Y-83417367D02*
X18358527Y-84084034D01*
X18358527Y-84084034D02*
X18453765Y-84322129D01*
X18453765Y-84322129D02*
X18501384Y-84369748D01*
X18501384Y-84369748D02*
X18596622Y-84417367D01*
X17310908Y-84084034D02*
X17310908Y-83560224D01*
X17310908Y-83560224D02*
X17358527Y-83464986D01*
X17358527Y-83464986D02*
X17453765Y-83417367D01*
X17453765Y-83417367D02*
X17644241Y-83417367D01*
X17644241Y-83417367D02*
X17739479Y-83464986D01*
X17310908Y-84036415D02*
X17406146Y-84084034D01*
X17406146Y-84084034D02*
X17644241Y-84084034D01*
X17644241Y-84084034D02*
X17739479Y-84036415D01*
X17739479Y-84036415D02*
X17787098Y-83941176D01*
X17787098Y-83941176D02*
X17787098Y-83845938D01*
X17787098Y-83845938D02*
X17739479Y-83750700D01*
X17739479Y-83750700D02*
X17644241Y-83703081D01*
X17644241Y-83703081D02*
X17406146Y-83703081D01*
X17406146Y-83703081D02*
X17310908Y-83655462D01*
X16929955Y-83417367D02*
X16691860Y-84084034D01*
X16453765Y-83417367D02*
X16691860Y-84084034D01*
X16691860Y-84084034D02*
X16787098Y-84322129D01*
X16787098Y-84322129D02*
X16834717Y-84369748D01*
X16834717Y-84369748D02*
X16929955Y-84417367D01*
X16168050Y-84464986D02*
X16120431Y-84417367D01*
X16120431Y-84417367D02*
X16025193Y-84274510D01*
X16025193Y-84274510D02*
X15977574Y-84179272D01*
X15977574Y-84179272D02*
X15929955Y-84036415D01*
X15929955Y-84036415D02*
X15882336Y-83798319D01*
X15882336Y-83798319D02*
X15882336Y-83607843D01*
X15882336Y-83607843D02*
X15929955Y-83369748D01*
X15929955Y-83369748D02*
X15977574Y-83226891D01*
X15977574Y-83226891D02*
X16025193Y-83131653D01*
X16025193Y-83131653D02*
X16120431Y-82988795D01*
X16120431Y-82988795D02*
X16168050Y-82941176D01*
D11*
X123245122Y-82156453D02*
X123245122Y-80156453D01*
X123245122Y-80156453D02*
X122578455Y-81585024D01*
X122578455Y-81585024D02*
X121911789Y-80156453D01*
X121911789Y-80156453D02*
X121911789Y-82156453D01*
X120102265Y-82156453D02*
X120102265Y-81108834D01*
X120102265Y-81108834D02*
X120197503Y-80918357D01*
X120197503Y-80918357D02*
X120387979Y-80823119D01*
X120387979Y-80823119D02*
X120768932Y-80823119D01*
X120768932Y-80823119D02*
X120959408Y-80918357D01*
X120102265Y-82061215D02*
X120292741Y-82156453D01*
X120292741Y-82156453D02*
X120768932Y-82156453D01*
X120768932Y-82156453D02*
X120959408Y-82061215D01*
X120959408Y-82061215D02*
X121054646Y-81870738D01*
X121054646Y-81870738D02*
X121054646Y-81680262D01*
X121054646Y-81680262D02*
X120959408Y-81489786D01*
X120959408Y-81489786D02*
X120768932Y-81394548D01*
X120768932Y-81394548D02*
X120292741Y-81394548D01*
X120292741Y-81394548D02*
X120102265Y-81299310D01*
X119149884Y-82156453D02*
X119149884Y-80823119D01*
X119149884Y-80156453D02*
X119245122Y-80251691D01*
X119245122Y-80251691D02*
X119149884Y-80346929D01*
X119149884Y-80346929D02*
X119054646Y-80251691D01*
X119054646Y-80251691D02*
X119149884Y-80156453D01*
X119149884Y-80156453D02*
X119149884Y-80346929D01*
X118197503Y-80823119D02*
X118197503Y-82156453D01*
X118197503Y-81013595D02*
X118102265Y-80918357D01*
X118102265Y-80918357D02*
X117911789Y-80823119D01*
X117911789Y-80823119D02*
X117626074Y-80823119D01*
X117626074Y-80823119D02*
X117435598Y-80918357D01*
X117435598Y-80918357D02*
X117340360Y-81108834D01*
X117340360Y-81108834D02*
X117340360Y-82156453D01*
X114197502Y-81108834D02*
X113911788Y-81204072D01*
X113911788Y-81204072D02*
X113816550Y-81299310D01*
X113816550Y-81299310D02*
X113721312Y-81489786D01*
X113721312Y-81489786D02*
X113721312Y-81775500D01*
X113721312Y-81775500D02*
X113816550Y-81965976D01*
X113816550Y-81965976D02*
X113911788Y-82061215D01*
X113911788Y-82061215D02*
X114102264Y-82156453D01*
X114102264Y-82156453D02*
X114864169Y-82156453D01*
X114864169Y-82156453D02*
X114864169Y-80156453D01*
X114864169Y-80156453D02*
X114197502Y-80156453D01*
X114197502Y-80156453D02*
X114007026Y-80251691D01*
X114007026Y-80251691D02*
X113911788Y-80346929D01*
X113911788Y-80346929D02*
X113816550Y-80537405D01*
X113816550Y-80537405D02*
X113816550Y-80727881D01*
X113816550Y-80727881D02*
X113911788Y-80918357D01*
X113911788Y-80918357D02*
X114007026Y-81013595D01*
X114007026Y-81013595D02*
X114197502Y-81108834D01*
X114197502Y-81108834D02*
X114864169Y-81108834D01*
X112578455Y-82156453D02*
X112768931Y-82061215D01*
X112768931Y-82061215D02*
X112864169Y-81965976D01*
X112864169Y-81965976D02*
X112959407Y-81775500D01*
X112959407Y-81775500D02*
X112959407Y-81204072D01*
X112959407Y-81204072D02*
X112864169Y-81013595D01*
X112864169Y-81013595D02*
X112768931Y-80918357D01*
X112768931Y-80918357D02*
X112578455Y-80823119D01*
X112578455Y-80823119D02*
X112292740Y-80823119D01*
X112292740Y-80823119D02*
X112102264Y-80918357D01*
X112102264Y-80918357D02*
X112007026Y-81013595D01*
X112007026Y-81013595D02*
X111911788Y-81204072D01*
X111911788Y-81204072D02*
X111911788Y-81775500D01*
X111911788Y-81775500D02*
X112007026Y-81965976D01*
X112007026Y-81965976D02*
X112102264Y-82061215D01*
X112102264Y-82061215D02*
X112292740Y-82156453D01*
X112292740Y-82156453D02*
X112578455Y-82156453D01*
X110197502Y-82156453D02*
X110197502Y-81108834D01*
X110197502Y-81108834D02*
X110292740Y-80918357D01*
X110292740Y-80918357D02*
X110483216Y-80823119D01*
X110483216Y-80823119D02*
X110864169Y-80823119D01*
X110864169Y-80823119D02*
X111054645Y-80918357D01*
X110197502Y-82061215D02*
X110387978Y-82156453D01*
X110387978Y-82156453D02*
X110864169Y-82156453D01*
X110864169Y-82156453D02*
X111054645Y-82061215D01*
X111054645Y-82061215D02*
X111149883Y-81870738D01*
X111149883Y-81870738D02*
X111149883Y-81680262D01*
X111149883Y-81680262D02*
X111054645Y-81489786D01*
X111054645Y-81489786D02*
X110864169Y-81394548D01*
X110864169Y-81394548D02*
X110387978Y-81394548D01*
X110387978Y-81394548D02*
X110197502Y-81299310D01*
X109245121Y-82156453D02*
X109245121Y-80823119D01*
X109245121Y-81204072D02*
X109149883Y-81013595D01*
X109149883Y-81013595D02*
X109054645Y-80918357D01*
X109054645Y-80918357D02*
X108864169Y-80823119D01*
X108864169Y-80823119D02*
X108673692Y-80823119D01*
X107149883Y-82156453D02*
X107149883Y-80156453D01*
X107149883Y-82061215D02*
X107340359Y-82156453D01*
X107340359Y-82156453D02*
X107721312Y-82156453D01*
X107721312Y-82156453D02*
X107911788Y-82061215D01*
X107911788Y-82061215D02*
X108007026Y-81965976D01*
X108007026Y-81965976D02*
X108102264Y-81775500D01*
X108102264Y-81775500D02*
X108102264Y-81204072D01*
X108102264Y-81204072D02*
X108007026Y-81013595D01*
X108007026Y-81013595D02*
X107911788Y-80918357D01*
X107911788Y-80918357D02*
X107721312Y-80823119D01*
X107721312Y-80823119D02*
X107340359Y-80823119D01*
X107340359Y-80823119D02*
X107149883Y-80918357D01*
X123309999Y-82946525D02*
X122643333Y-84946525D01*
X122643333Y-84946525D02*
X121976666Y-82946525D01*
X121405237Y-83137001D02*
X121309999Y-83041763D01*
X121309999Y-83041763D02*
X121119523Y-82946525D01*
X121119523Y-82946525D02*
X120643332Y-82946525D01*
X120643332Y-82946525D02*
X120452856Y-83041763D01*
X120452856Y-83041763D02*
X120357618Y-83137001D01*
X120357618Y-83137001D02*
X120262380Y-83327477D01*
X120262380Y-83327477D02*
X120262380Y-83517953D01*
X120262380Y-83517953D02*
X120357618Y-83803667D01*
X120357618Y-83803667D02*
X121500475Y-84946525D01*
X121500475Y-84946525D02*
X120262380Y-84946525D01*
D10*
X27096625Y-85836415D02*
X26953768Y-85884034D01*
X26953768Y-85884034D02*
X26715673Y-85884034D01*
X26715673Y-85884034D02*
X26620435Y-85836415D01*
X26620435Y-85836415D02*
X26572816Y-85788795D01*
X26572816Y-85788795D02*
X26525197Y-85693557D01*
X26525197Y-85693557D02*
X26525197Y-85598319D01*
X26525197Y-85598319D02*
X26572816Y-85503081D01*
X26572816Y-85503081D02*
X26620435Y-85455462D01*
X26620435Y-85455462D02*
X26715673Y-85407843D01*
X26715673Y-85407843D02*
X26906149Y-85360224D01*
X26906149Y-85360224D02*
X27001387Y-85312605D01*
X27001387Y-85312605D02*
X27049006Y-85264986D01*
X27049006Y-85264986D02*
X27096625Y-85169748D01*
X27096625Y-85169748D02*
X27096625Y-85074510D01*
X27096625Y-85074510D02*
X27049006Y-84979272D01*
X27049006Y-84979272D02*
X27001387Y-84931653D01*
X27001387Y-84931653D02*
X26906149Y-84884034D01*
X26906149Y-84884034D02*
X26668054Y-84884034D01*
X26668054Y-84884034D02*
X26525197Y-84931653D01*
X26096625Y-85884034D02*
X26096625Y-84884034D01*
X26096625Y-84884034D02*
X25715673Y-84884034D01*
X25715673Y-84884034D02*
X25620435Y-84931653D01*
X25620435Y-84931653D02*
X25572816Y-84979272D01*
X25572816Y-84979272D02*
X25525197Y-85074510D01*
X25525197Y-85074510D02*
X25525197Y-85217367D01*
X25525197Y-85217367D02*
X25572816Y-85312605D01*
X25572816Y-85312605D02*
X25620435Y-85360224D01*
X25620435Y-85360224D02*
X25715673Y-85407843D01*
X25715673Y-85407843D02*
X26096625Y-85407843D01*
X24049006Y-86264986D02*
X24096625Y-86217367D01*
X24096625Y-86217367D02*
X24191863Y-86074510D01*
X24191863Y-86074510D02*
X24239482Y-85979272D01*
X24239482Y-85979272D02*
X24287101Y-85836415D01*
X24287101Y-85836415D02*
X24334720Y-85598319D01*
X24334720Y-85598319D02*
X24334720Y-85407843D01*
X24334720Y-85407843D02*
X24287101Y-85169748D01*
X24287101Y-85169748D02*
X24239482Y-85026891D01*
X24239482Y-85026891D02*
X24191863Y-84931653D01*
X24191863Y-84931653D02*
X24096625Y-84788795D01*
X24096625Y-84788795D02*
X24049006Y-84741176D01*
X23334720Y-85360224D02*
X23191863Y-85407843D01*
X23191863Y-85407843D02*
X23144244Y-85455462D01*
X23144244Y-85455462D02*
X23096625Y-85550700D01*
X23096625Y-85550700D02*
X23096625Y-85693557D01*
X23096625Y-85693557D02*
X23144244Y-85788795D01*
X23144244Y-85788795D02*
X23191863Y-85836415D01*
X23191863Y-85836415D02*
X23287101Y-85884034D01*
X23287101Y-85884034D02*
X23668053Y-85884034D01*
X23668053Y-85884034D02*
X23668053Y-84884034D01*
X23668053Y-84884034D02*
X23334720Y-84884034D01*
X23334720Y-84884034D02*
X23239482Y-84931653D01*
X23239482Y-84931653D02*
X23191863Y-84979272D01*
X23191863Y-84979272D02*
X23144244Y-85074510D01*
X23144244Y-85074510D02*
X23144244Y-85169748D01*
X23144244Y-85169748D02*
X23191863Y-85264986D01*
X23191863Y-85264986D02*
X23239482Y-85312605D01*
X23239482Y-85312605D02*
X23334720Y-85360224D01*
X23334720Y-85360224D02*
X23668053Y-85360224D01*
X22668053Y-85884034D02*
X22668053Y-85217367D01*
X22668053Y-84884034D02*
X22715672Y-84931653D01*
X22715672Y-84931653D02*
X22668053Y-84979272D01*
X22668053Y-84979272D02*
X22620434Y-84931653D01*
X22620434Y-84931653D02*
X22668053Y-84884034D01*
X22668053Y-84884034D02*
X22668053Y-84979272D01*
X21763292Y-85217367D02*
X21763292Y-86026891D01*
X21763292Y-86026891D02*
X21810911Y-86122129D01*
X21810911Y-86122129D02*
X21858530Y-86169748D01*
X21858530Y-86169748D02*
X21953768Y-86217367D01*
X21953768Y-86217367D02*
X22096625Y-86217367D01*
X22096625Y-86217367D02*
X22191863Y-86169748D01*
X21763292Y-85836415D02*
X21858530Y-85884034D01*
X21858530Y-85884034D02*
X22049006Y-85884034D01*
X22049006Y-85884034D02*
X22144244Y-85836415D01*
X22144244Y-85836415D02*
X22191863Y-85788795D01*
X22191863Y-85788795D02*
X22239482Y-85693557D01*
X22239482Y-85693557D02*
X22239482Y-85407843D01*
X22239482Y-85407843D02*
X22191863Y-85312605D01*
X22191863Y-85312605D02*
X22144244Y-85264986D01*
X22144244Y-85264986D02*
X22049006Y-85217367D01*
X22049006Y-85217367D02*
X21858530Y-85217367D01*
X21858530Y-85217367D02*
X21763292Y-85264986D01*
X21287101Y-85884034D02*
X21287101Y-84884034D01*
X21287101Y-84884034D02*
X20906149Y-84884034D01*
X20906149Y-84884034D02*
X20810911Y-84931653D01*
X20810911Y-84931653D02*
X20763292Y-84979272D01*
X20763292Y-84979272D02*
X20715673Y-85074510D01*
X20715673Y-85074510D02*
X20715673Y-85217367D01*
X20715673Y-85217367D02*
X20763292Y-85312605D01*
X20763292Y-85312605D02*
X20810911Y-85360224D01*
X20810911Y-85360224D02*
X20906149Y-85407843D01*
X20906149Y-85407843D02*
X21287101Y-85407843D01*
X20287101Y-85884034D02*
X20287101Y-85217367D01*
X20287101Y-84884034D02*
X20334720Y-84931653D01*
X20334720Y-84931653D02*
X20287101Y-84979272D01*
X20287101Y-84979272D02*
X20239482Y-84931653D01*
X20239482Y-84931653D02*
X20287101Y-84884034D01*
X20287101Y-84884034D02*
X20287101Y-84979272D01*
X19429959Y-85836415D02*
X19525197Y-85884034D01*
X19525197Y-85884034D02*
X19715673Y-85884034D01*
X19715673Y-85884034D02*
X19810911Y-85836415D01*
X19810911Y-85836415D02*
X19858530Y-85741176D01*
X19858530Y-85741176D02*
X19858530Y-85360224D01*
X19858530Y-85360224D02*
X19810911Y-85264986D01*
X19810911Y-85264986D02*
X19715673Y-85217367D01*
X19715673Y-85217367D02*
X19525197Y-85217367D01*
X19525197Y-85217367D02*
X19429959Y-85264986D01*
X19429959Y-85264986D02*
X19382340Y-85360224D01*
X19382340Y-85360224D02*
X19382340Y-85455462D01*
X19382340Y-85455462D02*
X19858530Y-85550700D01*
X18953768Y-85884034D02*
X18953768Y-85217367D01*
X18953768Y-85407843D02*
X18906149Y-85312605D01*
X18906149Y-85312605D02*
X18858530Y-85264986D01*
X18858530Y-85264986D02*
X18763292Y-85217367D01*
X18763292Y-85217367D02*
X18668054Y-85217367D01*
X18191863Y-85884034D02*
X18287101Y-85836415D01*
X18287101Y-85836415D02*
X18334720Y-85788795D01*
X18334720Y-85788795D02*
X18382339Y-85693557D01*
X18382339Y-85693557D02*
X18382339Y-85407843D01*
X18382339Y-85407843D02*
X18334720Y-85312605D01*
X18334720Y-85312605D02*
X18287101Y-85264986D01*
X18287101Y-85264986D02*
X18191863Y-85217367D01*
X18191863Y-85217367D02*
X18049006Y-85217367D01*
X18049006Y-85217367D02*
X17953768Y-85264986D01*
X17953768Y-85264986D02*
X17906149Y-85312605D01*
X17906149Y-85312605D02*
X17858530Y-85407843D01*
X17858530Y-85407843D02*
X17858530Y-85693557D01*
X17858530Y-85693557D02*
X17906149Y-85788795D01*
X17906149Y-85788795D02*
X17953768Y-85836415D01*
X17953768Y-85836415D02*
X18049006Y-85884034D01*
X18049006Y-85884034D02*
X18191863Y-85884034D01*
X17001387Y-85217367D02*
X17001387Y-86026891D01*
X17001387Y-86026891D02*
X17049006Y-86122129D01*
X17049006Y-86122129D02*
X17096625Y-86169748D01*
X17096625Y-86169748D02*
X17191863Y-86217367D01*
X17191863Y-86217367D02*
X17334720Y-86217367D01*
X17334720Y-86217367D02*
X17429958Y-86169748D01*
X17001387Y-85836415D02*
X17096625Y-85884034D01*
X17096625Y-85884034D02*
X17287101Y-85884034D01*
X17287101Y-85884034D02*
X17382339Y-85836415D01*
X17382339Y-85836415D02*
X17429958Y-85788795D01*
X17429958Y-85788795D02*
X17477577Y-85693557D01*
X17477577Y-85693557D02*
X17477577Y-85407843D01*
X17477577Y-85407843D02*
X17429958Y-85312605D01*
X17429958Y-85312605D02*
X17382339Y-85264986D01*
X17382339Y-85264986D02*
X17287101Y-85217367D01*
X17287101Y-85217367D02*
X17096625Y-85217367D01*
X17096625Y-85217367D02*
X17001387Y-85264986D01*
X16525196Y-85884034D02*
X16525196Y-85217367D01*
X16525196Y-84884034D02*
X16572815Y-84931653D01*
X16572815Y-84931653D02*
X16525196Y-84979272D01*
X16525196Y-84979272D02*
X16477577Y-84931653D01*
X16477577Y-84931653D02*
X16525196Y-84884034D01*
X16525196Y-84884034D02*
X16525196Y-84979272D01*
X16144244Y-86264986D02*
X16096625Y-86217367D01*
X16096625Y-86217367D02*
X16001387Y-86074510D01*
X16001387Y-86074510D02*
X15953768Y-85979272D01*
X15953768Y-85979272D02*
X15906149Y-85836415D01*
X15906149Y-85836415D02*
X15858530Y-85598319D01*
X15858530Y-85598319D02*
X15858530Y-85407843D01*
X15858530Y-85407843D02*
X15906149Y-85169748D01*
X15906149Y-85169748D02*
X15953768Y-85026891D01*
X15953768Y-85026891D02*
X16001387Y-84931653D01*
X16001387Y-84931653D02*
X16096625Y-84788795D01*
X16096625Y-84788795D02*
X16144244Y-84741176D01*
D12*
%TO.C,G\u002A\u002A\u002A*%
G36*
X93612297Y-59029523D02*
G01*
X93669705Y-59056552D01*
X93741648Y-59122388D01*
X93813546Y-59239511D01*
X93897540Y-59428975D01*
X94005773Y-59711835D01*
X94109948Y-59999427D01*
X94186224Y-60234527D01*
X94221575Y-60396445D01*
X94218109Y-60505378D01*
X94177934Y-60581527D01*
X94103158Y-60645089D01*
X93978715Y-60716709D01*
X93838794Y-60741158D01*
X93713477Y-60681441D01*
X93593849Y-60529042D01*
X93470995Y-60275443D01*
X93336000Y-59912127D01*
X93332015Y-59900464D01*
X93236726Y-59607130D01*
X93183877Y-59404791D01*
X93169567Y-59274347D01*
X93189895Y-59196696D01*
X93259537Y-59105710D01*
X93419508Y-59010618D01*
X93612297Y-59029523D01*
G37*
G36*
X92942034Y-53940012D02*
G01*
X93062096Y-53966012D01*
X93141441Y-54037567D01*
X93188132Y-54173237D01*
X93210234Y-54391583D01*
X93215810Y-54711165D01*
X93214435Y-54932360D01*
X93206004Y-55149809D01*
X93186197Y-55292037D01*
X93150828Y-55384938D01*
X93095715Y-55454404D01*
X92956498Y-55549802D01*
X92781190Y-55557539D01*
X92607061Y-55446128D01*
X92605433Y-55444497D01*
X92547638Y-55376816D01*
X92512903Y-55297302D01*
X92497697Y-55178973D01*
X92498488Y-54994847D01*
X92511743Y-54717941D01*
X92514224Y-54674453D01*
X92540692Y-54362198D01*
X92582143Y-54150149D01*
X92646938Y-54020603D01*
X92743438Y-53955858D01*
X92880004Y-53938210D01*
X92942034Y-53940012D01*
G37*
G36*
X115352927Y-61642473D02*
G01*
X115361491Y-61645411D01*
X115545201Y-61763338D01*
X115680709Y-61946741D01*
X115733540Y-62149676D01*
X115733425Y-62158464D01*
X115676238Y-62361342D01*
X115538059Y-62542789D01*
X115353442Y-62656708D01*
X115154783Y-62694448D01*
X114969748Y-62649772D01*
X114772784Y-62507331D01*
X114622666Y-62372189D01*
X111775496Y-62493310D01*
X108928326Y-62614432D01*
X108782806Y-62787373D01*
X108640999Y-62906925D01*
X108435557Y-62970426D01*
X108227876Y-62944609D01*
X108045742Y-62840113D01*
X107916940Y-62667574D01*
X107869256Y-62437630D01*
X107870006Y-62409739D01*
X107895167Y-62235934D01*
X107944315Y-62114449D01*
X108123732Y-61962756D01*
X108351957Y-61899825D01*
X108591303Y-61935384D01*
X108810226Y-62071016D01*
X108948241Y-62200674D01*
X111785453Y-62089063D01*
X114622666Y-61977451D01*
X114735634Y-61833902D01*
X114876569Y-61698294D01*
X115099273Y-61612515D01*
X115352927Y-61642473D01*
G37*
G36*
X101483961Y-53963948D02*
G01*
X101637956Y-54052300D01*
X101866177Y-54230721D01*
X102170018Y-54500252D01*
X102386831Y-54703457D01*
X102570926Y-54887805D01*
X102686428Y-55023950D01*
X102746256Y-55127427D01*
X102763328Y-55213774D01*
X102752965Y-55269210D01*
X102708465Y-55358626D01*
X102621065Y-55482545D01*
X102482381Y-55651068D01*
X102284027Y-55874299D01*
X102017618Y-56162339D01*
X101674770Y-56525291D01*
X101400722Y-56811026D01*
X101126068Y-57092005D01*
X100885578Y-57332444D01*
X100691227Y-57520556D01*
X100554989Y-57644555D01*
X100488836Y-57692655D01*
X100477905Y-57694886D01*
X100368924Y-57688829D01*
X100235485Y-57628222D01*
X100064457Y-57503658D01*
X99842711Y-57305729D01*
X99557118Y-57025026D01*
X99023013Y-56485392D01*
X99247976Y-55534555D01*
X99299533Y-55322152D01*
X99377928Y-55019260D01*
X99448566Y-54769257D01*
X99505277Y-54593576D01*
X99541892Y-54513648D01*
X99607781Y-54478281D01*
X99770625Y-54416145D01*
X100002602Y-54338090D01*
X100278512Y-54251576D01*
X100573154Y-54164062D01*
X100861327Y-54083010D01*
X101117831Y-54015879D01*
X101317465Y-53970130D01*
X101435028Y-53953222D01*
X101483961Y-53963948D01*
G37*
G36*
X100611384Y-42726167D02*
G01*
X100761691Y-42796496D01*
X100864825Y-42941587D01*
X100891351Y-43123408D01*
X100872135Y-43200132D01*
X100818714Y-43276543D01*
X100713157Y-43361524D01*
X100536897Y-43469835D01*
X100271365Y-43616236D01*
X100170768Y-43670896D01*
X99060236Y-44344143D01*
X98036308Y-45097988D01*
X97101289Y-45929972D01*
X96257485Y-46837634D01*
X95507201Y-47818517D01*
X94852744Y-48870159D01*
X94296419Y-49990101D01*
X94220460Y-50160149D01*
X94116324Y-50383717D01*
X94033039Y-50551273D01*
X93983781Y-50635610D01*
X93939972Y-50671131D01*
X93792399Y-50707673D01*
X93622123Y-50686629D01*
X93484772Y-50610769D01*
X93440579Y-50552398D01*
X93414801Y-50454666D01*
X93428878Y-50317231D01*
X93486790Y-50123429D01*
X93592516Y-49856596D01*
X93750036Y-49500069D01*
X93811385Y-49367025D01*
X94381937Y-48285947D01*
X95056810Y-47250262D01*
X95825787Y-46271988D01*
X96678649Y-45363141D01*
X97605179Y-44535739D01*
X98595158Y-43801799D01*
X98698316Y-43733451D01*
X99023158Y-43527510D01*
X99361093Y-43325007D01*
X99693130Y-43136236D01*
X100000279Y-42971492D01*
X100263549Y-42841071D01*
X100463951Y-42755269D01*
X100582494Y-42724380D01*
X100611384Y-42726167D01*
G37*
G36*
X116923759Y-58939275D02*
G01*
X117169000Y-59008035D01*
X117339998Y-59160256D01*
X117422820Y-59377654D01*
X117403532Y-59641946D01*
X117397533Y-59662249D01*
X117280227Y-59845647D01*
X117083075Y-59971350D01*
X116838187Y-60017997D01*
X116753065Y-60033447D01*
X116581311Y-60128876D01*
X116358421Y-60318234D01*
X116346056Y-60329851D01*
X116175666Y-60475573D01*
X116027458Y-60578720D01*
X115932288Y-60617612D01*
X115898318Y-60618526D01*
X115752639Y-60624562D01*
X115507533Y-60635708D01*
X115175936Y-60651344D01*
X114770786Y-60670851D01*
X114305019Y-60693608D01*
X113791572Y-60718998D01*
X113243383Y-60746398D01*
X110663155Y-60876043D01*
X110547974Y-61022472D01*
X110436366Y-61135511D01*
X110305980Y-61221433D01*
X110101773Y-61256623D01*
X109898383Y-61199336D01*
X109729448Y-61066975D01*
X109615241Y-60882712D01*
X109576035Y-60669720D01*
X109632101Y-60451169D01*
X109692410Y-60358171D01*
X109874751Y-60212324D01*
X110095928Y-60157917D01*
X110324633Y-60198860D01*
X110529557Y-60339065D01*
X110659545Y-60475133D01*
X113295334Y-60342039D01*
X115931124Y-60208946D01*
X116156081Y-59948341D01*
X116173956Y-59927491D01*
X116299281Y-59762561D01*
X116352851Y-59634284D01*
X116351566Y-59504273D01*
X116367793Y-59310360D01*
X116475792Y-59123112D01*
X116651120Y-58988661D01*
X116866416Y-58937146D01*
X116923759Y-58939275D01*
G37*
G36*
X106991144Y-63211525D02*
G01*
X107201383Y-63307280D01*
X107338156Y-63488845D01*
X107386968Y-63740929D01*
X107373587Y-63885127D01*
X107277698Y-64100635D01*
X107095446Y-64235020D01*
X106833919Y-64281354D01*
X106788518Y-64281917D01*
X106711442Y-64289645D01*
X106633242Y-64314005D01*
X106541591Y-64364387D01*
X106424161Y-64450176D01*
X106268625Y-64580761D01*
X106062654Y-64765530D01*
X105793923Y-65013870D01*
X105450102Y-65335170D01*
X105401974Y-65380242D01*
X105067704Y-65694478D01*
X104810482Y-65940012D01*
X104620295Y-66128098D01*
X104487136Y-66269993D01*
X104400992Y-66376953D01*
X104351855Y-66460234D01*
X104329713Y-66531092D01*
X104324557Y-66600782D01*
X104323913Y-66631067D01*
X104277660Y-66818452D01*
X104141629Y-66995506D01*
X104014338Y-67107248D01*
X103894582Y-67153193D01*
X103736310Y-67143032D01*
X103611400Y-67111910D01*
X103402369Y-66984625D01*
X103282155Y-66787856D01*
X103263495Y-66537904D01*
X103275813Y-66467491D01*
X103371541Y-66251446D01*
X103546728Y-66124231D01*
X103805795Y-66082129D01*
X103839045Y-66081656D01*
X103915617Y-66074089D01*
X103993684Y-66049881D01*
X104085508Y-65999634D01*
X104203354Y-65913949D01*
X104359485Y-65783429D01*
X104566166Y-65598676D01*
X104835660Y-65350291D01*
X105180231Y-65028877D01*
X105232389Y-64980100D01*
X105565877Y-64667035D01*
X105822390Y-64422497D01*
X106011947Y-64235230D01*
X106144569Y-64093975D01*
X106230277Y-63987474D01*
X106279091Y-63904468D01*
X106301031Y-63833699D01*
X106306117Y-63763909D01*
X106332030Y-63604383D01*
X106451430Y-63399013D01*
X106641903Y-63254882D01*
X106874677Y-63200503D01*
X106991144Y-63211525D01*
G37*
G36*
X113021468Y-63522390D02*
G01*
X113190681Y-63569744D01*
X113381809Y-63710316D01*
X113484006Y-63931263D01*
X113494636Y-63995807D01*
X113470648Y-64226549D01*
X113360850Y-64412622D01*
X113189978Y-64540462D01*
X112982768Y-64596503D01*
X112763958Y-64567179D01*
X112558282Y-64438926D01*
X112400916Y-64288671D01*
X110911465Y-64365198D01*
X109422013Y-64441726D01*
X109080023Y-64770748D01*
X108950474Y-64894452D01*
X108735979Y-65097614D01*
X108473976Y-65344615D01*
X108186195Y-65614972D01*
X107894368Y-65888207D01*
X107625430Y-66140779D01*
X107401463Y-66356101D01*
X107244242Y-66516729D01*
X107142161Y-66636404D01*
X107083614Y-66728868D01*
X107056997Y-66807860D01*
X107050703Y-66887124D01*
X107023283Y-67054437D01*
X106898878Y-67265155D01*
X106696424Y-67407094D01*
X106595347Y-67442635D01*
X106447349Y-67451986D01*
X106274416Y-67392123D01*
X106266058Y-67388157D01*
X106112512Y-67262519D01*
X105993592Y-67079120D01*
X105945833Y-66893411D01*
X105953767Y-66814075D01*
X106043874Y-66613678D01*
X106208267Y-66453321D01*
X106414088Y-66358862D01*
X106628483Y-66356159D01*
X106634103Y-66357280D01*
X106692182Y-66347677D01*
X106780963Y-66299893D01*
X106909682Y-66206343D01*
X107087577Y-66059440D01*
X107323886Y-65851600D01*
X107627846Y-65575236D01*
X108008695Y-65222762D01*
X109260919Y-64057454D01*
X109780090Y-64020485D01*
X109887120Y-64013355D01*
X110177804Y-63996445D01*
X110535604Y-63977888D01*
X110924998Y-63959482D01*
X111310464Y-63943026D01*
X112321667Y-63902536D01*
X112569077Y-63695831D01*
X112596564Y-63673081D01*
X112753283Y-63560120D01*
X112879919Y-63515640D01*
X113021468Y-63522390D01*
G37*
G36*
X111956924Y-53584245D02*
G01*
X111959693Y-53585310D01*
X112168265Y-53716310D01*
X112290833Y-53896340D01*
X112331912Y-54099786D01*
X112296017Y-54301034D01*
X112187662Y-54474473D01*
X112011363Y-54594488D01*
X111771633Y-54635466D01*
X111733606Y-54635103D01*
X111660607Y-54641952D01*
X111584056Y-54666632D01*
X111491960Y-54718349D01*
X111372327Y-54806306D01*
X111213165Y-54939706D01*
X111002480Y-55127754D01*
X110728282Y-55379654D01*
X110378577Y-55704609D01*
X110144582Y-55922713D01*
X109847626Y-56201244D01*
X109622378Y-56416873D01*
X109458852Y-56580964D01*
X109347067Y-56704880D01*
X109277037Y-56799987D01*
X109238779Y-56877649D01*
X109222310Y-56949230D01*
X109217646Y-57026095D01*
X109213879Y-57095624D01*
X109166773Y-57273132D01*
X109046462Y-57414124D01*
X109003260Y-57448101D01*
X108773547Y-57546264D01*
X108531747Y-57534311D01*
X108307402Y-57412314D01*
X108236899Y-57344302D01*
X108160284Y-57208282D01*
X108140289Y-57015633D01*
X108156593Y-56867220D01*
X108260772Y-56656693D01*
X108451282Y-56522394D01*
X108716515Y-56475208D01*
X108754887Y-56474534D01*
X108829138Y-56465535D01*
X108907282Y-56438650D01*
X109001241Y-56384658D01*
X109122935Y-56294338D01*
X109284284Y-56158469D01*
X109497210Y-55967832D01*
X109773632Y-55713205D01*
X110125471Y-55385369D01*
X110262610Y-55256994D01*
X110606655Y-54931098D01*
X110869995Y-54674365D01*
X111059742Y-54479282D01*
X111183011Y-54338340D01*
X111246914Y-54244027D01*
X111258564Y-54188831D01*
X111255155Y-54174681D01*
X111262416Y-54039765D01*
X111311607Y-53874133D01*
X111360886Y-53784949D01*
X111527382Y-53632455D01*
X111739259Y-53559625D01*
X111956924Y-53584245D01*
G37*
G36*
X118549461Y-60615097D02*
G01*
X118573145Y-60628505D01*
X118669775Y-60714730D01*
X118707284Y-60833831D01*
X118683841Y-61002599D01*
X118597614Y-61237824D01*
X118446771Y-61556295D01*
X118030892Y-62310938D01*
X117387735Y-63273947D01*
X116630593Y-64211404D01*
X115757215Y-65126300D01*
X115537112Y-65335094D01*
X114572723Y-66148573D01*
X113539754Y-66866173D01*
X112445374Y-67484577D01*
X111296754Y-68000472D01*
X110101061Y-68410540D01*
X108865464Y-68711469D01*
X107597134Y-68899941D01*
X107157738Y-68933019D01*
X106602858Y-68952199D01*
X106018755Y-68953307D01*
X105452326Y-68936319D01*
X104950470Y-68901213D01*
X104803801Y-68886000D01*
X103763051Y-68727061D01*
X102710219Y-68481939D01*
X101670109Y-68159169D01*
X100667525Y-67767285D01*
X99727270Y-67314823D01*
X98874148Y-66810317D01*
X98768962Y-66740123D01*
X98498894Y-66544915D01*
X98324530Y-66385630D01*
X98236570Y-66249452D01*
X98225717Y-66123568D01*
X98282672Y-65995162D01*
X98377344Y-65891962D01*
X98498294Y-65852769D01*
X98660337Y-65883210D01*
X98879906Y-65986430D01*
X99173436Y-66165571D01*
X99378479Y-66296057D01*
X100466818Y-66904735D01*
X101603689Y-67403614D01*
X102789416Y-67792821D01*
X104024320Y-68072483D01*
X104148832Y-68093398D01*
X104708497Y-68163249D01*
X105340346Y-68210595D01*
X106007609Y-68234610D01*
X106673517Y-68234471D01*
X107301301Y-68209351D01*
X107854192Y-68158425D01*
X109013628Y-67960618D01*
X110220795Y-67640790D01*
X111378701Y-67211942D01*
X112484680Y-66675381D01*
X113536059Y-66032415D01*
X114530172Y-65284349D01*
X115464347Y-64432492D01*
X115812950Y-64071698D01*
X116611289Y-63134708D01*
X117302025Y-62149648D01*
X117889014Y-61111237D01*
X117987461Y-60925651D01*
X118130620Y-60708933D01*
X118263066Y-60591652D01*
X118398209Y-60563731D01*
X118549461Y-60615097D01*
G37*
G36*
X108397621Y-59539328D02*
G01*
X108534756Y-59721951D01*
X108586004Y-59975691D01*
X108575356Y-60100177D01*
X108481342Y-60313016D01*
X108300951Y-60449940D01*
X108047147Y-60498376D01*
X108005903Y-60499344D01*
X107955186Y-60506425D01*
X107898313Y-60525523D01*
X107828539Y-60562526D01*
X107739116Y-60623321D01*
X107623299Y-60713796D01*
X107474340Y-60839839D01*
X107285494Y-61007336D01*
X107050013Y-61222176D01*
X106761152Y-61490247D01*
X106412164Y-61817435D01*
X105996302Y-62209628D01*
X105506819Y-62672714D01*
X104936971Y-63212581D01*
X104579304Y-63551577D01*
X104059438Y-64044778D01*
X103616838Y-64465754D01*
X103245284Y-64820885D01*
X102938558Y-65116550D01*
X102690439Y-65359127D01*
X102494709Y-65554994D01*
X102345148Y-65710532D01*
X102235537Y-65832117D01*
X102159656Y-65926131D01*
X102111287Y-65998950D01*
X102084209Y-66056954D01*
X102072204Y-66106522D01*
X102069053Y-66154032D01*
X102045564Y-66319061D01*
X101923479Y-66532261D01*
X101899579Y-66556164D01*
X101701319Y-66671774D01*
X101481813Y-66690583D01*
X101270629Y-66621408D01*
X101097334Y-66473065D01*
X100991498Y-66254370D01*
X100981767Y-66109403D01*
X101051812Y-65907148D01*
X101200515Y-65740781D01*
X101403242Y-65634814D01*
X101635358Y-65613757D01*
X101653446Y-65613223D01*
X101705791Y-65594274D01*
X101783604Y-65546783D01*
X101893006Y-65465292D01*
X102040119Y-65344341D01*
X102231062Y-65178474D01*
X102471956Y-64962230D01*
X102768923Y-64690152D01*
X103128082Y-64356782D01*
X103555556Y-63956661D01*
X104057464Y-63484331D01*
X104639927Y-62934332D01*
X105078900Y-62519266D01*
X105585883Y-62039391D01*
X106016608Y-61630583D01*
X106377376Y-61286374D01*
X106674486Y-61000299D01*
X106914239Y-60765889D01*
X107102934Y-60576678D01*
X107246873Y-60426200D01*
X107352354Y-60307987D01*
X107425679Y-60215573D01*
X107473147Y-60142490D01*
X107501058Y-60082273D01*
X107515713Y-60028454D01*
X107523412Y-59974567D01*
X107593115Y-59709130D01*
X107736707Y-59533357D01*
X107959338Y-59443226D01*
X108192370Y-59442922D01*
X108397621Y-59539328D01*
G37*
G36*
X114173843Y-56476028D02*
G01*
X114186004Y-56483403D01*
X114288969Y-56563690D01*
X114453410Y-56706487D01*
X114659332Y-56894050D01*
X114886736Y-57108635D01*
X115090431Y-57302580D01*
X115276761Y-57472321D01*
X115413300Y-57581329D01*
X115519409Y-57642823D01*
X115614447Y-57670024D01*
X115717772Y-57676153D01*
X115876501Y-57691685D01*
X116102348Y-57787161D01*
X116248203Y-57953762D01*
X116301047Y-58173058D01*
X116247864Y-58426621D01*
X116244425Y-58434693D01*
X116101973Y-58629615D01*
X115891759Y-58729294D01*
X115626218Y-58727706D01*
X115508631Y-58685687D01*
X115341093Y-58545620D01*
X115235035Y-58352710D01*
X115218290Y-58146603D01*
X115221678Y-58124097D01*
X115216001Y-58048011D01*
X115173075Y-57961722D01*
X115079476Y-57848173D01*
X114921778Y-57690308D01*
X114686555Y-57471071D01*
X114659107Y-57445918D01*
X114447094Y-57254572D01*
X114268946Y-57098769D01*
X114142656Y-56993957D01*
X114086218Y-56955586D01*
X114080322Y-56958245D01*
X114006901Y-57016757D01*
X113863510Y-57142689D01*
X113663710Y-57323784D01*
X113421061Y-57547789D01*
X113149124Y-57802449D01*
X113107760Y-57841459D01*
X112813438Y-58120817D01*
X112595016Y-58333603D01*
X112441336Y-58492929D01*
X112341234Y-58611908D01*
X112283551Y-58703653D01*
X112257126Y-58781278D01*
X112250798Y-58857895D01*
X112250798Y-58858190D01*
X112210466Y-59059013D01*
X112075275Y-59242002D01*
X111965059Y-59331053D01*
X111748549Y-59412123D01*
X111535782Y-59394818D01*
X111351949Y-59289808D01*
X111222243Y-59107765D01*
X111171857Y-58859358D01*
X111182748Y-58733269D01*
X111277145Y-58520996D01*
X111458077Y-58384769D01*
X111713032Y-58336673D01*
X111777495Y-58336572D01*
X111845365Y-58331406D01*
X111913611Y-58312706D01*
X111993205Y-58271968D01*
X112095120Y-58200689D01*
X112230327Y-58090367D01*
X112409798Y-57932498D01*
X112644505Y-57718580D01*
X112945421Y-57440108D01*
X113323518Y-57088581D01*
X113368107Y-57047153D01*
X113629921Y-56806577D01*
X113821758Y-56637821D01*
X113957842Y-56530636D01*
X114052400Y-56474774D01*
X114119659Y-56459987D01*
X114173843Y-56476028D01*
G37*
G36*
X106713431Y-41496705D02*
G01*
X107218613Y-41509912D01*
X107663085Y-41534870D01*
X108017465Y-41571815D01*
X108024110Y-41572771D01*
X109326170Y-41818505D01*
X110577905Y-42172513D01*
X111776320Y-42633133D01*
X112918423Y-43198706D01*
X114001220Y-43867573D01*
X115021717Y-44638074D01*
X115976922Y-45508548D01*
X116863841Y-46477335D01*
X117565196Y-47398103D01*
X118214801Y-48437367D01*
X118768654Y-49536036D01*
X119223659Y-50683626D01*
X119576723Y-51869654D01*
X119824749Y-53083636D01*
X119964644Y-54315088D01*
X119993312Y-55553525D01*
X119907659Y-56788465D01*
X119900208Y-56851786D01*
X119847475Y-57271143D01*
X119799255Y-57589098D01*
X119751618Y-57821884D01*
X119700637Y-57985733D01*
X119642384Y-58096875D01*
X119572928Y-58171543D01*
X119439146Y-58255411D01*
X119298232Y-58257852D01*
X119149264Y-58149560D01*
X119085865Y-58073920D01*
X119046949Y-57953999D01*
X119059818Y-57774265D01*
X119107292Y-57453730D01*
X119175031Y-56951073D01*
X119222781Y-56512796D01*
X119253449Y-56104741D01*
X119269939Y-55692750D01*
X119275158Y-55242663D01*
X119256331Y-54387414D01*
X119189170Y-53552725D01*
X119067695Y-52756916D01*
X118886062Y-51962253D01*
X118638428Y-51131000D01*
X118244380Y-50082651D01*
X117706827Y-48973630D01*
X117064157Y-47922599D01*
X116316591Y-46929916D01*
X115464347Y-45995937D01*
X114601391Y-45203581D01*
X113611622Y-44447790D01*
X112564389Y-43797001D01*
X111462360Y-43252521D01*
X110308204Y-42815657D01*
X109104592Y-42487716D01*
X107854192Y-42270004D01*
X107479203Y-42232919D01*
X106935934Y-42204307D01*
X106340689Y-42194719D01*
X105727667Y-42203563D01*
X105131066Y-42230244D01*
X104585085Y-42274169D01*
X104123921Y-42334745D01*
X103966812Y-42359242D01*
X103713211Y-42390275D01*
X103510557Y-42404549D01*
X103392344Y-42399115D01*
X103274970Y-42331697D01*
X103199185Y-42179035D01*
X103207898Y-41975456D01*
X103234708Y-41909530D01*
X103303846Y-41838515D01*
X103427072Y-41777906D01*
X103620731Y-41722030D01*
X103901166Y-41665217D01*
X104284722Y-41601795D01*
X104305157Y-41598673D01*
X104673194Y-41556666D01*
X105127420Y-41525229D01*
X105638455Y-41504599D01*
X106176918Y-41495013D01*
X106713431Y-41496705D01*
G37*
G36*
X113368930Y-54889776D02*
G01*
X113576457Y-55029454D01*
X113655560Y-55121170D01*
X113748776Y-55334213D01*
X113722408Y-55549054D01*
X113576457Y-55759259D01*
X113515778Y-55815829D01*
X113355253Y-55909785D01*
X113150676Y-55934782D01*
X113143759Y-55934793D01*
X113069613Y-55938231D01*
X112997567Y-55953871D01*
X112916444Y-55990491D01*
X112815063Y-56056873D01*
X112682248Y-56161797D01*
X112506820Y-56314042D01*
X112277600Y-56522389D01*
X111983410Y-56795619D01*
X111613072Y-57142510D01*
X111546396Y-57205016D01*
X111167659Y-57557583D01*
X110863052Y-57835606D01*
X110622585Y-58047385D01*
X110436269Y-58201224D01*
X110294114Y-58305426D01*
X110186131Y-58368293D01*
X110102329Y-58398128D01*
X110063244Y-58405293D01*
X109894732Y-58429535D01*
X109636196Y-58462015D01*
X109308379Y-58500281D01*
X108932022Y-58541878D01*
X108527867Y-58584354D01*
X107176803Y-58722691D01*
X106306117Y-59544550D01*
X105728394Y-60089888D01*
X104967310Y-60808446D01*
X104286017Y-61452020D01*
X103680061Y-62025004D01*
X103144989Y-62531795D01*
X102676347Y-62976786D01*
X102269680Y-63364372D01*
X101920535Y-63698950D01*
X101624457Y-63984913D01*
X101376994Y-64226658D01*
X101173692Y-64428578D01*
X101010095Y-64595069D01*
X100881751Y-64730526D01*
X100784206Y-64839344D01*
X100713005Y-64925919D01*
X100663696Y-64994644D01*
X100631823Y-65049916D01*
X100612933Y-65096129D01*
X100602573Y-65137678D01*
X100596288Y-65178958D01*
X100536247Y-65400587D01*
X100397786Y-65582161D01*
X100346238Y-65622610D01*
X100127419Y-65715477D01*
X99906893Y-65690067D01*
X99696297Y-65546966D01*
X99559961Y-65355395D01*
X99527040Y-65135083D01*
X99608624Y-64886122D01*
X99632976Y-64841841D01*
X99736607Y-64718881D01*
X99883693Y-64657833D01*
X100111146Y-64640669D01*
X100122298Y-64640440D01*
X100167824Y-64634623D01*
X100220679Y-64616875D01*
X100286998Y-64581754D01*
X100372916Y-64523816D01*
X100484569Y-64437616D01*
X100628090Y-64317711D01*
X100809614Y-64158656D01*
X101035278Y-63955009D01*
X101311215Y-63701325D01*
X101643561Y-63392161D01*
X102038450Y-63022072D01*
X102502017Y-62585615D01*
X103040398Y-62077345D01*
X103659726Y-61491820D01*
X106988040Y-58343940D01*
X107382658Y-58302792D01*
X107550560Y-58284969D01*
X107823409Y-58255531D01*
X108163104Y-58218573D01*
X108542233Y-58177078D01*
X108933387Y-58134029D01*
X110089498Y-58006413D01*
X111380314Y-56807549D01*
X111400250Y-56789032D01*
X111767317Y-56447483D01*
X112055970Y-56176441D01*
X112275616Y-55965494D01*
X112435662Y-55804230D01*
X112545515Y-55682235D01*
X112614581Y-55589097D01*
X112652268Y-55514403D01*
X112667981Y-55447740D01*
X112671129Y-55378697D01*
X112686658Y-55239387D01*
X112783396Y-55035662D01*
X112946572Y-54902843D01*
X113150359Y-54850894D01*
X113368930Y-54889776D01*
G37*
G36*
X101636550Y-42389333D02*
G01*
X101843091Y-42425563D01*
X102133202Y-42489385D01*
X102523138Y-42582395D01*
X102630978Y-42608940D01*
X103986339Y-43001705D01*
X105347238Y-43502335D01*
X106695336Y-44102013D01*
X108012290Y-44791922D01*
X109279759Y-45563244D01*
X110479403Y-46407163D01*
X110604244Y-46500877D01*
X110743228Y-46596885D01*
X110830865Y-46634456D01*
X110894076Y-46622775D01*
X110959781Y-46571023D01*
X111165965Y-46429370D01*
X111462316Y-46334111D01*
X111767153Y-46337016D01*
X112047906Y-46441948D01*
X112235321Y-46556229D01*
X112618355Y-46166287D01*
X112829803Y-45959352D01*
X113024549Y-45796940D01*
X113176884Y-45713775D01*
X113303454Y-45701239D01*
X113420904Y-45750712D01*
X113434048Y-45760566D01*
X113530242Y-45857894D01*
X113678615Y-46030588D01*
X113867625Y-46263252D01*
X114085734Y-46540491D01*
X114321401Y-46846908D01*
X114563087Y-47167109D01*
X114799251Y-47485696D01*
X115018354Y-47787276D01*
X115208855Y-48056452D01*
X115359215Y-48277828D01*
X115457894Y-48436009D01*
X115493351Y-48515600D01*
X115461409Y-48607375D01*
X115355258Y-48761208D01*
X115194297Y-48938109D01*
X115188404Y-48943917D01*
X115035761Y-49100252D01*
X114959057Y-49200633D01*
X114945386Y-49268765D01*
X114981841Y-49328357D01*
X114996621Y-49346200D01*
X115080330Y-49479607D01*
X115162929Y-49650190D01*
X115226400Y-49942646D01*
X115173071Y-50231112D01*
X115003908Y-50501653D01*
X114830702Y-50698924D01*
X114972168Y-50869926D01*
X114986185Y-50887269D01*
X115085587Y-51018244D01*
X115232009Y-51218614D01*
X115408054Y-51464363D01*
X115596320Y-51731473D01*
X115642389Y-51797640D01*
X116501464Y-53137839D01*
X117260349Y-54534082D01*
X117914278Y-55975914D01*
X118458488Y-57452881D01*
X118888213Y-58954529D01*
X118901626Y-59009308D01*
X118993963Y-59400388D01*
X119054440Y-59692391D01*
X119084474Y-59899827D01*
X119085486Y-60037202D01*
X119058894Y-60119026D01*
X119006117Y-60159807D01*
X118990445Y-60165448D01*
X118910369Y-60176288D01*
X118827986Y-60143170D01*
X118727161Y-60052142D01*
X118591759Y-59889249D01*
X118405644Y-59640539D01*
X118093222Y-59223125D01*
X117637787Y-58638228D01*
X117123739Y-57999922D01*
X116565431Y-57325975D01*
X115977216Y-56634157D01*
X115792498Y-56421168D01*
X115487679Y-56074355D01*
X115150222Y-55694786D01*
X114792577Y-55296112D01*
X114427192Y-54891984D01*
X114066517Y-54496051D01*
X113723001Y-54121963D01*
X113409095Y-53783371D01*
X113137246Y-53493925D01*
X112919905Y-53267275D01*
X112769521Y-53117071D01*
X112655902Y-53011431D01*
X112570434Y-52953906D01*
X112505742Y-52962231D01*
X112425955Y-53027000D01*
X112331900Y-53085586D01*
X112117178Y-53140587D01*
X111864668Y-53146044D01*
X111618428Y-53102653D01*
X111422516Y-53011113D01*
X111244692Y-52879642D01*
X104653716Y-59195983D01*
X104425349Y-59414805D01*
X103680831Y-60127800D01*
X102960252Y-60817259D01*
X102268436Y-61478595D01*
X101610204Y-62107221D01*
X100990381Y-62698549D01*
X100413787Y-63247993D01*
X99885248Y-63750965D01*
X99409585Y-64202879D01*
X98991620Y-64599147D01*
X98636178Y-64935182D01*
X98348080Y-65206398D01*
X98132150Y-65408206D01*
X97993210Y-65536021D01*
X97936083Y-65585255D01*
X97934796Y-65585990D01*
X97784505Y-65637637D01*
X97601718Y-65660314D01*
X97543128Y-65657421D01*
X97462739Y-65636357D01*
X97369707Y-65585283D01*
X97249847Y-65492950D01*
X97088977Y-65348109D01*
X96872913Y-65139509D01*
X96587470Y-64855903D01*
X95780931Y-64049363D01*
X95814860Y-63796403D01*
X95828333Y-63720081D01*
X95884017Y-63567836D01*
X95992520Y-63407974D01*
X96174360Y-63206843D01*
X96188149Y-63192551D01*
X96290580Y-63085892D01*
X96469377Y-62899341D01*
X96719316Y-62638357D01*
X97035175Y-62308401D01*
X97411731Y-61914930D01*
X97843762Y-61463404D01*
X98326046Y-60959281D01*
X98853359Y-60408022D01*
X99420479Y-59815084D01*
X100022184Y-59185926D01*
X100653250Y-58526008D01*
X101308456Y-57840789D01*
X101982578Y-57135728D01*
X102121404Y-56990529D01*
X102797911Y-56283113D01*
X103457707Y-55593404D01*
X104095272Y-54927162D01*
X104705084Y-54290148D01*
X105281621Y-53688121D01*
X105819364Y-53126844D01*
X106312790Y-52612074D01*
X106756378Y-52149574D01*
X107144608Y-51745103D01*
X107471958Y-51404421D01*
X107732906Y-51133289D01*
X107921933Y-50937467D01*
X108033516Y-50822716D01*
X108601807Y-50244220D01*
X108470289Y-50066331D01*
X108452578Y-50041504D01*
X108324466Y-49755807D01*
X108307572Y-49448040D01*
X108403735Y-49143703D01*
X108534852Y-48892151D01*
X108336205Y-48683793D01*
X108279222Y-48625719D01*
X108103479Y-48454565D01*
X107858901Y-48222722D01*
X107559484Y-47943011D01*
X107219223Y-47628257D01*
X106852111Y-47291281D01*
X106472145Y-46944908D01*
X106093319Y-46601960D01*
X105729628Y-46275260D01*
X105395067Y-45977632D01*
X105103631Y-45721897D01*
X104399468Y-45116474D01*
X103559164Y-44414239D01*
X102785854Y-43792647D01*
X102072784Y-43246179D01*
X101953227Y-43156599D01*
X101710879Y-42971970D01*
X101511067Y-42815627D01*
X101371871Y-42701845D01*
X101311371Y-42644903D01*
X101299206Y-42584987D01*
X101332112Y-42465657D01*
X101355773Y-42430270D01*
X101409148Y-42393280D01*
X101497321Y-42379104D01*
X101636550Y-42389333D01*
G37*
G36*
X101937443Y-46768328D02*
G01*
X102197380Y-46799216D01*
X102465731Y-46840842D01*
X102710442Y-46888412D01*
X102899460Y-46937135D01*
X103000733Y-46982221D01*
X103013305Y-46996533D01*
X103076759Y-47120437D01*
X103159564Y-47341166D01*
X103256060Y-47642581D01*
X103360590Y-48008541D01*
X103458639Y-48370707D01*
X103562176Y-48752478D01*
X103643185Y-49043084D01*
X103707517Y-49256322D01*
X103761021Y-49405985D01*
X103809548Y-49505871D01*
X103858947Y-49569775D01*
X103915069Y-49611492D01*
X103983764Y-49644818D01*
X104070882Y-49683548D01*
X104354676Y-49816470D01*
X105517674Y-49332837D01*
X105610807Y-49294305D01*
X105961647Y-49152718D01*
X106278027Y-49030421D01*
X106540961Y-48934407D01*
X106731464Y-48871670D01*
X106830550Y-48849203D01*
X106871488Y-48856689D01*
X107014238Y-48932030D01*
X107197850Y-49070347D01*
X107399424Y-49249235D01*
X107596064Y-49446290D01*
X107764871Y-49639106D01*
X107882947Y-49805281D01*
X107927394Y-49922408D01*
X107916216Y-49977517D01*
X107853352Y-50092249D01*
X107727453Y-50254944D01*
X107529840Y-50476463D01*
X107251831Y-50767669D01*
X106847864Y-51182280D01*
X106337968Y-51704996D01*
X105901471Y-52151431D01*
X105532405Y-52527461D01*
X105224804Y-52838962D01*
X104972700Y-53091809D01*
X104770126Y-53291879D01*
X104611114Y-53445048D01*
X104489697Y-53557192D01*
X104399907Y-53634186D01*
X104335777Y-53681907D01*
X104291339Y-53706231D01*
X104260627Y-53713033D01*
X104183465Y-53682757D01*
X104033034Y-53586561D01*
X103837034Y-53440121D01*
X103618334Y-53259581D01*
X103182912Y-52918113D01*
X102650130Y-52586651D01*
X102121237Y-52347486D01*
X101615432Y-52210670D01*
X101448959Y-52186424D01*
X100801203Y-52164211D01*
X100172509Y-52253393D01*
X99574196Y-52447112D01*
X99017582Y-52738512D01*
X98513984Y-53120734D01*
X98074720Y-53586922D01*
X97711109Y-54130220D01*
X97434468Y-54743768D01*
X97350088Y-55045434D01*
X97279109Y-55528633D01*
X97263705Y-56042684D01*
X97304515Y-56543154D01*
X97402181Y-56985610D01*
X97433183Y-57079288D01*
X97673716Y-57627476D01*
X98010354Y-58146743D01*
X98454935Y-58655873D01*
X98570743Y-58776562D01*
X98756570Y-58987903D01*
X98877275Y-59152254D01*
X98920302Y-59253487D01*
X98920216Y-59257059D01*
X98911249Y-59293657D01*
X98883328Y-59345525D01*
X98830489Y-59419031D01*
X98746772Y-59520540D01*
X98626212Y-59656418D01*
X98462849Y-59833031D01*
X98250719Y-60056745D01*
X97983860Y-60333926D01*
X97656310Y-60670940D01*
X97262106Y-61074154D01*
X96795286Y-61549932D01*
X96249888Y-62104640D01*
X96124831Y-62231240D01*
X95819311Y-62534412D01*
X95582847Y-62757752D01*
X95407282Y-62908418D01*
X95284457Y-62993569D01*
X95206213Y-63020361D01*
X95160268Y-63010139D01*
X95019980Y-62930598D01*
X94838801Y-62790662D01*
X94639501Y-62612480D01*
X94444853Y-62418205D01*
X94277626Y-62229987D01*
X94160591Y-62069977D01*
X94116519Y-61960326D01*
X94117145Y-61951144D01*
X94144358Y-61836924D01*
X94207106Y-61633374D01*
X94298903Y-61359925D01*
X94413261Y-61036004D01*
X94543691Y-60681042D01*
X94662777Y-60361124D01*
X94782339Y-60028129D01*
X94863410Y-59775399D01*
X94908742Y-59584953D01*
X94921088Y-59438806D01*
X94903199Y-59318975D01*
X94857828Y-59207476D01*
X94787726Y-59086327D01*
X94759102Y-59043006D01*
X94711035Y-58989782D01*
X94640842Y-58942768D01*
X94532687Y-58896513D01*
X94370735Y-58845569D01*
X94139152Y-58784488D01*
X93822101Y-58707820D01*
X93403747Y-58610117D01*
X93254913Y-58575218D01*
X92891726Y-58486809D01*
X92574405Y-58405012D01*
X92320790Y-58334695D01*
X92148722Y-58280724D01*
X92076042Y-58247965D01*
X92052314Y-58195445D01*
X92009554Y-58041500D01*
X91960665Y-57821421D01*
X91911123Y-57565744D01*
X91866406Y-57305004D01*
X91831989Y-57069737D01*
X91813348Y-56890481D01*
X91815961Y-56797770D01*
X91828198Y-56782483D01*
X91922510Y-56703946D01*
X92096401Y-56575073D01*
X92334922Y-56406513D01*
X92623123Y-56208913D01*
X92946053Y-55992920D01*
X94046394Y-55265596D01*
X94087336Y-54967917D01*
X94096132Y-54894911D01*
X94096969Y-54692984D01*
X94047339Y-54567493D01*
X94045500Y-54565177D01*
X93977496Y-54483776D01*
X93845332Y-54328660D01*
X93662700Y-54115791D01*
X93443291Y-53861129D01*
X93200798Y-53580637D01*
X92930850Y-53264397D01*
X92704806Y-52987024D01*
X92550935Y-52779883D01*
X92463109Y-52634664D01*
X92435195Y-52543060D01*
X92435476Y-52534448D01*
X92468334Y-52398828D01*
X92545513Y-52198796D01*
X92652266Y-51963699D01*
X92773846Y-51722887D01*
X92895505Y-51505709D01*
X93002498Y-51341512D01*
X93080076Y-51259648D01*
X93146746Y-51245474D01*
X93332231Y-51235677D01*
X93620672Y-51235611D01*
X94002609Y-51245243D01*
X94468580Y-51264539D01*
X95751374Y-51325820D01*
X95976863Y-51093304D01*
X96202352Y-50860787D01*
X96092058Y-49599794D01*
X96082410Y-49487649D01*
X96052680Y-49114261D01*
X96029846Y-48782800D01*
X96015020Y-48512673D01*
X96009314Y-48323289D01*
X96013838Y-48234054D01*
X96028487Y-48209306D01*
X96131249Y-48118871D01*
X96306104Y-48001304D01*
X96525710Y-47871539D01*
X96762723Y-47744506D01*
X96989800Y-47635136D01*
X97179598Y-47558361D01*
X97304774Y-47529111D01*
X97308010Y-47529156D01*
X97404695Y-47560045D01*
X97562745Y-47651403D01*
X97789222Y-47808102D01*
X98091185Y-48035014D01*
X98475696Y-48337011D01*
X98591825Y-48428934D01*
X98885919Y-48656072D01*
X99146801Y-48849656D01*
X99359537Y-48999064D01*
X99509189Y-49093675D01*
X99580822Y-49122869D01*
X99589638Y-49120692D01*
X99717121Y-49094198D01*
X99887333Y-49063530D01*
X99939139Y-49053162D01*
X100007379Y-49027836D01*
X100075871Y-48978632D01*
X100154854Y-48892355D01*
X100254567Y-48755811D01*
X100385250Y-48555808D01*
X100557140Y-48279151D01*
X100780478Y-47912646D01*
X100858849Y-47784300D01*
X101056797Y-47466709D01*
X101234653Y-47190457D01*
X101382113Y-46971026D01*
X101488873Y-46823898D01*
X101544628Y-46764555D01*
X101571019Y-46757926D01*
X101717972Y-46752967D01*
X101937443Y-46768328D01*
G37*
%TD*%
%LPC*%
D13*
%TO.C,H4*%
X121500000Y-90800000D03*
%TD*%
D14*
%TO.C,J5*%
X38375000Y-30895000D03*
D15*
X43075000Y-27895000D03*
D16*
X43075000Y-34095000D03*
%TD*%
D17*
%TO.C,J21*%
X121246571Y-33355001D03*
D18*
X121246571Y-31355001D03*
%TD*%
D19*
%TO.C,J2*%
X77995000Y-36575000D03*
D20*
X70795000Y-36575000D03*
D21*
X81145000Y-30575000D03*
X67645000Y-30575000D03*
%TD*%
D22*
%TO.C,J4*%
X88195000Y-33375000D03*
D23*
X93195000Y-33375000D03*
D24*
X96195000Y-23375000D03*
X85195000Y-23375000D03*
%TD*%
D13*
%TO.C,H3*%
X19500000Y-90800000D03*
%TD*%
D22*
%TO.C,J3*%
X102745000Y-33375000D03*
D23*
X107745000Y-33375000D03*
D24*
X110745000Y-23375000D03*
X99745000Y-23375000D03*
%TD*%
D13*
%TO.C,H1*%
X19500000Y-23800000D03*
%TD*%
D25*
%TO.C,J11*%
X93000000Y-73650000D03*
D26*
X93000000Y-78650000D03*
%TD*%
D27*
%TO.C,J22*%
X114775000Y-33375000D03*
D28*
X114775000Y-30835000D03*
%TD*%
D25*
%TO.C,J7*%
X53000000Y-73650000D03*
D26*
X53000000Y-78650000D03*
%TD*%
D27*
%TO.C,J23*%
X36725000Y-44475000D03*
D28*
X36725000Y-41935000D03*
X39265000Y-44475000D03*
X39265000Y-41935000D03*
X41805000Y-44475000D03*
X41805000Y-41935000D03*
X44345000Y-44475000D03*
X44345000Y-41935000D03*
%TD*%
D25*
%TO.C,J9*%
X73000000Y-73650000D03*
D26*
X73000000Y-78650000D03*
%TD*%
D13*
%TO.C,H2*%
X121500000Y-23800000D03*
%TD*%
D25*
%TO.C,J10*%
X83000000Y-73650000D03*
D26*
X83000000Y-78650000D03*
%TD*%
D25*
%TO.C,J8*%
X63000000Y-73650000D03*
D26*
X63000000Y-78650000D03*
%TD*%
D19*
%TO.C,J1*%
X60445000Y-36575000D03*
D20*
X53245000Y-36575000D03*
D21*
X63595000Y-30575000D03*
X50095000Y-30575000D03*
%TD*%
D27*
%TO.C,J12*%
X19646571Y-80925001D03*
D28*
X22186571Y-80925001D03*
X24726571Y-80925001D03*
%TD*%
D25*
%TO.C,J6*%
X103000000Y-73650000D03*
D26*
X103000000Y-78650000D03*
%TD*%
%LPD*%
M02*
