%TF.GenerationSoftware,KiCad,Pcbnew,8.0.5+1*%
%TF.CreationDate,2024-10-17T19:04:23-04:00*%
%TF.ProjectId,mainBoard,6d61696e-426f-4617-9264-2e6b69636164,rev?*%
%TF.SameCoordinates,Original*%
%TF.FileFunction,Copper,L1,Top*%
%TF.FilePolarity,Positive*%
%FSLAX46Y46*%
G04 Gerber Fmt 4.6, Leading zero omitted, Abs format (unit mm)*
G04 Created by KiCad (PCBNEW 8.0.5+1) date 2024-10-17 19:04:23*
%MOMM*%
%LPD*%
G01*
G04 APERTURE LIST*
G04 Aperture macros list*
%AMRoundRect*
0 Rectangle with rounded corners*
0 $1 Rounding radius*
0 $2 $3 $4 $5 $6 $7 $8 $9 X,Y pos of 4 corners*
0 Add a 4 corners polygon primitive as box body*
4,1,4,$2,$3,$4,$5,$6,$7,$8,$9,$2,$3,0*
0 Add four circle primitives for the rounded corners*
1,1,$1+$1,$2,$3*
1,1,$1+$1,$4,$5*
1,1,$1+$1,$6,$7*
1,1,$1+$1,$8,$9*
0 Add four rect primitives between the rounded corners*
20,1,$1+$1,$2,$3,$4,$5,0*
20,1,$1+$1,$4,$5,$6,$7,0*
20,1,$1+$1,$6,$7,$8,$9,0*
20,1,$1+$1,$8,$9,$2,$3,0*%
G04 Aperture macros list end*
%TA.AperFunction,SMDPad,CuDef*%
%ADD10RoundRect,0.250000X-0.450000X0.350000X-0.450000X-0.350000X0.450000X-0.350000X0.450000X0.350000X0*%
%TD*%
%TA.AperFunction,SMDPad,CuDef*%
%ADD11RoundRect,0.150000X-0.625000X0.150000X-0.625000X-0.150000X0.625000X-0.150000X0.625000X0.150000X0*%
%TD*%
%TA.AperFunction,SMDPad,CuDef*%
%ADD12RoundRect,0.250000X-0.650000X0.350000X-0.650000X-0.350000X0.650000X-0.350000X0.650000X0.350000X0*%
%TD*%
%TA.AperFunction,SMDPad,CuDef*%
%ADD13RoundRect,0.250000X0.450000X-0.350000X0.450000X0.350000X-0.450000X0.350000X-0.450000X-0.350000X0*%
%TD*%
%TA.AperFunction,ComponentPad*%
%ADD14O,2.000000X4.000000*%
%TD*%
%TA.AperFunction,ComponentPad*%
%ADD15O,4.000000X2.000000*%
%TD*%
%TA.AperFunction,ComponentPad*%
%ADD16R,4.500000X2.000000*%
%TD*%
%TA.AperFunction,ComponentPad*%
%ADD17RoundRect,0.250000X0.625000X-0.350000X0.625000X0.350000X-0.625000X0.350000X-0.625000X-0.350000X0*%
%TD*%
%TA.AperFunction,ComponentPad*%
%ADD18O,1.750000X1.200000*%
%TD*%
%TA.AperFunction,ComponentPad*%
%ADD19C,4.100000*%
%TD*%
%TA.AperFunction,ComponentPad*%
%ADD20RoundRect,1.025000X-1.025000X-1.025000X1.025000X-1.025000X1.025000X1.025000X-1.025000X1.025000X0*%
%TD*%
%TA.AperFunction,ComponentPad*%
%ADD21R,0.900000X2.000000*%
%TD*%
%TA.AperFunction,SMDPad,CuDef*%
%ADD22RoundRect,0.250000X0.650000X-0.350000X0.650000X0.350000X-0.650000X0.350000X-0.650000X-0.350000X0*%
%TD*%
%TA.AperFunction,SMDPad,CuDef*%
%ADD23RoundRect,0.150000X0.625000X-0.150000X0.625000X0.150000X-0.625000X0.150000X-0.625000X-0.150000X0*%
%TD*%
%TA.AperFunction,SMDPad,CuDef*%
%ADD24RoundRect,0.250000X-0.337500X-0.475000X0.337500X-0.475000X0.337500X0.475000X-0.337500X0.475000X0*%
%TD*%
%TA.AperFunction,SMDPad,CuDef*%
%ADD25RoundRect,0.250000X0.337500X0.475000X-0.337500X0.475000X-0.337500X-0.475000X0.337500X-0.475000X0*%
%TD*%
%TA.AperFunction,SMDPad,CuDef*%
%ADD26RoundRect,0.250000X0.475000X-0.337500X0.475000X0.337500X-0.475000X0.337500X-0.475000X-0.337500X0*%
%TD*%
%TA.AperFunction,ComponentPad*%
%ADD27C,3.500000*%
%TD*%
%TA.AperFunction,ComponentPad*%
%ADD28R,3.500000X3.500000*%
%TD*%
%TA.AperFunction,ComponentPad*%
%ADD29C,1.400000*%
%TD*%
%TA.AperFunction,SMDPad,CuDef*%
%ADD30RoundRect,0.250000X-0.350000X-0.450000X0.350000X-0.450000X0.350000X0.450000X-0.350000X0.450000X0*%
%TD*%
%TA.AperFunction,ComponentPad*%
%ADD31R,3.800000X3.800000*%
%TD*%
%TA.AperFunction,ComponentPad*%
%ADD32C,3.800000*%
%TD*%
%TA.AperFunction,SMDPad,CuDef*%
%ADD33RoundRect,0.150000X-0.512500X-0.150000X0.512500X-0.150000X0.512500X0.150000X-0.512500X0.150000X0*%
%TD*%
%TA.AperFunction,ComponentPad*%
%ADD34R,1.700000X1.700000*%
%TD*%
%TA.AperFunction,ComponentPad*%
%ADD35O,1.700000X1.700000*%
%TD*%
%TA.AperFunction,SMDPad,CuDef*%
%ADD36RoundRect,0.150000X-0.150000X0.512500X-0.150000X-0.512500X0.150000X-0.512500X0.150000X0.512500X0*%
%TD*%
%TA.AperFunction,SMDPad,CuDef*%
%ADD37RoundRect,0.235000X1.465000X-0.940000X1.465000X0.940000X-1.465000X0.940000X-1.465000X-0.940000X0*%
%TD*%
%TA.AperFunction,SMDPad,CuDef*%
%ADD38RoundRect,0.250000X0.325000X0.450000X-0.325000X0.450000X-0.325000X-0.450000X0.325000X-0.450000X0*%
%TD*%
%TA.AperFunction,SMDPad,CuDef*%
%ADD39RoundRect,0.250000X-0.850000X-0.350000X0.850000X-0.350000X0.850000X0.350000X-0.850000X0.350000X0*%
%TD*%
%TA.AperFunction,SMDPad,CuDef*%
%ADD40RoundRect,0.250000X-1.275000X-1.125000X1.275000X-1.125000X1.275000X1.125000X-1.275000X1.125000X0*%
%TD*%
%TA.AperFunction,SMDPad,CuDef*%
%ADD41RoundRect,0.249997X-2.950003X-2.650003X2.950003X-2.650003X2.950003X2.650003X-2.950003X2.650003X0*%
%TD*%
%TA.AperFunction,SMDPad,CuDef*%
%ADD42RoundRect,0.250000X-0.475000X0.337500X-0.475000X-0.337500X0.475000X-0.337500X0.475000X0.337500X0*%
%TD*%
%TA.AperFunction,SMDPad,CuDef*%
%ADD43RoundRect,0.250000X0.400000X1.075000X-0.400000X1.075000X-0.400000X-1.075000X0.400000X-1.075000X0*%
%TD*%
%TA.AperFunction,SMDPad,CuDef*%
%ADD44RoundRect,0.250000X0.350000X0.450000X-0.350000X0.450000X-0.350000X-0.450000X0.350000X-0.450000X0*%
%TD*%
%TA.AperFunction,SMDPad,CuDef*%
%ADD45RoundRect,0.150000X-0.825000X-0.150000X0.825000X-0.150000X0.825000X0.150000X-0.825000X0.150000X0*%
%TD*%
%TA.AperFunction,SMDPad,CuDef*%
%ADD46RoundRect,0.250000X0.450000X-0.325000X0.450000X0.325000X-0.450000X0.325000X-0.450000X-0.325000X0*%
%TD*%
%TA.AperFunction,SMDPad,CuDef*%
%ADD47RoundRect,0.100000X-0.637500X-0.100000X0.637500X-0.100000X0.637500X0.100000X-0.637500X0.100000X0*%
%TD*%
%TA.AperFunction,SMDPad,CuDef*%
%ADD48RoundRect,0.250000X-0.325000X-0.450000X0.325000X-0.450000X0.325000X0.450000X-0.325000X0.450000X0*%
%TD*%
%TA.AperFunction,ViaPad*%
%ADD49C,0.800000*%
%TD*%
%TA.AperFunction,ViaPad*%
%ADD50C,1.000000*%
%TD*%
%TA.AperFunction,ViaPad*%
%ADD51C,0.600000*%
%TD*%
%TA.AperFunction,ViaPad*%
%ADD52C,1.500000*%
%TD*%
%TA.AperFunction,Conductor*%
%ADD53C,0.600000*%
%TD*%
%TA.AperFunction,Conductor*%
%ADD54C,0.200000*%
%TD*%
%TA.AperFunction,Conductor*%
%ADD55C,0.400000*%
%TD*%
%TA.AperFunction,Conductor*%
%ADD56C,1.000000*%
%TD*%
%TA.AperFunction,Conductor*%
%ADD57C,1.500000*%
%TD*%
G04 APERTURE END LIST*
D10*
%TO.P,R26,1*%
%TO.N,+3V3*%
X25795000Y-64753429D03*
%TO.P,R26,2*%
%TO.N,SDA1*%
X25795000Y-66753429D03*
%TD*%
%TO.P,R25,1*%
%TO.N,+3V3*%
X28125000Y-64753429D03*
%TO.P,R25,2*%
%TO.N,SCL1*%
X28125000Y-66753429D03*
%TD*%
D11*
%TO.P,J26,1,Pin_1*%
%TO.N,CANP*%
X101675000Y-86000000D03*
%TO.P,J26,2,Pin_2*%
%TO.N,CANN*%
X101675000Y-87000000D03*
D12*
%TO.P,J26,MP*%
%TO.N,N/C*%
X104200000Y-84700000D03*
X104200000Y-88300000D03*
%TD*%
D13*
%TO.P,R12,1*%
%TO.N,+12V*%
X122796571Y-53425001D03*
%TO.P,R12,2*%
%TO.N,Net-(U1-EN)*%
X122796571Y-51425001D03*
%TD*%
%TO.P,R11,1*%
%TO.N,+12V*%
X93346571Y-64325001D03*
%TO.P,R11,2*%
%TO.N,Net-(U2-EN)*%
X93346571Y-62325001D03*
%TD*%
D14*
%TO.P,J5,3*%
%TO.N,N/C*%
X38375000Y-30895000D03*
D15*
%TO.P,J5,2*%
%TO.N,GND*%
X43075000Y-27895000D03*
D16*
%TO.P,J5,1*%
%TO.N,+12V*%
X43075000Y-34095000D03*
%TD*%
D17*
%TO.P,J21,1,Pin_1*%
%TO.N,+5V*%
X121246571Y-33355001D03*
D18*
%TO.P,J21,2,Pin_2*%
%TO.N,GND*%
X121246571Y-31355001D03*
%TD*%
D19*
%TO.P,J2,2,Pin_2*%
%TO.N,GND*%
X77995000Y-36575000D03*
D20*
%TO.P,J2,1,Pin_1*%
%TO.N,+12V*%
X70795000Y-36575000D03*
D21*
%TO.P,J2,*%
%TO.N,*%
X81145000Y-30575000D03*
X67645000Y-30575000D03*
%TD*%
D22*
%TO.P,J16,MP*%
%TO.N,N/C*%
X18525000Y-34005000D03*
X18525000Y-39605000D03*
D23*
%TO.P,J16,4,4*%
%TO.N,GND*%
X21050000Y-35305000D03*
%TO.P,J16,3,3*%
%TO.N,+3V3*%
X21050000Y-36305000D03*
%TO.P,J16,2,2*%
%TO.N,SDAS0*%
X21050000Y-37305000D03*
%TO.P,J16,1,1*%
%TO.N,SCLS0*%
X21050000Y-38305000D03*
%TD*%
D24*
%TO.P,C5,1*%
%TO.N,+5V*%
X107727500Y-41015000D03*
%TO.P,C5,2*%
%TO.N,GND*%
X109802500Y-41015000D03*
%TD*%
D25*
%TO.P,C3,1*%
%TO.N,Net-(Q2-S)*%
X114289071Y-58490001D03*
%TO.P,C3,2*%
%TO.N,GND*%
X112214071Y-58490001D03*
%TD*%
D24*
%TO.P,C6,1*%
%TO.N,+5V*%
X107737500Y-43075000D03*
%TO.P,C6,2*%
%TO.N,GND*%
X109812500Y-43075000D03*
%TD*%
D26*
%TO.P,C8,1*%
%TO.N,Net-(Q1-S)*%
X88431094Y-56090930D03*
%TO.P,C8,2*%
%TO.N,GND*%
X88431094Y-54015930D03*
%TD*%
D27*
%TO.P,J4,2,Pin_2*%
%TO.N,GND*%
X88195000Y-33375000D03*
D28*
%TO.P,J4,1,Pin_1*%
%TO.N,+3V3*%
X93195000Y-33375000D03*
D29*
%TO.P,J4,*%
%TO.N,*%
X96195000Y-23375000D03*
X85195000Y-23375000D03*
%TD*%
D30*
%TO.P,R6,1*%
%TO.N,Net-(U2-VFB)*%
X92391094Y-60353430D03*
%TO.P,R6,2*%
%TO.N,+3V3*%
X94391094Y-60353430D03*
%TD*%
D27*
%TO.P,J3,2,Pin_2*%
%TO.N,GND*%
X102745000Y-33375000D03*
D28*
%TO.P,J3,1,Pin_1*%
%TO.N,+5V*%
X107745000Y-33375000D03*
D29*
%TO.P,J3,*%
%TO.N,*%
X110745000Y-23375000D03*
X99745000Y-23375000D03*
%TD*%
D24*
%TO.P,C12,1*%
%TO.N,+3V3*%
X93252978Y-42975000D03*
%TO.P,C12,2*%
%TO.N,GND*%
X95327978Y-42975000D03*
%TD*%
D13*
%TO.P,R3,1*%
%TO.N,CANP*%
X38075000Y-75125000D03*
%TO.P,R3,2*%
%TO.N,Net-(C16-Pad1)*%
X38075000Y-73125000D03*
%TD*%
D25*
%TO.P,C2,1*%
%TO.N,Net-(Q2-S)*%
X114289071Y-56400001D03*
%TO.P,C2,2*%
%TO.N,GND*%
X112214071Y-56400001D03*
%TD*%
D31*
%TO.P,J11,1,Pin_1*%
%TO.N,+12V*%
X93000000Y-73650000D03*
D32*
%TO.P,J11,2,Pin_2*%
%TO.N,GND*%
X93000000Y-78650000D03*
%TD*%
D33*
%TO.P,U1,1,GND*%
%TO.N,GND*%
X114339071Y-50600001D03*
%TO.P,U1,2,SW*%
%TO.N,Net-(U1-SW)*%
X114339071Y-51550001D03*
%TO.P,U1,3,VIN*%
%TO.N,Net-(Q2-S)*%
X114339071Y-52500001D03*
%TO.P,U1,4,VFB*%
%TO.N,Net-(U1-VFB)*%
X116614071Y-52500001D03*
%TO.P,U1,5,EN*%
%TO.N,Net-(U1-EN)*%
X116614071Y-51550001D03*
%TO.P,U1,6,VBST*%
%TO.N,Net-(U1-VBST)*%
X116614071Y-50600001D03*
%TD*%
D26*
%TO.P,C16,1*%
%TO.N,Net-(C16-Pad1)*%
X38075000Y-71382500D03*
%TO.P,C16,2*%
%TO.N,GND*%
X38075000Y-69307500D03*
%TD*%
D34*
%TO.P,J22,1,Pin_1*%
%TO.N,+5V*%
X114775000Y-33375000D03*
D35*
%TO.P,J22,2,Pin_2*%
%TO.N,GND*%
X114775000Y-30835000D03*
%TD*%
D31*
%TO.P,J7,1,Pin_1*%
%TO.N,+12V*%
X53000000Y-73650000D03*
D32*
%TO.P,J7,2,Pin_2*%
%TO.N,GND*%
X53000000Y-78650000D03*
%TD*%
D12*
%TO.P,J15,MP*%
%TO.N,N/C*%
X74200000Y-88300000D03*
X74200000Y-84700000D03*
D11*
%TO.P,J15,2,Pin_2*%
%TO.N,CANN*%
X71675000Y-87000000D03*
%TO.P,J15,1,Pin_1*%
%TO.N,CANP*%
X71675000Y-86000000D03*
%TD*%
D10*
%TO.P,R19,1*%
%TO.N,+3V3*%
X25795000Y-49595000D03*
%TO.P,R19,2*%
%TO.N,SCLS2*%
X25795000Y-51595000D03*
%TD*%
D25*
%TO.P,C1,1*%
%TO.N,Net-(Q2-S)*%
X114289071Y-54310001D03*
%TO.P,C1,2*%
%TO.N,GND*%
X112214071Y-54310001D03*
%TD*%
D10*
%TO.P,R2,2*%
%TO.N,Net-(U1-VFB)*%
X120576571Y-52495001D03*
%TO.P,R2,1*%
%TO.N,GND*%
X120576571Y-50495001D03*
%TD*%
%TO.P,R17,1*%
%TO.N,+3V3*%
X25895000Y-41695000D03*
%TO.P,R17,2*%
%TO.N,SCLS1*%
X25895000Y-43695000D03*
%TD*%
D36*
%TO.P,U2,1,GND*%
%TO.N,GND*%
X94291094Y-56065930D03*
%TO.P,U2,2,SW*%
%TO.N,Net-(U2-SW)*%
X93341094Y-56065930D03*
%TO.P,U2,3,VIN*%
%TO.N,Net-(Q1-S)*%
X92391094Y-56065930D03*
%TO.P,U2,4,VFB*%
%TO.N,Net-(U2-VFB)*%
X92391094Y-58340930D03*
%TO.P,U2,5,EN*%
%TO.N,Net-(U2-EN)*%
X93341094Y-58340930D03*
%TO.P,U2,6,VBST*%
%TO.N,Net-(U2-VBST)*%
X94291094Y-58340930D03*
%TD*%
D37*
%TO.P,L2,1,1*%
%TO.N,Net-(U2-SW)*%
X93311094Y-51508430D03*
%TO.P,L2,2,2*%
%TO.N,+3V3*%
X93311094Y-45458430D03*
%TD*%
D34*
%TO.P,J23,1,Pin_1*%
%TO.N,unconnected-(J23-Pin_1-Pad1)*%
X36725000Y-44475000D03*
D35*
%TO.P,J23,2,Pin_2*%
%TO.N,unconnected-(J23-Pin_2-Pad2)*%
X36725000Y-41935000D03*
%TO.P,J23,3,Pin_3*%
%TO.N,SDA1*%
X39265000Y-44475000D03*
%TO.P,J23,4,Pin_4*%
%TO.N,unconnected-(J23-Pin_4-Pad4)*%
X39265000Y-41935000D03*
%TO.P,J23,5,Pin_5*%
%TO.N,SCL1*%
X41805000Y-44475000D03*
%TO.P,J23,6,Pin_6*%
%TO.N,GND*%
X41805000Y-41935000D03*
%TO.P,J23,7,Pin_7*%
%TO.N,GPIO_GCLK*%
X44345000Y-44475000D03*
%TO.P,J23,8,Pin_8*%
%TO.N,unconnected-(J23-Pin_8-Pad8)*%
X44345000Y-41935000D03*
%TD*%
D10*
%TO.P,R20,1*%
%TO.N,+3V3*%
X28125000Y-49595000D03*
%TO.P,R20,2*%
%TO.N,SDAS2*%
X28125000Y-51595000D03*
%TD*%
D38*
%TO.P,D2,1,K*%
%TO.N,GND*%
X35841571Y-32025001D03*
%TO.P,D2,2,A*%
%TO.N,Net-(D2-A)*%
X33791571Y-32025001D03*
%TD*%
D10*
%TO.P,R16,1*%
%TO.N,+3V3*%
X28225000Y-33795000D03*
%TO.P,R16,2*%
%TO.N,SDAS0*%
X28225000Y-35795000D03*
%TD*%
D26*
%TO.P,C10,1*%
%TO.N,Net-(Q1-S)*%
X86351094Y-56090930D03*
%TO.P,C10,2*%
%TO.N,GND*%
X86351094Y-54015930D03*
%TD*%
D30*
%TO.P,R7,1*%
%TO.N,GND*%
X88541094Y-60353430D03*
%TO.P,R7,2*%
%TO.N,Net-(U2-VFB)*%
X90541094Y-60353430D03*
%TD*%
D39*
%TO.P,Q2,1,G*%
%TO.N,Net-(Q2-G)*%
X106175000Y-60805000D03*
D40*
%TO.P,Q2,2,S*%
%TO.N,Net-(Q2-S)*%
X110800000Y-61560000D03*
X110800000Y-64610000D03*
D41*
X112475000Y-63085000D03*
D40*
X114150000Y-61560000D03*
X114150000Y-64610000D03*
D39*
%TO.P,Q2,3,D*%
%TO.N,+12V*%
X106175000Y-65365000D03*
%TD*%
D10*
%TO.P,R18,1*%
%TO.N,+3V3*%
X28225000Y-41695000D03*
%TO.P,R18,2*%
%TO.N,SDAS1*%
X28225000Y-43695000D03*
%TD*%
D30*
%TO.P,R5,1*%
%TO.N,Net-(D2-A)*%
X33816571Y-34075001D03*
%TO.P,R5,2*%
%TO.N,+12V*%
X35816571Y-34075001D03*
%TD*%
D42*
%TO.P,C4,1*%
%TO.N,Net-(U1-VBST)*%
X112266571Y-49527501D03*
%TO.P,C4,2*%
%TO.N,Net-(U1-SW)*%
X112266571Y-51602501D03*
%TD*%
D30*
%TO.P,R10,1*%
%TO.N,Net-(Q1-G)*%
X75325000Y-49221428D03*
%TO.P,R10,2*%
%TO.N,GND*%
X77325000Y-49221428D03*
%TD*%
D43*
%TO.P,R13,1*%
%TO.N,Net-(Q2-S)*%
X110676571Y-68325001D03*
%TO.P,R13,2*%
%TO.N,+12V*%
X107576571Y-68325001D03*
%TD*%
D25*
%TO.P,C11,1*%
%TO.N,Net-(U2-VBST)*%
X95408594Y-54013430D03*
%TO.P,C11,2*%
%TO.N,Net-(U2-SW)*%
X93333594Y-54013430D03*
%TD*%
D43*
%TO.P,R14,1*%
%TO.N,Net-(Q1-S)*%
X79851095Y-59035001D03*
%TO.P,R14,2*%
%TO.N,+12V*%
X76751095Y-59035001D03*
%TD*%
D22*
%TO.P,J17,MP*%
%TO.N,N/C*%
X18525000Y-41905000D03*
X18525000Y-47505000D03*
D23*
%TO.P,J17,4,4*%
%TO.N,GND*%
X21050000Y-43205000D03*
%TO.P,J17,3,3*%
%TO.N,+3V3*%
X21050000Y-44205000D03*
%TO.P,J17,2,2*%
%TO.N,SDAS1*%
X21050000Y-45205000D03*
%TO.P,J17,1,1*%
%TO.N,SCLS1*%
X21050000Y-46205000D03*
%TD*%
D22*
%TO.P,J20,MP*%
%TO.N,N/C*%
X18525000Y-65605000D03*
X18525000Y-71205000D03*
D23*
%TO.P,J20,4,4*%
%TO.N,GND*%
X21050000Y-66905000D03*
%TO.P,J20,3,3*%
%TO.N,+3V3*%
X21050000Y-67905000D03*
%TO.P,J20,2,2*%
%TO.N,SDA1*%
X21050000Y-68905000D03*
%TO.P,J20,1,1*%
%TO.N,SCL1*%
X21050000Y-69905000D03*
%TD*%
D13*
%TO.P,R8,1*%
%TO.N,+3V3*%
X113840000Y-25605000D03*
%TO.P,R8,2*%
%TO.N,Net-(D3-A)*%
X113840000Y-23605000D03*
%TD*%
D12*
%TO.P,J25,MP*%
%TO.N,N/C*%
X94200000Y-88300000D03*
X94200000Y-84700000D03*
D11*
%TO.P,J25,2,Pin_2*%
%TO.N,CANN*%
X91675000Y-87000000D03*
%TO.P,J25,1,Pin_1*%
%TO.N,CANP*%
X91675000Y-86000000D03*
%TD*%
D24*
%TO.P,C13,1*%
%TO.N,+3V3*%
X93252978Y-40985000D03*
%TO.P,C13,2*%
%TO.N,GND*%
X95327978Y-40985000D03*
%TD*%
D12*
%TO.P,J24,MP*%
%TO.N,N/C*%
X84200000Y-88300000D03*
X84200000Y-84700000D03*
D11*
%TO.P,J24,2,Pin_2*%
%TO.N,CANN*%
X81675000Y-87000000D03*
%TO.P,J24,1,Pin_1*%
%TO.N,CANP*%
X81675000Y-86000000D03*
%TD*%
D10*
%TO.P,R21,1*%
%TO.N,+3V3*%
X25795000Y-57495000D03*
%TO.P,R21,2*%
%TO.N,SCLS3*%
X25795000Y-59495000D03*
%TD*%
D22*
%TO.P,J18,MP*%
%TO.N,N/C*%
X18525000Y-49805000D03*
X18525000Y-55405000D03*
D23*
%TO.P,J18,4,4*%
%TO.N,GND*%
X21050000Y-51105000D03*
%TO.P,J18,3,3*%
%TO.N,+3V3*%
X21050000Y-52105000D03*
%TO.P,J18,2,2*%
%TO.N,SDAS2*%
X21050000Y-53105000D03*
%TO.P,J18,1,1*%
%TO.N,SCLS2*%
X21050000Y-54105000D03*
%TD*%
D10*
%TO.P,R22,1*%
%TO.N,+3V3*%
X28125000Y-57495000D03*
%TO.P,R22,2*%
%TO.N,SDAS3*%
X28125000Y-59495000D03*
%TD*%
D31*
%TO.P,J9,1,Pin_1*%
%TO.N,+12V*%
X73000000Y-73650000D03*
D32*
%TO.P,J9,2,Pin_2*%
%TO.N,GND*%
X73000000Y-78650000D03*
%TD*%
D30*
%TO.P,R4,1*%
%TO.N,+5V*%
X121245001Y-36853429D03*
%TO.P,R4,2*%
%TO.N,Net-(D1-A)*%
X123245001Y-36853429D03*
%TD*%
D44*
%TO.P,R9,1*%
%TO.N,Net-(Q2-G)*%
X106046572Y-58453430D03*
%TO.P,R9,2*%
%TO.N,GND*%
X104046572Y-58453430D03*
%TD*%
D37*
%TO.P,L1,1,1*%
%TO.N,Net-(U1-SW)*%
X107626571Y-51580001D03*
%TO.P,L1,2,2*%
%TO.N,+5V*%
X107626571Y-45530001D03*
%TD*%
D24*
%TO.P,C7,1*%
%TO.N,+3V3*%
X42037500Y-49805000D03*
%TO.P,C7,2*%
%TO.N,GND*%
X44112500Y-49805000D03*
%TD*%
D13*
%TO.P,R24,1*%
%TO.N,Net-(C16-Pad1)*%
X38075000Y-78875000D03*
%TO.P,R24,2*%
%TO.N,CANN*%
X38075000Y-76875000D03*
%TD*%
D31*
%TO.P,J10,1,Pin_1*%
%TO.N,+12V*%
X83000000Y-73650000D03*
D32*
%TO.P,J10,2,Pin_2*%
%TO.N,GND*%
X83000000Y-78650000D03*
%TD*%
D39*
%TO.P,Q1,1,G*%
%TO.N,Net-(Q1-G)*%
X75275000Y-51550000D03*
D40*
%TO.P,Q1,2,S*%
%TO.N,Net-(Q1-S)*%
X79900000Y-52305000D03*
X79900000Y-55355000D03*
D41*
X81575000Y-53830000D03*
D40*
X83250000Y-52305000D03*
X83250000Y-55355000D03*
D39*
%TO.P,Q1,3,D*%
%TO.N,+12V*%
X75275000Y-56110000D03*
%TD*%
D45*
%TO.P,IC1,1,TXD*%
%TO.N,C_TX*%
X28795000Y-74120000D03*
%TO.P,IC1,2,GND*%
%TO.N,GND*%
X28795000Y-75390000D03*
%TO.P,IC1,3,VCC*%
%TO.N,+3V3*%
X28795000Y-76660000D03*
%TO.P,IC1,4,RXD*%
%TO.N,C_RX*%
X28795000Y-77930000D03*
%TO.P,IC1,5,SHDNVIO*%
%TO.N,GND*%
X33745000Y-77930000D03*
%TO.P,IC1,6,CANL*%
%TO.N,CANN*%
X33745000Y-76660000D03*
%TO.P,IC1,7,CANH*%
%TO.N,CANP*%
X33745000Y-75390000D03*
%TO.P,IC1,8,STB*%
%TO.N,GND*%
X33745000Y-74120000D03*
%TD*%
D26*
%TO.P,C9,1*%
%TO.N,Net-(Q1-S)*%
X90541094Y-56090930D03*
%TO.P,C9,2*%
%TO.N,GND*%
X90541094Y-54015930D03*
%TD*%
D13*
%TO.P,R1,2*%
%TO.N,+5V*%
X118546571Y-50495001D03*
%TO.P,R1,1*%
%TO.N,Net-(U1-VFB)*%
X118546571Y-52495001D03*
%TD*%
D10*
%TO.P,R15,1*%
%TO.N,+3V3*%
X25895000Y-33795000D03*
%TO.P,R15,2*%
%TO.N,SCLS0*%
X25895000Y-35795000D03*
%TD*%
D12*
%TO.P,J14,MP*%
%TO.N,N/C*%
X64200000Y-88300000D03*
X64200000Y-84700000D03*
D11*
%TO.P,J14,2,Pin_2*%
%TO.N,CANN*%
X61675000Y-87000000D03*
%TO.P,J14,1,Pin_1*%
%TO.N,CANP*%
X61675000Y-86000000D03*
%TD*%
D46*
%TO.P,D3,1,K*%
%TO.N,GND*%
X115931572Y-25663430D03*
%TO.P,D3,2,A*%
%TO.N,Net-(D3-A)*%
X115931572Y-23613430D03*
%TD*%
D31*
%TO.P,J8,1,Pin_1*%
%TO.N,+12V*%
X63000000Y-73650000D03*
D32*
%TO.P,J8,2,Pin_2*%
%TO.N,GND*%
X63000000Y-78650000D03*
%TD*%
D42*
%TO.P,C15,1*%
%TO.N,GND*%
X117776571Y-31247501D03*
%TO.P,C15,2*%
%TO.N,+5V*%
X117776571Y-33322501D03*
%TD*%
D44*
%TO.P,R23,1*%
%TO.N,+3V3*%
X37295000Y-49805000D03*
%TO.P,R23,2*%
%TO.N,GPIO_GCLK*%
X35295000Y-49805000D03*
%TD*%
D22*
%TO.P,J19,MP*%
%TO.N,N/C*%
X18525000Y-57705000D03*
X18525000Y-63305000D03*
D23*
%TO.P,J19,4,4*%
%TO.N,GND*%
X21050000Y-59005000D03*
%TO.P,J19,3,3*%
%TO.N,+3V3*%
X21050000Y-60005000D03*
%TO.P,J19,2,2*%
%TO.N,SDAS3*%
X21050000Y-61005000D03*
%TO.P,J19,1,1*%
%TO.N,SCLS3*%
X21050000Y-62005000D03*
%TD*%
D47*
%TO.P,U3,1,A0*%
%TO.N,GND*%
X36257500Y-51450000D03*
%TO.P,U3,2,A1*%
X36257500Y-52100000D03*
%TO.P,U3,3,~{RESET}*%
%TO.N,GPIO_GCLK*%
X36257500Y-52750000D03*
%TO.P,U3,4,SD0*%
%TO.N,SDAS0*%
X36257500Y-53400000D03*
%TO.P,U3,5,SC0*%
%TO.N,SCLS0*%
X36257500Y-54050000D03*
%TO.P,U3,6,SD1*%
%TO.N,SDAS1*%
X36257500Y-54700000D03*
%TO.P,U3,7,SC1*%
%TO.N,SCLS1*%
X36257500Y-55350000D03*
%TO.P,U3,8,SD2*%
%TO.N,SDAS2*%
X36257500Y-56000000D03*
%TO.P,U3,9,SC2*%
%TO.N,SCLS2*%
X36257500Y-56650000D03*
%TO.P,U3,10,SD3*%
%TO.N,SDAS3*%
X36257500Y-57300000D03*
%TO.P,U3,11,SC3*%
%TO.N,SCLS3*%
X36257500Y-57950000D03*
%TO.P,U3,12,GND*%
%TO.N,GND*%
X36257500Y-58600000D03*
%TO.P,U3,13,SD4*%
%TO.N,unconnected-(U3-SD4-Pad13)*%
X41982500Y-58600000D03*
%TO.P,U3,14,SC4*%
%TO.N,unconnected-(U3-SC4-Pad14)*%
X41982500Y-57950000D03*
%TO.P,U3,15,SD5*%
%TO.N,unconnected-(U3-SD5-Pad15)*%
X41982500Y-57300000D03*
%TO.P,U3,16,SC5*%
%TO.N,unconnected-(U3-SC5-Pad16)*%
X41982500Y-56650000D03*
%TO.P,U3,17,SD6*%
%TO.N,unconnected-(U3-SD6-Pad17)*%
X41982500Y-56000000D03*
%TO.P,U3,18,SC6*%
%TO.N,unconnected-(U3-SC6-Pad18)*%
X41982500Y-55350000D03*
%TO.P,U3,19,SD7*%
%TO.N,unconnected-(U3-SD7-Pad19)*%
X41982500Y-54700000D03*
%TO.P,U3,20,SC7*%
%TO.N,unconnected-(U3-SC7-Pad20)*%
X41982500Y-54050000D03*
%TO.P,U3,21,A2*%
%TO.N,GND*%
X41982500Y-53400000D03*
%TO.P,U3,22,SCL*%
%TO.N,SCL1*%
X41982500Y-52750000D03*
%TO.P,U3,23,SDA*%
%TO.N,SDA1*%
X41982500Y-52100000D03*
%TO.P,U3,24,VCC*%
%TO.N,+3V3*%
X41982500Y-51450000D03*
%TD*%
D12*
%TO.P,J13,MP*%
%TO.N,N/C*%
X54200000Y-88300000D03*
X54200000Y-84700000D03*
D11*
%TO.P,J13,2,Pin_2*%
%TO.N,CANN*%
X51675000Y-87000000D03*
%TO.P,J13,1,Pin_1*%
%TO.N,CANP*%
X51675000Y-86000000D03*
%TD*%
D48*
%TO.P,D1,1,K*%
%TO.N,GND*%
X121220001Y-38890001D03*
%TO.P,D1,2,A*%
%TO.N,Net-(D1-A)*%
X123270001Y-38890001D03*
%TD*%
D26*
%TO.P,C14,1*%
%TO.N,+3V3*%
X25665000Y-76612500D03*
%TO.P,C14,2*%
%TO.N,GND*%
X25665000Y-74537500D03*
%TD*%
D19*
%TO.P,J1,2,Pin_2*%
%TO.N,GND*%
X60445000Y-36575000D03*
D20*
%TO.P,J1,1,Pin_1*%
%TO.N,+12V*%
X53245000Y-36575000D03*
D21*
%TO.P,J1,*%
%TO.N,*%
X63595000Y-30575000D03*
X50095000Y-30575000D03*
%TD*%
D34*
%TO.P,J12,1,Pin_1*%
%TO.N,C_TX*%
X19646571Y-80925001D03*
D35*
%TO.P,J12,2,Pin_2*%
%TO.N,C_RX*%
X22186571Y-80925001D03*
%TO.P,J12,3,Pin_3*%
%TO.N,GND*%
X24726571Y-80925001D03*
%TD*%
D31*
%TO.P,J6,1,Pin_1*%
%TO.N,+12V*%
X103000000Y-73650000D03*
D32*
%TO.P,J6,2,Pin_2*%
%TO.N,GND*%
X103000000Y-78650000D03*
%TD*%
D49*
%TO.N,GND*%
X86585786Y-46914215D03*
X98385786Y-89714215D03*
X108085786Y-92414215D03*
D50*
%TO.N,+12V*%
X73185786Y-60914215D03*
D49*
%TO.N,GND*%
X123985786Y-56114215D03*
X120686474Y-47054167D03*
X123885786Y-58814215D03*
X124085786Y-63114215D03*
X124185786Y-67414215D03*
X123155271Y-72790612D03*
D50*
%TO.N,+12V*%
X88485786Y-69314215D03*
X85217357Y-65792056D03*
X79985786Y-65414215D03*
D51*
%TO.N,GND*%
X24785786Y-62714215D03*
D49*
X113885786Y-47814215D03*
D51*
X23185786Y-35914215D03*
D49*
X110685786Y-54114215D03*
D50*
X117334539Y-42613628D03*
X79017272Y-22666952D03*
D52*
X117785786Y-29714215D03*
D50*
X114252727Y-42520240D03*
D49*
X21050000Y-65950001D03*
D50*
X35627875Y-26009177D03*
D49*
X58285786Y-89664215D03*
D50*
X113385786Y-38514215D03*
D52*
X121185786Y-40414215D03*
D50*
X105085786Y-22514215D03*
X96885786Y-28614215D03*
D49*
X88379519Y-84199694D03*
D50*
X47785786Y-50314215D03*
X83685786Y-32514215D03*
X41885817Y-60610179D03*
X60806561Y-22573563D03*
X19485786Y-29514215D03*
D49*
X87847756Y-78057829D03*
D50*
X46585786Y-57414215D03*
D49*
X112635786Y-79564215D03*
D50*
X76385786Y-29214215D03*
D49*
X111735786Y-90814215D03*
D50*
X97185786Y-61614215D03*
D51*
X30085786Y-48114215D03*
D49*
X28556162Y-92149553D03*
X110685786Y-58814215D03*
X40574009Y-65880453D03*
D51*
X96885786Y-43314215D03*
D50*
X101185786Y-49714215D03*
D49*
X17135786Y-85214215D03*
X40935786Y-88114215D03*
D50*
X43885786Y-21614215D03*
D49*
X45935786Y-88464215D03*
D50*
X86785786Y-42714215D03*
D49*
X97785786Y-81614215D03*
X67826872Y-84199694D03*
D50*
X88660786Y-49864215D03*
D51*
X29485786Y-60914215D03*
D50*
X25085786Y-47514215D03*
D49*
X96685786Y-55814215D03*
X108885786Y-54114215D03*
D50*
X120585786Y-49114215D03*
X87110786Y-51139215D03*
D51*
X22585786Y-30314215D03*
D49*
X35335786Y-77964215D03*
X68435786Y-90014215D03*
X34485786Y-92264215D03*
X21050000Y-34314215D03*
X110685786Y-57414215D03*
X108785786Y-55514215D03*
X106698760Y-79520178D03*
D50*
X35785786Y-46914215D03*
D49*
X115385786Y-47814215D03*
X36735786Y-69264215D03*
X41510786Y-71564215D03*
X21050000Y-50050001D03*
D51*
X96885786Y-40314215D03*
D50*
X31292577Y-41910081D03*
X34788591Y-21602326D03*
X30785786Y-45314215D03*
X100972916Y-55370465D03*
X47136083Y-42761811D03*
X33085786Y-60914215D03*
X106035227Y-28711232D03*
D49*
X120135786Y-80064215D03*
X122935786Y-76614215D03*
X27085786Y-72239215D03*
X46935786Y-79464215D03*
D51*
X38685786Y-47814215D03*
D50*
X30285786Y-39914215D03*
X37685786Y-37714215D03*
X44085786Y-56914215D03*
D49*
X35935786Y-88464215D03*
D50*
X103251590Y-42520240D03*
D49*
X57935786Y-78464215D03*
D51*
X30585786Y-37414215D03*
D50*
X77885786Y-44814215D03*
X68585786Y-22614215D03*
D49*
X34921571Y-51450000D03*
X45572583Y-92096377D03*
D50*
X46385786Y-54414215D03*
D49*
X119248371Y-85529102D03*
D50*
X16885786Y-75814215D03*
X99685786Y-42714215D03*
D49*
X110685786Y-55814215D03*
D50*
X83085786Y-41514215D03*
X87225001Y-60353430D03*
D49*
X47327402Y-83295697D03*
D52*
X102485786Y-58414215D03*
D49*
X77935786Y-78464215D03*
D50*
X85735786Y-52464215D03*
D51*
X96885786Y-42314215D03*
D49*
X36257500Y-59342501D03*
X44735786Y-75214215D03*
D50*
X89085786Y-29014215D03*
X100385786Y-61414215D03*
D49*
X21050000Y-57850001D03*
D50*
X26178193Y-22386787D03*
D49*
X111385786Y-43414215D03*
X113985786Y-49014215D03*
X96585786Y-57014215D03*
X88185786Y-90214215D03*
X34352380Y-82843698D03*
D51*
X43385786Y-53414215D03*
D50*
X29390749Y-21863813D03*
X121885786Y-45014215D03*
X60585786Y-28814215D03*
X30185786Y-32114215D03*
D49*
X108685786Y-57014215D03*
D50*
X71185786Y-28814215D03*
D49*
X28435786Y-88564215D03*
X25635786Y-73264215D03*
D50*
X22885786Y-49314215D03*
X118485786Y-54214215D03*
D52*
X117635001Y-25663430D03*
D49*
X35335786Y-74164215D03*
D50*
X90560061Y-22704307D03*
X111185786Y-27914215D03*
D49*
X115285786Y-49014215D03*
D50*
X28085786Y-47714215D03*
X28085786Y-55714215D03*
D49*
X33035786Y-69664215D03*
D50*
X46985786Y-40314215D03*
X113785786Y-73414215D03*
X35385786Y-28214215D03*
X99185786Y-26814215D03*
X34985786Y-37714215D03*
D49*
X111385786Y-42214215D03*
D52*
X78885786Y-49214215D03*
D50*
X25085786Y-55614215D03*
D49*
X95685786Y-55814215D03*
D50*
X82185786Y-44914215D03*
X37892950Y-61008636D03*
X32885786Y-26114215D03*
X53785786Y-28714215D03*
D49*
X111385786Y-41014215D03*
D50*
X105585786Y-54414215D03*
X31885786Y-28214215D03*
D49*
X95585786Y-57014215D03*
D50*
X85960786Y-49914215D03*
X116985786Y-38114215D03*
D49*
X35734964Y-66013393D03*
X78249430Y-84438987D03*
X41735786Y-79689215D03*
X40387892Y-82923462D03*
D50*
X25685786Y-29414215D03*
X118685786Y-73314215D03*
D52*
X35841571Y-30170000D03*
D49*
X44235786Y-71214215D03*
D50*
X30085786Y-57114215D03*
D49*
X24535786Y-87864215D03*
X45285786Y-49814215D03*
D50*
X23385786Y-33414215D03*
X25685786Y-39614215D03*
D49*
X113319212Y-86114041D03*
D51*
X96885786Y-41314215D03*
D50*
X52685786Y-22414215D03*
X43685786Y-30914215D03*
D49*
X122885786Y-83014215D03*
D50*
X102485786Y-60914215D03*
D49*
X40135786Y-92464215D03*
D50*
X88735786Y-52564215D03*
X25885786Y-25714215D03*
D51*
X29485786Y-45714215D03*
D49*
X27135786Y-75364215D03*
X78135786Y-89864215D03*
X28735786Y-82514215D03*
X21050000Y-42150001D03*
D50*
X116885786Y-21514215D03*
D51*
X29385786Y-53414215D03*
D49*
X18110786Y-78164215D03*
D50*
X101085786Y-46114215D03*
D49*
X58035786Y-83814215D03*
X45485786Y-64664215D03*
X66785786Y-78714215D03*
X116435786Y-77114215D03*
%TO.N,+5V*%
X106285786Y-36714215D03*
X106285786Y-43314215D03*
X107985786Y-37314215D03*
X108085786Y-38714215D03*
X106085786Y-38614215D03*
X107085786Y-39514215D03*
X106185786Y-41314215D03*
D50*
%TO.N,+3V3*%
X91835786Y-36664215D03*
X93585786Y-36714215D03*
X39635786Y-49814215D03*
X91735786Y-38564215D03*
X93485786Y-38464215D03*
X91585786Y-41114215D03*
X91685786Y-43014215D03*
X29785786Y-49595000D03*
D51*
%TO.N,C_TX*%
X27135786Y-74164215D03*
X19635786Y-78564215D03*
D50*
%TO.N,+12V*%
X69185786Y-58314215D03*
X58172491Y-68753927D03*
X97285786Y-66214215D03*
X67785786Y-52614215D03*
X52585786Y-55414215D03*
X49185786Y-71114215D03*
X41385786Y-38014215D03*
X78335786Y-68964215D03*
X103385786Y-67914215D03*
X68885786Y-68914215D03*
X55037522Y-61717098D03*
X64469661Y-45105557D03*
X64485786Y-49014215D03*
X51885786Y-61514215D03*
X44285786Y-38014215D03*
X57835786Y-72814215D03*
X107485786Y-71714215D03*
X71385786Y-51014215D03*
X83285786Y-67714215D03*
X101685786Y-64814215D03*
X47485786Y-37914215D03*
X51085786Y-66414215D03*
X89885786Y-65914215D03*
X64085786Y-57714215D03*
X50585786Y-45814215D03*
X68185786Y-55114215D03*
X69485786Y-65214215D03*
X59185786Y-47114215D03*
X71285786Y-47914215D03*
X95085786Y-68514215D03*
X68085786Y-45214215D03*
X69381959Y-61661065D03*
X59885786Y-53914215D03*
X98985786Y-71764215D03*
X62798086Y-61717098D03*
X54085786Y-67614215D03*
X67385786Y-72114215D03*
X54685786Y-44614215D03*
X50485786Y-50114215D03*
X50485786Y-42714215D03*
X49585786Y-53114215D03*
X56885786Y-58314215D03*
X61885786Y-66914215D03*
X71085786Y-44814215D03*
X87785786Y-73114215D03*
X50185786Y-40214215D03*
X74885786Y-64814215D03*
X57685786Y-50114215D03*
X54185786Y-51214215D03*
X77885786Y-73014215D03*
X66685786Y-40614215D03*
D51*
%TO.N,SCL1*%
X46885786Y-46314215D03*
X47585786Y-52714215D03*
%TO.N,SDA1*%
X23485786Y-68814215D03*
X45485786Y-51814215D03*
%TO.N,SDAS0*%
X28185786Y-37414215D03*
X23185786Y-37305000D03*
%TO.N,SDAS1*%
X28225000Y-45314215D03*
X23385786Y-45205000D03*
%TO.N,SDAS2*%
X23385786Y-53114215D03*
X28085786Y-53014215D03*
%TO.N,SDAS3*%
X28125000Y-61014215D03*
X22985786Y-61014215D03*
%TO.N,Net-(C16-Pad1)*%
X40935786Y-78114215D03*
X40935786Y-73164215D03*
D50*
%TO.N,Net-(Q1-S)*%
X82685786Y-60914215D03*
X82485786Y-58639215D03*
X85010786Y-58764215D03*
X88385786Y-58314215D03*
X85085786Y-61014215D03*
%TO.N,Net-(Q2-S)*%
X119785786Y-68114215D03*
X114285786Y-68414215D03*
X117885786Y-63014215D03*
X117585786Y-56814215D03*
X118185786Y-66014215D03*
X116785786Y-68414215D03*
X119785786Y-60714215D03*
X117585786Y-59114215D03*
%TD*%
D53*
%TO.N,+3V3*%
X21050000Y-67905000D02*
X22495001Y-67905000D01*
X22495001Y-67905000D02*
X23685786Y-66714215D01*
X23685786Y-66714215D02*
X23685786Y-65114215D01*
X23685786Y-65114215D02*
X24046572Y-64753429D01*
X24046572Y-64753429D02*
X25795000Y-64753429D01*
X25795000Y-64753429D02*
X28125000Y-64753429D01*
D54*
%TO.N,SDA1*%
X23485786Y-68814215D02*
X21140785Y-68814215D01*
X21140785Y-68814215D02*
X21050000Y-68905000D01*
X25085786Y-68814215D02*
X25795000Y-68105001D01*
X23485786Y-68814215D02*
X25085786Y-68814215D01*
X25795000Y-68105001D02*
X25795000Y-66753429D01*
%TO.N,SCL1*%
X21050000Y-69905000D02*
X27195001Y-69905000D01*
X27195001Y-69905000D02*
X28125000Y-68975001D01*
X28125000Y-68975001D02*
X28125000Y-66753429D01*
X47585786Y-52714215D02*
X47585786Y-58814215D01*
X21385786Y-70914215D02*
X21050000Y-70578429D01*
X47585786Y-58814215D02*
X43485786Y-62914215D01*
X43485786Y-62914215D02*
X36935786Y-62914215D01*
X36935786Y-62914215D02*
X28935786Y-70914215D01*
X28935786Y-70914215D02*
X21385786Y-70914215D01*
X21050000Y-70578429D02*
X21050000Y-69905000D01*
%TO.N,Net-(C16-Pad1)*%
X40935786Y-78114215D02*
X40935786Y-78664215D01*
X40935786Y-78664215D02*
X40725001Y-78875000D01*
X40725001Y-78875000D02*
X38075000Y-78875000D01*
%TO.N,CANP*%
X91675000Y-86000000D02*
X92837501Y-86000000D01*
%TO.N,CANN*%
X91675000Y-87000000D02*
X92837501Y-87000000D01*
%TO.N,CANP*%
X92837501Y-86000000D02*
X93112501Y-86275000D01*
X100512499Y-86000000D02*
X101675000Y-86000000D01*
X93112501Y-86275000D02*
X100237499Y-86275000D01*
%TO.N,CANN*%
X93112501Y-86725000D02*
X100237499Y-86725000D01*
%TO.N,CANP*%
X100237499Y-86275000D02*
X100512499Y-86000000D01*
%TO.N,CANN*%
X92837501Y-87000000D02*
X93112501Y-86725000D01*
X100237499Y-86725000D02*
X100512499Y-87000000D01*
X100512499Y-87000000D02*
X101675000Y-87000000D01*
%TO.N,Net-(U2-EN)*%
X93346571Y-62325001D02*
X93346571Y-58346407D01*
X93346571Y-58346407D02*
X93341094Y-58340930D01*
%TO.N,+12V*%
X122796571Y-53425001D02*
X122796571Y-69603430D01*
X122796571Y-69603430D02*
X121785786Y-70614215D01*
X121785786Y-70614215D02*
X113285786Y-70614215D01*
X113285786Y-70614215D02*
X112185786Y-71714215D01*
X112185786Y-71714215D02*
X107485786Y-71714215D01*
%TO.N,Net-(U1-EN)*%
X122696571Y-51525001D02*
X116639071Y-51525001D01*
X122796571Y-51425001D02*
X122696571Y-51525001D01*
X116639071Y-51525001D02*
X116614071Y-51550001D01*
D53*
%TO.N,GND*%
X120585786Y-49114215D02*
X120576571Y-49123430D01*
X120576571Y-49123430D02*
X120576571Y-50495001D01*
X35291571Y-74120000D02*
X35335786Y-74164215D01*
D55*
X36257500Y-59342501D02*
X36257500Y-58600000D01*
D53*
X36779071Y-69307500D02*
X36735786Y-69264215D01*
D56*
X102525001Y-58253430D02*
X102485786Y-58214215D01*
X121185786Y-40414215D02*
X121185786Y-38924216D01*
D55*
X45276571Y-49805000D02*
X45285786Y-49814215D01*
D53*
X38075000Y-69307500D02*
X36779071Y-69307500D01*
X21050000Y-50050001D02*
X21050000Y-51105000D01*
D55*
X34921571Y-51450000D02*
X36257500Y-51450000D01*
D53*
X27161571Y-75390000D02*
X27135786Y-75364215D01*
X25665000Y-74537500D02*
X25665000Y-73293429D01*
D56*
X117776571Y-29723430D02*
X117776571Y-31247501D01*
X117635001Y-25663430D02*
X115931572Y-25663430D01*
D53*
X21050000Y-42150001D02*
X21050000Y-43205000D01*
D56*
X35841571Y-30170000D02*
X35841571Y-32025001D01*
X104046572Y-58453430D02*
X102525001Y-58453430D01*
X77325000Y-49221428D02*
X78878573Y-49221428D01*
D53*
X28795000Y-75390000D02*
X27161571Y-75390000D01*
D55*
X43371571Y-53400000D02*
X43385786Y-53414215D01*
D53*
X21050000Y-34314215D02*
X21050000Y-35305000D01*
X33745000Y-74120000D02*
X35291571Y-74120000D01*
D55*
X44112500Y-49805000D02*
X45276571Y-49805000D01*
D53*
X35301571Y-77930000D02*
X35335786Y-77964215D01*
X21050000Y-57850001D02*
X21050000Y-59005000D01*
D55*
X41982500Y-53400000D02*
X43371571Y-53400000D01*
D56*
X121185786Y-38924216D02*
X121220001Y-38890001D01*
X78878573Y-49221428D02*
X78885786Y-49214215D01*
D53*
X87225001Y-60353430D02*
X88541094Y-60353430D01*
D55*
X36257500Y-52100000D02*
X36257500Y-51450000D01*
D56*
X117785786Y-29714215D02*
X117776571Y-29723430D01*
D53*
X21050000Y-65950001D02*
X21050000Y-66905000D01*
X33745000Y-77930000D02*
X35301571Y-77930000D01*
%TO.N,Net-(U1-VBST)*%
X112366571Y-49527501D02*
X112366571Y-46933430D01*
X112366571Y-46933430D02*
X112785786Y-46514215D01*
X116614071Y-46742500D02*
X116614071Y-50600001D01*
X112785786Y-46514215D02*
X116385786Y-46514215D01*
X116385786Y-46514215D02*
X116614071Y-46742500D01*
%TO.N,+5V*%
X118546571Y-47025000D02*
X118546571Y-50495001D01*
D57*
X107745000Y-33375000D02*
X114775000Y-33375000D01*
D53*
X107626571Y-45530001D02*
X117051572Y-45530001D01*
D56*
X121246571Y-33355001D02*
X117809071Y-33355001D01*
X121246571Y-33355001D02*
X121246571Y-36851859D01*
D53*
X117051572Y-45530001D02*
X118546571Y-47025000D01*
D56*
X121246571Y-36851859D02*
X121245001Y-36853429D01*
X117776571Y-33322501D02*
X114827499Y-33322501D01*
D53*
%TO.N,+3V3*%
X22395001Y-60005000D02*
X23285786Y-59114215D01*
D56*
X96425001Y-33375000D02*
X104195001Y-25605000D01*
D53*
X16385786Y-67914215D02*
X16385786Y-68414215D01*
X16885786Y-36305000D02*
X16395001Y-36305000D01*
X16385786Y-59514215D02*
X16385786Y-60014215D01*
X21934071Y-76612500D02*
X25665000Y-76612500D01*
X21050000Y-52105000D02*
X16985786Y-52105000D01*
X16385786Y-68414215D02*
X16385786Y-72314215D01*
X23905001Y-57495000D02*
X25795000Y-57495000D01*
X16876571Y-67905000D02*
X16876571Y-67923430D01*
D56*
X93195000Y-33375000D02*
X96425001Y-33375000D01*
D53*
X16385786Y-36314215D02*
X16385786Y-36814215D01*
X16385786Y-52114215D02*
X16385786Y-52614215D01*
X99085786Y-59214215D02*
X99085786Y-45914215D01*
X16985786Y-60005000D02*
X16876571Y-60005000D01*
X16395001Y-44205000D02*
X16385786Y-44214215D01*
D56*
X104195001Y-25605000D02*
X113840000Y-25605000D01*
D53*
X24205001Y-49595000D02*
X25795000Y-49595000D01*
X16395001Y-36305000D02*
X16385786Y-36314215D01*
D56*
X49585786Y-25814215D02*
X47285786Y-23514215D01*
D53*
X16876571Y-67905000D02*
X16385786Y-67414215D01*
D56*
X28225000Y-27775001D02*
X28225000Y-33795000D01*
D53*
X16885786Y-44205000D02*
X16876571Y-44205000D01*
X16385786Y-60514215D02*
X16385786Y-67414215D01*
X21050000Y-36305000D02*
X16885786Y-36305000D01*
D56*
X93195000Y-33375000D02*
X93195000Y-26723429D01*
D53*
X23285786Y-58114215D02*
X23905001Y-57495000D01*
D56*
X47285786Y-23514215D02*
X32485786Y-23514215D01*
D53*
X21050000Y-52105000D02*
X22395001Y-52105000D01*
X16885786Y-36305000D02*
X16876571Y-36305000D01*
D56*
X92285786Y-25814215D02*
X49585786Y-25814215D01*
D53*
X42028285Y-49814215D02*
X42037500Y-49805000D01*
X17085786Y-67905000D02*
X16395001Y-67905000D01*
X25665000Y-76612500D02*
X28747500Y-76612500D01*
X16385786Y-51614215D02*
X16385786Y-52114215D01*
X16985786Y-52105000D02*
X16876571Y-52105000D01*
X16885786Y-44205000D02*
X16885786Y-44214215D01*
X16985786Y-60005000D02*
X16395001Y-60005000D01*
X23885786Y-49914215D02*
X24205001Y-49595000D01*
X16885786Y-44214215D02*
X16385786Y-44714215D01*
X97946571Y-60353430D02*
X99085786Y-59214215D01*
X23905001Y-41695000D02*
X25895000Y-41695000D01*
X17085786Y-31614215D02*
X16385786Y-32314215D01*
X99085786Y-45914215D02*
X98630001Y-45458430D01*
D56*
X32485786Y-23514215D02*
X28225000Y-27775001D01*
D53*
X39635786Y-49814215D02*
X42028285Y-49814215D01*
X37304215Y-49814215D02*
X37295000Y-49805000D01*
X16385786Y-44714215D02*
X16385786Y-51614215D01*
X16885786Y-36314215D02*
X16385786Y-36814215D01*
X21050000Y-60005000D02*
X22395001Y-60005000D01*
X16385786Y-43714215D02*
X16385786Y-44214215D01*
X22395001Y-52105000D02*
X23885786Y-50614215D01*
X16395001Y-60005000D02*
X16385786Y-60014215D01*
X16385786Y-67414215D02*
X16385786Y-67914215D01*
X28225000Y-41695000D02*
X25895000Y-41695000D01*
X16385786Y-52614215D02*
X16385786Y-59514215D01*
X25795000Y-49595000D02*
X28125000Y-49595000D01*
X16395001Y-52105000D02*
X16385786Y-52114215D01*
X23585786Y-43014215D02*
X23585786Y-42014215D01*
X16876571Y-52105000D02*
X16876571Y-52123430D01*
X25795000Y-57495000D02*
X28125000Y-57495000D01*
X94391094Y-60353430D02*
X97946571Y-60353430D01*
X17085786Y-73014215D02*
X18335786Y-73014215D01*
X25485786Y-31614215D02*
X17085786Y-31614215D01*
X17085786Y-67905000D02*
X16876571Y-67905000D01*
X16876571Y-44205000D02*
X16385786Y-43714215D01*
X16876571Y-52105000D02*
X16385786Y-51614215D01*
X23285786Y-59114215D02*
X23285786Y-58114215D01*
X18335786Y-73014215D02*
X21934071Y-76612500D01*
X16885786Y-44205000D02*
X16395001Y-44205000D01*
X23585786Y-42014215D02*
X23905001Y-41695000D01*
X16385786Y-72314215D02*
X17085786Y-73014215D01*
X16876571Y-52123430D02*
X16385786Y-52614215D01*
X22395001Y-44205000D02*
X23585786Y-43014215D01*
X25895000Y-32023429D02*
X25485786Y-31614215D01*
D55*
X42037500Y-49805000D02*
X42037500Y-51395000D01*
D53*
X16876571Y-36305000D02*
X16385786Y-35814215D01*
X16876571Y-67923430D02*
X16385786Y-68414215D01*
X21050000Y-44205000D02*
X22395001Y-44205000D01*
X16985786Y-60005000D02*
X16895001Y-60005000D01*
X28747500Y-76612500D02*
X28795000Y-76660000D01*
X16385786Y-35814215D02*
X16385786Y-36314215D01*
X16985786Y-52105000D02*
X16395001Y-52105000D01*
X16885786Y-36305000D02*
X16885786Y-36314215D01*
X25895000Y-33795000D02*
X25895000Y-32023429D01*
X39635786Y-49814215D02*
X37304215Y-49814215D01*
D56*
X93195000Y-26723429D02*
X92285786Y-25814215D01*
D53*
X16876571Y-60005000D02*
X16385786Y-59514215D01*
X16385786Y-36814215D02*
X16385786Y-43714215D01*
X29785786Y-49595000D02*
X28125000Y-49595000D01*
X98630001Y-45458430D02*
X93311094Y-45458430D01*
X16395001Y-67905000D02*
X16385786Y-67914215D01*
X16385786Y-60014215D02*
X16385786Y-60514215D01*
X16385786Y-32314215D02*
X16385786Y-35814215D01*
X21050000Y-60005000D02*
X16985786Y-60005000D01*
X16895001Y-60005000D02*
X16385786Y-60514215D01*
X16385786Y-44214215D02*
X16385786Y-44714215D01*
X21050000Y-67905000D02*
X17085786Y-67905000D01*
X23885786Y-50614215D02*
X23885786Y-49914215D01*
D56*
X28225000Y-33795000D02*
X25895000Y-33795000D01*
D53*
X21050000Y-44205000D02*
X16885786Y-44205000D01*
%TO.N,Net-(U2-VBST)*%
X97159071Y-58340930D02*
X97785786Y-57714215D01*
X97385001Y-54013430D02*
X95408594Y-54013430D01*
X97785786Y-54414215D02*
X97385001Y-54013430D01*
X97785786Y-57714215D02*
X97785786Y-54414215D01*
X94291094Y-58340930D02*
X97159071Y-58340930D01*
D56*
%TO.N,Net-(D1-A)*%
X123245001Y-36853429D02*
X123245001Y-38865001D01*
%TO.N,Net-(D2-A)*%
X33791571Y-32025001D02*
X33791571Y-34050001D01*
%TO.N,Net-(D3-A)*%
X115923142Y-23605000D02*
X115931572Y-23613430D01*
X113840000Y-23605000D02*
X115923142Y-23605000D01*
D54*
%TO.N,C_TX*%
X19646571Y-78575000D02*
X19646571Y-80925001D01*
X19635786Y-78564215D02*
X19646571Y-78575000D01*
X27135786Y-74164215D02*
X28750785Y-74164215D01*
%TO.N,C_RX*%
X22186571Y-78813430D02*
X22635786Y-78364215D01*
X24970001Y-77930000D02*
X28795000Y-77930000D01*
X24535786Y-78364215D02*
X24970001Y-77930000D01*
X22635786Y-78364215D02*
X24535786Y-78364215D01*
X22186571Y-80925001D02*
X22186571Y-78813430D01*
%TO.N,CANN*%
X36374999Y-76225000D02*
X37024999Y-76875000D01*
X47028371Y-86725000D02*
X50237499Y-86725000D01*
X53112501Y-86725000D02*
X60237499Y-86725000D01*
X52837501Y-87000000D02*
X53112501Y-86725000D01*
X41778371Y-76225000D02*
X43910786Y-78357415D01*
X61675000Y-87000000D02*
X62837501Y-87000000D01*
X63112501Y-86725000D02*
X70237499Y-86725000D01*
X37024999Y-76875000D02*
X38075000Y-76875000D01*
X36232992Y-76225000D02*
X36374999Y-76225000D01*
X43910786Y-83607415D02*
X47028371Y-86725000D01*
X81675000Y-87000000D02*
X82837501Y-87000000D01*
X35207501Y-76660000D02*
X35617501Y-76250000D01*
X39775001Y-76225000D02*
X41778371Y-76225000D01*
X80512499Y-87000000D02*
X81675000Y-87000000D01*
X62837501Y-87000000D02*
X63112501Y-86725000D01*
X50237499Y-86725000D02*
X50512499Y-87000000D01*
X72837501Y-87000000D02*
X73112501Y-86725000D01*
X35617501Y-76250000D02*
X36207992Y-76250000D01*
X51675000Y-87000000D02*
X52837501Y-87000000D01*
X82837501Y-87000000D02*
X83112501Y-86725000D01*
X73112501Y-86725000D02*
X80237499Y-86725000D01*
X90237499Y-86725000D02*
X90512499Y-87000000D01*
X50512499Y-87000000D02*
X51675000Y-87000000D01*
X36207992Y-76250000D02*
X36232992Y-76225000D01*
X60512499Y-87000000D02*
X61675000Y-87000000D01*
X38075000Y-76875000D02*
X39125001Y-76875000D01*
X70512499Y-87000000D02*
X71675000Y-87000000D01*
X33745000Y-76660000D02*
X35207501Y-76660000D01*
X71675000Y-87000000D02*
X72837501Y-87000000D01*
X43910786Y-78357415D02*
X43910786Y-83607415D01*
X90512499Y-87000000D02*
X91675000Y-87000000D01*
X39125001Y-76875000D02*
X39775001Y-76225000D01*
X80237499Y-86725000D02*
X80512499Y-87000000D01*
X83112501Y-86725000D02*
X90237499Y-86725000D01*
X60237499Y-86725000D02*
X60512499Y-87000000D01*
X70237499Y-86725000D02*
X70512499Y-87000000D01*
%TO.N,CANP*%
X60237499Y-86275000D02*
X60512499Y-86000000D01*
X90512499Y-86000000D02*
X91675000Y-86000000D01*
X52837501Y-86000000D02*
X53112501Y-86275000D01*
X38075000Y-75125000D02*
X39125001Y-75125000D01*
X61675000Y-86000000D02*
X62837501Y-86000000D01*
X81675000Y-86000000D02*
X82837501Y-86000000D01*
X35207501Y-75390000D02*
X35617501Y-75800000D01*
X71675000Y-86000000D02*
X72837501Y-86000000D01*
X80512499Y-86000000D02*
X81675000Y-86000000D01*
X44360786Y-83421015D02*
X47214771Y-86275000D01*
X70237499Y-86275000D02*
X70512499Y-86000000D01*
X33745000Y-75390000D02*
X35207501Y-75390000D01*
X83112501Y-86275000D02*
X90237499Y-86275000D01*
X63112501Y-86275000D02*
X70237499Y-86275000D01*
X80237499Y-86275000D02*
X80512499Y-86000000D01*
X39125001Y-75125000D02*
X39775001Y-75775000D01*
X37024999Y-75125000D02*
X38075000Y-75125000D01*
X44360786Y-78171015D02*
X44360786Y-83421015D01*
X60512499Y-86000000D02*
X61675000Y-86000000D01*
X50237499Y-86275000D02*
X50512499Y-86000000D01*
X90237499Y-86275000D02*
X90512499Y-86000000D01*
X41964771Y-75775000D02*
X44360786Y-78171015D01*
X36035786Y-75800000D02*
X36060786Y-75775000D01*
X39775001Y-75775000D02*
X41964771Y-75775000D01*
X51675000Y-86000000D02*
X52837501Y-86000000D01*
X53112501Y-86275000D02*
X60237499Y-86275000D01*
X47214771Y-86275000D02*
X50237499Y-86275000D01*
X62837501Y-86000000D02*
X63112501Y-86275000D01*
X36060786Y-75775000D02*
X36374999Y-75775000D01*
X70512499Y-86000000D02*
X71675000Y-86000000D01*
X36374999Y-75775000D02*
X37024999Y-75125000D01*
X73112501Y-86275000D02*
X80237499Y-86275000D01*
X72837501Y-86000000D02*
X73112501Y-86275000D01*
X82837501Y-86000000D02*
X83112501Y-86275000D01*
X35617501Y-75800000D02*
X36035786Y-75800000D01*
X50512499Y-86000000D02*
X51675000Y-86000000D01*
D56*
%TO.N,+12V*%
X35816571Y-34075001D02*
X43055001Y-34075001D01*
D54*
%TO.N,SCL1*%
X41805000Y-46133429D02*
X41805000Y-44475000D01*
X47550001Y-52750000D02*
X41982500Y-52750000D01*
X41985786Y-46314215D02*
X41805000Y-46133429D01*
X47585786Y-52714215D02*
X47550001Y-52750000D01*
X46885786Y-46314215D02*
X41985786Y-46314215D01*
%TO.N,GPIO_GCLK*%
X47885786Y-47514215D02*
X47885786Y-45714215D01*
X34495001Y-49805000D02*
X35295000Y-49805000D01*
X34821571Y-52750000D02*
X34221571Y-52150000D01*
X36257500Y-52750000D02*
X34821571Y-52750000D01*
X46646571Y-44475000D02*
X44345000Y-44475000D01*
X46785786Y-48614215D02*
X47885786Y-47514215D01*
X35295000Y-49805000D02*
X35295000Y-48905001D01*
X35295000Y-48905001D02*
X35585786Y-48614215D01*
X47885786Y-45714215D02*
X46646571Y-44475000D01*
X35585786Y-48614215D02*
X46785786Y-48614215D01*
X34221571Y-50078430D02*
X34495001Y-49805000D01*
X34221571Y-52150000D02*
X34221571Y-50078430D01*
%TO.N,SDA1*%
X44500001Y-52100000D02*
X41982500Y-52100000D01*
X45485786Y-51814215D02*
X44785786Y-51814215D01*
X44785786Y-51814215D02*
X44500001Y-52100000D01*
%TO.N,SDAS0*%
X28225000Y-37375001D02*
X28225000Y-35795000D01*
X28185786Y-37414215D02*
X28225000Y-37375001D01*
X36257500Y-53400000D02*
X34271571Y-53400000D01*
X32166571Y-35795000D02*
X28225000Y-35795000D01*
X33385786Y-52514215D02*
X33385786Y-37014215D01*
X23185786Y-37305000D02*
X21050000Y-37305000D01*
X33385786Y-37014215D02*
X32166571Y-35795000D01*
X34271571Y-53400000D02*
X33385786Y-52514215D01*
%TO.N,SCLS0*%
X26585786Y-38414215D02*
X25895000Y-37723429D01*
X25895000Y-37723429D02*
X25895000Y-35795000D01*
X24605001Y-35795000D02*
X24285786Y-36114215D01*
X32685786Y-38614215D02*
X32485786Y-38414215D01*
X33921571Y-54050000D02*
X32685786Y-52814215D01*
X25895000Y-35795000D02*
X24605001Y-35795000D01*
X36257500Y-54050000D02*
X33921571Y-54050000D01*
X32485786Y-38414215D02*
X26585786Y-38414215D01*
X24285786Y-37914215D02*
X23895001Y-38305000D01*
X32685786Y-52814215D02*
X32685786Y-38614215D01*
X24285786Y-36114215D02*
X24285786Y-37914215D01*
X23895001Y-38305000D02*
X21050000Y-38305000D01*
%TO.N,SDAS1*%
X31885786Y-44014215D02*
X31566571Y-43695000D01*
X28225000Y-45314215D02*
X28225000Y-43695000D01*
X31885786Y-53314215D02*
X31885786Y-44014215D01*
X33271571Y-54700000D02*
X31885786Y-53314215D01*
X36257500Y-54700000D02*
X33271571Y-54700000D01*
X23385786Y-45205000D02*
X21050000Y-45205000D01*
X31566571Y-43695000D02*
X28225000Y-43695000D01*
%TO.N,SCLS1*%
X24805001Y-43695000D02*
X25895000Y-43695000D01*
X31185786Y-53614215D02*
X31185786Y-47414215D01*
X30385786Y-46614215D02*
X26785786Y-46614215D01*
X24095001Y-46205000D02*
X24585786Y-45714215D01*
X32921571Y-55350000D02*
X31185786Y-53614215D01*
X24585786Y-45714215D02*
X24585786Y-43914215D01*
X36257500Y-55350000D02*
X32921571Y-55350000D01*
X26785786Y-46614215D02*
X25895000Y-45723429D01*
X21050000Y-46205000D02*
X24095001Y-46205000D01*
X25895000Y-45723429D02*
X25895000Y-43695000D01*
X24585786Y-43914215D02*
X24805001Y-43695000D01*
X31185786Y-47414215D02*
X30385786Y-46614215D01*
%TO.N,SCLS2*%
X28985786Y-54214215D02*
X26385786Y-54214215D01*
X24705001Y-51595000D02*
X24485786Y-51814215D01*
X25795000Y-53623429D02*
X25795000Y-51595000D01*
X26385786Y-54214215D02*
X25795000Y-53623429D01*
X25795000Y-51595000D02*
X24705001Y-51595000D01*
X36257500Y-56650000D02*
X31421571Y-56650000D01*
X23776571Y-54105000D02*
X21050000Y-54105000D01*
X24485786Y-53614215D02*
X23985786Y-54114215D01*
X23785786Y-54114215D02*
X23776571Y-54105000D01*
X31421571Y-56650000D02*
X28985786Y-54214215D01*
X23985786Y-54114215D02*
X23785786Y-54114215D01*
X24485786Y-51814215D02*
X24485786Y-53614215D01*
%TO.N,SDAS2*%
X29666571Y-51595000D02*
X28125000Y-51595000D01*
X23385786Y-53114215D02*
X23376571Y-53105000D01*
X30285786Y-52214215D02*
X29666571Y-51595000D01*
X23376571Y-53105000D02*
X21050000Y-53105000D01*
X28125000Y-52975001D02*
X28085786Y-53014215D01*
X28125000Y-51595000D02*
X28125000Y-52975001D01*
X36257500Y-56000000D02*
X32771571Y-56000000D01*
X32771571Y-56000000D02*
X30285786Y-53514215D01*
X30285786Y-53514215D02*
X30285786Y-52214215D01*
%TO.N,SDAS3*%
X29905001Y-59495000D02*
X28125000Y-59495000D01*
X28125000Y-61014215D02*
X28125000Y-59495000D01*
X22985786Y-61014215D02*
X22785786Y-61014215D01*
X32100001Y-57300000D02*
X29905001Y-59495000D01*
X22776571Y-61005000D02*
X21050000Y-61005000D01*
X36257500Y-57300000D02*
X32100001Y-57300000D01*
X22785786Y-61014215D02*
X22776571Y-61005000D01*
%TO.N,SCLS3*%
X25795000Y-59495000D02*
X24605001Y-59495000D01*
X33550001Y-57950000D02*
X29385786Y-62114215D01*
X36257500Y-57950000D02*
X33550001Y-57950000D01*
X25795000Y-61823429D02*
X25795000Y-59495000D01*
X24605001Y-59495000D02*
X24285786Y-59814215D01*
X24285786Y-61614215D02*
X23895001Y-62005000D01*
X29385786Y-62114215D02*
X26085786Y-62114215D01*
X26085786Y-62114215D02*
X25795000Y-61823429D01*
X24285786Y-59814215D02*
X24285786Y-61614215D01*
X23895001Y-62005000D02*
X21050000Y-62005000D01*
D53*
%TO.N,Net-(U1-VFB)*%
X118541571Y-52500001D02*
X118546571Y-52495001D01*
X120576571Y-52495001D02*
X118546571Y-52495001D01*
X116614071Y-52500001D02*
X118541571Y-52500001D01*
%TO.N,Net-(U2-VFB)*%
X92391094Y-58340930D02*
X92391094Y-60353430D01*
X92391094Y-60353430D02*
X90541094Y-60353430D01*
D54*
%TO.N,Net-(C16-Pad1)*%
X40896571Y-73125000D02*
X38075000Y-73125000D01*
X38075000Y-73125000D02*
X38075000Y-71382500D01*
X40935786Y-73164215D02*
X40896571Y-73125000D01*
D56*
%TO.N,Net-(Q1-G)*%
X75325000Y-49221428D02*
X75325000Y-51500000D01*
X75325000Y-51500000D02*
X75275000Y-51550000D01*
%TO.N,Net-(Q2-G)*%
X106046572Y-60576572D02*
X106075000Y-60605000D01*
X106046572Y-58453430D02*
X106046572Y-60776572D01*
%TD*%
%TA.AperFunction,Conductor*%
%TO.N,Net-(Q1-S)*%
G36*
X83943039Y-51574685D02*
G01*
X83988794Y-51627489D01*
X84000000Y-51679000D01*
X84000000Y-57229999D01*
X84574974Y-57229999D01*
X84574988Y-57229998D01*
X84677699Y-57219505D01*
X84844120Y-57164359D01*
X84844125Y-57164357D01*
X84993346Y-57072316D01*
X85117314Y-56948348D01*
X85118157Y-56946982D01*
X85118984Y-56946237D01*
X85121799Y-56942678D01*
X85122406Y-56943158D01*
X85170099Y-56900250D01*
X85239059Y-56889018D01*
X85303146Y-56916853D01*
X85311386Y-56924383D01*
X85407748Y-57020745D01*
X85556969Y-57112786D01*
X85556974Y-57112788D01*
X85723396Y-57167935D01*
X85763593Y-57172041D01*
X85763594Y-57172041D01*
X86938594Y-57172041D01*
X86978790Y-57167935D01*
X86978792Y-57167935D01*
X87145213Y-57112788D01*
X87145218Y-57112786D01*
X87294439Y-57020745D01*
X87303413Y-57011772D01*
X87364736Y-56978287D01*
X87434428Y-56983271D01*
X87478775Y-57011772D01*
X87487748Y-57020745D01*
X87636969Y-57112786D01*
X87636974Y-57112788D01*
X87803396Y-57167935D01*
X87843594Y-57172041D01*
X89018594Y-57172041D01*
X89058790Y-57167935D01*
X89058792Y-57167935D01*
X89225213Y-57112788D01*
X89225218Y-57112786D01*
X89374439Y-57020745D01*
X89398413Y-56996772D01*
X89459736Y-56963287D01*
X89529428Y-56968271D01*
X89573775Y-56996772D01*
X89597748Y-57020745D01*
X89746969Y-57112786D01*
X89746974Y-57112788D01*
X89913396Y-57167935D01*
X89953593Y-57172041D01*
X89953594Y-57172041D01*
X89953594Y-56678430D01*
X89018594Y-56678430D01*
X89018594Y-57172041D01*
X87843594Y-57172041D01*
X87843594Y-56678430D01*
X86938594Y-56678430D01*
X86938594Y-57172041D01*
X85763594Y-57172041D01*
X85763594Y-55627430D01*
X85783279Y-55560391D01*
X85836083Y-55514636D01*
X85887594Y-55503430D01*
X91685094Y-55503430D01*
X91752133Y-55523115D01*
X91797888Y-55575919D01*
X91809094Y-55627430D01*
X91809094Y-55765930D01*
X92562094Y-55765930D01*
X92629133Y-55785615D01*
X92674888Y-55838419D01*
X92685786Y-55888514D01*
X92685786Y-56242978D01*
X92666409Y-56308969D01*
X92613605Y-56354724D01*
X92562094Y-56365930D01*
X91809094Y-56365930D01*
X91809094Y-56554430D01*
X91789409Y-56621469D01*
X91736605Y-56667224D01*
X91685094Y-56678430D01*
X91128594Y-56678430D01*
X91128594Y-57172041D01*
X91168790Y-57167935D01*
X91168792Y-57167935D01*
X91222782Y-57150045D01*
X91292610Y-57147643D01*
X91352652Y-57183375D01*
X91383845Y-57245895D01*
X91385786Y-57267751D01*
X91385786Y-58902004D01*
X91383403Y-58926197D01*
X91375374Y-58966559D01*
X91356858Y-59011258D01*
X91340908Y-59035128D01*
X91306699Y-59069337D01*
X91282829Y-59085287D01*
X91238130Y-59103803D01*
X91221627Y-59107085D01*
X91197764Y-59111832D01*
X91173575Y-59114215D01*
X86585786Y-59114215D01*
X86585786Y-59314210D01*
X86585786Y-59830401D01*
X86566780Y-59896373D01*
X86499212Y-60003907D01*
X86499210Y-60003911D01*
X86439634Y-60174167D01*
X86439631Y-60174180D01*
X86419436Y-60353426D01*
X86419436Y-60353433D01*
X86439631Y-60532679D01*
X86439632Y-60532684D01*
X86499212Y-60702954D01*
X86566779Y-60810484D01*
X86585786Y-60876457D01*
X86585786Y-61800350D01*
X86581623Y-61832210D01*
X86567850Y-61884016D01*
X86536209Y-61939319D01*
X86510314Y-61965521D01*
X86455383Y-61997813D01*
X86403741Y-62012194D01*
X86371935Y-62016730D01*
X78304705Y-62111639D01*
X78280002Y-62109450D01*
X78238789Y-62101585D01*
X78193128Y-62082876D01*
X78180852Y-62074671D01*
X78168815Y-62066625D01*
X78134063Y-62031583D01*
X78118015Y-62007137D01*
X78099686Y-61961322D01*
X78092164Y-61920045D01*
X78090180Y-61895325D01*
X78091447Y-61832210D01*
X78125017Y-60159987D01*
X78701096Y-60159987D01*
X78711589Y-60262698D01*
X78766736Y-60429120D01*
X78766738Y-60429125D01*
X78858779Y-60578346D01*
X78982749Y-60702316D01*
X79131976Y-60794360D01*
X79201094Y-60817263D01*
X79201095Y-60817263D01*
X80501095Y-60817263D01*
X80570213Y-60794360D01*
X80719440Y-60702316D01*
X80843410Y-60578346D01*
X80935451Y-60429125D01*
X80935453Y-60429120D01*
X80990600Y-60262698D01*
X80990601Y-60262691D01*
X81001094Y-60159987D01*
X81001095Y-60159974D01*
X81001095Y-59685001D01*
X80501095Y-59685001D01*
X80501095Y-60817263D01*
X79201095Y-60817263D01*
X79201095Y-59685001D01*
X78701096Y-59685001D01*
X78701096Y-60159987D01*
X78125017Y-60159987D01*
X78180512Y-57395662D01*
X78185473Y-57373147D01*
X78183190Y-57372673D01*
X78185313Y-57362458D01*
X78185786Y-57362491D01*
X78185786Y-57296284D01*
X78205471Y-57229245D01*
X78258275Y-57183490D01*
X78327433Y-57173546D01*
X78348790Y-57178578D01*
X78472302Y-57219506D01*
X78472300Y-57219506D01*
X78531134Y-57225516D01*
X78542124Y-57230000D01*
X78568701Y-57230000D01*
X78581304Y-57230642D01*
X78588461Y-57231373D01*
X78596419Y-57230000D01*
X78626375Y-57230000D01*
X78626384Y-57229999D01*
X78821074Y-57229999D01*
X78888113Y-57249684D01*
X78933868Y-57302488D01*
X78943812Y-57371646D01*
X78914787Y-57435202D01*
X78908755Y-57441680D01*
X78858779Y-57491655D01*
X78766738Y-57640876D01*
X78766736Y-57640881D01*
X78711589Y-57807303D01*
X78711588Y-57807310D01*
X78701095Y-57910014D01*
X78701095Y-58385001D01*
X79201095Y-58385001D01*
X79201095Y-57273000D01*
X80501095Y-57273000D01*
X80501095Y-58385001D01*
X81001094Y-58385001D01*
X81001094Y-57910029D01*
X81001093Y-57910014D01*
X80990600Y-57807303D01*
X80935453Y-57640881D01*
X80935451Y-57640876D01*
X80843410Y-57491655D01*
X80791058Y-57439303D01*
X80757573Y-57377980D01*
X80762557Y-57308288D01*
X80791058Y-57263941D01*
X80825000Y-57229999D01*
X82325000Y-57229999D01*
X82500000Y-57229999D01*
X82500000Y-56105000D01*
X82325000Y-56105000D01*
X82325000Y-57229999D01*
X80825000Y-57229999D01*
X80825000Y-56105000D01*
X80650000Y-56105000D01*
X80650000Y-57149000D01*
X80630315Y-57216039D01*
X80577511Y-57261794D01*
X80526000Y-57273000D01*
X80501095Y-57273000D01*
X79201095Y-57273000D01*
X79186319Y-57258224D01*
X79152834Y-57196901D01*
X79150000Y-57170543D01*
X79150000Y-54605000D01*
X80650000Y-54605000D01*
X80825000Y-54605000D01*
X80825000Y-53204000D01*
X80844685Y-53136961D01*
X80897489Y-53091206D01*
X80949000Y-53080000D01*
X82201000Y-53080000D01*
X82268039Y-53099685D01*
X82313794Y-53152489D01*
X82325000Y-53204000D01*
X82325000Y-54605000D01*
X82500000Y-54605000D01*
X82500000Y-53055000D01*
X80650000Y-53055000D01*
X80650000Y-54605000D01*
X79150000Y-54605000D01*
X79150000Y-51679000D01*
X79169685Y-51611961D01*
X79222489Y-51566206D01*
X79274000Y-51555000D01*
X83876000Y-51555000D01*
X83943039Y-51574685D01*
G37*
%TD.AperFunction*%
%TD*%
%TA.AperFunction,Conductor*%
%TO.N,GND*%
G36*
X97497757Y-39816596D02*
G01*
X97576404Y-39832239D01*
X97621094Y-39850750D01*
X97677412Y-39888381D01*
X97711619Y-39922588D01*
X97749248Y-39978903D01*
X97767762Y-40023602D01*
X97783403Y-40102234D01*
X97785786Y-40126425D01*
X97785786Y-43402004D01*
X97783403Y-43426195D01*
X97767762Y-43504827D01*
X97749248Y-43549526D01*
X97711622Y-43605838D01*
X97677409Y-43640051D01*
X97621097Y-43677677D01*
X97576398Y-43696191D01*
X97497766Y-43711832D01*
X97473575Y-43714215D01*
X94897997Y-43714215D01*
X94873806Y-43711832D01*
X94795173Y-43696191D01*
X94750475Y-43677677D01*
X94694159Y-43640048D01*
X94659952Y-43605841D01*
X94622321Y-43549523D01*
X94603810Y-43504833D01*
X94588167Y-43426186D01*
X94585786Y-43402004D01*
X94585786Y-40126425D01*
X94588167Y-40102244D01*
X94603811Y-40023594D01*
X94622320Y-39978908D01*
X94659954Y-39922585D01*
X94694156Y-39888383D01*
X94750479Y-39850749D01*
X94795165Y-39832240D01*
X94873814Y-39816596D01*
X94897997Y-39814215D01*
X97473575Y-39814215D01*
X97497757Y-39816596D01*
G37*
%TD.AperFunction*%
%TD*%
%TA.AperFunction,Conductor*%
%TO.N,Net-(U1-SW)*%
G36*
X109648671Y-50117690D02*
G01*
X109650852Y-50118218D01*
X109702803Y-50144942D01*
X109704502Y-50146411D01*
X109724300Y-50168135D01*
X109757215Y-50214215D01*
X110155874Y-50772339D01*
X110155875Y-50772340D01*
X110185786Y-50814215D01*
X112996186Y-50814215D01*
X113063225Y-50833900D01*
X113108980Y-50886704D01*
X113110510Y-50890194D01*
X113115568Y-50902235D01*
X113134252Y-50946717D01*
X113134253Y-50946718D01*
X113164587Y-50999495D01*
X113164588Y-50999496D01*
X113210055Y-51059847D01*
X113210059Y-51059852D01*
X113210061Y-51059854D01*
X113234691Y-51085271D01*
X113293594Y-51132623D01*
X113345390Y-51164601D01*
X113345389Y-51164601D01*
X113345393Y-51164603D01*
X113345395Y-51164604D01*
X113414116Y-51196046D01*
X113463083Y-51211467D01*
X113499834Y-51220580D01*
X113530007Y-51226104D01*
X113530011Y-51226104D01*
X113530014Y-51226105D01*
X113536063Y-51226828D01*
X113567594Y-51230601D01*
X113982329Y-51254301D01*
X113991038Y-51254675D01*
X113998112Y-51254877D01*
X113999531Y-51254897D01*
X114006796Y-51255001D01*
X114006832Y-51255001D01*
X114859797Y-51255001D01*
X114893622Y-51259703D01*
X114895617Y-51260270D01*
X114954740Y-51297495D01*
X114984355Y-51360778D01*
X114985786Y-51379565D01*
X114985786Y-51775501D01*
X114966101Y-51842540D01*
X114913297Y-51888295D01*
X114861786Y-51899501D01*
X113772301Y-51899501D01*
X113741871Y-51902354D01*
X113741869Y-51902354D01*
X113613690Y-51947207D01*
X113613688Y-51947208D01*
X113504421Y-52027851D01*
X113504418Y-52027854D01*
X113463996Y-52082624D01*
X113422388Y-52114215D01*
X113385786Y-52114215D01*
X113358147Y-52169493D01*
X113271148Y-52343490D01*
X113251744Y-52371718D01*
X113250289Y-52373309D01*
X113192705Y-52408896D01*
X113191365Y-52409277D01*
X113190632Y-52409485D01*
X113156713Y-52414215D01*
X109785786Y-52414215D01*
X109771859Y-52497774D01*
X109771859Y-52497775D01*
X109720639Y-52805100D01*
X109690201Y-52867992D01*
X109630593Y-52904443D01*
X109598326Y-52908715D01*
X107697997Y-52908715D01*
X107680667Y-52909566D01*
X107668056Y-52910185D01*
X107643882Y-52912565D01*
X107643864Y-52912567D01*
X107614241Y-52916961D01*
X107614221Y-52916964D01*
X107614212Y-52916966D01*
X107614192Y-52916970D01*
X107573840Y-52924996D01*
X107573831Y-52924998D01*
X107516520Y-52942385D01*
X107471826Y-52960899D01*
X107471819Y-52960902D01*
X107419016Y-52989127D01*
X107415031Y-52991789D01*
X107412745Y-52993317D01*
X107346070Y-53014195D01*
X107343856Y-53014215D01*
X105910450Y-53014215D01*
X105862934Y-53004749D01*
X105862460Y-53004553D01*
X105808083Y-52960681D01*
X105795396Y-52937417D01*
X105795202Y-52936948D01*
X105785786Y-52889551D01*
X105785786Y-50238878D01*
X105795201Y-50191483D01*
X105795397Y-50191009D01*
X105839211Y-50136587D01*
X105862659Y-50123794D01*
X105863141Y-50123594D01*
X105910450Y-50114215D01*
X109619522Y-50114215D01*
X109648671Y-50117690D01*
G37*
%TD.AperFunction*%
%TD*%
%TA.AperFunction,Conductor*%
%TO.N,GND*%
G36*
X89397757Y-49016596D02*
G01*
X89438132Y-49024627D01*
X89482829Y-49043142D01*
X89506699Y-49059092D01*
X89540908Y-49093301D01*
X89556858Y-49117171D01*
X89575374Y-49161870D01*
X89583403Y-49202237D01*
X89585786Y-49226425D01*
X89585786Y-52414215D01*
X90973575Y-52414215D01*
X90997757Y-52416596D01*
X91038132Y-52424627D01*
X91082829Y-52443142D01*
X91106699Y-52459092D01*
X91140908Y-52493301D01*
X91156858Y-52517171D01*
X91175374Y-52561870D01*
X91183403Y-52602237D01*
X91185786Y-52626425D01*
X91185786Y-53014215D01*
X91379116Y-53062547D01*
X91420951Y-53073007D01*
X91446583Y-53082522D01*
X91487730Y-53103214D01*
X91529760Y-53137685D01*
X91549428Y-53162876D01*
X91572675Y-53212006D01*
X91582771Y-53256950D01*
X91585786Y-53284126D01*
X91585786Y-54702004D01*
X91583403Y-54726193D01*
X91578656Y-54750056D01*
X91575374Y-54766559D01*
X91556858Y-54811258D01*
X91540908Y-54835128D01*
X91506699Y-54869337D01*
X91482829Y-54885287D01*
X91438130Y-54903803D01*
X91421627Y-54907085D01*
X91397764Y-54911832D01*
X91373575Y-54914215D01*
X85298572Y-54914215D01*
X85266817Y-54910080D01*
X85224960Y-54898991D01*
X85215158Y-54896394D01*
X85159979Y-54864950D01*
X85133786Y-54839197D01*
X85101411Y-54784557D01*
X85086852Y-54733136D01*
X85082180Y-54701456D01*
X85075517Y-54308339D01*
X85075499Y-54306238D01*
X85075499Y-53480714D01*
X85075500Y-53480697D01*
X85075500Y-51136897D01*
X85065762Y-51055806D01*
X85065524Y-51051842D01*
X85064876Y-51048430D01*
X85026507Y-50951135D01*
X85017879Y-50907748D01*
X84989442Y-49229948D01*
X84991462Y-49205464D01*
X84998970Y-49164560D01*
X85017102Y-49119156D01*
X85032958Y-49094873D01*
X85067232Y-49060013D01*
X85091243Y-49043748D01*
X85136333Y-49024848D01*
X85149283Y-49022243D01*
X85177104Y-49016649D01*
X85201551Y-49014215D01*
X89373575Y-49014215D01*
X89397757Y-49016596D01*
G37*
%TD.AperFunction*%
%TD*%
%TA.AperFunction,Conductor*%
%TO.N,+12V*%
G36*
X45785860Y-32315276D02*
G01*
X45891024Y-32329121D01*
X45922291Y-32337499D01*
X46012716Y-32374954D01*
X46040750Y-32391139D01*
X46124911Y-32455718D01*
X46137106Y-32466413D01*
X46838455Y-33167763D01*
X46838462Y-33167769D01*
X46984908Y-33314215D01*
X56476782Y-33314215D01*
X56492967Y-33315276D01*
X56598131Y-33329121D01*
X56629399Y-33337499D01*
X56719826Y-33374955D01*
X56747859Y-33391140D01*
X56766852Y-33405714D01*
X56825510Y-33450724D01*
X56848399Y-33473613D01*
X56907982Y-33551263D01*
X56924167Y-33579296D01*
X56961623Y-33669723D01*
X56970001Y-33700990D01*
X56983847Y-33806154D01*
X56984908Y-33822340D01*
X56984908Y-39414215D01*
X66184908Y-39214215D01*
X66184908Y-35479731D01*
X68245000Y-35479731D01*
X68245000Y-35875000D01*
X69636528Y-35875000D01*
X69543906Y-36056780D01*
X69478242Y-36258874D01*
X69445000Y-36468753D01*
X69445000Y-36681247D01*
X69478242Y-36891126D01*
X69543906Y-37093220D01*
X69636528Y-37275000D01*
X68245000Y-37275000D01*
X68245000Y-37670268D01*
X68255215Y-37814958D01*
X68255217Y-37814968D01*
X68309313Y-38055165D01*
X68309315Y-38055172D01*
X68401244Y-38283585D01*
X68528620Y-38494289D01*
X68528627Y-38494299D01*
X68688153Y-38681846D01*
X68875700Y-38841372D01*
X68875710Y-38841379D01*
X69086414Y-38968755D01*
X69314827Y-39060684D01*
X69314834Y-39060686D01*
X69555031Y-39114782D01*
X69555041Y-39114784D01*
X69699731Y-39124999D01*
X69699734Y-39125000D01*
X70095000Y-39125000D01*
X70095000Y-37733471D01*
X70276780Y-37826094D01*
X70478874Y-37891758D01*
X70688753Y-37925000D01*
X70901247Y-37925000D01*
X71111126Y-37891758D01*
X71313220Y-37826094D01*
X71495000Y-37733471D01*
X71495000Y-39125000D01*
X71890266Y-39125000D01*
X71890268Y-39124999D01*
X72034958Y-39114784D01*
X72034968Y-39114782D01*
X72275165Y-39060686D01*
X72275172Y-39060684D01*
X72503585Y-38968755D01*
X72714289Y-38841379D01*
X72714299Y-38841372D01*
X72901846Y-38681846D01*
X73061372Y-38494299D01*
X73061379Y-38494289D01*
X73188755Y-38283585D01*
X73280684Y-38055172D01*
X73280686Y-38055165D01*
X73334782Y-37814968D01*
X73334784Y-37814958D01*
X73344999Y-37670268D01*
X73345000Y-37670266D01*
X73345000Y-37275000D01*
X71953472Y-37275000D01*
X72046094Y-37093220D01*
X72111758Y-36891126D01*
X72145000Y-36681247D01*
X72145000Y-36468753D01*
X72111758Y-36258874D01*
X72046094Y-36056780D01*
X71953472Y-35875000D01*
X73345000Y-35875000D01*
X73345000Y-35479734D01*
X73344999Y-35479731D01*
X73334784Y-35335041D01*
X73334782Y-35335031D01*
X73280686Y-35094834D01*
X73280684Y-35094827D01*
X73188755Y-34866414D01*
X73061379Y-34655710D01*
X73061372Y-34655700D01*
X72901846Y-34468153D01*
X72714299Y-34308627D01*
X72714289Y-34308620D01*
X72503585Y-34181244D01*
X72275172Y-34089315D01*
X72275165Y-34089313D01*
X72034968Y-34035217D01*
X72034958Y-34035215D01*
X71890268Y-34025000D01*
X71495000Y-34025000D01*
X71495000Y-35416528D01*
X71313220Y-35323906D01*
X71111126Y-35258242D01*
X70901247Y-35225000D01*
X70688753Y-35225000D01*
X70478874Y-35258242D01*
X70276780Y-35323906D01*
X70095000Y-35416528D01*
X70095000Y-34025000D01*
X69699731Y-34025000D01*
X69555041Y-34035215D01*
X69555031Y-34035217D01*
X69314834Y-34089313D01*
X69314827Y-34089315D01*
X69086414Y-34181244D01*
X68875710Y-34308620D01*
X68875700Y-34308627D01*
X68688153Y-34468153D01*
X68528627Y-34655700D01*
X68528620Y-34655710D01*
X68401244Y-34866414D01*
X68309315Y-35094827D01*
X68309313Y-35094834D01*
X68255217Y-35335031D01*
X68255215Y-35335041D01*
X68245000Y-35479731D01*
X66184908Y-35479731D01*
X66184908Y-33422340D01*
X66185969Y-33406155D01*
X66199814Y-33300991D01*
X66208192Y-33269723D01*
X66245648Y-33179296D01*
X66261831Y-33151265D01*
X66321421Y-33073607D01*
X66344300Y-33050728D01*
X66421958Y-32991138D01*
X66449987Y-32974955D01*
X66540417Y-32937498D01*
X66571683Y-32929121D01*
X66676849Y-32915276D01*
X66693034Y-32914215D01*
X73177236Y-32914215D01*
X73193412Y-32915275D01*
X73298516Y-32929104D01*
X73329765Y-32937471D01*
X73420156Y-32974889D01*
X73448173Y-32991054D01*
X73525804Y-33050576D01*
X73548687Y-33073438D01*
X73548822Y-33073613D01*
X73608280Y-33151017D01*
X73624472Y-33179024D01*
X73661967Y-33269373D01*
X73670364Y-33300616D01*
X73684289Y-33405714D01*
X73685363Y-33421890D01*
X73690781Y-39460662D01*
X73700442Y-50228499D01*
X73700441Y-50229750D01*
X73700438Y-50230921D01*
X73697406Y-50969309D01*
X73686954Y-53515509D01*
X73686955Y-53515519D01*
X73684908Y-54014215D01*
X77180178Y-54037626D01*
X77196266Y-54038785D01*
X77300909Y-54053216D01*
X77331994Y-54061732D01*
X77421850Y-54099481D01*
X77449694Y-54115722D01*
X77526787Y-54175358D01*
X77549502Y-54198227D01*
X77608619Y-54275717D01*
X77624673Y-54303667D01*
X77661819Y-54393771D01*
X77670127Y-54424915D01*
X77683856Y-54529644D01*
X77684908Y-54545761D01*
X77684908Y-57185891D01*
X77665223Y-57252930D01*
X77612419Y-57298685D01*
X77543261Y-57308629D01*
X77495811Y-57291430D01*
X77470215Y-57275642D01*
X77401095Y-57252738D01*
X77401095Y-60817263D01*
X77470213Y-60794360D01*
X77470217Y-60794358D01*
X77495809Y-60778573D01*
X77563201Y-60760131D01*
X77629865Y-60781052D01*
X77674636Y-60834693D01*
X77684908Y-60884110D01*
X77684908Y-63514215D01*
X78185105Y-63514010D01*
X78185110Y-63514010D01*
X78185112Y-63514011D01*
X78185117Y-63514010D01*
X78185118Y-63514011D01*
X78211972Y-63514000D01*
X92089338Y-63508332D01*
X92156382Y-63527988D01*
X92202158Y-63580773D01*
X92212130Y-63649928D01*
X92207091Y-63671335D01*
X92189307Y-63725000D01*
X92189308Y-63725001D01*
X94503833Y-63725001D01*
X94485710Y-63670308D01*
X94483308Y-63600480D01*
X94519040Y-63540438D01*
X94581560Y-63509245D01*
X94603348Y-63507305D01*
X108261332Y-63501727D01*
X108277580Y-63502790D01*
X108383228Y-63516719D01*
X108414628Y-63525160D01*
X108505407Y-63562909D01*
X108533535Y-63579223D01*
X108611383Y-63639277D01*
X108634304Y-63662343D01*
X108693863Y-63740571D01*
X108709998Y-63768803D01*
X108747169Y-63859818D01*
X108755411Y-63891274D01*
X108768668Y-63997007D01*
X108769628Y-64013272D01*
X108751694Y-66665942D01*
X108731557Y-66732847D01*
X108678445Y-66778244D01*
X108609221Y-66787720D01*
X108545863Y-66758266D01*
X108540016Y-66752785D01*
X108444916Y-66657685D01*
X108295691Y-66565642D01*
X108226571Y-66542738D01*
X108226571Y-70107263D01*
X108295689Y-70084360D01*
X108444913Y-69992318D01*
X108517417Y-69919814D01*
X108578740Y-69886329D01*
X108648432Y-69891313D01*
X108704366Y-69933184D01*
X108728783Y-69998648D01*
X108729096Y-70008333D01*
X108689198Y-75909504D01*
X108688037Y-75925613D01*
X108673602Y-76030241D01*
X108665085Y-76061327D01*
X108627332Y-76151179D01*
X108611091Y-76179019D01*
X108551457Y-76256105D01*
X108528588Y-76278820D01*
X108451100Y-76337932D01*
X108423150Y-76353985D01*
X108333048Y-76391128D01*
X108301906Y-76399435D01*
X108219096Y-76410290D01*
X108197179Y-76413163D01*
X108181064Y-76414215D01*
X48093034Y-76414215D01*
X48076849Y-76413154D01*
X48063825Y-76411439D01*
X47971683Y-76399308D01*
X47940416Y-76390930D01*
X47849989Y-76353474D01*
X47821956Y-76337289D01*
X47744306Y-76277706D01*
X47721416Y-76254816D01*
X47661833Y-76177166D01*
X47645648Y-76149133D01*
X47608192Y-76058706D01*
X47599814Y-76027438D01*
X47585969Y-75922274D01*
X47584908Y-75906089D01*
X47584908Y-71702155D01*
X50600000Y-71702155D01*
X50600000Y-72950000D01*
X51841528Y-72950000D01*
X51748906Y-73131780D01*
X51683242Y-73333874D01*
X51650000Y-73543753D01*
X51650000Y-73756247D01*
X51683242Y-73966126D01*
X51748906Y-74168220D01*
X51841528Y-74350000D01*
X50600000Y-74350000D01*
X50600000Y-75597844D01*
X50606401Y-75657372D01*
X50606403Y-75657379D01*
X50656645Y-75792086D01*
X50656649Y-75792093D01*
X50742809Y-75907187D01*
X50742812Y-75907190D01*
X50857906Y-75993350D01*
X50857913Y-75993354D01*
X50992620Y-76043596D01*
X50992627Y-76043598D01*
X51052155Y-76049999D01*
X51052172Y-76050000D01*
X52300000Y-76050000D01*
X52300000Y-74808471D01*
X52481780Y-74901094D01*
X52683874Y-74966758D01*
X52893753Y-75000000D01*
X53106247Y-75000000D01*
X53316126Y-74966758D01*
X53518220Y-74901094D01*
X53700000Y-74808471D01*
X53700000Y-76050000D01*
X54947828Y-76050000D01*
X54947844Y-76049999D01*
X55007372Y-76043598D01*
X55007379Y-76043596D01*
X55142086Y-75993354D01*
X55142093Y-75993350D01*
X55257187Y-75907190D01*
X55257190Y-75907187D01*
X55343350Y-75792093D01*
X55343354Y-75792086D01*
X55393596Y-75657379D01*
X55393598Y-75657372D01*
X55399999Y-75597844D01*
X55400000Y-75597827D01*
X55400000Y-74350000D01*
X54158472Y-74350000D01*
X54251094Y-74168220D01*
X54316758Y-73966126D01*
X54350000Y-73756247D01*
X54350000Y-73543753D01*
X54316758Y-73333874D01*
X54251094Y-73131780D01*
X54158472Y-72950000D01*
X55400000Y-72950000D01*
X55400000Y-71702172D01*
X55399999Y-71702155D01*
X60600000Y-71702155D01*
X60600000Y-72950000D01*
X61841528Y-72950000D01*
X61748906Y-73131780D01*
X61683242Y-73333874D01*
X61650000Y-73543753D01*
X61650000Y-73756247D01*
X61683242Y-73966126D01*
X61748906Y-74168220D01*
X61841528Y-74350000D01*
X60600000Y-74350000D01*
X60600000Y-75597844D01*
X60606401Y-75657372D01*
X60606403Y-75657379D01*
X60656645Y-75792086D01*
X60656649Y-75792093D01*
X60742809Y-75907187D01*
X60742812Y-75907190D01*
X60857906Y-75993350D01*
X60857913Y-75993354D01*
X60992620Y-76043596D01*
X60992627Y-76043598D01*
X61052155Y-76049999D01*
X61052172Y-76050000D01*
X62300000Y-76050000D01*
X62300000Y-74808471D01*
X62481780Y-74901094D01*
X62683874Y-74966758D01*
X62893753Y-75000000D01*
X63106247Y-75000000D01*
X63316126Y-74966758D01*
X63518220Y-74901094D01*
X63700000Y-74808471D01*
X63700000Y-76050000D01*
X64947828Y-76050000D01*
X64947844Y-76049999D01*
X65007372Y-76043598D01*
X65007379Y-76043596D01*
X65142086Y-75993354D01*
X65142093Y-75993350D01*
X65257187Y-75907190D01*
X65257190Y-75907187D01*
X65343350Y-75792093D01*
X65343354Y-75792086D01*
X65393596Y-75657379D01*
X65393598Y-75657372D01*
X65399999Y-75597844D01*
X65400000Y-75597827D01*
X65400000Y-74350000D01*
X64158472Y-74350000D01*
X64251094Y-74168220D01*
X64316758Y-73966126D01*
X64350000Y-73756247D01*
X64350000Y-73543753D01*
X64316758Y-73333874D01*
X64251094Y-73131780D01*
X64158472Y-72950000D01*
X65400000Y-72950000D01*
X65400000Y-71702172D01*
X65399999Y-71702155D01*
X70600000Y-71702155D01*
X70600000Y-72950000D01*
X71841528Y-72950000D01*
X71748906Y-73131780D01*
X71683242Y-73333874D01*
X71650000Y-73543753D01*
X71650000Y-73756247D01*
X71683242Y-73966126D01*
X71748906Y-74168220D01*
X71841528Y-74350000D01*
X70600000Y-74350000D01*
X70600000Y-75597844D01*
X70606401Y-75657372D01*
X70606403Y-75657379D01*
X70656645Y-75792086D01*
X70656649Y-75792093D01*
X70742809Y-75907187D01*
X70742812Y-75907190D01*
X70857906Y-75993350D01*
X70857913Y-75993354D01*
X70992620Y-76043596D01*
X70992627Y-76043598D01*
X71052155Y-76049999D01*
X71052172Y-76050000D01*
X72300000Y-76050000D01*
X72300000Y-74808471D01*
X72481780Y-74901094D01*
X72683874Y-74966758D01*
X72893753Y-75000000D01*
X73106247Y-75000000D01*
X73316126Y-74966758D01*
X73518220Y-74901094D01*
X73700000Y-74808471D01*
X73700000Y-76050000D01*
X74947828Y-76050000D01*
X74947844Y-76049999D01*
X75007372Y-76043598D01*
X75007379Y-76043596D01*
X75142086Y-75993354D01*
X75142093Y-75993350D01*
X75257187Y-75907190D01*
X75257190Y-75907187D01*
X75343350Y-75792093D01*
X75343354Y-75792086D01*
X75393596Y-75657379D01*
X75393598Y-75657372D01*
X75399999Y-75597844D01*
X75400000Y-75597827D01*
X75400000Y-74350000D01*
X74158472Y-74350000D01*
X74251094Y-74168220D01*
X74316758Y-73966126D01*
X74350000Y-73756247D01*
X74350000Y-73543753D01*
X74316758Y-73333874D01*
X74251094Y-73131780D01*
X74158472Y-72950000D01*
X75400000Y-72950000D01*
X75400000Y-71702172D01*
X75399999Y-71702155D01*
X80600000Y-71702155D01*
X80600000Y-72950000D01*
X81841528Y-72950000D01*
X81748906Y-73131780D01*
X81683242Y-73333874D01*
X81650000Y-73543753D01*
X81650000Y-73756247D01*
X81683242Y-73966126D01*
X81748906Y-74168220D01*
X81841528Y-74350000D01*
X80600000Y-74350000D01*
X80600000Y-75597844D01*
X80606401Y-75657372D01*
X80606403Y-75657379D01*
X80656645Y-75792086D01*
X80656649Y-75792093D01*
X80742809Y-75907187D01*
X80742812Y-75907190D01*
X80857906Y-75993350D01*
X80857913Y-75993354D01*
X80992620Y-76043596D01*
X80992627Y-76043598D01*
X81052155Y-76049999D01*
X81052172Y-76050000D01*
X82300000Y-76050000D01*
X82300000Y-74808471D01*
X82481780Y-74901094D01*
X82683874Y-74966758D01*
X82893753Y-75000000D01*
X83106247Y-75000000D01*
X83316126Y-74966758D01*
X83518220Y-74901094D01*
X83700000Y-74808471D01*
X83700000Y-76050000D01*
X84947828Y-76050000D01*
X84947844Y-76049999D01*
X85007372Y-76043598D01*
X85007379Y-76043596D01*
X85142086Y-75993354D01*
X85142093Y-75993350D01*
X85257187Y-75907190D01*
X85257190Y-75907187D01*
X85343350Y-75792093D01*
X85343354Y-75792086D01*
X85393596Y-75657379D01*
X85393598Y-75657372D01*
X85399999Y-75597844D01*
X85400000Y-75597827D01*
X85400000Y-74350000D01*
X84158472Y-74350000D01*
X84251094Y-74168220D01*
X84316758Y-73966126D01*
X84350000Y-73756247D01*
X84350000Y-73543753D01*
X84316758Y-73333874D01*
X84251094Y-73131780D01*
X84158472Y-72950000D01*
X85400000Y-72950000D01*
X85400000Y-71702172D01*
X85399999Y-71702155D01*
X90600000Y-71702155D01*
X90600000Y-72950000D01*
X91841528Y-72950000D01*
X91748906Y-73131780D01*
X91683242Y-73333874D01*
X91650000Y-73543753D01*
X91650000Y-73756247D01*
X91683242Y-73966126D01*
X91748906Y-74168220D01*
X91841528Y-74350000D01*
X90600000Y-74350000D01*
X90600000Y-75597844D01*
X90606401Y-75657372D01*
X90606403Y-75657379D01*
X90656645Y-75792086D01*
X90656649Y-75792093D01*
X90742809Y-75907187D01*
X90742812Y-75907190D01*
X90857906Y-75993350D01*
X90857913Y-75993354D01*
X90992620Y-76043596D01*
X90992627Y-76043598D01*
X91052155Y-76049999D01*
X91052172Y-76050000D01*
X92300000Y-76050000D01*
X92300000Y-74808471D01*
X92481780Y-74901094D01*
X92683874Y-74966758D01*
X92893753Y-75000000D01*
X93106247Y-75000000D01*
X93316126Y-74966758D01*
X93518220Y-74901094D01*
X93700000Y-74808471D01*
X93700000Y-76050000D01*
X94947828Y-76050000D01*
X94947844Y-76049999D01*
X95007372Y-76043598D01*
X95007379Y-76043596D01*
X95142086Y-75993354D01*
X95142093Y-75993350D01*
X95257187Y-75907190D01*
X95257190Y-75907187D01*
X95343350Y-75792093D01*
X95343354Y-75792086D01*
X95393596Y-75657379D01*
X95393598Y-75657372D01*
X95399999Y-75597844D01*
X95400000Y-75597827D01*
X95400000Y-74350000D01*
X94158472Y-74350000D01*
X94251094Y-74168220D01*
X94316758Y-73966126D01*
X94350000Y-73756247D01*
X94350000Y-73543753D01*
X94316758Y-73333874D01*
X94251094Y-73131780D01*
X94158472Y-72950000D01*
X95400000Y-72950000D01*
X95400000Y-71702172D01*
X95399999Y-71702155D01*
X100600000Y-71702155D01*
X100600000Y-72950000D01*
X101841528Y-72950000D01*
X101748906Y-73131780D01*
X101683242Y-73333874D01*
X101650000Y-73543753D01*
X101650000Y-73756247D01*
X101683242Y-73966126D01*
X101748906Y-74168220D01*
X101841528Y-74350000D01*
X100600000Y-74350000D01*
X100600000Y-75597844D01*
X100606401Y-75657372D01*
X100606403Y-75657379D01*
X100656645Y-75792086D01*
X100656649Y-75792093D01*
X100742809Y-75907187D01*
X100742812Y-75907190D01*
X100857906Y-75993350D01*
X100857913Y-75993354D01*
X100992620Y-76043596D01*
X100992627Y-76043598D01*
X101052155Y-76049999D01*
X101052172Y-76050000D01*
X102300000Y-76050000D01*
X102300000Y-74808471D01*
X102481780Y-74901094D01*
X102683874Y-74966758D01*
X102893753Y-75000000D01*
X103106247Y-75000000D01*
X103316126Y-74966758D01*
X103518220Y-74901094D01*
X103700000Y-74808471D01*
X103700000Y-76050000D01*
X104947828Y-76050000D01*
X104947844Y-76049999D01*
X105007372Y-76043598D01*
X105007379Y-76043596D01*
X105142086Y-75993354D01*
X105142093Y-75993350D01*
X105257187Y-75907190D01*
X105257190Y-75907187D01*
X105343350Y-75792093D01*
X105343354Y-75792086D01*
X105393596Y-75657379D01*
X105393598Y-75657372D01*
X105399999Y-75597844D01*
X105400000Y-75597827D01*
X105400000Y-74350000D01*
X104158472Y-74350000D01*
X104251094Y-74168220D01*
X104316758Y-73966126D01*
X104350000Y-73756247D01*
X104350000Y-73543753D01*
X104316758Y-73333874D01*
X104251094Y-73131780D01*
X104158472Y-72950000D01*
X105400000Y-72950000D01*
X105400000Y-71702172D01*
X105399999Y-71702155D01*
X105393598Y-71642627D01*
X105393596Y-71642620D01*
X105343354Y-71507913D01*
X105343350Y-71507906D01*
X105257190Y-71392812D01*
X105257187Y-71392809D01*
X105142093Y-71306649D01*
X105142086Y-71306645D01*
X105007379Y-71256403D01*
X105007372Y-71256401D01*
X104947844Y-71250000D01*
X103700000Y-71250000D01*
X103700000Y-72491528D01*
X103518220Y-72398906D01*
X103316126Y-72333242D01*
X103106247Y-72300000D01*
X102893753Y-72300000D01*
X102683874Y-72333242D01*
X102481780Y-72398906D01*
X102300000Y-72491528D01*
X102300000Y-71250000D01*
X101052155Y-71250000D01*
X100992627Y-71256401D01*
X100992620Y-71256403D01*
X100857913Y-71306645D01*
X100857906Y-71306649D01*
X100742812Y-71392809D01*
X100742809Y-71392812D01*
X100656649Y-71507906D01*
X100656645Y-71507913D01*
X100606403Y-71642620D01*
X100606401Y-71642627D01*
X100600000Y-71702155D01*
X95399999Y-71702155D01*
X95393598Y-71642627D01*
X95393596Y-71642620D01*
X95343354Y-71507913D01*
X95343350Y-71507906D01*
X95257190Y-71392812D01*
X95257187Y-71392809D01*
X95142093Y-71306649D01*
X95142086Y-71306645D01*
X95007379Y-71256403D01*
X95007372Y-71256401D01*
X94947844Y-71250000D01*
X93700000Y-71250000D01*
X93700000Y-72491528D01*
X93518220Y-72398906D01*
X93316126Y-72333242D01*
X93106247Y-72300000D01*
X92893753Y-72300000D01*
X92683874Y-72333242D01*
X92481780Y-72398906D01*
X92300000Y-72491528D01*
X92300000Y-71250000D01*
X91052155Y-71250000D01*
X90992627Y-71256401D01*
X90992620Y-71256403D01*
X90857913Y-71306645D01*
X90857906Y-71306649D01*
X90742812Y-71392809D01*
X90742809Y-71392812D01*
X90656649Y-71507906D01*
X90656645Y-71507913D01*
X90606403Y-71642620D01*
X90606401Y-71642627D01*
X90600000Y-71702155D01*
X85399999Y-71702155D01*
X85393598Y-71642627D01*
X85393596Y-71642620D01*
X85343354Y-71507913D01*
X85343350Y-71507906D01*
X85257190Y-71392812D01*
X85257187Y-71392809D01*
X85142093Y-71306649D01*
X85142086Y-71306645D01*
X85007379Y-71256403D01*
X85007372Y-71256401D01*
X84947844Y-71250000D01*
X83700000Y-71250000D01*
X83700000Y-72491528D01*
X83518220Y-72398906D01*
X83316126Y-72333242D01*
X83106247Y-72300000D01*
X82893753Y-72300000D01*
X82683874Y-72333242D01*
X82481780Y-72398906D01*
X82300000Y-72491528D01*
X82300000Y-71250000D01*
X81052155Y-71250000D01*
X80992627Y-71256401D01*
X80992620Y-71256403D01*
X80857913Y-71306645D01*
X80857906Y-71306649D01*
X80742812Y-71392809D01*
X80742809Y-71392812D01*
X80656649Y-71507906D01*
X80656645Y-71507913D01*
X80606403Y-71642620D01*
X80606401Y-71642627D01*
X80600000Y-71702155D01*
X75399999Y-71702155D01*
X75393598Y-71642627D01*
X75393596Y-71642620D01*
X75343354Y-71507913D01*
X75343350Y-71507906D01*
X75257190Y-71392812D01*
X75257187Y-71392809D01*
X75142093Y-71306649D01*
X75142086Y-71306645D01*
X75007379Y-71256403D01*
X75007372Y-71256401D01*
X74947844Y-71250000D01*
X73700000Y-71250000D01*
X73700000Y-72491528D01*
X73518220Y-72398906D01*
X73316126Y-72333242D01*
X73106247Y-72300000D01*
X72893753Y-72300000D01*
X72683874Y-72333242D01*
X72481780Y-72398906D01*
X72300000Y-72491528D01*
X72300000Y-71250000D01*
X71052155Y-71250000D01*
X70992627Y-71256401D01*
X70992620Y-71256403D01*
X70857913Y-71306645D01*
X70857906Y-71306649D01*
X70742812Y-71392809D01*
X70742809Y-71392812D01*
X70656649Y-71507906D01*
X70656645Y-71507913D01*
X70606403Y-71642620D01*
X70606401Y-71642627D01*
X70600000Y-71702155D01*
X65399999Y-71702155D01*
X65393598Y-71642627D01*
X65393596Y-71642620D01*
X65343354Y-71507913D01*
X65343350Y-71507906D01*
X65257190Y-71392812D01*
X65257187Y-71392809D01*
X65142093Y-71306649D01*
X65142086Y-71306645D01*
X65007379Y-71256403D01*
X65007372Y-71256401D01*
X64947844Y-71250000D01*
X63700000Y-71250000D01*
X63700000Y-72491528D01*
X63518220Y-72398906D01*
X63316126Y-72333242D01*
X63106247Y-72300000D01*
X62893753Y-72300000D01*
X62683874Y-72333242D01*
X62481780Y-72398906D01*
X62300000Y-72491528D01*
X62300000Y-71250000D01*
X61052155Y-71250000D01*
X60992627Y-71256401D01*
X60992620Y-71256403D01*
X60857913Y-71306645D01*
X60857906Y-71306649D01*
X60742812Y-71392809D01*
X60742809Y-71392812D01*
X60656649Y-71507906D01*
X60656645Y-71507913D01*
X60606403Y-71642620D01*
X60606401Y-71642627D01*
X60600000Y-71702155D01*
X55399999Y-71702155D01*
X55393598Y-71642627D01*
X55393596Y-71642620D01*
X55343354Y-71507913D01*
X55343350Y-71507906D01*
X55257190Y-71392812D01*
X55257187Y-71392809D01*
X55142093Y-71306649D01*
X55142086Y-71306645D01*
X55007379Y-71256403D01*
X55007372Y-71256401D01*
X54947844Y-71250000D01*
X53700000Y-71250000D01*
X53700000Y-72491528D01*
X53518220Y-72398906D01*
X53316126Y-72333242D01*
X53106247Y-72300000D01*
X52893753Y-72300000D01*
X52683874Y-72333242D01*
X52481780Y-72398906D01*
X52300000Y-72491528D01*
X52300000Y-71250000D01*
X51052155Y-71250000D01*
X50992627Y-71256401D01*
X50992620Y-71256403D01*
X50857913Y-71306645D01*
X50857906Y-71306649D01*
X50742812Y-71392809D01*
X50742809Y-71392812D01*
X50656649Y-71507906D01*
X50656645Y-71507913D01*
X50606403Y-71642620D01*
X50606401Y-71642627D01*
X50600000Y-71702155D01*
X47584908Y-71702155D01*
X47584908Y-69449987D01*
X106426572Y-69449987D01*
X106437065Y-69552698D01*
X106492212Y-69719120D01*
X106492214Y-69719125D01*
X106584255Y-69868346D01*
X106708225Y-69992316D01*
X106857452Y-70084360D01*
X106926570Y-70107263D01*
X106926571Y-70107263D01*
X106926571Y-68975001D01*
X106426572Y-68975001D01*
X106426572Y-69449987D01*
X47584908Y-69449987D01*
X47584908Y-67200014D01*
X106426571Y-67200014D01*
X106426571Y-67675001D01*
X106926571Y-67675001D01*
X106926571Y-66581001D01*
X106946256Y-66513962D01*
X106999060Y-66468207D01*
X107050571Y-66457001D01*
X107153266Y-66457001D01*
X107153280Y-66457000D01*
X107177697Y-66454505D01*
X107344119Y-66399358D01*
X107344124Y-66399356D01*
X107493345Y-66307315D01*
X107617315Y-66183345D01*
X107709358Y-66034120D01*
X107732263Y-65965000D01*
X106775000Y-65965000D01*
X106775000Y-66479289D01*
X106791296Y-66509133D01*
X106786312Y-66578825D01*
X106744440Y-66634758D01*
X106735229Y-66641029D01*
X106708225Y-66657685D01*
X106584255Y-66781655D01*
X106492214Y-66930876D01*
X106492212Y-66930881D01*
X106437065Y-67097303D01*
X106437064Y-67097310D01*
X106426571Y-67200014D01*
X47584908Y-67200014D01*
X47584908Y-65965000D01*
X104617737Y-65965000D01*
X104640641Y-66034120D01*
X104732684Y-66183345D01*
X104856654Y-66307315D01*
X105005875Y-66399356D01*
X105005880Y-66399358D01*
X105172302Y-66454505D01*
X105172309Y-66454506D01*
X105275019Y-66464999D01*
X105574999Y-66464999D01*
X105575000Y-66464998D01*
X105575000Y-65965000D01*
X104617737Y-65965000D01*
X47584908Y-65965000D01*
X47584908Y-64925001D01*
X92189308Y-64925001D01*
X92212212Y-64994121D01*
X92304255Y-65143346D01*
X92428225Y-65267316D01*
X92577446Y-65359357D01*
X92577451Y-65359359D01*
X92743869Y-65414505D01*
X92743876Y-65414506D01*
X92746571Y-65414781D01*
X93946571Y-65414781D01*
X93949265Y-65414506D01*
X93949272Y-65414505D01*
X94115690Y-65359359D01*
X94115695Y-65359357D01*
X94264916Y-65267316D01*
X94388886Y-65143346D01*
X94480929Y-64994121D01*
X94503834Y-64925001D01*
X93946571Y-64925001D01*
X93946571Y-65414781D01*
X92746571Y-65414781D01*
X92746571Y-64925001D01*
X92189308Y-64925001D01*
X47584908Y-64925001D01*
X47584908Y-64765000D01*
X104617737Y-64765000D01*
X105575000Y-64765000D01*
X106775000Y-64765000D01*
X107732262Y-64765000D01*
X107709358Y-64695879D01*
X107617315Y-64546654D01*
X107493345Y-64422684D01*
X107344124Y-64330643D01*
X107344119Y-64330641D01*
X107177697Y-64275494D01*
X107177690Y-64275493D01*
X107074986Y-64265000D01*
X106775000Y-64265000D01*
X106775000Y-64765000D01*
X105575000Y-64765000D01*
X105575000Y-64265000D01*
X105275028Y-64265000D01*
X105275012Y-64265001D01*
X105172302Y-64275494D01*
X105005880Y-64330641D01*
X105005875Y-64330643D01*
X104856654Y-64422684D01*
X104732684Y-64546654D01*
X104640641Y-64695879D01*
X104617737Y-64765000D01*
X47584908Y-64765000D01*
X47584908Y-64327027D01*
X47585123Y-64319728D01*
X47587942Y-64271917D01*
X47589654Y-64257439D01*
X47598080Y-64210238D01*
X47599556Y-64203176D01*
X47647095Y-64005104D01*
X48484908Y-60514215D01*
X48484908Y-60159987D01*
X75601096Y-60159987D01*
X75611589Y-60262698D01*
X75666736Y-60429120D01*
X75666738Y-60429125D01*
X75758779Y-60578346D01*
X75882749Y-60702316D01*
X76031976Y-60794360D01*
X76101094Y-60817263D01*
X76101095Y-60817263D01*
X76101095Y-59685001D01*
X75601096Y-59685001D01*
X75601096Y-60159987D01*
X48484908Y-60159987D01*
X48484908Y-57910014D01*
X75601095Y-57910014D01*
X75601095Y-58385001D01*
X76101095Y-58385001D01*
X76101095Y-57291001D01*
X76120780Y-57223962D01*
X76173584Y-57178207D01*
X76225095Y-57167001D01*
X76375788Y-57167001D01*
X76375790Y-57167000D01*
X76444121Y-57144357D01*
X76444124Y-57144356D01*
X76593345Y-57052315D01*
X76717315Y-56928345D01*
X76809358Y-56779120D01*
X76832263Y-56710000D01*
X75875000Y-56710000D01*
X75875000Y-57214125D01*
X75903522Y-57266359D01*
X75898538Y-57336051D01*
X75870037Y-57380398D01*
X75758779Y-57491655D01*
X75666738Y-57640876D01*
X75666736Y-57640881D01*
X75611589Y-57807303D01*
X75611588Y-57807310D01*
X75601095Y-57910014D01*
X48484908Y-57910014D01*
X48484908Y-56710000D01*
X73717737Y-56710000D01*
X73740641Y-56779120D01*
X73832684Y-56928345D01*
X73956654Y-57052315D01*
X74105875Y-57144356D01*
X74105880Y-57144358D01*
X74272302Y-57199505D01*
X74272309Y-57199506D01*
X74375019Y-57209999D01*
X74674999Y-57209999D01*
X74675000Y-57209998D01*
X74675000Y-56710000D01*
X73717737Y-56710000D01*
X48484908Y-56710000D01*
X48484908Y-55510000D01*
X73717737Y-55510000D01*
X74675000Y-55510000D01*
X75875000Y-55510000D01*
X76832262Y-55510000D01*
X76809358Y-55440879D01*
X76717315Y-55291654D01*
X76593345Y-55167684D01*
X76444124Y-55075643D01*
X76444119Y-55075641D01*
X76277697Y-55020494D01*
X76277690Y-55020493D01*
X76174986Y-55010000D01*
X75875000Y-55010000D01*
X75875000Y-55510000D01*
X74675000Y-55510000D01*
X74675000Y-55010000D01*
X74375028Y-55010000D01*
X74375012Y-55010001D01*
X74272302Y-55020494D01*
X74105880Y-55075641D01*
X74105875Y-55075643D01*
X73956654Y-55167684D01*
X73832684Y-55291654D01*
X73740641Y-55440879D01*
X73717737Y-55510000D01*
X48484908Y-55510000D01*
X48484908Y-50741901D01*
X48503916Y-50675927D01*
X48511573Y-50663740D01*
X48511572Y-50663740D01*
X48511575Y-50663737D01*
X48571154Y-50493470D01*
X48573347Y-50474005D01*
X48591351Y-50314218D01*
X48591351Y-50314211D01*
X48571155Y-50134965D01*
X48571152Y-50134952D01*
X48511576Y-49964696D01*
X48511575Y-49964693D01*
X48503913Y-49952500D01*
X48484908Y-49886529D01*
X48484908Y-39814221D01*
X48484908Y-39314215D01*
X47984908Y-39314215D01*
X47984901Y-39314215D01*
X40493034Y-39314215D01*
X40476849Y-39313154D01*
X40463825Y-39311439D01*
X40371683Y-39299308D01*
X40340416Y-39290930D01*
X40249989Y-39253474D01*
X40221956Y-39237289D01*
X40144306Y-39177706D01*
X40121416Y-39154816D01*
X40098537Y-39125000D01*
X40061833Y-39077166D01*
X40045648Y-39049133D01*
X40008192Y-38958706D01*
X39999814Y-38927438D01*
X39985969Y-38822274D01*
X39984908Y-38806089D01*
X39984908Y-35142844D01*
X40325000Y-35142844D01*
X40331401Y-35202372D01*
X40331403Y-35202379D01*
X40381645Y-35337086D01*
X40381649Y-35337093D01*
X40467809Y-35452187D01*
X40467812Y-35452190D01*
X40582906Y-35538350D01*
X40582913Y-35538354D01*
X40717620Y-35588596D01*
X40717627Y-35588598D01*
X40777155Y-35594999D01*
X40777172Y-35595000D01*
X42375000Y-35595000D01*
X43775000Y-35595000D01*
X45372828Y-35595000D01*
X45372844Y-35594999D01*
X45432372Y-35588598D01*
X45432379Y-35588596D01*
X45567086Y-35538354D01*
X45567093Y-35538350D01*
X45645397Y-35479731D01*
X50695000Y-35479731D01*
X50695000Y-35875000D01*
X52086528Y-35875000D01*
X51993906Y-36056780D01*
X51928242Y-36258874D01*
X51895000Y-36468753D01*
X51895000Y-36681247D01*
X51928242Y-36891126D01*
X51993906Y-37093220D01*
X52086528Y-37275000D01*
X50695000Y-37275000D01*
X50695000Y-37670268D01*
X50705215Y-37814958D01*
X50705217Y-37814968D01*
X50759313Y-38055165D01*
X50759315Y-38055172D01*
X50851244Y-38283585D01*
X50978620Y-38494289D01*
X50978627Y-38494299D01*
X51138153Y-38681846D01*
X51325700Y-38841372D01*
X51325710Y-38841379D01*
X51536414Y-38968755D01*
X51764827Y-39060684D01*
X51764834Y-39060686D01*
X52005031Y-39114782D01*
X52005041Y-39114784D01*
X52149731Y-39124999D01*
X52149734Y-39125000D01*
X52545000Y-39125000D01*
X52545000Y-37733471D01*
X52726780Y-37826094D01*
X52928874Y-37891758D01*
X53138753Y-37925000D01*
X53351247Y-37925000D01*
X53561126Y-37891758D01*
X53763220Y-37826094D01*
X53945000Y-37733471D01*
X53945000Y-39125000D01*
X54340266Y-39125000D01*
X54340268Y-39124999D01*
X54484958Y-39114784D01*
X54484968Y-39114782D01*
X54725165Y-39060686D01*
X54725172Y-39060684D01*
X54953585Y-38968755D01*
X55164289Y-38841379D01*
X55164299Y-38841372D01*
X55351846Y-38681846D01*
X55511372Y-38494299D01*
X55511379Y-38494289D01*
X55638755Y-38283585D01*
X55730684Y-38055172D01*
X55730686Y-38055165D01*
X55784782Y-37814968D01*
X55784784Y-37814958D01*
X55794999Y-37670268D01*
X55795000Y-37670266D01*
X55795000Y-37275000D01*
X54403472Y-37275000D01*
X54496094Y-37093220D01*
X54561758Y-36891126D01*
X54595000Y-36681247D01*
X54595000Y-36468753D01*
X54561758Y-36258874D01*
X54496094Y-36056780D01*
X54403472Y-35875000D01*
X55795000Y-35875000D01*
X55795000Y-35479734D01*
X55794999Y-35479731D01*
X55784784Y-35335041D01*
X55784782Y-35335031D01*
X55730686Y-35094834D01*
X55730684Y-35094827D01*
X55638755Y-34866414D01*
X55511379Y-34655710D01*
X55511372Y-34655700D01*
X55351846Y-34468153D01*
X55164299Y-34308627D01*
X55164289Y-34308620D01*
X54953585Y-34181244D01*
X54725172Y-34089315D01*
X54725165Y-34089313D01*
X54484968Y-34035217D01*
X54484958Y-34035215D01*
X54340268Y-34025000D01*
X53945000Y-34025000D01*
X53945000Y-35416528D01*
X53763220Y-35323906D01*
X53561126Y-35258242D01*
X53351247Y-35225000D01*
X53138753Y-35225000D01*
X52928874Y-35258242D01*
X52726780Y-35323906D01*
X52545000Y-35416528D01*
X52545000Y-34025000D01*
X52149731Y-34025000D01*
X52005041Y-34035215D01*
X52005031Y-34035217D01*
X51764834Y-34089313D01*
X51764827Y-34089315D01*
X51536414Y-34181244D01*
X51325710Y-34308620D01*
X51325700Y-34308627D01*
X51138153Y-34468153D01*
X50978627Y-34655700D01*
X50978620Y-34655710D01*
X50851244Y-34866414D01*
X50759315Y-35094827D01*
X50759313Y-35094834D01*
X50705217Y-35335031D01*
X50705215Y-35335041D01*
X50695000Y-35479731D01*
X45645397Y-35479731D01*
X45682187Y-35452190D01*
X45682190Y-35452187D01*
X45768350Y-35337093D01*
X45768354Y-35337086D01*
X45818596Y-35202379D01*
X45818598Y-35202372D01*
X45824999Y-35142844D01*
X45825000Y-35142827D01*
X45825000Y-34795000D01*
X43775000Y-34795000D01*
X43775000Y-35595000D01*
X42375000Y-35595000D01*
X42375000Y-34795000D01*
X40325000Y-34795000D01*
X40325000Y-35142844D01*
X39984908Y-35142844D01*
X39984908Y-34029174D01*
X41325000Y-34029174D01*
X41325000Y-34160826D01*
X41359075Y-34287993D01*
X41424901Y-34402007D01*
X41517993Y-34495099D01*
X41632007Y-34560925D01*
X41759174Y-34595000D01*
X44390826Y-34595000D01*
X44517993Y-34560925D01*
X44632007Y-34495099D01*
X44725099Y-34402007D01*
X44790925Y-34287993D01*
X44825000Y-34160826D01*
X44825000Y-34029174D01*
X44790925Y-33902007D01*
X44725099Y-33787993D01*
X44632007Y-33694901D01*
X44517993Y-33629075D01*
X44390826Y-33595000D01*
X41759174Y-33595000D01*
X41632007Y-33629075D01*
X41517993Y-33694901D01*
X41424901Y-33787993D01*
X41359075Y-33902007D01*
X41325000Y-34029174D01*
X39984908Y-34029174D01*
X39984908Y-33047155D01*
X40325000Y-33047155D01*
X40325000Y-33395000D01*
X42375000Y-33395000D01*
X43775000Y-33395000D01*
X45825000Y-33395000D01*
X45825000Y-33047172D01*
X45824999Y-33047155D01*
X45818598Y-32987627D01*
X45818596Y-32987620D01*
X45768354Y-32852913D01*
X45768350Y-32852906D01*
X45682190Y-32737812D01*
X45682187Y-32737809D01*
X45567093Y-32651649D01*
X45567086Y-32651645D01*
X45432379Y-32601403D01*
X45432372Y-32601401D01*
X45372844Y-32595000D01*
X43775000Y-32595000D01*
X43775000Y-33395000D01*
X42375000Y-33395000D01*
X42375000Y-32595000D01*
X40777155Y-32595000D01*
X40717627Y-32601401D01*
X40717620Y-32601403D01*
X40582913Y-32651645D01*
X40582906Y-32651649D01*
X40467812Y-32737809D01*
X40467809Y-32737812D01*
X40381649Y-32852906D01*
X40381645Y-32852913D01*
X40331403Y-32987620D01*
X40331401Y-32987627D01*
X40325000Y-33047155D01*
X39984908Y-33047155D01*
X39984908Y-32822340D01*
X39985969Y-32806155D01*
X39994967Y-32737812D01*
X39999814Y-32700990D01*
X40008192Y-32669723D01*
X40045648Y-32579294D01*
X40061831Y-32551265D01*
X40121421Y-32473607D01*
X40144300Y-32450728D01*
X40221958Y-32391138D01*
X40249987Y-32374955D01*
X40340417Y-32337498D01*
X40371683Y-32329121D01*
X40476849Y-32315276D01*
X40493034Y-32314215D01*
X45769675Y-32314215D01*
X45785860Y-32315276D01*
G37*
%TD.AperFunction*%
%TD*%
%TA.AperFunction,Conductor*%
%TO.N,Net-(U2-SW)*%
G36*
X94897757Y-50216596D02*
G01*
X94938132Y-50224627D01*
X94982829Y-50243142D01*
X95006699Y-50259092D01*
X95040908Y-50293301D01*
X95056858Y-50317171D01*
X95075374Y-50361870D01*
X95083403Y-50402235D01*
X95085786Y-50426425D01*
X95085786Y-52539748D01*
X95082650Y-52567458D01*
X95072164Y-52613196D01*
X95048025Y-52663076D01*
X95027673Y-52688447D01*
X94984216Y-52722832D01*
X94941842Y-52742990D01*
X94915473Y-52752062D01*
X94342402Y-52879411D01*
X94342400Y-52879411D01*
X94185786Y-52914215D01*
X94185786Y-53074649D01*
X94185786Y-53074652D01*
X94185786Y-54635997D01*
X94182552Y-54664134D01*
X94171746Y-54710514D01*
X94146874Y-54760992D01*
X94125964Y-54786498D01*
X94081343Y-54820786D01*
X94037986Y-54840476D01*
X94011032Y-54849165D01*
X93846562Y-54882059D01*
X93846558Y-54882060D01*
X93685786Y-54914215D01*
X93685786Y-55078176D01*
X93685786Y-55078180D01*
X93685786Y-56602004D01*
X93683403Y-56626197D01*
X93675374Y-56666559D01*
X93656858Y-56711258D01*
X93640908Y-56735128D01*
X93606699Y-56769337D01*
X93582829Y-56785287D01*
X93538130Y-56803803D01*
X93521627Y-56807085D01*
X93497764Y-56811832D01*
X93473575Y-56814215D01*
X93197997Y-56814215D01*
X93173806Y-56811832D01*
X93158530Y-56808793D01*
X93133442Y-56803803D01*
X93088742Y-56785287D01*
X93064872Y-56769337D01*
X93030663Y-56735128D01*
X93014713Y-56711258D01*
X92996196Y-56666552D01*
X92993976Y-56655389D01*
X92991594Y-56631203D01*
X92991594Y-55499161D01*
X92988740Y-55468733D01*
X92988642Y-55468282D01*
X92985786Y-55441822D01*
X92985786Y-55063020D01*
X92985786Y-54914215D01*
X92843258Y-54871456D01*
X92843257Y-54871456D01*
X92641030Y-54810788D01*
X92616703Y-54800559D01*
X92577724Y-54779027D01*
X92538198Y-54744506D01*
X92519722Y-54719674D01*
X92498016Y-54671894D01*
X92488594Y-54628375D01*
X92485786Y-54602137D01*
X92485786Y-53074652D01*
X92485786Y-53074649D01*
X92485786Y-52914215D01*
X92329169Y-52879411D01*
X91756098Y-52752062D01*
X91729729Y-52742990D01*
X91687355Y-52722832D01*
X91643898Y-52688447D01*
X91623546Y-52663076D01*
X91599406Y-52613193D01*
X91588921Y-52567455D01*
X91585786Y-52539748D01*
X91585786Y-50426425D01*
X91588167Y-50402244D01*
X91596198Y-50361866D01*
X91614713Y-50317171D01*
X91630663Y-50293301D01*
X91664872Y-50259092D01*
X91688742Y-50243142D01*
X91733439Y-50224627D01*
X91773813Y-50216596D01*
X91797997Y-50214215D01*
X94873575Y-50214215D01*
X94897757Y-50216596D01*
G37*
%TD.AperFunction*%
%TD*%
%TA.AperFunction,Conductor*%
%TO.N,Net-(Q2-S)*%
G36*
X114485359Y-52223955D02*
G01*
X114566141Y-52277931D01*
X114620117Y-52358713D01*
X114639071Y-52454001D01*
X114639071Y-53042000D01*
X114641927Y-53044856D01*
X114722859Y-53060955D01*
X114803641Y-53114931D01*
X114857617Y-53195713D01*
X114876571Y-53291001D01*
X114876571Y-55812500D01*
X114876572Y-55812501D01*
X115370183Y-55812501D01*
X115366076Y-55772301D01*
X115366075Y-55772298D01*
X115310930Y-55605881D01*
X115310929Y-55605880D01*
X115236814Y-55485720D01*
X115202922Y-55394668D01*
X115206454Y-55297578D01*
X115236815Y-55224281D01*
X115293430Y-55132495D01*
X115359586Y-55061344D01*
X115447935Y-55020927D01*
X115505357Y-55014215D01*
X118422414Y-55014215D01*
X118450294Y-55015781D01*
X118485785Y-55019780D01*
X118485786Y-55019780D01*
X118485787Y-55019780D01*
X118521278Y-55015781D01*
X118549158Y-55014215D01*
X120939894Y-55014215D01*
X121035182Y-55033169D01*
X121115964Y-55087145D01*
X121169940Y-55167927D01*
X121188873Y-55260086D01*
X121244304Y-59673280D01*
X121368349Y-69549508D01*
X121350594Y-69645027D01*
X121297636Y-69726479D01*
X121217539Y-69781466D01*
X121122496Y-69801615D01*
X121119617Y-69801634D01*
X112065907Y-69807941D01*
X111970607Y-69789054D01*
X111889788Y-69735134D01*
X111835755Y-69654390D01*
X111816735Y-69559115D01*
X111818024Y-69533634D01*
X111826570Y-69449980D01*
X111826571Y-69449972D01*
X111826571Y-68975002D01*
X111826570Y-68975001D01*
X110275571Y-68975001D01*
X110180283Y-68956047D01*
X110099501Y-68902071D01*
X110045525Y-68821289D01*
X110026571Y-68726001D01*
X110026571Y-66583569D01*
X110034693Y-66542738D01*
X111326571Y-66542738D01*
X111326571Y-67675000D01*
X111326572Y-67675001D01*
X111826569Y-67675001D01*
X111826570Y-67675000D01*
X111826570Y-67200033D01*
X111826569Y-67200016D01*
X111816076Y-67097301D01*
X111816075Y-67097298D01*
X111760930Y-66930881D01*
X111760929Y-66930880D01*
X111680479Y-66800449D01*
X111646587Y-66709397D01*
X111650119Y-66612306D01*
X111690537Y-66523958D01*
X111716338Y-66493659D01*
X111725000Y-66484997D01*
X111725000Y-65360001D01*
X113225000Y-65360001D01*
X113225000Y-66484998D01*
X113225001Y-66484999D01*
X113399999Y-66484999D01*
X113400000Y-66484998D01*
X113400000Y-65360001D01*
X114900000Y-65360001D01*
X114900000Y-66484998D01*
X114900001Y-66484999D01*
X115474970Y-66484999D01*
X115474986Y-66484998D01*
X115577698Y-66474505D01*
X115744124Y-66419358D01*
X115893342Y-66327319D01*
X115893346Y-66327316D01*
X116017316Y-66203346D01*
X116017319Y-66203342D01*
X116109359Y-66054123D01*
X116164505Y-65887697D01*
X116174999Y-65784983D01*
X116175000Y-65784973D01*
X116175000Y-65360001D01*
X116174999Y-65360000D01*
X114900001Y-65360000D01*
X114900000Y-65360001D01*
X113400000Y-65360001D01*
X113399999Y-65360000D01*
X113225001Y-65360000D01*
X113225000Y-65360001D01*
X111725000Y-65360001D01*
X111724999Y-65360000D01*
X111550001Y-65360000D01*
X111550000Y-65360001D01*
X111550000Y-66271950D01*
X111531046Y-66367238D01*
X111477070Y-66448020D01*
X111396288Y-66501996D01*
X111377937Y-66505646D01*
X111326571Y-66542738D01*
X110034693Y-66542738D01*
X110045525Y-66488281D01*
X110050000Y-66481583D01*
X110050000Y-62310001D01*
X111550000Y-62310001D01*
X111550000Y-63859999D01*
X111550001Y-63860000D01*
X111724999Y-63860000D01*
X111725000Y-63859999D01*
X111725000Y-63835001D01*
X113225000Y-63835001D01*
X113225000Y-63859999D01*
X113225001Y-63860000D01*
X113399999Y-63860000D01*
X113400000Y-63859999D01*
X113400000Y-63835001D01*
X114900000Y-63835001D01*
X114900000Y-63859999D01*
X114900001Y-63860000D01*
X116174998Y-63860000D01*
X116174999Y-63859999D01*
X116174999Y-63835001D01*
X116174998Y-63835000D01*
X114900001Y-63835000D01*
X114900000Y-63835001D01*
X113400000Y-63835001D01*
X113399999Y-63835000D01*
X113225001Y-63835000D01*
X113225000Y-63835001D01*
X111725000Y-63835001D01*
X111725000Y-62584000D01*
X111743954Y-62488712D01*
X111797930Y-62407930D01*
X111878712Y-62353954D01*
X111974000Y-62335000D01*
X113399999Y-62335000D01*
X113400000Y-62334999D01*
X113400000Y-62310001D01*
X114900000Y-62310001D01*
X114900000Y-62334999D01*
X114900001Y-62335000D01*
X116174999Y-62335000D01*
X116175000Y-62334999D01*
X116175000Y-62310001D01*
X116174999Y-62310000D01*
X114900001Y-62310000D01*
X114900000Y-62310001D01*
X113400000Y-62310001D01*
X113399999Y-62310000D01*
X111550001Y-62310000D01*
X111550000Y-62310001D01*
X110050000Y-62310001D01*
X110050000Y-61059000D01*
X110068954Y-60963712D01*
X110122930Y-60882930D01*
X110203712Y-60828954D01*
X110299000Y-60810000D01*
X113399999Y-60810000D01*
X113400000Y-60809999D01*
X113400000Y-59891000D01*
X113418954Y-59795712D01*
X113472930Y-59714930D01*
X113553712Y-59660954D01*
X113649000Y-59642000D01*
X113701570Y-59642000D01*
X113701571Y-59641999D01*
X113701571Y-59077502D01*
X114876571Y-59077502D01*
X114876571Y-59666582D01*
X114881046Y-59673280D01*
X114900000Y-59768568D01*
X114900000Y-60809999D01*
X114900001Y-60810000D01*
X116174998Y-60810000D01*
X116174999Y-60809999D01*
X116174999Y-60385032D01*
X116174998Y-60385012D01*
X116165795Y-60294921D01*
X116165450Y-60288154D01*
X116164506Y-60282304D01*
X116109358Y-60115875D01*
X116017319Y-59966657D01*
X116017316Y-59966653D01*
X115893346Y-59842683D01*
X115893342Y-59842680D01*
X115744123Y-59750640D01*
X115577694Y-59695493D01*
X115577692Y-59695492D01*
X115483185Y-59685837D01*
X115390317Y-59657296D01*
X115315440Y-59595389D01*
X115269954Y-59509539D01*
X115260784Y-59412818D01*
X115289325Y-59319950D01*
X115296568Y-59307405D01*
X115310930Y-59284121D01*
X115366076Y-59117699D01*
X115366078Y-59117688D01*
X115370184Y-59077501D01*
X114876572Y-59077501D01*
X114876571Y-59077502D01*
X113701571Y-59077502D01*
X113701571Y-56987502D01*
X114876571Y-56987502D01*
X114876571Y-57902500D01*
X114876572Y-57902501D01*
X115370183Y-57902501D01*
X115366076Y-57862301D01*
X115366075Y-57862298D01*
X115310930Y-57695881D01*
X115310929Y-57695880D01*
X115236814Y-57575720D01*
X115202922Y-57484668D01*
X115206454Y-57387578D01*
X115236814Y-57314282D01*
X115310929Y-57194121D01*
X115310930Y-57194121D01*
X115366076Y-57027699D01*
X115366078Y-57027688D01*
X115370184Y-56987501D01*
X114876572Y-56987501D01*
X114876571Y-56987502D01*
X113701571Y-56987502D01*
X113701571Y-53291001D01*
X113720525Y-53195713D01*
X113774501Y-53114931D01*
X113855283Y-53060955D01*
X113950571Y-53042001D01*
X114039070Y-53042001D01*
X114039071Y-53042000D01*
X114039071Y-52454001D01*
X114058025Y-52358713D01*
X114112001Y-52277931D01*
X114192783Y-52223955D01*
X114288071Y-52205001D01*
X114390071Y-52205001D01*
X114485359Y-52223955D01*
G37*
%TD.AperFunction*%
%TD*%
%TA.AperFunction,Conductor*%
%TO.N,+3V3*%
G36*
X92862496Y-30986139D02*
G01*
X95373439Y-31012026D01*
X95397612Y-31014659D01*
X95421418Y-31019651D01*
X95437916Y-31023111D01*
X95482439Y-31042102D01*
X95506149Y-31058310D01*
X95540005Y-31092897D01*
X95555703Y-31116946D01*
X95573741Y-31161860D01*
X95581333Y-31202327D01*
X95583452Y-31226555D01*
X95536917Y-35461287D01*
X95533880Y-35487229D01*
X95524172Y-35530234D01*
X95502377Y-35577381D01*
X95475903Y-35612641D01*
X95458108Y-35631760D01*
X94452662Y-36506061D01*
X94452660Y-36506063D01*
X94385786Y-36564215D01*
X94383940Y-36652813D01*
X94383940Y-36652814D01*
X94383940Y-36652821D01*
X94316106Y-39908780D01*
X94310796Y-39942185D01*
X94304181Y-39963995D01*
X94288532Y-40042671D01*
X94284139Y-40072293D01*
X94284134Y-40072334D01*
X94281757Y-40096471D01*
X94281757Y-40096476D01*
X94281756Y-40096488D01*
X94280286Y-40126425D01*
X94280286Y-40126436D01*
X94280286Y-41626927D01*
X94280259Y-41629510D01*
X94238420Y-43637736D01*
X94238420Y-43637739D01*
X94238420Y-43637743D01*
X94235786Y-43764215D01*
X95009785Y-44151214D01*
X95037976Y-44170585D01*
X95079915Y-44208913D01*
X95115542Y-44266560D01*
X95131066Y-44321207D01*
X95135786Y-44355092D01*
X95135786Y-46652004D01*
X95133403Y-46676197D01*
X95125374Y-46716559D01*
X95106858Y-46761258D01*
X95090908Y-46785128D01*
X95056699Y-46819337D01*
X95032829Y-46835287D01*
X94988130Y-46853803D01*
X94971627Y-46857085D01*
X94947764Y-46861832D01*
X94923575Y-46864215D01*
X94087540Y-46864215D01*
X94087123Y-46864214D01*
X94086455Y-46864211D01*
X94086110Y-46864210D01*
X94085259Y-46864203D01*
X94084572Y-46864195D01*
X94084137Y-46864189D01*
X92909245Y-46846387D01*
X91002147Y-46817492D01*
X90977702Y-46814679D01*
X90936993Y-46805832D01*
X90892120Y-46786178D01*
X90868344Y-46769501D01*
X90834587Y-46734006D01*
X90819123Y-46709419D01*
X90801748Y-46663620D01*
X90794955Y-46622513D01*
X90793373Y-46597962D01*
X90885663Y-43967721D01*
X90885663Y-43967719D01*
X90885786Y-43964215D01*
X90885786Y-43864215D01*
X90885786Y-43714215D01*
X90839199Y-39963995D01*
X90785788Y-35664393D01*
X90785786Y-35664214D01*
X90785786Y-35664215D01*
X90738090Y-31180803D01*
X90740273Y-31156292D01*
X90748081Y-31115325D01*
X90766592Y-31069946D01*
X90782671Y-31045737D01*
X90817323Y-31011074D01*
X90841526Y-30994987D01*
X90886904Y-30976459D01*
X90927858Y-30968639D01*
X90952381Y-30966447D01*
X92862496Y-30986139D01*
G37*
%TD.AperFunction*%
%TD*%
%TA.AperFunction,Conductor*%
%TO.N,GND*%
G36*
X112897757Y-53216596D02*
G01*
X112938132Y-53224627D01*
X112982829Y-53243142D01*
X113006699Y-53259092D01*
X113040908Y-53293301D01*
X113056858Y-53317171D01*
X113075374Y-53361870D01*
X113083403Y-53402235D01*
X113085786Y-53426425D01*
X113085786Y-59202004D01*
X113083403Y-59226197D01*
X113075374Y-59266559D01*
X113056858Y-59311258D01*
X113040908Y-59335128D01*
X113006699Y-59369337D01*
X112982829Y-59385287D01*
X112938130Y-59403803D01*
X112921627Y-59407085D01*
X112897764Y-59411832D01*
X112873575Y-59414215D01*
X107697997Y-59414215D01*
X107673806Y-59411832D01*
X107658530Y-59408793D01*
X107633442Y-59403803D01*
X107588742Y-59385287D01*
X107564872Y-59369337D01*
X107530663Y-59335128D01*
X107514713Y-59311258D01*
X107496198Y-59266561D01*
X107488167Y-59226186D01*
X107485786Y-59202004D01*
X107485786Y-53426425D01*
X107488167Y-53402244D01*
X107496198Y-53361866D01*
X107514713Y-53317171D01*
X107530663Y-53293301D01*
X107564872Y-53259092D01*
X107588742Y-53243142D01*
X107633439Y-53224627D01*
X107673813Y-53216596D01*
X107697997Y-53214215D01*
X112873575Y-53214215D01*
X112897757Y-53216596D01*
G37*
%TD.AperFunction*%
%TD*%
%TA.AperFunction,Conductor*%
%TO.N,GND*%
G36*
X111897757Y-39916596D02*
G01*
X111938132Y-39924627D01*
X111982829Y-39943142D01*
X112006699Y-39959092D01*
X112040908Y-39993301D01*
X112056858Y-40017171D01*
X112075374Y-40061870D01*
X112083403Y-40102237D01*
X112085786Y-40126425D01*
X112085786Y-43802004D01*
X112083403Y-43826197D01*
X112075374Y-43866559D01*
X112056858Y-43911258D01*
X112040908Y-43935128D01*
X112006699Y-43969337D01*
X111982829Y-43985287D01*
X111938130Y-44003803D01*
X111921627Y-44007085D01*
X111897764Y-44011832D01*
X111873575Y-44014215D01*
X109103127Y-44014215D01*
X109078565Y-44011758D01*
X109037622Y-44003484D01*
X108992353Y-43984408D01*
X108979578Y-43975702D01*
X108968295Y-43968013D01*
X108933988Y-43932860D01*
X108920025Y-43911258D01*
X108918181Y-43908404D01*
X108900216Y-43862685D01*
X108892941Y-43821547D01*
X108891085Y-43796940D01*
X108980635Y-40125400D01*
X108985500Y-40093905D01*
X108994786Y-40061870D01*
X109000311Y-40042806D01*
X109032804Y-39988584D01*
X109058988Y-39963031D01*
X109113984Y-39931871D01*
X109165428Y-39918310D01*
X109197035Y-39914215D01*
X111873575Y-39914215D01*
X111897757Y-39916596D01*
G37*
%TD.AperFunction*%
%TD*%
%TA.AperFunction,Conductor*%
%TO.N,+5V*%
G36*
X109797757Y-31116596D02*
G01*
X109838132Y-31124627D01*
X109882829Y-31143142D01*
X109906699Y-31159092D01*
X109940908Y-31193301D01*
X109956858Y-31217171D01*
X109975374Y-31261870D01*
X109983403Y-31302235D01*
X109985786Y-31326425D01*
X109985786Y-35210945D01*
X109983019Y-35236994D01*
X109973732Y-35280216D01*
X109952335Y-35327712D01*
X109926113Y-35363308D01*
X109908436Y-35382638D01*
X108685786Y-36464215D01*
X108684128Y-36552037D01*
X108684128Y-36552042D01*
X108585821Y-41762349D01*
X108585786Y-41764215D01*
X108585786Y-41766173D01*
X108585786Y-43783471D01*
X108585749Y-43786501D01*
X108585676Y-43789487D01*
X108585746Y-43792244D01*
X108585786Y-43795392D01*
X108585786Y-44164215D01*
X108728338Y-44164215D01*
X108741782Y-44173316D01*
X108749664Y-44181392D01*
X108796247Y-44220460D01*
X108796253Y-44220465D01*
X108848503Y-44256071D01*
X108864336Y-44260825D01*
X108873715Y-44265931D01*
X108873720Y-44265933D01*
X108918989Y-44285009D01*
X108977108Y-44302931D01*
X108977109Y-44302931D01*
X108977115Y-44302933D01*
X109001332Y-44307826D01*
X109018051Y-44311205D01*
X109018059Y-44311206D01*
X109018063Y-44311207D01*
X109025079Y-44312263D01*
X109048157Y-44315741D01*
X109070672Y-44317993D01*
X109072718Y-44318198D01*
X109101803Y-44319648D01*
X109103127Y-44319715D01*
X109103146Y-44319715D01*
X109516670Y-44319715D01*
X109583709Y-44339400D01*
X109629464Y-44392204D01*
X109640651Y-44441540D01*
X109681904Y-46793010D01*
X109679827Y-46817887D01*
X109672097Y-46859395D01*
X109653405Y-46905419D01*
X109637099Y-46929907D01*
X109601843Y-46964902D01*
X109577236Y-46981024D01*
X109531073Y-46999373D01*
X109489506Y-47006794D01*
X109464614Y-47008685D01*
X107364478Y-46956182D01*
X105838815Y-46918040D01*
X105813774Y-46914843D01*
X105772187Y-46905149D01*
X105726584Y-46884068D01*
X105702683Y-46866383D01*
X105669188Y-46828937D01*
X105647760Y-46792008D01*
X105637379Y-46768993D01*
X105597312Y-46648792D01*
X105594606Y-46639473D01*
X105590577Y-46623249D01*
X105587388Y-46604103D01*
X105585942Y-46587463D01*
X105585480Y-46577770D01*
X105567528Y-44441540D01*
X105485793Y-34715055D01*
X105485788Y-34714215D01*
X105485786Y-34713375D01*
X105485786Y-31326425D01*
X105488167Y-31302244D01*
X105496198Y-31261866D01*
X105514713Y-31217171D01*
X105530663Y-31193301D01*
X105564872Y-31159092D01*
X105588742Y-31143142D01*
X105633439Y-31124627D01*
X105673813Y-31116596D01*
X105697997Y-31114215D01*
X109773575Y-31114215D01*
X109797757Y-31116596D01*
G37*
%TD.AperFunction*%
%TD*%
%TA.AperFunction,Conductor*%
%TO.N,GND*%
G36*
X115956610Y-47134400D02*
G01*
X116002365Y-47187204D01*
X116013571Y-47238715D01*
X116013571Y-49640215D01*
X115993886Y-49707254D01*
X115941082Y-49753009D01*
X115889571Y-49764215D01*
X115185786Y-49764215D01*
X115185786Y-49939215D01*
X115185786Y-49939216D01*
X115185786Y-50107807D01*
X115185774Y-50109533D01*
X115185733Y-50112479D01*
X115185638Y-50115915D01*
X115185512Y-50118939D01*
X115185428Y-50120655D01*
X115147576Y-50801998D01*
X115143849Y-50826045D01*
X115133574Y-50865943D01*
X115112569Y-50909581D01*
X115104834Y-50919859D01*
X115048794Y-50961588D01*
X114979090Y-50966395D01*
X114964805Y-50962338D01*
X114936274Y-50952355D01*
X114936270Y-50952354D01*
X114905841Y-50949501D01*
X114905837Y-50949501D01*
X114006832Y-50949501D01*
X113999758Y-50949299D01*
X113585023Y-50925599D01*
X113554850Y-50920075D01*
X113505883Y-50904654D01*
X113454082Y-50872673D01*
X113429452Y-50847256D01*
X113399118Y-50794480D01*
X113385242Y-50745044D01*
X113380670Y-50714723D01*
X113291624Y-47241892D01*
X113309583Y-47174371D01*
X113361197Y-47127278D01*
X113415583Y-47114715D01*
X115889571Y-47114715D01*
X115956610Y-47134400D01*
G37*
%TD.AperFunction*%
%TD*%
%TA.AperFunction,Conductor*%
%TO.N,GND*%
G36*
X94925716Y-55022860D02*
G01*
X94935793Y-55026833D01*
X94939530Y-55028307D01*
X95027992Y-55038930D01*
X95027997Y-55038930D01*
X95789191Y-55038930D01*
X95789196Y-55038930D01*
X95877658Y-55028307D01*
X95884774Y-55025500D01*
X95891472Y-55022860D01*
X95936960Y-55014215D01*
X97061286Y-55014215D01*
X97128325Y-55033900D01*
X97174080Y-55086704D01*
X97185286Y-55138215D01*
X97185286Y-57414117D01*
X97165601Y-57481156D01*
X97148967Y-57501798D01*
X97146135Y-57504628D01*
X94885786Y-57414215D01*
X94885786Y-57440685D01*
X94691666Y-57434976D01*
X94691665Y-57434975D01*
X94683792Y-57433723D01*
X94683994Y-57432447D01*
X94661534Y-57428282D01*
X94653976Y-57425637D01*
X94525793Y-57380784D01*
X94525792Y-57380783D01*
X94525790Y-57380783D01*
X94495364Y-57377930D01*
X94495360Y-57377930D01*
X94122904Y-57377930D01*
X94055865Y-57358245D01*
X94010110Y-57305441D01*
X94002973Y-57285435D01*
X93989855Y-57235498D01*
X93985786Y-57203993D01*
X93985786Y-56676386D01*
X93987130Y-56658178D01*
X93987433Y-56656134D01*
X93987501Y-56655439D01*
X93989815Y-56631951D01*
X93991286Y-56602004D01*
X93991286Y-55265322D01*
X94010971Y-55198283D01*
X94063775Y-55152528D01*
X94084045Y-55145322D01*
X94104764Y-55139930D01*
X94131718Y-55131241D01*
X94164309Y-55118636D01*
X94207666Y-55098946D01*
X94267487Y-55063027D01*
X94289073Y-55046440D01*
X94297596Y-55039891D01*
X94362748Y-55014652D01*
X94373150Y-55014215D01*
X94880228Y-55014215D01*
X94925716Y-55022860D01*
G37*
%TD.AperFunction*%
%TD*%
%TA.AperFunction,Conductor*%
%TO.N,GND*%
G36*
X97146137Y-57504628D02*
G01*
X96946655Y-57704111D01*
X96885332Y-57737596D01*
X96858974Y-57740430D01*
X95008432Y-57740430D01*
X94941393Y-57720745D01*
X94895638Y-57667941D01*
X94888353Y-57642459D01*
X94887812Y-57642602D01*
X94885786Y-57634889D01*
X94885786Y-57414215D01*
X97146137Y-57504628D01*
G37*
%TD.AperFunction*%
%TD*%
M02*
