M48
; DRILL file {KiCad 8.0.5+1} date 2024-10-17T19:04:25-0400
; FORMAT={-:-/ absolute / inch / decimal}
; #@! TF.CreationDate,2024-10-17T19:04:25-04:00
; #@! TF.GenerationSoftware,Kicad,Pcbnew,8.0.5+1
; #@! TF.FileFunction,Plated,1,4,PTH
FMAT,2
INCH
; #@! TA.AperFunction,Plated,PTH,ViaDrill
T1C0.0118
; #@! TA.AperFunction,Plated,PTH,ViaDrill
T2C0.0157
; #@! TA.AperFunction,Plated,PTH,ViaDrill
T3C0.0197
; #@! TA.AperFunction,Plated,PTH,ComponentDrill
T4C0.0236
; #@! TA.AperFunction,Plated,PTH,ViaDrill
T5C0.0295
; #@! TA.AperFunction,Plated,PTH,ComponentDrill
T6C0.0295
; #@! TA.AperFunction,Plated,PTH,ComponentDrill
T7C0.0394
; #@! TA.AperFunction,Plated,PTH,ComponentDrill
T8C0.0748
; #@! TA.AperFunction,Plated,PTH,ComponentDrill
T9C0.1063
%
G90
G05
T1
X0.7731Y-3.0931
X0.8892Y-1.1935
X0.905Y-2.4021
X0.9128Y-1.4139
X0.9128Y-1.4687
X0.9207Y-1.7797
X0.9207Y-2.0911
X0.9246Y-2.7092
X0.9758Y-2.4691
X1.0683Y-2.9199
X1.1057Y-2.0872
X1.1073Y-2.4021
X1.1097Y-1.473
X1.1112Y-1.784
X1.1569Y-2.1029
X1.1609Y-1.7998
X1.1609Y-2.3982
X1.1845Y-1.8943
X1.2042Y-1.473
X1.5231Y-1.8824
X1.6116Y-2.8805
X1.6116Y-3.0754
X1.7081Y-2.1029
X1.7908Y-2.0399
X1.8459Y-1.8234
X1.8735Y-2.0754
X3.8144Y-1.5872
X3.8144Y-1.6265
X3.8144Y-1.6659
X3.8144Y-1.7053
T2
X0.6746Y-3.3549
X0.713Y-3.0773
X0.8287Y-1.351
X0.8287Y-1.6594
X0.8287Y-1.9705
X0.8287Y-2.2776
X0.8287Y-2.5965
X0.966Y-3.4592
X1.0093Y-2.8844
X1.0664Y-2.8441
X1.0683Y-2.9671
X1.1195Y-3.4868
X1.1243Y-3.6279
X1.1313Y-3.2486
X1.3006Y-2.7427
X1.3525Y-3.2616
X1.3577Y-3.6324
X1.3749Y-2.0256
X1.3912Y-2.9199
X1.3912Y-3.0695
X1.4069Y-2.599
X1.4148Y-3.4828
X1.4275Y-2.3363
X1.4463Y-2.7269
X1.5801Y-3.6403
X1.5901Y-3.2647
X1.5974Y-2.5937
X1.6116Y-3.4691
X1.6343Y-2.8175
X1.6431Y-3.1374
X1.7416Y-2.8037
X1.7613Y-2.9612
X1.7829Y-1.9612
X1.7908Y-2.5458
X1.7942Y-3.6258
X1.8085Y-3.4828
X1.8479Y-3.1285
X1.8633Y-3.2794
X2.2809Y-3.0891
X2.2849Y-3.2998
X2.2947Y-3.5301
X2.6294Y-3.099
X2.6703Y-3.3149
X2.6943Y-3.5439
X3.0683Y-3.0891
X3.0762Y-3.538
X3.0807Y-3.3244
X3.4089Y-1.847
X3.4586Y-3.0731
X3.4719Y-3.5517
X3.4795Y-3.3149
X3.7632Y-2.2447
X3.7672Y-2.1974
X3.8026Y-2.2447
X3.8065Y-2.1974
X3.8498Y-3.2132
X3.8735Y-3.5321
X4.1766Y-1.5202
X4.1805Y-1.6265
X4.1845Y-1.4454
X4.1845Y-1.7053
X4.2007Y-3.1307
X4.216Y-1.5557
X4.2514Y-1.4691
X4.2553Y-1.5242
X4.2553Y-3.6384
X4.279Y-2.2447
X4.2829Y-2.1856
X4.2868Y-2.1305
X4.3577Y-2.1305
X4.3577Y-2.1974
X4.3577Y-2.2604
X4.3577Y-2.3155
X4.3853Y-1.6147
X4.3853Y-1.662
X4.3853Y-1.7092
X4.399Y-3.5754
X4.4345Y-3.1324
X4.4614Y-3.3903
X4.4837Y-1.8824
X4.4876Y-1.9297
X4.5388Y-1.9297
X4.5427Y-1.8824
X4.5841Y-3.036
X4.6948Y-3.3673
X4.7298Y-3.1521
X4.7514Y-1.8525
X4.838Y-3.2683
X4.84Y-3.0163
X4.8486Y-2.8658
X4.8774Y-2.3155
X4.8813Y-2.2092
X4.8853Y-2.4848
X4.8892Y-2.6541
T3
X0.6648Y-2.9848
X0.7672Y-1.162
X0.901Y-1.9415
X0.9207Y-1.3155
X0.9876Y-1.8706
X0.9876Y-2.1895
X1.0113Y-1.158
X1.0113Y-1.5596
X1.0191Y-1.0124
X1.0306Y-0.8814
X1.1057Y-1.8785
X1.1057Y-2.1935
X1.1571Y-0.8608
X1.1727Y-1.9526
X1.1845Y-2.2486
X1.1884Y-1.2643
X1.1924Y-1.5714
X1.212Y-1.784
X1.232Y-1.65
X1.2553Y-1.1108
X1.2947Y-1.0281
X1.3026Y-2.3982
X1.3696Y-0.8505
X1.3774Y-1.4848
X1.3931Y-1.1108
X1.4027Y-1.024
X1.4089Y-1.847
X1.4837Y-1.4848
X1.4918Y-2.4019
X1.5605Y-1.9612
X1.6294Y-1.4966
X1.649Y-2.3862
X1.7199Y-1.2171
X1.7278Y-0.851
X1.7357Y-2.2407
X1.7435Y-1.4966
X1.8262Y-2.1423
X1.8341Y-2.2604
X1.8498Y-1.5872
X1.8558Y-1.6835
X1.8695Y-1.4927
X1.8813Y-1.9809
X1.9364Y-2.7998
X1.9522Y-2.0911
X1.9758Y-1.5832
X1.9876Y-1.6817
X1.9876Y-1.973
X1.9916Y-1.8037
X2.0113Y-2.6147
X2.0427Y-2.4218
X2.0703Y-2.1817
X2.0742Y-0.8824
X2.1176Y-1.1305
X2.1294Y-2.662
X2.1333Y-2.0163
X2.153Y-1.7565
X2.1668Y-2.4298
X2.2396Y-2.2958
X2.2711Y-1.973
X2.277Y-2.8667
X2.2903Y-2.7068
X2.3301Y-1.8549
X2.3577Y-2.1226
X2.3853Y-1.1344
X2.394Y-0.8887
X2.4364Y-2.6344
X2.4724Y-2.4298
X2.5231Y-2.2722
X2.5382Y-1.7758
X2.5388Y-1.9297
X2.6254Y-1.599
X2.653Y-2.8391
X2.6687Y-2.0714
X2.6805Y-1.7801
X2.6845Y-2.1699
X2.7002Y-0.8903
X2.712Y-2.7132
X2.7238Y-2.2958
X2.7316Y-2.4276
X2.7357Y-2.5675
X2.7987Y-1.7643
X2.8026Y-1.1344
X2.8065Y-1.8864
X2.8105Y-2.0084
X2.8813Y-2.3982
X2.9483Y-2.5517
X3.0073Y-1.1502
X3.0664Y-1.7643
X3.0664Y-2.8746
X3.0841Y-2.7151
X3.1109Y-0.8924
X3.149Y-2.5754
X3.2357Y-1.7683
X3.2475Y-2.3086
X3.2553Y-2.3982
X3.2711Y-1.6344
X3.279Y-2.6659
X3.2947Y-1.2801
X3.3469Y-2.3136
X3.3498Y-2.4021
X3.355Y-2.5902
X3.3754Y-2.0655
X3.3843Y-1.9651
X3.4168Y-1.6817
X3.4296Y-2.0134
X3.4341Y-2.3761
X3.4561Y-2.8785
X3.4798Y-2.2958
X3.4837Y-2.7289
X3.4906Y-1.9632
X3.4935Y-2.0695
X3.5073Y-1.1423
X3.5388Y-2.595
X3.5654Y-0.8939
X3.6057Y-1.6187
X3.6097Y-1.6935
X3.6116Y-1.5183
X3.6156Y-1.4435
X3.6805Y-1.5143
X3.6845Y-1.4454
X3.7435Y-2.6974
X3.8144Y-1.1265
X3.8262Y-2.4258
X3.8301Y-2.6069
X3.8971Y-2.8254
X3.905Y-1.0557
X3.9246Y-1.6817
X3.9522Y-2.4179
X3.9753Y-2.1799
X3.9798Y-1.8155
X3.9837Y-1.9573
X4.0034Y-2.5517
X4.0349Y-2.3982
X4.065Y-1.674
X4.0703Y-2.6738
X4.1372Y-0.8864
X4.1569Y-2.1423
X4.1746Y-1.1304
X4.2317Y-2.8234
X4.3774Y-1.099
X4.464Y-1.5163
X4.4798Y-2.8903
X4.4981Y-1.674
X4.4994Y-2.6935
X4.5979Y-2.6935
X4.6018Y-0.847
X4.6057Y-1.5006
X4.6195Y-1.6777
X4.6294Y-2.2368
X4.6294Y-2.3273
X4.6412Y-2.4809
X4.653Y-2.599
X4.6648Y-2.1344
X4.6727Y-2.8864
X4.716Y-2.3903
X4.716Y-2.6817
X4.7475Y-1.9336
X4.7987Y-1.7722
T5
X1.4111Y-1.1878
X3.1057Y-1.9376
X4.0349Y-2.2998
X4.6313Y-1.0104
X4.6372Y-1.1699
X4.7711Y-1.5911
T6
X4.7735Y-1.2344
X4.7735Y-1.3132
T7
X0.7735Y-3.186
X0.8735Y-3.186
X0.9735Y-3.186
X1.4459Y-1.651
X1.4459Y-1.751
X1.5459Y-1.651
X1.5459Y-1.751
X1.6459Y-1.651
X1.6459Y-1.751
X1.7459Y-1.651
X1.7459Y-1.751
X3.3541Y-0.9203
X3.7872Y-0.9203
X3.927Y-0.9203
X4.36Y-0.9203
X4.5187Y-1.214
X4.5187Y-1.314
T8
X3.4722Y-1.314
X3.6691Y-1.314
X4.0451Y-1.314
X4.2419Y-1.314
T9
X2.0866Y-2.8996
X2.0866Y-3.0965
X2.0963Y-1.44
X2.3797Y-1.44
X2.4803Y-2.8996
X2.4803Y-3.0965
X2.7872Y-1.44
X2.874Y-2.8996
X2.874Y-3.0965
X3.0707Y-1.44
X3.2677Y-2.8996
X3.2677Y-3.0965
X3.6614Y-2.8996
X3.6614Y-3.0965
X4.0551Y-2.8996
X4.0551Y-3.0965
T4
G00X1.9722Y-1.1821
M15
G01X1.9722Y-1.2254
M16
G05
G00X2.5037Y-1.1821
M15
G01X2.5037Y-1.2254
M16
G05
G00X2.6632Y-1.1821
M15
G01X2.6632Y-1.2254
M16
G05
G00X3.1947Y-1.1821
M15
G01X3.1947Y-1.2254
M16
G05
T7
G00X1.5108Y-1.177
M15
G01X1.5108Y-1.2557
M16
G05
G00X1.7352Y-1.0982
M15
G01X1.6565Y-1.0982
M16
G05
G00X1.7451Y-1.3423
M15
G01X1.6467Y-1.3423
M16
G05
M30
