M48
INCH
T1C0.0394
T2C0.0433
T3C0.0630
T4C0.1378
%
G90
G05
T1
X6.4183Y-2.4394
X6.4183Y-2.5394
T2
X5.5693Y-1.752
X5.5693Y-3.6024
X5.6693Y-1.752
X5.6693Y-3.6024
X5.9024Y-2.9528
X5.9039Y-2.4016
X6.0024Y-2.9528
X6.0039Y-2.4016
X6.1024Y-2.9528
X6.1039Y-2.4016
X6.3386Y-2.7165
X6.3386Y-2.8165
T3
X5.6102Y-1.9941
X5.6102Y-2.4941
X5.6102Y-2.8602
X5.6102Y-3.3602
T4
X6.0024Y-3.6087
X6.0039Y-1.7457
M30
