  0
SECTION
  2
HEADER
  9
$ANGBASE
  50
0.0
  9
$ANGDIR
  70
1
  9
$MEASUREMENT
  70
0
  0
ENDSEC
  0
SECTION
  2
TABLES
  0
TABLE
  2
LTYPE
  70
4
  0
LTYPE
  5
40F
  2
CONTINUOUS
  70
0
  3
Solid line
  72
65
  73
0
  40
0.0
  0
LTYPE
  5
410
  2
DASHDOT
 70
0
  3
Dash Dot ____ _ ____ _
 72
65
 73
4
 40
2.0
 49
1.25
 49
-0.25
 49
0.25
 49
-0.25
  0
LTYPE
  5
411
  2
DASHED
 70
0
  3
Dashed __ __ __ __ __
 72
65
 73
2
 40
0.75
 49
0.5
 49
-0.25
  0
LTYPE
  5
43B
  2
DOTTED
 70
0
  3
Dotted .  .  .  .
 72
65
 73
2
 40
0.2
 49
0.0
 49
-0.2
  0
ENDTAB
  0
TABLE
  2
STYLE
  70
4
  0
STYLE
  2
KICAD
  70
0
  40
0
  41
1
  42
1
  50
0
  71
0
  3
isocp.shx
  0
STYLE
  2
KICADB
  70
0
  40
0
  41
1
  42
1
  50
0
  71
0
  3
isocp.shx
  0
STYLE
  2
KICADI
  70
0
  40
0
  41
1
  42
1
  50
15
  71
0
  3
isocp.shx
  0
STYLE
  2
KICADBI
  70
0
  40
0
  41
1
  42
1
  50
15
  71
0
  3
isocp.shx
  0
ENDTAB
  0
TABLE
  2
LAYER
  70
1
  0
LAYER
  2
BLACK
  70
0
  62
7
  6
CONTINUOUS
  0
ENDTAB
  0
ENDSEC
  0
SECTION
  2
ENTITIES
0
LINE
8
BLACK
6
CONTINUOUS
10
5.2165354330708658
20
-1.6141732283464567
11
6.5748031496062991
21
-1.6141732283464567
0
LINE
8
BLACK
6
CONTINUOUS
10
6.5748031496062991
20
-1.6141732283464567
11
6.5748031496062991
21
-3.7401574803149606
0
LINE
8
BLACK
6
CONTINUOUS
10
6.5748031496062991
20
-3.7401574803149606
11
5.2165354330708658
21
-3.7401574803149606
0
LINE
8
BLACK
6
CONTINUOUS
10
5.2165354330708658
20
-3.7401574803149606
11
5.2165354330708658
21
-1.6141732283464567
0
CIRCLE
8
BLACK
10
6.377952755905512
20
-3.622047244094488
40
0.0984251968503937
0
CIRCLE
8
BLACK
10
6.377952755905512
20
-1.7322834645669292
40
0.0984251968503937
0
CIRCLE
8
BLACK
10
5.3346456692913389
20
-1.7322834645669292
40
0.0984251968503937
0
CIRCLE
8
BLACK
10
5.3346456692913389
20
-3.622047244094488
40
0.0984251968503937
0
LINE
8
BLACK
6
CONTINUOUS
10
6.3986220472440944
20
-2.4196850393700786
11
6.4379921259842519
21
-2.459055118110236
0
LINE
8
BLACK
6
CONTINUOUS
10
6.4379921259842519
20
-2.4196850393700786
11
6.3986220472440944
21
-2.459055118110236
0
LINE
8
BLACK
6
CONTINUOUS
10
6.3986220472440944
20
-2.5196850393700787
11
6.4379921259842519
21
-2.5590551181102361
0
LINE
8
BLACK
6
CONTINUOUS
10
6.4379921259842519
20
-2.5196850393700787
11
6.3986220472440944
21
-2.5590551181102361
0
CIRCLE
8
BLACK
10
5.5692913385826772
20
-1.7519685039370079
40
0.0216535433070866
0
CIRCLE
8
BLACK
10
5.5692913385826772
20
-3.6023622047244093
40
0.0216535433070866
0
CIRCLE
8
BLACK
10
5.6692913385826769
20
-1.7519685039370079
40
0.0216535433070866
0
CIRCLE
8
BLACK
10
5.6692913385826769
20
-3.6023622047244093
40
0.0216535433070866
0
CIRCLE
8
BLACK
10
5.9023622047244091
20
-2.9527559055118111
40
0.0216535433070866
0
CIRCLE
8
BLACK
10
5.9039370078740152
20
-2.401574803149606
40
0.0216535433070866
0
CIRCLE
8
BLACK
10
6.0023622047244096
20
-2.9527559055118111
40
0.0216535433070866
0
CIRCLE
8
BLACK
10
6.0039370078740157
20
-2.401574803149606
40
0.0216535433070866
0
CIRCLE
8
BLACK
10
6.1023622047244093
20
-2.9527559055118111
40
0.0216535433070866
0
CIRCLE
8
BLACK
10
6.1039370078740154
20
-2.401574803149606
40
0.0216535433070866
0
CIRCLE
8
BLACK
10
6.3385826771653546
20
-2.7165354330708662
40
0.0216535433070866
0
CIRCLE
8
BLACK
10
6.3385826771653546
20
-2.8165354330708663
40
0.0216535433070866
0
LINE
8
BLACK
6
CONTINUOUS
10
5.6102362204724407
20
-1.9625984251968502
11
5.6102362204724407
21
-2.0255905511811023
0
LINE
8
BLACK
6
CONTINUOUS
10
5.5787401574803148
20
-1.9940944881889764
11
5.6417322834645667
21
-1.9940944881889764
0
LINE
8
BLACK
6
CONTINUOUS
10
5.6102362204724407
20
-2.4625984251968505
11
5.6102362204724407
21
-2.5255905511811023
0
LINE
8
BLACK
6
CONTINUOUS
10
5.5787401574803148
20
-2.4940944881889764
11
5.6417322834645667
21
-2.4940944881889764
0
LINE
8
BLACK
6
CONTINUOUS
10
5.6102362204724407
20
-2.8287401574803148
11
5.6102362204724407
21
-2.8917322834645667
0
LINE
8
BLACK
6
CONTINUOUS
10
5.5787401574803148
20
-2.8602362204724407
11
5.6417322834645667
21
-2.8602362204724407
0
LINE
8
BLACK
6
CONTINUOUS
10
5.6102362204724407
20
-3.3287401574803148
11
5.6102362204724407
21
-3.3917322834645667
0
LINE
8
BLACK
6
CONTINUOUS
10
5.5787401574803148
20
-3.3602362204724407
11
5.6417322834645667
21
-3.3602362204724407
0
LINE
8
BLACK
6
CONTINUOUS
10
6.0510806692913386
20
-3.6573798818897636
11
6.0510806692913386
21
-3.5599429527559052
0
LINE
8
BLACK
6
CONTINUOUS
10
6.0510806692913386
20
-3.5599429527559052
11
5.9536437401574798
21
-3.5599429527559052
0
LINE
8
BLACK
6
CONTINUOUS
10
5.9536437401574798
20
-3.5599429527559052
11
5.9536437401574798
21
-3.6573798818897636
0
LINE
8
BLACK
6
CONTINUOUS
10
5.9536437401574798
20
-3.6573798818897636
11
6.0510806692913386
21
-3.6573798818897636
0
LINE
8
BLACK
6
CONTINUOUS
10
6.0526554724409447
20
-1.7943877559055117
11
6.0526554724409447
21
-1.6969508267716535
0
LINE
8
BLACK
6
CONTINUOUS
10
6.0526554724409447
20
-1.6969508267716535
11
5.9552185433070868
21
-1.6969508267716535
0
LINE
8
BLACK
6
CONTINUOUS
10
5.9552185433070868
20
-1.6969508267716535
11
5.9552185433070868
21
-1.7943877559055117
0
LINE
8
BLACK
6
CONTINUOUS
10
5.9552185433070868
20
-1.7943877559055117
11
6.0526554724409447
21
-1.7943877559055117
0
LINE
8
BLACK
6
CONTINUOUS
10
5.3182192125984251
20
-3.863773149606299
11
5.3182192125984251
21
-3.7850329921259842
0
LINE
8
BLACK
6
CONTINUOUS
10
5.3182192125984251
20
-3.7850329921259842
11
5.3369668503937007
21
-3.7850329921259842
0
LINE
8
BLACK
6
CONTINUOUS
10
5.3369668503937007
20
-3.7850329921259842
11
5.3482154724409448
21
-3.7887825196850393
0
LINE
8
BLACK
6
CONTINUOUS
10
5.3482154724409448
20
-3.7887825196850393
11
5.355714527559055
21
-3.7962815748031495
0
LINE
8
BLACK
6
CONTINUOUS
10
5.355714527559055
20
-3.7962815748031495
11
5.3594640551181101
21
-3.8037806299212598
0
LINE
8
BLACK
6
CONTINUOUS
10
5.3594640551181101
20
-3.8037806299212598
11
5.3632135826771652
21
-3.8187787401574802
0
LINE
8
BLACK
6
CONTINUOUS
10
5.3632135826771652
20
-3.8187787401574802
11
5.3632135826771652
21
-3.8300273622047243
0
LINE
8
BLACK
6
CONTINUOUS
10
5.3632135826771652
20
-3.8300273622047243
11
5.3594640551181101
21
-3.8450254724409447
0
LINE
8
BLACK
6
CONTINUOUS
10
5.3594640551181101
20
-3.8450254724409447
11
5.355714527559055
21
-3.8525245275590549
0
LINE
8
BLACK
6
CONTINUOUS
10
5.355714527559055
20
-3.8525245275590549
11
5.3482154724409448
21
-3.8600236220472439
0
LINE
8
BLACK
6
CONTINUOUS
10
5.3482154724409448
20
-3.8600236220472439
11
5.3369668503937007
21
-3.863773149606299
0
LINE
8
BLACK
6
CONTINUOUS
10
5.3369668503937007
20
-3.863773149606299
11
5.3182192125984251
21
-3.863773149606299
0
LINE
8
BLACK
6
CONTINUOUS
10
5.3969593700787399
20
-3.863773149606299
11
5.3969593700787399
21
-3.81127968503937
0
LINE
8
BLACK
6
CONTINUOUS
10
5.3969593700787399
20
-3.8262778346456692
11
5.400708897637795
21
-3.8187787401574802
0
LINE
8
BLACK
6
CONTINUOUS
10
5.400708897637795
20
-3.8187787401574802
11
5.4044584251968502
21
-3.8150292125984251
0
LINE
8
BLACK
6
CONTINUOUS
10
5.4044584251968502
20
-3.8150292125984251
11
5.4119574803149604
21
-3.81127968503937
0
LINE
8
BLACK
6
CONTINUOUS
10
5.4119574803149604
20
-3.81127968503937
11
5.4194565748031494
21
-3.81127968503937
0
LINE
8
BLACK
6
CONTINUOUS
10
5.4457032677165351
20
-3.863773149606299
11
5.4457032677165351
21
-3.81127968503937
0
LINE
8
BLACK
6
CONTINUOUS
10
5.4457032677165351
20
-3.7850329921259842
11
5.44195374015748
21
-3.7887825196850393
0
LINE
8
BLACK
6
CONTINUOUS
10
5.44195374015748
20
-3.7887825196850393
11
5.4457032677165351
21
-3.7925320472440944
0
LINE
8
BLACK
6
CONTINUOUS
10
5.4457032677165351
20
-3.7925320472440944
11
5.4494527952755902
21
-3.7887825196850393
0
LINE
8
BLACK
6
CONTINUOUS
10
5.4494527952755902
20
-3.7887825196850393
11
5.4457032677165351
21
-3.7850329921259842
0
LINE
8
BLACK
6
CONTINUOUS
10
5.4457032677165351
20
-3.7850329921259842
11
5.4457032677165351
21
-3.7925320472440944
0
LINE
8
BLACK
6
CONTINUOUS
10
5.4944471653543303
20
-3.863773149606299
11
5.4869481102362201
21
-3.8600236220472439
0
LINE
8
BLACK
6
CONTINUOUS
10
5.4869481102362201
20
-3.8600236220472439
11
5.483198582677165
21
-3.8525245275590549
0
LINE
8
BLACK
6
CONTINUOUS
10
5.483198582677165
20
-3.8525245275590549
11
5.483198582677165
21
-3.7850329921259842
0
LINE
8
BLACK
6
CONTINUOUS
10
5.5356920078740153
20
-3.863773149606299
11
5.5281929527559051
21
-3.8600236220472439
0
LINE
8
BLACK
6
CONTINUOUS
10
5.5281929527559051
20
-3.8600236220472439
11
5.5244434251968499
21
-3.8525245275590549
0
LINE
8
BLACK
6
CONTINUOUS
10
5.5244434251968499
20
-3.8525245275590549
11
5.5244434251968499
21
-3.7850329921259842
0
LINE
8
BLACK
6
CONTINUOUS
10
5.6256807874015751
20
-3.863773149606299
11
5.6256807874015751
21
-3.7850329921259842
0
LINE
8
BLACK
6
CONTINUOUS
10
5.6256807874015751
20
-3.7850329921259842
11
5.6519275196850396
21
-3.8412759448818896
0
LINE
8
BLACK
6
CONTINUOUS
10
5.6519275196850396
20
-3.8412759448818896
11
5.6781742125984254
21
-3.7850329921259842
0
LINE
8
BLACK
6
CONTINUOUS
10
5.6781742125984254
20
-3.7850329921259842
11
5.6781742125984254
21
-3.863773149606299
0
LINE
8
BLACK
6
CONTINUOUS
10
5.74941531496063
20
-3.863773149606299
11
5.74941531496063
21
-3.8225283070866141
0
LINE
8
BLACK
6
CONTINUOUS
10
5.74941531496063
20
-3.8225283070866141
11
5.7456657874015749
21
-3.8150292125984251
0
LINE
8
BLACK
6
CONTINUOUS
10
5.7456657874015749
20
-3.8150292125984251
11
5.7381667322834646
21
-3.81127968503937
0
LINE
8
BLACK
6
CONTINUOUS
10
5.7381667322834646
20
-3.81127968503937
11
5.7231685826771654
21
-3.81127968503937
0
LINE
8
BLACK
6
CONTINUOUS
10
5.7231685826771654
20
-3.81127968503937
11
5.7156695275590552
21
-3.8150292125984251
0
LINE
8
BLACK
6
CONTINUOUS
10
5.74941531496063
20
-3.8600236220472439
11
5.7419162598425197
21
-3.863773149606299
0
LINE
8
BLACK
6
CONTINUOUS
10
5.7419162598425197
20
-3.863773149606299
11
5.7231685826771654
21
-3.863773149606299
0
LINE
8
BLACK
6
CONTINUOUS
10
5.7231685826771654
20
-3.863773149606299
11
5.7156695275590552
21
-3.8600236220472439
0
LINE
8
BLACK
6
CONTINUOUS
10
5.7156695275590552
20
-3.8600236220472439
11
5.7119200000000001
21
-3.8525245275590549
0
LINE
8
BLACK
6
CONTINUOUS
10
5.7119200000000001
20
-3.8525245275590549
11
5.7119200000000001
21
-3.8450254724409447
0
LINE
8
BLACK
6
CONTINUOUS
10
5.7119200000000001
20
-3.8450254724409447
11
5.7156695275590552
21
-3.8375264173228345
0
LINE
8
BLACK
6
CONTINUOUS
10
5.7156695275590552
20
-3.8375264173228345
11
5.7231685826771654
21
-3.8337768897637794
0
LINE
8
BLACK
6
CONTINUOUS
10
5.7231685826771654
20
-3.8337768897637794
11
5.7419162598425197
21
-3.8337768897637794
0
LINE
8
BLACK
6
CONTINUOUS
10
5.7419162598425197
20
-3.8337768897637794
11
5.74941531496063
21
-3.8300273622047243
0
LINE
8
BLACK
6
CONTINUOUS
10
5.7869106299212598
20
-3.81127968503937
11
5.7869106299212598
21
-3.8900198425196848
0
LINE
8
BLACK
6
CONTINUOUS
10
5.7869106299212598
20
-3.8150292125984251
11
5.79440968503937
21
-3.81127968503937
0
LINE
8
BLACK
6
CONTINUOUS
10
5.79440968503937
20
-3.81127968503937
11
5.8094078346456692
21
-3.81127968503937
0
LINE
8
BLACK
6
CONTINUOUS
10
5.8094078346456692
20
-3.81127968503937
11
5.8169068897637795
21
-3.8150292125984251
0
LINE
8
BLACK
6
CONTINUOUS
10
5.8169068897637795
20
-3.8150292125984251
11
5.8206564173228346
21
-3.8187787401574802
0
LINE
8
BLACK
6
CONTINUOUS
10
5.8206564173228346
20
-3.8187787401574802
11
5.8244059448818897
21
-3.8262778346456692
0
LINE
8
BLACK
6
CONTINUOUS
10
5.8244059448818897
20
-3.8262778346456692
11
5.8244059448818897
21
-3.8487749999999998
0
LINE
8
BLACK
6
CONTINUOUS
10
5.8244059448818897
20
-3.8487749999999998
11
5.8206564173228346
21
-3.8562740551181101
0
LINE
8
BLACK
6
CONTINUOUS
10
5.8206564173228346
20
-3.8562740551181101
11
5.8169068897637795
21
-3.8600236220472439
0
LINE
8
BLACK
6
CONTINUOUS
10
5.8169068897637795
20
-3.8600236220472439
11
5.8094078346456692
21
-3.863773149606299
0
LINE
8
BLACK
6
CONTINUOUS
10
5.8094078346456692
20
-3.863773149606299
11
5.79440968503937
21
-3.863773149606299
0
LINE
8
BLACK
6
CONTINUOUS
10
5.79440968503937
20
-3.863773149606299
11
5.7869106299212598
21
-3.8600236220472439
0
LINE
8
BLACK
6
CONTINUOUS
10
5.8581517322834644
20
-3.8562740551181101
11
5.8619012598425195
21
-3.8600236220472439
0
LINE
8
BLACK
6
CONTINUOUS
10
5.8619012598425195
20
-3.8600236220472439
11
5.8581517322834644
21
-3.863773149606299
0
LINE
8
BLACK
6
CONTINUOUS
10
5.8581517322834644
20
-3.863773149606299
11
5.8544022047244093
21
-3.8600236220472439
0
LINE
8
BLACK
6
CONTINUOUS
10
5.8544022047244093
20
-3.8600236220472439
11
5.8581517322834644
21
-3.8562740551181101
0
LINE
8
BLACK
6
CONTINUOUS
10
5.8581517322834644
20
-3.8562740551181101
11
5.8581517322834644
21
-3.863773149606299
0
LINE
8
BLACK
6
CONTINUOUS
10
5.8581517322834644
20
-3.8150292125984251
11
5.8619012598425195
21
-3.8187787401574802
0
LINE
8
BLACK
6
CONTINUOUS
10
5.8619012598425195
20
-3.8187787401574802
11
5.8581517322834644
21
-3.8225283070866141
0
LINE
8
BLACK
6
CONTINUOUS
10
5.8581517322834644
20
-3.8225283070866141
11
5.8544022047244093
21
-3.8187787401574802
0
LINE
8
BLACK
6
CONTINUOUS
10
5.8544022047244093
20
-3.8187787401574802
11
5.8581517322834644
21
-3.8150292125984251
0
LINE
8
BLACK
6
CONTINUOUS
10
5.8581517322834644
20
-3.8150292125984251
11
5.8581517322834644
21
-3.8225283070866141
0
LINE
8
BLACK
6
CONTINUOUS
10
5.1761811023622046
20
-3.9734251968503935
11
5.215551181102362
21
-4.0127952755905509
0
LINE
8
BLACK
6
CONTINUOUS
10
5.215551181102362
20
-3.9734251968503935
11
5.1761811023622046
21
-4.0127952755905509
0
LINE
8
BLACK
6
CONTINUOUS
10
5.3594640551181101
20
-4.0291274803149602
11
5.31446968503937
21
-4.0291274803149602
0
LINE
8
BLACK
6
CONTINUOUS
10
5.3369668503937007
20
-4.0291274803149602
11
5.3369668503937007
21
-3.9503873228346458
0
LINE
8
BLACK
6
CONTINUOUS
10
5.3369668503937007
20
-3.9503873228346458
11
5.3294677952755904
21
-3.9616359055118111
0
LINE
8
BLACK
6
CONTINUOUS
10
5.3294677952755904
20
-3.9616359055118111
11
5.3219687401574802
21
-3.9691349606299213
0
LINE
8
BLACK
6
CONTINUOUS
10
5.3219687401574802
20
-3.9691349606299213
11
5.31446968503937
21
-3.9728844881889764
0
LINE
8
BLACK
6
CONTINUOUS
10
5.3932098425196848
20
-4.0216283858267712
11
5.3969593700787399
21
-4.025377952755905
0
LINE
8
BLACK
6
CONTINUOUS
10
5.3969593700787399
20
-4.025377952755905
11
5.3932098425196848
21
-4.0291274803149602
0
LINE
8
BLACK
6
CONTINUOUS
10
5.3932098425196848
20
-4.0291274803149602
11
5.3894603149606297
21
-4.025377952755905
0
LINE
8
BLACK
6
CONTINUOUS
10
5.3894603149606297
20
-4.025377952755905
11
5.3932098425196848
21
-4.0216283858267712
0
LINE
8
BLACK
6
CONTINUOUS
10
5.3932098425196848
20
-4.0216283858267712
11
5.3932098425196848
21
-4.0291274803149602
0
LINE
8
BLACK
6
CONTINUOUS
10
5.4457032677165351
20
-3.9503873228346458
11
5.4532023622047241
21
-3.9503873228346458
0
LINE
8
BLACK
6
CONTINUOUS
10
5.4532023622047241
20
-3.9503873228346458
11
5.4607014173228343
21
-3.9541368503937009
0
LINE
8
BLACK
6
CONTINUOUS
10
5.4607014173228343
20
-3.9541368503937009
11
5.4644509448818894
21
-3.957886377952756
0
LINE
8
BLACK
6
CONTINUOUS
10
5.4644509448818894
20
-3.957886377952756
11
5.4682004724409445
21
-3.9653854330708662
0
LINE
8
BLACK
6
CONTINUOUS
10
5.4682004724409445
20
-3.9653854330708662
11
5.4719499999999996
21
-3.9803835433070867
0
LINE
8
BLACK
6
CONTINUOUS
10
5.4719499999999996
20
-3.9803835433070867
11
5.4719499999999996
21
-3.999131220472441
0
LINE
8
BLACK
6
CONTINUOUS
10
5.4719499999999996
20
-3.999131220472441
11
5.4682004724409445
21
-4.014129330708661
0
LINE
8
BLACK
6
CONTINUOUS
10
5.4682004724409445
20
-4.014129330708661
11
5.4644509448818894
21
-4.0216283858267712
0
LINE
8
BLACK
6
CONTINUOUS
10
5.4644509448818894
20
-4.0216283858267712
11
5.4607014173228343
21
-4.025377952755905
0
LINE
8
BLACK
6
CONTINUOUS
10
5.4607014173228343
20
-4.025377952755905
11
5.4532023622047241
21
-4.0291274803149602
0
LINE
8
BLACK
6
CONTINUOUS
10
5.4532023622047241
20
-4.0291274803149602
11
5.4457032677165351
21
-4.0291274803149602
0
LINE
8
BLACK
6
CONTINUOUS
10
5.4457032677165351
20
-4.0291274803149602
11
5.4382042125984249
21
-4.025377952755905
0
LINE
8
BLACK
6
CONTINUOUS
10
5.4382042125984249
20
-4.025377952755905
11
5.4344546850393698
21
-4.0216283858267712
0
LINE
8
BLACK
6
CONTINUOUS
10
5.4344546850393698
20
-4.0216283858267712
11
5.4307051574803147
21
-4.014129330708661
0
LINE
8
BLACK
6
CONTINUOUS
10
5.4307051574803147
20
-4.014129330708661
11
5.4269556299212596
21
-3.999131220472441
0
LINE
8
BLACK
6
CONTINUOUS
10
5.4269556299212596
20
-3.999131220472441
11
5.4269556299212596
21
-3.9803835433070867
0
LINE
8
BLACK
6
CONTINUOUS
10
5.4269556299212596
20
-3.9803835433070867
11
5.4307051574803147
21
-3.9653854330708662
0
LINE
8
BLACK
6
CONTINUOUS
10
5.4307051574803147
20
-3.9653854330708662
11
5.4344546850393698
21
-3.957886377952756
0
LINE
8
BLACK
6
CONTINUOUS
10
5.4344546850393698
20
-3.957886377952756
11
5.4382042125984249
21
-3.9541368503937009
0
LINE
8
BLACK
6
CONTINUOUS
10
5.4382042125984249
20
-3.9541368503937009
11
5.4457032677165351
21
-3.9503873228346458
0
LINE
8
BLACK
6
CONTINUOUS
10
5.5206938976377948
20
-3.9503873228346458
11
5.5281929921259838
21
-3.9503873228346458
0
LINE
8
BLACK
6
CONTINUOUS
10
5.5281929921259838
20
-3.9503873228346458
11
5.535692047244094
21
-3.9541368503937009
0
LINE
8
BLACK
6
CONTINUOUS
10
5.535692047244094
20
-3.9541368503937009
11
5.5394415748031491
21
-3.957886377952756
0
LINE
8
BLACK
6
CONTINUOUS
10
5.5394415748031491
20
-3.957886377952756
11
5.5431911023622042
21
-3.9653854330708662
0
LINE
8
BLACK
6
CONTINUOUS
10
5.5431911023622042
20
-3.9653854330708662
11
5.5469406299212594
21
-3.9803835433070867
0
LINE
8
BLACK
6
CONTINUOUS
10
5.5469406299212594
20
-3.9803835433070867
11
5.5469406299212594
21
-3.999131220472441
0
LINE
8
BLACK
6
CONTINUOUS
10
5.5469406299212594
20
-3.999131220472441
11
5.5431911023622042
21
-4.014129330708661
0
LINE
8
BLACK
6
CONTINUOUS
10
5.5431911023622042
20
-4.014129330708661
11
5.5394415748031491
21
-4.0216283858267712
0
LINE
8
BLACK
6
CONTINUOUS
10
5.5394415748031491
20
-4.0216283858267712
11
5.535692047244094
21
-4.025377952755905
0
LINE
8
BLACK
6
CONTINUOUS
10
5.535692047244094
20
-4.025377952755905
11
5.5281929921259838
21
-4.0291274803149602
0
LINE
8
BLACK
6
CONTINUOUS
10
5.5281929921259838
20
-4.0291274803149602
11
5.5206938976377948
21
-4.0291274803149602
0
LINE
8
BLACK
6
CONTINUOUS
10
5.5206938976377948
20
-4.0291274803149602
11
5.5131948425196846
21
-4.025377952755905
0
LINE
8
BLACK
6
CONTINUOUS
10
5.5131948425196846
20
-4.025377952755905
11
5.5094453149606295
21
-4.0216283858267712
0
LINE
8
BLACK
6
CONTINUOUS
10
5.5094453149606295
20
-4.0216283858267712
11
5.5056957874015744
21
-4.014129330708661
0
LINE
8
BLACK
6
CONTINUOUS
10
5.5056957874015744
20
-4.014129330708661
11
5.5019462598425193
21
-3.999131220472441
0
LINE
8
BLACK
6
CONTINUOUS
10
5.5019462598425193
20
-3.999131220472441
11
5.5019462598425193
21
-3.9803835433070867
0
LINE
8
BLACK
6
CONTINUOUS
10
5.5019462598425193
20
-3.9803835433070867
11
5.5056957874015744
21
-3.9653854330708662
0
LINE
8
BLACK
6
CONTINUOUS
10
5.5056957874015744
20
-3.9653854330708662
11
5.5094453149606295
21
-3.957886377952756
0
LINE
8
BLACK
6
CONTINUOUS
10
5.5094453149606295
20
-3.957886377952756
11
5.5131948425196846
21
-3.9541368503937009
0
LINE
8
BLACK
6
CONTINUOUS
10
5.5131948425196846
20
-3.9541368503937009
11
5.5206938976377948
21
-3.9503873228346458
0
LINE
8
BLACK
6
CONTINUOUS
10
5.5956845275590554
20
-3.9503873228346458
11
5.6031836220472444
21
-3.9503873228346458
0
LINE
8
BLACK
6
CONTINUOUS
10
5.6031836220472444
20
-3.9503873228346458
11
5.6106826771653546
21
-3.9541368503937009
0
LINE
8
BLACK
6
CONTINUOUS
10
5.6106826771653546
20
-3.9541368503937009
11
5.6144322047244097
21
-3.957886377952756
0
LINE
8
BLACK
6
CONTINUOUS
10
5.6144322047244097
20
-3.957886377952756
11
5.6181817322834648
21
-3.9653854330708662
0
LINE
8
BLACK
6
CONTINUOUS
10
5.6181817322834648
20
-3.9653854330708662
11
5.62193125984252
21
-3.9803835433070867
0
LINE
8
BLACK
6
CONTINUOUS
10
5.62193125984252
20
-3.9803835433070867
11
5.62193125984252
21
-3.999131220472441
0
LINE
8
BLACK
6
CONTINUOUS
10
5.62193125984252
20
-3.999131220472441
11
5.6181817322834648
21
-4.014129330708661
0
LINE
8
BLACK
6
CONTINUOUS
10
5.6181817322834648
20
-4.014129330708661
11
5.6144322047244097
21
-4.0216283858267712
0
LINE
8
BLACK
6
CONTINUOUS
10
5.6144322047244097
20
-4.0216283858267712
11
5.6106826771653546
21
-4.025377952755905
0
LINE
8
BLACK
6
CONTINUOUS
10
5.6106826771653546
20
-4.025377952755905
11
5.6031836220472444
21
-4.0291274803149602
0
LINE
8
BLACK
6
CONTINUOUS
10
5.6031836220472444
20
-4.0291274803149602
11
5.5956845275590554
21
-4.0291274803149602
0
LINE
8
BLACK
6
CONTINUOUS
10
5.5956845275590554
20
-4.0291274803149602
11
5.5881854724409443
21
-4.025377952755905
0
LINE
8
BLACK
6
CONTINUOUS
10
5.5881854724409443
20
-4.025377952755905
11
5.5844359448818892
21
-4.0216283858267712
0
LINE
8
BLACK
6
CONTINUOUS
10
5.5844359448818892
20
-4.0216283858267712
11
5.5806864173228341
21
-4.014129330708661
0
LINE
8
BLACK
6
CONTINUOUS
10
5.5806864173228341
20
-4.014129330708661
11
5.576936889763779
21
-3.999131220472441
0
LINE
8
BLACK
6
CONTINUOUS
10
5.576936889763779
20
-3.999131220472441
11
5.576936889763779
21
-3.9803835433070867
0
LINE
8
BLACK
6
CONTINUOUS
10
5.576936889763779
20
-3.9803835433070867
11
5.5806864173228341
21
-3.9653854330708662
0
LINE
8
BLACK
6
CONTINUOUS
10
5.5806864173228341
20
-3.9653854330708662
11
5.5844359448818892
21
-3.957886377952756
0
LINE
8
BLACK
6
CONTINUOUS
10
5.5844359448818892
20
-3.957886377952756
11
5.5881854724409443
21
-3.9541368503937009
0
LINE
8
BLACK
6
CONTINUOUS
10
5.5881854724409443
20
-3.9541368503937009
11
5.5956845275590554
21
-3.9503873228346458
0
LINE
8
BLACK
6
CONTINUOUS
10
5.6556770472440947
20
-4.0291274803149602
11
5.6556770472440947
21
-3.9766340157480315
0
LINE
8
BLACK
6
CONTINUOUS
10
5.6556770472440947
20
-3.9841330708661418
11
5.6594265748031498
21
-3.9803835433070867
0
LINE
8
BLACK
6
CONTINUOUS
10
5.6594265748031498
20
-3.9803835433070867
11
5.66692562992126
21
-3.9766340157480315
0
LINE
8
BLACK
6
CONTINUOUS
10
5.66692562992126
20
-3.9766340157480315
11
5.6781742519685041
21
-3.9766340157480315
0
LINE
8
BLACK
6
CONTINUOUS
10
5.6781742519685041
20
-3.9766340157480315
11
5.6856733070866143
21
-3.9803835433070867
0
LINE
8
BLACK
6
CONTINUOUS
10
5.6856733070866143
20
-3.9803835433070867
11
5.6894228346456694
21
-3.9878826377952756
0
LINE
8
BLACK
6
CONTINUOUS
10
5.6894228346456694
20
-3.9878826377952756
11
5.6894228346456694
21
-4.0291274803149602
0
LINE
8
BLACK
6
CONTINUOUS
10
5.6894228346456694
20
-3.9878826377952756
11
5.6931723622047246
21
-3.9803835433070867
0
LINE
8
BLACK
6
CONTINUOUS
10
5.6931723622047246
20
-3.9803835433070867
11
5.7006714173228348
21
-3.9766340157480315
0
LINE
8
BLACK
6
CONTINUOUS
10
5.7006714173228348
20
-3.9766340157480315
11
5.7119200000000001
21
-3.9766340157480315
0
LINE
8
BLACK
6
CONTINUOUS
10
5.7119200000000001
20
-3.9766340157480315
11
5.7194190944881891
21
-3.9803835433070867
0
LINE
8
BLACK
6
CONTINUOUS
10
5.7194190944881891
20
-3.9803835433070867
11
5.7231686220472442
21
-3.9878826377952756
0
LINE
8
BLACK
6
CONTINUOUS
10
5.7231686220472442
20
-3.9878826377952756
11
5.7231686220472442
21
-4.0291274803149602
0
LINE
8
BLACK
6
CONTINUOUS
10
5.760663937007874
20
-4.0291274803149602
11
5.760663937007874
21
-3.9766340157480315
0
LINE
8
BLACK
6
CONTINUOUS
10
5.760663937007874
20
-3.9841330708661418
11
5.7644134645669292
21
-3.9803835433070867
0
LINE
8
BLACK
6
CONTINUOUS
10
5.7644134645669292
20
-3.9803835433070867
11
5.7719125196850394
21
-3.9766340157480315
0
LINE
8
BLACK
6
CONTINUOUS
10
5.7719125196850394
20
-3.9766340157480315
11
5.7831611417322835
21
-3.9766340157480315
0
LINE
8
BLACK
6
CONTINUOUS
10
5.7831611417322835
20
-3.9766340157480315
11
5.7906601968503937
21
-3.9803835433070867
0
LINE
8
BLACK
6
CONTINUOUS
10
5.7906601968503937
20
-3.9803835433070867
11
5.7944097244094488
21
-3.9878826377952756
0
LINE
8
BLACK
6
CONTINUOUS
10
5.7944097244094488
20
-3.9878826377952756
11
5.7944097244094488
21
-4.0291274803149602
0
LINE
8
BLACK
6
CONTINUOUS
10
5.7944097244094488
20
-3.9878826377952756
11
5.7981592519685039
21
-3.9803835433070867
0
LINE
8
BLACK
6
CONTINUOUS
10
5.7981592519685039
20
-3.9803835433070867
11
5.8056583070866141
21
-3.9766340157480315
0
LINE
8
BLACK
6
CONTINUOUS
10
5.8056583070866141
20
-3.9766340157480315
11
5.8169068897637795
21
-3.9766340157480315
0
LINE
8
BLACK
6
CONTINUOUS
10
5.8169068897637795
20
-3.9766340157480315
11
5.8244059842519684
21
-3.9803835433070867
0
LINE
8
BLACK
6
CONTINUOUS
10
5.8244059842519684
20
-3.9803835433070867
11
5.8281555118110235
21
-3.9878826377952756
0
LINE
8
BLACK
6
CONTINUOUS
10
5.8281555118110235
20
-3.9878826377952756
11
5.8281555118110235
21
-4.0291274803149602
0
LINE
8
BLACK
6
CONTINUOUS
10
5.9818862992125981
20
-3.9466377952755907
11
5.9143947637795273
21
-4.0478751181102357
0
LINE
8
BLACK
6
CONTINUOUS
10
6.0831236614173223
20
-3.9503873228346458
11
6.0906227559055113
21
-3.9503873228346458
0
LINE
8
BLACK
6
CONTINUOUS
10
6.0906227559055113
20
-3.9503873228346458
11
6.0981218110236215
21
-3.9541368503937009
0
LINE
8
BLACK
6
CONTINUOUS
10
6.0981218110236215
20
-3.9541368503937009
11
6.1018713385826766
21
-3.957886377952756
0
LINE
8
BLACK
6
CONTINUOUS
10
6.1018713385826766
20
-3.957886377952756
11
6.1056208661417317
21
-3.9653854330708662
0
LINE
8
BLACK
6
CONTINUOUS
10
6.1056208661417317
20
-3.9653854330708662
11
6.1093703937007868
21
-3.9803835433070867
0
LINE
8
BLACK
6
CONTINUOUS
10
6.1093703937007868
20
-3.9803835433070867
11
6.1093703937007868
21
-3.999131220472441
0
LINE
8
BLACK
6
CONTINUOUS
10
6.1093703937007868
20
-3.999131220472441
11
6.1056208661417317
21
-4.014129330708661
0
LINE
8
BLACK
6
CONTINUOUS
10
6.1056208661417317
20
-4.014129330708661
11
6.1018713385826766
21
-4.0216283858267712
0
LINE
8
BLACK
6
CONTINUOUS
10
6.1018713385826766
20
-4.0216283858267712
11
6.0981218110236215
21
-4.025377952755905
0
LINE
8
BLACK
6
CONTINUOUS
10
6.0981218110236215
20
-4.025377952755905
11
6.0906227559055113
21
-4.0291274803149602
0
LINE
8
BLACK
6
CONTINUOUS
10
6.0906227559055113
20
-4.0291274803149602
11
6.0831236614173223
21
-4.0291274803149602
0
LINE
8
BLACK
6
CONTINUOUS
10
6.0831236614173223
20
-4.0291274803149602
11
6.0756246062992121
21
-4.025377952755905
0
LINE
8
BLACK
6
CONTINUOUS
10
6.0756246062992121
20
-4.025377952755905
11
6.071875078740157
21
-4.0216283858267712
0
LINE
8
BLACK
6
CONTINUOUS
10
6.071875078740157
20
-4.0216283858267712
11
6.0681255511811019
21
-4.014129330708661
0
LINE
8
BLACK
6
CONTINUOUS
10
6.0681255511811019
20
-4.014129330708661
11
6.0643760236220468
21
-3.999131220472441
0
LINE
8
BLACK
6
CONTINUOUS
10
6.0643760236220468
20
-3.999131220472441
11
6.0643760236220468
21
-3.9803835433070867
0
LINE
8
BLACK
6
CONTINUOUS
10
6.0643760236220468
20
-3.9803835433070867
11
6.0681255511811019
21
-3.9653854330708662
0
LINE
8
BLACK
6
CONTINUOUS
10
6.0681255511811019
20
-3.9653854330708662
11
6.071875078740157
21
-3.957886377952756
0
LINE
8
BLACK
6
CONTINUOUS
10
6.071875078740157
20
-3.957886377952756
11
6.0756246062992121
21
-3.9541368503937009
0
LINE
8
BLACK
6
CONTINUOUS
10
6.0756246062992121
20
-3.9541368503937009
11
6.0831236614173223
21
-3.9503873228346458
0
LINE
8
BLACK
6
CONTINUOUS
10
6.1431161811023625
20
-4.0216283858267712
11
6.1468657086614176
21
-4.025377952755905
0
LINE
8
BLACK
6
CONTINUOUS
10
6.1468657086614176
20
-4.025377952755905
11
6.1431161811023625
21
-4.0291274803149602
0
LINE
8
BLACK
6
CONTINUOUS
10
6.1431161811023625
20
-4.0291274803149602
11
6.1393666535433074
21
-4.025377952755905
0
LINE
8
BLACK
6
CONTINUOUS
10
6.1393666535433074
20
-4.025377952755905
11
6.1431161811023625
21
-4.0216283858267712
0
LINE
8
BLACK
6
CONTINUOUS
10
6.1431161811023625
20
-4.0216283858267712
11
6.1431161811023625
21
-4.0291274803149602
0
LINE
8
BLACK
6
CONTINUOUS
10
6.1956096062992128
20
-3.9503873228346458
11
6.2031087007874017
21
-3.9503873228346458
0
LINE
8
BLACK
6
CONTINUOUS
10
6.2031087007874017
20
-3.9503873228346458
11
6.210607755905512
21
-3.9541368503937009
0
LINE
8
BLACK
6
CONTINUOUS
10
6.210607755905512
20
-3.9541368503937009
11
6.2143572834645671
21
-3.957886377952756
0
LINE
8
BLACK
6
CONTINUOUS
10
6.2143572834645671
20
-3.957886377952756
11
6.2181068110236222
21
-3.9653854330708662
0
LINE
8
BLACK
6
CONTINUOUS
10
6.2181068110236222
20
-3.9653854330708662
11
6.2218563385826773
21
-3.9803835433070867
0
LINE
8
BLACK
6
CONTINUOUS
10
6.2218563385826773
20
-3.9803835433070867
11
6.2218563385826773
21
-3.999131220472441
0
LINE
8
BLACK
6
CONTINUOUS
10
6.2218563385826773
20
-3.999131220472441
11
6.2181068110236222
21
-4.014129330708661
0
LINE
8
BLACK
6
CONTINUOUS
10
6.2181068110236222
20
-4.014129330708661
11
6.2143572834645671
21
-4.0216283858267712
0
LINE
8
BLACK
6
CONTINUOUS
10
6.2143572834645671
20
-4.0216283858267712
11
6.210607755905512
21
-4.025377952755905
0
LINE
8
BLACK
6
CONTINUOUS
10
6.210607755905512
20
-4.025377952755905
11
6.2031087007874017
21
-4.0291274803149602
0
LINE
8
BLACK
6
CONTINUOUS
10
6.2031087007874017
20
-4.0291274803149602
11
6.1956096062992128
21
-4.0291274803149602
0
LINE
8
BLACK
6
CONTINUOUS
10
6.1956096062992128
20
-4.0291274803149602
11
6.1881105511811025
21
-4.025377952755905
0
LINE
8
BLACK
6
CONTINUOUS
10
6.1881105511811025
20
-4.025377952755905
11
6.1843610236220474
21
-4.0216283858267712
0
LINE
8
BLACK
6
CONTINUOUS
10
6.1843610236220474
20
-4.0216283858267712
11
6.1806114960629923
21
-4.014129330708661
0
LINE
8
BLACK
6
CONTINUOUS
10
6.1806114960629923
20
-4.014129330708661
11
6.1768619685039372
21
-3.999131220472441
0
LINE
8
BLACK
6
CONTINUOUS
10
6.1768619685039372
20
-3.999131220472441
11
6.1768619685039372
21
-3.9803835433070867
0
LINE
8
BLACK
6
CONTINUOUS
10
6.1768619685039372
20
-3.9803835433070867
11
6.1806114960629923
21
-3.9653854330708662
0
LINE
8
BLACK
6
CONTINUOUS
10
6.1806114960629923
20
-3.9653854330708662
11
6.1843610236220474
21
-3.957886377952756
0
LINE
8
BLACK
6
CONTINUOUS
10
6.1843610236220474
20
-3.957886377952756
11
6.1881105511811025
21
-3.9541368503937009
0
LINE
8
BLACK
6
CONTINUOUS
10
6.1881105511811025
20
-3.9541368503937009
11
6.1956096062992128
21
-3.9503873228346458
0
LINE
8
BLACK
6
CONTINUOUS
10
6.2481030708661418
20
-3.9503873228346458
11
6.296846968503937
21
-3.9503873228346458
0
LINE
8
BLACK
6
CONTINUOUS
10
6.296846968503937
20
-3.9503873228346458
11
6.2706002362204725
21
-3.9803835433070867
0
LINE
8
BLACK
6
CONTINUOUS
10
6.2706002362204725
20
-3.9803835433070867
11
6.2818488582677166
21
-3.9803835433070867
0
LINE
8
BLACK
6
CONTINUOUS
10
6.2818488582677166
20
-3.9803835433070867
11
6.2893479133858268
21
-3.9841330708661418
0
LINE
8
BLACK
6
CONTINUOUS
10
6.2893479133858268
20
-3.9841330708661418
11
6.2930974409448819
21
-3.9878826377952756
0
LINE
8
BLACK
6
CONTINUOUS
10
6.2930974409448819
20
-3.9878826377952756
11
6.296846968503937
21
-3.9953816929133859
0
LINE
8
BLACK
6
CONTINUOUS
10
6.296846968503937
20
-3.9953816929133859
11
6.296846968503937
21
-4.014129330708661
0
LINE
8
BLACK
6
CONTINUOUS
10
6.296846968503937
20
-4.014129330708661
11
6.2930974409448819
21
-4.0216283858267712
0
LINE
8
BLACK
6
CONTINUOUS
10
6.2930974409448819
20
-4.0216283858267712
11
6.2893479133858268
21
-4.025377952755905
0
LINE
8
BLACK
6
CONTINUOUS
10
6.2893479133858268
20
-4.025377952755905
11
6.2818488582677166
21
-4.0291274803149602
0
LINE
8
BLACK
6
CONTINUOUS
10
6.2818488582677166
20
-4.0291274803149602
11
6.2593516535433071
21
-4.0291274803149602
0
LINE
8
BLACK
6
CONTINUOUS
10
6.2593516535433071
20
-4.0291274803149602
11
6.2518525984251969
21
-4.025377952755905
0
LINE
8
BLACK
6
CONTINUOUS
10
6.2518525984251969
20
-4.025377952755905
11
6.2481030708661418
21
-4.0216283858267712
0
LINE
8
BLACK
6
CONTINUOUS
10
6.3343422834645668
20
-4.0291274803149602
11
6.3493403937007873
21
-4.0291274803149602
0
LINE
8
BLACK
6
CONTINUOUS
10
6.3493403937007873
20
-4.0291274803149602
11
6.3568394881889763
21
-4.025377952755905
0
LINE
8
BLACK
6
CONTINUOUS
10
6.3568394881889763
20
-4.025377952755905
11
6.3605890157480314
21
-4.0216283858267712
0
LINE
8
BLACK
6
CONTINUOUS
10
6.3605890157480314
20
-4.0216283858267712
11
6.3680880708661416
21
-4.0103798031496058
0
LINE
8
BLACK
6
CONTINUOUS
10
6.3680880708661416
20
-4.0103798031496058
11
6.3718375984251967
21
-3.9953816929133859
0
LINE
8
BLACK
6
CONTINUOUS
10
6.3718375984251967
20
-3.9953816929133859
11
6.3718375984251967
21
-3.9653854330708662
0
LINE
8
BLACK
6
CONTINUOUS
10
6.3718375984251967
20
-3.9653854330708662
11
6.3680880708661416
21
-3.957886377952756
0
LINE
8
BLACK
6
CONTINUOUS
10
6.3680880708661416
20
-3.957886377952756
11
6.3643385433070865
21
-3.9541368503937009
0
LINE
8
BLACK
6
CONTINUOUS
10
6.3643385433070865
20
-3.9541368503937009
11
6.3568394881889763
21
-3.9503873228346458
0
LINE
8
BLACK
6
CONTINUOUS
10
6.3568394881889763
20
-3.9503873228346458
11
6.3418413385826771
21
-3.9503873228346458
0
LINE
8
BLACK
6
CONTINUOUS
10
6.3418413385826771
20
-3.9503873228346458
11
6.3343422834645668
21
-3.9541368503937009
0
LINE
8
BLACK
6
CONTINUOUS
10
6.3343422834645668
20
-3.9541368503937009
11
6.3305927559055117
21
-3.957886377952756
0
LINE
8
BLACK
6
CONTINUOUS
10
6.3305927559055117
20
-3.957886377952756
11
6.3268432283464566
21
-3.9653854330708662
0
LINE
8
BLACK
6
CONTINUOUS
10
6.3268432283464566
20
-3.9653854330708662
11
6.3268432283464566
21
-3.9841330708661418
0
LINE
8
BLACK
6
CONTINUOUS
10
6.3268432283464566
20
-3.9841330708661418
11
6.3305927559055117
21
-3.9916321653543307
0
LINE
8
BLACK
6
CONTINUOUS
10
6.3305927559055117
20
-3.9916321653543307
11
6.3343422834645668
21
-3.9953816929133859
0
LINE
8
BLACK
6
CONTINUOUS
10
6.3343422834645668
20
-3.9953816929133859
11
6.3418413385826771
21
-3.999131220472441
0
LINE
8
BLACK
6
CONTINUOUS
10
6.3418413385826771
20
-3.999131220472441
11
6.3568394881889763
21
-3.999131220472441
0
LINE
8
BLACK
6
CONTINUOUS
10
6.3568394881889763
20
-3.999131220472441
11
6.3643385433070865
21
-3.9953816929133859
0
LINE
8
BLACK
6
CONTINUOUS
10
6.3643385433070865
20
-3.9953816929133859
11
6.3680880708661416
21
-3.9916321653543307
0
LINE
8
BLACK
6
CONTINUOUS
10
6.3680880708661416
20
-3.9916321653543307
11
6.3718375984251967
21
-3.9841330708661418
0
LINE
8
BLACK
6
CONTINUOUS
10
6.4393291732283462
20
-3.9766340157480315
11
6.4393291732283462
21
-4.0291274803149602
0
LINE
8
BLACK
6
CONTINUOUS
10
6.4205814960629919
20
-3.9466377952755907
11
6.4018338582677163
21
-4.0028807480314956
0
LINE
8
BLACK
6
CONTINUOUS
10
6.4018338582677163
20
-4.0028807480314956
11
6.4505777559055115
21
-4.0028807480314956
0
LINE
8
BLACK
6
CONTINUOUS
10
6.476824488188976
20
-3.9503873228346458
11
6.476824488188976
21
-3.9653854330708662
0
LINE
8
BLACK
6
CONTINUOUS
10
6.5068207480314957
20
-3.9503873228346458
11
6.5068207480314957
21
-3.9653854330708662
0
LINE
8
BLACK
6
CONTINUOUS
10
6.6230562598425191
20
-4.0591237007874019
11
6.6193066929133852
21
-4.0553741732283459
0
LINE
8
BLACK
6
CONTINUOUS
10
6.6193066929133852
20
-4.0553741732283459
11
6.611807637795275
21
-4.0441255905511806
0
LINE
8
BLACK
6
CONTINUOUS
10
6.611807637795275
20
-4.0441255905511806
11
6.6080581102362199
21
-4.0366265354330704
0
LINE
8
BLACK
6
CONTINUOUS
10
6.6080581102362199
20
-4.0366265354330704
11
6.6043085826771648
21
-4.025377952755905
0
LINE
8
BLACK
6
CONTINUOUS
10
6.6043085826771648
20
-4.025377952755905
11
6.6005590551181097
21
-4.0066302755905507
0
LINE
8
BLACK
6
CONTINUOUS
10
6.6005590551181097
20
-4.0066302755905507
11
6.6005590551181097
21
-3.9916321653543307
0
LINE
8
BLACK
6
CONTINUOUS
10
6.6005590551181097
20
-3.9916321653543307
11
6.6043085826771648
21
-3.9728844881889764
0
LINE
8
BLACK
6
CONTINUOUS
10
6.6043085826771648
20
-3.9728844881889764
11
6.6080581102362199
21
-3.9616359055118111
0
LINE
8
BLACK
6
CONTINUOUS
10
6.6080581102362199
20
-3.9616359055118111
11
6.611807637795275
21
-3.9541368503937009
0
LINE
8
BLACK
6
CONTINUOUS
10
6.611807637795275
20
-3.9541368503937009
11
6.6193066929133852
21
-3.9428882283464568
0
LINE
8
BLACK
6
CONTINUOUS
10
6.6193066929133852
20
-3.9428882283464568
11
6.6230562598425191
21
-3.9391387007874017
0
LINE
8
BLACK
6
CONTINUOUS
10
6.6493029527559058
20
-3.957886377952756
11
6.6530524803149609
21
-3.9541368503937009
0
LINE
8
BLACK
6
CONTINUOUS
10
6.6530524803149609
20
-3.9541368503937009
11
6.6605515354330711
21
-3.9503873228346458
0
LINE
8
BLACK
6
CONTINUOUS
10
6.6605515354330711
20
-3.9503873228346458
11
6.6792992125984254
21
-3.9503873228346458
0
LINE
8
BLACK
6
CONTINUOUS
10
6.6792992125984254
20
-3.9503873228346458
11
6.6867982677165356
21
-3.9541368503937009
0
LINE
8
BLACK
6
CONTINUOUS
10
6.6867982677165356
20
-3.9541368503937009
11
6.6905477952755907
21
-3.957886377952756
0
LINE
8
BLACK
6
CONTINUOUS
10
6.6905477952755907
20
-3.957886377952756
11
6.6942973228346458
21
-3.9653854330708662
0
LINE
8
BLACK
6
CONTINUOUS
10
6.6942973228346458
20
-3.9653854330708662
11
6.6942973228346458
21
-3.9728844881889764
0
LINE
8
BLACK
6
CONTINUOUS
10
6.6942973228346458
20
-3.9728844881889764
11
6.6905477952755907
21
-3.9841330708661418
0
LINE
8
BLACK
6
CONTINUOUS
10
6.6905477952755907
20
-3.9841330708661418
11
6.6455534251968507
21
-4.0291274803149602
0
LINE
8
BLACK
6
CONTINUOUS
10
6.6455534251968507
20
-4.0291274803149602
11
6.6942973228346458
21
-4.0291274803149602
0
LINE
8
BLACK
6
CONTINUOUS
10
6.7880356299212599
20
-4.0291274803149602
11
6.7880356299212599
21
-3.9503873228346458
0
LINE
8
BLACK
6
CONTINUOUS
10
6.8217814173228346
20
-4.0291274803149602
11
6.8217814173228346
21
-3.9878826377952756
0
LINE
8
BLACK
6
CONTINUOUS
10
6.8217814173228346
20
-3.9878826377952756
11
6.8180318897637795
21
-3.9803835433070867
0
LINE
8
BLACK
6
CONTINUOUS
10
6.8180318897637795
20
-3.9803835433070867
11
6.8105328346456693
21
-3.9766340157480315
0
LINE
8
BLACK
6
CONTINUOUS
10
6.8105328346456693
20
-3.9766340157480315
11
6.7992842125984252
21
-3.9766340157480315
0
LINE
8
BLACK
6
CONTINUOUS
10
6.7992842125984252
20
-3.9766340157480315
11
6.791785157480315
21
-3.9803835433070867
0
LINE
8
BLACK
6
CONTINUOUS
10
6.791785157480315
20
-3.9803835433070867
11
6.7880356299212599
21
-3.9841330708661418
0
LINE
8
BLACK
6
CONTINUOUS
10
6.8705253149606298
20
-4.0291274803149602
11
6.8630262598425196
21
-4.025377952755905
0
LINE
8
BLACK
6
CONTINUOUS
10
6.8630262598425196
20
-4.025377952755905
11
6.8592767322834645
21
-4.0216283858267712
0
LINE
8
BLACK
6
CONTINUOUS
10
6.8592767322834645
20
-4.0216283858267712
11
6.8555272047244094
21
-4.014129330708661
0
LINE
8
BLACK
6
CONTINUOUS
10
6.8555272047244094
20
-4.014129330708661
11
6.8555272047244094
21
-3.9916321653543307
0
LINE
8
BLACK
6
CONTINUOUS
10
6.8555272047244094
20
-3.9916321653543307
11
6.8592767322834645
21
-3.9841330708661418
0
LINE
8
BLACK
6
CONTINUOUS
10
6.8592767322834645
20
-3.9841330708661418
11
6.8630262598425196
21
-3.9803835433070867
0
LINE
8
BLACK
6
CONTINUOUS
10
6.8630262598425196
20
-3.9803835433070867
11
6.8705253149606298
21
-3.9766340157480315
0
LINE
8
BLACK
6
CONTINUOUS
10
6.8705253149606298
20
-3.9766340157480315
11
6.8817739370078739
21
-3.9766340157480315
0
LINE
8
BLACK
6
CONTINUOUS
10
6.8817739370078739
20
-3.9766340157480315
11
6.8892729921259841
21
-3.9803835433070867
0
LINE
8
BLACK
6
CONTINUOUS
10
6.8892729921259841
20
-3.9803835433070867
11
6.8930225196850392
21
-3.9841330708661418
0
LINE
8
BLACK
6
CONTINUOUS
10
6.8930225196850392
20
-3.9841330708661418
11
6.8967720472440943
21
-3.9916321653543307
0
LINE
8
BLACK
6
CONTINUOUS
10
6.8967720472440943
20
-3.9916321653543307
11
6.8967720472440943
21
-4.014129330708661
0
LINE
8
BLACK
6
CONTINUOUS
10
6.8967720472440943
20
-4.014129330708661
11
6.8930225196850392
21
-4.0216283858267712
0
LINE
8
BLACK
6
CONTINUOUS
10
6.8930225196850392
20
-4.0216283858267712
11
6.8892729921259841
21
-4.025377952755905
0
LINE
8
BLACK
6
CONTINUOUS
10
6.8892729921259841
20
-4.025377952755905
11
6.8817739370078739
21
-4.0291274803149602
0
LINE
8
BLACK
6
CONTINUOUS
10
6.8817739370078739
20
-4.0291274803149602
11
6.8705253149606298
21
-4.0291274803149602
0
LINE
8
BLACK
6
CONTINUOUS
10
6.9417664173228344
20
-4.0291274803149602
11
6.9342673622047242
21
-4.025377952755905
0
LINE
8
BLACK
6
CONTINUOUS
10
6.9342673622047242
20
-4.025377952755905
11
6.9305178346456691
21
-4.0178788582677161
0
LINE
8
BLACK
6
CONTINUOUS
10
6.9305178346456691
20
-4.0178788582677161
11
6.9305178346456691
21
-3.9503873228346458
0
LINE
8
BLACK
6
CONTINUOUS
10
7.0017589370078737
20
-4.025377952755905
11
6.9942598818897634
21
-4.0291274803149602
0
LINE
8
BLACK
6
CONTINUOUS
10
6.9942598818897634
20
-4.0291274803149602
11
6.9792617322834642
21
-4.0291274803149602
0
LINE
8
BLACK
6
CONTINUOUS
10
6.9792617322834642
20
-4.0291274803149602
11
6.971762677165354
21
-4.025377952755905
0
LINE
8
BLACK
6
CONTINUOUS
10
6.971762677165354
20
-4.025377952755905
11
6.9680131496062989
21
-4.0178788582677161
0
LINE
8
BLACK
6
CONTINUOUS
10
6.9680131496062989
20
-4.0178788582677161
11
6.9680131496062989
21
-3.9878826377952756
0
LINE
8
BLACK
6
CONTINUOUS
10
6.9680131496062989
20
-3.9878826377952756
11
6.971762677165354
21
-3.9803835433070867
0
LINE
8
BLACK
6
CONTINUOUS
10
6.971762677165354
20
-3.9803835433070867
11
6.9792617322834642
21
-3.9766340157480315
0
LINE
8
BLACK
6
CONTINUOUS
10
6.9792617322834642
20
-3.9766340157480315
11
6.9942598818897634
21
-3.9766340157480315
0
LINE
8
BLACK
6
CONTINUOUS
10
6.9942598818897634
20
-3.9766340157480315
11
7.0017589370078737
21
-3.9803835433070867
0
LINE
8
BLACK
6
CONTINUOUS
10
7.0017589370078737
20
-3.9803835433070867
11
7.0055084645669288
21
-3.9878826377952756
0
LINE
8
BLACK
6
CONTINUOUS
10
7.0055084645669288
20
-3.9878826377952756
11
7.0055084645669288
21
-3.9953816929133859
0
LINE
8
BLACK
6
CONTINUOUS
10
7.0055084645669288
20
-3.9953816929133859
11
6.9680131496062989
21
-4.0028807480314956
0
LINE
8
BLACK
6
CONTINUOUS
10
7.0355047244094484
20
-4.025377952755905
11
7.0430037795275586
21
-4.0291274803149602
0
LINE
8
BLACK
6
CONTINUOUS
10
7.0430037795275586
20
-4.0291274803149602
11
7.0580018897637791
21
-4.0291274803149602
0
LINE
8
BLACK
6
CONTINUOUS
10
7.0580018897637791
20
-4.0291274803149602
11
7.065500984251968
21
-4.025377952755905
0
LINE
8
BLACK
6
CONTINUOUS
10
7.065500984251968
20
-4.025377952755905
11
7.0692505118110232
21
-4.0178788582677161
0
LINE
8
BLACK
6
CONTINUOUS
10
7.0692505118110232
20
-4.0178788582677161
11
7.0692505118110232
21
-4.014129330708661
0
LINE
8
BLACK
6
CONTINUOUS
10
7.0692505118110232
20
-4.014129330708661
11
7.065500984251968
21
-4.0066302755905507
0
LINE
8
BLACK
6
CONTINUOUS
10
7.065500984251968
20
-4.0066302755905507
11
7.0580018897637791
21
-4.0028807480314956
0
LINE
8
BLACK
6
CONTINUOUS
10
7.0580018897637791
20
-4.0028807480314956
11
7.0467533070866137
21
-4.0028807480314956
0
LINE
8
BLACK
6
CONTINUOUS
10
7.0467533070866137
20
-4.0028807480314956
11
7.0392542519685035
21
-3.999131220472441
0
LINE
8
BLACK
6
CONTINUOUS
10
7.0392542519685035
20
-3.999131220472441
11
7.0355047244094484
21
-3.9916321653543307
0
LINE
8
BLACK
6
CONTINUOUS
10
7.0355047244094484
20
-3.9916321653543307
11
7.0355047244094484
21
-3.9878826377952756
0
LINE
8
BLACK
6
CONTINUOUS
10
7.0355047244094484
20
-3.9878826377952756
11
7.0392542519685035
21
-3.9803835433070867
0
LINE
8
BLACK
6
CONTINUOUS
10
7.0392542519685035
20
-3.9803835433070867
11
7.0467533070866137
21
-3.9766340157480315
0
LINE
8
BLACK
6
CONTINUOUS
10
7.0467533070866137
20
-3.9766340157480315
11
7.0580018897637791
21
-3.9766340157480315
0
LINE
8
BLACK
6
CONTINUOUS
10
7.0580018897637791
20
-3.9766340157480315
11
7.065500984251968
21
-3.9803835433070867
0
LINE
8
BLACK
6
CONTINUOUS
10
7.0954972440944877
20
-4.0591237007874019
11
7.0992467716535428
21
-4.0553741732283459
0
LINE
8
BLACK
6
CONTINUOUS
10
7.0992467716535428
20
-4.0553741732283459
11
7.106745826771653
21
-4.0441255905511806
0
LINE
8
BLACK
6
CONTINUOUS
10
7.106745826771653
20
-4.0441255905511806
11
7.1104953543307081
21
-4.0366265354330704
0
LINE
8
BLACK
6
CONTINUOUS
10
7.1104953543307081
20
-4.0366265354330704
11
7.1142448818897632
21
-4.025377952755905
0
LINE
8
BLACK
6
CONTINUOUS
10
7.1142448818897632
20
-4.025377952755905
11
7.1179944094488183
21
-4.0066302755905507
0
LINE
8
BLACK
6
CONTINUOUS
10
7.1179944094488183
20
-4.0066302755905507
11
7.1179944094488183
21
-3.9916321653543307
0
LINE
8
BLACK
6
CONTINUOUS
10
7.1179944094488183
20
-3.9916321653543307
11
7.1142448818897632
21
-3.9728844881889764
0
LINE
8
BLACK
6
CONTINUOUS
10
7.1142448818897632
20
-3.9728844881889764
11
7.1104953543307081
21
-3.9616359055118111
0
LINE
8
BLACK
6
CONTINUOUS
10
7.1104953543307081
20
-3.9616359055118111
11
7.106745826771653
21
-3.9541368503937009
0
LINE
8
BLACK
6
CONTINUOUS
10
7.106745826771653
20
-3.9541368503937009
11
7.0992467716535428
21
-3.9428882283464568
0
LINE
8
BLACK
6
CONTINUOUS
10
7.0992467716535428
20
-3.9428882283464568
11
7.0954972440944877
21
-3.9391387007874017
0
CIRCLE
8
BLACK
10
5.1938976377952759
20
-4.0970472440944885
40
0.0216535433070866
0
LINE
8
BLACK
6
CONTINUOUS
10
5.3594640551181101
20
-4.1330644881889764
11
5.31446968503937
21
-4.1330644881889764
0
LINE
8
BLACK
6
CONTINUOUS
10
5.3369668503937007
20
-4.1330644881889764
11
5.3369668503937007
21
-4.0543243307086616
0
LINE
8
BLACK
6
CONTINUOUS
10
5.3369668503937007
20
-4.0543243307086616
11
5.3294677952755904
21
-4.0655729133858269
0
LINE
8
BLACK
6
CONTINUOUS
10
5.3294677952755904
20
-4.0655729133858269
11
5.3219687401574802
21
-4.0730719685039372
0
LINE
8
BLACK
6
CONTINUOUS
10
5.3219687401574802
20
-4.0730719685039372
11
5.31446968503937
21
-4.0768214960629923
0
LINE
8
BLACK
6
CONTINUOUS
10
5.3932098425196848
20
-4.1255653937007875
11
5.3969593700787399
21
-4.1293149606299213
0
LINE
8
BLACK
6
CONTINUOUS
10
5.3969593700787399
20
-4.1293149606299213
11
5.3932098425196848
21
-4.1330644881889764
0
LINE
8
BLACK
6
CONTINUOUS
10
5.3932098425196848
20
-4.1330644881889764
11
5.3894603149606297
21
-4.1293149606299213
0
LINE
8
BLACK
6
CONTINUOUS
10
5.3894603149606297
20
-4.1293149606299213
11
5.3932098425196848
21
-4.1255653937007875
0
LINE
8
BLACK
6
CONTINUOUS
10
5.3932098425196848
20
-4.1255653937007875
11
5.3932098425196848
21
-4.1330644881889764
0
LINE
8
BLACK
6
CONTINUOUS
10
5.4719499999999996
20
-4.1330644881889764
11
5.4269556299212596
21
-4.1330644881889764
0
LINE
8
BLACK
6
CONTINUOUS
10
5.4494527952755902
20
-4.1330644881889764
11
5.4494527952755902
21
-4.0543243307086616
0
LINE
8
BLACK
6
CONTINUOUS
10
5.4494527952755902
20
-4.0543243307086616
11
5.44195374015748
21
-4.0655729133858269
0
LINE
8
BLACK
6
CONTINUOUS
10
5.44195374015748
20
-4.0655729133858269
11
5.4344546850393698
21
-4.0730719685039372
0
LINE
8
BLACK
6
CONTINUOUS
10
5.4344546850393698
20
-4.0730719685039372
11
5.4269556299212596
21
-4.0768214960629923
0
LINE
8
BLACK
6
CONTINUOUS
10
5.5206938976377948
20
-4.0543243307086616
11
5.5281929921259838
21
-4.0543243307086616
0
LINE
8
BLACK
6
CONTINUOUS
10
5.5281929921259838
20
-4.0543243307086616
11
5.535692047244094
21
-4.0580738582677167
0
LINE
8
BLACK
6
CONTINUOUS
10
5.535692047244094
20
-4.0580738582677167
11
5.5394415748031491
21
-4.0618233858267718
0
LINE
8
BLACK
6
CONTINUOUS
10
5.5394415748031491
20
-4.0618233858267718
11
5.5431911023622042
21
-4.069322440944882
0
LINE
8
BLACK
6
CONTINUOUS
10
5.5431911023622042
20
-4.069322440944882
11
5.5469406299212594
21
-4.0843205511811025
0
LINE
8
BLACK
6
CONTINUOUS
10
5.5469406299212594
20
-4.0843205511811025
11
5.5469406299212594
21
-4.1030682283464568
0
LINE
8
BLACK
6
CONTINUOUS
10
5.5469406299212594
20
-4.1030682283464568
11
5.5431911023622042
21
-4.1180663385826772
0
LINE
8
BLACK
6
CONTINUOUS
10
5.5431911023622042
20
-4.1180663385826772
11
5.5394415748031491
21
-4.1255653937007875
0
LINE
8
BLACK
6
CONTINUOUS
10
5.5394415748031491
20
-4.1255653937007875
11
5.535692047244094
21
-4.1293149606299213
0
LINE
8
BLACK
6
CONTINUOUS
10
5.535692047244094
20
-4.1293149606299213
11
5.5281929921259838
21
-4.1330644881889764
0
LINE
8
BLACK
6
CONTINUOUS
10
5.5281929921259838
20
-4.1330644881889764
11
5.5206938976377948
21
-4.1330644881889764
0
LINE
8
BLACK
6
CONTINUOUS
10
5.5206938976377948
20
-4.1330644881889764
11
5.5131948425196846
21
-4.1293149606299213
0
LINE
8
BLACK
6
CONTINUOUS
10
5.5131948425196846
20
-4.1293149606299213
11
5.5094453149606295
21
-4.1255653937007875
0
LINE
8
BLACK
6
CONTINUOUS
10
5.5094453149606295
20
-4.1255653937007875
11
5.5056957874015744
21
-4.1180663385826772
0
LINE
8
BLACK
6
CONTINUOUS
10
5.5056957874015744
20
-4.1180663385826772
11
5.5019462598425193
21
-4.1030682283464568
0
LINE
8
BLACK
6
CONTINUOUS
10
5.5019462598425193
20
-4.1030682283464568
11
5.5019462598425193
21
-4.0843205511811025
0
LINE
8
BLACK
6
CONTINUOUS
10
5.5019462598425193
20
-4.0843205511811025
11
5.5056957874015744
21
-4.069322440944882
0
LINE
8
BLACK
6
CONTINUOUS
10
5.5056957874015744
20
-4.069322440944882
11
5.5094453149606295
21
-4.0618233858267718
0
LINE
8
BLACK
6
CONTINUOUS
10
5.5094453149606295
20
-4.0618233858267718
11
5.5131948425196846
21
-4.0580738582677167
0
LINE
8
BLACK
6
CONTINUOUS
10
5.5131948425196846
20
-4.0580738582677167
11
5.5206938976377948
21
-4.0543243307086616
0
LINE
8
BLACK
6
CONTINUOUS
10
5.5956845275590554
20
-4.0543243307086616
11
5.6031836220472444
21
-4.0543243307086616
0
LINE
8
BLACK
6
CONTINUOUS
10
5.6031836220472444
20
-4.0543243307086616
11
5.6106826771653546
21
-4.0580738582677167
0
LINE
8
BLACK
6
CONTINUOUS
10
5.6106826771653546
20
-4.0580738582677167
11
5.6144322047244097
21
-4.0618233858267718
0
LINE
8
BLACK
6
CONTINUOUS
10
5.6144322047244097
20
-4.0618233858267718
11
5.6181817322834648
21
-4.069322440944882
0
LINE
8
BLACK
6
CONTINUOUS
10
5.6181817322834648
20
-4.069322440944882
11
5.62193125984252
21
-4.0843205511811025
0
LINE
8
BLACK
6
CONTINUOUS
10
5.62193125984252
20
-4.0843205511811025
11
5.62193125984252
21
-4.1030682283464568
0
LINE
8
BLACK
6
CONTINUOUS
10
5.62193125984252
20
-4.1030682283464568
11
5.6181817322834648
21
-4.1180663385826772
0
LINE
8
BLACK
6
CONTINUOUS
10
5.6181817322834648
20
-4.1180663385826772
11
5.6144322047244097
21
-4.1255653937007875
0
LINE
8
BLACK
6
CONTINUOUS
10
5.6144322047244097
20
-4.1255653937007875
11
5.6106826771653546
21
-4.1293149606299213
0
LINE
8
BLACK
6
CONTINUOUS
10
5.6106826771653546
20
-4.1293149606299213
11
5.6031836220472444
21
-4.1330644881889764
0
LINE
8
BLACK
6
CONTINUOUS
10
5.6031836220472444
20
-4.1330644881889764
11
5.5956845275590554
21
-4.1330644881889764
0
LINE
8
BLACK
6
CONTINUOUS
10
5.5956845275590554
20
-4.1330644881889764
11
5.5881854724409443
21
-4.1293149606299213
0
LINE
8
BLACK
6
CONTINUOUS
10
5.5881854724409443
20
-4.1293149606299213
11
5.5844359448818892
21
-4.1255653937007875
0
LINE
8
BLACK
6
CONTINUOUS
10
5.5844359448818892
20
-4.1255653937007875
11
5.5806864173228341
21
-4.1180663385826772
0
LINE
8
BLACK
6
CONTINUOUS
10
5.5806864173228341
20
-4.1180663385826772
11
5.576936889763779
21
-4.1030682283464568
0
LINE
8
BLACK
6
CONTINUOUS
10
5.576936889763779
20
-4.1030682283464568
11
5.576936889763779
21
-4.0843205511811025
0
LINE
8
BLACK
6
CONTINUOUS
10
5.576936889763779
20
-4.0843205511811025
11
5.5806864173228341
21
-4.069322440944882
0
LINE
8
BLACK
6
CONTINUOUS
10
5.5806864173228341
20
-4.069322440944882
11
5.5844359448818892
21
-4.0618233858267718
0
LINE
8
BLACK
6
CONTINUOUS
10
5.5844359448818892
20
-4.0618233858267718
11
5.5881854724409443
21
-4.0580738582677167
0
LINE
8
BLACK
6
CONTINUOUS
10
5.5881854724409443
20
-4.0580738582677167
11
5.5956845275590554
21
-4.0543243307086616
0
LINE
8
BLACK
6
CONTINUOUS
10
5.6556770472440947
20
-4.1330644881889764
11
5.6556770472440947
21
-4.0805710236220474
0
LINE
8
BLACK
6
CONTINUOUS
10
5.6556770472440947
20
-4.0880700787401576
11
5.6594265748031498
21
-4.0843205511811025
0
LINE
8
BLACK
6
CONTINUOUS
10
5.6594265748031498
20
-4.0843205511811025
11
5.66692562992126
21
-4.0805710236220474
0
LINE
8
BLACK
6
CONTINUOUS
10
5.66692562992126
20
-4.0805710236220474
11
5.6781742519685041
21
-4.0805710236220474
0
LINE
8
BLACK
6
CONTINUOUS
10
5.6781742519685041
20
-4.0805710236220474
11
5.6856733070866143
21
-4.0843205511811025
0
LINE
8
BLACK
6
CONTINUOUS
10
5.6856733070866143
20
-4.0843205511811025
11
5.6894228346456694
21
-4.0918196456692915
0
LINE
8
BLACK
6
CONTINUOUS
10
5.6894228346456694
20
-4.0918196456692915
11
5.6894228346456694
21
-4.1330644881889764
0
LINE
8
BLACK
6
CONTINUOUS
10
5.6894228346456694
20
-4.0918196456692915
11
5.6931723622047246
21
-4.0843205511811025
0
LINE
8
BLACK
6
CONTINUOUS
10
5.6931723622047246
20
-4.0843205511811025
11
5.7006714173228348
21
-4.0805710236220474
0
LINE
8
BLACK
6
CONTINUOUS
10
5.7006714173228348
20
-4.0805710236220474
11
5.7119200000000001
21
-4.0805710236220474
0
LINE
8
BLACK
6
CONTINUOUS
10
5.7119200000000001
20
-4.0805710236220474
11
5.7194190944881891
21
-4.0843205511811025
0
LINE
8
BLACK
6
CONTINUOUS
10
5.7194190944881891
20
-4.0843205511811025
11
5.7231686220472442
21
-4.0918196456692915
0
LINE
8
BLACK
6
CONTINUOUS
10
5.7231686220472442
20
-4.0918196456692915
11
5.7231686220472442
21
-4.1330644881889764
0
LINE
8
BLACK
6
CONTINUOUS
10
5.760663937007874
20
-4.1330644881889764
11
5.760663937007874
21
-4.0805710236220474
0
LINE
8
BLACK
6
CONTINUOUS
10
5.760663937007874
20
-4.0880700787401576
11
5.7644134645669292
21
-4.0843205511811025
0
LINE
8
BLACK
6
CONTINUOUS
10
5.7644134645669292
20
-4.0843205511811025
11
5.7719125196850394
21
-4.0805710236220474
0
LINE
8
BLACK
6
CONTINUOUS
10
5.7719125196850394
20
-4.0805710236220474
11
5.7831611417322835
21
-4.0805710236220474
0
LINE
8
BLACK
6
CONTINUOUS
10
5.7831611417322835
20
-4.0805710236220474
11
5.7906601968503937
21
-4.0843205511811025
0
LINE
8
BLACK
6
CONTINUOUS
10
5.7906601968503937
20
-4.0843205511811025
11
5.7944097244094488
21
-4.0918196456692915
0
LINE
8
BLACK
6
CONTINUOUS
10
5.7944097244094488
20
-4.0918196456692915
11
5.7944097244094488
21
-4.1330644881889764
0
LINE
8
BLACK
6
CONTINUOUS
10
5.7944097244094488
20
-4.0918196456692915
11
5.7981592519685039
21
-4.0843205511811025
0
LINE
8
BLACK
6
CONTINUOUS
10
5.7981592519685039
20
-4.0843205511811025
11
5.8056583070866141
21
-4.0805710236220474
0
LINE
8
BLACK
6
CONTINUOUS
10
5.8056583070866141
20
-4.0805710236220474
11
5.8169068897637795
21
-4.0805710236220474
0
LINE
8
BLACK
6
CONTINUOUS
10
5.8169068897637795
20
-4.0805710236220474
11
5.8244059842519684
21
-4.0843205511811025
0
LINE
8
BLACK
6
CONTINUOUS
10
5.8244059842519684
20
-4.0843205511811025
11
5.8281555118110235
21
-4.0918196456692915
0
LINE
8
BLACK
6
CONTINUOUS
10
5.8281555118110235
20
-4.0918196456692915
11
5.8281555118110235
21
-4.1330644881889764
0
LINE
8
BLACK
6
CONTINUOUS
10
5.9818862992125981
20
-4.0505748031496065
11
5.9143947637795273
21
-4.151812125984252
0
LINE
8
BLACK
6
CONTINUOUS
10
6.0831236614173223
20
-4.0543243307086616
11
6.0906227559055113
21
-4.0543243307086616
0
LINE
8
BLACK
6
CONTINUOUS
10
6.0906227559055113
20
-4.0543243307086616
11
6.0981218110236215
21
-4.0580738582677167
0
LINE
8
BLACK
6
CONTINUOUS
10
6.0981218110236215
20
-4.0580738582677167
11
6.1018713385826766
21
-4.0618233858267718
0
LINE
8
BLACK
6
CONTINUOUS
10
6.1018713385826766
20
-4.0618233858267718
11
6.1056208661417317
21
-4.069322440944882
0
LINE
8
BLACK
6
CONTINUOUS
10
6.1056208661417317
20
-4.069322440944882
11
6.1093703937007868
21
-4.0843205511811025
0
LINE
8
BLACK
6
CONTINUOUS
10
6.1093703937007868
20
-4.0843205511811025
11
6.1093703937007868
21
-4.1030682283464568
0
LINE
8
BLACK
6
CONTINUOUS
10
6.1093703937007868
20
-4.1030682283464568
11
6.1056208661417317
21
-4.1180663385826772
0
LINE
8
BLACK
6
CONTINUOUS
10
6.1056208661417317
20
-4.1180663385826772
11
6.1018713385826766
21
-4.1255653937007875
0
LINE
8
BLACK
6
CONTINUOUS
10
6.1018713385826766
20
-4.1255653937007875
11
6.0981218110236215
21
-4.1293149606299213
0
LINE
8
BLACK
6
CONTINUOUS
10
6.0981218110236215
20
-4.1293149606299213
11
6.0906227559055113
21
-4.1330644881889764
0
LINE
8
BLACK
6
CONTINUOUS
10
6.0906227559055113
20
-4.1330644881889764
11
6.0831236614173223
21
-4.1330644881889764
0
LINE
8
BLACK
6
CONTINUOUS
10
6.0831236614173223
20
-4.1330644881889764
11
6.0756246062992121
21
-4.1293149606299213
0
LINE
8
BLACK
6
CONTINUOUS
10
6.0756246062992121
20
-4.1293149606299213
11
6.071875078740157
21
-4.1255653937007875
0
LINE
8
BLACK
6
CONTINUOUS
10
6.071875078740157
20
-4.1255653937007875
11
6.0681255511811019
21
-4.1180663385826772
0
LINE
8
BLACK
6
CONTINUOUS
10
6.0681255511811019
20
-4.1180663385826772
11
6.0643760236220468
21
-4.1030682283464568
0
LINE
8
BLACK
6
CONTINUOUS
10
6.0643760236220468
20
-4.1030682283464568
11
6.0643760236220468
21
-4.0843205511811025
0
LINE
8
BLACK
6
CONTINUOUS
10
6.0643760236220468
20
-4.0843205511811025
11
6.0681255511811019
21
-4.069322440944882
0
LINE
8
BLACK
6
CONTINUOUS
10
6.0681255511811019
20
-4.069322440944882
11
6.071875078740157
21
-4.0618233858267718
0
LINE
8
BLACK
6
CONTINUOUS
10
6.071875078740157
20
-4.0618233858267718
11
6.0756246062992121
21
-4.0580738582677167
0
LINE
8
BLACK
6
CONTINUOUS
10
6.0756246062992121
20
-4.0580738582677167
11
6.0831236614173223
21
-4.0543243307086616
0
LINE
8
BLACK
6
CONTINUOUS
10
6.1431161811023625
20
-4.1255653937007875
11
6.1468657086614176
21
-4.1293149606299213
0
LINE
8
BLACK
6
CONTINUOUS
10
6.1468657086614176
20
-4.1293149606299213
11
6.1431161811023625
21
-4.1330644881889764
0
LINE
8
BLACK
6
CONTINUOUS
10
6.1431161811023625
20
-4.1330644881889764
11
6.1393666535433074
21
-4.1293149606299213
0
LINE
8
BLACK
6
CONTINUOUS
10
6.1393666535433074
20
-4.1293149606299213
11
6.1431161811023625
21
-4.1255653937007875
0
LINE
8
BLACK
6
CONTINUOUS
10
6.1431161811023625
20
-4.1255653937007875
11
6.1431161811023625
21
-4.1330644881889764
0
LINE
8
BLACK
6
CONTINUOUS
10
6.1956096062992128
20
-4.0543243307086616
11
6.2031087007874017
21
-4.0543243307086616
0
LINE
8
BLACK
6
CONTINUOUS
10
6.2031087007874017
20
-4.0543243307086616
11
6.210607755905512
21
-4.0580738582677167
0
LINE
8
BLACK
6
CONTINUOUS
10
6.210607755905512
20
-4.0580738582677167
11
6.2143572834645671
21
-4.0618233858267718
0
LINE
8
BLACK
6
CONTINUOUS
10
6.2143572834645671
20
-4.0618233858267718
11
6.2181068110236222
21
-4.069322440944882
0
LINE
8
BLACK
6
CONTINUOUS
10
6.2181068110236222
20
-4.069322440944882
11
6.2218563385826773
21
-4.0843205511811025
0
LINE
8
BLACK
6
CONTINUOUS
10
6.2218563385826773
20
-4.0843205511811025
11
6.2218563385826773
21
-4.1030682283464568
0
LINE
8
BLACK
6
CONTINUOUS
10
6.2218563385826773
20
-4.1030682283464568
11
6.2181068110236222
21
-4.1180663385826772
0
LINE
8
BLACK
6
CONTINUOUS
10
6.2181068110236222
20
-4.1180663385826772
11
6.2143572834645671
21
-4.1255653937007875
0
LINE
8
BLACK
6
CONTINUOUS
10
6.2143572834645671
20
-4.1255653937007875
11
6.210607755905512
21
-4.1293149606299213
0
LINE
8
BLACK
6
CONTINUOUS
10
6.210607755905512
20
-4.1293149606299213
11
6.2031087007874017
21
-4.1330644881889764
0
LINE
8
BLACK
6
CONTINUOUS
10
6.2031087007874017
20
-4.1330644881889764
11
6.1956096062992128
21
-4.1330644881889764
0
LINE
8
BLACK
6
CONTINUOUS
10
6.1956096062992128
20
-4.1330644881889764
11
6.1881105511811025
21
-4.1293149606299213
0
LINE
8
BLACK
6
CONTINUOUS
10
6.1881105511811025
20
-4.1293149606299213
11
6.1843610236220474
21
-4.1255653937007875
0
LINE
8
BLACK
6
CONTINUOUS
10
6.1843610236220474
20
-4.1255653937007875
11
6.1806114960629923
21
-4.1180663385826772
0
LINE
8
BLACK
6
CONTINUOUS
10
6.1806114960629923
20
-4.1180663385826772
11
6.1768619685039372
21
-4.1030682283464568
0
LINE
8
BLACK
6
CONTINUOUS
10
6.1768619685039372
20
-4.1030682283464568
11
6.1768619685039372
21
-4.0843205511811025
0
LINE
8
BLACK
6
CONTINUOUS
10
6.1768619685039372
20
-4.0843205511811025
11
6.1806114960629923
21
-4.069322440944882
0
LINE
8
BLACK
6
CONTINUOUS
10
6.1806114960629923
20
-4.069322440944882
11
6.1843610236220474
21
-4.0618233858267718
0
LINE
8
BLACK
6
CONTINUOUS
10
6.1843610236220474
20
-4.0618233858267718
11
6.1881105511811025
21
-4.0580738582677167
0
LINE
8
BLACK
6
CONTINUOUS
10
6.1881105511811025
20
-4.0580738582677167
11
6.1956096062992128
21
-4.0543243307086616
0
LINE
8
BLACK
6
CONTINUOUS
10
6.2893479133858268
20
-4.0805710236220474
11
6.2893479133858268
21
-4.1330644881889764
0
LINE
8
BLACK
6
CONTINUOUS
10
6.2706002362204725
20
-4.0505748031496065
11
6.2518525984251969
21
-4.1068177559055119
0
LINE
8
BLACK
6
CONTINUOUS
10
6.2518525984251969
20
-4.1068177559055119
11
6.3005964960629921
21
-4.1068177559055119
0
LINE
8
BLACK
6
CONTINUOUS
10
6.3230937007874015
20
-4.0543243307086616
11
6.3718375984251967
21
-4.0543243307086616
0
LINE
8
BLACK
6
CONTINUOUS
10
6.3718375984251967
20
-4.0543243307086616
11
6.3455908661417322
21
-4.0843205511811025
0
LINE
8
BLACK
6
CONTINUOUS
10
6.3455908661417322
20
-4.0843205511811025
11
6.3568394881889763
21
-4.0843205511811025
0
LINE
8
BLACK
6
CONTINUOUS
10
6.3568394881889763
20
-4.0843205511811025
11
6.3643385433070865
21
-4.0880700787401576
0
LINE
8
BLACK
6
CONTINUOUS
10
6.3643385433070865
20
-4.0880700787401576
11
6.3680880708661416
21
-4.0918196456692915
0
LINE
8
BLACK
6
CONTINUOUS
10
6.3680880708661416
20
-4.0918196456692915
11
6.3718375984251967
21
-4.0993187007874017
0
LINE
8
BLACK
6
CONTINUOUS
10
6.3718375984251967
20
-4.0993187007874017
11
6.3718375984251967
21
-4.1180663385826772
0
LINE
8
BLACK
6
CONTINUOUS
10
6.3718375984251967
20
-4.1180663385826772
11
6.3680880708661416
21
-4.1255653937007875
0
LINE
8
BLACK
6
CONTINUOUS
10
6.3680880708661416
20
-4.1255653937007875
11
6.3643385433070865
21
-4.1293149606299213
0
LINE
8
BLACK
6
CONTINUOUS
10
6.3643385433070865
20
-4.1293149606299213
11
6.3568394881889763
21
-4.1330644881889764
0
LINE
8
BLACK
6
CONTINUOUS
10
6.3568394881889763
20
-4.1330644881889764
11
6.3343422834645668
21
-4.1330644881889764
0
LINE
8
BLACK
6
CONTINUOUS
10
6.3343422834645668
20
-4.1330644881889764
11
6.3268432283464566
21
-4.1293149606299213
0
LINE
8
BLACK
6
CONTINUOUS
10
6.3268432283464566
20
-4.1293149606299213
11
6.3230937007874015
21
-4.1255653937007875
0
LINE
8
BLACK
6
CONTINUOUS
10
6.3980843307086612
20
-4.0543243307086616
11
6.4468282283464564
21
-4.0543243307086616
0
LINE
8
BLACK
6
CONTINUOUS
10
6.4468282283464564
20
-4.0543243307086616
11
6.4205814960629919
21
-4.0843205511811025
0
LINE
8
BLACK
6
CONTINUOUS
10
6.4205814960629919
20
-4.0843205511811025
11
6.431830118110236
21
-4.0843205511811025
0
LINE
8
BLACK
6
CONTINUOUS
10
6.431830118110236
20
-4.0843205511811025
11
6.4393291732283462
21
-4.0880700787401576
0
LINE
8
BLACK
6
CONTINUOUS
10
6.4393291732283462
20
-4.0880700787401576
11
6.4430787007874013
21
-4.0918196456692915
0
LINE
8
BLACK
6
CONTINUOUS
10
6.4430787007874013
20
-4.0918196456692915
11
6.4468282283464564
21
-4.0993187007874017
0
LINE
8
BLACK
6
CONTINUOUS
10
6.4468282283464564
20
-4.0993187007874017
11
6.4468282283464564
21
-4.1180663385826772
0
LINE
8
BLACK
6
CONTINUOUS
10
6.4468282283464564
20
-4.1180663385826772
11
6.4430787007874013
21
-4.1255653937007875
0
LINE
8
BLACK
6
CONTINUOUS
10
6.4430787007874013
20
-4.1255653937007875
11
6.4393291732283462
21
-4.1293149606299213
0
LINE
8
BLACK
6
CONTINUOUS
10
6.4393291732283462
20
-4.1293149606299213
11
6.431830118110236
21
-4.1330644881889764
0
LINE
8
BLACK
6
CONTINUOUS
10
6.431830118110236
20
-4.1330644881889764
11
6.4093329133858266
21
-4.1330644881889764
0
LINE
8
BLACK
6
CONTINUOUS
10
6.4093329133858266
20
-4.1330644881889764
11
6.4018338582677163
21
-4.1293149606299213
0
LINE
8
BLACK
6
CONTINUOUS
10
6.4018338582677163
20
-4.1293149606299213
11
6.3980843307086612
21
-4.1255653937007875
0
LINE
8
BLACK
6
CONTINUOUS
10
6.476824488188976
20
-4.0543243307086616
11
6.476824488188976
21
-4.069322440944882
0
LINE
8
BLACK
6
CONTINUOUS
10
6.5068207480314957
20
-4.0543243307086616
11
6.5068207480314957
21
-4.069322440944882
0
LINE
8
BLACK
6
CONTINUOUS
10
6.6230562598425191
20
-4.1630607086614173
11
6.6193066929133852
21
-4.1593111811023622
0
LINE
8
BLACK
6
CONTINUOUS
10
6.6193066929133852
20
-4.1593111811023622
11
6.611807637795275
21
-4.1480625984251969
0
LINE
8
BLACK
6
CONTINUOUS
10
6.611807637795275
20
-4.1480625984251969
11
6.6080581102362199
21
-4.1405635433070866
0
LINE
8
BLACK
6
CONTINUOUS
10
6.6080581102362199
20
-4.1405635433070866
11
6.6043085826771648
21
-4.1293149606299213
0
LINE
8
BLACK
6
CONTINUOUS
10
6.6043085826771648
20
-4.1293149606299213
11
6.6005590551181097
21
-4.110567283464567
0
LINE
8
BLACK
6
CONTINUOUS
10
6.6005590551181097
20
-4.110567283464567
11
6.6005590551181097
21
-4.0955691732283466
0
LINE
8
BLACK
6
CONTINUOUS
10
6.6005590551181097
20
-4.0955691732283466
11
6.6043085826771648
21
-4.0768214960629923
0
LINE
8
BLACK
6
CONTINUOUS
10
6.6043085826771648
20
-4.0768214960629923
11
6.6080581102362199
21
-4.0655729133858269
0
LINE
8
BLACK
6
CONTINUOUS
10
6.6080581102362199
20
-4.0655729133858269
11
6.611807637795275
21
-4.0580738582677167
0
LINE
8
BLACK
6
CONTINUOUS
10
6.611807637795275
20
-4.0580738582677167
11
6.6193066929133852
21
-4.0468252362204726
0
LINE
8
BLACK
6
CONTINUOUS
10
6.6193066929133852
20
-4.0468252362204726
11
6.6230562598425191
21
-4.0430757086614175
0
LINE
8
BLACK
6
CONTINUOUS
10
6.6942973228346458
20
-4.1330644881889764
11
6.6493029527559058
21
-4.1330644881889764
0
LINE
8
BLACK
6
CONTINUOUS
10
6.6718001181102364
20
-4.1330644881889764
11
6.6718001181102364
21
-4.0543243307086616
0
LINE
8
BLACK
6
CONTINUOUS
10
6.6718001181102364
20
-4.0543243307086616
11
6.6643010629921262
21
-4.0655729133858269
0
LINE
8
BLACK
6
CONTINUOUS
10
6.6643010629921262
20
-4.0655729133858269
11
6.656802007874016
21
-4.0730719685039372
0
LINE
8
BLACK
6
CONTINUOUS
10
6.656802007874016
20
-4.0730719685039372
11
6.6493029527559058
21
-4.0768214960629923
0
LINE
8
BLACK
6
CONTINUOUS
10
6.7242935826771655
20
-4.0618233858267718
11
6.7280431102362206
21
-4.0580738582677167
0
LINE
8
BLACK
6
CONTINUOUS
10
6.7280431102362206
20
-4.0580738582677167
11
6.7355421653543308
21
-4.0543243307086616
0
LINE
8
BLACK
6
CONTINUOUS
10
6.7355421653543308
20
-4.0543243307086616
11
6.7542898425196851
21
-4.0543243307086616
0
LINE
8
BLACK
6
CONTINUOUS
10
6.7542898425196851
20
-4.0543243307086616
11
6.7617888976377953
21
-4.0580738582677167
0
LINE
8
BLACK
6
CONTINUOUS
10
6.7617888976377953
20
-4.0580738582677167
11
6.7655384251968504
21
-4.0618233858267718
0
LINE
8
BLACK
6
CONTINUOUS
10
6.7655384251968504
20
-4.0618233858267718
11
6.7692879527559056
21
-4.069322440944882
0
LINE
8
BLACK
6
CONTINUOUS
10
6.7692879527559056
20
-4.069322440944882
11
6.7692879527559056
21
-4.0768214960629923
0
LINE
8
BLACK
6
CONTINUOUS
10
6.7692879527559056
20
-4.0768214960629923
11
6.7655384251968504
21
-4.0880700787401576
0
LINE
8
BLACK
6
CONTINUOUS
10
6.7655384251968504
20
-4.0880700787401576
11
6.7205440551181104
21
-4.1330644881889764
0
LINE
8
BLACK
6
CONTINUOUS
10
6.7205440551181104
20
-4.1330644881889764
11
6.7692879527559056
21
-4.1330644881889764
0
LINE
8
BLACK
6
CONTINUOUS
10
6.8630262598425196
20
-4.1330644881889764
11
6.8630262598425196
21
-4.0543243307086616
0
LINE
8
BLACK
6
CONTINUOUS
10
6.8967720472440943
20
-4.1330644881889764
11
6.8967720472440943
21
-4.0918196456692915
0
LINE
8
BLACK
6
CONTINUOUS
10
6.8967720472440943
20
-4.0918196456692915
11
6.8930225196850392
21
-4.0843205511811025
0
LINE
8
BLACK
6
CONTINUOUS
10
6.8930225196850392
20
-4.0843205511811025
11
6.885523464566929
21
-4.0805710236220474
0
LINE
8
BLACK
6
CONTINUOUS
10
6.885523464566929
20
-4.0805710236220474
11
6.8742748425196849
21
-4.0805710236220474
0
LINE
8
BLACK
6
CONTINUOUS
10
6.8742748425196849
20
-4.0805710236220474
11
6.8667757874015747
21
-4.0843205511811025
0
LINE
8
BLACK
6
CONTINUOUS
10
6.8667757874015747
20
-4.0843205511811025
11
6.8630262598425196
21
-4.0880700787401576
0
LINE
8
BLACK
6
CONTINUOUS
10
6.9455159448818895
20
-4.1330644881889764
11
6.9380168897637793
21
-4.1293149606299213
0
LINE
8
BLACK
6
CONTINUOUS
10
6.9380168897637793
20
-4.1293149606299213
11
6.9342673622047242
21
-4.1255653937007875
0
LINE
8
BLACK
6
CONTINUOUS
10
6.9342673622047242
20
-4.1255653937007875
11
6.9305178346456691
21
-4.1180663385826772
0
LINE
8
BLACK
6
CONTINUOUS
10
6.9305178346456691
20
-4.1180663385826772
11
6.9305178346456691
21
-4.0955691732283466
0
LINE
8
BLACK
6
CONTINUOUS
10
6.9305178346456691
20
-4.0955691732283466
11
6.9342673622047242
21
-4.0880700787401576
0
LINE
8
BLACK
6
CONTINUOUS
10
6.9342673622047242
20
-4.0880700787401576
11
6.9380168897637793
21
-4.0843205511811025
0
LINE
8
BLACK
6
CONTINUOUS
10
6.9380168897637793
20
-4.0843205511811025
11
6.9455159448818895
21
-4.0805710236220474
0
LINE
8
BLACK
6
CONTINUOUS
10
6.9455159448818895
20
-4.0805710236220474
11
6.9567645669291336
21
-4.0805710236220474
0
LINE
8
BLACK
6
CONTINUOUS
10
6.9567645669291336
20
-4.0805710236220474
11
6.9642636220472438
21
-4.0843205511811025
0
LINE
8
BLACK
6
CONTINUOUS
10
6.9642636220472438
20
-4.0843205511811025
11
6.9680131496062989
21
-4.0880700787401576
0
LINE
8
BLACK
6
CONTINUOUS
10
6.9680131496062989
20
-4.0880700787401576
11
6.971762677165354
21
-4.0955691732283466
0
LINE
8
BLACK
6
CONTINUOUS
10
6.971762677165354
20
-4.0955691732283466
11
6.971762677165354
21
-4.1180663385826772
0
LINE
8
BLACK
6
CONTINUOUS
10
6.971762677165354
20
-4.1180663385826772
11
6.9680131496062989
21
-4.1255653937007875
0
LINE
8
BLACK
6
CONTINUOUS
10
6.9680131496062989
20
-4.1255653937007875
11
6.9642636220472438
21
-4.1293149606299213
0
LINE
8
BLACK
6
CONTINUOUS
10
6.9642636220472438
20
-4.1293149606299213
11
6.9567645669291336
21
-4.1330644881889764
0
LINE
8
BLACK
6
CONTINUOUS
10
6.9567645669291336
20
-4.1330644881889764
11
6.9455159448818895
21
-4.1330644881889764
0
LINE
8
BLACK
6
CONTINUOUS
10
7.0167570472440941
20
-4.1330644881889764
11
7.0092579921259839
21
-4.1293149606299213
0
LINE
8
BLACK
6
CONTINUOUS
10
7.0092579921259839
20
-4.1293149606299213
11
7.0055084645669288
21
-4.1218158661417323
0
LINE
8
BLACK
6
CONTINUOUS
10
7.0055084645669288
20
-4.1218158661417323
11
7.0055084645669288
21
-4.0543243307086616
0
LINE
8
BLACK
6
CONTINUOUS
10
7.0767495669291334
20
-4.1293149606299213
11
7.0692505118110232
21
-4.1330644881889764
0
LINE
8
BLACK
6
CONTINUOUS
10
7.0692505118110232
20
-4.1330644881889764
11
7.054252362204724
21
-4.1330644881889764
0
LINE
8
BLACK
6
CONTINUOUS
10
7.054252362204724
20
-4.1330644881889764
11
7.0467533070866137
21
-4.1293149606299213
0
LINE
8
BLACK
6
CONTINUOUS
10
7.0467533070866137
20
-4.1293149606299213
11
7.0430037795275586
21
-4.1218158661417323
0
LINE
8
BLACK
6
CONTINUOUS
10
7.0430037795275586
20
-4.1218158661417323
11
7.0430037795275586
21
-4.0918196456692915
0
LINE
8
BLACK
6
CONTINUOUS
10
7.0430037795275586
20
-4.0918196456692915
11
7.0467533070866137
21
-4.0843205511811025
0
LINE
8
BLACK
6
CONTINUOUS
10
7.0467533070866137
20
-4.0843205511811025
11
7.054252362204724
21
-4.0805710236220474
0
LINE
8
BLACK
6
CONTINUOUS
10
7.054252362204724
20
-4.0805710236220474
11
7.0692505118110232
21
-4.0805710236220474
0
LINE
8
BLACK
6
CONTINUOUS
10
7.0692505118110232
20
-4.0805710236220474
11
7.0767495669291334
21
-4.0843205511811025
0
LINE
8
BLACK
6
CONTINUOUS
10
7.0767495669291334
20
-4.0843205511811025
11
7.0804990944881885
21
-4.0918196456692915
0
LINE
8
BLACK
6
CONTINUOUS
10
7.0804990944881885
20
-4.0918196456692915
11
7.0804990944881885
21
-4.0993187007874017
0
LINE
8
BLACK
6
CONTINUOUS
10
7.0804990944881885
20
-4.0993187007874017
11
7.0430037795275586
21
-4.1068177559055119
0
LINE
8
BLACK
6
CONTINUOUS
10
7.1104953543307081
20
-4.1293149606299213
11
7.1179944094488183
21
-4.1330644881889764
0
LINE
8
BLACK
6
CONTINUOUS
10
7.1179944094488183
20
-4.1330644881889764
11
7.1329925196850388
21
-4.1330644881889764
0
LINE
8
BLACK
6
CONTINUOUS
10
7.1329925196850388
20
-4.1330644881889764
11
7.1404916141732278
21
-4.1293149606299213
0
LINE
8
BLACK
6
CONTINUOUS
10
7.1404916141732278
20
-4.1293149606299213
11
7.1442411417322829
21
-4.1218158661417323
0
LINE
8
BLACK
6
CONTINUOUS
10
7.1442411417322829
20
-4.1218158661417323
11
7.1442411417322829
21
-4.1180663385826772
0
LINE
8
BLACK
6
CONTINUOUS
10
7.1442411417322829
20
-4.1180663385826772
11
7.1404916141732278
21
-4.110567283464567
0
LINE
8
BLACK
6
CONTINUOUS
10
7.1404916141732278
20
-4.110567283464567
11
7.1329925196850388
21
-4.1068177559055119
0
LINE
8
BLACK
6
CONTINUOUS
10
7.1329925196850388
20
-4.1068177559055119
11
7.1217439370078734
21
-4.1068177559055119
0
LINE
8
BLACK
6
CONTINUOUS
10
7.1217439370078734
20
-4.1068177559055119
11
7.1142448818897632
21
-4.1030682283464568
0
LINE
8
BLACK
6
CONTINUOUS
10
7.1142448818897632
20
-4.1030682283464568
11
7.1104953543307081
21
-4.0955691732283466
0
LINE
8
BLACK
6
CONTINUOUS
10
7.1104953543307081
20
-4.0955691732283466
11
7.1104953543307081
21
-4.0918196456692915
0
LINE
8
BLACK
6
CONTINUOUS
10
7.1104953543307081
20
-4.0918196456692915
11
7.1142448818897632
21
-4.0843205511811025
0
LINE
8
BLACK
6
CONTINUOUS
10
7.1142448818897632
20
-4.0843205511811025
11
7.1217439370078734
21
-4.0805710236220474
0
LINE
8
BLACK
6
CONTINUOUS
10
7.1217439370078734
20
-4.0805710236220474
11
7.1329925196850388
21
-4.0805710236220474
0
LINE
8
BLACK
6
CONTINUOUS
10
7.1329925196850388
20
-4.0805710236220474
11
7.1404916141732278
21
-4.0843205511811025
0
LINE
8
BLACK
6
CONTINUOUS
10
7.1704878740157483
20
-4.1630607086614173
11
7.1742374015748034
21
-4.1593111811023622
0
LINE
8
BLACK
6
CONTINUOUS
10
7.1742374015748034
20
-4.1593111811023622
11
7.1817364566929136
21
-4.1480625984251969
0
LINE
8
BLACK
6
CONTINUOUS
10
7.1817364566929136
20
-4.1480625984251969
11
7.1854859842519687
21
-4.1405635433070866
0
LINE
8
BLACK
6
CONTINUOUS
10
7.1854859842519687
20
-4.1405635433070866
11
7.1892355118110238
21
-4.1293149606299213
0
LINE
8
BLACK
6
CONTINUOUS
10
7.1892355118110238
20
-4.1293149606299213
11
7.1929850393700789
21
-4.110567283464567
0
LINE
8
BLACK
6
CONTINUOUS
10
7.1929850393700789
20
-4.110567283464567
11
7.1929850393700789
21
-4.0955691732283466
0
LINE
8
BLACK
6
CONTINUOUS
10
7.1929850393700789
20
-4.0955691732283466
11
7.1892355118110238
21
-4.0768214960629923
0
LINE
8
BLACK
6
CONTINUOUS
10
7.1892355118110238
20
-4.0768214960629923
11
7.1854859842519687
21
-4.0655729133858269
0
LINE
8
BLACK
6
CONTINUOUS
10
7.1854859842519687
20
-4.0655729133858269
11
7.1817364566929136
21
-4.0580738582677167
0
LINE
8
BLACK
6
CONTINUOUS
10
7.1817364566929136
20
-4.0580738582677167
11
7.1742374015748034
21
-4.0468252362204726
0
LINE
8
BLACK
6
CONTINUOUS
10
7.1742374015748034
20
-4.0468252362204726
11
7.1704878740157483
21
-4.0430757086614175
0
LINE
8
BLACK
6
CONTINUOUS
10
5.1840551181102361
20
-4.169488188976378
11
5.1840551181102361
21
-4.2324803149606298
0
LINE
8
BLACK
6
CONTINUOUS
10
5.1525590551181102
20
-4.2009842519685039
11
5.215551181102362
21
-4.2009842519685039
0
LINE
8
BLACK
6
CONTINUOUS
10
5.3594640551181101
20
-4.2370014960629918
11
5.31446968503937
21
-4.2370014960629918
0
LINE
8
BLACK
6
CONTINUOUS
10
5.3369668503937007
20
-4.2370014960629918
11
5.3369668503937007
21
-4.158261338582677
0
LINE
8
BLACK
6
CONTINUOUS
10
5.3369668503937007
20
-4.158261338582677
11
5.3294677952755904
21
-4.1695099212598423
0
LINE
8
BLACK
6
CONTINUOUS
10
5.3294677952755904
20
-4.1695099212598423
11
5.3219687401574802
21
-4.1770089763779525
0
LINE
8
BLACK
6
CONTINUOUS
10
5.3219687401574802
20
-4.1770089763779525
11
5.31446968503937
21
-4.1807585039370077
0
LINE
8
BLACK
6
CONTINUOUS
10
5.3932098425196848
20
-4.2295024015748028
11
5.3969593700787399
21
-4.2332519685039367
0
LINE
8
BLACK
6
CONTINUOUS
10
5.3969593700787399
20
-4.2332519685039367
11
5.3932098425196848
21
-4.2370014960629918
0
LINE
8
BLACK
6
CONTINUOUS
10
5.3932098425196848
20
-4.2370014960629918
11
5.3894603149606297
21
-4.2332519685039367
0
LINE
8
BLACK
6
CONTINUOUS
10
5.3894603149606297
20
-4.2332519685039367
11
5.3932098425196848
21
-4.2295024015748028
0
LINE
8
BLACK
6
CONTINUOUS
10
5.3932098425196848
20
-4.2295024015748028
11
5.3932098425196848
21
-4.2370014960629918
0
LINE
8
BLACK
6
CONTINUOUS
10
5.4644509448818894
20
-4.158261338582677
11
5.4494527952755902
21
-4.158261338582677
0
LINE
8
BLACK
6
CONTINUOUS
10
5.4494527952755902
20
-4.158261338582677
11
5.44195374015748
21
-4.1620108661417321
0
LINE
8
BLACK
6
CONTINUOUS
10
5.44195374015748
20
-4.1620108661417321
11
5.4382042125984249
21
-4.1657603937007872
0
LINE
8
BLACK
6
CONTINUOUS
10
5.4382042125984249
20
-4.1657603937007872
11
5.4307051574803147
21
-4.1770089763779525
0
LINE
8
BLACK
6
CONTINUOUS
10
5.4307051574803147
20
-4.1770089763779525
11
5.4269556299212596
21
-4.192007086614173
0
LINE
8
BLACK
6
CONTINUOUS
10
5.4269556299212596
20
-4.192007086614173
11
5.4269556299212596
21
-4.2220033464566926
0
LINE
8
BLACK
6
CONTINUOUS
10
5.4269556299212596
20
-4.2220033464566926
11
5.4307051574803147
21
-4.2295024015748028
0
LINE
8
BLACK
6
CONTINUOUS
10
5.4307051574803147
20
-4.2295024015748028
11
5.4344546850393698
21
-4.2332519685039367
0
LINE
8
BLACK
6
CONTINUOUS
10
5.4344546850393698
20
-4.2332519685039367
11
5.44195374015748
21
-4.2370014960629918
0
LINE
8
BLACK
6
CONTINUOUS
10
5.44195374015748
20
-4.2370014960629918
11
5.4569518897637792
21
-4.2370014960629918
0
LINE
8
BLACK
6
CONTINUOUS
10
5.4569518897637792
20
-4.2370014960629918
11
5.4644509448818894
21
-4.2332519685039367
0
LINE
8
BLACK
6
CONTINUOUS
10
5.4644509448818894
20
-4.2332519685039367
11
5.4682004724409445
21
-4.2295024015748028
0
LINE
8
BLACK
6
CONTINUOUS
10
5.4682004724409445
20
-4.2295024015748028
11
5.4719499999999996
21
-4.2220033464566926
0
LINE
8
BLACK
6
CONTINUOUS
10
5.4719499999999996
20
-4.2220033464566926
11
5.4719499999999996
21
-4.2032557086614171
0
LINE
8
BLACK
6
CONTINUOUS
10
5.4719499999999996
20
-4.2032557086614171
11
5.4682004724409445
21
-4.1957566535433068
0
LINE
8
BLACK
6
CONTINUOUS
10
5.4682004724409445
20
-4.1957566535433068
11
5.4644509448818894
21
-4.192007086614173
0
LINE
8
BLACK
6
CONTINUOUS
10
5.4644509448818894
20
-4.192007086614173
11
5.4569518897637792
21
-4.1882575590551179
0
LINE
8
BLACK
6
CONTINUOUS
10
5.4569518897637792
20
-4.1882575590551179
11
5.44195374015748
21
-4.1882575590551179
0
LINE
8
BLACK
6
CONTINUOUS
10
5.44195374015748
20
-4.1882575590551179
11
5.4344546850393698
21
-4.192007086614173
0
LINE
8
BLACK
6
CONTINUOUS
10
5.4344546850393698
20
-4.192007086614173
11
5.4307051574803147
21
-4.1957566535433068
0
LINE
8
BLACK
6
CONTINUOUS
10
5.4307051574803147
20
-4.1957566535433068
11
5.4269556299212596
21
-4.2032557086614171
0
LINE
8
BLACK
6
CONTINUOUS
10
5.5206938976377948
20
-4.158261338582677
11
5.5281929921259838
21
-4.158261338582677
0
LINE
8
BLACK
6
CONTINUOUS
10
5.5281929921259838
20
-4.158261338582677
11
5.535692047244094
21
-4.1620108661417321
0
LINE
8
BLACK
6
CONTINUOUS
10
5.535692047244094
20
-4.1620108661417321
11
5.5394415748031491
21
-4.1657603937007872
0
LINE
8
BLACK
6
CONTINUOUS
10
5.5394415748031491
20
-4.1657603937007872
11
5.5431911023622042
21
-4.1732594488188974
0
LINE
8
BLACK
6
CONTINUOUS
10
5.5431911023622042
20
-4.1732594488188974
11
5.5469406299212594
21
-4.1882575590551179
0
LINE
8
BLACK
6
CONTINUOUS
10
5.5469406299212594
20
-4.1882575590551179
11
5.5469406299212594
21
-4.2070052362204722
0
LINE
8
BLACK
6
CONTINUOUS
10
5.5469406299212594
20
-4.2070052362204722
11
5.5431911023622042
21
-4.2220033464566926
0
LINE
8
BLACK
6
CONTINUOUS
10
5.5431911023622042
20
-4.2220033464566926
11
5.5394415748031491
21
-4.2295024015748028
0
LINE
8
BLACK
6
CONTINUOUS
10
5.5394415748031491
20
-4.2295024015748028
11
5.535692047244094
21
-4.2332519685039367
0
LINE
8
BLACK
6
CONTINUOUS
10
5.535692047244094
20
-4.2332519685039367
11
5.5281929921259838
21
-4.2370014960629918
0
LINE
8
BLACK
6
CONTINUOUS
10
5.5281929921259838
20
-4.2370014960629918
11
5.5206938976377948
21
-4.2370014960629918
0
LINE
8
BLACK
6
CONTINUOUS
10
5.5206938976377948
20
-4.2370014960629918
11
5.5131948425196846
21
-4.2332519685039367
0
LINE
8
BLACK
6
CONTINUOUS
10
5.5131948425196846
20
-4.2332519685039367
11
5.5094453149606295
21
-4.2295024015748028
0
LINE
8
BLACK
6
CONTINUOUS
10
5.5094453149606295
20
-4.2295024015748028
11
5.5056957874015744
21
-4.2220033464566926
0
LINE
8
BLACK
6
CONTINUOUS
10
5.5056957874015744
20
-4.2220033464566926
11
5.5019462598425193
21
-4.2070052362204722
0
LINE
8
BLACK
6
CONTINUOUS
10
5.5019462598425193
20
-4.2070052362204722
11
5.5019462598425193
21
-4.1882575590551179
0
LINE
8
BLACK
6
CONTINUOUS
10
5.5019462598425193
20
-4.1882575590551179
11
5.5056957874015744
21
-4.1732594488188974
0
LINE
8
BLACK
6
CONTINUOUS
10
5.5056957874015744
20
-4.1732594488188974
11
5.5094453149606295
21
-4.1657603937007872
0
LINE
8
BLACK
6
CONTINUOUS
10
5.5094453149606295
20
-4.1657603937007872
11
5.5131948425196846
21
-4.1620108661417321
0
LINE
8
BLACK
6
CONTINUOUS
10
5.5131948425196846
20
-4.1620108661417321
11
5.5206938976377948
21
-4.158261338582677
0
LINE
8
BLACK
6
CONTINUOUS
10
5.5956845275590554
20
-4.158261338582677
11
5.6031836220472444
21
-4.158261338582677
0
LINE
8
BLACK
6
CONTINUOUS
10
5.6031836220472444
20
-4.158261338582677
11
5.6106826771653546
21
-4.1620108661417321
0
LINE
8
BLACK
6
CONTINUOUS
10
5.6106826771653546
20
-4.1620108661417321
11
5.6144322047244097
21
-4.1657603937007872
0
LINE
8
BLACK
6
CONTINUOUS
10
5.6144322047244097
20
-4.1657603937007872
11
5.6181817322834648
21
-4.1732594488188974
0
LINE
8
BLACK
6
CONTINUOUS
10
5.6181817322834648
20
-4.1732594488188974
11
5.62193125984252
21
-4.1882575590551179
0
LINE
8
BLACK
6
CONTINUOUS
10
5.62193125984252
20
-4.1882575590551179
11
5.62193125984252
21
-4.2070052362204722
0
LINE
8
BLACK
6
CONTINUOUS
10
5.62193125984252
20
-4.2070052362204722
11
5.6181817322834648
21
-4.2220033464566926
0
LINE
8
BLACK
6
CONTINUOUS
10
5.6181817322834648
20
-4.2220033464566926
11
5.6144322047244097
21
-4.2295024015748028
0
LINE
8
BLACK
6
CONTINUOUS
10
5.6144322047244097
20
-4.2295024015748028
11
5.6106826771653546
21
-4.2332519685039367
0
LINE
8
BLACK
6
CONTINUOUS
10
5.6106826771653546
20
-4.2332519685039367
11
5.6031836220472444
21
-4.2370014960629918
0
LINE
8
BLACK
6
CONTINUOUS
10
5.6031836220472444
20
-4.2370014960629918
11
5.5956845275590554
21
-4.2370014960629918
0
LINE
8
BLACK
6
CONTINUOUS
10
5.5956845275590554
20
-4.2370014960629918
11
5.5881854724409443
21
-4.2332519685039367
0
LINE
8
BLACK
6
CONTINUOUS
10
5.5881854724409443
20
-4.2332519685039367
11
5.5844359448818892
21
-4.2295024015748028
0
LINE
8
BLACK
6
CONTINUOUS
10
5.5844359448818892
20
-4.2295024015748028
11
5.5806864173228341
21
-4.2220033464566926
0
LINE
8
BLACK
6
CONTINUOUS
10
5.5806864173228341
20
-4.2220033464566926
11
5.576936889763779
21
-4.2070052362204722
0
LINE
8
BLACK
6
CONTINUOUS
10
5.576936889763779
20
-4.2070052362204722
11
5.576936889763779
21
-4.1882575590551179
0
LINE
8
BLACK
6
CONTINUOUS
10
5.576936889763779
20
-4.1882575590551179
11
5.5806864173228341
21
-4.1732594488188974
0
LINE
8
BLACK
6
CONTINUOUS
10
5.5806864173228341
20
-4.1732594488188974
11
5.5844359448818892
21
-4.1657603937007872
0
LINE
8
BLACK
6
CONTINUOUS
10
5.5844359448818892
20
-4.1657603937007872
11
5.5881854724409443
21
-4.1620108661417321
0
LINE
8
BLACK
6
CONTINUOUS
10
5.5881854724409443
20
-4.1620108661417321
11
5.5956845275590554
21
-4.158261338582677
0
LINE
8
BLACK
6
CONTINUOUS
10
5.6556770472440947
20
-4.2370014960629918
11
5.6556770472440947
21
-4.1845080314960628
0
LINE
8
BLACK
6
CONTINUOUS
10
5.6556770472440947
20
-4.192007086614173
11
5.6594265748031498
21
-4.1882575590551179
0
LINE
8
BLACK
6
CONTINUOUS
10
5.6594265748031498
20
-4.1882575590551179
11
5.66692562992126
21
-4.1845080314960628
0
LINE
8
BLACK
6
CONTINUOUS
10
5.66692562992126
20
-4.1845080314960628
11
5.6781742519685041
21
-4.1845080314960628
0
LINE
8
BLACK
6
CONTINUOUS
10
5.6781742519685041
20
-4.1845080314960628
11
5.6856733070866143
21
-4.1882575590551179
0
LINE
8
BLACK
6
CONTINUOUS
10
5.6856733070866143
20
-4.1882575590551179
11
5.6894228346456694
21
-4.1957566535433068
0
LINE
8
BLACK
6
CONTINUOUS
10
5.6894228346456694
20
-4.1957566535433068
11
5.6894228346456694
21
-4.2370014960629918
0
LINE
8
BLACK
6
CONTINUOUS
10
5.6894228346456694
20
-4.1957566535433068
11
5.6931723622047246
21
-4.1882575590551179
0
LINE
8
BLACK
6
CONTINUOUS
10
5.6931723622047246
20
-4.1882575590551179
11
5.7006714173228348
21
-4.1845080314960628
0
LINE
8
BLACK
6
CONTINUOUS
10
5.7006714173228348
20
-4.1845080314960628
11
5.7119200000000001
21
-4.1845080314960628
0
LINE
8
BLACK
6
CONTINUOUS
10
5.7119200000000001
20
-4.1845080314960628
11
5.7194190944881891
21
-4.1882575590551179
0
LINE
8
BLACK
6
CONTINUOUS
10
5.7194190944881891
20
-4.1882575590551179
11
5.7231686220472442
21
-4.1957566535433068
0
LINE
8
BLACK
6
CONTINUOUS
10
5.7231686220472442
20
-4.1957566535433068
11
5.7231686220472442
21
-4.2370014960629918
0
LINE
8
BLACK
6
CONTINUOUS
10
5.760663937007874
20
-4.2370014960629918
11
5.760663937007874
21
-4.1845080314960628
0
LINE
8
BLACK
6
CONTINUOUS
10
5.760663937007874
20
-4.192007086614173
11
5.7644134645669292
21
-4.1882575590551179
0
LINE
8
BLACK
6
CONTINUOUS
10
5.7644134645669292
20
-4.1882575590551179
11
5.7719125196850394
21
-4.1845080314960628
0
LINE
8
BLACK
6
CONTINUOUS
10
5.7719125196850394
20
-4.1845080314960628
11
5.7831611417322835
21
-4.1845080314960628
0
LINE
8
BLACK
6
CONTINUOUS
10
5.7831611417322835
20
-4.1845080314960628
11
5.7906601968503937
21
-4.1882575590551179
0
LINE
8
BLACK
6
CONTINUOUS
10
5.7906601968503937
20
-4.1882575590551179
11
5.7944097244094488
21
-4.1957566535433068
0
LINE
8
BLACK
6
CONTINUOUS
10
5.7944097244094488
20
-4.1957566535433068
11
5.7944097244094488
21
-4.2370014960629918
0
LINE
8
BLACK
6
CONTINUOUS
10
5.7944097244094488
20
-4.1957566535433068
11
5.7981592519685039
21
-4.1882575590551179
0
LINE
8
BLACK
6
CONTINUOUS
10
5.7981592519685039
20
-4.1882575590551179
11
5.8056583070866141
21
-4.1845080314960628
0
LINE
8
BLACK
6
CONTINUOUS
10
5.8056583070866141
20
-4.1845080314960628
11
5.8169068897637795
21
-4.1845080314960628
0
LINE
8
BLACK
6
CONTINUOUS
10
5.8169068897637795
20
-4.1845080314960628
11
5.8244059842519684
21
-4.1882575590551179
0
LINE
8
BLACK
6
CONTINUOUS
10
5.8244059842519684
20
-4.1882575590551179
11
5.8281555118110235
21
-4.1957566535433068
0
LINE
8
BLACK
6
CONTINUOUS
10
5.8281555118110235
20
-4.1957566535433068
11
5.8281555118110235
21
-4.2370014960629918
0
LINE
8
BLACK
6
CONTINUOUS
10
5.9818862992125981
20
-4.1545118110236219
11
5.9143947637795273
21
-4.2557491338582674
0
LINE
8
BLACK
6
CONTINUOUS
10
6.0831236614173223
20
-4.158261338582677
11
6.0906227559055113
21
-4.158261338582677
0
LINE
8
BLACK
6
CONTINUOUS
10
6.0906227559055113
20
-4.158261338582677
11
6.0981218110236215
21
-4.1620108661417321
0
LINE
8
BLACK
6
CONTINUOUS
10
6.0981218110236215
20
-4.1620108661417321
11
6.1018713385826766
21
-4.1657603937007872
0
LINE
8
BLACK
6
CONTINUOUS
10
6.1018713385826766
20
-4.1657603937007872
11
6.1056208661417317
21
-4.1732594488188974
0
LINE
8
BLACK
6
CONTINUOUS
10
6.1056208661417317
20
-4.1732594488188974
11
6.1093703937007868
21
-4.1882575590551179
0
LINE
8
BLACK
6
CONTINUOUS
10
6.1093703937007868
20
-4.1882575590551179
11
6.1093703937007868
21
-4.2070052362204722
0
LINE
8
BLACK
6
CONTINUOUS
10
6.1093703937007868
20
-4.2070052362204722
11
6.1056208661417317
21
-4.2220033464566926
0
LINE
8
BLACK
6
CONTINUOUS
10
6.1056208661417317
20
-4.2220033464566926
11
6.1018713385826766
21
-4.2295024015748028
0
LINE
8
BLACK
6
CONTINUOUS
10
6.1018713385826766
20
-4.2295024015748028
11
6.0981218110236215
21
-4.2332519685039367
0
LINE
8
BLACK
6
CONTINUOUS
10
6.0981218110236215
20
-4.2332519685039367
11
6.0906227559055113
21
-4.2370014960629918
0
LINE
8
BLACK
6
CONTINUOUS
10
6.0906227559055113
20
-4.2370014960629918
11
6.0831236614173223
21
-4.2370014960629918
0
LINE
8
BLACK
6
CONTINUOUS
10
6.0831236614173223
20
-4.2370014960629918
11
6.0756246062992121
21
-4.2332519685039367
0
LINE
8
BLACK
6
CONTINUOUS
10
6.0756246062992121
20
-4.2332519685039367
11
6.071875078740157
21
-4.2295024015748028
0
LINE
8
BLACK
6
CONTINUOUS
10
6.071875078740157
20
-4.2295024015748028
11
6.0681255511811019
21
-4.2220033464566926
0
LINE
8
BLACK
6
CONTINUOUS
10
6.0681255511811019
20
-4.2220033464566926
11
6.0643760236220468
21
-4.2070052362204722
0
LINE
8
BLACK
6
CONTINUOUS
10
6.0643760236220468
20
-4.2070052362204722
11
6.0643760236220468
21
-4.1882575590551179
0
LINE
8
BLACK
6
CONTINUOUS
10
6.0643760236220468
20
-4.1882575590551179
11
6.0681255511811019
21
-4.1732594488188974
0
LINE
8
BLACK
6
CONTINUOUS
10
6.0681255511811019
20
-4.1732594488188974
11
6.071875078740157
21
-4.1657603937007872
0
LINE
8
BLACK
6
CONTINUOUS
10
6.071875078740157
20
-4.1657603937007872
11
6.0756246062992121
21
-4.1620108661417321
0
LINE
8
BLACK
6
CONTINUOUS
10
6.0756246062992121
20
-4.1620108661417321
11
6.0831236614173223
21
-4.158261338582677
0
LINE
8
BLACK
6
CONTINUOUS
10
6.1431161811023625
20
-4.2295024015748028
11
6.1468657086614176
21
-4.2332519685039367
0
LINE
8
BLACK
6
CONTINUOUS
10
6.1468657086614176
20
-4.2332519685039367
11
6.1431161811023625
21
-4.2370014960629918
0
LINE
8
BLACK
6
CONTINUOUS
10
6.1431161811023625
20
-4.2370014960629918
11
6.1393666535433074
21
-4.2332519685039367
0
LINE
8
BLACK
6
CONTINUOUS
10
6.1393666535433074
20
-4.2332519685039367
11
6.1431161811023625
21
-4.2295024015748028
0
LINE
8
BLACK
6
CONTINUOUS
10
6.1431161811023625
20
-4.2295024015748028
11
6.1431161811023625
21
-4.2370014960629918
0
LINE
8
BLACK
6
CONTINUOUS
10
6.1956096062992128
20
-4.158261338582677
11
6.2031087007874017
21
-4.158261338582677
0
LINE
8
BLACK
6
CONTINUOUS
10
6.2031087007874017
20
-4.158261338582677
11
6.210607755905512
21
-4.1620108661417321
0
LINE
8
BLACK
6
CONTINUOUS
10
6.210607755905512
20
-4.1620108661417321
11
6.2143572834645671
21
-4.1657603937007872
0
LINE
8
BLACK
6
CONTINUOUS
10
6.2143572834645671
20
-4.1657603937007872
11
6.2181068110236222
21
-4.1732594488188974
0
LINE
8
BLACK
6
CONTINUOUS
10
6.2181068110236222
20
-4.1732594488188974
11
6.2218563385826773
21
-4.1882575590551179
0
LINE
8
BLACK
6
CONTINUOUS
10
6.2218563385826773
20
-4.1882575590551179
11
6.2218563385826773
21
-4.2070052362204722
0
LINE
8
BLACK
6
CONTINUOUS
10
6.2218563385826773
20
-4.2070052362204722
11
6.2181068110236222
21
-4.2220033464566926
0
LINE
8
BLACK
6
CONTINUOUS
10
6.2181068110236222
20
-4.2220033464566926
11
6.2143572834645671
21
-4.2295024015748028
0
LINE
8
BLACK
6
CONTINUOUS
10
6.2143572834645671
20
-4.2295024015748028
11
6.210607755905512
21
-4.2332519685039367
0
LINE
8
BLACK
6
CONTINUOUS
10
6.210607755905512
20
-4.2332519685039367
11
6.2031087007874017
21
-4.2370014960629918
0
LINE
8
BLACK
6
CONTINUOUS
10
6.2031087007874017
20
-4.2370014960629918
11
6.1956096062992128
21
-4.2370014960629918
0
LINE
8
BLACK
6
CONTINUOUS
10
6.1956096062992128
20
-4.2370014960629918
11
6.1881105511811025
21
-4.2332519685039367
0
LINE
8
BLACK
6
CONTINUOUS
10
6.1881105511811025
20
-4.2332519685039367
11
6.1843610236220474
21
-4.2295024015748028
0
LINE
8
BLACK
6
CONTINUOUS
10
6.1843610236220474
20
-4.2295024015748028
11
6.1806114960629923
21
-4.2220033464566926
0
LINE
8
BLACK
6
CONTINUOUS
10
6.1806114960629923
20
-4.2220033464566926
11
6.1768619685039372
21
-4.2070052362204722
0
LINE
8
BLACK
6
CONTINUOUS
10
6.1768619685039372
20
-4.2070052362204722
11
6.1768619685039372
21
-4.1882575590551179
0
LINE
8
BLACK
6
CONTINUOUS
10
6.1768619685039372
20
-4.1882575590551179
11
6.1806114960629923
21
-4.1732594488188974
0
LINE
8
BLACK
6
CONTINUOUS
10
6.1806114960629923
20
-4.1732594488188974
11
6.1843610236220474
21
-4.1657603937007872
0
LINE
8
BLACK
6
CONTINUOUS
10
6.1843610236220474
20
-4.1657603937007872
11
6.1881105511811025
21
-4.1620108661417321
0
LINE
8
BLACK
6
CONTINUOUS
10
6.1881105511811025
20
-4.1620108661417321
11
6.1956096062992128
21
-4.158261338582677
0
LINE
8
BLACK
6
CONTINUOUS
10
6.2893479133858268
20
-4.158261338582677
11
6.2743497637795276
21
-4.158261338582677
0
LINE
8
BLACK
6
CONTINUOUS
10
6.2743497637795276
20
-4.158261338582677
11
6.2668507086614174
21
-4.1620108661417321
0
LINE
8
BLACK
6
CONTINUOUS
10
6.2668507086614174
20
-4.1620108661417321
11
6.2631011811023622
21
-4.1657603937007872
0
LINE
8
BLACK
6
CONTINUOUS
10
6.2631011811023622
20
-4.1657603937007872
11
6.255602125984252
21
-4.1770089763779525
0
LINE
8
BLACK
6
CONTINUOUS
10
6.255602125984252
20
-4.1770089763779525
11
6.2518525984251969
21
-4.192007086614173
0
LINE
8
BLACK
6
CONTINUOUS
10
6.2518525984251969
20
-4.192007086614173
11
6.2518525984251969
21
-4.2220033464566926
0
LINE
8
BLACK
6
CONTINUOUS
10
6.2518525984251969
20
-4.2220033464566926
11
6.255602125984252
21
-4.2295024015748028
0
LINE
8
BLACK
6
CONTINUOUS
10
6.255602125984252
20
-4.2295024015748028
11
6.2593516535433071
21
-4.2332519685039367
0
LINE
8
BLACK
6
CONTINUOUS
10
6.2593516535433071
20
-4.2332519685039367
11
6.2668507086614174
21
-4.2370014960629918
0
LINE
8
BLACK
6
CONTINUOUS
10
6.2668507086614174
20
-4.2370014960629918
11
6.2818488582677166
21
-4.2370014960629918
0
LINE
8
BLACK
6
CONTINUOUS
10
6.2818488582677166
20
-4.2370014960629918
11
6.2893479133858268
21
-4.2332519685039367
0
LINE
8
BLACK
6
CONTINUOUS
10
6.2893479133858268
20
-4.2332519685039367
11
6.2930974409448819
21
-4.2295024015748028
0
LINE
8
BLACK
6
CONTINUOUS
10
6.2930974409448819
20
-4.2295024015748028
11
6.296846968503937
21
-4.2220033464566926
0
LINE
8
BLACK
6
CONTINUOUS
10
6.296846968503937
20
-4.2220033464566926
11
6.296846968503937
21
-4.2032557086614171
0
LINE
8
BLACK
6
CONTINUOUS
10
6.296846968503937
20
-4.2032557086614171
11
6.2930974409448819
21
-4.1957566535433068
0
LINE
8
BLACK
6
CONTINUOUS
10
6.2930974409448819
20
-4.1957566535433068
11
6.2893479133858268
21
-4.192007086614173
0
LINE
8
BLACK
6
CONTINUOUS
10
6.2893479133858268
20
-4.192007086614173
11
6.2818488582677166
21
-4.1882575590551179
0
LINE
8
BLACK
6
CONTINUOUS
10
6.2818488582677166
20
-4.1882575590551179
11
6.2668507086614174
21
-4.1882575590551179
0
LINE
8
BLACK
6
CONTINUOUS
10
6.2668507086614174
20
-4.1882575590551179
11
6.2593516535433071
21
-4.192007086614173
0
LINE
8
BLACK
6
CONTINUOUS
10
6.2593516535433071
20
-4.192007086614173
11
6.255602125984252
21
-4.1957566535433068
0
LINE
8
BLACK
6
CONTINUOUS
10
6.255602125984252
20
-4.1957566535433068
11
6.2518525984251969
21
-4.2032557086614171
0
LINE
8
BLACK
6
CONTINUOUS
10
6.3230937007874015
20
-4.158261338582677
11
6.3718375984251967
21
-4.158261338582677
0
LINE
8
BLACK
6
CONTINUOUS
10
6.3718375984251967
20
-4.158261338582677
11
6.3455908661417322
21
-4.1882575590551179
0
LINE
8
BLACK
6
CONTINUOUS
10
6.3455908661417322
20
-4.1882575590551179
11
6.3568394881889763
21
-4.1882575590551179
0
LINE
8
BLACK
6
CONTINUOUS
10
6.3568394881889763
20
-4.1882575590551179
11
6.3643385433070865
21
-4.192007086614173
0
LINE
8
BLACK
6
CONTINUOUS
10
6.3643385433070865
20
-4.192007086614173
11
6.3680880708661416
21
-4.1957566535433068
0
LINE
8
BLACK
6
CONTINUOUS
10
6.3680880708661416
20
-4.1957566535433068
11
6.3718375984251967
21
-4.2032557086614171
0
LINE
8
BLACK
6
CONTINUOUS
10
6.3718375984251967
20
-4.2032557086614171
11
6.3718375984251967
21
-4.2220033464566926
0
LINE
8
BLACK
6
CONTINUOUS
10
6.3718375984251967
20
-4.2220033464566926
11
6.3680880708661416
21
-4.2295024015748028
0
LINE
8
BLACK
6
CONTINUOUS
10
6.3680880708661416
20
-4.2295024015748028
11
6.3643385433070865
21
-4.2332519685039367
0
LINE
8
BLACK
6
CONTINUOUS
10
6.3643385433070865
20
-4.2332519685039367
11
6.3568394881889763
21
-4.2370014960629918
0
LINE
8
BLACK
6
CONTINUOUS
10
6.3568394881889763
20
-4.2370014960629918
11
6.3343422834645668
21
-4.2370014960629918
0
LINE
8
BLACK
6
CONTINUOUS
10
6.3343422834645668
20
-4.2370014960629918
11
6.3268432283464566
21
-4.2332519685039367
0
LINE
8
BLACK
6
CONTINUOUS
10
6.3268432283464566
20
-4.2332519685039367
11
6.3230937007874015
21
-4.2295024015748028
0
LINE
8
BLACK
6
CONTINUOUS
10
6.4205814960629919
20
-4.158261338582677
11
6.4280805905511809
21
-4.158261338582677
0
LINE
8
BLACK
6
CONTINUOUS
10
6.4280805905511809
20
-4.158261338582677
11
6.4355796456692911
21
-4.1620108661417321
0
LINE
8
BLACK
6
CONTINUOUS
10
6.4355796456692911
20
-4.1620108661417321
11
6.4393291732283462
21
-4.1657603937007872
0
LINE
8
BLACK
6
CONTINUOUS
10
6.4393291732283462
20
-4.1657603937007872
11
6.4430787007874013
21
-4.1732594488188974
0
LINE
8
BLACK
6
CONTINUOUS
10
6.4430787007874013
20
-4.1732594488188974
11
6.4468282283464564
21
-4.1882575590551179
0
LINE
8
BLACK
6
CONTINUOUS
10
6.4468282283464564
20
-4.1882575590551179
11
6.4468282283464564
21
-4.2070052362204722
0
LINE
8
BLACK
6
CONTINUOUS
10
6.4468282283464564
20
-4.2070052362204722
11
6.4430787007874013
21
-4.2220033464566926
0
LINE
8
BLACK
6
CONTINUOUS
10
6.4430787007874013
20
-4.2220033464566926
11
6.4393291732283462
21
-4.2295024015748028
0
LINE
8
BLACK
6
CONTINUOUS
10
6.4393291732283462
20
-4.2295024015748028
11
6.4355796456692911
21
-4.2332519685039367
0
LINE
8
BLACK
6
CONTINUOUS
10
6.4355796456692911
20
-4.2332519685039367
11
6.4280805905511809
21
-4.2370014960629918
0
LINE
8
BLACK
6
CONTINUOUS
10
6.4280805905511809
20
-4.2370014960629918
11
6.4205814960629919
21
-4.2370014960629918
0
LINE
8
BLACK
6
CONTINUOUS
10
6.4205814960629919
20
-4.2370014960629918
11
6.4130824409448817
21
-4.2332519685039367
0
LINE
8
BLACK
6
CONTINUOUS
10
6.4130824409448817
20
-4.2332519685039367
11
6.4093329133858266
21
-4.2295024015748028
0
LINE
8
BLACK
6
CONTINUOUS
10
6.4093329133858266
20
-4.2295024015748028
11
6.4055833858267714
21
-4.2220033464566926
0
LINE
8
BLACK
6
CONTINUOUS
10
6.4055833858267714
20
-4.2220033464566926
11
6.4018338582677163
21
-4.2070052362204722
0
LINE
8
BLACK
6
CONTINUOUS
10
6.4018338582677163
20
-4.2070052362204722
11
6.4018338582677163
21
-4.1882575590551179
0
LINE
8
BLACK
6
CONTINUOUS
10
6.4018338582677163
20
-4.1882575590551179
11
6.4055833858267714
21
-4.1732594488188974
0
LINE
8
BLACK
6
CONTINUOUS
10
6.4055833858267714
20
-4.1732594488188974
11
6.4093329133858266
21
-4.1657603937007872
0
LINE
8
BLACK
6
CONTINUOUS
10
6.4093329133858266
20
-4.1657603937007872
11
6.4130824409448817
21
-4.1620108661417321
0
LINE
8
BLACK
6
CONTINUOUS
10
6.4130824409448817
20
-4.1620108661417321
11
6.4205814960629919
21
-4.158261338582677
0
LINE
8
BLACK
6
CONTINUOUS
10
6.476824488188976
20
-4.158261338582677
11
6.476824488188976
21
-4.1732594488188974
0
LINE
8
BLACK
6
CONTINUOUS
10
6.5068207480314957
20
-4.158261338582677
11
6.5068207480314957
21
-4.1732594488188974
0
LINE
8
BLACK
6
CONTINUOUS
10
6.6230562598425191
20
-4.2669977165354327
11
6.6193066929133852
21
-4.2632481889763776
0
LINE
8
BLACK
6
CONTINUOUS
10
6.6193066929133852
20
-4.2632481889763776
11
6.611807637795275
21
-4.2519996062992123
0
LINE
8
BLACK
6
CONTINUOUS
10
6.611807637795275
20
-4.2519996062992123
11
6.6080581102362199
21
-4.244500551181102
0
LINE
8
BLACK
6
CONTINUOUS
10
6.6080581102362199
20
-4.244500551181102
11
6.6043085826771648
21
-4.2332519685039367
0
LINE
8
BLACK
6
CONTINUOUS
10
6.6043085826771648
20
-4.2332519685039367
11
6.6005590551181097
21
-4.2145042913385824
0
LINE
8
BLACK
6
CONTINUOUS
10
6.6005590551181097
20
-4.2145042913385824
11
6.6005590551181097
21
-4.199506181102362
0
LINE
8
BLACK
6
CONTINUOUS
10
6.6005590551181097
20
-4.199506181102362
11
6.6043085826771648
21
-4.1807585039370077
0
LINE
8
BLACK
6
CONTINUOUS
10
6.6043085826771648
20
-4.1807585039370077
11
6.6080581102362199
21
-4.1695099212598423
0
LINE
8
BLACK
6
CONTINUOUS
10
6.6080581102362199
20
-4.1695099212598423
11
6.611807637795275
21
-4.1620108661417321
0
LINE
8
BLACK
6
CONTINUOUS
10
6.611807637795275
20
-4.1620108661417321
11
6.6193066929133852
21
-4.150762244094488
0
LINE
8
BLACK
6
CONTINUOUS
10
6.6193066929133852
20
-4.150762244094488
11
6.6230562598425191
21
-4.1470127165354329
0
LINE
8
BLACK
6
CONTINUOUS
10
6.6867982677165356
20
-4.1845080314960628
11
6.6867982677165356
21
-4.2370014960629918
0
LINE
8
BLACK
6
CONTINUOUS
10
6.6680505905511813
20
-4.1545118110236219
11
6.6493029527559058
21
-4.2107547637795273
0
LINE
8
BLACK
6
CONTINUOUS
10
6.6493029527559058
20
-4.2107547637795273
11
6.698046850393701
21
-4.2107547637795273
0
LINE
8
BLACK
6
CONTINUOUS
10
6.7880356299212599
20
-4.2370014960629918
11
6.7880356299212599
21
-4.158261338582677
0
LINE
8
BLACK
6
CONTINUOUS
10
6.8217814173228346
20
-4.2370014960629918
11
6.8217814173228346
21
-4.1957566535433068
0
LINE
8
BLACK
6
CONTINUOUS
10
6.8217814173228346
20
-4.1957566535433068
11
6.8180318897637795
21
-4.1882575590551179
0
LINE
8
BLACK
6
CONTINUOUS
10
6.8180318897637795
20
-4.1882575590551179
11
6.8105328346456693
21
-4.1845080314960628
0
LINE
8
BLACK
6
CONTINUOUS
10
6.8105328346456693
20
-4.1845080314960628
11
6.7992842125984252
21
-4.1845080314960628
0
LINE
8
BLACK
6
CONTINUOUS
10
6.7992842125984252
20
-4.1845080314960628
11
6.791785157480315
21
-4.1882575590551179
0
LINE
8
BLACK
6
CONTINUOUS
10
6.791785157480315
20
-4.1882575590551179
11
6.7880356299212599
21
-4.192007086614173
0
LINE
8
BLACK
6
CONTINUOUS
10
6.8705253149606298
20
-4.2370014960629918
11
6.8630262598425196
21
-4.2332519685039367
0
LINE
8
BLACK
6
CONTINUOUS
10
6.8630262598425196
20
-4.2332519685039367
11
6.8592767322834645
21
-4.2295024015748028
0
LINE
8
BLACK
6
CONTINUOUS
10
6.8592767322834645
20
-4.2295024015748028
11
6.8555272047244094
21
-4.2220033464566926
0
LINE
8
BLACK
6
CONTINUOUS
10
6.8555272047244094
20
-4.2220033464566926
11
6.8555272047244094
21
-4.199506181102362
0
LINE
8
BLACK
6
CONTINUOUS
10
6.8555272047244094
20
-4.199506181102362
11
6.8592767322834645
21
-4.192007086614173
0
LINE
8
BLACK
6
CONTINUOUS
10
6.8592767322834645
20
-4.192007086614173
11
6.8630262598425196
21
-4.1882575590551179
0
LINE
8
BLACK
6
CONTINUOUS
10
6.8630262598425196
20
-4.1882575590551179
11
6.8705253149606298
21
-4.1845080314960628
0
LINE
8
BLACK
6
CONTINUOUS
10
6.8705253149606298
20
-4.1845080314960628
11
6.8817739370078739
21
-4.1845080314960628
0
LINE
8
BLACK
6
CONTINUOUS
10
6.8817739370078739
20
-4.1845080314960628
11
6.8892729921259841
21
-4.1882575590551179
0
LINE
8
BLACK
6
CONTINUOUS
10
6.8892729921259841
20
-4.1882575590551179
11
6.8930225196850392
21
-4.192007086614173
0
LINE
8
BLACK
6
CONTINUOUS
10
6.8930225196850392
20
-4.192007086614173
11
6.8967720472440943
21
-4.199506181102362
0
LINE
8
BLACK
6
CONTINUOUS
10
6.8967720472440943
20
-4.199506181102362
11
6.8967720472440943
21
-4.2220033464566926
0
LINE
8
BLACK
6
CONTINUOUS
10
6.8967720472440943
20
-4.2220033464566926
11
6.8930225196850392
21
-4.2295024015748028
0
LINE
8
BLACK
6
CONTINUOUS
10
6.8930225196850392
20
-4.2295024015748028
11
6.8892729921259841
21
-4.2332519685039367
0
LINE
8
BLACK
6
CONTINUOUS
10
6.8892729921259841
20
-4.2332519685039367
11
6.8817739370078739
21
-4.2370014960629918
0
LINE
8
BLACK
6
CONTINUOUS
10
6.8817739370078739
20
-4.2370014960629918
11
6.8705253149606298
21
-4.2370014960629918
0
LINE
8
BLACK
6
CONTINUOUS
10
6.9417664173228344
20
-4.2370014960629918
11
6.9342673622047242
21
-4.2332519685039367
0
LINE
8
BLACK
6
CONTINUOUS
10
6.9342673622047242
20
-4.2332519685039367
11
6.9305178346456691
21
-4.2257528740157477
0
LINE
8
BLACK
6
CONTINUOUS
10
6.9305178346456691
20
-4.2257528740157477
11
6.9305178346456691
21
-4.158261338582677
0
LINE
8
BLACK
6
CONTINUOUS
10
7.0017589370078737
20
-4.2332519685039367
11
6.9942598818897634
21
-4.2370014960629918
0
LINE
8
BLACK
6
CONTINUOUS
10
6.9942598818897634
20
-4.2370014960629918
11
6.9792617322834642
21
-4.2370014960629918
0
LINE
8
BLACK
6
CONTINUOUS
10
6.9792617322834642
20
-4.2370014960629918
11
6.971762677165354
21
-4.2332519685039367
0
LINE
8
BLACK
6
CONTINUOUS
10
6.971762677165354
20
-4.2332519685039367
11
6.9680131496062989
21
-4.2257528740157477
0
LINE
8
BLACK
6
CONTINUOUS
10
6.9680131496062989
20
-4.2257528740157477
11
6.9680131496062989
21
-4.1957566535433068
0
LINE
8
BLACK
6
CONTINUOUS
10
6.9680131496062989
20
-4.1957566535433068
11
6.971762677165354
21
-4.1882575590551179
0
LINE
8
BLACK
6
CONTINUOUS
10
6.971762677165354
20
-4.1882575590551179
11
6.9792617322834642
21
-4.1845080314960628
0
LINE
8
BLACK
6
CONTINUOUS
10
6.9792617322834642
20
-4.1845080314960628
11
6.9942598818897634
21
-4.1845080314960628
0
LINE
8
BLACK
6
CONTINUOUS
10
6.9942598818897634
20
-4.1845080314960628
11
7.0017589370078737
21
-4.1882575590551179
0
LINE
8
BLACK
6
CONTINUOUS
10
7.0017589370078737
20
-4.1882575590551179
11
7.0055084645669288
21
-4.1957566535433068
0
LINE
8
BLACK
6
CONTINUOUS
10
7.0055084645669288
20
-4.1957566535433068
11
7.0055084645669288
21
-4.2032557086614171
0
LINE
8
BLACK
6
CONTINUOUS
10
7.0055084645669288
20
-4.2032557086614171
11
6.9680131496062989
21
-4.2107547637795273
0
LINE
8
BLACK
6
CONTINUOUS
10
7.0355047244094484
20
-4.2332519685039367
11
7.0430037795275586
21
-4.2370014960629918
0
LINE
8
BLACK
6
CONTINUOUS
10
7.0430037795275586
20
-4.2370014960629918
11
7.0580018897637791
21
-4.2370014960629918
0
LINE
8
BLACK
6
CONTINUOUS
10
7.0580018897637791
20
-4.2370014960629918
11
7.065500984251968
21
-4.2332519685039367
0
LINE
8
BLACK
6
CONTINUOUS
10
7.065500984251968
20
-4.2332519685039367
11
7.0692505118110232
21
-4.2257528740157477
0
LINE
8
BLACK
6
CONTINUOUS
10
7.0692505118110232
20
-4.2257528740157477
11
7.0692505118110232
21
-4.2220033464566926
0
LINE
8
BLACK
6
CONTINUOUS
10
7.0692505118110232
20
-4.2220033464566926
11
7.065500984251968
21
-4.2145042913385824
0
LINE
8
BLACK
6
CONTINUOUS
10
7.065500984251968
20
-4.2145042913385824
11
7.0580018897637791
21
-4.2107547637795273
0
LINE
8
BLACK
6
CONTINUOUS
10
7.0580018897637791
20
-4.2107547637795273
11
7.0467533070866137
21
-4.2107547637795273
0
LINE
8
BLACK
6
CONTINUOUS
10
7.0467533070866137
20
-4.2107547637795273
11
7.0392542519685035
21
-4.2070052362204722
0
LINE
8
BLACK
6
CONTINUOUS
10
7.0392542519685035
20
-4.2070052362204722
11
7.0355047244094484
21
-4.199506181102362
0
LINE
8
BLACK
6
CONTINUOUS
10
7.0355047244094484
20
-4.199506181102362
11
7.0355047244094484
21
-4.1957566535433068
0
LINE
8
BLACK
6
CONTINUOUS
10
7.0355047244094484
20
-4.1957566535433068
11
7.0392542519685035
21
-4.1882575590551179
0
LINE
8
BLACK
6
CONTINUOUS
10
7.0392542519685035
20
-4.1882575590551179
11
7.0467533070866137
21
-4.1845080314960628
0
LINE
8
BLACK
6
CONTINUOUS
10
7.0467533070866137
20
-4.1845080314960628
11
7.0580018897637791
21
-4.1845080314960628
0
LINE
8
BLACK
6
CONTINUOUS
10
7.0580018897637791
20
-4.1845080314960628
11
7.065500984251968
21
-4.1882575590551179
0
LINE
8
BLACK
6
CONTINUOUS
10
7.0954972440944877
20
-4.2669977165354327
11
7.0992467716535428
21
-4.2632481889763776
0
LINE
8
BLACK
6
CONTINUOUS
10
7.0992467716535428
20
-4.2632481889763776
11
7.106745826771653
21
-4.2519996062992123
0
LINE
8
BLACK
6
CONTINUOUS
10
7.106745826771653
20
-4.2519996062992123
11
7.1104953543307081
21
-4.244500551181102
0
LINE
8
BLACK
6
CONTINUOUS
10
7.1104953543307081
20
-4.244500551181102
11
7.1142448818897632
21
-4.2332519685039367
0
LINE
8
BLACK
6
CONTINUOUS
10
7.1142448818897632
20
-4.2332519685039367
11
7.1179944094488183
21
-4.2145042913385824
0
LINE
8
BLACK
6
CONTINUOUS
10
7.1179944094488183
20
-4.2145042913385824
11
7.1179944094488183
21
-4.199506181102362
0
LINE
8
BLACK
6
CONTINUOUS
10
7.1179944094488183
20
-4.199506181102362
11
7.1142448818897632
21
-4.1807585039370077
0
LINE
8
BLACK
6
CONTINUOUS
10
7.1142448818897632
20
-4.1807585039370077
11
7.1104953543307081
21
-4.1695099212598423
0
LINE
8
BLACK
6
CONTINUOUS
10
7.1104953543307081
20
-4.1695099212598423
11
7.106745826771653
21
-4.1620108661417321
0
LINE
8
BLACK
6
CONTINUOUS
10
7.106745826771653
20
-4.1620108661417321
11
7.0992467716535428
21
-4.150762244094488
0
LINE
8
BLACK
6
CONTINUOUS
10
7.0992467716535428
20
-4.150762244094488
11
7.0954972440944877
21
-4.1470127165354329
0
LINE
8
BLACK
6
CONTINUOUS
10
5.2040202362204724
20
-4.3390596062992124
11
5.2040202362204724
21
-4.2833813385826769
0
LINE
8
BLACK
6
CONTINUOUS
10
5.2040202362204724
20
-4.2833813385826769
11
5.1483419685039369
21
-4.2833813385826769
0
LINE
8
BLACK
6
CONTINUOUS
10
5.1483419685039369
20
-4.2833813385826769
11
5.1483419685039369
21
-4.3390596062992124
0
LINE
8
BLACK
6
CONTINUOUS
10
5.1483419685039369
20
-4.3390596062992124
11
5.2040202362204724
21
-4.3390596062992124
0
LINE
8
BLACK
6
CONTINUOUS
10
5.3107201574803149
20
-4.2684975590551177
11
5.3594640551181101
21
-4.2684975590551177
0
LINE
8
BLACK
6
CONTINUOUS
10
5.3594640551181101
20
-4.2684975590551177
11
5.3332173228346456
21
-4.2984937795275586
0
LINE
8
BLACK
6
CONTINUOUS
10
5.3332173228346456
20
-4.2984937795275586
11
5.3444659448818896
21
-4.2984937795275586
0
LINE
8
BLACK
6
CONTINUOUS
10
5.3444659448818896
20
-4.2984937795275586
11
5.3519649999999999
21
-4.3022433070866137
0
LINE
8
BLACK
6
CONTINUOUS
10
5.3519649999999999
20
-4.3022433070866137
11
5.355714527559055
21
-4.3059928740157476
0
LINE
8
BLACK
6
CONTINUOUS
10
5.355714527559055
20
-4.3059928740157476
11
5.3594640551181101
21
-4.3134919291338578
0
LINE
8
BLACK
6
CONTINUOUS
10
5.3594640551181101
20
-4.3134919291338578
11
5.3594640551181101
21
-4.3322395669291334
0
LINE
8
BLACK
6
CONTINUOUS
10
5.3594640551181101
20
-4.3322395669291334
11
5.355714527559055
21
-4.3397386220472436
0
LINE
8
BLACK
6
CONTINUOUS
10
5.355714527559055
20
-4.3397386220472436
11
5.3519649999999999
21
-4.3434881889763775
0
LINE
8
BLACK
6
CONTINUOUS
10
5.3519649999999999
20
-4.3434881889763775
11
5.3444659448818896
21
-4.3472377165354326
0
LINE
8
BLACK
6
CONTINUOUS
10
5.3444659448818896
20
-4.3472377165354326
11
5.3219687401574802
21
-4.3472377165354326
0
LINE
8
BLACK
6
CONTINUOUS
10
5.3219687401574802
20
-4.3472377165354326
11
5.31446968503937
21
-4.3434881889763775
0
LINE
8
BLACK
6
CONTINUOUS
10
5.31446968503937
20
-4.3434881889763775
11
5.3107201574803149
21
-4.3397386220472436
0
LINE
8
BLACK
6
CONTINUOUS
10
5.3932098425196848
20
-4.3397386220472436
11
5.3969593700787399
21
-4.3434881889763775
0
LINE
8
BLACK
6
CONTINUOUS
10
5.3969593700787399
20
-4.3434881889763775
11
5.3932098425196848
21
-4.3472377165354326
0
LINE
8
BLACK
6
CONTINUOUS
10
5.3932098425196848
20
-4.3472377165354326
11
5.3894603149606297
21
-4.3434881889763775
0
LINE
8
BLACK
6
CONTINUOUS
10
5.3894603149606297
20
-4.3434881889763775
11
5.3932098425196848
21
-4.3397386220472436
0
LINE
8
BLACK
6
CONTINUOUS
10
5.3932098425196848
20
-4.3397386220472436
11
5.3932098425196848
21
-4.3472377165354326
0
LINE
8
BLACK
6
CONTINUOUS
10
5.4682004724409445
20
-4.2684975590551177
11
5.4307051574803147
21
-4.2684975590551177
0
LINE
8
BLACK
6
CONTINUOUS
10
5.4307051574803147
20
-4.2684975590551177
11
5.4269556299212596
21
-4.3059928740157476
0
LINE
8
BLACK
6
CONTINUOUS
10
5.4269556299212596
20
-4.3059928740157476
11
5.4307051574803147
21
-4.3022433070866137
0
LINE
8
BLACK
6
CONTINUOUS
10
5.4307051574803147
20
-4.3022433070866137
11
5.4382042125984249
21
-4.2984937795275586
0
LINE
8
BLACK
6
CONTINUOUS
10
5.4382042125984249
20
-4.2984937795275586
11
5.4569518897637792
21
-4.2984937795275586
0
LINE
8
BLACK
6
CONTINUOUS
10
5.4569518897637792
20
-4.2984937795275586
11
5.4644509448818894
21
-4.3022433070866137
0
LINE
8
BLACK
6
CONTINUOUS
10
5.4644509448818894
20
-4.3022433070866137
11
5.4682004724409445
21
-4.3059928740157476
0
LINE
8
BLACK
6
CONTINUOUS
10
5.4682004724409445
20
-4.3059928740157476
11
5.4719499999999996
21
-4.3134919291338578
0
LINE
8
BLACK
6
CONTINUOUS
10
5.4719499999999996
20
-4.3134919291338578
11
5.4719499999999996
21
-4.3322395669291334
0
LINE
8
BLACK
6
CONTINUOUS
10
5.4719499999999996
20
-4.3322395669291334
11
5.4682004724409445
21
-4.3397386220472436
0
LINE
8
BLACK
6
CONTINUOUS
10
5.4682004724409445
20
-4.3397386220472436
11
5.4644509448818894
21
-4.3434881889763775
0
LINE
8
BLACK
6
CONTINUOUS
10
5.4644509448818894
20
-4.3434881889763775
11
5.4569518897637792
21
-4.3472377165354326
0
LINE
8
BLACK
6
CONTINUOUS
10
5.4569518897637792
20
-4.3472377165354326
11
5.4382042125984249
21
-4.3472377165354326
0
LINE
8
BLACK
6
CONTINUOUS
10
5.4382042125984249
20
-4.3472377165354326
11
5.4307051574803147
21
-4.3434881889763775
0
LINE
8
BLACK
6
CONTINUOUS
10
5.4307051574803147
20
-4.3434881889763775
11
5.4269556299212596
21
-4.3397386220472436
0
LINE
8
BLACK
6
CONTINUOUS
10
5.5206938976377948
20
-4.2684975590551177
11
5.5281929921259838
21
-4.2684975590551177
0
LINE
8
BLACK
6
CONTINUOUS
10
5.5281929921259838
20
-4.2684975590551177
11
5.535692047244094
21
-4.2722470866141729
0
LINE
8
BLACK
6
CONTINUOUS
10
5.535692047244094
20
-4.2722470866141729
11
5.5394415748031491
21
-4.275996614173228
0
LINE
8
BLACK
6
CONTINUOUS
10
5.5394415748031491
20
-4.275996614173228
11
5.5431911023622042
21
-4.2834956692913382
0
LINE
8
BLACK
6
CONTINUOUS
10
5.5431911023622042
20
-4.2834956692913382
11
5.5469406299212594
21
-4.2984937795275586
0
LINE
8
BLACK
6
CONTINUOUS
10
5.5469406299212594
20
-4.2984937795275586
11
5.5469406299212594
21
-4.3172414566929129
0
LINE
8
BLACK
6
CONTINUOUS
10
5.5469406299212594
20
-4.3172414566929129
11
5.5431911023622042
21
-4.3322395669291334
0
LINE
8
BLACK
6
CONTINUOUS
10
5.5431911023622042
20
-4.3322395669291334
11
5.5394415748031491
21
-4.3397386220472436
0
LINE
8
BLACK
6
CONTINUOUS
10
5.5394415748031491
20
-4.3397386220472436
11
5.535692047244094
21
-4.3434881889763775
0
LINE
8
BLACK
6
CONTINUOUS
10
5.535692047244094
20
-4.3434881889763775
11
5.5281929921259838
21
-4.3472377165354326
0
LINE
8
BLACK
6
CONTINUOUS
10
5.5281929921259838
20
-4.3472377165354326
11
5.5206938976377948
21
-4.3472377165354326
0
LINE
8
BLACK
6
CONTINUOUS
10
5.5206938976377948
20
-4.3472377165354326
11
5.5131948425196846
21
-4.3434881889763775
0
LINE
8
BLACK
6
CONTINUOUS
10
5.5131948425196846
20
-4.3434881889763775
11
5.5094453149606295
21
-4.3397386220472436
0
LINE
8
BLACK
6
CONTINUOUS
10
5.5094453149606295
20
-4.3397386220472436
11
5.5056957874015744
21
-4.3322395669291334
0
LINE
8
BLACK
6
CONTINUOUS
10
5.5056957874015744
20
-4.3322395669291334
11
5.5019462598425193
21
-4.3172414566929129
0
LINE
8
BLACK
6
CONTINUOUS
10
5.5019462598425193
20
-4.3172414566929129
11
5.5019462598425193
21
-4.2984937795275586
0
LINE
8
BLACK
6
CONTINUOUS
10
5.5019462598425193
20
-4.2984937795275586
11
5.5056957874015744
21
-4.2834956692913382
0
LINE
8
BLACK
6
CONTINUOUS
10
5.5056957874015744
20
-4.2834956692913382
11
5.5094453149606295
21
-4.275996614173228
0
LINE
8
BLACK
6
CONTINUOUS
10
5.5094453149606295
20
-4.275996614173228
11
5.5131948425196846
21
-4.2722470866141729
0
LINE
8
BLACK
6
CONTINUOUS
10
5.5131948425196846
20
-4.2722470866141729
11
5.5206938976377948
21
-4.2684975590551177
0
LINE
8
BLACK
6
CONTINUOUS
10
5.5956845275590554
20
-4.2684975590551177
11
5.6031836220472444
21
-4.2684975590551177
0
LINE
8
BLACK
6
CONTINUOUS
10
5.6031836220472444
20
-4.2684975590551177
11
5.6106826771653546
21
-4.2722470866141729
0
LINE
8
BLACK
6
CONTINUOUS
10
5.6106826771653546
20
-4.2722470866141729
11
5.6144322047244097
21
-4.275996614173228
0
LINE
8
BLACK
6
CONTINUOUS
10
5.6144322047244097
20
-4.275996614173228
11
5.6181817322834648
21
-4.2834956692913382
0
LINE
8
BLACK
6
CONTINUOUS
10
5.6181817322834648
20
-4.2834956692913382
11
5.62193125984252
21
-4.2984937795275586
0
LINE
8
BLACK
6
CONTINUOUS
10
5.62193125984252
20
-4.2984937795275586
11
5.62193125984252
21
-4.3172414566929129
0
LINE
8
BLACK
6
CONTINUOUS
10
5.62193125984252
20
-4.3172414566929129
11
5.6181817322834648
21
-4.3322395669291334
0
LINE
8
BLACK
6
CONTINUOUS
10
5.6181817322834648
20
-4.3322395669291334
11
5.6144322047244097
21
-4.3397386220472436
0
LINE
8
BLACK
6
CONTINUOUS
10
5.6144322047244097
20
-4.3397386220472436
11
5.6106826771653546
21
-4.3434881889763775
0
LINE
8
BLACK
6
CONTINUOUS
10
5.6106826771653546
20
-4.3434881889763775
11
5.6031836220472444
21
-4.3472377165354326
0
LINE
8
BLACK
6
CONTINUOUS
10
5.6031836220472444
20
-4.3472377165354326
11
5.5956845275590554
21
-4.3472377165354326
0
LINE
8
BLACK
6
CONTINUOUS
10
5.5956845275590554
20
-4.3472377165354326
11
5.5881854724409443
21
-4.3434881889763775
0
LINE
8
BLACK
6
CONTINUOUS
10
5.5881854724409443
20
-4.3434881889763775
11
5.5844359448818892
21
-4.3397386220472436
0
LINE
8
BLACK
6
CONTINUOUS
10
5.5844359448818892
20
-4.3397386220472436
11
5.5806864173228341
21
-4.3322395669291334
0
LINE
8
BLACK
6
CONTINUOUS
10
5.5806864173228341
20
-4.3322395669291334
11
5.576936889763779
21
-4.3172414566929129
0
LINE
8
BLACK
6
CONTINUOUS
10
5.576936889763779
20
-4.3172414566929129
11
5.576936889763779
21
-4.2984937795275586
0
LINE
8
BLACK
6
CONTINUOUS
10
5.576936889763779
20
-4.2984937795275586
11
5.5806864173228341
21
-4.2834956692913382
0
LINE
8
BLACK
6
CONTINUOUS
10
5.5806864173228341
20
-4.2834956692913382
11
5.5844359448818892
21
-4.275996614173228
0
LINE
8
BLACK
6
CONTINUOUS
10
5.5844359448818892
20
-4.275996614173228
11
5.5881854724409443
21
-4.2722470866141729
0
LINE
8
BLACK
6
CONTINUOUS
10
5.5881854724409443
20
-4.2722470866141729
11
5.5956845275590554
21
-4.2684975590551177
0
LINE
8
BLACK
6
CONTINUOUS
10
5.6556770472440947
20
-4.3472377165354326
11
5.6556770472440947
21
-4.2947442519685035
0
LINE
8
BLACK
6
CONTINUOUS
10
5.6556770472440947
20
-4.3022433070866137
11
5.6594265748031498
21
-4.2984937795275586
0
LINE
8
BLACK
6
CONTINUOUS
10
5.6594265748031498
20
-4.2984937795275586
11
5.66692562992126
21
-4.2947442519685035
0
LINE
8
BLACK
6
CONTINUOUS
10
5.66692562992126
20
-4.2947442519685035
11
5.6781742519685041
21
-4.2947442519685035
0
LINE
8
BLACK
6
CONTINUOUS
10
5.6781742519685041
20
-4.2947442519685035
11
5.6856733070866143
21
-4.2984937795275586
0
LINE
8
BLACK
6
CONTINUOUS
10
5.6856733070866143
20
-4.2984937795275586
11
5.6894228346456694
21
-4.3059928740157476
0
LINE
8
BLACK
6
CONTINUOUS
10
5.6894228346456694
20
-4.3059928740157476
11
5.6894228346456694
21
-4.3472377165354326
0
LINE
8
BLACK
6
CONTINUOUS
10
5.6894228346456694
20
-4.3059928740157476
11
5.6931723622047246
21
-4.2984937795275586
0
LINE
8
BLACK
6
CONTINUOUS
10
5.6931723622047246
20
-4.2984937795275586
11
5.7006714173228348
21
-4.2947442519685035
0
LINE
8
BLACK
6
CONTINUOUS
10
5.7006714173228348
20
-4.2947442519685035
11
5.7119200000000001
21
-4.2947442519685035
0
LINE
8
BLACK
6
CONTINUOUS
10
5.7119200000000001
20
-4.2947442519685035
11
5.7194190944881891
21
-4.2984937795275586
0
LINE
8
BLACK
6
CONTINUOUS
10
5.7194190944881891
20
-4.2984937795275586
11
5.7231686220472442
21
-4.3059928740157476
0
LINE
8
BLACK
6
CONTINUOUS
10
5.7231686220472442
20
-4.3059928740157476
11
5.7231686220472442
21
-4.3472377165354326
0
LINE
8
BLACK
6
CONTINUOUS
10
5.760663937007874
20
-4.3472377165354326
11
5.760663937007874
21
-4.2947442519685035
0
LINE
8
BLACK
6
CONTINUOUS
10
5.760663937007874
20
-4.3022433070866137
11
5.7644134645669292
21
-4.2984937795275586
0
LINE
8
BLACK
6
CONTINUOUS
10
5.7644134645669292
20
-4.2984937795275586
11
5.7719125196850394
21
-4.2947442519685035
0
LINE
8
BLACK
6
CONTINUOUS
10
5.7719125196850394
20
-4.2947442519685035
11
5.7831611417322835
21
-4.2947442519685035
0
LINE
8
BLACK
6
CONTINUOUS
10
5.7831611417322835
20
-4.2947442519685035
11
5.7906601968503937
21
-4.2984937795275586
0
LINE
8
BLACK
6
CONTINUOUS
10
5.7906601968503937
20
-4.2984937795275586
11
5.7944097244094488
21
-4.3059928740157476
0
LINE
8
BLACK
6
CONTINUOUS
10
5.7944097244094488
20
-4.3059928740157476
11
5.7944097244094488
21
-4.3472377165354326
0
LINE
8
BLACK
6
CONTINUOUS
10
5.7944097244094488
20
-4.3059928740157476
11
5.7981592519685039
21
-4.2984937795275586
0
LINE
8
BLACK
6
CONTINUOUS
10
5.7981592519685039
20
-4.2984937795275586
11
5.8056583070866141
21
-4.2947442519685035
0
LINE
8
BLACK
6
CONTINUOUS
10
5.8056583070866141
20
-4.2947442519685035
11
5.8169068897637795
21
-4.2947442519685035
0
LINE
8
BLACK
6
CONTINUOUS
10
5.8169068897637795
20
-4.2947442519685035
11
5.8244059842519684
21
-4.2984937795275586
0
LINE
8
BLACK
6
CONTINUOUS
10
5.8244059842519684
20
-4.2984937795275586
11
5.8281555118110235
21
-4.3059928740157476
0
LINE
8
BLACK
6
CONTINUOUS
10
5.8281555118110235
20
-4.3059928740157476
11
5.8281555118110235
21
-4.3472377165354326
0
LINE
8
BLACK
6
CONTINUOUS
10
5.9818862992125981
20
-4.2647480314960626
11
5.9143947637795273
21
-4.365985354330709
0
LINE
8
BLACK
6
CONTINUOUS
10
6.0831236614173223
20
-4.2684975590551177
11
6.0906227559055113
21
-4.2684975590551177
0
LINE
8
BLACK
6
CONTINUOUS
10
6.0906227559055113
20
-4.2684975590551177
11
6.0981218110236215
21
-4.2722470866141729
0
LINE
8
BLACK
6
CONTINUOUS
10
6.0981218110236215
20
-4.2722470866141729
11
6.1018713385826766
21
-4.275996614173228
0
LINE
8
BLACK
6
CONTINUOUS
10
6.1018713385826766
20
-4.275996614173228
11
6.1056208661417317
21
-4.2834956692913382
0
LINE
8
BLACK
6
CONTINUOUS
10
6.1056208661417317
20
-4.2834956692913382
11
6.1093703937007868
21
-4.2984937795275586
0
LINE
8
BLACK
6
CONTINUOUS
10
6.1093703937007868
20
-4.2984937795275586
11
6.1093703937007868
21
-4.3172414566929129
0
LINE
8
BLACK
6
CONTINUOUS
10
6.1093703937007868
20
-4.3172414566929129
11
6.1056208661417317
21
-4.3322395669291334
0
LINE
8
BLACK
6
CONTINUOUS
10
6.1056208661417317
20
-4.3322395669291334
11
6.1018713385826766
21
-4.3397386220472436
0
LINE
8
BLACK
6
CONTINUOUS
10
6.1018713385826766
20
-4.3397386220472436
11
6.0981218110236215
21
-4.3434881889763775
0
LINE
8
BLACK
6
CONTINUOUS
10
6.0981218110236215
20
-4.3434881889763775
11
6.0906227559055113
21
-4.3472377165354326
0
LINE
8
BLACK
6
CONTINUOUS
10
6.0906227559055113
20
-4.3472377165354326
11
6.0831236614173223
21
-4.3472377165354326
0
LINE
8
BLACK
6
CONTINUOUS
10
6.0831236614173223
20
-4.3472377165354326
11
6.0756246062992121
21
-4.3434881889763775
0
LINE
8
BLACK
6
CONTINUOUS
10
6.0756246062992121
20
-4.3434881889763775
11
6.071875078740157
21
-4.3397386220472436
0
LINE
8
BLACK
6
CONTINUOUS
10
6.071875078740157
20
-4.3397386220472436
11
6.0681255511811019
21
-4.3322395669291334
0
LINE
8
BLACK
6
CONTINUOUS
10
6.0681255511811019
20
-4.3322395669291334
11
6.0643760236220468
21
-4.3172414566929129
0
LINE
8
BLACK
6
CONTINUOUS
10
6.0643760236220468
20
-4.3172414566929129
11
6.0643760236220468
21
-4.2984937795275586
0
LINE
8
BLACK
6
CONTINUOUS
10
6.0643760236220468
20
-4.2984937795275586
11
6.0681255511811019
21
-4.2834956692913382
0
LINE
8
BLACK
6
CONTINUOUS
10
6.0681255511811019
20
-4.2834956692913382
11
6.071875078740157
21
-4.275996614173228
0
LINE
8
BLACK
6
CONTINUOUS
10
6.071875078740157
20
-4.275996614173228
11
6.0756246062992121
21
-4.2722470866141729
0
LINE
8
BLACK
6
CONTINUOUS
10
6.0756246062992121
20
-4.2722470866141729
11
6.0831236614173223
21
-4.2684975590551177
0
LINE
8
BLACK
6
CONTINUOUS
10
6.1431161811023625
20
-4.3397386220472436
11
6.1468657086614176
21
-4.3434881889763775
0
LINE
8
BLACK
6
CONTINUOUS
10
6.1468657086614176
20
-4.3434881889763775
11
6.1431161811023625
21
-4.3472377165354326
0
LINE
8
BLACK
6
CONTINUOUS
10
6.1431161811023625
20
-4.3472377165354326
11
6.1393666535433074
21
-4.3434881889763775
0
LINE
8
BLACK
6
CONTINUOUS
10
6.1393666535433074
20
-4.3434881889763775
11
6.1431161811023625
21
-4.3397386220472436
0
LINE
8
BLACK
6
CONTINUOUS
10
6.1431161811023625
20
-4.3397386220472436
11
6.1431161811023625
21
-4.3472377165354326
0
LINE
8
BLACK
6
CONTINUOUS
10
6.2218563385826773
20
-4.3472377165354326
11
6.1768619685039372
21
-4.3472377165354326
0
LINE
8
BLACK
6
CONTINUOUS
10
6.1993591338582679
20
-4.3472377165354326
11
6.1993591338582679
21
-4.2684975590551177
0
LINE
8
BLACK
6
CONTINUOUS
10
6.1993591338582679
20
-4.2684975590551177
11
6.1918600787401576
21
-4.2797461417322831
0
LINE
8
BLACK
6
CONTINUOUS
10
6.1918600787401576
20
-4.2797461417322831
11
6.1843610236220474
21
-4.2872451968503933
0
LINE
8
BLACK
6
CONTINUOUS
10
6.1843610236220474
20
-4.2872451968503933
11
6.1768619685039372
21
-4.2909947244094484
0
LINE
8
BLACK
6
CONTINUOUS
10
6.2481030708661418
20
-4.2684975590551177
11
6.296846968503937
21
-4.2684975590551177
0
LINE
8
BLACK
6
CONTINUOUS
10
6.296846968503937
20
-4.2684975590551177
11
6.2706002362204725
21
-4.2984937795275586
0
LINE
8
BLACK
6
CONTINUOUS
10
6.2706002362204725
20
-4.2984937795275586
11
6.2818488582677166
21
-4.2984937795275586
0
LINE
8
BLACK
6
CONTINUOUS
10
6.2818488582677166
20
-4.2984937795275586
11
6.2893479133858268
21
-4.3022433070866137
0
LINE
8
BLACK
6
CONTINUOUS
10
6.2893479133858268
20
-4.3022433070866137
11
6.2930974409448819
21
-4.3059928740157476
0
LINE
8
BLACK
6
CONTINUOUS
10
6.2930974409448819
20
-4.3059928740157476
11
6.296846968503937
21
-4.3134919291338578
0
LINE
8
BLACK
6
CONTINUOUS
10
6.296846968503937
20
-4.3134919291338578
11
6.296846968503937
21
-4.3322395669291334
0
LINE
8
BLACK
6
CONTINUOUS
10
6.296846968503937
20
-4.3322395669291334
11
6.2930974409448819
21
-4.3397386220472436
0
LINE
8
BLACK
6
CONTINUOUS
10
6.2930974409448819
20
-4.3397386220472436
11
6.2893479133858268
21
-4.3434881889763775
0
LINE
8
BLACK
6
CONTINUOUS
10
6.2893479133858268
20
-4.3434881889763775
11
6.2818488582677166
21
-4.3472377165354326
0
LINE
8
BLACK
6
CONTINUOUS
10
6.2818488582677166
20
-4.3472377165354326
11
6.2593516535433071
21
-4.3472377165354326
0
LINE
8
BLACK
6
CONTINUOUS
10
6.2593516535433071
20
-4.3472377165354326
11
6.2518525984251969
21
-4.3434881889763775
0
LINE
8
BLACK
6
CONTINUOUS
10
6.2518525984251969
20
-4.3434881889763775
11
6.2481030708661418
21
-4.3397386220472436
0
LINE
8
BLACK
6
CONTINUOUS
10
6.3230937007874015
20
-4.2684975590551177
11
6.3755871259842518
21
-4.2684975590551177
0
LINE
8
BLACK
6
CONTINUOUS
10
6.3755871259842518
20
-4.2684975590551177
11
6.3418413385826771
21
-4.3472377165354326
0
LINE
8
BLACK
6
CONTINUOUS
10
6.4168319685039368
20
-4.3022433070866137
11
6.4093329133858266
21
-4.2984937795275586
0
LINE
8
BLACK
6
CONTINUOUS
10
6.4093329133858266
20
-4.2984937795275586
11
6.4055833858267714
21
-4.2947442519685035
0
LINE
8
BLACK
6
CONTINUOUS
10
6.4055833858267714
20
-4.2947442519685035
11
6.4018338582677163
21
-4.2872451968503933
0
LINE
8
BLACK
6
CONTINUOUS
10
6.4018338582677163
20
-4.2872451968503933
11
6.4018338582677163
21
-4.2834956692913382
0
LINE
8
BLACK
6
CONTINUOUS
10
6.4018338582677163
20
-4.2834956692913382
11
6.4055833858267714
21
-4.275996614173228
0
LINE
8
BLACK
6
CONTINUOUS
10
6.4055833858267714
20
-4.275996614173228
11
6.4093329133858266
21
-4.2722470866141729
0
LINE
8
BLACK
6
CONTINUOUS
10
6.4093329133858266
20
-4.2722470866141729
11
6.4168319685039368
21
-4.2684975590551177
0
LINE
8
BLACK
6
CONTINUOUS
10
6.4168319685039368
20
-4.2684975590551177
11
6.431830118110236
21
-4.2684975590551177
0
LINE
8
BLACK
6
CONTINUOUS
10
6.431830118110236
20
-4.2684975590551177
11
6.4393291732283462
21
-4.2722470866141729
0
LINE
8
BLACK
6
CONTINUOUS
10
6.4393291732283462
20
-4.2722470866141729
11
6.4430787007874013
21
-4.275996614173228
0
LINE
8
BLACK
6
CONTINUOUS
10
6.4430787007874013
20
-4.275996614173228
11
6.4468282283464564
21
-4.2834956692913382
0
LINE
8
BLACK
6
CONTINUOUS
10
6.4468282283464564
20
-4.2834956692913382
11
6.4468282283464564
21
-4.2872451968503933
0
LINE
8
BLACK
6
CONTINUOUS
10
6.4468282283464564
20
-4.2872451968503933
11
6.4430787007874013
21
-4.2947442519685035
0
LINE
8
BLACK
6
CONTINUOUS
10
6.4430787007874013
20
-4.2947442519685035
11
6.4393291732283462
21
-4.2984937795275586
0
LINE
8
BLACK
6
CONTINUOUS
10
6.4393291732283462
20
-4.2984937795275586
11
6.431830118110236
21
-4.3022433070866137
0
LINE
8
BLACK
6
CONTINUOUS
10
6.431830118110236
20
-4.3022433070866137
11
6.4168319685039368
21
-4.3022433070866137
0
LINE
8
BLACK
6
CONTINUOUS
10
6.4168319685039368
20
-4.3022433070866137
11
6.4093329133858266
21
-4.3059928740157476
0
LINE
8
BLACK
6
CONTINUOUS
10
6.4093329133858266
20
-4.3059928740157476
11
6.4055833858267714
21
-4.3097424015748027
0
LINE
8
BLACK
6
CONTINUOUS
10
6.4055833858267714
20
-4.3097424015748027
11
6.4018338582677163
21
-4.3172414566929129
0
LINE
8
BLACK
6
CONTINUOUS
10
6.4018338582677163
20
-4.3172414566929129
11
6.4018338582677163
21
-4.3322395669291334
0
LINE
8
BLACK
6
CONTINUOUS
10
6.4018338582677163
20
-4.3322395669291334
11
6.4055833858267714
21
-4.3397386220472436
0
LINE
8
BLACK
6
CONTINUOUS
10
6.4055833858267714
20
-4.3397386220472436
11
6.4093329133858266
21
-4.3434881889763775
0
LINE
8
BLACK
6
CONTINUOUS
10
6.4093329133858266
20
-4.3434881889763775
11
6.4168319685039368
21
-4.3472377165354326
0
LINE
8
BLACK
6
CONTINUOUS
10
6.4168319685039368
20
-4.3472377165354326
11
6.431830118110236
21
-4.3472377165354326
0
LINE
8
BLACK
6
CONTINUOUS
10
6.431830118110236
20
-4.3472377165354326
11
6.4393291732283462
21
-4.3434881889763775
0
LINE
8
BLACK
6
CONTINUOUS
10
6.4393291732283462
20
-4.3434881889763775
11
6.4430787007874013
21
-4.3397386220472436
0
LINE
8
BLACK
6
CONTINUOUS
10
6.4430787007874013
20
-4.3397386220472436
11
6.4468282283464564
21
-4.3322395669291334
0
LINE
8
BLACK
6
CONTINUOUS
10
6.4468282283464564
20
-4.3322395669291334
11
6.4468282283464564
21
-4.3172414566929129
0
LINE
8
BLACK
6
CONTINUOUS
10
6.4468282283464564
20
-4.3172414566929129
11
6.4430787007874013
21
-4.3097424015748027
0
LINE
8
BLACK
6
CONTINUOUS
10
6.4430787007874013
20
-4.3097424015748027
11
6.4393291732283462
21
-4.3059928740157476
0
LINE
8
BLACK
6
CONTINUOUS
10
6.4393291732283462
20
-4.3059928740157476
11
6.431830118110236
21
-4.3022433070866137
0
LINE
8
BLACK
6
CONTINUOUS
10
6.476824488188976
20
-4.2684975590551177
11
6.476824488188976
21
-4.2834956692913382
0
LINE
8
BLACK
6
CONTINUOUS
10
6.5068207480314957
20
-4.2684975590551177
11
6.5068207480314957
21
-4.2834956692913382
0
LINE
8
BLACK
6
CONTINUOUS
10
6.6230562598425191
20
-4.3772339370078743
11
6.6193066929133852
21
-4.3734844094488192
0
LINE
8
BLACK
6
CONTINUOUS
10
6.6193066929133852
20
-4.3734844094488192
11
6.611807637795275
21
-4.362235826771653
0
LINE
8
BLACK
6
CONTINUOUS
10
6.611807637795275
20
-4.362235826771653
11
6.6080581102362199
21
-4.3547367716535428
0
LINE
8
BLACK
6
CONTINUOUS
10
6.6080581102362199
20
-4.3547367716535428
11
6.6043085826771648
21
-4.3434881889763775
0
LINE
8
BLACK
6
CONTINUOUS
10
6.6043085826771648
20
-4.3434881889763775
11
6.6005590551181097
21
-4.3247405118110231
0
LINE
8
BLACK
6
CONTINUOUS
10
6.6005590551181097
20
-4.3247405118110231
11
6.6005590551181097
21
-4.3097424015748027
0
LINE
8
BLACK
6
CONTINUOUS
10
6.6005590551181097
20
-4.3097424015748027
11
6.6043085826771648
21
-4.2909947244094484
0
LINE
8
BLACK
6
CONTINUOUS
10
6.6043085826771648
20
-4.2909947244094484
11
6.6080581102362199
21
-4.2797461417322831
0
LINE
8
BLACK
6
CONTINUOUS
10
6.6080581102362199
20
-4.2797461417322831
11
6.611807637795275
21
-4.2722470866141729
0
LINE
8
BLACK
6
CONTINUOUS
10
6.611807637795275
20
-4.2722470866141729
11
6.6193066929133852
21
-4.2609984645669288
0
LINE
8
BLACK
6
CONTINUOUS
10
6.6193066929133852
20
-4.2609984645669288
11
6.6230562598425191
21
-4.2572489370078737
0
LINE
8
BLACK
6
CONTINUOUS
10
6.6493029527559058
20
-4.275996614173228
11
6.6530524803149609
21
-4.2722470866141729
0
LINE
8
BLACK
6
CONTINUOUS
10
6.6530524803149609
20
-4.2722470866141729
11
6.6605515354330711
21
-4.2684975590551177
0
LINE
8
BLACK
6
CONTINUOUS
10
6.6605515354330711
20
-4.2684975590551177
11
6.6792992125984254
21
-4.2684975590551177
0
LINE
8
BLACK
6
CONTINUOUS
10
6.6792992125984254
20
-4.2684975590551177
11
6.6867982677165356
21
-4.2722470866141729
0
LINE
8
BLACK
6
CONTINUOUS
10
6.6867982677165356
20
-4.2722470866141729
11
6.6905477952755907
21
-4.275996614173228
0
LINE
8
BLACK
6
CONTINUOUS
10
6.6905477952755907
20
-4.275996614173228
11
6.6942973228346458
21
-4.2834956692913382
0
LINE
8
BLACK
6
CONTINUOUS
10
6.6942973228346458
20
-4.2834956692913382
11
6.6942973228346458
21
-4.2909947244094484
0
LINE
8
BLACK
6
CONTINUOUS
10
6.6942973228346458
20
-4.2909947244094484
11
6.6905477952755907
21
-4.3022433070866137
0
LINE
8
BLACK
6
CONTINUOUS
10
6.6905477952755907
20
-4.3022433070866137
11
6.6455534251968507
21
-4.3472377165354326
0
LINE
8
BLACK
6
CONTINUOUS
10
6.6455534251968507
20
-4.3472377165354326
11
6.6942973228346458
21
-4.3472377165354326
0
LINE
8
BLACK
6
CONTINUOUS
10
6.7880356299212599
20
-4.3472377165354326
11
6.7880356299212599
21
-4.2684975590551177
0
LINE
8
BLACK
6
CONTINUOUS
10
6.8217814173228346
20
-4.3472377165354326
11
6.8217814173228346
21
-4.3059928740157476
0
LINE
8
BLACK
6
CONTINUOUS
10
6.8217814173228346
20
-4.3059928740157476
11
6.8180318897637795
21
-4.2984937795275586
0
LINE
8
BLACK
6
CONTINUOUS
10
6.8180318897637795
20
-4.2984937795275586
11
6.8105328346456693
21
-4.2947442519685035
0
LINE
8
BLACK
6
CONTINUOUS
10
6.8105328346456693
20
-4.2947442519685035
11
6.7992842125984252
21
-4.2947442519685035
0
LINE
8
BLACK
6
CONTINUOUS
10
6.7992842125984252
20
-4.2947442519685035
11
6.791785157480315
21
-4.2984937795275586
0
LINE
8
BLACK
6
CONTINUOUS
10
6.791785157480315
20
-4.2984937795275586
11
6.7880356299212599
21
-4.3022433070866137
0
LINE
8
BLACK
6
CONTINUOUS
10
6.8705253149606298
20
-4.3472377165354326
11
6.8630262598425196
21
-4.3434881889763775
0
LINE
8
BLACK
6
CONTINUOUS
10
6.8630262598425196
20
-4.3434881889763775
11
6.8592767322834645
21
-4.3397386220472436
0
LINE
8
BLACK
6
CONTINUOUS
10
6.8592767322834645
20
-4.3397386220472436
11
6.8555272047244094
21
-4.3322395669291334
0
LINE
8
BLACK
6
CONTINUOUS
10
6.8555272047244094
20
-4.3322395669291334
11
6.8555272047244094
21
-4.3097424015748027
0
LINE
8
BLACK
6
CONTINUOUS
10
6.8555272047244094
20
-4.3097424015748027
11
6.8592767322834645
21
-4.3022433070866137
0
LINE
8
BLACK
6
CONTINUOUS
10
6.8592767322834645
20
-4.3022433070866137
11
6.8630262598425196
21
-4.2984937795275586
0
LINE
8
BLACK
6
CONTINUOUS
10
6.8630262598425196
20
-4.2984937795275586
11
6.8705253149606298
21
-4.2947442519685035
0
LINE
8
BLACK
6
CONTINUOUS
10
6.8705253149606298
20
-4.2947442519685035
11
6.8817739370078739
21
-4.2947442519685035
0
LINE
8
BLACK
6
CONTINUOUS
10
6.8817739370078739
20
-4.2947442519685035
11
6.8892729921259841
21
-4.2984937795275586
0
LINE
8
BLACK
6
CONTINUOUS
10
6.8892729921259841
20
-4.2984937795275586
11
6.8930225196850392
21
-4.3022433070866137
0
LINE
8
BLACK
6
CONTINUOUS
10
6.8930225196850392
20
-4.3022433070866137
11
6.8967720472440943
21
-4.3097424015748027
0
LINE
8
BLACK
6
CONTINUOUS
10
6.8967720472440943
20
-4.3097424015748027
11
6.8967720472440943
21
-4.3322395669291334
0
LINE
8
BLACK
6
CONTINUOUS
10
6.8967720472440943
20
-4.3322395669291334
11
6.8930225196850392
21
-4.3397386220472436
0
LINE
8
BLACK
6
CONTINUOUS
10
6.8930225196850392
20
-4.3397386220472436
11
6.8892729921259841
21
-4.3434881889763775
0
LINE
8
BLACK
6
CONTINUOUS
10
6.8892729921259841
20
-4.3434881889763775
11
6.8817739370078739
21
-4.3472377165354326
0
LINE
8
BLACK
6
CONTINUOUS
10
6.8817739370078739
20
-4.3472377165354326
11
6.8705253149606298
21
-4.3472377165354326
0
LINE
8
BLACK
6
CONTINUOUS
10
6.9417664173228344
20
-4.3472377165354326
11
6.9342673622047242
21
-4.3434881889763775
0
LINE
8
BLACK
6
CONTINUOUS
10
6.9342673622047242
20
-4.3434881889763775
11
6.9305178346456691
21
-4.3359890944881885
0
LINE
8
BLACK
6
CONTINUOUS
10
6.9305178346456691
20
-4.3359890944881885
11
6.9305178346456691
21
-4.2684975590551177
0
LINE
8
BLACK
6
CONTINUOUS
10
7.0017589370078737
20
-4.3434881889763775
11
6.9942598818897634
21
-4.3472377165354326
0
LINE
8
BLACK
6
CONTINUOUS
10
6.9942598818897634
20
-4.3472377165354326
11
6.9792617322834642
21
-4.3472377165354326
0
LINE
8
BLACK
6
CONTINUOUS
10
6.9792617322834642
20
-4.3472377165354326
11
6.971762677165354
21
-4.3434881889763775
0
LINE
8
BLACK
6
CONTINUOUS
10
6.971762677165354
20
-4.3434881889763775
11
6.9680131496062989
21
-4.3359890944881885
0
LINE
8
BLACK
6
CONTINUOUS
10
6.9680131496062989
20
-4.3359890944881885
11
6.9680131496062989
21
-4.3059928740157476
0
LINE
8
BLACK
6
CONTINUOUS
10
6.9680131496062989
20
-4.3059928740157476
11
6.971762677165354
21
-4.2984937795275586
0
LINE
8
BLACK
6
CONTINUOUS
10
6.971762677165354
20
-4.2984937795275586
11
6.9792617322834642
21
-4.2947442519685035
0
LINE
8
BLACK
6
CONTINUOUS
10
6.9792617322834642
20
-4.2947442519685035
11
6.9942598818897634
21
-4.2947442519685035
0
LINE
8
BLACK
6
CONTINUOUS
10
6.9942598818897634
20
-4.2947442519685035
11
7.0017589370078737
21
-4.2984937795275586
0
LINE
8
BLACK
6
CONTINUOUS
10
7.0017589370078737
20
-4.2984937795275586
11
7.0055084645669288
21
-4.3059928740157476
0
LINE
8
BLACK
6
CONTINUOUS
10
7.0055084645669288
20
-4.3059928740157476
11
7.0055084645669288
21
-4.3134919291338578
0
LINE
8
BLACK
6
CONTINUOUS
10
7.0055084645669288
20
-4.3134919291338578
11
6.9680131496062989
21
-4.320990984251968
0
LINE
8
BLACK
6
CONTINUOUS
10
7.0355047244094484
20
-4.3434881889763775
11
7.0430037795275586
21
-4.3472377165354326
0
LINE
8
BLACK
6
CONTINUOUS
10
7.0430037795275586
20
-4.3472377165354326
11
7.0580018897637791
21
-4.3472377165354326
0
LINE
8
BLACK
6
CONTINUOUS
10
7.0580018897637791
20
-4.3472377165354326
11
7.065500984251968
21
-4.3434881889763775
0
LINE
8
BLACK
6
CONTINUOUS
10
7.065500984251968
20
-4.3434881889763775
11
7.0692505118110232
21
-4.3359890944881885
0
LINE
8
BLACK
6
CONTINUOUS
10
7.0692505118110232
20
-4.3359890944881885
11
7.0692505118110232
21
-4.3322395669291334
0
LINE
8
BLACK
6
CONTINUOUS
10
7.0692505118110232
20
-4.3322395669291334
11
7.065500984251968
21
-4.3247405118110231
0
LINE
8
BLACK
6
CONTINUOUS
10
7.065500984251968
20
-4.3247405118110231
11
7.0580018897637791
21
-4.320990984251968
0
LINE
8
BLACK
6
CONTINUOUS
10
7.0580018897637791
20
-4.320990984251968
11
7.0467533070866137
21
-4.320990984251968
0
LINE
8
BLACK
6
CONTINUOUS
10
7.0467533070866137
20
-4.320990984251968
11
7.0392542519685035
21
-4.3172414566929129
0
LINE
8
BLACK
6
CONTINUOUS
10
7.0392542519685035
20
-4.3172414566929129
11
7.0355047244094484
21
-4.3097424015748027
0
LINE
8
BLACK
6
CONTINUOUS
10
7.0355047244094484
20
-4.3097424015748027
11
7.0355047244094484
21
-4.3059928740157476
0
LINE
8
BLACK
6
CONTINUOUS
10
7.0355047244094484
20
-4.3059928740157476
11
7.0392542519685035
21
-4.2984937795275586
0
LINE
8
BLACK
6
CONTINUOUS
10
7.0392542519685035
20
-4.2984937795275586
11
7.0467533070866137
21
-4.2947442519685035
0
LINE
8
BLACK
6
CONTINUOUS
10
7.0467533070866137
20
-4.2947442519685035
11
7.0580018897637791
21
-4.2947442519685035
0
LINE
8
BLACK
6
CONTINUOUS
10
7.0580018897637791
20
-4.2947442519685035
11
7.065500984251968
21
-4.2984937795275586
0
LINE
8
BLACK
6
CONTINUOUS
10
7.0954972440944877
20
-4.3772339370078743
11
7.0992467716535428
21
-4.3734844094488192
0
LINE
8
BLACK
6
CONTINUOUS
10
7.0992467716535428
20
-4.3734844094488192
11
7.106745826771653
21
-4.362235826771653
0
LINE
8
BLACK
6
CONTINUOUS
10
7.106745826771653
20
-4.362235826771653
11
7.1104953543307081
21
-4.3547367716535428
0
LINE
8
BLACK
6
CONTINUOUS
10
7.1104953543307081
20
-4.3547367716535428
11
7.1142448818897632
21
-4.3434881889763775
0
LINE
8
BLACK
6
CONTINUOUS
10
7.1142448818897632
20
-4.3434881889763775
11
7.1179944094488183
21
-4.3247405118110231
0
LINE
8
BLACK
6
CONTINUOUS
10
7.1179944094488183
20
-4.3247405118110231
11
7.1179944094488183
21
-4.3097424015748027
0
LINE
8
BLACK
6
CONTINUOUS
10
7.1179944094488183
20
-4.3097424015748027
11
7.1142448818897632
21
-4.2909947244094484
0
LINE
8
BLACK
6
CONTINUOUS
10
7.1142448818897632
20
-4.2909947244094484
11
7.1104953543307081
21
-4.2797461417322831
0
LINE
8
BLACK
6
CONTINUOUS
10
7.1104953543307081
20
-4.2797461417322831
11
7.106745826771653
21
-4.2722470866141729
0
LINE
8
BLACK
6
CONTINUOUS
10
7.106745826771653
20
-4.2722470866141729
11
7.0992467716535428
21
-4.2609984645669288
0
LINE
8
BLACK
6
CONTINUOUS
10
7.0992467716535428
20
-4.2609984645669288
11
7.0954972440944877
21
-4.2572489370078737
0
LINE
8
BLACK
6
CONTINUOUS
10
7.2379794488188978
20
-4.3772339370078743
11
7.2342298818897639
21
-4.3734844094488192
0
LINE
8
BLACK
6
CONTINUOUS
10
7.2342298818897639
20
-4.3734844094488192
11
7.2267308267716537
21
-4.362235826771653
0
LINE
8
BLACK
6
CONTINUOUS
10
7.2267308267716537
20
-4.362235826771653
11
7.2229812992125986
21
-4.3547367716535428
0
LINE
8
BLACK
6
CONTINUOUS
10
7.2229812992125986
20
-4.3547367716535428
11
7.2192317716535435
21
-4.3434881889763775
0
LINE
8
BLACK
6
CONTINUOUS
10
7.2192317716535435
20
-4.3434881889763775
11
7.2154822440944884
21
-4.3247405118110231
0
LINE
8
BLACK
6
CONTINUOUS
10
7.2154822440944884
20
-4.3247405118110231
11
7.2154822440944884
21
-4.3097424015748027
0
LINE
8
BLACK
6
CONTINUOUS
10
7.2154822440944884
20
-4.3097424015748027
11
7.2192317716535435
21
-4.2909947244094484
0
LINE
8
BLACK
6
CONTINUOUS
10
7.2192317716535435
20
-4.2909947244094484
11
7.2229812992125986
21
-4.2797461417322831
0
LINE
8
BLACK
6
CONTINUOUS
10
7.2229812992125986
20
-4.2797461417322831
11
7.2267308267716537
21
-4.2722470866141729
0
LINE
8
BLACK
6
CONTINUOUS
10
7.2267308267716537
20
-4.2722470866141729
11
7.2342298818897639
21
-4.2609984645669288
0
LINE
8
BLACK
6
CONTINUOUS
10
7.2342298818897639
20
-4.2609984645669288
11
7.2379794488188978
21
-4.2572489370078737
0
LINE
8
BLACK
6
CONTINUOUS
10
7.2679756692913386
20
-4.2947442519685035
11
7.2679756692913386
21
-4.3472377165354326
0
LINE
8
BLACK
6
CONTINUOUS
10
7.2679756692913386
20
-4.3022433070866137
11
7.2717251968503938
21
-4.2984937795275586
0
LINE
8
BLACK
6
CONTINUOUS
10
7.2717251968503938
20
-4.2984937795275586
11
7.279224251968504
21
-4.2947442519685035
0
LINE
8
BLACK
6
CONTINUOUS
10
7.279224251968504
20
-4.2947442519685035
11
7.2904728740157481
21
-4.2947442519685035
0
LINE
8
BLACK
6
CONTINUOUS
10
7.2904728740157481
20
-4.2947442519685035
11
7.2979719291338583
21
-4.2984937795275586
0
LINE
8
BLACK
6
CONTINUOUS
10
7.2979719291338583
20
-4.2984937795275586
11
7.3017214566929134
21
-4.3059928740157476
0
LINE
8
BLACK
6
CONTINUOUS
10
7.3017214566929134
20
-4.3059928740157476
11
7.3017214566929134
21
-4.3472377165354326
0
LINE
8
BLACK
6
CONTINUOUS
10
7.3504653543307086
20
-4.3472377165354326
11
7.3429662992125984
21
-4.3434881889763775
0
LINE
8
BLACK
6
CONTINUOUS
10
7.3429662992125984
20
-4.3434881889763775
11
7.3392167716535432
21
-4.3397386220472436
0
LINE
8
BLACK
6
CONTINUOUS
10
7.3392167716535432
20
-4.3397386220472436
11
7.3354672440944881
21
-4.3322395669291334
0
LINE
8
BLACK
6
CONTINUOUS
10
7.3354672440944881
20
-4.3322395669291334
11
7.3354672440944881
21
-4.3097424015748027
0
LINE
8
BLACK
6
CONTINUOUS
10
7.3354672440944881
20
-4.3097424015748027
11
7.3392167716535432
21
-4.3022433070866137
0
LINE
8
BLACK
6
CONTINUOUS
10
7.3392167716535432
20
-4.3022433070866137
11
7.3429662992125984
21
-4.2984937795275586
0
LINE
8
BLACK
6
CONTINUOUS
10
7.3429662992125984
20
-4.2984937795275586
11
7.3504653543307086
21
-4.2947442519685035
0
LINE
8
BLACK
6
CONTINUOUS
10
7.3504653543307086
20
-4.2947442519685035
11
7.3617139763779527
21
-4.2947442519685035
0
LINE
8
BLACK
6
CONTINUOUS
10
7.3617139763779527
20
-4.2947442519685035
11
7.3692130314960629
21
-4.2984937795275586
0
LINE
8
BLACK
6
CONTINUOUS
10
7.3692130314960629
20
-4.2984937795275586
11
7.372962559055118
21
-4.3022433070866137
0
LINE
8
BLACK
6
CONTINUOUS
10
7.372962559055118
20
-4.3022433070866137
11
7.3767120866141731
21
-4.3097424015748027
0
LINE
8
BLACK
6
CONTINUOUS
10
7.3767120866141731
20
-4.3097424015748027
11
7.3767120866141731
21
-4.3322395669291334
0
LINE
8
BLACK
6
CONTINUOUS
10
7.3767120866141731
20
-4.3322395669291334
11
7.372962559055118
21
-4.3397386220472436
0
LINE
8
BLACK
6
CONTINUOUS
10
7.372962559055118
20
-4.3397386220472436
11
7.3692130314960629
21
-4.3434881889763775
0
LINE
8
BLACK
6
CONTINUOUS
10
7.3692130314960629
20
-4.3434881889763775
11
7.3617139763779527
21
-4.3472377165354326
0
LINE
8
BLACK
6
CONTINUOUS
10
7.3617139763779527
20
-4.3472377165354326
11
7.3504653543307086
21
-4.3472377165354326
0
LINE
8
BLACK
6
CONTINUOUS
10
7.3992092913385825
20
-4.2947442519685035
11
7.4292055118110234
21
-4.2947442519685035
0
LINE
8
BLACK
6
CONTINUOUS
10
7.4104578740157478
20
-4.2684975590551177
11
7.4104578740157478
21
-4.3359890944881885
0
LINE
8
BLACK
6
CONTINUOUS
10
7.4104578740157478
20
-4.3359890944881885
11
7.414207401574803
21
-4.3434881889763775
0
LINE
8
BLACK
6
CONTINUOUS
10
7.414207401574803
20
-4.3434881889763775
11
7.4217064566929132
21
-4.3472377165354326
0
LINE
8
BLACK
6
CONTINUOUS
10
7.4217064566929132
20
-4.3472377165354326
11
7.4292055118110234
21
-4.3472377165354326
0
LINE
8
BLACK
6
CONTINUOUS
10
7.5154447637795272
20
-4.2947442519685035
11
7.5154447637795272
21
-4.3734844094488192
0
LINE
8
BLACK
6
CONTINUOUS
10
7.5154447637795272
20
-4.2984937795275586
11
7.5229438188976374
21
-4.2947442519685035
0
LINE
8
BLACK
6
CONTINUOUS
10
7.5229438188976374
20
-4.2947442519685035
11
7.5379419685039366
21
-4.2947442519685035
0
LINE
8
BLACK
6
CONTINUOUS
10
7.5379419685039366
20
-4.2947442519685035
11
7.5454410236220468
21
-4.2984937795275586
0
LINE
8
BLACK
6
CONTINUOUS
10
7.5454410236220468
20
-4.2984937795275586
11
7.5491905511811019
21
-4.3022433070866137
0
LINE
8
BLACK
6
CONTINUOUS
10
7.5491905511811019
20
-4.3022433070866137
11
7.552940078740157
21
-4.3097424015748027
0
LINE
8
BLACK
6
CONTINUOUS
10
7.552940078740157
20
-4.3097424015748027
11
7.552940078740157
21
-4.3322395669291334
0
LINE
8
BLACK
6
CONTINUOUS
10
7.552940078740157
20
-4.3322395669291334
11
7.5491905511811019
21
-4.3397386220472436
0
LINE
8
BLACK
6
CONTINUOUS
10
7.5491905511811019
20
-4.3397386220472436
11
7.5454410236220468
21
-4.3434881889763775
0
LINE
8
BLACK
6
CONTINUOUS
10
7.5454410236220468
20
-4.3434881889763775
11
7.5379419685039366
21
-4.3472377165354326
0
LINE
8
BLACK
6
CONTINUOUS
10
7.5379419685039366
20
-4.3472377165354326
11
7.5229438188976374
21
-4.3472377165354326
0
LINE
8
BLACK
6
CONTINUOUS
10
7.5229438188976374
20
-4.3472377165354326
11
7.5154447637795272
21
-4.3434881889763775
0
LINE
8
BLACK
6
CONTINUOUS
10
7.5979344488188971
20
-4.3472377165354326
11
7.5904353937007869
21
-4.3434881889763775
0
LINE
8
BLACK
6
CONTINUOUS
10
7.5904353937007869
20
-4.3434881889763775
11
7.5866858661417318
21
-4.3359890944881885
0
LINE
8
BLACK
6
CONTINUOUS
10
7.5866858661417318
20
-4.3359890944881885
11
7.5866858661417318
21
-4.2684975590551177
0
LINE
8
BLACK
6
CONTINUOUS
10
7.6616764960629924
20
-4.3472377165354326
11
7.6616764960629924
21
-4.3059928740157476
0
LINE
8
BLACK
6
CONTINUOUS
10
7.6616764960629924
20
-4.3059928740157476
11
7.6579269685039364
21
-4.2984937795275586
0
LINE
8
BLACK
6
CONTINUOUS
10
7.6579269685039364
20
-4.2984937795275586
11
7.6504279133858262
21
-4.2947442519685035
0
LINE
8
BLACK
6
CONTINUOUS
10
7.6504279133858262
20
-4.2947442519685035
11
7.635429763779527
21
-4.2947442519685035
0
LINE
8
BLACK
6
CONTINUOUS
10
7.635429763779527
20
-4.2947442519685035
11
7.6279307086614168
21
-4.2984937795275586
0
LINE
8
BLACK
6
CONTINUOUS
10
7.6616764960629924
20
-4.3434881889763775
11
7.6541774409448813
21
-4.3472377165354326
0
LINE
8
BLACK
6
CONTINUOUS
10
7.6541774409448813
20
-4.3472377165354326
11
7.635429763779527
21
-4.3472377165354326
0
LINE
8
BLACK
6
CONTINUOUS
10
7.635429763779527
20
-4.3472377165354326
11
7.6279307086614168
21
-4.3434881889763775
0
LINE
8
BLACK
6
CONTINUOUS
10
7.6279307086614168
20
-4.3434881889763775
11
7.6241811811023616
21
-4.3359890944881885
0
LINE
8
BLACK
6
CONTINUOUS
10
7.6241811811023616
20
-4.3359890944881885
11
7.6241811811023616
21
-4.3284900393700783
0
LINE
8
BLACK
6
CONTINUOUS
10
7.6241811811023616
20
-4.3284900393700783
11
7.6279307086614168
21
-4.320990984251968
0
LINE
8
BLACK
6
CONTINUOUS
10
7.6279307086614168
20
-4.320990984251968
11
7.635429763779527
21
-4.3172414566929129
0
LINE
8
BLACK
6
CONTINUOUS
10
7.635429763779527
20
-4.3172414566929129
11
7.6541774409448813
21
-4.3172414566929129
0
LINE
8
BLACK
6
CONTINUOUS
10
7.6541774409448813
20
-4.3172414566929129
11
7.6616764960629924
21
-4.3134919291338578
0
LINE
8
BLACK
6
CONTINUOUS
10
7.6879232283464569
20
-4.2947442519685035
11
7.7179194488188978
21
-4.2947442519685035
0
LINE
8
BLACK
6
CONTINUOUS
10
7.6991718110236222
20
-4.2684975590551177
11
7.6991718110236222
21
-4.3359890944881885
0
LINE
8
BLACK
6
CONTINUOUS
10
7.6991718110236222
20
-4.3359890944881885
11
7.7029213385826774
21
-4.3434881889763775
0
LINE
8
BLACK
6
CONTINUOUS
10
7.7029213385826774
20
-4.3434881889763775
11
7.7104203937007876
21
-4.3472377165354326
0
LINE
8
BLACK
6
CONTINUOUS
10
7.7104203937007876
20
-4.3472377165354326
11
7.7179194488188978
21
-4.3472377165354326
0
LINE
8
BLACK
6
CONTINUOUS
10
7.774162440944882
20
-4.3434881889763775
11
7.7666633858267717
21
-4.3472377165354326
0
LINE
8
BLACK
6
CONTINUOUS
10
7.7666633858267717
20
-4.3472377165354326
11
7.7516652362204725
21
-4.3472377165354326
0
LINE
8
BLACK
6
CONTINUOUS
10
7.7516652362204725
20
-4.3472377165354326
11
7.7441661811023623
21
-4.3434881889763775
0
LINE
8
BLACK
6
CONTINUOUS
10
7.7441661811023623
20
-4.3434881889763775
11
7.7404166535433072
21
-4.3359890944881885
0
LINE
8
BLACK
6
CONTINUOUS
10
7.7404166535433072
20
-4.3359890944881885
11
7.7404166535433072
21
-4.3059928740157476
0
LINE
8
BLACK
6
CONTINUOUS
10
7.7404166535433072
20
-4.3059928740157476
11
7.7441661811023623
21
-4.2984937795275586
0
LINE
8
BLACK
6
CONTINUOUS
10
7.7441661811023623
20
-4.2984937795275586
11
7.7516652362204725
21
-4.2947442519685035
0
LINE
8
BLACK
6
CONTINUOUS
10
7.7516652362204725
20
-4.2947442519685035
11
7.7666633858267717
21
-4.2947442519685035
0
LINE
8
BLACK
6
CONTINUOUS
10
7.7666633858267717
20
-4.2947442519685035
11
7.774162440944882
21
-4.2984937795275586
0
LINE
8
BLACK
6
CONTINUOUS
10
7.774162440944882
20
-4.2984937795275586
11
7.7779119685039371
21
-4.3059928740157476
0
LINE
8
BLACK
6
CONTINUOUS
10
7.7779119685039371
20
-4.3059928740157476
11
7.7779119685039371
21
-4.3134919291338578
0
LINE
8
BLACK
6
CONTINUOUS
10
7.7779119685039371
20
-4.3134919291338578
11
7.7404166535433072
21
-4.320990984251968
0
LINE
8
BLACK
6
CONTINUOUS
10
7.8454035433070866
20
-4.3472377165354326
11
7.8454035433070866
21
-4.2684975590551177
0
LINE
8
BLACK
6
CONTINUOUS
10
7.8454035433070866
20
-4.3434881889763775
11
7.8379044881889763
21
-4.3472377165354326
0
LINE
8
BLACK
6
CONTINUOUS
10
7.8379044881889763
20
-4.3472377165354326
11
7.8229063385826771
21
-4.3472377165354326
0
LINE
8
BLACK
6
CONTINUOUS
10
7.8229063385826771
20
-4.3472377165354326
11
7.8154072834645669
21
-4.3434881889763775
0
LINE
8
BLACK
6
CONTINUOUS
10
7.8154072834645669
20
-4.3434881889763775
11
7.8116577559055118
21
-4.3397386220472436
0
LINE
8
BLACK
6
CONTINUOUS
10
7.8116577559055118
20
-4.3397386220472436
11
7.8079082283464567
21
-4.3322395669291334
0
LINE
8
BLACK
6
CONTINUOUS
10
7.8079082283464567
20
-4.3322395669291334
11
7.8079082283464567
21
-4.3097424015748027
0
LINE
8
BLACK
6
CONTINUOUS
10
7.8079082283464567
20
-4.3097424015748027
11
7.8116577559055118
21
-4.3022433070866137
0
LINE
8
BLACK
6
CONTINUOUS
10
7.8116577559055118
20
-4.3022433070866137
11
7.8154072834645669
21
-4.2984937795275586
0
LINE
8
BLACK
6
CONTINUOUS
10
7.8154072834645669
20
-4.2984937795275586
11
7.8229063385826771
21
-4.2947442519685035
0
LINE
8
BLACK
6
CONTINUOUS
10
7.8229063385826771
20
-4.2947442519685035
11
7.8379044881889763
21
-4.2947442519685035
0
LINE
8
BLACK
6
CONTINUOUS
10
7.8379044881889763
20
-4.2947442519685035
11
7.8454035433070866
21
-4.2984937795275586
0
LINE
8
BLACK
6
CONTINUOUS
10
7.8753998031496062
20
-4.3772339370078743
11
7.8791493307086613
21
-4.3734844094488192
0
LINE
8
BLACK
6
CONTINUOUS
10
7.8791493307086613
20
-4.3734844094488192
11
7.8866483858267715
21
-4.362235826771653
0
LINE
8
BLACK
6
CONTINUOUS
10
7.8866483858267715
20
-4.362235826771653
11
7.8903979133858266
21
-4.3547367716535428
0
LINE
8
BLACK
6
CONTINUOUS
10
7.8903979133858266
20
-4.3547367716535428
11
7.8941474409448817
21
-4.3434881889763775
0
LINE
8
BLACK
6
CONTINUOUS
10
7.8941474409448817
20
-4.3434881889763775
11
7.8978969685039369
21
-4.3247405118110231
0
LINE
8
BLACK
6
CONTINUOUS
10
7.8978969685039369
20
-4.3247405118110231
11
7.8978969685039369
21
-4.3097424015748027
0
LINE
8
BLACK
6
CONTINUOUS
10
7.8978969685039369
20
-4.3097424015748027
11
7.8941474409448817
21
-4.2909947244094484
0
LINE
8
BLACK
6
CONTINUOUS
10
7.8941474409448817
20
-4.2909947244094484
11
7.8903979133858266
21
-4.2797461417322831
0
LINE
8
BLACK
6
CONTINUOUS
10
7.8903979133858266
20
-4.2797461417322831
11
7.8866483858267715
21
-4.2722470866141729
0
LINE
8
BLACK
6
CONTINUOUS
10
7.8866483858267715
20
-4.2722470866141729
11
7.8791493307086613
21
-4.2609984645669288
0
LINE
8
BLACK
6
CONTINUOUS
10
7.8791493307086613
20
-4.2609984645669288
11
7.8753998031496062
21
-4.2572489370078737
  0
ENDSEC
  0
EOF
